<svg width="91" height="22" viewBox="0 0 91 22" fill="none" xmlns="http://www.w3.org/2000/svg">
<path d="M11.6 11.275C11.6 11.65 11.6 12.525 11.65 13.25C11.7 14 11.7 14.825 11.7 15.15C11.7 19.2 9.275 21.6 5.6 21.6C2.425 21.6 0.85 20.175 0.85 18.325V16.875H1.025C1.875 17.775 3.325 18.1 4.975 18.1C6.75 18.1 7.575 17.05 7.575 15.025C7.575 14.775 7.55 14.3 7.5 14.05C7.15 14.975 6.25 15.775 5.2 15.775C2.225 15.775 0 13.825 0 10.2C0 6.15 2.45 3 6.225 3C9.75 3 11.6 4.925 11.6 9.425V11.275ZM7.5 9.45C7.5 7.225 7.15 6.425 6.05 6.425C4.95 6.425 4.175 7.55 4.175 9.5C4.175 11.8 4.925 12.35 5.8 12.35C6.925 12.35 7.5 11.45 7.5 9.45Z" fill="#FFC700"/>
<path d="M13.4771 10.35C13.4771 6.1 15.8271 3 19.6521 3C23.2271 3 25.7022 5.7 25.7022 10.125C25.7022 14.55 23.5271 17.45 19.5521 17.45C15.8271 17.45 13.4771 14.55 13.4771 10.35ZM21.5771 10.5C21.5771 7.325 20.6771 6.5 19.5021 6.5C18.4271 6.5 17.6021 7.725 17.6021 9.95C17.6021 12.925 18.4271 13.975 19.7271 13.975C20.6521 13.975 21.5771 13 21.5771 10.5Z" fill="#FFC700"/>
<path d="M27.1979 10.35C27.1979 6.1 29.5479 3 33.3729 3C36.9479 3 39.4229 5.7 39.4229 10.125C39.4229 14.55 37.2479 17.45 33.2729 17.45C29.5479 17.45 27.1979 14.55 27.1979 10.35ZM35.2979 10.5C35.2979 7.325 34.3979 6.5 33.2229 6.5C32.1479 6.5 31.3229 7.725 31.3229 9.95C31.3229 12.925 32.1479 13.975 33.4479 13.975C34.3729 13.975 35.2979 13 35.2979 10.5Z" fill="#FFC700"/>
<path d="M59.8186 17.1H58.3936C56.3436 17.1 55.5936 16.15 55.5936 14.55V9.325C55.5936 6.975 55.0936 6.525 53.9936 6.525C53.0686 6.525 52.5936 7.1 52.5936 9.225V17.1H51.3436C49.5186 17.1 48.5686 16.375 48.5686 14.55V9.15C48.5686 7.6 48.3436 6.525 46.9686 6.525C45.8436 6.525 45.5436 7.175 45.5436 9.3V17.1H44.0936C42.3186 17.1 41.3436 16.05 41.3436 14.55V9.25C41.3436 5.4 43.3686 3 46.9936 3C48.8686 3 50.1686 3.975 50.6686 5C51.3186 4.05 52.6936 3 54.3686 3C57.8436 3 59.8186 4.775 59.8186 8.975V17.1Z" fill="#FFC700"/>
<path d="M72.2688 11.7C72.2688 15.75 70.7688 17.45 66.8938 17.45C63.9688 17.45 61.7438 15.825 61.7438 13C61.7438 10.125 63.5938 8.525 67.7938 8.525H68.2938V8.075C68.2938 6.725 67.4938 6.4 66.0438 6.4C64.0438 6.4 62.9938 7.025 62.2438 7.9H62.1188V6.375C62.1188 4.825 63.5188 3 66.9188 3C70.0938 3 72.2688 4.9 72.2688 8.675V11.7ZM68.3688 12.425V11.3H67.7188C66.2688 11.3 65.6937 11.825 65.6937 12.8C65.6937 13.775 66.1438 14.2 67.1188 14.2C67.7688 14.2 68.3688 13.875 68.3688 12.425Z" fill="#FFC700"/>
<path d="M81.6049 6.85H81.3799C80.9549 6.625 80.4049 6.5 79.7799 6.5C78.8049 6.5 78.2799 6.9 78.2799 8.8V17.1H76.9299C75.3799 17.1 74.2049 16.3 74.2049 14.475V8.275C74.2049 4.8 76.0049 3 78.6799 3C80.7049 3 81.6049 4.025 81.6049 5.25V6.85Z" fill="#FFC700"/>
<path d="M86.9963 0V3.35H90.4213V4.9C90.4213 5.975 89.4963 6.825 88.4213 6.825H86.9713V12.2C86.9713 13.325 87.5713 13.775 88.3963 13.775C89.3463 13.775 89.7963 13.575 90.1713 13.325H90.2963V15.075C90.2963 16.35 89.2963 17.325 87.3963 17.325C84.8713 17.325 82.8963 16.1 82.8963 12.325V3.45C82.8963 2.25 83.5213 1.425 84.2713 0.8C84.8463 0.325 85.5463 0 86.3463 0H86.9963Z" fill="#FFC700"/>
</svg>
