<svg width="250" height="223" viewBox="0 0 250 223" fill="none" xmlns="http://www.w3.org/2000/svg">
<path opacity="0.7" d="M36.6123 203.388C85.428 229.537 164.574 229.538 213.388 203.389C262.204 177.239 262.204 134.844 213.388 108.696C164.573 82.5469 85.4268 82.5469 36.6117 108.695C-12.204 134.844 -12.204 177.24 36.6123 203.388Z" fill="#FFD306"/>
<path d="M90.4856 140.08C77.3081 146.283 55.9439 146.283 42.767 140.08C29.5894 133.878 29.5894 123.822 42.767 117.618C55.9445 111.417 77.3081 111.417 90.4856 117.618C103.663 123.822 103.663 133.879 90.4856 140.08Z" fill="#E0E0E0"/>
<path d="M24.2199 127.815L28.0127 125.676C28.0127 125.676 29.8315 115.776 28.4712 107.266C26.5589 95.3021 18.3095 91.1749 15.3138 92.3641C12.3181 93.5532 11.6139 97.0977 17.0244 104.011C20.2159 108.09 24.3223 116.711 24.2199 127.815Z" fill="#25AC10"/>
<g opacity="0.1">
<path d="M24.2199 127.815L28.0127 125.676C28.0127 125.676 29.8315 115.776 28.4712 107.266C26.5589 95.3021 18.3095 91.1749 15.3138 92.3641C12.3181 93.5532 11.6139 97.0977 17.0244 104.011C20.2159 108.09 24.3223 116.711 24.2199 127.815Z" fill="black"/>
</g>
<path d="M25.5944 123.064C25.582 123.064 25.5695 123.062 25.5571 123.061C25.4092 123.041 25.3057 122.906 25.3264 122.76C26.8937 111.559 22.3324 99.2871 17.2078 94.3414C17.1013 94.2385 17.0989 94.0691 17.2036 93.9639C17.3084 93.8599 17.4794 93.8564 17.5859 93.9598C22.804 98.9956 27.4529 111.468 25.8618 122.833C25.8429 122.967 25.7269 123.064 25.5944 123.064Z" fill="white"/>
<path d="M13.6974 133.818C13.098 134.158 11.8631 133.415 11.3898 133.102C10.5798 132.566 9.92357 131.805 9.48809 130.946C8.98101 129.945 8.8532 128.874 9.01178 127.767C9.09402 127.193 9.25674 126.634 9.41886 126.077C9.57803 125.53 9.73719 124.983 9.89636 124.436C10.0532 123.896 10.2123 123.338 10.1401 122.781C9.99458 121.659 8.98633 120.872 8.06921 120.195C7.05506 119.445 5.99948 118.455 6.0054 117.104C6.01013 116.062 6.55626 115.094 7.21067 114.276C7.86449 113.458 8.64079 112.735 9.23189 111.871C9.65731 111.25 9.98925 110.52 9.92061 109.773C9.87742 109.309 9.68275 108.871 9.45791 108.461C8.97509 107.582 8.33784 106.776 8.00472 105.831C7.6716 104.886 7.71893 103.711 8.46565 103.035C9.07864 102.48 9.98984 102.402 10.8194 102.457C11.5868 102.507 12.3371 102.849 13.0087 103.218C15.1802 104.41 16.4197 106.95 18.7244 107.868C19.6131 108.222 20.587 108.299 21.5136 108.541C22.4402 108.783 23.3845 109.25 23.8141 110.096C24.6602 111.765 23.0899 113.821 23.6851 115.592C24.2111 117.16 25.7537 117.76 26.6199 119.172C26.9986 119.79 27.0862 120.504 27.0252 121.224C26.9217 122.443 26.7412 123.337 26.1489 124.692C25.6596 125.811 24.2218 127.815 24.2218 127.815C24.1839 127.851 13.7891 133.766 13.6974 133.818Z" fill="#25AC10"/>
<path d="M19.8541 130.58C19.8505 130.58 19.8464 130.58 19.8464 130.58C19.6931 130.573 19.5777 130.449 19.5837 130.301C20.0304 119.699 14.972 107.995 11.2941 104.594C11.1852 104.494 11.1793 104.325 11.2816 104.217C11.384 104.109 11.5544 104.104 11.6639 104.205C15.4158 107.673 20.5777 119.572 20.1245 130.324C20.118 130.467 19.9984 130.58 19.8541 130.58Z" fill="white"/>
<path d="M18.2448 118.054C18.2182 118.054 18.1915 118.05 18.1649 118.041C14.716 116.988 10.4167 116.802 10.3741 116.801C10.2244 116.795 10.109 116.67 10.115 116.523C10.1215 116.376 10.2345 116.26 10.3966 116.267C10.4404 116.27 14.8077 116.458 18.3247 117.532C18.4673 117.575 18.5477 117.725 18.5034 117.865C18.4673 117.98 18.3608 118.054 18.2448 118.054Z" fill="white"/>
<path d="M209.45 181.763C211.487 177.383 218.913 169.763 226.161 166.163C233.408 162.562 242.578 161.685 246.912 165.753C250.948 169.541 247.545 175.509 239.824 176.985C232.104 178.462 220.971 179.666 215.114 185.613L205.7 191.9L209.45 181.763Z" fill="#25AC10"/>
<path opacity="0.1" d="M209.45 181.763C211.487 177.383 218.913 169.763 226.161 166.163C233.408 162.562 242.578 161.685 246.912 165.753C250.948 169.541 247.545 175.509 239.824 176.985C232.104 178.462 220.971 179.666 215.114 185.613L205.7 191.9L209.45 181.763Z" fill="black"/>
<path d="M206.336 187.608C206.483 187.661 206.652 187.613 206.748 187.483C216.67 173.877 234.57 167.277 243.15 167.916C243.347 167.93 243.518 167.785 243.532 167.591C243.548 167.398 243.405 167.227 243.203 167.213C234.46 166.562 216.241 173.259 206.169 187.071C206.054 187.229 206.09 187.449 206.249 187.562C206.277 187.582 206.306 187.597 206.336 187.608Z" fill="white"/>
<path d="M204.144 198.203C206.001 196.064 210.936 193.381 217.422 192.259C224.598 191.016 232.287 192.436 235.221 190.267C238.744 187.661 237.307 183.037 231.39 181.184C225.475 179.332 212.127 182.412 205.274 193.053L204.144 198.203Z" fill="#25AC10"/>
<path d="M204.262 195.129C204.39 195.175 204.538 195.146 204.64 195.044C215.239 184.339 227.226 184.331 232.084 185.822C232.271 185.88 232.471 185.776 232.53 185.59C232.589 185.403 232.491 185.209 232.295 185.149C226.924 183.5 214.948 183.625 204.129 194.552C203.992 194.69 203.994 194.914 204.135 195.05C204.173 195.086 204.216 195.113 204.262 195.129Z" fill="white"/>
<path d="M96.7144 143.267L103.658 147.226L101.344 148.546H110.601V143.267L108.287 144.587L101.344 140.627L96.7144 143.267Z" fill="#25AC10"/>
<path d="M114.643 151.412C114.546 151.412 114.448 151.388 114.359 151.337L112.632 150.352C112.359 150.197 112.265 149.853 112.423 149.584C112.58 149.314 112.929 149.222 113.202 149.377L114.929 150.362C115.201 150.517 115.295 150.861 115.138 151.131C115.031 151.311 114.839 151.412 114.643 151.412Z" fill="#25AC10"/>
<path d="M187.437 192.919C187.34 192.919 187.243 192.895 187.153 192.844L183.823 190.944C183.55 190.789 183.456 190.445 183.614 190.175C183.771 189.906 184.12 189.813 184.392 189.969L187.723 191.868C187.996 192.024 188.089 192.368 187.932 192.637C187.826 192.818 187.634 192.919 187.437 192.919ZM179.349 188.307C179.252 188.307 179.155 188.283 179.065 188.231L175.734 186.333C175.461 186.177 175.368 185.833 175.525 185.564C175.683 185.295 176.031 185.202 176.304 185.358L179.635 187.256C179.907 187.412 180.001 187.756 179.843 188.025C179.738 188.206 179.546 188.307 179.349 188.307ZM171.261 183.695C171.164 183.695 171.066 183.671 170.977 183.62L167.646 181.721C167.374 181.565 167.28 181.221 167.437 180.952C167.595 180.682 167.944 180.591 168.216 180.746L171.547 182.645C171.82 182.8 171.913 183.144 171.756 183.414C171.649 183.594 171.458 183.695 171.261 183.695ZM163.172 179.083C163.075 179.083 162.977 179.059 162.888 179.008L159.558 177.109C159.285 176.954 159.192 176.61 159.349 176.34C159.506 176.071 159.855 175.979 160.128 176.134L163.458 178.032C163.731 178.188 163.824 178.532 163.667 178.801C163.561 178.982 163.369 179.083 163.172 179.083ZM155.084 174.472C154.987 174.472 154.889 174.448 154.8 174.396L151.47 172.497C151.197 172.342 151.103 171.998 151.261 171.728C151.418 171.458 151.767 171.366 152.039 171.522L155.369 173.421C155.642 173.576 155.736 173.921 155.578 174.19C155.472 174.371 155.281 174.472 155.084 174.472ZM146.996 169.86C146.899 169.86 146.801 169.836 146.712 169.785L143.382 167.886C143.109 167.731 143.015 167.387 143.173 167.117C143.33 166.848 143.679 166.755 143.951 166.911L147.282 168.809C147.554 168.965 147.648 169.309 147.49 169.578C147.384 169.759 147.193 169.86 146.996 169.86ZM138.907 165.248C138.81 165.248 138.713 165.225 138.623 165.173L135.293 163.274C135.02 163.119 134.926 162.774 135.084 162.505C135.241 162.236 135.59 162.143 135.862 162.299L139.193 164.198C139.466 164.353 139.559 164.697 139.402 164.967C139.296 165.147 139.104 165.248 138.907 165.248ZM130.82 160.636C130.722 160.636 130.625 160.612 130.535 160.561L127.204 158.662C126.932 158.507 126.838 158.163 126.995 157.894C127.153 157.625 127.501 157.532 127.774 157.687L131.105 159.586C131.377 159.741 131.471 160.085 131.314 160.355C131.208 160.535 131.017 160.636 130.82 160.636ZM122.73 156.025C122.633 156.025 122.536 156.001 122.446 155.949L119.116 154.05C118.843 153.895 118.75 153.551 118.907 153.281C119.064 153.011 119.413 152.92 119.686 153.075L123.016 154.974C123.288 155.13 123.382 155.474 123.225 155.743C123.119 155.924 122.928 156.025 122.73 156.025Z" fill="#25AC10"/>
<path d="M193.922 196.616C193.825 196.616 193.727 196.592 193.638 196.54L191.912 195.556C191.639 195.4 191.545 195.056 191.703 194.787C191.86 194.517 192.209 194.426 192.481 194.58L194.208 195.565C194.481 195.721 194.574 196.065 194.417 196.334C194.31 196.515 194.119 196.616 193.922 196.616Z" fill="#25AC10"/>
<path d="M231.65 49.247C231.65 49.2411 231.644 49.2411 231.644 49.2411C231.479 49.1453 231.285 49.0273 231.115 48.9314L214.585 39.557C210.876 37.1034 206.517 35.8208 201.674 35.8208C195.891 35.8208 190.056 37.8917 183.19 41.6448C159.185 54.7783 138.673 92.6529 138.673 117.524V124.405C138.673 154.549 178.813 191.333 178.813 191.333L195.457 200.83C195.48 200.858 195.503 200.858 195.531 200.858C194.972 200.211 213.217 173.927 230.419 122.661C249.462 65.9144 232.009 49.5736 231.65 49.247ZM203.56 139.363C189.971 147.117 178.576 143.054 175.35 130.545C169.117 129.678 164.61 124.963 163.225 117.192C161.476 92.0907 174.98 72.0867 194.318 63.9727C202.586 61.0014 209.514 63.1231 213.218 69.2679C224.58 67.3437 232.705 75.03 232.705 89.5138C232.705 107.857 219.662 130.19 203.56 139.363Z" fill="#455A64"/>
<path d="M232.705 89.5131C232.705 107.857 219.663 130.19 203.56 139.362C189.971 147.116 178.576 143.053 175.35 130.544C179.435 131.124 184.267 130.043 189.452 127.084C204.198 118.689 216.141 98.2459 216.141 81.4493C216.141 76.4638 215.087 72.3559 213.218 69.2672C224.58 67.343 232.705 75.0298 232.705 89.5131Z" fill="#263238"/>
<path d="M180.848 128.791L190.101 134.065V116.373L180.848 111.098V128.791Z" fill="#25AC10"/>
<path opacity="0.2" d="M180.848 128.791L190.101 134.065V116.373L180.848 111.098V128.791Z" fill="black"/>
<path d="M224.985 96.4819L203.548 86.5576L182.111 120.927L190.101 116.373V134.065L200.228 128.29V116.717L206.86 112.936V124.508L217.003 118.72V101.027L224.985 96.4819Z" fill="#25AC10"/>
<path d="M194.294 81.2827L203.547 86.5575L182.11 120.927L172.857 115.653L194.294 81.2827Z" fill="#25AC10"/>
<path opacity="0.1" d="M194.294 81.2827L203.547 86.5575L182.11 120.927L172.857 115.653L194.294 81.2827Z" fill="black"/>
<path d="M194.294 81.2827L203.547 86.5575L224.985 96.4818L215.731 91.207L194.294 81.2827Z" fill="#25AC10"/>
<path opacity="0.4" d="M194.294 81.2827L203.547 86.5575L224.985 96.4818L215.731 91.207L194.294 81.2827Z" fill="white"/>
<path d="M200.227 128.29L206.86 124.508V112.936L200.227 116.717V128.29Z" fill="#25AC10"/>
<path opacity="0.2" d="M200.227 128.29L206.86 124.508V112.936L200.227 116.717V128.29Z" fill="black"/>
<path d="M231.65 49.2471C231.65 49.2412 231.644 49.2412 231.644 49.2412C231.479 49.1454 231.285 49.0274 231.115 48.9315C223.092 44.4807 212.369 45.0773 200.592 51.7842C182.832 61.9241 167.459 83.2166 160.183 105.561C157.294 114.412 156.075 119.099 156.075 127.663V134.539C156.075 157.767 182.302 189.007 194.564 200.166C194.854 200.43 195.145 200.644 195.458 200.83C195.481 200.858 195.504 200.858 195.532 200.858C198.495 202.664 202.518 201.64 204.108 198.404C214.683 177.016 245.502 112.605 245.502 87.6435V80.7694C245.502 65.284 240.197 54.3173 231.65 49.2471ZM175.35 130.545C175.179 129.903 175.031 129.24 174.911 128.553C174.569 126.758 174.41 124.817 174.41 122.746C174.41 104.402 187.452 82.0748 203.56 72.9026C205.371 71.8782 207.155 71.0455 208.876 70.4267C210.369 69.8921 211.816 69.5041 213.218 69.2674C224.58 67.3432 232.705 75.0295 232.705 89.5133C232.705 107.857 219.663 130.19 203.56 139.362C189.971 147.117 178.576 143.054 175.35 130.545Z" fill="#37474F"/>
<path d="M84.4972 24.8547H72.083C66.4684 24.8547 61.9177 20.36 61.9177 14.8153V11.9807C61.9177 5.82299 66.9725 0.831055 73.2072 0.831055C79.4424 0.831055 84.4972 5.82299 84.4972 11.9807V24.8547Z" fill="#263238"/>
<path d="M63.7104 6.432L61.0928 5.04421C61.4644 4.30328 62.3513 4.01345 63.0743 4.39677C63.7974 4.78009 64.082 5.69107 63.7104 6.432Z" fill="#263238"/>
<path d="M63.9325 6.72531L61.1491 7.75315C60.8302 6.98885 61.1947 6.13923 61.9633 5.85525C62.7319 5.57126 63.6135 5.96101 63.9325 6.72531Z" fill="#263238"/>
<path d="M88.6188 39.0842L92.037 45.2723L87.2857 49.2942L82.5344 42.0217L88.6188 39.0842Z" fill="#F6BEC0"/>
<path d="M79.0564 25.8096C80.8457 25.9562 82.6988 26.7106 83.9828 29.336C85.2668 31.9608 89.2826 40.1362 89.2826 40.1362C89.2826 40.1362 88.3785 43.6878 83.6976 44.1587L81.8379 41.3452L79.0564 25.8096Z" fill="#189C03"/>
<path opacity="0.1" d="M79.0564 25.8096C80.8457 25.9562 82.6988 26.7106 83.9828 29.336C85.2668 31.9608 89.2826 40.1362 89.2826 40.1362C89.2826 40.1362 88.3785 43.6878 83.6976 44.1587L81.8379 41.3452L79.0564 25.8096Z" fill="black"/>
<path d="M47.4646 110.761C46.5735 110.308 46.0078 111.425 45.1996 112.321C44.6333 112.95 43.7499 113.945 43.6186 114.661C43.4251 115.721 44.3925 117.39 45.4641 118.31C46.5356 119.23 47.7794 119.889 48.1687 121.906C48.558 123.923 49.3515 125.122 51.4685 126.024C53.788 127.012 56.8955 126.696 57.9493 126.024C59.1978 125.227 58.0576 124.353 56.308 121.88C54.0246 118.654 52.2466 116.349 52.2466 113.339L47.4646 110.761Z" fill="#263238"/>
<path d="M49.2896 108.118L47.4151 110.832C46.6027 112.008 46.856 113.647 48.0482 114.447C48.0672 114.46 48.0867 114.472 48.1062 114.485C49.247 115.216 50.7765 114.924 51.6954 113.934L54.6213 110.781L49.2896 108.118Z" fill="#F6BEC0"/>
<path d="M82.9961 56.6066C83.1144 60.0647 83.7321 72.6763 81.1766 79.2944C78.7844 85.4901 76.62 88.8044 75.8585 90.0911C75.097 91.3778 53.1601 112.469 53.1601 112.469C53.1601 112.469 49.4377 112.199 48.8455 108.634C48.8455 108.634 57.8338 93.5445 59.7799 90.4493C61.726 87.3547 68.6204 82.6094 68.6204 82.6094L67.9932 53.5979L82.9961 56.6066Z" fill="#37474F"/>
<path d="M78.8907 128.854L83.5283 127.812L81.9928 121.143L77.3552 122.184L78.8907 128.854Z" fill="#F6BEC0"/>
<path d="M75.265 67.1651C75.265 67.1651 77.0685 65.6662 79.505 62.3426C83.0505 57.5049 82.5049 53.2095 82.5049 53.2095H81.0529L61.8703 53.5975C59.9686 56.6757 59.5544 61.3434 60.197 65.89C61.5301 75.327 69.4457 91.6614 69.4457 91.6614C69.3351 92.9522 68.7818 98.3771 70.0291 103.187C71.9959 110.774 77.3554 123.614 77.3554 123.614C77.3554 123.614 80.7133 124.088 82.3807 122.169C82.3807 122.169 79.4127 96.1006 78.6134 89.4211C77.7483 82.1941 75.265 67.1651 75.265 67.1651Z" fill="#37474F"/>
<path d="M83.0076 125.547L82.8567 124.892C83.3443 124.983 85.4258 128.397 87.4914 129.881C89.7535 131.506 91.7167 132.466 92.7267 133.198C94.0787 134.178 92.1214 136.184 88.7943 136.363C87.1423 136.451 84.1354 135.955 83.2088 135.086C82.2822 134.218 81.6112 132.781 80.8769 132.156C80.1426 131.532 78.6557 130.984 78.1522 130.184C77.8759 129.745 77.8333 128.656 77.864 127.72C77.8924 126.862 77.9208 125.919 78.2184 125.932C78.2421 126.031 78.3332 126.432 78.3332 126.432C78.7551 126.725 80.0769 127.096 81.1538 127.046C81.9372 127.011 83.3946 126.831 83.0076 125.547Z" fill="#263238"/>
<path d="M78.0275 84.9969C78.0275 84.9969 75.7921 69.3123 75.2649 67.1648C75.2649 67.1648 79.2062 65.6824 80.4173 64.3232C80.4173 64.3232 79.5523 66.2247 76.7335 67.9145L78.0275 84.9969Z" fill="#263238"/>
<path d="M66.1831 84.3911C66.1831 84.3911 68.4883 90.3717 69.4457 91.6619C69.4457 91.6619 69.2067 96.1075 69.2404 97.0062L67.9937 98.0797C67.9937 98.0797 67.9345 94.3458 68.5516 92.0827C68.5516 92.0827 66.9943 88.991 66.1831 84.3911Z" fill="#263238"/>
<path d="M81.9204 42.5684C82.2204 45.3124 82.9961 56.6069 82.9961 56.6069C73.819 61.4428 62.4378 58.239 60.6953 56.2452C62.2734 51.1165 64.5502 48.9493 65.8483 47.5843L62.8751 39.3919C62.8751 39.3919 62.5201 38.554 62.5278 38.547C62.7082 38.2414 67.1489 34.2931 64.9608 28.0483C64.6212 27.0795 65.3158 26.0563 66.3507 25.9728L68.9855 25.7601L76.1313 25.5532C77.8401 25.6479 79.0572 25.8103 79.0572 25.8103C80.1525 26.8218 81.8778 29.6021 82.9967 32.4302C83.7174 34.2533 84.4973 37.1662 81.9204 42.5684Z" fill="#189C03"/>
<path opacity="0.1" d="M64.7934 42.349L65.8359 38.344L67.1305 47.591L64.5105 49.0308L65.8483 47.584L64.4922 43.849L64.7934 42.349Z" fill="black"/>
<path d="M80.4654 5.6875C81.6577 6.38344 83.1316 9.34541 82.9866 15.5551C82.8636 20.8176 81.1358 22.1177 80.2684 22.4923C79.401 22.8668 77.7283 22.6389 76.1017 22.3713V25.5296C76.1017 25.5296 78.5235 29.9536 77.9762 31.7218C76.8271 31.9199 75.3106 31.1421 73.2078 29.7275C71.1043 28.3128 68.9849 25.7593 68.9849 25.7593L69.0215 18.4972C69.0215 18.4972 68.0642 19.4152 66.4418 18.014C65.1022 16.857 64.6507 14.9065 65.6951 13.86C66.7388 12.8134 68.6689 13.0986 69.4085 14.5904C69.4085 14.5904 72.0019 14.6839 75.4556 12.8105C78.9087 10.9371 80.2359 7.72798 80.4654 5.6875Z" fill="#F7BEC0"/>
<path d="M77.0364 14.2327C77.0559 14.612 76.7719 14.9333 76.4021 14.9509C76.0323 14.9684 75.7169 14.6745 75.698 14.2953C75.6784 13.916 75.9625 13.5946 76.3323 13.5771C76.7021 13.5602 77.0168 13.8535 77.0364 14.2327Z" fill="#263238"/>
<g opacity="0.5">
<path d="M78.8254 19.6231L77.2039 19.4287C77.2473 18.9727 77.6459 18.6468 78.094 18.7C78.5417 18.7538 78.8688 19.167 78.8254 19.6231Z" fill="#C06367"/>
</g>
<path d="M82.5311 12.2004L81.1755 11.2725C81.4229 10.8898 81.927 10.7881 82.3015 11.0446C82.6755 11.3006 82.7784 11.8189 82.5311 12.2004Z" fill="#263238"/>
<path d="M82.2185 13.7539C82.238 14.1332 81.9534 14.4545 81.5842 14.4721C81.2144 14.4896 80.899 14.1957 80.8801 13.817C80.8606 13.4378 81.1446 13.1164 81.5144 13.0989C81.8836 13.0814 82.199 13.3753 82.2185 13.7539Z" fill="#263238"/>
<g opacity="0.5">
<path d="M79.0564 13.3755L79.1635 17.3595L81.2865 16.7097L79.0564 13.3755Z" fill="#C56669"/>
</g>
<g opacity="0.5">
<path d="M76.1015 22.3718C74.388 22.1498 70.8621 21.1494 70.313 19.7727C70.313 19.7727 70.4958 20.6381 71.549 21.5292C72.6022 22.4203 76.1021 23.4254 76.1021 23.4254V22.3718H76.1015Z" fill="#FFA6A9"/>
</g>
<path d="M55.0237 52.5186C55.0651 51.9494 56.1443 45.8753 56.8875 42.478L64.1185 44.6663L62.9582 49.4257L56.9419 55.1703C55.0337 54.7963 54.9828 53.0877 55.0237 52.5186Z" fill="#F6BEC0"/>
<path d="M66.3499 25.9717C63.5755 26.2118 59.9188 26.6191 58.1793 34.4176C56.5486 41.727 56.145 44.2834 56.145 44.2834C56.145 44.2834 58.2822 46.9568 63.8062 46.6617L65.8363 38.3437C69.5332 33.5399 68.3433 30.0953 66.3499 25.9717Z" fill="#189C03"/>
<path d="M89.7312 46.8603C90.7247 45.0343 90.9708 44.9543 91.5607 44.554C92.1512 44.1537 95.7748 43.6191 97.2783 43.494C99.0474 43.3468 99.6752 43.6681 99.1835 45.1699C98.1309 48.3849 94.9387 55.2122 94.2239 56.1541C93.7553 56.7718 93.6589 57.3456 91.6708 57.5372C89.8123 57.716 87.4828 57.8165 86.797 57.8575C86.1107 57.8984 85.1622 58.0666 85.777 56.0741C86.3917 54.0809 87.8426 50.8449 88.4928 49.4524C89.2573 47.8128 89.7312 46.8603 89.7312 46.8603Z" fill="#263238"/>
<path d="M62.9582 49.4259C62.9582 49.4259 79.0262 51.1035 81.106 50.466C83.1858 49.8285 85.9827 47.7746 87.4886 46.9249C88.9944 46.0753 90.0701 46.004 90.0701 46.3587C90.0701 46.7134 88.7844 48.6522 88.4927 49.4533C88.2004 50.2539 89.8772 50.2591 92.0783 49.7584C94.2788 49.2576 95.1616 47.9919 95.7356 48.7335C96.3089 49.475 94.5161 53.0867 90.8588 54.4324C87.2016 55.7781 84.4881 54.89 81.4705 55.0156C78.4529 55.1406 61.1388 56.4747 56.9419 55.171C56.9419 55.171 56.4562 53.2322 58.3922 51.644C60.3282 50.0546 62.9582 49.4259 62.9582 49.4259Z" fill="#F6BEC0"/>
</svg>
