<svg width="153" height="55" viewBox="0 0 153 55" fill="none" xmlns="http://www.w3.org/2000/svg">
<rect x="1" y="1" width="150.868" height="53" rx="7" fill="black"/>
<path d="M56.5542 33.1119C56.3302 33.1119 56.1482 33.0606 56.0082 32.9579C55.8775 32.8553 55.7982 32.7199 55.7702 32.5519C55.7422 32.3746 55.7748 32.1786 55.8682 31.9639L59.5642 23.7739C59.6855 23.5033 59.8302 23.3119 59.9982 23.1999C60.1755 23.0786 60.3762 23.0179 60.6002 23.0179C60.8148 23.0179 61.0062 23.0786 61.1742 23.1999C61.3515 23.3119 61.5008 23.5033 61.6222 23.7739L65.3322 31.9639C65.4348 32.1786 65.4722 32.3746 65.4442 32.5519C65.4162 32.7293 65.3368 32.8693 65.2062 32.9719C65.0755 33.0653 64.9028 33.1119 64.6882 33.1119C64.4268 33.1119 64.2215 33.0513 64.0722 32.9299C63.9322 32.7993 63.8062 32.6033 63.6942 32.3419L62.7842 30.2279L63.5402 30.7179H57.6322L58.3882 30.2279L57.4922 32.3419C57.3708 32.6126 57.2448 32.8086 57.1142 32.9299C56.9835 33.0513 56.7968 33.1119 56.5542 33.1119ZM60.5722 25.0759L58.6122 29.7379L58.2482 29.2899H62.9242L62.5742 29.7379L60.6002 25.0759H60.5722ZM67.5741 35.6319C67.2941 35.6319 67.0795 35.5573 66.9301 35.4079C66.7808 35.2586 66.7061 35.0393 66.7061 34.7499V26.9239C66.7061 26.6346 66.7808 26.4153 66.9301 26.2659C67.0795 26.1166 67.2895 26.0419 67.5601 26.0419C67.8401 26.0419 68.0548 26.1166 68.2041 26.2659C68.3535 26.4153 68.4281 26.6346 68.4281 26.9239V28.0159L68.2741 27.5959C68.4141 27.1199 68.6988 26.7373 69.1281 26.4479C69.5668 26.1586 70.0755 26.0139 70.6541 26.0139C71.2515 26.0139 71.7741 26.1586 72.2221 26.4479C72.6795 26.7373 73.0341 27.1479 73.2861 27.6799C73.5381 28.2026 73.6641 28.8326 73.6641 29.5699C73.6641 30.2979 73.5381 30.9326 73.2861 31.4739C73.0341 32.0059 72.6841 32.4166 72.2361 32.7059C71.7881 32.9953 71.2608 33.1399 70.6541 33.1399C70.0848 33.1399 69.5855 32.9999 69.1561 32.7199C68.7268 32.4306 68.4375 32.0573 68.2881 31.5999H68.4561V34.7499C68.4561 35.0393 68.3768 35.2586 68.2181 35.4079C68.0688 35.5573 67.8541 35.6319 67.5741 35.6319ZM70.1641 31.8099C70.5095 31.8099 70.8128 31.7259 71.0741 31.5579C71.3355 31.3899 71.5361 31.1426 71.6761 30.8159C71.8255 30.4799 71.9001 30.0646 71.9001 29.5699C71.9001 28.8233 71.7415 28.2679 71.4241 27.9039C71.1068 27.5306 70.6868 27.3439 70.1641 27.3439C69.8188 27.3439 69.5155 27.4279 69.2541 27.5959C68.9928 27.7546 68.7875 28.0019 68.6381 28.3379C68.4981 28.6646 68.4281 29.0753 68.4281 29.5699C68.4281 30.3073 68.5868 30.8673 68.9041 31.2499C69.2215 31.6233 69.6415 31.8099 70.1641 31.8099ZM75.9687 35.6319C75.6887 35.6319 75.474 35.5573 75.3247 35.4079C75.1753 35.2586 75.1007 35.0393 75.1007 34.7499V26.9239C75.1007 26.6346 75.1753 26.4153 75.3247 26.2659C75.474 26.1166 75.684 26.0419 75.9547 26.0419C76.2347 26.0419 76.4493 26.1166 76.5987 26.2659C76.748 26.4153 76.8227 26.6346 76.8227 26.9239V28.0159L76.6687 27.5959C76.8087 27.1199 77.0933 26.7373 77.5227 26.4479C77.9613 26.1586 78.47 26.0139 79.0487 26.0139C79.646 26.0139 80.1687 26.1586 80.6167 26.4479C81.074 26.7373 81.4287 27.1479 81.6807 27.6799C81.9327 28.2026 82.0587 28.8326 82.0587 29.5699C82.0587 30.2979 81.9327 30.9326 81.6807 31.4739C81.4287 32.0059 81.0787 32.4166 80.6307 32.7059C80.1827 32.9953 79.6553 33.1399 79.0487 33.1399C78.4793 33.1399 77.98 32.9999 77.5507 32.7199C77.1213 32.4306 76.832 32.0573 76.6827 31.5999H76.8507V34.7499C76.8507 35.0393 76.7713 35.2586 76.6127 35.4079C76.4633 35.5573 76.2487 35.6319 75.9687 35.6319ZM78.5587 31.8099C78.904 31.8099 79.2073 31.7259 79.4687 31.5579C79.73 31.3899 79.9307 31.1426 80.0707 30.8159C80.22 30.4799 80.2947 30.0646 80.2947 29.5699C80.2947 28.8233 80.136 28.2679 79.8187 27.9039C79.5013 27.5306 79.0813 27.3439 78.5587 27.3439C78.2133 27.3439 77.91 27.4279 77.6487 27.5959C77.3873 27.7546 77.182 28.0019 77.0327 28.3379C76.8927 28.6646 76.8227 29.0753 76.8227 29.5699C76.8227 30.3073 76.9813 30.8673 77.2987 31.2499C77.616 31.6233 78.036 31.8099 78.5587 31.8099ZM85.8332 33.1399C85.0585 33.1399 84.4752 32.9206 84.0832 32.4819C83.6912 32.0339 83.4952 31.3806 83.4952 30.5219V23.8999C83.4952 23.6106 83.5699 23.3913 83.7192 23.2419C83.8685 23.0926 84.0832 23.0179 84.3632 23.0179C84.6432 23.0179 84.8579 23.0926 85.0072 23.2419C85.1659 23.3913 85.2452 23.6106 85.2452 23.8999V30.4379C85.2452 30.8673 85.3339 31.1846 85.5112 31.3899C85.6979 31.5953 85.9592 31.6979 86.2952 31.6979C86.3699 31.6979 86.4399 31.6979 86.5052 31.6979C86.5705 31.6886 86.6359 31.6793 86.7012 31.6699C86.8319 31.6513 86.9205 31.6886 86.9672 31.7819C87.0139 31.8659 87.0372 32.0433 87.0372 32.3139C87.0372 32.5473 86.9905 32.7293 86.8972 32.8599C86.8039 32.9906 86.6499 33.0699 86.4352 33.0979C86.3419 33.1073 86.2439 33.1166 86.1412 33.1259C86.0385 33.1353 85.9359 33.1399 85.8332 33.1399ZM91.2715 33.1399C90.4969 33.1399 89.8295 32.9953 89.2695 32.7059C88.7095 32.4166 88.2755 32.0059 87.9675 31.4739C87.6689 30.9419 87.5195 30.3119 87.5195 29.5839C87.5195 28.8746 87.6642 28.2539 87.9535 27.7219C88.2522 27.1899 88.6582 26.7746 89.1715 26.4759C89.6942 26.1679 90.2869 26.0139 90.9495 26.0139C91.4349 26.0139 91.8689 26.0933 92.2515 26.2519C92.6435 26.4106 92.9749 26.6393 93.2455 26.9379C93.5255 27.2366 93.7355 27.6006 93.8755 28.0299C94.0249 28.4499 94.0995 28.9259 94.0995 29.4579C94.0995 29.6259 94.0389 29.7566 93.9175 29.8499C93.8055 29.9339 93.6422 29.9759 93.4275 29.9759H88.9335V28.9679H92.8675L92.6435 29.1779C92.6435 28.7486 92.5782 28.3893 92.4475 28.0999C92.3262 27.8106 92.1442 27.5913 91.9015 27.4419C91.6682 27.2833 91.3742 27.2039 91.0195 27.2039C90.6275 27.2039 90.2915 27.2973 90.0115 27.4839C89.7409 27.6613 89.5309 27.9179 89.3815 28.2539C89.2415 28.5806 89.1715 28.9726 89.1715 29.4299V29.5279C89.1715 30.2933 89.3489 30.8673 89.7035 31.2499C90.0675 31.6233 90.5995 31.8099 91.2995 31.8099C91.5422 31.8099 91.8129 31.7819 92.1115 31.7259C92.4195 31.6606 92.7089 31.5533 92.9795 31.4039C93.1755 31.2919 93.3482 31.2453 93.4975 31.2639C93.6469 31.2733 93.7635 31.3246 93.8475 31.4179C93.9409 31.5113 93.9969 31.6279 94.0155 31.7679C94.0342 31.8986 94.0062 32.0339 93.9315 32.1739C93.8662 32.3139 93.7495 32.4353 93.5815 32.5379C93.2549 32.7433 92.8769 32.8973 92.4475 32.9999C92.0275 33.0933 91.6355 33.1399 91.2715 33.1399ZM102.856 33.1399C102.446 33.1399 102.035 33.1073 101.624 33.0419C101.214 32.9859 100.826 32.8973 100.462 32.7759C100.098 32.6453 99.7716 32.4866 99.4822 32.2999C99.3142 32.1879 99.1976 32.0526 99.1322 31.8939C99.0669 31.7353 99.0436 31.5813 99.0622 31.4319C99.0902 31.2733 99.1509 31.1379 99.2442 31.0259C99.3469 30.9046 99.4729 30.8299 99.6222 30.8019C99.7716 30.7739 99.9349 30.8159 100.112 30.9279C100.523 31.1706 100.957 31.3479 101.414 31.4599C101.872 31.5719 102.352 31.6279 102.856 31.6279C103.594 31.6279 104.13 31.5066 104.466 31.2639C104.802 31.0119 104.97 30.6899 104.97 30.2979C104.97 29.9713 104.849 29.7146 104.606 29.5279C104.373 29.3413 103.967 29.1873 103.388 29.0659L101.848 28.7439C100.962 28.5573 100.299 28.2446 99.8602 27.8059C99.4309 27.3579 99.2162 26.7699 99.2162 26.0419C99.2162 25.5846 99.3096 25.1693 99.4962 24.7959C99.6829 24.4226 99.9442 24.1006 100.28 23.8299C100.626 23.5593 101.032 23.3539 101.498 23.2139C101.974 23.0646 102.497 22.9899 103.066 22.9899C103.626 22.9899 104.158 23.0599 104.662 23.1999C105.166 23.3399 105.619 23.5453 106.02 23.8159C106.17 23.9186 106.268 24.0446 106.314 24.1939C106.37 24.3433 106.384 24.4926 106.356 24.6419C106.328 24.7819 106.263 24.9033 106.16 25.0059C106.058 25.1086 105.927 25.1693 105.768 25.1879C105.619 25.2066 105.446 25.1599 105.25 25.0479C104.905 24.8519 104.555 24.7119 104.2 24.6279C103.846 24.5439 103.463 24.5019 103.052 24.5019C102.623 24.5019 102.254 24.5626 101.946 24.6839C101.638 24.8053 101.4 24.9779 101.232 25.2019C101.074 25.4166 100.994 25.6733 100.994 25.9719C100.994 26.3079 101.106 26.5786 101.33 26.7839C101.554 26.9799 101.937 27.1339 102.478 27.2459L104.004 27.5679C104.928 27.7639 105.614 28.0719 106.062 28.4919C106.52 28.9119 106.748 29.4719 106.748 30.1719C106.748 30.6199 106.655 31.0259 106.468 31.3899C106.291 31.7539 106.03 32.0666 105.684 32.3279C105.348 32.5893 104.942 32.7899 104.466 32.9299C103.99 33.0699 103.454 33.1399 102.856 33.1399ZM111.186 33.1399C110.579 33.1399 110.071 33.0373 109.66 32.8319C109.259 32.6266 108.96 32.3279 108.764 31.9359C108.568 31.5346 108.47 31.0399 108.47 30.4519V27.4699H107.742C107.518 27.4699 107.345 27.4139 107.224 27.3019C107.103 27.1806 107.042 27.0173 107.042 26.8119C107.042 26.5973 107.103 26.4339 107.224 26.3219C107.345 26.2099 107.518 26.1539 107.742 26.1539H108.47V24.8799C108.47 24.5906 108.545 24.3713 108.694 24.2219C108.853 24.0726 109.072 23.9979 109.352 23.9979C109.632 23.9979 109.847 24.0726 109.996 24.2219C110.145 24.3713 110.22 24.5906 110.22 24.8799V26.1539H111.704C111.928 26.1539 112.101 26.2099 112.222 26.3219C112.343 26.4339 112.404 26.5973 112.404 26.8119C112.404 27.0173 112.343 27.1806 112.222 27.3019C112.101 27.4139 111.928 27.4699 111.704 27.4699H110.22V30.3539C110.22 30.8019 110.318 31.1379 110.514 31.3619C110.71 31.5859 111.027 31.6979 111.466 31.6979C111.625 31.6979 111.765 31.6839 111.886 31.6559C112.007 31.6279 112.115 31.6093 112.208 31.5999C112.32 31.5906 112.413 31.6279 112.488 31.7119C112.563 31.7866 112.6 31.9453 112.6 32.1879C112.6 32.3746 112.567 32.5426 112.502 32.6919C112.446 32.8319 112.339 32.9299 112.18 32.9859C112.059 33.0233 111.9 33.0559 111.704 33.0839C111.508 33.1213 111.335 33.1399 111.186 33.1399ZM116.477 33.1399C115.767 33.1399 115.151 32.9953 114.629 32.7059C114.106 32.4166 113.7 32.0059 113.411 31.4739C113.121 30.9326 112.977 30.2979 112.977 29.5699C112.977 29.0193 113.056 28.5293 113.215 28.0999C113.383 27.6613 113.621 27.2879 113.929 26.9799C114.237 26.6626 114.605 26.4246 115.035 26.2659C115.464 26.0979 115.945 26.0139 116.477 26.0139C117.186 26.0139 117.802 26.1586 118.325 26.4479C118.847 26.7373 119.253 27.1479 119.543 27.6799C119.832 28.2119 119.977 28.8419 119.977 29.5699C119.977 30.1206 119.893 30.6153 119.725 31.0539C119.566 31.4926 119.333 31.8706 119.025 32.1879C118.717 32.4959 118.348 32.7339 117.919 32.9019C117.489 33.0606 117.009 33.1399 116.477 33.1399ZM116.477 31.8099C116.822 31.8099 117.125 31.7259 117.387 31.5579C117.648 31.3899 117.849 31.1426 117.989 30.8159C118.138 30.4799 118.213 30.0646 118.213 29.5699C118.213 28.8233 118.054 28.2679 117.737 27.9039C117.419 27.5306 116.999 27.3439 116.477 27.3439C116.131 27.3439 115.828 27.4279 115.567 27.5959C115.305 27.7546 115.1 28.0019 114.951 28.3379C114.811 28.6646 114.741 29.0753 114.741 29.5699C114.741 30.3073 114.899 30.8673 115.217 31.2499C115.534 31.6233 115.954 31.8099 116.477 31.8099ZM122.317 33.1119C122.028 33.1119 121.804 33.0373 121.645 32.8879C121.496 32.7293 121.421 32.5053 121.421 32.2159V26.9239C121.421 26.6346 121.496 26.4153 121.645 26.2659C121.794 26.1166 122.004 26.0419 122.275 26.0419C122.546 26.0419 122.756 26.1166 122.905 26.2659C123.054 26.4153 123.129 26.6346 123.129 26.9239V27.8059H122.989C123.12 27.2459 123.376 26.8213 123.759 26.5319C124.142 26.2426 124.65 26.0699 125.285 26.0139C125.481 25.9953 125.635 26.0466 125.747 26.1679C125.868 26.2799 125.938 26.4573 125.957 26.6999C125.976 26.9333 125.92 27.1246 125.789 27.2739C125.668 27.4139 125.481 27.4979 125.229 27.5259L124.921 27.5539C124.352 27.6099 123.922 27.7873 123.633 28.0859C123.344 28.3753 123.199 28.7859 123.199 29.3179V32.2159C123.199 32.5053 123.124 32.7293 122.975 32.8879C122.826 33.0373 122.606 33.1119 122.317 33.1119ZM130.168 33.1399C129.393 33.1399 128.726 32.9953 128.166 32.7059C127.606 32.4166 127.172 32.0059 126.864 31.4739C126.565 30.9419 126.416 30.3119 126.416 29.5839C126.416 28.8746 126.561 28.2539 126.85 27.7219C127.149 27.1899 127.555 26.7746 128.068 26.4759C128.591 26.1679 129.183 26.0139 129.846 26.0139C130.331 26.0139 130.765 26.0933 131.148 26.2519C131.54 26.4106 131.871 26.6393 132.142 26.9379C132.422 27.2366 132.632 27.6006 132.772 28.0299C132.921 28.4499 132.996 28.9259 132.996 29.4579C132.996 29.6259 132.935 29.7566 132.814 29.8499C132.702 29.9339 132.539 29.9759 132.324 29.9759H127.83V28.9679H131.764L131.54 29.1779C131.54 28.7486 131.475 28.3893 131.344 28.0999C131.223 27.8106 131.041 27.5913 130.798 27.4419C130.565 27.2833 130.271 27.2039 129.916 27.2039C129.524 27.2039 129.188 27.2973 128.908 27.4839C128.637 27.6613 128.427 27.9179 128.278 28.2539C128.138 28.5806 128.068 28.9726 128.068 29.4299V29.5279C128.068 30.2933 128.245 30.8673 128.6 31.2499C128.964 31.6233 129.496 31.8099 130.196 31.8099C130.439 31.8099 130.709 31.7819 131.008 31.7259C131.316 31.6606 131.605 31.5533 131.876 31.4039C132.072 31.2919 132.245 31.2453 132.394 31.2639C132.543 31.2733 132.66 31.3246 132.744 31.4179C132.837 31.5113 132.893 31.6279 132.912 31.7679C132.931 31.8986 132.903 32.0339 132.828 32.1739C132.763 32.3139 132.646 32.4353 132.478 32.5379C132.151 32.7433 131.773 32.8973 131.344 32.9999C130.924 33.0933 130.532 33.1399 130.168 33.1399Z" fill="white"/>
<path d="M34.4014 14.9999C34.4611 14.9999 34.5208 14.9999 34.5839 14.9999C34.7305 16.81 34.0396 18.1625 33.1999 19.1419C32.376 20.1145 31.2478 21.0579 29.4231 20.9148C29.3014 19.1306 29.9934 17.8785 30.832 16.9013C31.6096 15.9906 33.0354 15.1803 34.4014 14.9999Z" fill="white"/>
<path d="M39.925 33.8399C39.925 33.8579 39.925 33.8737 39.925 33.8906C39.4122 35.4437 38.6808 36.7747 37.7881 38.01C36.9733 39.1314 35.9747 40.6406 34.1917 40.6406C32.651 40.6406 31.6276 39.6499 30.0486 39.6228C28.3783 39.5958 27.4597 40.4512 25.9326 40.6665C25.7579 40.6665 25.5832 40.6665 25.4119 40.6665C24.2904 40.5042 23.3854 39.6161 22.7261 38.8158C20.7819 36.4513 19.2795 33.3969 19 29.4883C19 29.1051 19 28.723 19 28.3398C19.1183 25.5424 20.4776 23.268 22.2843 22.1657C23.2378 21.5797 24.5485 21.0804 26.0081 21.3035C26.6336 21.4005 27.2726 21.6146 27.8328 21.8265C28.3636 22.0305 29.0275 22.3923 29.6564 22.3731C30.0824 22.3607 30.5062 22.1387 30.9356 21.982C32.1934 21.5278 33.4264 21.0071 35.0516 21.2517C37.0048 21.547 38.3911 22.4148 39.2477 23.7538C37.5954 24.8053 36.2891 26.39 36.5123 29.0961C36.7107 31.5542 38.1398 32.9923 39.925 33.8399Z" fill="white"/>
<rect x="1" y="1" width="150.868" height="53" rx="7" stroke="white" stroke-width="2"/>
</svg>
