<svg width="189" height="68" viewBox="0 0 189 68" fill="none" xmlns="http://www.w3.org/2000/svg">
<rect x="1" y="1" width="187" height="66" rx="7" fill="black"/>
<path d="M39.0022 14C39.0953 14 39.1884 14 39.2868 14C39.5151 16.8209 38.4384 18.9286 37.1298 20.455C35.8458 21.9708 34.0876 23.441 31.2439 23.2179C31.0542 20.4374 32.1327 18.486 33.4395 16.9632C34.6515 15.5439 36.8734 14.281 39.0022 14Z" fill="white"/>
<path d="M47.6105 43.3612C47.6105 43.3893 47.6105 43.4139 47.6105 43.4402C46.8114 45.8607 45.6714 47.935 44.2803 49.8601C43.0104 51.6078 41.4541 53.9597 38.6754 53.9597C36.2743 53.9597 34.6794 52.4158 32.2186 52.3736C29.6156 52.3315 28.184 53.6646 25.804 54.0001C25.5318 54.0001 25.2595 54.0001 24.9925 54.0001C23.2449 53.7472 21.8344 52.3631 20.8069 51.116C17.777 47.4309 15.4356 42.6709 15 36.5795C15 35.9823 15 35.3869 15 34.7897C15.1844 30.4301 17.3027 26.8856 20.1183 25.1677C21.6043 24.2544 23.6471 23.4763 25.9217 23.824C26.8965 23.9751 27.8925 24.3088 28.7654 24.639C29.5927 24.957 30.6273 25.5208 31.6074 25.4909C32.2713 25.4716 32.9318 25.1256 33.601 24.8814C35.5612 24.1736 37.4828 23.3621 40.0156 23.7432C43.0595 24.2034 45.22 25.5559 46.5549 27.6426C43.9799 29.2814 41.9442 31.751 42.292 35.9682C42.6011 39.7991 44.8283 42.0403 47.6105 43.3612Z" fill="white"/>
<path d="M64.5093 41.16C64.1893 41.16 63.9293 41.0867 63.7293 40.94C63.5427 40.7933 63.4293 40.6 63.3893 40.36C63.3493 40.1067 63.396 39.8267 63.5293 39.52L68.8093 27.82C68.9827 27.4333 69.1893 27.16 69.4293 27C69.6827 26.8267 69.9693 26.74 70.2893 26.74C70.596 26.74 70.8693 26.8267 71.1093 27C71.3627 27.16 71.576 27.4333 71.7493 27.82L77.0493 39.52C77.196 39.8267 77.2493 40.1067 77.2093 40.36C77.1693 40.6133 77.056 40.8133 76.8693 40.96C76.6827 41.0933 76.436 41.16 76.1293 41.16C75.756 41.16 75.4627 41.0733 75.2493 40.9C75.0493 40.7133 74.8693 40.4333 74.7093 40.06L73.4093 37.04L74.4893 37.74H66.0493L67.1293 37.04L65.8493 40.06C65.676 40.4467 65.496 40.7267 65.3093 40.9C65.1227 41.0733 64.856 41.16 64.5093 41.16ZM70.2493 29.68L67.4493 36.34L66.9293 35.7H73.6093L73.1093 36.34L70.2893 29.68H70.2493ZM80.2522 44.76C79.8522 44.76 79.5455 44.6533 79.3322 44.44C79.1188 44.2267 79.0122 43.9133 79.0122 43.5V32.32C79.0122 31.9067 79.1188 31.5933 79.3322 31.38C79.5455 31.1667 79.8455 31.06 80.2322 31.06C80.6322 31.06 80.9388 31.1667 81.1522 31.38C81.3655 31.5933 81.4722 31.9067 81.4722 32.32V33.88L81.2522 33.28C81.4522 32.6 81.8588 32.0533 82.4722 31.64C83.0988 31.2267 83.8255 31.02 84.6522 31.02C85.5055 31.02 86.2522 31.2267 86.8922 31.64C87.5455 32.0533 88.0522 32.64 88.4122 33.4C88.7722 34.1467 88.9522 35.0467 88.9522 36.1C88.9522 37.14 88.7722 38.0467 88.4122 38.82C88.0522 39.58 87.5522 40.1667 86.9122 40.58C86.2722 40.9933 85.5188 41.2 84.6522 41.2C83.8388 41.2 83.1255 41 82.5122 40.6C81.8988 40.1867 81.4855 39.6533 81.2722 39H81.5122V43.5C81.5122 43.9133 81.3988 44.2267 81.1722 44.44C80.9588 44.6533 80.6522 44.76 80.2522 44.76ZM83.9522 39.3C84.4455 39.3 84.8788 39.18 85.2522 38.94C85.6255 38.7 85.9122 38.3467 86.1122 37.88C86.3255 37.4 86.4322 36.8067 86.4322 36.1C86.4322 35.0333 86.2055 34.24 85.7522 33.72C85.2988 33.1867 84.6988 32.92 83.9522 32.92C83.4588 32.92 83.0255 33.04 82.6522 33.28C82.2788 33.5067 81.9855 33.86 81.7722 34.34C81.5722 34.8067 81.4722 35.3933 81.4722 36.1C81.4722 37.1533 81.6988 37.9533 82.1522 38.5C82.6055 39.0333 83.2055 39.3 83.9522 39.3ZM92.2443 44.76C91.8443 44.76 91.5377 44.6533 91.3243 44.44C91.111 44.2267 91.0043 43.9133 91.0043 43.5V32.32C91.0043 31.9067 91.111 31.5933 91.3243 31.38C91.5377 31.1667 91.8377 31.06 92.2243 31.06C92.6243 31.06 92.931 31.1667 93.1443 31.38C93.3577 31.5933 93.4643 31.9067 93.4643 32.32V33.88L93.2443 33.28C93.4443 32.6 93.851 32.0533 94.4643 31.64C95.091 31.2267 95.8177 31.02 96.6443 31.02C97.4977 31.02 98.2443 31.2267 98.8843 31.64C99.5377 32.0533 100.044 32.64 100.404 33.4C100.764 34.1467 100.944 35.0467 100.944 36.1C100.944 37.14 100.764 38.0467 100.404 38.82C100.044 39.58 99.5443 40.1667 98.9043 40.58C98.2643 40.9933 97.511 41.2 96.6443 41.2C95.831 41.2 95.1177 41 94.5043 40.6C93.891 40.1867 93.4777 39.6533 93.2643 39H93.5043V43.5C93.5043 43.9133 93.391 44.2267 93.1643 44.44C92.951 44.6533 92.6443 44.76 92.2443 44.76ZM95.9443 39.3C96.4377 39.3 96.871 39.18 97.2443 38.94C97.6177 38.7 97.9043 38.3467 98.1043 37.88C98.3177 37.4 98.4243 36.8067 98.4243 36.1C98.4243 35.0333 98.1977 34.24 97.7443 33.72C97.291 33.1867 96.691 32.92 95.9443 32.92C95.451 32.92 95.0177 33.04 94.6443 33.28C94.271 33.5067 93.9777 33.86 93.7643 34.34C93.5643 34.8067 93.4643 35.3933 93.4643 36.1C93.4643 37.1533 93.691 37.9533 94.1443 38.5C94.5977 39.0333 95.1977 39.3 95.9443 39.3ZM106.337 41.2C105.23 41.2 104.397 40.8867 103.837 40.26C103.277 39.62 102.997 38.6867 102.997 37.46V28C102.997 27.5867 103.103 27.2733 103.317 27.06C103.53 26.8467 103.837 26.74 104.237 26.74C104.637 26.74 104.943 26.8467 105.157 27.06C105.383 27.2733 105.497 27.5867 105.497 28V37.34C105.497 37.9533 105.623 38.4067 105.877 38.7C106.143 38.9933 106.517 39.14 106.997 39.14C107.103 39.14 107.203 39.14 107.297 39.14C107.39 39.1267 107.483 39.1133 107.577 39.1C107.763 39.0733 107.89 39.1267 107.957 39.26C108.023 39.38 108.057 39.6333 108.057 40.02C108.057 40.3533 107.99 40.6133 107.857 40.8C107.723 40.9867 107.503 41.1 107.197 41.14C107.063 41.1533 106.923 41.1667 106.777 41.18C106.63 41.1933 106.483 41.2 106.337 41.2ZM114.106 41.2C112.999 41.2 112.046 40.9933 111.246 40.58C110.446 40.1667 109.826 39.58 109.386 38.82C108.959 38.06 108.746 37.16 108.746 36.12C108.746 35.1067 108.952 34.22 109.366 33.46C109.792 32.7 110.372 32.1067 111.106 31.68C111.852 31.24 112.699 31.02 113.646 31.02C114.339 31.02 114.959 31.1333 115.506 31.36C116.066 31.5867 116.539 31.9133 116.926 32.34C117.326 32.7667 117.626 33.2867 117.826 33.9C118.039 34.5 118.146 35.18 118.146 35.94C118.146 36.18 118.059 36.3667 117.886 36.5C117.726 36.62 117.492 36.68 117.186 36.68H110.766V35.24H116.386L116.066 35.54C116.066 34.9267 115.972 34.4133 115.786 34C115.612 33.5867 115.352 33.2733 115.006 33.06C114.672 32.8333 114.252 32.72 113.746 32.72C113.186 32.72 112.706 32.8533 112.306 33.12C111.919 33.3733 111.619 33.74 111.406 34.22C111.206 34.6867 111.106 35.2467 111.106 35.9V36.04C111.106 37.1333 111.359 37.9533 111.866 38.5C112.386 39.0333 113.146 39.3 114.146 39.3C114.492 39.3 114.879 39.26 115.306 39.18C115.746 39.0867 116.159 38.9333 116.546 38.72C116.826 38.56 117.072 38.4933 117.286 38.52C117.499 38.5333 117.666 38.6067 117.786 38.74C117.919 38.8733 117.999 39.04 118.026 39.24C118.052 39.4267 118.012 39.62 117.906 39.82C117.812 40.02 117.646 40.1933 117.406 40.34C116.939 40.6333 116.399 40.8533 115.786 41C115.186 41.1333 114.626 41.2 114.106 41.2ZM130.655 41.2C130.068 41.2 129.482 41.1533 128.895 41.06C128.308 40.98 127.755 40.8533 127.235 40.68C126.715 40.4933 126.248 40.2667 125.835 40C125.595 39.84 125.428 39.6467 125.335 39.42C125.242 39.1933 125.208 38.9733 125.235 38.76C125.275 38.5333 125.362 38.34 125.495 38.18C125.642 38.0067 125.822 37.9 126.035 37.86C126.248 37.82 126.482 37.88 126.735 38.04C127.322 38.3867 127.942 38.64 128.595 38.8C129.248 38.96 129.935 39.04 130.655 39.04C131.708 39.04 132.475 38.8667 132.955 38.52C133.435 38.16 133.675 37.7 133.675 37.14C133.675 36.6733 133.502 36.3067 133.155 36.04C132.822 35.7733 132.242 35.5533 131.415 35.38L129.215 34.92C127.948 34.6533 127.002 34.2067 126.375 33.58C125.762 32.94 125.455 32.1 125.455 31.06C125.455 30.4067 125.588 29.8133 125.855 29.28C126.122 28.7467 126.495 28.2867 126.975 27.9C127.468 27.5133 128.048 27.22 128.715 27.02C129.395 26.8067 130.142 26.7 130.955 26.7C131.755 26.7 132.515 26.8 133.235 27C133.955 27.2 134.602 27.4933 135.175 27.88C135.388 28.0267 135.528 28.2067 135.595 28.42C135.675 28.6333 135.695 28.8467 135.655 29.06C135.615 29.26 135.522 29.4333 135.375 29.58C135.228 29.7267 135.042 29.8133 134.815 29.84C134.602 29.8667 134.355 29.8 134.075 29.64C133.582 29.36 133.082 29.16 132.575 29.04C132.068 28.92 131.522 28.86 130.935 28.86C130.322 28.86 129.795 28.9467 129.355 29.12C128.915 29.2933 128.575 29.54 128.335 29.86C128.108 30.1667 127.995 30.5333 127.995 30.96C127.995 31.44 128.155 31.8267 128.475 32.12C128.795 32.4 129.342 32.62 130.115 32.78L132.295 33.24C133.615 33.52 134.595 33.96 135.235 34.56C135.888 35.16 136.215 35.96 136.215 36.96C136.215 37.6 136.082 38.18 135.815 38.7C135.562 39.22 135.188 39.6667 134.695 40.04C134.215 40.4133 133.635 40.7 132.955 40.9C132.275 41.1 131.508 41.2 130.655 41.2ZM142.555 41.2C141.688 41.2 140.961 41.0533 140.375 40.76C139.801 40.4667 139.375 40.04 139.095 39.48C138.815 38.9067 138.675 38.2 138.675 37.36V33.1H137.635C137.315 33.1 137.068 33.02 136.895 32.86C136.721 32.6867 136.635 32.4533 136.635 32.16C136.635 31.8533 136.721 31.62 136.895 31.46C137.068 31.3 137.315 31.22 137.635 31.22H138.675V29.4C138.675 28.9867 138.781 28.6733 138.995 28.46C139.221 28.2467 139.535 28.14 139.935 28.14C140.335 28.14 140.641 28.2467 140.855 28.46C141.068 28.6733 141.175 28.9867 141.175 29.4V31.22H143.295C143.615 31.22 143.861 31.3 144.035 31.46C144.208 31.62 144.295 31.8533 144.295 32.16C144.295 32.4533 144.208 32.6867 144.035 32.86C143.861 33.02 143.615 33.1 143.295 33.1H141.175V37.22C141.175 37.86 141.315 38.34 141.595 38.66C141.875 38.98 142.328 39.14 142.955 39.14C143.181 39.14 143.381 39.12 143.555 39.08C143.728 39.04 143.881 39.0133 144.015 39C144.175 38.9867 144.308 39.04 144.415 39.16C144.521 39.2667 144.575 39.4933 144.575 39.84C144.575 40.1067 144.528 40.3467 144.435 40.56C144.355 40.76 144.201 40.9 143.975 40.98C143.801 41.0333 143.575 41.08 143.295 41.12C143.015 41.1733 142.768 41.2 142.555 41.2ZM150.113 41.2C149.099 41.2 148.219 40.9933 147.473 40.58C146.726 40.1667 146.146 39.58 145.733 38.82C145.319 38.0467 145.113 37.14 145.113 36.1C145.113 35.3133 145.226 34.6133 145.453 34C145.693 33.3733 146.033 32.84 146.473 32.4C146.913 31.9467 147.439 31.6067 148.053 31.38C148.666 31.14 149.353 31.02 150.113 31.02C151.126 31.02 152.006 31.2267 152.753 31.64C153.499 32.0533 154.079 32.64 154.493 33.4C154.906 34.16 155.113 35.06 155.113 36.1C155.113 36.8867 154.993 37.5933 154.753 38.22C154.526 38.8467 154.193 39.3867 153.753 39.84C153.313 40.28 152.786 40.62 152.173 40.86C151.559 41.0867 150.873 41.2 150.113 41.2ZM150.113 39.3C150.606 39.3 151.039 39.18 151.413 38.94C151.786 38.7 152.073 38.3467 152.273 37.88C152.486 37.4 152.593 36.8067 152.593 36.1C152.593 35.0333 152.366 34.24 151.913 33.72C151.459 33.1867 150.859 32.92 150.113 32.92C149.619 32.92 149.186 33.04 148.813 33.28C148.439 33.5067 148.146 33.86 147.933 34.34C147.733 34.8067 147.633 35.3933 147.633 36.1C147.633 37.1533 147.859 37.9533 148.313 38.5C148.766 39.0333 149.366 39.3 150.113 39.3ZM158.456 41.16C158.043 41.16 157.723 41.0533 157.496 40.84C157.283 40.6133 157.176 40.2933 157.176 39.88V32.32C157.176 31.9067 157.283 31.5933 157.496 31.38C157.71 31.1667 158.01 31.06 158.396 31.06C158.783 31.06 159.083 31.1667 159.296 31.38C159.51 31.5933 159.616 31.9067 159.616 32.32V33.58H159.416C159.603 32.78 159.97 32.1733 160.516 31.76C161.063 31.3467 161.79 31.1 162.696 31.02C162.976 30.9933 163.196 31.0667 163.356 31.24C163.53 31.4 163.63 31.6533 163.656 32C163.683 32.3333 163.603 32.6067 163.416 32.82C163.243 33.02 162.976 33.14 162.616 33.18L162.176 33.22C161.363 33.3 160.75 33.5533 160.336 33.98C159.923 34.3933 159.716 34.98 159.716 35.74V39.88C159.716 40.2933 159.61 40.6133 159.396 40.84C159.183 41.0533 158.87 41.16 158.456 41.16ZM169.672 41.2C168.565 41.2 167.612 40.9933 166.812 40.58C166.012 40.1667 165.392 39.58 164.952 38.82C164.525 38.06 164.312 37.16 164.312 36.12C164.312 35.1067 164.519 34.22 164.932 33.46C165.359 32.7 165.939 32.1067 166.672 31.68C167.419 31.24 168.265 31.02 169.212 31.02C169.905 31.02 170.525 31.1333 171.072 31.36C171.632 31.5867 172.105 31.9133 172.492 32.34C172.892 32.7667 173.192 33.2867 173.392 33.9C173.605 34.5 173.712 35.18 173.712 35.94C173.712 36.18 173.625 36.3667 173.452 36.5C173.292 36.62 173.059 36.68 172.752 36.68H166.332V35.24H171.952L171.632 35.54C171.632 34.9267 171.539 34.4133 171.352 34C171.179 33.5867 170.919 33.2733 170.572 33.06C170.239 32.8333 169.819 32.72 169.312 32.72C168.752 32.72 168.272 32.8533 167.872 33.12C167.485 33.3733 167.185 33.74 166.972 34.22C166.772 34.6867 166.672 35.2467 166.672 35.9V36.04C166.672 37.1333 166.925 37.9533 167.432 38.5C167.952 39.0333 168.712 39.3 169.712 39.3C170.059 39.3 170.445 39.26 170.872 39.18C171.312 39.0867 171.725 38.9333 172.112 38.72C172.392 38.56 172.639 38.4933 172.852 38.52C173.065 38.5333 173.232 38.6067 173.352 38.74C173.485 38.8733 173.565 39.04 173.592 39.24C173.619 39.4267 173.579 39.62 173.472 39.82C173.379 40.02 173.212 40.1933 172.972 40.34C172.505 40.6333 171.965 40.8533 171.352 41C170.752 41.1333 170.192 41.2 169.672 41.2Z" fill="white"/>
<rect x="1" y="1" width="187" height="66" rx="7" stroke="white" stroke-width="2"/>
</svg>
