<svg width="174" height="52" viewBox="0 0 174 52" fill="none" xmlns="http://www.w3.org/2000/svg">
<rect width="174" height="52" rx="8" fill="black"/>
<path d="M62.0014 14C62.0596 14 62.1178 14 62.1793 14C62.322 15.7631 61.6491 17.0804 60.8312 18.0344C60.0287 18.9818 58.9298 19.9006 57.1525 19.7612C57.0339 18.0234 57.708 16.8038 58.5247 15.852C59.2822 14.965 60.6709 14.1756 62.0014 14Z" fill="white"/>
<path d="M67.3816 32.3506C67.3816 32.3682 67.3816 32.3835 67.3816 32.4C66.8821 33.9128 66.1696 35.2092 65.3002 36.4124C64.5065 37.5047 63.5338 38.9747 61.7971 38.9747C60.2964 38.9747 59.2997 38.0097 57.7616 37.9834C56.1347 37.957 55.24 38.7902 53.7525 38.9999C53.5824 38.9999 53.4122 38.9999 53.2453 38.9999C52.153 38.8418 51.2715 37.9768 50.6293 37.1973C48.7356 34.8942 47.2723 31.9192 47 28.112C47 27.7388 47 27.3666 47 26.9934C47.1153 24.2687 48.4392 22.0533 50.199 20.9797C51.1277 20.4088 52.4044 19.9225 53.8261 20.1399C54.4353 20.2343 55.0578 20.4429 55.6034 20.6492C56.1204 20.8479 56.767 21.2003 57.3796 21.1817C57.7946 21.1696 58.2074 20.9533 58.6256 20.8007C59.8507 20.3583 61.0517 19.8512 62.6347 20.0894C64.5372 20.377 65.8875 21.2223 66.7218 22.5265C65.1125 23.5507 63.8401 25.0942 64.0575 27.73C64.2507 30.1243 65.6427 31.5251 67.3816 32.3506Z" fill="white"/>
<path d="M83.8272 32.128C83.5712 32.128 83.3632 32.0693 83.2032 31.952C83.0538 31.8347 82.9632 31.68 82.9312 31.488C82.8992 31.2853 82.9365 31.0613 83.0432 30.816L87.2672 21.456C87.4058 21.1467 87.5712 20.928 87.7632 20.8C87.9658 20.6613 88.1952 20.592 88.4512 20.592C88.6965 20.592 88.9152 20.6613 89.1072 20.8C89.3098 20.928 89.4805 21.1467 89.6192 21.456L93.8592 30.816C93.9765 31.0613 94.0192 31.2853 93.9872 31.488C93.9552 31.6907 93.8645 31.8507 93.7152 31.968C93.5658 32.0747 93.3685 32.128 93.1232 32.128C92.8245 32.128 92.5898 32.0587 92.4192 31.92C92.2592 31.7707 92.1152 31.5467 91.9872 31.248L90.9472 28.832L91.8112 29.392H85.0592L85.9232 28.832L84.8992 31.248C84.7605 31.5573 84.6165 31.7813 84.4672 31.92C84.3178 32.0587 84.1045 32.128 83.8272 32.128ZM88.4192 22.944L86.1792 28.272L85.7632 27.76H91.1072L90.7072 28.272L88.4512 22.944H88.4192ZM96.4214 35.008C96.1014 35.008 95.8561 34.9227 95.6854 34.752C95.5147 34.5813 95.4294 34.3307 95.4294 34V25.056C95.4294 24.7253 95.5147 24.4747 95.6854 24.304C95.8561 24.1333 96.0961 24.048 96.4054 24.048C96.7254 24.048 96.9707 24.1333 97.1414 24.304C97.3121 24.4747 97.3974 24.7253 97.3974 25.056V26.304L97.2214 25.824C97.3814 25.28 97.7067 24.8427 98.1974 24.512C98.6987 24.1813 99.2801 24.016 99.9414 24.016C100.624 24.016 101.221 24.1813 101.733 24.512C102.256 24.8427 102.661 25.312 102.949 25.92C103.237 26.5173 103.381 27.2373 103.381 28.08C103.381 28.912 103.237 29.6373 102.949 30.256C102.661 30.864 102.261 31.3333 101.749 31.664C101.237 31.9947 100.635 32.16 99.9414 32.16C99.2907 32.16 98.7201 32 98.2294 31.68C97.7387 31.3493 97.4081 30.9227 97.2374 30.4H97.4294V34C97.4294 34.3307 97.3387 34.5813 97.1574 34.752C96.9867 34.9227 96.7414 35.008 96.4214 35.008ZM99.3814 30.64C99.7761 30.64 100.123 30.544 100.421 30.352C100.72 30.16 100.949 29.8773 101.109 29.504C101.28 29.12 101.365 28.6453 101.365 28.08C101.365 27.2267 101.184 26.592 100.821 26.176C100.459 25.7493 99.9787 25.536 99.3814 25.536C98.9867 25.536 98.6401 25.632 98.3414 25.824C98.0427 26.0053 97.8081 26.288 97.6374 26.672C97.4774 27.0453 97.3974 27.5147 97.3974 28.08C97.3974 28.9227 97.5787 29.5627 97.9414 30C98.3041 30.4267 98.7841 30.64 99.3814 30.64ZM106.015 35.008C105.695 35.008 105.45 34.9227 105.279 34.752C105.108 34.5813 105.023 34.3307 105.023 34V25.056C105.023 24.7253 105.108 24.4747 105.279 24.304C105.45 24.1333 105.69 24.048 105.999 24.048C106.319 24.048 106.564 24.1333 106.735 24.304C106.906 24.4747 106.991 24.7253 106.991 25.056V26.304L106.815 25.824C106.975 25.28 107.3 24.8427 107.791 24.512C108.292 24.1813 108.874 24.016 109.535 24.016C110.218 24.016 110.815 24.1813 111.327 24.512C111.85 24.8427 112.255 25.312 112.543 25.92C112.831 26.5173 112.975 27.2373 112.975 28.08C112.975 28.912 112.831 29.6373 112.543 30.256C112.255 30.864 111.855 31.3333 111.343 31.664C110.831 31.9947 110.228 32.16 109.535 32.16C108.884 32.16 108.314 32 107.823 31.68C107.332 31.3493 107.002 30.9227 106.831 30.4H107.023V34C107.023 34.3307 106.932 34.5813 106.751 34.752C106.58 34.9227 106.335 35.008 106.015 35.008ZM108.975 30.64C109.37 30.64 109.716 30.544 110.015 30.352C110.314 30.16 110.543 29.8773 110.703 29.504C110.874 29.12 110.959 28.6453 110.959 28.08C110.959 27.2267 110.778 26.592 110.415 26.176C110.052 25.7493 109.572 25.536 108.975 25.536C108.58 25.536 108.234 25.632 107.935 25.824C107.636 26.0053 107.402 26.288 107.231 26.672C107.071 27.0453 106.991 27.5147 106.991 28.08C106.991 28.9227 107.172 29.5627 107.535 30C107.898 30.4267 108.378 30.64 108.975 30.64ZM117.289 32.16C116.404 32.16 115.737 31.9093 115.289 31.408C114.841 30.896 114.617 30.1493 114.617 29.168V21.6C114.617 21.2693 114.702 21.0187 114.873 20.848C115.044 20.6773 115.289 20.592 115.609 20.592C115.929 20.592 116.174 20.6773 116.345 20.848C116.526 21.0187 116.617 21.2693 116.617 21.6V29.072C116.617 29.5627 116.718 29.9253 116.921 30.16C117.134 30.3947 117.433 30.512 117.817 30.512C117.902 30.512 117.982 30.512 118.057 30.512C118.132 30.5013 118.206 30.4907 118.281 30.48C118.43 30.4587 118.532 30.5013 118.585 30.608C118.638 30.704 118.665 30.9067 118.665 31.216C118.665 31.4827 118.612 31.6907 118.505 31.84C118.398 31.9893 118.222 32.08 117.977 32.112C117.87 32.1227 117.758 32.1333 117.641 32.144C117.524 32.1547 117.406 32.16 117.289 32.16ZM123.504 32.16C122.619 32.16 121.856 31.9947 121.216 31.664C120.576 31.3333 120.08 30.864 119.728 30.256C119.387 29.648 119.216 28.928 119.216 28.096C119.216 27.2853 119.381 26.576 119.712 25.968C120.053 25.36 120.517 24.8853 121.104 24.544C121.701 24.192 122.379 24.016 123.136 24.016C123.691 24.016 124.187 24.1067 124.624 24.288C125.072 24.4693 125.451 24.7307 125.76 25.072C126.08 25.4133 126.32 25.8293 126.48 26.32C126.651 26.8 126.736 27.344 126.736 27.952C126.736 28.144 126.667 28.2933 126.528 28.4C126.4 28.496 126.213 28.544 125.968 28.544H120.832V27.392H125.328L125.072 27.632C125.072 27.1413 124.997 26.7307 124.848 26.4C124.709 26.0693 124.501 25.8187 124.224 25.648C123.957 25.4667 123.621 25.376 123.216 25.376C122.768 25.376 122.384 25.4827 122.064 25.696C121.755 25.8987 121.515 26.192 121.344 26.576C121.184 26.9493 121.104 27.3973 121.104 27.92V28.032C121.104 28.9067 121.307 29.5627 121.712 30C122.128 30.4267 122.736 30.64 123.536 30.64C123.813 30.64 124.123 30.608 124.464 30.544C124.816 30.4693 125.147 30.3467 125.456 30.176C125.68 30.048 125.877 29.9947 126.048 30.016C126.219 30.0267 126.352 30.0853 126.448 30.192C126.555 30.2987 126.619 30.432 126.64 30.592C126.661 30.7413 126.629 30.896 126.544 31.056C126.469 31.216 126.336 31.3547 126.144 31.472C125.771 31.7067 125.339 31.8827 124.848 32C124.368 32.1067 123.92 32.16 123.504 32.16Z" fill="white"/>
</svg>
