<svg width="251" height="215" viewBox="0 0 251 215" fill="none" xmlns="http://www.w3.org/2000/svg">
<g id="Group">
<g id="katman 2">
<g id="Layer 1">
<g id="Group_2">
<path id="Vector" d="M27.7154 142.176C20.3347 134.127 16.8867 122.782 16.0645 111.605C14.5148 90.5333 21.9011 68.9037 35.826 53.7396C43.4462 45.4403 52.8439 39.0569 59.9611 30.273C67.041 21.5368 72.0466 10.2958 81.6177 4.82297C93.8751 -2.18604 109.22 2.8395 121.205 10.3579C133.19 17.8763 144.163 27.9131 157.66 31.5823C167.165 34.1667 177.981 33.6605 185.637 40.1521C197.665 50.3513 194.369 70.1836 198.53 85.8802C202.444 100.646 213.807 113.887 211.763 129.068C210.188 140.768 200.578 149.825 190.022 153.709C179.465 157.593 167.998 157.284 156.826 156.931C131.572 156.132 106.055 154.585 80.9475 155.572C64.6309 156.215 39.0614 158.169 27.7154 142.174V142.176Z" fill="#FFD306" fill-opacity="0.75"/>
<g id="Vector_2" style="mix-blend-mode:multiply">
<path d="M71.674 215C111.258 215 143.348 210.241 143.348 204.37C143.348 198.5 111.258 193.741 71.674 193.741C32.0895 193.741 0 198.5 0 204.37C0 210.241 32.0895 215 71.674 215Z" fill="#1DCE00" fill-opacity="0.25"/>
</g>
<g id="Vector_3" style="mix-blend-mode:multiply">
<path d="M178.992 213.231C218.577 213.231 250.666 208.472 250.666 202.602C250.666 196.731 218.577 191.972 178.992 191.972C139.408 191.972 107.318 196.731 107.318 202.602C107.318 208.472 139.408 213.231 178.992 213.231Z" fill="#1DCE00" fill-opacity="0.25"/>
</g>
<g id="Group_3">
<g id="Group_4">
<g id="Group_5">
<path id="Vector_4" d="M180.397 74.1277C181.231 72.3652 180.136 70.0994 177.953 69.0667C175.769 68.0341 173.323 68.6256 172.49 70.388C171.656 72.1504 172.751 74.4163 174.934 75.449C177.118 76.4816 179.564 75.8901 180.397 74.1277Z" fill="#C2CACE"/>
<path id="Vector_5" d="M192.843 47.8559C193.676 46.0935 192.581 43.8277 190.398 42.795C188.214 41.7623 185.768 42.3539 184.935 44.1163C184.101 45.8787 185.196 48.1446 187.38 49.1772C189.563 50.2099 192.009 49.6183 192.843 47.8559Z" fill="#C2CACE"/>
<path id="Vector_6" d="M192.854 47.8546L184.945 44.1146L172.438 70.5624L180.346 74.3024L192.854 47.8546Z" fill="#C2CACE"/>
</g>
<path id="Vector_7" d="M149.641 79.687L178.313 75.4033L176.53 67.3221C176.53 67.3221 153.128 71.3567 148.049 70.6698L149.641 79.687Z" fill="#C2CACE"/>
<g id="Group_6">
<path id="Vector_8" d="M145.581 76.5685C146.05 76.6967 146.518 76.4913 146.622 76.1133L147.847 71.6218C147.889 71.4674 147.864 71.3066 147.788 71.1617C147.677 70.9524 147.459 70.7765 147.182 70.7009C146.713 70.5727 146.245 70.7781 146.142 71.1562L144.917 75.6476C144.854 75.8784 144.941 76.1228 145.125 76.3075C145.242 76.4253 145.399 76.5192 145.582 76.5685H145.581Z" fill="#F4B683"/>
<path id="Vector_9" d="M146.652 78.7798C147.116 78.9231 147.613 78.6604 147.757 78.1956L149.458 72.6846C149.517 72.4951 149.507 72.2993 149.444 72.125C149.353 71.8727 149.149 71.6642 148.874 71.579C148.41 71.4357 147.913 71.6984 147.769 72.1632L146.069 77.6743C145.981 77.9576 146.045 78.2529 146.213 78.4734C146.321 78.6143 146.471 78.7241 146.653 78.7798H146.652Z" fill="#F4B683"/>
<path id="Vector_10" d="M148.565 78.4511C149.029 78.5944 149.514 78.3723 149.642 77.9568L151.162 73.03C151.215 72.8604 151.2 72.6837 151.132 72.5246C151.034 72.2937 150.826 72.0995 150.551 72.0144C150.087 71.8711 149.602 72.0932 149.474 72.5086L147.953 77.4355C147.875 77.6886 147.947 77.9576 148.12 78.1614C148.231 78.2919 148.384 78.3954 148.565 78.4511Z" fill="#F4B683"/>
<path id="Vector_11" d="M150.616 77.7236C151.081 77.8669 151.548 77.7013 151.654 77.3551L152.921 73.2513C152.964 73.1104 152.941 72.9599 152.867 72.8215C152.76 72.6217 152.545 72.4466 152.27 72.3622C151.806 72.2189 151.338 72.3845 151.232 72.7307L149.965 76.8346C149.9 77.0455 149.984 77.2771 150.164 77.4578C150.28 77.5732 150.435 77.6687 150.616 77.7244V77.7236Z" fill="#F4B683"/>
</g>
</g>
<g id="Group_7">
<g id="Group_8">
<path id="Vector_12" d="M105.006 207.752C109.97 207.752 113.993 203.729 113.993 198.765C113.993 193.802 109.97 189.778 105.006 189.778C100.043 189.778 96.0195 193.802 96.0195 198.765C96.0195 203.729 100.043 207.752 105.006 207.752Z" fill="#414143"/>
<path id="Vector_13" d="M105.005 203.605C107.678 203.605 109.845 201.438 109.845 198.765C109.845 196.093 107.678 193.926 105.005 193.926C102.333 193.926 100.166 196.093 100.166 198.765C100.166 201.438 102.333 203.605 105.005 203.605Z" fill="#FDFDFB"/>
<path id="Vector_14" d="M108.013 199.341C108.332 197.681 107.246 196.076 105.586 195.756C103.925 195.437 102.32 196.523 102.001 198.183C101.681 199.844 102.768 201.449 104.428 201.768C106.088 202.088 107.693 201.001 108.013 199.341Z" fill="#8AA8B2"/>
</g>
<g id="Group_9">
<path id="Vector_15" d="M31.5338 207.752C36.4971 207.752 40.5207 203.729 40.5207 198.765C40.5207 193.802 36.4971 189.779 31.5338 189.779C26.5704 189.779 22.5469 193.802 22.5469 198.765C22.5469 203.729 26.5704 207.752 31.5338 207.752Z" fill="#414143"/>
<path id="Vector_16" d="M31.5346 203.605C34.2073 203.605 36.3739 201.438 36.3739 198.765C36.3739 196.093 34.2073 193.926 31.5346 193.926C28.8619 193.926 26.6953 196.093 26.6953 198.765C26.6953 201.438 28.8619 203.605 31.5346 203.605Z" fill="#FDFDFB"/>
<path id="Vector_17" d="M34.5413 199.325C34.8586 197.664 33.7698 196.061 32.1092 195.743C30.4486 195.426 28.8452 196.515 28.5278 198.175C28.2104 199.836 29.2993 201.44 30.9599 201.757C32.6204 202.074 34.2239 200.985 34.5413 199.325Z" fill="#8AA8B2"/>
</g>
<path id="Vector_18" d="M102.834 199.259H98.6863C96.8867 199.259 95.4277 197.8 95.4277 196V188.396H106.093V196C106.093 196.748 105.841 197.438 105.418 197.988C104.821 198.761 103.886 199.26 102.835 199.26L102.834 199.259Z" fill="#8499A5"/>
<path id="Vector_19" d="M29.2616 199.259H25.114C23.3144 199.259 21.8555 197.8 21.8555 196V188.396H32.521V196C32.521 196.803 32.2313 197.537 31.7497 198.106C31.152 198.812 30.259 199.26 29.2616 199.26V199.259Z" fill="#8499A5"/>
<path id="Vector_20" d="M151.834 78.6876C153.666 76.8556 153.666 73.8852 151.834 72.0532C150.002 70.2212 147.032 70.2212 145.2 72.0532C143.368 73.8852 143.368 76.8556 145.2 78.6876C147.032 80.5197 150.002 80.5197 151.834 78.6876Z" fill="#414143"/>
<path id="Vector_21" d="M111.032 157.749C110.998 157.749 110.963 157.748 110.929 157.745L17.0136 150.931C16.4047 150.887 15.8945 150.453 15.7536 149.859L2.71776 94.9014C2.53947 94.1493 3.0043 93.3955 3.75646 93.2172C4.50862 93.0389 5.26237 93.5038 5.44066 94.2559L18.2393 148.215L111.132 154.955C111.903 155.01 112.482 155.681 112.426 156.451C112.373 157.187 111.759 157.749 111.033 157.749H111.032Z" fill="#8499A5"/>
<path id="Vector_22" d="M124.067 119.922C124.051 119.922 124.035 119.922 124.018 119.921L8.32971 114.675C7.75107 114.649 7.30296 114.158 7.32922 113.579C7.35549 113 7.84658 112.552 8.42523 112.578L124.114 117.824C124.692 117.851 125.14 118.341 125.114 118.92C125.089 119.483 124.625 119.922 124.067 119.922V119.922Z" fill="#8499A5"/>
<path id="Vector_23" d="M117.962 137.549C117.941 137.549 117.919 137.549 117.898 137.548L12.2794 131.178C11.7008 131.143 11.2606 130.645 11.2948 130.067C11.3299 129.489 11.8273 129.048 12.4052 129.084L118.023 135.454C118.602 135.489 119.042 135.985 119.008 136.564C118.975 137.121 118.512 137.55 117.961 137.55L117.962 137.549Z" fill="#8499A5"/>
<path id="Vector_24" d="M33.113 151.474C32.5932 151.474 32.1419 151.088 32.0735 150.56L24.8154 94.4175C24.7413 93.8428 25.1465 93.3167 25.7211 93.2427C26.2958 93.1679 26.8219 93.5738 26.8959 94.1485L34.1541 150.291C34.2281 150.865 33.823 151.391 33.2483 151.465C33.2029 151.471 33.1576 151.474 33.1122 151.474H33.113Z" fill="#8499A5"/>
<path id="Vector_25" d="M49.7032 153.251C49.1413 153.251 48.6757 152.806 48.655 152.24L46.5808 94.3204C46.5601 93.741 47.013 93.2546 47.5916 93.2339C48.171 93.2125 48.6574 93.6661 48.6781 94.2448L50.7523 152.164C50.773 152.744 50.3201 153.23 49.7414 153.251C49.7287 153.251 49.716 153.251 49.7032 153.251V153.251Z" fill="#8499A5"/>
<path id="Vector_26" d="M64.6671 153.548C64.6432 153.548 64.6193 153.547 64.5954 153.545C64.0176 153.506 63.5806 153.005 63.6196 152.428L67.5205 94.7056C67.5595 94.1278 68.0593 93.69 68.638 93.7298C69.2158 93.7688 69.6528 94.2695 69.6138 94.8473L65.7129 152.569C65.6755 153.123 65.2147 153.548 64.6671 153.548Z" fill="#8499A5"/>
<path id="Vector_27" d="M80.0725 154.733C80.0128 154.733 79.9523 154.729 79.8918 154.718C79.3211 154.619 78.9383 154.075 79.037 153.505L89.2584 94.548C89.3571 93.9773 89.9007 93.5945 90.4714 93.6932C91.0421 93.7919 91.4249 94.3355 91.3262 94.9062L81.1048 153.863C81.0165 154.373 80.5731 154.733 80.0725 154.733V154.733Z" fill="#8499A5"/>
<path id="Vector_28" d="M95.4776 156.363C95.3869 156.363 95.2946 156.351 95.203 156.326C94.6435 156.175 94.3132 155.599 94.4644 155.039L111.055 93.7123C111.206 93.1527 111.782 92.8224 112.342 92.9736C112.901 93.1249 113.232 93.7011 113.081 94.2607L96.4901 155.587C96.3635 156.055 95.9401 156.363 95.4776 156.363Z" fill="#8499A5"/>
<g id="Group_10">
<path id="Vector_29" d="M18.745 188.857C17.9729 188.857 17.3473 188.232 17.3457 187.46C17.3441 186.687 17.9697 186.06 18.7426 186.059L113.85 185.911C114.267 185.815 115.953 185.353 116.814 183.993C117.43 183.019 117.522 181.716 117.088 180.124C115.715 175.093 112.555 162.559 111.261 157.404C110.737 155.315 110.838 153.138 111.553 151.107L120.821 124.779C120.827 124.764 120.832 124.748 120.838 124.733L139.651 76.7381C139.832 76.2757 140.244 75.9445 140.735 75.8665L149.178 74.5333C149.941 74.4132 150.658 74.9337 150.778 75.697C150.898 76.4603 150.378 77.1767 149.614 77.2968L141.963 78.5051L123.452 125.73L114.191 152.036C113.659 153.547 113.584 155.168 113.975 156.722C115.267 161.869 118.422 174.381 119.787 179.387C120.44 181.785 120.229 183.848 119.159 185.519C117.493 188.119 114.356 188.668 114.223 188.69C114.147 188.703 114.072 188.709 113.995 188.709L18.7466 188.858H18.7442L18.745 188.857Z" fill="#90A3C1"/>
<path id="Vector_30" d="M18.7446 186.968C18.3601 186.968 18.0473 186.658 18.0449 186.273C18.0425 185.887 18.3538 185.572 18.7398 185.569L111.322 184.981C111.333 184.981 111.344 184.981 111.355 184.981C111.385 184.982 114.523 185.078 115.889 183.356C116.583 182.482 116.715 181.233 116.281 179.643C115.924 178.334 115.436 176.567 114.87 174.52C113.332 168.954 111.226 161.332 110.204 157.261C109.685 155.195 109.739 153.319 110.371 151.526L121.183 119.979C121.187 119.968 121.191 119.957 121.196 119.945L137.637 78.9173C138.737 76.0456 139.898 74.5986 141.185 74.4967L148.695 73.2973C149.077 73.2368 149.435 73.4962 149.496 73.8775C149.557 74.2587 149.297 74.6177 148.916 74.6782L141.375 75.8824C141.352 75.8864 141.328 75.8888 141.305 75.8904C140.827 75.9175 139.923 76.8591 138.941 79.422C138.94 79.4252 138.939 79.4291 138.937 79.4323L122.501 120.448L111.693 151.983C111.154 153.515 111.112 155.127 111.562 156.919C112.58 160.973 114.683 168.587 116.22 174.145C116.785 176.193 117.274 177.962 117.632 179.273C118.189 181.319 117.971 182.986 116.982 184.228C115.214 186.449 111.638 186.389 111.317 186.378L18.7493 186.966H18.7446V186.968Z" fill="#8499A5"/>
</g>
<path id="Vector_31" d="M134.072 92.8256H3.06232C2.26096 92.8256 1.61133 93.4752 1.61133 94.2766V95.2755C1.61133 96.0769 2.26096 96.7265 3.06232 96.7265H134.072C134.873 96.7265 135.523 96.0769 135.523 95.2755V94.2766C135.523 93.4752 134.873 92.8256 134.072 92.8256Z" fill="#414143"/>
</g>
<g id="Group_11">
<path id="Vector_32" d="M195.505 33.8125C194.921 33.6159 194.338 33.4193 193.754 33.2219C194.635 33.4209 195.54 33.5132 196.443 33.4965C195.769 32.6377 194.602 32.0869 194.379 31.018C194.281 30.5492 194.394 30.0613 194.553 29.61C194.889 28.6604 195.427 27.796 195.817 26.8672C196.205 25.9383 196.44 24.8853 196.131 23.9262C195.894 23.1908 195.363 22.589 194.798 22.0621C193.849 21.177 192.63 20.4018 191.343 20.5626C190.396 20.6804 189.564 21.3068 189.035 22.1003C188.507 22.8939 188.251 23.8402 188.122 24.785C187.646 28.2752 190.22 37.5056 195.504 33.8117L195.505 33.8125Z" fill="#A05D45"/>
<path id="Vector_33" d="M169.944 8.83843C168.948 12.1543 169.811 15.8403 171.68 18.755C172.995 20.8069 174.765 22.5206 176.308 24.4077C177.851 26.2949 179.209 28.4646 179.458 30.889C179.707 33.3134 178.569 36.0125 176.316 36.9413C177.882 36.9731 179.455 36.6022 180.843 35.874C180.586 36.8418 180.139 37.7587 179.535 38.5579C183.928 37.4547 187.447 33.8722 189.165 29.6816C190.884 25.491 190.963 20.7687 190.142 16.3139C189.532 13.0067 188.403 9.71635 186.275 7.11125C181.773 1.59781 172.315 0.939573 169.944 8.83923V8.83843Z" fill="#BF7152"/>
<g id="Group_12">
<g id="Group_13">
<g id="Group_14">
<path id="Vector_34" d="M179.196 183.076C182.73 170.479 192.826 144.125 187.675 135.039L176.91 133.231C176.91 133.231 174.376 167.115 173.699 178.018C173.034 188.734 172.582 196.926 172.229 197.851C172.229 197.851 170.876 201.365 174.534 201.782C174.534 201.782 177.419 203.054 177.857 199.387C178.296 195.72 175.663 195.671 179.197 183.075L179.196 183.076Z" fill="#E38859"/>
<g id="Group_15">
<path id="Vector_35" d="M165.218 201.307C164.484 201.505 163.661 201.638 163.174 202.222C162.607 202.901 162.75 203.97 163.282 204.677C163.814 205.384 164.575 205.018 165.393 205.355C167.775 206.339 170.612 206.827 172.855 205.557C173.818 205.012 174.693 204.947 175.758 204.649C176.218 204.52 176.711 204.501 177.146 204.304C177.891 203.967 178.332 203.167 178.5 202.367C178.935 200.293 177.888 198.24 177.329 196.197C177.141 195.511 176.903 194.692 176.221 194.49C175.909 194.397 175.575 194.465 175.257 194.533C174.244 194.75 173.343 194.778 172.625 195.543C171.879 196.339 171.218 197.207 170.445 197.982C169.022 199.406 167.238 200.869 165.218 201.308L165.218 201.307Z" fill="#DDE4E8"/>
<path id="Vector_36" d="M178.908 201.04C178.908 200.404 178.846 199.785 178.67 199.172C178.521 198.653 178.068 198.106 177.974 197.606C178.015 197.823 177.915 198.038 177.82 198.236C177.276 199.369 177.003 200.755 176.078 201.617C175.177 202.457 174.259 203.15 173.032 203.44C172.517 203.561 171.967 203.615 171.462 203.452C170.437 203.122 169.829 202.042 168.92 201.494C167.739 200.783 166.536 200.355 165.158 200.78C163.8 201.199 162.706 202.225 161.861 203.369C161.67 203.627 161.485 203.907 161.441 204.225C161.387 204.624 161.569 205.025 161.837 205.325C162.481 206.046 163.663 206.395 164.57 206.638C166.882 207.254 169.347 207.268 171.673 206.71C172.849 206.428 173.884 205.862 175.016 205.497C175.999 205.181 177.139 205.117 177.88 204.291C178.684 203.397 178.908 202.204 178.908 201.039V201.04Z" fill="#3A3944"/>
</g>
</g>
<path id="Vector_37" d="M172.871 186.27C172.764 192.015 172.679 196.129 172.426 196.664C172.426 196.664 171.252 199.119 174.9 199.593C174.9 199.593 177.822 200.642 178.083 198.033C178.335 195.508 175.909 195.253 178.39 187.198L172.871 186.271V186.27Z" fill="#DDE4E8"/>
</g>
<g id="Group_16">
<g id="Group_17">
<path id="Vector_38" d="M220.585 177.791C217.227 165.146 212.528 137.317 203.474 132.111L193.283 136.026C193.283 136.026 208.321 166.495 213.279 176.23C218.151 185.797 221.926 193.082 222.092 194.058C222.092 194.058 222.713 197.771 226.075 196.271C226.075 196.271 229.205 195.901 227.719 192.52C226.233 189.139 223.941 190.436 220.583 177.791L220.585 177.791Z" fill="#F4B683"/>
<g id="Group_18">
<path id="Vector_39" d="M217.811 200.596C217.28 201.139 216.639 201.673 216.516 202.423C216.372 203.295 217.039 204.143 217.857 204.482C218.673 204.821 219.144 204.119 220.019 203.994C222.571 203.63 225.262 202.609 226.548 200.375C227.1 199.416 227.822 198.916 228.588 198.118C228.919 197.773 229.333 197.506 229.607 197.115C230.078 196.447 230.05 195.534 229.789 194.758C229.11 192.752 227.164 191.515 225.643 190.039C225.133 189.544 224.512 188.961 223.822 189.132C223.506 189.211 223.253 189.439 223.014 189.659C222.252 190.36 221.489 190.843 221.261 191.866C221.023 192.931 220.895 194.014 220.622 195.074C220.12 197.024 219.328 199.191 217.811 200.595V200.596Z" fill="white"/>
<path id="Vector_40" d="M229.466 193.409C229.143 192.861 228.775 192.36 228.312 191.921C227.92 191.549 227.253 191.309 226.917 190.926C227.062 191.092 227.085 191.327 227.104 191.547C227.211 192.8 227.68 194.132 227.323 195.344C226.974 196.526 226.535 197.589 225.626 198.462C225.244 198.83 224.797 199.155 224.28 199.271C223.228 199.508 222.156 198.887 221.095 198.877C219.717 198.865 218.464 199.108 217.493 200.174C216.536 201.225 216.115 202.665 215.969 204.079C215.937 204.399 215.918 204.733 216.043 205.03C216.198 205.401 216.559 205.654 216.943 205.777C217.864 206.07 219.059 205.77 219.963 205.518C222.268 204.874 224.398 203.633 226.118 201.97C226.987 201.131 227.59 200.116 228.38 199.227C229.067 198.455 230.015 197.82 230.235 196.732C230.473 195.554 230.059 194.413 229.468 193.409L229.466 193.409Z" fill="#3A3944"/>
</g>
</g>
<path id="Vector_41" d="M216.761 183.755C219.588 188.757 221.605 192.344 221.66 192.933C221.66 192.933 221.895 195.645 225.278 194.198C225.278 194.198 228.328 193.616 227.226 191.237C226.161 188.934 223.941 189.949 221.984 181.749L216.76 183.755H216.761Z" fill="white"/>
</g>
<path id="Vector_42" d="M177.065 75.4931L196.726 74.8667C196.726 74.8667 202.581 89.5509 202.689 94.7117C202.795 99.8733 219.06 168.727 219.06 168.727C219.06 168.727 192.731 184.429 158.625 168.819C158.625 168.819 166.401 129.556 170.874 108.536C172.006 103.219 172.992 95.8658 173.621 90.4351C173.946 87.6358 173.959 84.0255 177.064 75.4931H177.065Z" fill="#25AC10"/>
<path id="Vector_43" d="M197.593 67.7335C197.408 62.9228 199.593 58.6821 199.39 53.8038C199.199 49.2113 197.861 44.6585 195.464 40.7306C195.098 40.1305 194.678 39.5168 194.046 39.208C192.993 38.6938 191.753 39.1793 190.657 39.5932C188.566 40.3812 187.193 38.958 185.487 40.5658C184.229 41.7518 183.531 43.7806 182.498 45.183C180.925 47.3201 179.05 49.2535 177.041 50.9456C174.938 52.7174 172.486 54.4469 171.755 57.1555C171.129 59.4701 171.989 62.0258 173.531 63.8175C174.167 64.5553 174.937 65.2295 175.242 66.1679C175.718 67.6244 175.151 69.3612 174.934 70.8209C174.669 72.6078 174.404 74.3939 174.138 76.1807C174.036 76.8652 173.935 77.5689 174.087 78.2438C174.487 80.0164 176.507 80.9755 178.325 80.9826C180.143 80.9898 181.89 80.322 183.687 80.0554C187.899 79.4297 192.204 81.0168 196.416 80.3976C197.834 80.1891 199.351 79.6184 200.001 78.3417C200.505 77.3508 200.365 76.1433 199.979 75.1007C199.592 74.058 198.98 73.114 198.533 72.096C197.921 70.7023 197.65 69.2298 197.592 67.7327L197.593 67.7335Z" fill="#EDF3F7"/>
<g id="Group_19">
<path id="Vector_44" d="M192.659 43.4381L185.451 43.0927L186.104 28.3631L193.312 28.7093L192.659 43.4381Z" fill="#F4B683"/>
<path id="Vector_45" d="M193.311 28.7093L187.922 28.4507C187.918 28.4554 187.914 28.4602 187.91 28.4658C187.419 29.0954 186.67 30.1269 185.972 31.3057L185.67 38.13C185.767 38.1451 185.864 38.1555 185.958 38.1595C188.546 38.282 191.109 36.773 193.06 34.3461L193.31 28.7085L193.311 28.7093Z" fill="#D56734"/>
</g>
<path id="Vector_46" d="M159.851 162.646C159.689 163.456 159.541 164.201 159.408 164.869C165.511 167.225 176.589 170.611 189.955 170.611C198.662 170.611 208.33 169.135 218.187 165.029C218.032 164.368 217.861 163.639 217.671 162.829C192.952 173.283 169.416 166.4 159.85 162.646H159.851Z" fill="white"/>
<path id="Vector_47" d="M185.294 45.8492C187.599 45.2658 189.895 44.5447 191.945 43.3388C193.994 42.1338 192.11 40.4639 193.058 38.2831C190.153 38.6356 190.816 38.2552 188.053 39.2175C186.086 39.902 184.365 41.2519 183.19 42.9663C181.628 45.2427 182.516 46.5528 185.294 45.8492Z" fill="#F4B683"/>
</g>
<g id="Group_20">
<path id="Vector_48" d="M192.867 9.40835C191.784 4.3454 187.529 0.766878 182.248 1.61057C177.375 2.38899 173.023 7.37632 172.344 12.1726C171.883 15.432 173.886 18.205 173.672 21.3108C173.584 22.5858 172.674 24.0201 171.885 24.9386C171.738 25.1106 171.576 25.2881 171.536 25.5149C171.498 25.7218 171.568 25.9359 171.665 26.123C172.25 27.2636 173.678 27.6488 174.453 28.6628C175.066 29.4651 175.186 30.5404 175.53 31.4971C176.373 33.8388 178.654 35.4513 181.034 35.8135C184.677 36.3683 188.928 34.1524 191.615 31.7343C192.861 30.6129 193.885 29.2192 194.525 27.6345C194.683 27.2421 195.598 22.6153 195.265 22.675C195.265 22.675 192.874 9.40676 192.867 9.40755V9.40835Z" fill="#F4B683"/>
<path id="Vector_49" d="M177.421 21.309C177.506 21.3894 177.631 21.4109 177.749 21.3918C177.872 21.3759 177.979 21.3027 178.061 21.2183C178.142 21.1299 178.195 21.0273 178.224 20.919C178.25 20.8108 178.26 20.7017 178.237 20.5887C178.082 20.7558 177.988 20.9158 177.87 21.0368C177.757 21.1618 177.64 21.2533 177.42 21.309H177.421Z" fill="#3A3944"/>
<path id="Vector_50" d="M174.174 19.2611C174.37 18.4675 175.103 17.8427 175.935 17.7202C176.35 17.674 176.773 17.7138 177.15 17.8706C177.342 17.9343 177.512 18.0529 177.684 18.1484C177.844 18.2717 177.998 18.3999 178.134 18.5471C177.933 18.5272 177.752 18.4803 177.571 18.4437C177.386 18.423 177.213 18.3776 177.038 18.3625C176.69 18.3195 176.356 18.3195 176.032 18.3625C175.707 18.4007 175.398 18.5153 175.089 18.6617C174.781 18.8154 174.484 19.0159 174.174 19.2603V19.2611Z" fill="#A05D45"/>
<path id="Vector_51" d="M175.079 22.456C175.206 21.6752 175.766 21.0814 176.424 20.9899C176.753 20.9588 177.09 21.0145 177.396 21.1841C177.551 21.2549 177.69 21.3783 177.831 21.4802C177.963 21.6091 178.09 21.742 178.205 21.8925C178.043 21.8654 177.897 21.8113 177.752 21.7683C177.604 21.7404 177.464 21.6895 177.324 21.668C177.046 21.6131 176.781 21.6004 176.524 21.6314C176.266 21.6577 176.025 21.7595 175.785 21.8941C175.545 22.0349 175.316 22.2236 175.078 22.4552L175.079 22.456Z" fill="#3A3944"/>
<path id="Vector_52" d="M177.85 31.1746C177.911 31.1723 177.972 31.1675 178.034 31.1643C178.095 31.1603 178.156 31.1643 178.217 31.1635H178.308L178.4 31.1683C178.46 31.1731 178.522 31.1723 178.582 31.181C178.943 31.2136 179.297 31.298 179.639 31.427C179.532 31.2288 179.419 31.0346 179.302 30.8435C179.083 30.7751 178.857 30.7281 178.628 30.7074C178.355 30.6843 178.08 30.6875 177.809 30.7257C177.54 30.7671 177.273 30.8268 177.02 30.9231C176.51 31.107 176.04 31.3816 175.635 31.7358C176.133 31.5535 176.62 31.3872 177.113 31.2837C177.358 31.228 177.605 31.1961 177.85 31.1746Z" fill="#D56734"/>
</g>
<path id="Vector_53" d="M179.25 1.47047C183.27 -0.384057 188.31 -0.4931 192.096 1.19269C196.293 3.06155 198.64 6.76822 200.081 10.5035C201.024 12.9447 201.671 15.4773 202.011 18.0554C202.125 18.9229 202.211 19.8144 202.648 20.592C203.086 21.3696 203.961 22.0287 205.047 22.0542C206.139 22.0796 207.148 21.489 208.051 20.9287C207.875 21.8846 207.186 22.8047 206.199 23.3985C206.903 23.8323 207.858 24.0018 208.772 23.8554C207.496 25.0413 205.868 25.9821 204.087 26.5623C204.749 27.5771 205.916 28.3484 207.29 28.6795C204.863 29.6904 201.969 29.8217 199.595 29.0289C199.904 30.2658 201.086 31.283 202.589 31.6046C199.877 32.5454 196.89 32.691 194.083 32.3758C192.462 32.1936 190.863 31.8577 189.476 31.2122C186.156 29.6665 184.299 26.2949 183.694 22.7952C183.052 19.0797 181.278 15.2481 179.988 11.6155C179.586 10.4828 179.048 9.29292 178 8.70473C177.061 8.17782 175.917 8.24786 174.841 8.29084C174.471 8.30517 174.085 8.31154 173.754 8.14757C170.98 6.77697 178.194 1.95599 179.249 1.46968L179.25 1.47047Z" fill="#BF7152"/>
<path id="Vector_54" d="M174.831 9.48635C174.324 9.92491 173.919 10.4813 173.657 11.0981C174.583 10.5457 175.656 10.2425 176.734 10.2274C176.631 10.4908 176.448 10.7216 176.214 10.8808C177.256 10.9572 178.298 11.0328 179.34 11.1093C179.054 9.94719 178.659 8.81139 178.164 7.72176C177.891 7.11923 177.577 6.51751 177.096 6.06303C176.616 5.60855 175.936 5.31803 175.286 5.45016C174.412 5.62765 173.857 6.47532 173.454 7.27205C172.804 8.55988 172.04 10.135 171.918 11.5574C172.749 10.6787 173.71 9.95356 174.832 9.48635H174.831Z" fill="#A05D45"/>
<g id="Group_21">
<path id="Vector_55" d="M186.741 19.0687C184.879 16.7462 183.311 20.4138 183.311 20.4138L183.7 26.5776C187.231 25.0645 188.603 21.3912 186.741 19.0687Z" fill="#F4B683"/>
<path id="Vector_56" d="M183.749 21.755C183.749 21.755 184.46 19.5144 185.589 19.9578C186.718 20.4019 187.079 23.6756 184.085 24.8965L183.748 21.7542L183.749 21.755Z" fill="#E38859"/>
</g>
<path id="Vector_57" d="M179.19 11.8335C180.111 16.906 181.031 21.9793 181.952 27.0518C182.249 28.6891 182.554 30.3526 183.266 31.8465C183.977 33.3397 185.165 34.6657 186.663 35.0908C188.161 35.515 189.941 34.8098 190.495 33.2784C189.395 33.7791 188.047 33.2601 187.173 32.3352C186.299 31.4096 185.808 30.1536 185.401 28.9151C184.301 25.5618 183.653 22.0693 183.126 18.5743C182.604 15.1144 182.173 11.5478 180.613 8.44365C180.108 7.43839 179.233 6.36865 178.209 6.57241C177.989 7.66443 178.066 8.83287 178.427 9.89862L179.189 11.8351L179.19 11.8335Z" fill="#BF7152"/>
</g>
<g id="Group_22">
<g id="Group_23">
<path id="Vector_58" d="M182.565 71.5956C183.399 69.8332 182.304 67.5673 180.121 66.5347C177.937 65.502 175.491 66.0936 174.658 67.856C173.824 69.6184 174.919 71.8842 177.102 72.9169C179.286 73.9496 181.732 73.358 182.565 71.5956Z" fill="#DDE4E8"/>
<path id="Vector_59" d="M195.011 45.3247C195.844 43.5623 194.749 41.2964 192.566 40.2637C190.382 39.2311 187.936 39.8226 187.103 41.5851C186.269 43.3475 187.364 45.6133 189.548 46.646C191.731 47.6787 194.177 47.0871 195.011 45.3247Z" fill="#DDE4E8"/>
<path id="Vector_60" d="M195.024 45.3233L187.115 41.5833L174.608 68.0311L182.516 71.7711L195.024 45.3233Z" fill="#DDE4E8"/>
</g>
<path id="Vector_61" d="M151.813 77.1552L180.485 72.8714L178.702 64.7903C178.702 64.7903 155.3 68.8249 150.221 68.138L151.813 77.1552Z" fill="#DDE4E8"/>
<g id="Group_24">
<path id="Vector_62" d="M147.751 74.0373C148.22 74.1655 148.688 73.9601 148.792 73.582L150.017 69.0906C150.059 68.9362 150.034 68.7754 149.958 68.6305C149.847 68.4212 149.629 68.2453 149.352 68.1697C148.883 68.0415 148.415 68.2469 148.312 68.625L147.087 73.1164C147.024 73.3472 147.111 73.5916 147.294 73.7763C147.412 73.8941 147.569 73.988 147.752 74.0373H147.751Z" fill="#F4B683"/>
<path id="Vector_63" d="M148.824 76.2477C149.289 76.3909 149.785 76.1283 149.929 75.6642L151.629 70.1532C151.688 69.9637 151.679 69.7679 151.616 69.5936C151.524 69.3413 151.321 69.1328 151.046 69.0476C150.582 68.9044 150.085 69.167 149.941 69.6318L148.24 75.1429C148.153 75.4263 148.217 75.7215 148.385 75.942C148.493 76.0829 148.643 76.1927 148.825 76.2484L148.824 76.2477Z" fill="#F4B683"/>
<path id="Vector_64" d="M150.734 75.9189C151.199 76.0622 151.684 75.8401 151.812 75.4246L153.332 70.4978C153.385 70.3283 153.37 70.1516 153.302 69.9924C153.204 69.7615 152.996 69.5673 152.721 69.4822C152.256 69.3389 151.772 69.561 151.643 69.9765L150.123 74.9033C150.045 75.1564 150.117 75.4254 150.29 75.6292C150.401 75.7597 150.554 75.8632 150.734 75.9189Z" fill="#F4B683"/>
<path id="Vector_65" d="M152.786 75.1922C153.25 75.3355 153.718 75.17 153.824 74.8237L155.091 70.7199C155.134 70.579 155.111 70.4286 155.037 70.2901C154.93 70.0903 154.715 69.9152 154.44 69.8308C153.976 69.6876 153.508 69.8531 153.402 70.1993L152.135 74.3032C152.07 74.5141 152.154 74.7457 152.334 74.9264C152.45 75.0418 152.605 75.1373 152.786 75.193V75.1922Z" fill="#F4B683"/>
</g>
</g>
</g>
</g>
</g>
</g>
</g>
</svg>
