<svg width="230" height="230" viewBox="0 0 230 230" fill="none" xmlns="http://www.w3.org/2000/svg">
<g id="Group 37126">
<g id="3" filter="url(#filter0_d_93_2123)">
<circle cx="115" cy="111" r="100" fill="white"/>
</g>
<g id="Group">
<g id="katman 2">
<g id="Layer 1">
<g id="Group_2">
<g id="Group_3">
<path id="Vector" d="M153.331 49.6569L178.698 103.841C180.152 106.946 178.677 110.582 175.404 111.962L78.4862 152.804C75.5359 154.047 72.1311 153.032 70.4245 150.544C70.237 150.273 70.0703 149.984 69.9272 149.678L44.5601 95.494C43.106 92.3883 44.5809 88.7528 47.8538 87.3732L144.772 46.5309C145.095 46.3951 145.421 46.2865 145.751 46.2034C148.776 45.4442 152.02 46.8573 153.331 49.6569Z" fill="#8CD232"/>
<path id="Vector_2" d="M154.596 52.3576L45.8252 98.1956L53.1647 113.872L161.935 68.0344L154.596 52.3576Z" fill="#4D4D4D"/>
</g>
<g id="Vector_3" style="mix-blend-mode:multiply">
<path d="M171.087 88.9039H70.8366C65.654 88.9039 61.4526 92.8899 61.4526 97.807V151.595C61.4526 156.512 65.654 160.498 70.8366 160.498H171.087C176.269 160.498 180.471 156.512 180.471 151.595V97.807C180.471 92.8899 176.269 88.9039 171.087 88.9039Z" fill="#E6E6E6"/>
</g>
<path id="Vector_4" d="M184.789 99.1531V158.441C184.789 161.839 181.885 164.594 178.304 164.594H72.2553C69.0272 164.594 66.3497 162.355 65.8541 159.424C65.7986 159.104 65.7705 158.775 65.7705 158.441V99.1531C65.7705 95.755 68.6742 93.0001 72.2553 93.0001H178.304C178.657 93.0001 179.002 93.0267 179.339 93.0779C182.428 93.5491 184.789 96.0899 184.789 99.1531Z" fill="#8CD232"/>
<path id="Vector_5" d="M175.17 157.492C178.174 154.643 178.174 150.022 175.17 147.173C172.167 144.323 167.297 144.323 164.293 147.173C161.289 150.022 161.289 154.643 164.293 157.492C167.297 160.342 172.167 160.342 175.17 157.492Z" fill="#FFC700"/>
<path id="Vector_6" d="M167.282 157.48C170.286 154.63 170.286 150.01 167.282 147.16C164.278 144.31 159.409 144.31 156.405 147.16C153.401 150.01 153.401 154.63 156.405 157.48C159.409 160.329 164.278 160.329 167.282 157.48Z" fill="#F23D3D"/>
<path id="Vector_7" d="M96.0126 133.617H75.4517V138.022H96.0126V133.617Z" fill="#656565"/>
<path id="Vector_8" d="M106.488 154.179H75.4517V157.446H106.488V154.179Z" fill="#656565"/>
<path id="Vector_9" d="M175.106 100.667H152.024V106.276H175.106V100.667Z" fill="#656565"/>
<path id="Vector_10" d="M122.377 133.617H101.816V138.022H122.377V133.617Z" fill="#656565"/>
<path id="Vector_11" d="M148.742 133.617H128.181V138.022H148.742V133.617Z" fill="#656565"/>
<path id="Vector_12" d="M175.106 133.617H154.545V138.022H175.106V133.617Z" fill="#656565"/>
<path id="Vector_13" d="M98.0975 103.934H77.3267C76.2911 103.934 75.4517 104.731 75.4517 105.713V118.063C75.4517 119.046 76.2911 119.842 77.3267 119.842H98.0975C99.133 119.842 99.9725 119.046 99.9725 118.063V105.713C99.9725 104.731 99.133 103.934 98.0975 103.934Z" fill="#FFE15A"/>
</g>
</g>
</g>
</g>
</g>
<defs>
<filter id="filter0_d_93_2123" x="0" y="0" width="230" height="230" filterUnits="userSpaceOnUse" color-interpolation-filters="sRGB">
<feFlood flood-opacity="0" result="BackgroundImageFix"/>
<feColorMatrix in="SourceAlpha" type="matrix" values="0 0 0 0 0 0 0 0 0 0 0 0 0 0 0 0 0 0 127 0" result="hardAlpha"/>
<feOffset dy="4"/>
<feGaussianBlur stdDeviation="7.5"/>
<feComposite in2="hardAlpha" operator="out"/>
<feColorMatrix type="matrix" values="0 0 0 0 0.541176 0 0 0 0 0.568627 0 0 0 0 0.643137 0 0 0 0.25 0"/>
<feBlend mode="normal" in2="BackgroundImageFix" result="effect1_dropShadow_93_2123"/>
<feBlend mode="normal" in="SourceGraphic" in2="effect1_dropShadow_93_2123" result="shape"/>
</filter>
</defs>
</svg>
