<svg width="174" height="52" viewBox="0 0 174 52" fill="none" xmlns="http://www.w3.org/2000/svg">
<rect x="0.35" y="0.35" width="173.3" height="51.3" rx="7.65" fill="white"/>
<path d="M64.0565 24.3267L53.8592 24.3262C53.4089 24.3262 53.0439 24.6911 53.0439 25.1414V28.399C53.0439 28.8492 53.4089 29.2142 53.8592 29.2142H59.6017C58.9729 30.8461 57.7992 32.2127 56.3019 33.0811L58.7504 37.3198C62.6783 35.0482 65.0004 31.0624 65.0004 26.6006C65.0004 25.9653 64.9536 25.5111 64.86 24.9998C64.7888 24.6112 64.4515 24.3267 64.0565 24.3267Z" fill="#167EE6"/>
<path d="M52.5004 34.1086C49.6902 34.1086 47.2369 32.5731 45.9192 30.301L41.6807 32.7441C43.8376 36.4825 47.8784 38.9999 52.5004 38.9999C54.7679 38.9999 56.9074 38.3894 58.7504 37.3255V37.3197L56.3019 33.0809C55.1818 33.7305 53.8857 34.1086 52.5004 34.1086Z" fill="#12B347"/>
<path d="M58.75 37.3256V37.3198L56.3014 33.081C55.1814 33.7306 53.8854 34.1087 52.5 34.1087V39C54.7674 39 56.907 38.3895 58.75 37.3256Z" fill="#0F993E"/>
<path d="M44.8913 26.5C44.8913 25.1148 45.2693 23.8188 45.9188 22.6989L41.6802 20.2558C40.6104 22.0931 40 24.2267 40 26.5C40 28.7732 40.6104 30.9069 41.6802 32.7442L45.9188 30.3011C45.2693 29.1811 44.8913 27.8852 44.8913 26.5Z" fill="#FFD500"/>
<path d="M52.5004 18.8913C54.333 18.8913 56.0163 19.5425 57.3311 20.6256C57.6555 20.8928 58.1269 20.8735 58.424 20.5764L60.7321 18.2683C61.0692 17.9312 61.0452 17.3794 60.6851 17.067C58.4822 15.1559 55.616 14 52.5004 14C47.8784 14 43.8376 16.5174 41.6807 20.2558L45.9192 22.6989C47.2369 20.4268 49.6902 18.8913 52.5004 18.8913Z" fill="#FF4B26"/>
<path d="M57.3307 20.6256C57.655 20.8928 58.1265 20.8735 58.4236 20.5764L60.7317 18.2683C61.0687 17.9312 61.0447 17.3794 60.6847 17.067C58.4818 15.1559 55.6156 14 52.5 14V18.8913C54.3325 18.8913 56.0159 19.5425 57.3307 20.6256Z" fill="#D93F21"/>
<path d="M86.8674 32.16C85.6194 32.16 84.5634 31.9253 83.6994 31.456C82.8461 30.9867 82.1954 30.32 81.7474 29.456C81.2994 28.592 81.0754 27.568 81.0754 26.384C81.0754 25.488 81.2034 24.6827 81.4594 23.968C81.7261 23.2533 82.1048 22.6453 82.5954 22.144C83.0968 21.632 83.7048 21.2427 84.4194 20.976C85.1341 20.6987 85.9448 20.56 86.8514 20.56C87.4488 20.56 88.0461 20.6347 88.6434 20.784C89.2514 20.9227 89.8221 21.1627 90.3554 21.504C90.5368 21.6213 90.6541 21.7653 90.7074 21.936C90.7714 22.1067 90.7821 22.2827 90.7394 22.464C90.6968 22.6347 90.6168 22.784 90.4994 22.912C90.3821 23.04 90.2328 23.12 90.0514 23.152C89.8808 23.184 89.6888 23.1413 89.4754 23.024C89.0701 22.7893 88.6594 22.6187 88.2434 22.512C87.8274 22.4053 87.3634 22.352 86.8514 22.352C86.0621 22.352 85.3954 22.512 84.8514 22.832C84.3074 23.1413 83.8968 23.5947 83.6194 24.192C83.3528 24.7893 83.2194 25.52 83.2194 26.384C83.2194 27.696 83.5341 28.6933 84.1634 29.376C84.7928 30.0587 85.7261 30.4 86.9634 30.4C87.3901 30.4 87.8221 30.3573 88.2594 30.272C88.6968 30.1867 89.1234 30.0693 89.5394 29.92L89.1394 30.832V27.424H87.3794C87.1128 27.424 86.9048 27.3547 86.7554 27.216C86.6168 27.0773 86.5474 26.8907 86.5474 26.656C86.5474 26.4107 86.6168 26.224 86.7554 26.096C86.9048 25.968 87.1128 25.904 87.3794 25.904H90.0194C90.2861 25.904 90.4888 25.9787 90.6274 26.128C90.7768 26.2667 90.8514 26.4693 90.8514 26.736V30.624C90.8514 30.8587 90.8034 31.056 90.7074 31.216C90.6221 31.376 90.4781 31.4933 90.2754 31.568C89.8061 31.7387 89.2674 31.8827 88.6594 32C88.0514 32.1067 87.4541 32.16 86.8674 32.16ZM96.6007 32.16C95.79 32.16 95.086 31.9947 94.4887 31.664C93.8913 31.3333 93.4273 30.864 93.0967 30.256C92.766 29.6373 92.6007 28.912 92.6007 28.08C92.6007 27.4507 92.6913 26.8907 92.8727 26.4C93.0647 25.8987 93.3367 25.472 93.6887 25.12C94.0407 24.7573 94.462 24.4853 94.9527 24.304C95.4433 24.112 95.9927 24.016 96.6007 24.016C97.4113 24.016 98.1153 24.1813 98.7127 24.512C99.31 24.8427 99.774 25.312 100.105 25.92C100.435 26.528 100.601 27.248 100.601 28.08C100.601 28.7093 100.505 29.2747 100.313 29.776C100.131 30.2773 99.8647 30.7093 99.5127 31.072C99.1607 31.424 98.7393 31.696 98.2487 31.888C97.758 32.0693 97.2087 32.16 96.6007 32.16ZM96.6007 30.64C96.9953 30.64 97.342 30.544 97.6407 30.352C97.9393 30.16 98.1687 29.8773 98.3287 29.504C98.4993 29.12 98.5847 28.6453 98.5847 28.08C98.5847 27.2267 98.4033 26.592 98.0407 26.176C97.678 25.7493 97.198 25.536 96.6007 25.536C96.206 25.536 95.8593 25.632 95.5607 25.824C95.262 26.0053 95.0273 26.288 94.8567 26.672C94.6967 27.0453 94.6167 27.5147 94.6167 28.08C94.6167 28.9227 94.798 29.5627 95.1607 30C95.5233 30.4267 96.0033 30.64 96.6007 30.64ZM105.819 32.16C105.009 32.16 104.305 31.9947 103.707 31.664C103.11 31.3333 102.646 30.864 102.315 30.256C101.985 29.6373 101.819 28.912 101.819 28.08C101.819 27.4507 101.91 26.8907 102.091 26.4C102.283 25.8987 102.555 25.472 102.907 25.12C103.259 24.7573 103.681 24.4853 104.171 24.304C104.662 24.112 105.211 24.016 105.819 24.016C106.63 24.016 107.334 24.1813 107.931 24.512C108.529 24.8427 108.993 25.312 109.323 25.92C109.654 26.528 109.819 27.248 109.819 28.08C109.819 28.7093 109.723 29.2747 109.531 29.776C109.35 30.2773 109.083 30.7093 108.731 31.072C108.379 31.424 107.958 31.696 107.467 31.888C106.977 32.0693 106.427 32.16 105.819 32.16ZM105.819 30.64C106.214 30.64 106.561 30.544 106.859 30.352C107.158 30.16 107.387 29.8773 107.547 29.504C107.718 29.12 107.803 28.6453 107.803 28.08C107.803 27.2267 107.622 26.592 107.259 26.176C106.897 25.7493 106.417 25.536 105.819 25.536C105.425 25.536 105.078 25.632 104.779 25.824C104.481 26.0053 104.246 26.288 104.075 26.672C103.915 27.0453 103.835 27.5147 103.835 28.08C103.835 28.9227 104.017 29.5627 104.379 30C104.742 30.4267 105.222 30.64 105.819 30.64ZM115.118 35.04C114.542 35.04 113.982 34.9867 113.438 34.88C112.905 34.7733 112.42 34.608 111.982 34.384C111.78 34.2773 111.641 34.1493 111.566 34C111.502 33.8507 111.481 33.696 111.502 33.536C111.534 33.3867 111.598 33.2533 111.694 33.136C111.801 33.0187 111.929 32.9387 112.078 32.896C112.228 32.8533 112.382 32.8747 112.542 32.96C113.012 33.1947 113.454 33.344 113.87 33.408C114.297 33.4827 114.66 33.52 114.958 33.52C115.673 33.52 116.206 33.344 116.558 32.992C116.921 32.6507 117.102 32.1387 117.102 31.456V30.016H117.246C117.086 30.56 116.75 30.9973 116.238 31.328C115.737 31.648 115.166 31.808 114.526 31.808C113.822 31.808 113.209 31.648 112.686 31.328C112.164 30.9973 111.758 30.5387 111.47 29.952C111.182 29.3653 111.038 28.6827 111.038 27.904C111.038 27.3173 111.118 26.7893 111.278 26.32C111.449 25.84 111.684 25.4293 111.982 25.088C112.292 24.7467 112.66 24.4853 113.086 24.304C113.524 24.112 114.004 24.016 114.526 24.016C115.188 24.016 115.764 24.1813 116.254 24.512C116.756 24.832 117.081 25.2587 117.23 25.792L117.07 26.192V25.056C117.07 24.7253 117.156 24.4747 117.326 24.304C117.508 24.1333 117.753 24.048 118.062 24.048C118.382 24.048 118.628 24.1333 118.798 24.304C118.969 24.4747 119.054 24.7253 119.054 25.056V31.216C119.054 32.4853 118.718 33.44 118.046 34.08C117.374 34.72 116.398 35.04 115.118 35.04ZM115.07 30.288C115.486 30.288 115.844 30.192 116.142 30C116.441 29.808 116.67 29.536 116.83 29.184C117.001 28.8213 117.086 28.3947 117.086 27.904C117.086 27.168 116.905 26.592 116.542 26.176C116.18 25.7493 115.689 25.536 115.07 25.536C114.654 25.536 114.297 25.632 113.998 25.824C113.7 26.016 113.465 26.288 113.294 26.64C113.134 26.992 113.054 27.4133 113.054 27.904C113.054 28.64 113.236 29.2213 113.598 29.648C113.961 30.0747 114.452 30.288 115.07 30.288ZM123.798 32.16C122.913 32.16 122.246 31.9093 121.798 31.408C121.35 30.896 121.126 30.1493 121.126 29.168V21.6C121.126 21.2693 121.212 21.0187 121.382 20.848C121.553 20.6773 121.798 20.592 122.118 20.592C122.438 20.592 122.684 20.6773 122.854 20.848C123.036 21.0187 123.126 21.2693 123.126 21.6V29.072C123.126 29.5627 123.228 29.9253 123.43 30.16C123.644 30.3947 123.942 30.512 124.326 30.512C124.412 30.512 124.492 30.512 124.566 30.512C124.641 30.5013 124.716 30.4907 124.79 30.48C124.94 30.4587 125.041 30.5013 125.094 30.608C125.148 30.704 125.174 30.9067 125.174 31.216C125.174 31.4827 125.121 31.6907 125.014 31.84C124.908 31.9893 124.732 32.08 124.486 32.112C124.38 32.1227 124.268 32.1333 124.15 32.144C124.033 32.1547 123.916 32.16 123.798 32.16ZM130.014 32.16C129.128 32.16 128.366 31.9947 127.726 31.664C127.086 31.3333 126.59 30.864 126.238 30.256C125.896 29.648 125.726 28.928 125.726 28.096C125.726 27.2853 125.891 26.576 126.222 25.968C126.563 25.36 127.027 24.8853 127.614 24.544C128.211 24.192 128.888 24.016 129.646 24.016C130.2 24.016 130.696 24.1067 131.134 24.288C131.582 24.4693 131.96 24.7307 132.27 25.072C132.59 25.4133 132.83 25.8293 132.99 26.32C133.16 26.8 133.246 27.344 133.246 27.952C133.246 28.144 133.176 28.2933 133.038 28.4C132.91 28.496 132.723 28.544 132.478 28.544H127.342V27.392H131.838L131.582 27.632C131.582 27.1413 131.507 26.7307 131.358 26.4C131.219 26.0693 131.011 25.8187 130.734 25.648C130.467 25.4667 130.131 25.376 129.726 25.376C129.278 25.376 128.894 25.4827 128.574 25.696C128.264 25.8987 128.024 26.192 127.854 26.576C127.694 26.9493 127.614 27.3973 127.614 27.92V28.032C127.614 28.9067 127.816 29.5627 128.222 30C128.638 30.4267 129.246 30.64 130.046 30.64C130.323 30.64 130.632 30.608 130.974 30.544C131.326 30.4693 131.656 30.3467 131.966 30.176C132.19 30.048 132.387 29.9947 132.558 30.016C132.728 30.0267 132.862 30.0853 132.958 30.192C133.064 30.2987 133.128 30.432 133.15 30.592C133.171 30.7413 133.139 30.896 133.054 31.056C132.979 31.216 132.846 31.3547 132.654 31.472C132.28 31.7067 131.848 31.8827 131.358 32C130.878 32.1067 130.43 32.16 130.014 32.16Z" fill="#444444"/>
<rect x="0.35" y="0.35" width="173.3" height="51.3" rx="7.65" stroke="#E2E2E2" stroke-width="0.7"/>
</svg>
