<svg width="189" height="68" viewBox="0 0 189 68" fill="none" xmlns="http://www.w3.org/2000/svg">
<rect x="1" y="1" width="187" height="66" rx="7" fill="black"/>
<path d="M15.7652 14.6181C15.313 15.0968 15.0455 15.84 15.0455 16.803V51.1969C15.0455 52.1606 15.313 52.9031 15.7652 53.3817L15.8803 53.4938L35.1471 34.2272V34V33.7727L15.8803 14.5052L15.7652 14.6181Z" fill="url(#paint0_linear_91_510)"/>
<path d="M41.569 40.6523L35.1471 34.2273V34.0001V33.7727L41.5705 27.3494L41.7152 27.4319L49.3243 31.7555C51.4978 32.9902 51.4978 35.0107 49.3243 36.2462L41.7152 40.5698L41.569 40.6523Z" fill="url(#paint1_linear_91_510)"/>
<path d="M41.7153 40.5689L35.1471 34.0001L15.7653 53.3818C16.4819 54.1403 17.6644 54.2342 18.9971 53.4773L41.7153 40.5689Z" fill="url(#paint2_linear_91_510)"/>
<path d="M41.7153 27.4311L18.9971 14.5227C17.6644 13.7658 16.4819 13.8598 15.7653 14.6182L35.1471 34.0001L41.7153 27.4311Z" fill="url(#paint3_linear_91_510)"/>
<path d="M71.7184 41.2C70.1584 41.2 68.8384 40.9067 67.7584 40.32C66.6918 39.7333 65.8784 38.9 65.3184 37.82C64.7584 36.74 64.4784 35.46 64.4784 33.98C64.4784 32.86 64.6384 31.8533 64.9584 30.96C65.2918 30.0667 65.7651 29.3067 66.3784 28.68C67.0051 28.04 67.7651 27.5533 68.6584 27.22C69.5518 26.8733 70.5651 26.7 71.6984 26.7C72.4451 26.7 73.1918 26.7933 73.9384 26.98C74.6984 27.1533 75.4118 27.4533 76.0784 27.88C76.3051 28.0267 76.4518 28.2067 76.5184 28.42C76.5984 28.6333 76.6118 28.8533 76.5584 29.08C76.5051 29.2933 76.4051 29.48 76.2584 29.64C76.1118 29.8 75.9251 29.9 75.6984 29.94C75.4851 29.98 75.2451 29.9267 74.9784 29.78C74.4718 29.4867 73.9584 29.2733 73.4384 29.14C72.9184 29.0067 72.3384 28.94 71.6984 28.94C70.7118 28.94 69.8784 29.14 69.1984 29.54C68.5184 29.9267 68.0051 30.4933 67.6584 31.24C67.3251 31.9867 67.1584 32.9 67.1584 33.98C67.1584 35.62 67.5518 36.8667 68.3384 37.72C69.1251 38.5733 70.2918 39 71.8384 39C72.3718 39 72.9118 38.9467 73.4584 38.84C74.0051 38.7333 74.5384 38.5867 75.0584 38.4L74.5584 39.54V35.28H72.3584C72.0251 35.28 71.7651 35.1933 71.5784 35.02C71.4051 34.8467 71.3184 34.6133 71.3184 34.32C71.3184 34.0133 71.4051 33.78 71.5784 33.62C71.7651 33.46 72.0251 33.38 72.3584 33.38H75.6584C75.9918 33.38 76.2451 33.4733 76.4184 33.66C76.6051 33.8333 76.6984 34.0867 76.6984 34.42V39.28C76.6984 39.5733 76.6384 39.82 76.5184 40.02C76.4118 40.22 76.2318 40.3667 75.9784 40.46C75.3918 40.6733 74.7184 40.8533 73.9584 41C73.1984 41.1333 72.4518 41.2 71.7184 41.2ZM83.885 41.2C82.8717 41.2 81.9917 40.9933 81.245 40.58C80.4983 40.1667 79.9183 39.58 79.505 38.82C79.0917 38.0467 78.885 37.14 78.885 36.1C78.885 35.3133 78.9983 34.6133 79.225 34C79.465 33.3733 79.805 32.84 80.245 32.4C80.685 31.9467 81.2117 31.6067 81.825 31.38C82.4383 31.14 83.125 31.02 83.885 31.02C84.8983 31.02 85.7783 31.2267 86.525 31.64C87.2717 32.0533 87.8517 32.64 88.265 33.4C88.6783 34.16 88.885 35.06 88.885 36.1C88.885 36.8867 88.765 37.5933 88.525 38.22C88.2983 38.8467 87.965 39.3867 87.525 39.84C87.085 40.28 86.5583 40.62 85.945 40.86C85.3317 41.0867 84.645 41.2 83.885 41.2ZM83.885 39.3C84.3783 39.3 84.8117 39.18 85.185 38.94C85.5583 38.7 85.845 38.3467 86.045 37.88C86.2583 37.4 86.365 36.8067 86.365 36.1C86.365 35.0333 86.1383 34.24 85.685 33.72C85.2317 33.1867 84.6317 32.92 83.885 32.92C83.3917 32.92 82.9583 33.04 82.585 33.28C82.2117 33.5067 81.9183 33.86 81.705 34.34C81.505 34.8067 81.405 35.3933 81.405 36.1C81.405 37.1533 81.6317 37.9533 82.085 38.5C82.5383 39.0333 83.1383 39.3 83.885 39.3ZM95.4084 41.2C94.3951 41.2 93.5151 40.9933 92.7684 40.58C92.0218 40.1667 91.4418 39.58 91.0284 38.82C90.6151 38.0467 90.4084 37.14 90.4084 36.1C90.4084 35.3133 90.5218 34.6133 90.7484 34C90.9884 33.3733 91.3284 32.84 91.7684 32.4C92.2084 31.9467 92.7351 31.6067 93.3484 31.38C93.9618 31.14 94.6484 31.02 95.4084 31.02C96.4218 31.02 97.3018 31.2267 98.0484 31.64C98.7951 32.0533 99.3751 32.64 99.7884 33.4C100.202 34.16 100.408 35.06 100.408 36.1C100.408 36.8867 100.288 37.5933 100.048 38.22C99.8218 38.8467 99.4884 39.3867 99.0484 39.84C98.6084 40.28 98.0818 40.62 97.4684 40.86C96.8551 41.0867 96.1684 41.2 95.4084 41.2ZM95.4084 39.3C95.9018 39.3 96.3351 39.18 96.7084 38.94C97.0818 38.7 97.3684 38.3467 97.5684 37.88C97.7818 37.4 97.8884 36.8067 97.8884 36.1C97.8884 35.0333 97.6618 34.24 97.2084 33.72C96.7551 33.1867 96.1551 32.92 95.4084 32.92C94.9151 32.92 94.4818 33.04 94.1084 33.28C93.7351 33.5067 93.4418 33.86 93.2284 34.34C93.0284 34.8067 92.9284 35.3933 92.9284 36.1C92.9284 37.1533 93.1551 37.9533 93.6084 38.5C94.0618 39.0333 94.6618 39.3 95.4084 39.3ZM107.032 44.8C106.312 44.8 105.612 44.7333 104.932 44.6C104.265 44.4667 103.659 44.26 103.112 43.98C102.859 43.8467 102.685 43.6867 102.592 43.5C102.512 43.3133 102.485 43.12 102.512 42.92C102.552 42.7333 102.632 42.5667 102.752 42.42C102.885 42.2733 103.045 42.1733 103.232 42.12C103.419 42.0667 103.612 42.0933 103.812 42.2C104.399 42.4933 104.952 42.68 105.472 42.76C106.005 42.8533 106.459 42.9 106.832 42.9C107.725 42.9 108.392 42.68 108.832 42.24C109.285 41.8133 109.512 41.1733 109.512 40.32V38.52H109.692C109.492 39.2 109.072 39.7467 108.432 40.16C107.805 40.56 107.092 40.76 106.292 40.76C105.412 40.76 104.645 40.56 103.992 40.16C103.339 39.7467 102.832 39.1733 102.472 38.44C102.112 37.7067 101.932 36.8533 101.932 35.88C101.932 35.1467 102.032 34.4867 102.232 33.9C102.445 33.3 102.739 32.7867 103.112 32.36C103.499 31.9333 103.959 31.6067 104.492 31.38C105.039 31.14 105.639 31.02 106.292 31.02C107.119 31.02 107.839 31.2267 108.452 31.64C109.079 32.04 109.485 32.5733 109.672 33.24L109.472 33.74V32.32C109.472 31.9067 109.579 31.5933 109.792 31.38C110.019 31.1667 110.325 31.06 110.712 31.06C111.112 31.06 111.419 31.1667 111.632 31.38C111.845 31.5933 111.952 31.9067 111.952 32.32V40.02C111.952 41.6067 111.532 42.8 110.692 43.6C109.852 44.4 108.632 44.8 107.032 44.8ZM106.972 38.86C107.492 38.86 107.939 38.74 108.312 38.5C108.685 38.26 108.972 37.92 109.172 37.48C109.385 37.0267 109.492 36.4933 109.492 35.88C109.492 34.96 109.265 34.24 108.812 33.72C108.359 33.1867 107.745 32.92 106.972 32.92C106.452 32.92 106.005 33.04 105.632 33.28C105.259 33.52 104.965 33.86 104.752 34.3C104.552 34.74 104.452 35.2667 104.452 35.88C104.452 36.8 104.679 37.5267 105.132 38.06C105.585 38.5933 106.199 38.86 106.972 38.86ZM117.882 41.2C116.776 41.2 115.942 40.8867 115.382 40.26C114.822 39.62 114.542 38.6867 114.542 37.46V28C114.542 27.5867 114.649 27.2733 114.862 27.06C115.076 26.8467 115.382 26.74 115.782 26.74C116.182 26.74 116.489 26.8467 116.702 27.06C116.929 27.2733 117.042 27.5867 117.042 28V37.34C117.042 37.9533 117.169 38.4067 117.422 38.7C117.689 38.9933 118.062 39.14 118.542 39.14C118.649 39.14 118.749 39.14 118.842 39.14C118.936 39.1267 119.029 39.1133 119.122 39.1C119.309 39.0733 119.436 39.1267 119.502 39.26C119.569 39.38 119.602 39.6333 119.602 40.02C119.602 40.3533 119.536 40.6133 119.402 40.8C119.269 40.9867 119.049 41.1 118.742 41.14C118.609 41.1533 118.469 41.1667 118.322 41.18C118.176 41.1933 118.029 41.2 117.882 41.2ZM125.651 41.2C124.545 41.2 123.591 40.9933 122.791 40.58C121.991 40.1667 121.371 39.58 120.931 38.82C120.505 38.06 120.291 37.16 120.291 36.12C120.291 35.1067 120.498 34.22 120.911 33.46C121.338 32.7 121.918 32.1067 122.651 31.68C123.398 31.24 124.245 31.02 125.191 31.02C125.885 31.02 126.505 31.1333 127.051 31.36C127.611 31.5867 128.085 31.9133 128.471 32.34C128.871 32.7667 129.171 33.2867 129.371 33.9C129.585 34.5 129.691 35.18 129.691 35.94C129.691 36.18 129.605 36.3667 129.431 36.5C129.271 36.62 129.038 36.68 128.731 36.68H122.311V35.24H127.931L127.611 35.54C127.611 34.9267 127.518 34.4133 127.331 34C127.158 33.5867 126.898 33.2733 126.551 33.06C126.218 32.8333 125.798 32.72 125.291 32.72C124.731 32.72 124.251 32.8533 123.851 33.12C123.465 33.3733 123.165 33.74 122.951 34.22C122.751 34.6867 122.651 35.2467 122.651 35.9V36.04C122.651 37.1333 122.905 37.9533 123.411 38.5C123.931 39.0333 124.691 39.3 125.691 39.3C126.038 39.3 126.425 39.26 126.851 39.18C127.291 39.0867 127.705 38.9333 128.091 38.72C128.371 38.56 128.618 38.4933 128.831 38.52C129.045 38.5333 129.211 38.6067 129.331 38.74C129.465 38.8733 129.545 39.04 129.571 39.24C129.598 39.4267 129.558 39.62 129.451 39.82C129.358 40.02 129.191 40.1933 128.951 40.34C128.485 40.6333 127.945 40.8533 127.331 41C126.731 41.1333 126.171 41.2 125.651 41.2ZM138.621 41.16C138.207 41.16 137.887 41.0467 137.661 40.82C137.447 40.58 137.341 40.2533 137.341 39.84V28.2C137.341 27.7733 137.454 27.4533 137.681 27.24C137.907 27.0133 138.227 26.9 138.641 26.9H143.461C145.007 26.9 146.201 27.2867 147.041 28.06C147.881 28.8333 148.301 29.9133 148.301 31.3C148.301 32.6867 147.881 33.7733 147.041 34.56C146.201 35.3333 145.007 35.72 143.461 35.72H139.901V39.84C139.901 40.2533 139.794 40.58 139.581 40.82C139.367 41.0467 139.047 41.16 138.621 41.16ZM139.901 33.7H143.061C143.967 33.7 144.654 33.5 145.121 33.1C145.587 32.6867 145.821 32.0867 145.821 31.3C145.821 30.5133 145.587 29.92 145.121 29.52C144.654 29.12 143.967 28.92 143.061 28.92H139.901V33.7ZM153.488 41.2C152.381 41.2 151.548 40.8867 150.988 40.26C150.428 39.62 150.148 38.6867 150.148 37.46V28C150.148 27.5867 150.254 27.2733 150.468 27.06C150.681 26.8467 150.988 26.74 151.388 26.74C151.788 26.74 152.094 26.8467 152.308 27.06C152.534 27.2733 152.648 27.5867 152.648 28V37.34C152.648 37.9533 152.774 38.4067 153.028 38.7C153.294 38.9933 153.668 39.14 154.148 39.14C154.254 39.14 154.354 39.14 154.448 39.14C154.541 39.1267 154.634 39.1133 154.728 39.1C154.914 39.0733 155.041 39.1267 155.108 39.26C155.174 39.38 155.208 39.6333 155.208 40.02C155.208 40.3533 155.141 40.6133 155.008 40.8C154.874 40.9867 154.654 41.1 154.348 41.14C154.214 41.1533 154.074 41.1667 153.928 41.18C153.781 41.1933 153.634 41.2 153.488 41.2ZM159.754 41.2C159.048 41.2 158.414 41.0667 157.854 40.8C157.308 40.52 156.874 40.1467 156.554 39.68C156.248 39.2133 156.094 38.6867 156.094 38.1C156.094 37.38 156.281 36.8133 156.654 36.4C157.028 35.9733 157.634 35.6667 158.474 35.48C159.314 35.2933 160.441 35.2 161.854 35.2H162.854V36.64H161.874C161.048 36.64 160.388 36.68 159.894 36.76C159.401 36.84 159.048 36.98 158.834 37.18C158.634 37.3667 158.534 37.6333 158.534 37.98C158.534 38.42 158.688 38.78 158.994 39.06C159.301 39.34 159.728 39.48 160.274 39.48C160.714 39.48 161.101 39.38 161.434 39.18C161.781 38.9667 162.054 38.68 162.254 38.32C162.454 37.96 162.554 37.5467 162.554 37.08V34.78C162.554 34.1133 162.408 33.6333 162.114 33.34C161.821 33.0467 161.328 32.9 160.634 32.9C160.248 32.9 159.828 32.9467 159.374 33.04C158.934 33.1333 158.468 33.2933 157.974 33.52C157.721 33.64 157.494 33.6733 157.294 33.62C157.108 33.5667 156.961 33.46 156.854 33.3C156.748 33.1267 156.694 32.94 156.694 32.74C156.694 32.54 156.748 32.3467 156.854 32.16C156.961 31.96 157.141 31.8133 157.394 31.72C158.008 31.4667 158.594 31.2867 159.154 31.18C159.728 31.0733 160.248 31.02 160.714 31.02C161.674 31.02 162.461 31.1667 163.074 31.46C163.701 31.7533 164.168 32.2 164.474 32.8C164.781 33.3867 164.934 34.1467 164.934 35.08V39.88C164.934 40.2933 164.834 40.6133 164.634 40.84C164.434 41.0533 164.148 41.16 163.774 41.16C163.401 41.16 163.108 41.0533 162.894 40.84C162.694 40.6133 162.594 40.2933 162.594 39.88V38.92H162.754C162.661 39.3867 162.474 39.7933 162.194 40.14C161.928 40.4733 161.588 40.7333 161.174 40.92C160.761 41.1067 160.288 41.2 159.754 41.2ZM169.854 44.76C169.561 44.76 169.321 44.68 169.134 44.52C168.948 44.3733 168.834 44.1733 168.794 43.92C168.768 43.6667 168.814 43.4 168.934 43.12L170.294 40.1V41.14L166.654 32.72C166.534 32.4267 166.494 32.1533 166.534 31.9C166.574 31.6467 166.694 31.4467 166.894 31.3C167.108 31.14 167.394 31.06 167.754 31.06C168.061 31.06 168.308 31.1333 168.494 31.28C168.681 31.4133 168.848 31.6733 168.994 32.06L171.694 38.8H171.094L173.854 32.04C174.001 31.6667 174.174 31.4133 174.374 31.28C174.574 31.1333 174.841 31.06 175.174 31.06C175.468 31.06 175.701 31.14 175.874 31.3C176.048 31.4467 176.154 31.6467 176.194 31.9C176.234 32.14 176.188 32.4067 176.054 32.7L171.194 43.8C171.021 44.1733 170.834 44.4267 170.634 44.56C170.434 44.6933 170.174 44.76 169.854 44.76Z" fill="white"/>
<rect x="1" y="1" width="187" height="66" rx="7" stroke="white" stroke-width="2"/>
<defs>
<linearGradient id="paint0_linear_91_510" x1="33.4385" y1="16.4404" x2="7.33931" y2="42.5395" gradientUnits="userSpaceOnUse">
<stop stop-color="#00A0FF"/>
<stop offset="0.0066" stop-color="#00A2FF"/>
<stop offset="0.2601" stop-color="#00BEFF"/>
<stop offset="0.5122" stop-color="#00D2FF"/>
<stop offset="0.7604" stop-color="#00DFFF"/>
<stop offset="1" stop-color="#00E3FF"/>
</linearGradient>
<linearGradient id="paint1_linear_91_510" x1="52.1542" y1="34.0008" x2="14.5244" y2="34.0008" gradientUnits="userSpaceOnUse">
<stop stop-color="#FFE000"/>
<stop offset="0.4087" stop-color="#FFBD00"/>
<stop offset="0.7754" stop-color="#FFA600"/>
<stop offset="1" stop-color="#FF9C00"/>
</linearGradient>
<linearGradient id="paint2_linear_91_510" x1="38.1463" y1="37.5694" x2="2.75374" y2="72.962" gradientUnits="userSpaceOnUse">
<stop stop-color="#FF3743"/>
<stop offset="1" stop-color="#E30864"/>
</linearGradient>
<linearGradient id="paint3_linear_91_510" x1="10.8851" y1="3.16945" x2="26.6894" y2="18.9737" gradientUnits="userSpaceOnUse">
<stop stop-color="#00A06F"/>
<stop offset="0.0685" stop-color="#00A86E"/>
<stop offset="0.4762" stop-color="#00CF6E"/>
<stop offset="0.8009" stop-color="#00E76D"/>
<stop offset="1" stop-color="#00EF6D"/>
</linearGradient>
</defs>
</svg>
