<svg width="153" height="55" viewBox="0 0 153 55" fill="none" xmlns="http://www.w3.org/2000/svg">
<rect x="1" y="1" width="150.868" height="53" rx="7" fill="black"/>
<path d="M18.4398 15.3778C18.1634 15.6703 18 16.1245 18 16.713V37.7316C18 38.3205 18.1635 38.7742 18.4398 39.0667L18.5101 39.1353L30.2843 27.3612V27.2223V27.0834L18.5101 15.3088L18.4398 15.3778Z" fill="url(#paint0_linear_81_96)"/>
<path d="M34.2088 31.2875L30.2843 27.3611V27.2223V27.0834L34.2097 23.158L34.2982 23.2084L38.9482 25.8506C40.2764 26.6052 40.2764 27.8399 38.9482 28.595L34.2982 31.2371L34.2088 31.2875Z" fill="url(#paint1_linear_81_96)"/>
<path d="M34.2982 31.2365L30.2843 27.2222L18.4398 39.0666C18.8778 39.5301 19.6004 39.5875 20.4148 39.125L34.2982 31.2365Z" fill="url(#paint2_linear_81_96)"/>
<path d="M34.2982 23.2079L20.4148 15.3194C19.6004 14.8569 18.8778 14.9143 18.4398 15.3778L30.2843 27.2223L34.2982 23.2079Z" fill="url(#paint3_linear_81_96)"/>
<path d="M61.1472 32.14C60.0552 32.14 59.1312 31.9347 58.3752 31.524C57.6286 31.1133 57.0592 30.53 56.6672 29.774C56.2752 29.018 56.0792 28.122 56.0792 27.086C56.0792 26.302 56.1912 25.5973 56.4152 24.972C56.6486 24.3467 56.9799 23.8147 57.4092 23.376C57.8479 22.928 58.3799 22.5873 59.0052 22.354C59.6306 22.1113 60.3399 21.99 61.1332 21.99C61.6559 21.99 62.1786 22.0553 62.7012 22.186C63.2332 22.3073 63.7326 22.5173 64.1992 22.816C64.3579 22.9187 64.4606 23.0447 64.5072 23.194C64.5632 23.3433 64.5726 23.4973 64.5352 23.656C64.4979 23.8053 64.4279 23.936 64.3252 24.048C64.2226 24.16 64.0919 24.23 63.9332 24.258C63.7839 24.286 63.6159 24.2487 63.4292 24.146C63.0746 23.9407 62.7152 23.7913 62.3512 23.698C61.9872 23.6047 61.5812 23.558 61.1332 23.558C60.4426 23.558 59.8592 23.698 59.3832 23.978C58.9072 24.2487 58.5479 24.6453 58.3052 25.168C58.0719 25.6907 57.9552 26.33 57.9552 27.086C57.9552 28.234 58.2306 29.1067 58.7812 29.704C59.3319 30.3013 60.1486 30.6 61.2312 30.6C61.6046 30.6 61.9826 30.5627 62.3652 30.488C62.7479 30.4133 63.1212 30.3107 63.4852 30.18L63.1352 30.978V27.996H61.5952C61.3619 27.996 61.1799 27.9353 61.0492 27.814C60.9279 27.6927 60.8672 27.5293 60.8672 27.324C60.8672 27.1093 60.9279 26.946 61.0492 26.834C61.1799 26.722 61.3619 26.666 61.5952 26.666H63.9052C64.1386 26.666 64.3159 26.7313 64.4372 26.862C64.5679 26.9833 64.6332 27.1607 64.6332 27.394V30.796C64.6332 31.0013 64.5912 31.174 64.5072 31.314C64.4326 31.454 64.3066 31.5567 64.1292 31.622C63.7186 31.7713 63.2472 31.8973 62.7152 32C62.1832 32.0933 61.6606 32.14 61.1472 32.14ZM69.6638 32.14C68.9545 32.14 68.3385 31.9953 67.8158 31.706C67.2932 31.4167 66.8872 31.006 66.5978 30.474C66.3085 29.9327 66.1638 29.298 66.1638 28.57C66.1638 28.0193 66.2432 27.5293 66.4018 27.1C66.5698 26.6613 66.8078 26.288 67.1158 25.98C67.4238 25.6627 67.7925 25.4247 68.2218 25.266C68.6512 25.098 69.1318 25.014 69.6638 25.014C70.3732 25.014 70.9892 25.1587 71.5118 25.448C72.0345 25.7373 72.4405 26.148 72.7298 26.68C73.0192 27.212 73.1638 27.842 73.1638 28.57C73.1638 29.1207 73.0798 29.6153 72.9118 30.054C72.7532 30.4927 72.5198 30.8707 72.2118 31.188C71.9038 31.496 71.5352 31.734 71.1058 31.902C70.6765 32.0607 70.1958 32.14 69.6638 32.14ZM69.6638 30.81C70.0092 30.81 70.3125 30.726 70.5738 30.558C70.8352 30.39 71.0358 30.1427 71.1758 29.816C71.3252 29.48 71.3998 29.0647 71.3998 28.57C71.3998 27.8233 71.2412 27.268 70.9238 26.904C70.6065 26.5307 70.1865 26.344 69.6638 26.344C69.3185 26.344 69.0152 26.428 68.7538 26.596C68.4925 26.7547 68.2872 27.002 68.1378 27.338C67.9978 27.6647 67.9278 28.0753 67.9278 28.57C67.9278 29.3073 68.0865 29.8673 68.4038 30.25C68.7212 30.6233 69.1412 30.81 69.6638 30.81ZM77.7302 32.14C77.0209 32.14 76.4049 31.9953 75.8822 31.706C75.3596 31.4167 74.9536 31.006 74.6642 30.474C74.3749 29.9327 74.2302 29.298 74.2302 28.57C74.2302 28.0193 74.3096 27.5293 74.4682 27.1C74.6362 26.6613 74.8742 26.288 75.1822 25.98C75.4902 25.6627 75.8589 25.4247 76.2882 25.266C76.7176 25.098 77.1982 25.014 77.7302 25.014C78.4396 25.014 79.0556 25.1587 79.5782 25.448C80.1009 25.7373 80.5069 26.148 80.7962 26.68C81.0856 27.212 81.2302 27.842 81.2302 28.57C81.2302 29.1207 81.1462 29.6153 80.9782 30.054C80.8196 30.4927 80.5862 30.8707 80.2782 31.188C79.9702 31.496 79.6016 31.734 79.1722 31.902C78.7429 32.0607 78.2622 32.14 77.7302 32.14ZM77.7302 30.81C78.0756 30.81 78.3789 30.726 78.6402 30.558C78.9016 30.39 79.1022 30.1427 79.2422 29.816C79.3916 29.48 79.4662 29.0647 79.4662 28.57C79.4662 27.8233 79.3076 27.268 78.9902 26.904C78.6729 26.5307 78.2529 26.344 77.7302 26.344C77.3849 26.344 77.0816 26.428 76.8202 26.596C76.5589 26.7547 76.3536 27.002 76.2042 27.338C76.0642 27.6647 75.9942 28.0753 75.9942 28.57C75.9942 29.3073 76.1529 29.8673 76.4702 30.25C76.7876 30.6233 77.2076 30.81 77.7302 30.81ZM85.8666 34.66C85.3626 34.66 84.8726 34.6133 84.3966 34.52C83.93 34.4267 83.5053 34.282 83.1226 34.086C82.9453 33.9927 82.824 33.8807 82.7586 33.75C82.7026 33.6193 82.684 33.484 82.7026 33.344C82.7306 33.2133 82.7866 33.0967 82.8706 32.994C82.964 32.8913 83.076 32.8213 83.2066 32.784C83.3373 32.7467 83.4726 32.7653 83.6126 32.84C84.0233 33.0453 84.4106 33.176 84.7746 33.232C85.148 33.2973 85.4653 33.33 85.7266 33.33C86.352 33.33 86.8186 33.176 87.1266 32.868C87.444 32.5693 87.6026 32.1213 87.6026 31.524V30.264H87.7286C87.5886 30.74 87.2946 31.1227 86.8466 31.412C86.408 31.692 85.9086 31.832 85.3486 31.832C84.7326 31.832 84.196 31.692 83.7386 31.412C83.2813 31.1227 82.9266 30.7213 82.6746 30.208C82.4226 29.6947 82.2966 29.0973 82.2966 28.416C82.2966 27.9027 82.3666 27.4407 82.5066 27.03C82.656 26.61 82.8613 26.2507 83.1226 25.952C83.3933 25.6533 83.7153 25.4247 84.0886 25.266C84.4713 25.098 84.8913 25.014 85.3486 25.014C85.9273 25.014 86.4313 25.1587 86.8606 25.448C87.2993 25.728 87.584 26.1013 87.7146 26.568L87.5746 26.918V25.924C87.5746 25.6347 87.6493 25.4153 87.7986 25.266C87.9573 25.1167 88.172 25.042 88.4426 25.042C88.7226 25.042 88.9373 25.1167 89.0866 25.266C89.236 25.4153 89.3106 25.6347 89.3106 25.924V31.314C89.3106 32.4247 89.0166 33.26 88.4286 33.82C87.8406 34.38 86.9866 34.66 85.8666 34.66ZM85.8246 30.502C86.1886 30.502 86.5013 30.418 86.7626 30.25C87.024 30.082 87.2246 29.844 87.3646 29.536C87.514 29.2187 87.5886 28.8453 87.5886 28.416C87.5886 27.772 87.43 27.268 87.1126 26.904C86.7953 26.5307 86.366 26.344 85.8246 26.344C85.4606 26.344 85.148 26.428 84.8866 26.596C84.6253 26.764 84.42 27.002 84.2706 27.31C84.1306 27.618 84.0606 27.9867 84.0606 28.416C84.0606 29.06 84.2193 29.5687 84.5366 29.942C84.854 30.3153 85.2833 30.502 85.8246 30.502ZM93.4619 32.14C92.6872 32.14 92.1039 31.9207 91.7119 31.482C91.3199 31.034 91.1239 30.3807 91.1239 29.522V22.9C91.1239 22.6107 91.1985 22.3913 91.3479 22.242C91.4972 22.0927 91.7119 22.018 91.9919 22.018C92.2719 22.018 92.4865 22.0927 92.6359 22.242C92.7945 22.3913 92.8739 22.6107 92.8739 22.9V29.438C92.8739 29.8673 92.9625 30.1847 93.1399 30.39C93.3265 30.5953 93.5879 30.698 93.9239 30.698C93.9985 30.698 94.0685 30.698 94.1339 30.698C94.1992 30.6887 94.2645 30.6793 94.3299 30.67C94.4605 30.6513 94.5492 30.6887 94.5959 30.782C94.6425 30.866 94.6659 31.0433 94.6659 31.314C94.6659 31.5473 94.6192 31.7293 94.5259 31.86C94.4325 31.9907 94.2785 32.07 94.0639 32.098C93.9705 32.1073 93.8725 32.1167 93.7699 32.126C93.6672 32.1353 93.5645 32.14 93.4619 32.14ZM98.9002 32.14C98.1255 32.14 97.4582 31.9953 96.8982 31.706C96.3382 31.4167 95.9042 31.006 95.5962 30.474C95.2975 29.942 95.1482 29.312 95.1482 28.584C95.1482 27.8747 95.2929 27.254 95.5822 26.722C95.8809 26.19 96.2869 25.7747 96.8002 25.476C97.3229 25.168 97.9155 25.014 98.5782 25.014C99.0635 25.014 99.4975 25.0933 99.8802 25.252C100.272 25.4107 100.604 25.6393 100.874 25.938C101.154 26.2367 101.364 26.6007 101.504 27.03C101.654 27.45 101.728 27.926 101.728 28.458C101.728 28.626 101.668 28.7567 101.546 28.85C101.434 28.934 101.271 28.976 101.056 28.976H96.5622V27.968H100.496L100.272 28.178C100.272 27.7487 100.207 27.3893 100.076 27.1C99.9549 26.8107 99.7729 26.5913 99.5302 26.442C99.2969 26.2833 99.0029 26.204 98.6482 26.204C98.2562 26.204 97.9202 26.2973 97.6402 26.484C97.3695 26.6613 97.1595 26.918 97.0102 27.254C96.8702 27.5807 96.8002 27.9727 96.8002 28.43V28.528C96.8002 29.2933 96.9775 29.8673 97.3322 30.25C97.6962 30.6233 98.2282 30.81 98.9282 30.81C99.1709 30.81 99.4415 30.782 99.7402 30.726C100.048 30.6607 100.338 30.5533 100.608 30.404C100.804 30.292 100.977 30.2453 101.126 30.264C101.276 30.2733 101.392 30.3247 101.476 30.418C101.57 30.5113 101.626 30.628 101.644 30.768C101.663 30.8987 101.635 31.034 101.56 31.174C101.495 31.314 101.378 31.4353 101.21 31.538C100.884 31.7433 100.506 31.8973 100.076 32C99.6562 32.0933 99.2642 32.14 98.9002 32.14ZM107.979 32.112C107.69 32.112 107.466 32.0327 107.307 31.874C107.158 31.706 107.083 31.4773 107.083 31.188V23.04C107.083 22.7413 107.162 22.5173 107.321 22.368C107.48 22.2093 107.704 22.13 107.993 22.13H111.367C112.45 22.13 113.285 22.4007 113.873 22.942C114.461 23.4833 114.755 24.2393 114.755 25.21C114.755 26.1807 114.461 26.9413 113.873 27.492C113.285 28.0333 112.45 28.304 111.367 28.304H108.875V31.188C108.875 31.4773 108.8 31.706 108.651 31.874C108.502 32.0327 108.278 32.112 107.979 32.112ZM108.875 26.89H111.087C111.722 26.89 112.202 26.75 112.529 26.47C112.856 26.1807 113.019 25.7607 113.019 25.21C113.019 24.6593 112.856 24.244 112.529 23.964C112.202 23.684 111.722 23.544 111.087 23.544H108.875V26.89ZM118.386 32.14C117.611 32.14 117.028 31.9207 116.636 31.482C116.244 31.034 116.048 30.3807 116.048 29.522V22.9C116.048 22.6107 116.122 22.3913 116.272 22.242C116.421 22.0927 116.636 22.018 116.916 22.018C117.196 22.018 117.41 22.0927 117.56 22.242C117.718 22.3913 117.798 22.6107 117.798 22.9V29.438C117.798 29.8673 117.886 30.1847 118.064 30.39C118.25 30.5953 118.512 30.698 118.848 30.698C118.922 30.698 118.992 30.698 119.058 30.698C119.123 30.6887 119.188 30.6793 119.254 30.67C119.384 30.6513 119.473 30.6887 119.52 30.782C119.566 30.866 119.59 31.0433 119.59 31.314C119.59 31.5473 119.543 31.7293 119.45 31.86C119.356 31.9907 119.202 32.07 118.988 32.098C118.894 32.1073 118.796 32.1167 118.694 32.126C118.591 32.1353 118.488 32.14 118.386 32.14ZM122.772 32.14C122.278 32.14 121.834 32.0467 121.442 31.86C121.06 31.664 120.756 31.4027 120.532 31.076C120.318 30.7493 120.21 30.3807 120.21 29.97C120.21 29.466 120.341 29.0693 120.602 28.78C120.864 28.4813 121.288 28.2667 121.876 28.136C122.464 28.0053 123.253 27.94 124.242 27.94H124.942V28.948H124.256C123.678 28.948 123.216 28.976 122.87 29.032C122.525 29.088 122.278 29.186 122.128 29.326C121.988 29.4567 121.918 29.6433 121.918 29.886C121.918 30.194 122.026 30.446 122.24 30.642C122.455 30.838 122.754 30.936 123.136 30.936C123.444 30.936 123.715 30.866 123.948 30.726C124.191 30.5767 124.382 30.376 124.522 30.124C124.662 29.872 124.732 29.5827 124.732 29.256V27.646C124.732 27.1793 124.63 26.8433 124.424 26.638C124.219 26.4327 123.874 26.33 123.388 26.33C123.118 26.33 122.824 26.3627 122.506 26.428C122.198 26.4933 121.872 26.6053 121.526 26.764C121.349 26.848 121.19 26.8713 121.05 26.834C120.92 26.7967 120.817 26.722 120.742 26.61C120.668 26.4887 120.63 26.358 120.63 26.218C120.63 26.078 120.668 25.9427 120.742 25.812C120.817 25.672 120.943 25.5693 121.12 25.504C121.55 25.3267 121.96 25.2007 122.352 25.126C122.754 25.0513 123.118 25.014 123.444 25.014C124.116 25.014 124.667 25.1167 125.096 25.322C125.535 25.5273 125.862 25.84 126.076 26.26C126.291 26.6707 126.398 27.2027 126.398 27.856V31.216C126.398 31.5053 126.328 31.7293 126.188 31.888C126.048 32.0373 125.848 32.112 125.586 32.112C125.325 32.112 125.12 32.0373 124.97 31.888C124.83 31.7293 124.76 31.5053 124.76 31.216V30.544H124.872C124.807 30.8707 124.676 31.1553 124.48 31.398C124.294 31.6313 124.056 31.8133 123.766 31.944C123.477 32.0747 123.146 32.14 122.772 32.14ZM129.842 34.632C129.637 34.632 129.469 34.576 129.338 34.464C129.208 34.3613 129.128 34.2213 129.1 34.044C129.082 33.8667 129.114 33.68 129.198 33.484L130.15 31.37V32.098L127.602 26.204C127.518 25.9987 127.49 25.8073 127.518 25.63C127.546 25.4527 127.63 25.3127 127.77 25.21C127.92 25.098 128.12 25.042 128.372 25.042C128.587 25.042 128.76 25.0933 128.89 25.196C129.021 25.2893 129.138 25.4713 129.24 25.742L131.13 30.46H130.71L132.642 25.728C132.745 25.4667 132.866 25.2893 133.006 25.196C133.146 25.0933 133.333 25.042 133.566 25.042C133.772 25.042 133.935 25.098 134.056 25.21C134.178 25.3127 134.252 25.4527 134.28 25.63C134.308 25.798 134.276 25.9847 134.182 26.19L130.78 33.96C130.659 34.2213 130.528 34.3987 130.388 34.492C130.248 34.5853 130.066 34.632 129.842 34.632Z" fill="white"/>
<rect x="1" y="1" width="150.868" height="53" rx="7" stroke="white" stroke-width="2"/>
<defs>
<linearGradient id="paint0_linear_81_96" x1="29.2402" y1="16.4914" x2="13.2906" y2="32.4409" gradientUnits="userSpaceOnUse">
<stop stop-color="#00A0FF"/>
<stop offset="0.0066" stop-color="#00A2FF"/>
<stop offset="0.2601" stop-color="#00BEFF"/>
<stop offset="0.5122" stop-color="#00D2FF"/>
<stop offset="0.7604" stop-color="#00DFFF"/>
<stop offset="1" stop-color="#00E3FF"/>
</linearGradient>
<linearGradient id="paint1_linear_81_96" x1="40.6776" y1="27.2227" x2="17.6815" y2="27.2227" gradientUnits="userSpaceOnUse">
<stop stop-color="#FFE000"/>
<stop offset="0.4087" stop-color="#FFBD00"/>
<stop offset="0.7754" stop-color="#FFA600"/>
<stop offset="1" stop-color="#FF9C00"/>
</linearGradient>
<linearGradient id="paint2_linear_81_96" x1="32.1172" y1="29.4034" x2="10.4883" y2="51.0323" gradientUnits="userSpaceOnUse">
<stop stop-color="#FF3743"/>
<stop offset="1" stop-color="#E30864"/>
</linearGradient>
<linearGradient id="paint3_linear_81_96" x1="15.4575" y1="8.38131" x2="25.1157" y2="18.0395" gradientUnits="userSpaceOnUse">
<stop stop-color="#00A06F"/>
<stop offset="0.0685" stop-color="#00A86E"/>
<stop offset="0.4762" stop-color="#00CF6E"/>
<stop offset="0.8009" stop-color="#00E76D"/>
<stop offset="1" stop-color="#00EF6D"/>
</linearGradient>
</defs>
</svg>
