<svg width="437" height="352" viewBox="0 0 437 352" fill="none" xmlns="http://www.w3.org/2000/svg">
<path d="M127.007 351.999C197.151 351.999 254.014 347.552 254.014 342.065C254.014 336.579 197.151 332.131 127.007 332.131C56.863 332.131 0 336.579 0 342.065C0 347.552 56.863 351.999 127.007 351.999Z" fill="url(#paint0_radial_91_245)"/>
<path d="M50.4501 80.7364H48.5907C48.2729 80.7364 48.0151 80.4788 48.0151 80.1608V68.1496C48.0151 67.8318 48.2727 67.574 48.5907 67.574H50.4501C50.7679 67.574 51.0256 67.8315 51.0256 68.1496V80.1608C51.0256 80.4788 50.7679 80.7364 50.4501 80.7364Z" fill="#060606"/>
<path d="M50.2207 118.187H48.8198C48.3754 118.187 48.0151 117.826 48.0151 117.382V93.2572C48.0151 92.8128 48.3754 92.4525 48.8198 92.4525H50.2207C50.6652 92.4525 51.0254 92.8128 51.0254 93.2572V117.382C51.0254 117.826 50.6649 118.187 50.2207 118.187Z" fill="#060606"/>
<path d="M50.2207 150.944H48.8198C48.3754 150.944 48.0151 150.584 48.0151 150.14V126.015C48.0151 125.571 48.3754 125.21 48.8198 125.21H50.2207C50.6652 125.21 51.0254 125.571 51.0254 126.015V150.14C51.0254 150.584 50.6649 150.944 50.2207 150.944Z" fill="#060606"/>
<path opacity="0.43" d="M49.0998 103.711C48.6719 103.711 48.3252 103.365 48.3252 102.937V93.6407C48.3252 93.2128 48.6719 92.8661 49.0998 92.8661C49.5276 92.8661 49.8743 93.2128 49.8743 93.6407V102.937C49.8743 103.364 49.5276 103.711 49.0998 103.711Z" fill="url(#paint1_linear_91_245)"/>
<path opacity="0.43" d="M49.0998 78.6857C48.6719 78.6857 48.3252 78.339 48.3252 77.9111V68.6149C48.3252 68.1871 48.6719 67.8403 49.0998 67.8403C49.5276 67.8403 49.8743 68.1871 49.8743 68.6149V77.9111C49.8743 78.3387 49.5276 78.6857 49.0998 78.6857Z" fill="url(#paint2_linear_91_245)"/>
<path opacity="0.43" d="M49.609 136.41H48.5908C48.444 136.41 48.3252 136.291 48.3252 136.145V126.34C48.3252 125.912 48.6719 125.565 49.0998 125.565C49.5276 125.565 49.8743 125.912 49.8743 126.34V136.145C49.8743 136.291 49.7555 136.41 49.609 136.41Z" fill="url(#paint3_linear_91_245)"/>
<path d="M209.278 30.4633V314.904C209.278 326.864 199.52 336.591 187.523 336.591H77.4733C65.4846 336.591 55.7192 326.864 55.7192 314.904V30.4633C55.7192 18.5113 65.4846 8.77588 77.4733 8.77588H187.523C199.52 8.77588 209.278 18.5111 209.278 30.4633Z" fill="url(#paint4_linear_91_245)"/>
<path d="M187.604 2H77.9691C62.2572 2 49.52 14.737 49.52 30.4491V314.704C49.52 330.416 62.2572 343.153 77.9691 343.153H187.604C203.316 343.153 216.053 330.416 216.053 314.704V30.4491C216.053 14.737 203.316 2 187.604 2ZM209.277 314.704C209.277 326.654 199.555 336.377 187.605 336.377H77.9689C66.0183 336.377 56.2959 326.655 56.2959 314.704V30.4491C56.2959 18.4986 66.0183 8.77568 77.9689 8.77568H187.605C199.555 8.77568 209.277 18.4986 209.277 30.4491V314.704Z" fill="#060606"/>
<g opacity="0.08">
<path d="M187.604 2H77.9691C62.2572 2 49.52 14.737 49.52 30.4491V314.704C49.52 330.416 62.2572 343.153 77.9691 343.153H187.604C203.316 343.153 216.053 330.416 216.053 314.704V30.4491C216.053 14.737 203.316 2 187.604 2ZM209.277 314.704C209.277 326.654 199.555 336.377 187.605 336.377H77.9689C66.0183 336.377 56.2959 326.655 56.2959 314.704V30.4491C56.2959 18.4986 66.0183 8.77568 77.9689 8.77568H187.605C199.555 8.77568 209.277 18.4986 209.277 30.4491V314.704Z" stroke="#D6D6D6" stroke-width="3.3598" stroke-miterlimit="10"/>
</g>
<path d="M156.604 20.5341C156.604 22.6456 155.751 24.55 154.373 25.9286C152.986 27.3072 151.082 28.1596 148.978 28.1596H116.596C112.389 28.1596 108.971 24.7492 108.971 20.5341C108.971 20.3268 108.979 20.1198 108.995 19.9125C109.146 18.048 109.959 16.3826 111.202 15.1397C112.588 13.7613 114.493 12.9087 116.596 12.9087H148.979C152.979 12.9087 156.261 15.9844 156.58 19.9125C156.596 20.1198 156.604 20.3268 156.604 20.5341Z" fill="#191919"/>
<path d="M156.58 19.9125C156.429 21.7771 155.616 23.4424 154.373 24.6854C152.986 26.0718 151.082 26.9244 148.978 26.9244H116.596C112.596 26.9244 109.313 23.8409 108.995 19.9125C109.146 18.048 109.959 16.3826 111.202 15.1397C112.588 13.7613 114.492 12.9087 116.596 12.9087H148.979C152.978 12.9087 156.261 15.9844 156.58 19.9125Z" fill="black"/>
<path d="M216.529 160.701H215.578C215.009 160.701 214.548 160.24 214.548 159.671V119.588C214.548 119.02 215.009 118.559 215.578 118.559H216.529C217.098 118.559 217.559 119.02 217.559 119.588V159.671C217.559 160.24 217.098 160.701 216.529 160.701Z" fill="#060606"/>
<path opacity="0.39" d="M59.8419 16.6378C64.0117 11.1779 70.5841 7.64636 77.9688 7.64636H187.605C194.99 7.64636 201.562 11.1779 205.732 16.6378H211.162C206.409 8.5637 197.632 3.12964 187.604 3.12964H77.9688C67.9417 3.12964 59.1643 8.5637 54.4121 16.6378H59.8419Z" fill="url(#paint5_linear_91_245)"/>
<path opacity="0.43" d="M59.8419 328.558C64.0117 334.018 70.5841 337.549 77.9688 337.549H187.605C194.99 337.549 201.562 334.018 205.732 328.558H211.162C206.409 336.632 197.632 342.066 187.604 342.066H77.9688C67.9417 342.066 59.1643 336.632 54.4121 328.558H59.8419Z" fill="url(#paint6_linear_91_245)"/>
<path opacity="0.39" d="M54.0056 28.1611H51.084V314.819H54.0056V28.1611Z" fill="url(#paint7_linear_91_245)"/>
<path opacity="0.39" d="M211.044 323.484H214.88V36.8257H211.044V323.484Z" fill="url(#paint8_linear_91_245)"/>
<path opacity="0.39" d="M148.325 25.4916C145.586 25.4916 143.367 23.2718 143.367 20.5338C143.367 17.7955 145.587 15.5759 148.325 15.5759C151.063 15.5759 153.282 17.7958 153.282 20.5338C153.282 23.2718 151.063 25.4916 148.325 25.4916Z" fill="url(#paint9_radial_91_245)"/>
<path opacity="0.44" d="M148.324 23.5289C146.673 23.5289 145.329 22.1846 145.329 20.5328C145.329 18.881 146.673 17.5372 148.324 17.5372C149.977 17.5372 151.321 18.881 151.321 20.5328C151.32 22.1846 149.977 23.5289 148.324 23.5289Z" fill="url(#paint10_radial_91_245)"/>
<path d="M51.1157 26.4335C52.3691 16.0345 59.9917 6.93177 70.9945 3.54749C62.5801 5.8968 52.3139 18.7414 51.1157 26.4335Z" fill="url(#paint11_radial_91_245)"/>
<path d="M213.825 26.4335C213.321 15.3007 205.45 6.35476 193.946 3.54749C202.964 5.55149 213.372 18.2856 213.825 26.4335Z" fill="url(#paint12_radial_91_245)"/>
<path d="M87.2788 93.4974C87.2788 85.4487 90.998 80.4204 97.1435 80.4204C103.272 80.4204 106.973 85.4136 106.973 93.4801C106.973 101.546 103.306 106.627 97.1435 106.627C90.9629 106.627 87.2788 101.581 87.2788 93.4974ZM102.416 93.4974C102.416 87.614 100.443 84.1047 97.1435 84.1047C93.8259 84.1047 91.8183 87.6486 91.8183 93.4804C91.8183 99.4163 93.7913 102.943 97.1435 102.943C100.478 102.943 102.416 99.4338 102.416 93.4974Z" fill="#EFEFEF"/>
<path d="M110.192 99.818H114.661C115.22 101.721 117.018 102.978 119.218 102.978C122.937 102.978 125.172 99.4862 125.102 93.3929C125.102 93.3929 125.085 93.3929 125.067 93.3929H125.05H125.032C124.055 95.8546 121.471 97.5135 118.205 97.5135C113.422 97.5135 109.842 93.9692 109.842 89.1851C109.842 84.0871 113.806 80.4031 119.253 80.4031C122.954 80.4031 125.957 82.1839 127.634 85.3965C128.821 87.4569 129.432 90.0932 129.432 93.2358C129.432 101.634 125.608 106.627 119.148 106.627C114.522 106.627 110.908 103.868 110.192 99.818ZM124.334 89.1154C124.334 86.3044 122.134 84.1047 119.306 84.1047C116.495 84.1047 114.278 86.287 114.278 89.0455C114.278 91.8914 116.407 93.9867 119.271 93.9867C122.151 93.9867 124.334 91.8914 124.334 89.1154Z" fill="#EFEFEF"/>
<path d="M133.244 87.3172C133.244 85.9206 134.344 84.8031 135.758 84.8031C137.154 84.8031 138.255 85.9206 138.255 87.3172C138.255 88.7139 137.155 89.8314 135.758 89.8314C134.344 89.8314 133.244 88.7139 133.244 87.3172ZM133.244 99.9226C133.244 98.5259 134.344 97.4084 135.758 97.4084C137.154 97.4084 138.255 98.5259 138.255 99.9226C138.255 101.337 137.155 102.437 135.758 102.437C134.344 102.437 133.244 101.337 133.244 99.9226Z" fill="#EFEFEF"/>
<path d="M154.425 101.354H141.854V97.4786C144.037 93.3579 146.847 88.8708 152.312 80.9269H158.72V97.6707H162.107V101.354H158.72V106.121H154.425V101.354ZM145.94 97.7755H154.495V84.2621H154.425C150.357 90.1631 147.947 93.8823 145.94 97.6534V97.7755Z" fill="#EFEFEF"/>
<path d="M171.296 85.2221H171.191L164.679 89.7965V85.5537L171.261 80.9269H175.714V106.121H171.296V85.2221Z" fill="#EFEFEF"/>
<path d="M110.686 65.8671V65.8448H107.318V65.0083H111.664V65.8671L108.889 71.3946H107.849L110.686 65.8671Z" fill="#EFEFEF"/>
<path d="M120.019 71.3946V66.6945H119.988L118.063 71.3457H117.328L115.399 66.6945H115.367V71.3946H114.465V65.0083H115.611L117.678 70.0492H117.713L119.775 65.0083H120.926V71.3943H120.019V71.3946Z" fill="#EFEFEF"/>
<path d="M121.779 69.0665C121.779 67.5705 122.66 66.6543 123.987 66.6543C125.315 66.6543 126.196 67.5705 126.196 69.0665C126.196 70.5667 125.319 71.4827 123.987 71.4827C122.655 71.4824 121.779 70.5665 121.779 69.0665ZM125.222 69.0665C125.222 68.0351 124.735 67.4422 123.987 67.4422C123.239 67.4422 122.753 68.0351 122.753 69.0665C122.753 70.1021 123.239 70.695 123.987 70.695C124.74 70.695 125.222 70.1021 125.222 69.0665Z" fill="#EFEFEF"/>
<path d="M126.934 66.7386H127.846V67.5175H127.868C128.121 66.9867 128.616 66.6592 129.333 66.6592C130.36 66.6592 130.948 67.314 130.948 68.3807V71.3943H129.988V68.5662C129.988 67.867 129.66 67.4824 128.997 67.4824C128.324 67.4824 127.89 67.9603 127.89 68.6815V71.3943H126.934V66.7386Z" fill="#EFEFEF"/>
<path d="M148.724 64.8889C149.942 64.8889 150.849 65.6633 150.849 66.6766C150.849 67.4201 150.45 67.9734 149.517 68.9294L147.919 70.5359V70.5583H150.951V71.3947H146.582V70.7221L148.888 68.3721C149.667 67.562 149.871 67.2259 149.871 66.7255C149.871 66.1589 149.357 65.7076 148.693 65.7076C147.994 65.7076 147.467 66.2123 147.467 66.8758V66.8891H146.529V66.8801C146.529 65.7297 147.454 64.8889 148.724 64.8889Z" fill="#EFEFEF"/>
<path d="M153.445 65.9906H153.423L151.754 67.1769V66.2031L153.437 65.0083H154.414V71.3943H153.445V65.9906Z" fill="#EFEFEF"/>
<path d="M155.613 66.2608C155.613 65.5263 156.189 64.9464 156.924 64.9464C157.658 64.9464 158.238 65.526 158.238 66.2608C158.238 66.9955 157.658 67.5751 156.924 67.5751C156.189 67.5751 155.613 66.9952 155.613 66.2608ZM157.605 66.2608C157.605 65.8846 157.304 65.5839 156.927 65.5839C156.57 65.5839 156.251 65.8846 156.251 66.2608C156.251 66.6281 156.565 66.9376 156.927 66.9376C157.304 66.9378 157.605 66.6281 157.605 66.2608Z" fill="#EFEFEF"/>
<path d="M138.592 69.7133C139.677 69.7133 140.556 68.8341 140.556 67.7496C140.556 66.6651 139.677 65.7859 138.592 65.7859C137.508 65.7859 136.628 66.6651 136.628 67.7496C136.628 68.8341 137.508 69.7133 138.592 69.7133Z" fill="#EFEFEF"/>
<path d="M138.592 65.133C138.346 65.133 138.147 64.934 138.147 64.6883V63.7989C138.147 63.5535 138.346 63.3542 138.592 63.3542C138.838 63.3542 139.037 63.5532 139.037 63.7989V64.6883C139.037 64.9337 138.838 65.133 138.592 65.133Z" fill="#EFEFEF"/>
<path d="M136.427 66.0297C136.314 66.0297 136.2 65.9863 136.113 65.8995L135.484 65.2708C135.311 65.0972 135.311 64.8156 135.484 64.642C135.658 64.4684 135.939 64.4684 136.113 64.642L136.742 65.2708C136.915 65.4444 136.915 65.7259 136.742 65.8995C136.655 65.986 136.541 66.0297 136.427 66.0297Z" fill="#EFEFEF"/>
<path d="M135.531 68.1942H134.642C134.396 68.1942 134.197 67.9952 134.197 67.7495C134.197 67.5038 134.396 67.3048 134.642 67.3048H135.531C135.777 67.3048 135.976 67.5038 135.976 67.7495C135.976 67.9952 135.777 68.1942 135.531 68.1942Z" fill="#EFEFEF"/>
<path d="M135.799 70.9868C135.685 70.9868 135.571 70.9434 135.484 70.8566C135.311 70.683 135.311 70.4015 135.484 70.2279L136.113 69.5992C136.287 69.4256 136.568 69.4256 136.742 69.5992C136.915 69.7728 136.915 70.0543 136.742 70.2279L136.113 70.8566C136.026 70.9434 135.913 70.9868 135.799 70.9868Z" fill="#EFEFEF"/>
<path d="M138.592 72.1441C138.346 72.1441 138.147 71.9451 138.147 71.6994V70.81C138.147 70.5646 138.346 70.3654 138.592 70.3654C138.838 70.3654 139.037 70.5643 139.037 70.81V71.6994C139.037 71.9448 138.838 72.1441 138.592 72.1441Z" fill="#EFEFEF"/>
<path d="M141.385 70.9868C141.272 70.9868 141.158 70.9434 141.071 70.8566L140.442 70.2279C140.269 70.0543 140.269 69.7728 140.442 69.5992C140.616 69.4256 140.897 69.4256 141.071 69.5992L141.7 70.2279C141.873 70.4015 141.873 70.683 141.7 70.8566C141.613 70.9434 141.499 70.9868 141.385 70.9868Z" fill="#EFEFEF"/>
<path d="M142.543 68.1942H141.653C141.407 68.1942 141.208 67.9952 141.208 67.7495C141.208 67.5038 141.407 67.3048 141.653 67.3048H142.543C142.788 67.3048 142.987 67.5038 142.987 67.7495C142.987 67.9952 142.788 68.1942 142.543 68.1942Z" fill="#EFEFEF"/>
<path d="M140.757 66.0297C140.643 66.0297 140.529 65.9863 140.442 65.8995C140.269 65.7259 140.269 65.4444 140.442 65.2708L141.071 64.642C141.245 64.4684 141.526 64.4684 141.7 64.642C141.873 64.8156 141.873 65.0972 141.7 65.2708L141.071 65.8995C140.984 65.986 140.87 66.0297 140.757 66.0297Z" fill="#EFEFEF"/>
<path d="M68.4341 21.6656C68.4341 21.0661 68.8574 20.587 69.48 20.4568V20.4404C68.9587 20.297 68.6229 19.8895 68.6229 19.3846C68.6229 18.671 69.291 18.1466 70.213 18.1466C71.1387 18.1466 71.8001 18.6679 71.8001 19.3881C71.8001 19.8867 71.4678 20.2908 70.9466 20.4407V20.457C71.5722 20.5875 71.9924 21.0694 71.9924 21.6658C71.9924 22.4641 71.2561 23.0245 70.2133 23.0245C69.1641 23.0243 68.4341 22.4606 68.4341 21.6656ZM71.2361 21.6134C71.2361 21.128 70.8123 20.7824 70.2128 20.7824C69.6132 20.7824 69.1864 21.131 69.1864 21.6134C69.1864 22.0925 69.6132 22.4378 70.2128 22.4378C70.8126 22.4378 71.2361 22.0925 71.2361 21.6134ZM71.0798 19.4626C71.0798 19.0326 70.7215 18.7265 70.213 18.7265C69.7015 18.7265 69.3467 19.0326 69.3467 19.4626C69.3467 19.8895 69.7015 20.1959 70.213 20.1959C70.7184 20.1962 71.0798 19.8895 71.0798 19.4626Z" fill="#EFEFEF"/>
<path d="M72.7319 19.4074C72.7319 19.1692 72.9209 18.9805 73.1588 18.9805C73.3965 18.9805 73.5857 19.1692 73.5857 19.4074C73.5857 19.6485 73.3967 19.8342 73.1588 19.8342C72.9212 19.8342 72.7319 19.6485 72.7319 19.4074ZM72.7319 21.7828C72.7319 21.5451 72.9209 21.3559 73.1588 21.3559C73.3965 21.3559 73.5857 21.5449 73.5857 21.7828C73.5857 22.0209 73.3967 22.2096 73.1588 22.2096C72.9212 22.2094 72.7319 22.0209 72.7319 21.7828Z" fill="#EFEFEF"/>
<path d="M75.98 18.1465C76.8765 18.1465 77.5441 18.7164 77.5441 19.4627C77.5441 20.0101 77.2512 20.4175 76.5637 21.1214L75.3871 22.3041V22.3205H77.6193V22.9364H74.4031V22.4412L76.1007 20.7111C76.6742 20.1147 76.8243 19.8673 76.8243 19.4988C76.8243 19.0816 76.446 18.7493 75.9575 18.7493C75.4429 18.7493 75.0549 19.121 75.0549 19.6095V19.6193H74.3638V19.6131C74.364 18.7655 75.0451 18.1465 75.98 18.1465Z" fill="#EFEFEF"/>
<path d="M78.29 21.6299H78.9873C79.0395 22.0957 79.4403 22.4152 79.9651 22.4152C80.558 22.4152 80.9685 22.0011 80.9685 21.4113C80.9685 20.8219 80.558 20.3981 79.9713 20.3981C79.5643 20.3981 79.2121 20.5838 79.0297 20.8933H78.3617L78.6095 18.2345H81.4085V18.8504H79.1957L79.0653 20.2938H79.0817C79.2871 19.9973 79.6715 19.818 80.1309 19.818C81.0335 19.818 81.6817 20.4795 81.6817 21.3918C81.6817 22.3563 80.9716 23.0244 79.9582 23.0244C79.02 23.0244 78.3325 22.451 78.29 21.6299Z" fill="#EFEFEF"/>
<path opacity="0.19" d="M158.847 325.006H106.72C106.174 325.006 105.732 324.564 105.732 324.019V323.866C105.732 323.321 106.174 322.879 106.72 322.879H158.847C159.392 322.879 159.834 323.321 159.834 323.866V324.019C159.834 324.564 159.392 325.006 158.847 325.006Z" fill="#EFEFEF"/>
<path d="M169.294 23.8086C169.008 23.8086 168.776 23.5769 168.776 23.2914V22.5609C168.776 22.2752 169.008 22.0437 169.294 22.0437C169.579 22.0437 169.811 22.2754 169.811 22.5609V23.2914C169.811 23.5769 169.579 23.8086 169.294 23.8086Z" fill="#EFEFEF"/>
<path d="M171.13 23.8091C170.844 23.8091 170.612 23.5773 170.612 23.2918V21.7246C170.612 21.4389 170.844 21.2074 171.13 21.2074C171.415 21.2074 171.647 21.4391 171.647 21.7246V23.2918C171.647 23.5773 171.415 23.8091 171.13 23.8091Z" fill="#EFEFEF"/>
<path d="M172.966 23.8087C172.68 23.8087 172.449 23.577 172.449 23.2914V20.7911C172.449 20.5053 172.68 20.2738 172.966 20.2738C173.252 20.2738 173.483 20.5055 173.483 20.7911V23.2914C173.483 23.577 173.251 23.8087 172.966 23.8087Z" fill="#EFEFEF"/>
<path d="M174.802 23.8086C174.516 23.8086 174.285 23.5769 174.285 23.2914V19.9052C174.285 19.6194 174.516 19.3879 174.802 19.3879C175.088 19.3879 175.319 19.6196 175.319 19.9052V23.2914C175.319 23.5769 175.087 23.8086 174.802 23.8086Z" fill="#EFEFEF"/>
<path d="M179.368 22.7911L180.356 23.81L181.345 22.7937C181.099 22.5295 180.747 22.3638 180.356 22.3638C179.966 22.3638 179.616 22.5281 179.368 22.7911Z" fill="#EFEFEF"/>
<path d="M178.372 21.7654L179.007 22.42C179.348 22.0666 179.826 21.8463 180.356 21.8463C180.886 21.8463 181.366 22.0669 181.707 22.4229L182.343 21.7683C181.838 21.2534 181.134 20.9342 180.356 20.9342C179.58 20.9342 178.876 21.2518 178.372 21.7654Z" fill="#EFEFEF"/>
<path d="M180.356 19.3879C179.159 19.3879 178.078 19.8727 177.294 20.656L177.968 21.349C178.577 20.7355 179.422 20.3548 180.356 20.3548C181.292 20.3548 182.138 20.7369 182.747 21.3533L183.421 20.6603C182.638 19.8741 181.555 19.3879 180.356 19.3879Z" fill="#EFEFEF"/>
<path d="M191.048 23.0869H186.751C186.415 23.0869 186.143 22.8149 186.143 22.479V20.7198C186.143 20.3842 186.415 20.1119 186.751 20.1119H191.048C191.384 20.1119 191.656 20.384 191.656 20.7198V22.479C191.656 22.8146 191.384 23.0869 191.048 23.0869Z" fill="#EFEFEF"/>
<path d="M192.977 23.7791H186.247C185.745 23.7791 185.336 23.3705 185.336 22.8684V20.3787C185.336 19.8766 185.745 19.468 186.247 19.468H192.977C193.479 19.468 193.888 19.8766 193.888 20.3787V22.8684C193.888 23.3705 193.479 23.7791 192.977 23.7791ZM186.247 19.7417C185.896 19.7417 185.61 20.0272 185.61 20.3785V22.8682C185.61 23.2194 185.896 23.505 186.247 23.505H192.977C193.328 23.505 193.614 23.2194 193.614 22.8682V20.3785C193.614 20.0272 193.328 19.7417 192.977 19.7417H186.247Z" fill="#EFEFEF"/>
<path d="M194.391 22.3639H194.197V20.9343H194.391C194.661 20.9343 194.879 21.153 194.879 21.4224V21.8758C194.879 22.1453 194.661 22.3639 194.391 22.3639Z" fill="#EFEFEF"/>
<path d="M317.44 352C383.396 352 436.864 347.818 436.864 342.659C436.864 337.5 383.396 333.318 317.44 333.318C251.484 333.318 198.017 337.5 198.017 342.659C198.017 347.818 251.484 352 317.44 352Z" fill="url(#paint13_radial_91_245)"/>
<path d="M245.454 96.9334H243.706C243.407 96.9334 243.165 96.691 243.165 96.3922V85.0981C243.165 84.7993 243.407 84.5569 243.706 84.5569H245.454C245.753 84.5569 245.996 84.7993 245.996 85.0981V96.3922C245.996 96.6912 245.753 96.9334 245.454 96.9334Z" fill="#060606"/>
<path d="M245.239 132.148H243.922C243.504 132.148 243.165 131.809 243.165 131.391V108.707C243.165 108.289 243.504 107.951 243.922 107.951H245.239C245.657 107.951 245.995 108.289 245.995 108.707V131.391C245.995 131.809 245.657 132.148 245.239 132.148Z" fill="#060606"/>
<path d="M245.239 162.949H243.922C243.504 162.949 243.165 162.611 243.165 162.193V139.508C243.165 139.091 243.504 138.752 243.922 138.752H245.239C245.657 138.752 245.995 139.091 245.995 139.508V162.193C245.995 162.611 245.657 162.949 245.239 162.949Z" fill="#060606"/>
<path opacity="0.43" d="M244.185 118.537C243.782 118.537 243.456 118.21 243.456 117.808V109.067C243.456 108.665 243.782 108.339 244.185 108.339C244.587 108.339 244.913 108.665 244.913 109.067V117.808C244.913 118.21 244.587 118.537 244.185 118.537Z" fill="url(#paint14_linear_91_245)"/>
<path opacity="0.43" d="M244.185 95.0053C243.782 95.0053 243.456 94.6792 243.456 94.277V85.5359C243.456 85.1337 243.782 84.8076 244.185 84.8076C244.587 84.8076 244.913 85.1337 244.913 85.5359V94.277C244.913 94.6792 244.587 95.0053 244.185 95.0053Z" fill="url(#paint15_linear_91_245)"/>
<path opacity="0.43" d="M244.663 149.283H243.706C243.568 149.283 243.456 149.171 243.456 149.033V139.814C243.456 139.411 243.782 139.085 244.185 139.085C244.587 139.085 244.913 139.411 244.913 139.814V149.033C244.913 149.171 244.801 149.283 244.663 149.283Z" fill="url(#paint16_linear_91_245)"/>
<path d="M394.799 49.6618V317.119C394.799 328.365 385.624 337.511 374.343 337.511H270.864C259.591 337.511 250.409 328.365 250.409 317.119V49.6618C250.409 38.4235 259.591 29.2693 270.864 29.2693H374.343C385.624 29.2693 394.799 38.4235 394.799 49.6618Z" fill="url(#paint17_linear_91_245)"/>
<path d="M374.42 22.8982H271.331C256.557 22.8982 244.581 34.8748 244.581 49.6485V316.931C244.581 331.705 256.557 343.681 271.331 343.681H374.42C389.194 343.681 401.171 331.705 401.171 316.931V49.6487C401.171 34.8748 389.194 22.8982 374.42 22.8982ZM394.799 316.931C394.799 328.168 385.657 337.31 374.42 337.31H271.331C260.094 337.31 250.952 328.168 250.952 316.931V49.6487C250.952 38.4116 260.094 29.2695 271.331 29.2695H374.42C385.658 29.2695 394.799 38.4118 394.799 49.6487V316.931Z" fill="#060606"/>
<g opacity="0.08">
<path d="M374.42 22.8982H271.331C256.557 22.8982 244.581 34.8748 244.581 49.6485V316.931C244.581 331.705 256.557 343.681 271.331 343.681H374.42C389.194 343.681 401.171 331.705 401.171 316.931V49.6487C401.171 34.8748 389.194 22.8982 374.42 22.8982ZM394.799 316.931C394.799 328.168 385.657 337.31 374.42 337.31H271.331C260.094 337.31 250.952 328.168 250.952 316.931V49.6487C250.952 38.4116 260.094 29.2695 271.331 29.2695H374.42C385.658 29.2695 394.799 38.4118 394.799 49.6487V316.931Z" stroke="#D6D6D6" stroke-width="3.1592" stroke-miterlimit="10"/>
</g>
<path d="M345.27 40.3254C345.27 42.3109 344.469 44.1014 343.172 45.3978C341.869 46.6941 340.078 47.4957 338.1 47.4957H307.651C303.695 47.4957 300.481 44.289 300.481 40.3256C300.481 40.1309 300.489 39.9359 300.503 39.7412C300.646 37.9879 301.41 36.4222 302.579 35.2534C303.883 33.9574 305.673 33.1555 307.651 33.1555H338.1C341.861 33.1555 344.948 36.0475 345.248 39.7412C345.263 39.9357 345.27 40.1307 345.27 40.3254Z" fill="#191919"/>
<path d="M345.248 39.7412C345.105 41.4946 344.341 43.0603 343.172 44.229C341.869 45.5327 340.078 46.3343 338.1 46.3343H307.651C303.89 46.3343 300.803 43.4348 300.503 39.741C300.646 37.9877 301.41 36.4219 302.579 35.2532C303.882 33.9571 305.673 33.1553 307.651 33.1553H338.1C341.861 33.1555 344.948 36.0474 345.248 39.7412Z" fill="black"/>
<path d="M401.617 172.123H400.723C400.188 172.123 399.755 171.69 399.755 171.155V133.465C399.755 132.931 400.188 132.497 400.723 132.497H401.617C402.152 132.497 402.585 132.931 402.585 133.465V171.155C402.585 171.69 402.152 172.123 401.617 172.123Z" fill="#060606"/>
<path opacity="0.39" d="M254.286 36.6619C258.207 31.5279 264.387 28.2074 271.331 28.2074H374.421C381.364 28.2074 387.545 31.5281 391.465 36.6619H396.571C392.102 29.0697 383.849 23.9603 374.42 23.9603H271.331C261.902 23.9603 253.649 29.0697 249.18 36.6619H254.286Z" fill="url(#paint18_linear_91_245)"/>
<path opacity="0.43" d="M254.286 329.958C258.207 335.092 264.387 338.412 271.331 338.412H374.421C381.364 338.412 387.545 335.091 391.465 329.958H396.571C392.102 337.55 383.849 342.659 374.42 342.659H271.331C261.902 342.659 253.649 337.55 249.18 329.958H254.286Z" fill="url(#paint19_linear_91_245)"/>
<path opacity="0.39" d="M248.798 47.4973H246.051V317.04H248.798V47.4973Z" fill="url(#paint20_linear_91_245)"/>
<path opacity="0.39" d="M396.46 325.187H400.067V55.6443H396.46V325.187Z" fill="url(#paint21_linear_91_245)"/>
<path opacity="0.39" d="M337.485 44.9869C334.91 44.9869 332.823 42.8997 332.823 40.3251C332.823 37.7505 334.91 35.6632 337.485 35.6632C340.06 35.6632 342.147 37.7505 342.147 40.3251C342.147 42.8997 340.06 44.9869 337.485 44.9869Z" fill="url(#paint22_radial_91_245)"/>
<path opacity="0.44" d="M337.485 43.1418C335.933 43.1418 334.669 41.878 334.669 40.3248C334.669 38.7716 335.933 37.5081 337.485 37.5081C339.039 37.5081 340.302 38.7716 340.302 40.3248C340.302 41.878 339.039 43.1418 337.485 43.1418Z" fill="url(#paint23_radial_91_245)"/>
<path d="M246.081 45.8729C247.259 36.0948 254.427 27.5356 264.773 24.3534C256.86 26.5623 247.207 38.6402 246.081 45.8729Z" fill="url(#paint24_radial_91_245)"/>
<path d="M399.075 45.8729C398.602 35.4049 391.201 26.993 380.383 24.3534C388.863 26.2376 398.65 38.2114 399.075 45.8729Z" fill="url(#paint25_radial_91_245)"/>
<path d="M280.085 108.927C280.085 101.355 283.584 96.6239 289.366 96.6239C295.131 96.6239 298.614 101.322 298.614 108.911C298.614 116.5 295.164 121.279 289.366 121.279C283.551 121.279 280.085 116.532 280.085 108.927ZM294.326 108.927C294.326 103.392 292.471 100.09 289.366 100.09C286.245 100.09 284.356 103.424 284.356 108.911C284.356 114.495 286.212 117.813 289.366 117.813C292.503 117.814 294.326 114.512 294.326 108.927Z" fill="#EFEFEF"/>
<path d="M301.63 114.874H305.835C306.36 116.664 308.052 117.847 310.122 117.847C313.621 117.847 315.724 114.562 315.657 108.829C315.657 108.829 315.641 108.829 315.625 108.829H315.608H315.592C314.672 111.145 312.241 112.706 309.169 112.706C304.668 112.706 301.301 109.371 301.301 104.87C301.301 100.074 305.029 96.6083 310.154 96.6083C313.637 96.6083 316.462 98.2836 318.039 101.306C319.155 103.244 319.731 105.724 319.731 108.681C319.731 116.582 316.133 121.28 310.056 121.28C305.703 121.28 302.303 118.685 301.63 114.874ZM314.934 104.805C314.934 102.16 312.865 100.091 310.204 100.091C307.559 100.091 305.473 102.144 305.473 104.739C305.473 107.417 307.478 109.388 310.172 109.388C312.882 109.388 314.934 107.417 314.934 104.805Z" fill="#EFEFEF"/>
<path d="M323.306 103.113C323.306 101.799 324.341 100.747 325.671 100.747C326.985 100.747 328.02 101.799 328.02 103.113C328.02 104.427 326.985 105.478 325.671 105.478C324.34 105.478 323.306 104.427 323.306 103.113ZM323.306 114.972C323.306 113.658 324.341 112.607 325.671 112.607C326.985 112.607 328.02 113.658 328.02 114.972C328.02 116.303 326.985 117.338 325.671 117.338C324.34 117.338 323.306 116.303 323.306 114.972Z" fill="#EFEFEF"/>
<path d="M343.228 116.319H331.401V112.673C333.455 108.796 336.099 104.575 341.241 97.1007H347.269V112.853H350.456V116.319H347.269V120.804H343.228V116.319ZM335.246 112.952H343.294V100.238H343.228C339.401 105.79 337.134 109.289 335.246 112.837V112.952Z" fill="#EFEFEF"/>
<path d="M359.091 101.141H358.992L352.865 105.445V101.454L359.057 97.1007H363.246V120.804H359.091V101.141Z" fill="#EFEFEF"/>
<path d="M302.09 82.955V82.9344H298.926V82.1484H303.009V82.955L300.403 88.1486H299.425L302.09 82.955Z" fill="#EFEFEF"/>
<path d="M310.864 88.1489V83.7329H310.836L309.027 88.1028H308.336L306.523 83.7329H306.495V88.1489H305.646V82.1487H306.723L308.665 86.8848H308.698L310.636 82.1487H311.718V88.1489H310.864Z" fill="#EFEFEF"/>
<path d="M312.524 85.9618C312.524 84.5563 313.352 83.6959 314.599 83.6959C315.846 83.6959 316.674 84.5566 316.674 85.9618C316.674 87.3714 315.851 88.2323 314.599 88.2323C313.348 88.2323 312.524 87.3712 312.524 85.9618ZM315.759 85.9618C315.759 84.993 315.302 84.4359 314.599 84.4359C313.896 84.4359 313.439 84.993 313.439 85.9618C313.439 86.9348 313.896 87.4919 314.599 87.4919C315.306 87.4919 315.759 86.9348 315.759 85.9618Z" fill="#EFEFEF"/>
<path d="M317.371 83.7745H318.228V84.5064H318.248C318.485 84.0072 318.951 83.6996 319.624 83.6996C320.589 83.6996 321.142 84.315 321.142 85.3173V88.149H320.24V85.4921C320.24 84.8349 319.932 84.473 319.308 84.473C318.677 84.473 318.269 84.9224 318.269 85.6002V88.149H317.371V83.7745Z" fill="#EFEFEF"/>
<path d="M337.859 82.0359C339.002 82.0359 339.855 82.7637 339.855 83.7159C339.855 84.4146 339.481 84.9345 338.603 85.8324L337.102 87.3419V87.3625H339.951V88.1485H335.846V87.5162L338.013 85.3082C338.745 84.5477 338.936 84.2313 338.936 83.7617C338.936 83.2295 338.454 82.8055 337.83 82.8055C337.173 82.8055 336.678 83.2793 336.678 83.9031V83.9154H335.796V83.9073C335.796 82.8261 336.665 82.0359 337.859 82.0359Z" fill="#EFEFEF"/>
<path d="M342.299 83.0719H342.278L340.711 84.1861V83.2714L342.291 82.1484H343.21V88.1486H342.299V83.0719Z" fill="#EFEFEF"/>
<path d="M344.338 83.3257C344.338 82.6351 344.879 82.0903 345.569 82.0903C346.26 82.0903 346.804 82.6351 346.804 83.3257C346.804 84.0158 346.26 84.5606 345.569 84.5606C344.879 84.5606 344.338 84.0158 344.338 83.3257ZM346.21 83.3257C346.21 82.9721 345.927 82.6892 345.573 82.6892C345.236 82.6892 344.937 82.9721 344.937 83.3257C344.937 83.6708 345.232 83.9618 345.573 83.9618C345.927 83.9618 346.21 83.6708 346.21 83.3257Z" fill="#EFEFEF"/>
<path d="M328.332 86.5689C329.352 86.5689 330.179 85.7422 330.179 84.7224C330.179 83.7026 329.352 82.8759 328.332 82.8759C327.313 82.8759 326.486 83.7026 326.486 84.7224C326.486 85.7422 327.313 86.5689 328.332 86.5689Z" fill="#EFEFEF"/>
<path d="M328.333 82.2625C328.102 82.2625 327.915 82.0754 327.915 81.8444V81.0082C327.915 80.7772 328.101 80.5901 328.333 80.5901C328.564 80.5901 328.751 80.7772 328.751 81.0082V81.8444C328.751 82.0754 328.564 82.2625 328.333 82.2625Z" fill="#EFEFEF"/>
<path d="M326.297 83.1056C326.19 83.1056 326.083 83.0648 326.002 82.9833L325.411 82.392C325.247 82.2286 325.247 81.9642 325.411 81.8008C325.574 81.6374 325.838 81.6374 326.002 81.8008L326.593 82.392C326.757 82.5554 326.757 82.8199 326.593 82.9833C326.511 83.0648 326.404 83.1056 326.297 83.1056Z" fill="#EFEFEF"/>
<path d="M325.455 85.1408H324.618C324.387 85.1408 324.2 84.9537 324.2 84.7227C324.2 84.4917 324.387 84.3046 324.618 84.3046H325.455C325.686 84.3046 325.873 84.4917 325.873 84.7227C325.873 84.9537 325.686 85.1408 325.455 85.1408Z" fill="#EFEFEF"/>
<path d="M325.706 87.7671C325.599 87.7671 325.492 87.7263 325.411 87.6447C325.247 87.4813 325.247 87.2169 325.411 87.0535L326.002 86.4623C326.165 86.2989 326.43 86.2989 326.593 86.4623C326.757 86.6257 326.757 86.8901 326.593 87.0535L326.002 87.6447C325.92 87.7263 325.813 87.7671 325.706 87.7671Z" fill="#EFEFEF"/>
<path d="M328.333 88.855C328.102 88.855 327.915 88.6678 327.915 88.4368V87.6006C327.915 87.3696 328.101 87.1825 328.333 87.1825C328.564 87.1825 328.751 87.3696 328.751 87.6006V88.4368C328.751 88.6678 328.564 88.855 328.333 88.855Z" fill="#EFEFEF"/>
<path d="M330.959 87.7671C330.852 87.7671 330.745 87.7263 330.664 87.6447L330.072 87.0535C329.909 86.8901 329.909 86.6257 330.072 86.4623C330.236 86.2989 330.5 86.2989 330.664 86.4623L331.255 87.0535C331.418 87.2169 331.418 87.4813 331.255 87.6447C331.173 87.7263 331.066 87.7671 330.959 87.7671Z" fill="#EFEFEF"/>
<path d="M332.047 85.1408H331.211C330.98 85.1408 330.792 84.9537 330.792 84.7227C330.792 84.4917 330.979 84.3046 331.211 84.3046H332.047C332.278 84.3046 332.465 84.4917 332.465 84.7227C332.465 84.9537 332.278 85.1408 332.047 85.1408Z" fill="#EFEFEF"/>
<path d="M330.368 83.1056C330.261 83.1056 330.154 83.0648 330.072 82.9833C329.909 82.8199 329.909 82.5554 330.072 82.392L330.664 81.8008C330.827 81.6374 331.091 81.6374 331.255 81.8008C331.418 81.9642 331.418 82.2286 331.255 82.392L330.664 82.9833C330.582 83.0648 330.475 83.1056 330.368 83.1056Z" fill="#EFEFEF"/>
<path d="M262.365 41.3899C262.365 40.8262 262.763 40.3756 263.348 40.253V40.2378C262.858 40.1028 262.543 39.7198 262.543 39.2448C262.543 38.5741 263.171 38.0808 264.038 38.0808C264.908 38.0808 265.53 38.571 265.53 39.2481C265.53 39.717 265.217 40.0972 264.727 40.2378V40.253C265.315 40.3756 265.711 40.8293 265.711 41.3899C265.711 42.1405 265.018 42.6675 264.038 42.6675C263.051 42.6677 262.365 42.1374 262.365 41.3899ZM265 41.3408C265 40.8841 264.602 40.5596 264.038 40.5596C263.474 40.5596 263.073 40.8871 263.073 41.3408C263.073 41.791 263.474 42.1159 264.038 42.1159C264.602 42.1159 265 41.7912 265 41.3408ZM264.853 39.3186C264.853 38.9144 264.516 38.6265 264.038 38.6265C263.557 38.6265 263.223 38.9144 263.223 39.3186C263.223 39.7201 263.557 40.008 264.038 40.008C264.513 40.008 264.853 39.7201 264.853 39.3186Z" fill="#EFEFEF"/>
<path d="M266.406 39.2668C266.406 39.0431 266.584 38.8657 266.808 38.8657C267.031 38.8657 267.209 39.0431 267.209 39.2668C267.209 39.4935 267.031 39.6683 266.808 39.6683C266.584 39.6683 266.406 39.4937 266.406 39.2668ZM266.406 41.5003C266.406 41.2767 266.584 41.0993 266.808 41.0993C267.031 41.0993 267.209 41.2767 267.209 41.5003C267.209 41.724 267.031 41.9019 266.808 41.9019C266.584 41.9019 266.406 41.7242 266.406 41.5003Z" fill="#EFEFEF"/>
<path d="M269.461 38.0813C270.303 38.0813 270.931 38.6175 270.931 39.319C270.931 39.8337 270.656 40.2169 270.009 40.8789L268.903 41.9909V42.0066H271.002V42.5855H267.977V42.1197L269.574 40.4925C270.114 39.9319 270.254 39.6992 270.254 39.353C270.254 38.9607 269.899 38.6484 269.439 38.6484C268.955 38.6484 268.591 38.9975 268.591 39.4573V39.4663H267.941V39.4604C267.941 38.6633 268.581 38.0813 269.461 38.0813Z" fill="#EFEFEF"/>
<path d="M271.632 41.3565H272.288C272.337 41.7945 272.714 42.095 273.207 42.095C273.765 42.095 274.151 41.7058 274.151 41.1511C274.151 40.5966 273.765 40.1982 273.213 40.1982C272.831 40.1982 272.5 40.373 272.328 40.664H271.7L271.933 38.1638H274.565V38.7432H272.484L272.362 40.1002H272.377C272.57 39.8216 272.931 39.6532 273.363 39.6532C274.212 39.6532 274.822 40.275 274.822 41.1328C274.822 42.0397 274.154 42.6682 273.201 42.6682C272.319 42.6682 271.673 42.1289 271.632 41.3565Z" fill="#EFEFEF"/>
<path opacity="0.19" d="M347.379 326.618H298.364C297.852 326.618 297.436 326.202 297.436 325.69V325.546C297.436 325.033 297.852 324.618 298.364 324.618H347.379C347.892 324.618 348.307 325.033 348.307 325.546V325.69C348.307 326.202 347.892 326.618 347.379 326.618Z" fill="#EFEFEF"/>
<path d="M357.202 43.4056C356.934 43.4056 356.716 43.1879 356.716 42.9192V42.2324C356.716 41.9637 356.934 41.746 357.202 41.746C357.471 41.746 357.689 41.9637 357.689 42.2324V42.9192C357.689 43.1877 357.471 43.4056 357.202 43.4056Z" fill="#EFEFEF"/>
<path d="M358.929 43.4055C358.66 43.4055 358.442 43.1878 358.442 42.9191V41.4454C358.442 41.1767 358.66 40.959 358.929 40.959C359.198 40.959 359.415 41.1767 359.415 41.4454V42.9191C359.415 43.1876 359.198 43.4055 358.929 43.4055Z" fill="#EFEFEF"/>
<path d="M360.655 43.4055C360.386 43.4055 360.168 43.1878 360.168 42.9191V40.5678C360.168 40.2991 360.386 40.0814 360.655 40.0814C360.924 40.0814 361.141 40.2991 361.141 40.5678V42.9191C361.141 43.1875 360.924 43.4055 360.655 43.4055Z" fill="#EFEFEF"/>
<path d="M362.381 43.4059C362.113 43.4059 361.895 43.1881 361.895 42.9194V39.7353C361.895 39.4666 362.113 39.2489 362.381 39.2489C362.65 39.2489 362.868 39.4666 362.868 39.7353V42.9194C362.868 43.1879 362.65 43.4059 362.381 43.4059Z" fill="#EFEFEF"/>
<path d="M366.674 42.4485L367.604 43.4066L368.534 42.4511C368.302 42.2026 367.971 42.0468 367.604 42.0468C367.237 42.0468 366.907 42.2014 366.674 42.4485Z" fill="#EFEFEF"/>
<path d="M365.738 41.4841L366.336 42.0995C366.656 41.7672 367.106 41.56 367.604 41.56C368.102 41.56 368.553 41.7672 368.874 42.1021L369.473 41.4867C368.998 41.0026 368.336 40.7024 367.604 40.7024C366.874 40.7024 366.212 41.0012 365.738 41.4841Z" fill="#EFEFEF"/>
<path d="M367.604 39.2487C366.479 39.2487 365.461 39.7045 364.725 40.4411L365.359 41.0926C365.932 40.5158 366.726 40.1577 367.604 40.1577C368.484 40.1577 369.28 40.517 369.853 41.0964L370.486 40.4449C369.75 39.7057 368.731 39.2487 367.604 39.2487Z" fill="#EFEFEF"/>
<path d="M377.657 42.7264H373.616C373.301 42.7264 373.045 42.4705 373.045 42.1548V40.5006C373.045 40.185 373.301 39.9291 373.616 39.9291H377.657C377.973 39.9291 378.229 40.185 378.229 40.5006V42.1548C378.229 42.4705 377.973 42.7264 377.657 42.7264Z" fill="#EFEFEF"/>
<path d="M379.471 43.377H373.143C372.671 43.377 372.287 42.9928 372.287 42.5207V40.1796C372.287 39.7074 372.671 39.3232 373.143 39.3232H379.471C379.944 39.3232 380.328 39.7074 380.328 40.1796V42.5207C380.328 42.9928 379.944 43.377 379.471 43.377ZM373.143 39.5808C372.813 39.5808 372.545 39.8495 372.545 40.1796V42.5207C372.545 42.8508 372.813 43.1195 373.143 43.1195H379.471C379.802 43.1195 380.07 42.8508 380.07 42.5207V40.1796C380.07 39.8495 379.802 39.5808 379.471 39.5808H373.143Z" fill="#EFEFEF"/>
<path d="M380.801 42.046H380.619V40.7018H380.801C381.055 40.7018 381.26 40.9074 381.26 41.1609V41.5871C381.26 41.8406 381.055 42.046 380.801 42.046Z" fill="#EFEFEF"/>
<defs>
<radialGradient id="paint0_radial_91_245" cx="0" cy="0" r="1" gradientUnits="userSpaceOnUse" gradientTransform="translate(124.38 343.625) scale(104.75 7.74104)">
<stop stop-color="#919191"/>
<stop offset="1" stop-color="#D1D1D1" stop-opacity="0"/>
</radialGradient>
<linearGradient id="paint1_linear_91_245" x1="49.0998" y1="105.349" x2="49.0998" y2="96.6674" gradientUnits="userSpaceOnUse">
<stop stop-color="#060606" stop-opacity="0"/>
<stop offset="1" stop-color="#3E3E3E"/>
</linearGradient>
<linearGradient id="paint2_linear_91_245" x1="49.0998" y1="80.3235" x2="49.0998" y2="71.6416" gradientUnits="userSpaceOnUse">
<stop stop-color="#060606" stop-opacity="0"/>
<stop offset="1" stop-color="#3E3E3E"/>
</linearGradient>
<linearGradient id="paint3_linear_91_245" x1="49.0998" y1="138.048" x2="49.0998" y2="129.366" gradientUnits="userSpaceOnUse">
<stop stop-color="#060606" stop-opacity="0"/>
<stop offset="1" stop-color="#3E3E3E"/>
</linearGradient>
<linearGradient id="paint4_linear_91_245" x1="132.498" y1="336.591" x2="132.498" y2="8.77578" gradientUnits="userSpaceOnUse">
<stop stop-color="#683193"/>
<stop offset="1" stop-color="#642A88"/>
</linearGradient>
<linearGradient id="paint5_linear_91_245" x1="132.787" y1="35.9973" x2="132.787" y2="0.76287" gradientUnits="userSpaceOnUse">
<stop stop-color="#060606" stop-opacity="0"/>
<stop offset="1" stop-color="#3E3E3E"/>
</linearGradient>
<linearGradient id="paint6_linear_91_245" x1="132.787" y1="309.198" x2="132.787" y2="344.432" gradientUnits="userSpaceOnUse">
<stop stop-color="#060606" stop-opacity="0"/>
<stop offset="1" stop-color="#3E3E3E"/>
</linearGradient>
<linearGradient id="paint7_linear_91_245" x1="51.0841" y1="171.49" x2="54.0057" y2="171.49" gradientUnits="userSpaceOnUse">
<stop stop-color="#060606" stop-opacity="0"/>
<stop offset="1" stop-color="#3E3E3E"/>
</linearGradient>
<linearGradient id="paint8_linear_91_245" x1="214.88" y1="180.155" x2="211.044" y2="180.155" gradientUnits="userSpaceOnUse">
<stop stop-color="#060606" stop-opacity="0"/>
<stop offset="1" stop-color="#3E3E3E"/>
</linearGradient>
<radialGradient id="paint9_radial_91_245" cx="0" cy="0" r="1" gradientUnits="userSpaceOnUse" gradientTransform="translate(148.325 20.5336) scale(4.95791 4.95792)">
<stop stop-color="#060606" stop-opacity="0"/>
<stop offset="1" stop-color="#3E3E3E"/>
</radialGradient>
<radialGradient id="paint10_radial_91_245" cx="0" cy="0" r="1" gradientUnits="userSpaceOnUse" gradientTransform="translate(148.325 20.5331) scale(2.9957 2.9957)">
<stop stop-color="#060606" stop-opacity="0"/>
<stop offset="1" stop-color="#84B7F2"/>
</radialGradient>
<radialGradient id="paint11_radial_91_245" cx="0" cy="0" r="1" gradientUnits="userSpaceOnUse" gradientTransform="translate(61.0553 14.9905) scale(10.7176 10.7176)">
<stop offset="0.4066" stop-color="#25303E"/>
<stop offset="1" stop-color="#49494D" stop-opacity="0"/>
</radialGradient>
<radialGradient id="paint12_radial_91_245" cx="0" cy="0" r="1" gradientUnits="userSpaceOnUse" gradientTransform="translate(203.886 14.9905) rotate(180) scale(10.7176 10.7176)">
<stop offset="0.4066" stop-color="#25303E"/>
<stop offset="1" stop-color="#49494D" stop-opacity="0"/>
</radialGradient>
<radialGradient id="paint13_radial_91_245" cx="0" cy="0" r="1" gradientUnits="userSpaceOnUse" gradientTransform="translate(314.97 344.125) scale(98.4958 7.27884)">
<stop stop-color="#919191"/>
<stop offset="1" stop-color="#D1D1D1" stop-opacity="0"/>
</radialGradient>
<linearGradient id="paint14_linear_91_245" x1="244.185" y1="120.077" x2="244.185" y2="111.913" gradientUnits="userSpaceOnUse">
<stop stop-color="#060606" stop-opacity="0"/>
<stop offset="1" stop-color="#3E3E3E"/>
</linearGradient>
<linearGradient id="paint15_linear_91_245" x1="244.185" y1="96.5455" x2="244.185" y2="88.3819" gradientUnits="userSpaceOnUse">
<stop stop-color="#060606" stop-opacity="0"/>
<stop offset="1" stop-color="#3E3E3E"/>
</linearGradient>
<linearGradient id="paint16_linear_91_245" x1="244.184" y1="150.823" x2="244.184" y2="142.66" gradientUnits="userSpaceOnUse">
<stop stop-color="#060606" stop-opacity="0"/>
<stop offset="1" stop-color="#3E3E3E"/>
</linearGradient>
<linearGradient id="paint17_linear_91_245" x1="322.604" y1="337.511" x2="322.604" y2="29.2692" gradientUnits="userSpaceOnUse">
<stop stop-color="#317093"/>
<stop offset="1" stop-color="#175788"/>
</linearGradient>
<linearGradient id="paint18_linear_91_245" x1="322.875" y1="54.8654" x2="322.875" y2="21.7348" gradientUnits="userSpaceOnUse">
<stop stop-color="#060606" stop-opacity="0"/>
<stop offset="1" stop-color="#3E3E3E"/>
</linearGradient>
<linearGradient id="paint19_linear_91_245" x1="322.875" y1="311.754" x2="322.875" y2="344.885" gradientUnits="userSpaceOnUse">
<stop stop-color="#060606" stop-opacity="0"/>
<stop offset="1" stop-color="#3E3E3E"/>
</linearGradient>
<linearGradient id="paint20_linear_91_245" x1="246.051" y1="182.269" x2="248.798" y2="182.269" gradientUnits="userSpaceOnUse">
<stop stop-color="#060606" stop-opacity="0"/>
<stop offset="1" stop-color="#3E3E3E"/>
</linearGradient>
<linearGradient id="paint21_linear_91_245" x1="400.067" y1="190.415" x2="396.46" y2="190.415" gradientUnits="userSpaceOnUse">
<stop stop-color="#060606" stop-opacity="0"/>
<stop offset="1" stop-color="#3E3E3E"/>
</linearGradient>
<radialGradient id="paint22_radial_91_245" cx="0" cy="0" r="1" gradientUnits="userSpaceOnUse" gradientTransform="translate(337.485 40.3249) scale(4.66189 4.66189)">
<stop stop-color="#060606" stop-opacity="0"/>
<stop offset="1" stop-color="#3E3E3E"/>
</radialGradient>
<radialGradient id="paint23_radial_91_245" cx="0" cy="0" r="1" gradientUnits="userSpaceOnUse" gradientTransform="translate(337.486 40.3249) scale(2.81682 2.81683)">
<stop stop-color="#060606" stop-opacity="0"/>
<stop offset="1" stop-color="#84B7F2"/>
</radialGradient>
<radialGradient id="paint24_radial_91_245" cx="0" cy="0" r="1" gradientUnits="userSpaceOnUse" gradientTransform="translate(255.427 35.113) scale(10.0777 10.0777)">
<stop offset="0.4066" stop-color="#25303E"/>
<stop offset="1" stop-color="#49494D" stop-opacity="0"/>
</radialGradient>
<radialGradient id="paint25_radial_91_245" cx="0" cy="0" r="1" gradientUnits="userSpaceOnUse" gradientTransform="translate(389.729 35.113) rotate(180) scale(10.0777 10.0777)">
<stop offset="0.4066" stop-color="#25303E"/>
<stop offset="1" stop-color="#49494D" stop-opacity="0"/>
</radialGradient>
</defs>
</svg>
