<svg width="230" height="210" viewBox="0 0 230 210" fill="none" xmlns="http://www.w3.org/2000/svg">
<path d="M132.797 200.332C101.827 203.198 96.3816 204.043 82.0551 207.113C67.7285 210.183 33.268 214.684 14.9331 197.133C-3.40136 179.581 15.786 157.239 7.85523 139.075C-0.0755498 120.911 -3.91302 99.1628 8.62272 84.4121C21.1585 69.6614 25.9804 68.1857 31.293 52.4332C36.6056 36.6806 47.5265 8.17429 82.0551 1.26684C116.584 -5.64061 133.345 17.8677 158.028 19.6473C182.712 21.4269 205.357 20.9659 219.94 39.6416C234.522 58.3173 229.15 90.0404 224.289 106.925C219.428 123.81 230.439 140.355 229.41 159.201C228.382 178.046 217.637 195.443 188.472 200.332C173.418 202.856 140.344 199.634 132.797 200.332Z" fill="#FFD306" fill-opacity="0.75"/>
<path d="M118.662 80.4642C121.688 61.6535 108.891 43.9517 90.0807 40.9262C71.27 37.9006 53.5683 50.697 50.5427 69.5076C47.5172 88.3183 60.3135 106.02 79.1242 109.046C97.9349 112.071 115.637 99.2748 118.662 80.4642Z" fill="#FFD306" fill-opacity="0.75" stroke="white" stroke-miterlimit="10" stroke-dasharray="3 4"/>
<path d="M29.5675 140.726C40.1078 140.726 48.6525 132.181 48.6525 121.641C48.6525 111.101 40.1078 102.556 29.5675 102.556C19.0271 102.556 10.4824 111.101 10.4824 121.641C10.4824 132.181 19.0271 140.726 29.5675 140.726Z" fill="#FFD306" fill-opacity="0.75" stroke="white" stroke-miterlimit="10" stroke-dasharray="3 4"/>
<path d="M121.794 78.0414C132.334 78.0414 140.879 69.4967 140.879 58.9564C140.879 48.416 132.334 39.8713 121.794 39.8713C111.254 39.8713 102.709 48.416 102.709 58.9564C102.709 69.4967 111.254 78.0414 121.794 78.0414Z" fill="#FFD306" fill-opacity="0.75" stroke="white" stroke-miterlimit="10" stroke-dasharray="3 4"/>
<path d="M220.051 158.619C221.819 151.772 217.702 144.789 210.855 143.021C204.009 141.253 197.025 145.37 195.258 152.217C193.49 159.063 197.607 166.046 204.453 167.814C211.3 169.582 218.283 165.465 220.051 158.619Z" fill="#FFD306" fill-opacity="0.75" stroke="white" stroke-miterlimit="10" stroke-dasharray="3 4"/>
<path d="M114.435 169.662C117.142 158.089 109.955 146.513 98.3824 143.805C86.8095 141.098 75.2329 148.284 72.5254 159.857C69.8179 171.43 77.0047 183.007 88.5776 185.714C100.15 188.422 111.727 181.235 114.435 169.662Z" fill="#FFD306" fill-opacity="0.75" stroke="white" stroke-miterlimit="10" stroke-dasharray="3 4"/>
<path d="M210.454 138.802C218.859 130.398 218.859 116.772 210.454 108.368C202.05 99.9636 188.424 99.9636 180.02 108.368C171.616 116.772 171.616 130.398 180.02 138.802C188.424 147.206 202.05 147.206 210.454 138.802Z" fill="#FFD306" fill-opacity="0.75" stroke="white" stroke-miterlimit="10" stroke-dasharray="3 4"/>
<path d="M177.531 94.0189C193.169 94.0189 205.847 81.3414 205.847 65.7029C205.847 50.0644 193.169 37.387 177.531 37.387C161.892 37.387 149.215 50.0644 149.215 65.7029C149.215 81.3414 161.892 94.0189 177.531 94.0189Z" fill="#FFD306" fill-opacity="0.75" stroke="white" stroke-miterlimit="10" stroke-dasharray="3 4"/>
<path d="M38.9117 192.397C36.7484 192.397 34.9883 190.637 34.9883 188.474C34.9883 186.31 36.7484 184.55 38.9117 184.55C41.075 184.55 42.8352 186.31 42.8352 188.474C42.8352 190.637 41.075 192.397 38.9117 192.397ZM38.9117 187.047C38.1248 187.047 37.4847 187.687 37.4847 188.474C37.4847 189.261 38.1248 189.901 38.9117 189.901C39.6981 189.901 40.3387 189.261 40.3387 188.474C40.3387 187.687 39.6987 187.047 38.9117 187.047Z" fill="#CFA77E"/>
<path d="M53.5328 192.397C51.3695 192.397 49.6094 190.637 49.6094 188.473C49.6094 186.31 51.3695 184.55 53.5328 184.55C55.6961 184.55 57.4568 186.31 57.4568 188.473C57.4568 190.637 55.6961 192.397 53.5328 192.397ZM53.5328 187.046C52.7459 187.046 52.1063 187.687 52.1063 188.473C52.1063 189.26 52.7464 189.901 53.5328 189.901C54.3192 189.901 54.9593 189.26 54.9593 188.473C54.9593 187.687 54.3192 187.046 53.5328 187.046Z" fill="#CFA77E"/>
<path d="M56.7467 178.116C57.2814 178.116 57.7572 177.775 57.9291 177.268L62.8037 162.903C62.9332 162.522 62.8708 162.102 62.6364 161.775C62.4021 161.448 62.024 161.254 61.6218 161.254H30.2609L28.8145 156.304C28.6589 155.772 28.1708 155.406 27.6162 155.406H21.0766C20.3869 155.406 19.8281 155.965 19.8281 156.654C19.8281 157.344 20.3869 157.903 21.0766 157.903H26.6803L34.0273 183.044C34.1828 183.576 34.671 183.942 35.2256 183.942H57.8166C58.5063 183.942 59.065 183.383 59.065 182.694C59.065 182.004 58.5063 181.445 57.8166 181.445H36.1614L35.1883 178.116H56.7467V178.116ZM46.5523 175.619V170.933H50.3151L49.7139 175.619H46.5523ZM46.5523 168.436V163.751H51.2366L50.6354 168.436H46.5523ZM44.0554 168.436H39.6234L39.0221 163.751H44.0554V168.436ZM44.0554 170.933V175.619H40.5449L39.9437 170.933H44.0554ZM55.8518 175.619H52.2312L52.8324 170.933H57.4415L55.8518 175.619ZM58.2893 168.436H53.1533L53.7545 163.751H59.8796L58.2893 168.436ZM36.5053 163.751L37.1065 168.436H32.3603L30.9911 163.751H36.5053ZM33.0894 170.933H37.4263L38.0275 175.619H34.4586L33.0894 170.933Z" fill="#CFA77E"/>
<path d="M215.645 69.8581C215.645 75.69 205.086 88.0789 205.086 88.0789C205.086 88.0789 194.525 75.69 194.525 69.8581C194.525 64.0261 199.253 59.2979 205.086 59.2979C210.918 59.2984 215.645 64.0261 215.645 69.8581Z" fill="#CFA77E"/>
<path d="M205.087 75.2423C208.06 75.2423 210.471 72.8319 210.471 69.8586C210.471 66.8852 208.06 64.4749 205.087 64.4749C202.113 64.4749 199.703 66.8852 199.703 69.8586C199.703 72.8319 202.113 75.2423 205.087 75.2423Z" fill="#F8E4CF"/>
<path d="M210.691 184.101C207.83 171.986 201.518 144.021 201.518 144.021L175.82 151.696C175.82 151.696 185.463 182.737 190.847 195.529C191.479 197.03 192.105 198.34 192.725 199.492C200.544 197.741 206.896 195.015 211.975 191.567C211.763 189.372 211.351 186.897 210.691 184.101Z" fill="#FFA26E"/>
<path d="M57.2309 151.696L65.4728 100.859C65.4728 100.859 42.3967 94.5836 39.054 94.2198C35.7119 93.856 22.0571 93.4226 21.0287 92.8997C20.5472 92.6546 21.3551 91.3964 22.2515 90.7835C23.1475 90.1705 24.6328 89.8379 24.6328 89.8379C24.774 89.0832 25.7293 87.7851 27.4992 87.7073C29.2695 87.6296 62.4478 87.8721 67.0906 88.2712C71.7335 88.6698 74.1531 92.6347 74.1531 92.6347C75.1391 96.0966 75.992 135.301 75.992 135.301L92.5356 117.757L111.979 141.123C111.979 141.123 80.2557 166.365 67.2794 168.613C58.9782 170.05 54.8429 166.424 57.2309 151.696Z" fill="#FFA26E"/>
<path d="M35.5441 87.7161C35.5441 87.7161 33.6714 88.1602 32.971 89.1733C32.2705 90.1864 32.1093 91.1693 32.7944 91.2281C33.4796 91.287 43.0825 91.9583 45.3527 92.3067C47.623 92.6551 48.9144 93.6862 49.7453 93.834C50.5763 93.9819 53.1464 93.5127 53.1464 93.5127" stroke="#D66D51" stroke-width="0.75" stroke-miterlimit="10"/>
<path d="M24.6314 89.8376C24.2682 90.4967 24.5834 91.2903 25.7249 91.3885C26.8664 91.4867 43.8239 94.0164 44.9588 94.1904C46.0937 94.3643 47.5939 96.1546 47.5939 96.1546" stroke="#D66D51" stroke-width="0.75" stroke-miterlimit="10"/>
<path d="M75.9922 135.3C76.3335 140.44 78.0388 153.743 75.9922 159.201" stroke="#D66D51" stroke-width="0.75" stroke-miterlimit="10"/>
<path d="M65.4707 100.859C65.4707 100.859 68.1186 98.2922 71.385 97.8015" stroke="#D66D51" stroke-width="0.75" stroke-miterlimit="10"/>
<path d="M194.612 168.965C203.694 167.942 209.578 162.057 210.601 160.395C211.625 158.732 203.694 140.823 203.182 136.986C202.67 133.148 203.054 123.427 200.496 118.438C197.938 113.449 176.106 98.0141 163.23 89.6147L137.717 89.6111C137.717 89.6111 120.421 92.7696 115.816 93.8784C111.211 94.9871 104.729 97.0732 103.706 98.7591C102.683 100.445 98.7598 106.67 98.7598 106.67C98.7598 106.67 86.3095 117.244 85.9682 118.097C85.6269 118.95 86.1386 130.974 98.0777 139.075C98.0777 139.075 98.6749 153.487 100.338 162.697C102.001 171.907 101.873 179.326 102.001 183.291C102.129 187.257 101.873 201.2 102.64 202.223C102.78 202.41 103.257 202.786 104.044 203.274C110.687 202.443 119.328 201.579 132.797 200.333C137.946 199.857 154.978 201.205 170.062 201.308C171.132 196.508 172.43 185.147 173.634 180.989C175.041 176.128 176.831 166.535 176.831 166.535C176.831 166.535 185.53 169.988 194.612 168.965Z" fill="#189C03"/>
<path d="M163.228 89.6147L137.716 89.6111C137.716 89.6111 135.958 89.9324 133.418 90.4047C132.444 93.3186 131.357 99.9866 140.758 102.065C151.023 104.334 161.562 98.3876 166.283 91.6291C165.224 90.9235 164.198 90.2471 163.228 89.6147Z" fill="#0D5F00"/>
<path d="M115.688 150.417C115.688 150.417 131.293 154.255 142.294 160.395" stroke="#062B28" stroke-width="0.75" stroke-miterlimit="10" stroke-linecap="round"/>
<path d="M107.629 155.406C107.629 155.406 117.908 154.066 126.305 155.406" stroke="#062B28" stroke-width="0.75" stroke-miterlimit="10" stroke-linecap="round"/>
<path d="M194.611 168.965C203.693 167.941 209.577 162.057 210.6 160.394C211.624 158.732 203.693 140.823 203.181 136.986C202.67 133.148 203.053 123.427 200.495 118.438C196.146 111.147 183.61 118.31 178.11 124.578C172.609 130.846 172.354 147.347 172.481 151.057C172.609 154.766 171.787 163.337 171.787 163.337C171.787 163.337 175.106 165.94 176.831 166.534C176.831 166.534 185.529 169.988 194.611 168.965Z" fill="#0D5F00"/>
<path d="M172.125 159.354C172.125 159.354 178.749 163.464 192.692 162.953C206.635 162.441 209.57 155.406 209.57 155.406" stroke="#AAE745" stroke-width="0.75" stroke-miterlimit="10" stroke-linecap="round" stroke-dasharray="3 4"/>
<path d="M160.795 92.0491L190.848 116.04" stroke="#062B28" stroke-width="0.75" stroke-miterlimit="10" stroke-linecap="round"/>
<path d="M137.191 92.0491L114.711 96.0835" stroke="#062B28" stroke-width="0.75" stroke-miterlimit="10" stroke-linecap="round"/>
<path d="M116.583 94.262C116.867 94.0113 117.115 93.7698 117.337 93.5349C116.744 93.6633 116.227 93.779 115.816 93.8782C111.211 94.987 104.729 97.0731 103.706 98.759C102.683 100.445 98.7598 106.67 98.7598 106.67C98.7598 106.67 86.3095 117.244 85.9682 118.097C85.6269 118.95 86.1386 130.974 98.0777 139.075C97.7794 124.834 106.734 102.96 116.583 94.262Z" fill="#0D5F00"/>
<path d="M88.7578 115.364C88.7578 115.364 89.0259 124.873 98.1995 135.3" stroke="#AAE745" stroke-width="0.75" stroke-miterlimit="10" stroke-linecap="round" stroke-dasharray="3 4"/>
<path d="M155.406 200.925C160.189 201.113 165.226 201.275 170.065 201.308C170.068 201.295 170.071 201.284 170.074 201.27C170.101 201.15 170.127 201.024 170.154 200.895C170.166 200.837 170.178 200.778 170.191 200.72C170.25 200.433 170.309 200.131 170.369 199.812C170.37 199.806 170.371 199.8 170.372 199.794C170.404 199.625 170.436 199.45 170.468 199.273C170.475 199.235 170.482 199.197 170.489 199.159C170.564 198.739 170.64 198.298 170.717 197.84C167.923 198.52 162.273 199.809 155.406 200.925Z" fill="#0D5F00"/>
<path d="M102.77 202.36C102.798 202.386 102.83 202.415 102.866 202.446C102.885 202.463 102.903 202.479 102.925 202.497C102.972 202.535 103.024 202.577 103.081 202.62C103.121 202.651 103.166 202.684 103.211 202.717C103.247 202.744 103.285 202.771 103.325 202.8C103.373 202.833 103.423 202.868 103.475 202.904C103.511 202.929 103.549 202.954 103.587 202.979C103.717 203.066 103.857 203.157 104.012 203.254C104.023 203.261 104.033 203.267 104.044 203.274C107.807 202.804 112.213 202.322 117.772 201.767C110.045 200.574 104.889 198.808 102.16 197.679C102.169 197.944 102.179 198.201 102.189 198.451C102.191 198.502 102.193 198.554 102.196 198.605C102.201 198.715 102.206 198.824 102.211 198.93C102.214 198.996 102.217 199.061 102.221 199.126C102.229 199.281 102.237 199.433 102.247 199.579C102.251 199.654 102.256 199.728 102.26 199.8C102.266 199.878 102.271 199.954 102.276 200.029C102.284 200.134 102.292 200.236 102.3 200.335C102.305 200.407 102.312 200.476 102.318 200.544C102.325 200.632 102.334 200.717 102.342 200.799C102.347 200.848 102.353 200.897 102.358 200.944C102.37 201.054 102.382 201.161 102.396 201.259C102.399 201.282 102.402 201.303 102.405 201.325C102.418 201.41 102.43 201.491 102.443 201.566C102.448 201.594 102.453 201.621 102.458 201.648C102.474 201.733 102.491 201.814 102.508 201.883C102.51 201.888 102.511 201.892 102.512 201.897C102.529 201.962 102.546 202.018 102.564 202.067C102.569 202.08 102.575 202.094 102.579 202.106C102.599 202.154 102.619 202.196 102.641 202.225C102.662 202.253 102.694 202.287 102.73 202.324C102.742 202.334 102.756 202.347 102.77 202.36Z" fill="#0D5F00"/>
<path d="M173.718 164.751C173.718 164.751 169.167 185.093 165.135 201.234" stroke="#062B28" stroke-width="0.75" stroke-miterlimit="10" stroke-linecap="round"/>
<path d="M162.893 34.9676C162.893 34.9676 166.319 24.4043 154.89 16.976C154.89 16.976 132.35 12.4432 124.213 12.9216C110.287 13.7408 109.414 26.847 109.414 26.847L162.893 34.9676Z" fill="#094000"/>
<path d="M139.011 77.768C139.011 77.768 139.353 83.7299 137.306 91.2345C137.306 91.2345 135.601 98.2274 145.323 98.739C155.044 99.2507 163.231 89.6146 163.231 89.6146C163.231 89.6146 164.399 72.1991 165.521 66.0688L139.011 77.768Z" fill="#FFA26E"/>
<path d="M145.066 86.9708C151.601 87.1816 161.604 74.6607 164.924 70.2456C165.12 68.6057 165.32 67.1572 165.519 66.0688L139.011 77.7685C139.011 77.7685 139.168 80.5223 138.627 84.6402C140.128 85.8794 142.212 86.8787 145.066 86.9708Z" fill="#D66D51"/>
<path d="M150.097 15.8503C135.405 14.6904 124.002 21.8623 122.339 39.7705C120.677 57.6788 122.084 75.0753 136.922 77.5057C151.76 79.9361 165.063 70.0866 168.389 60.8767C171.715 51.6667 179.262 18.1528 150.097 15.8503Z" fill="#FFA26E"/>
<path d="M137.945 37.5959C137.945 37.5959 138.841 46.0384 137.945 48.5967C137.05 51.155 132.189 53.3296 131.933 53.8413C131.678 54.3529 135.138 58.9579 135.138 58.9579" stroke="#D66D51" stroke-width="0.75" stroke-miterlimit="10"/>
<path d="M128.485 35.617C128.141 33.8037 129.119 31.9126 130.49 30.7869C131.924 29.6091 134.267 29.0575 135.905 30.1458C135.937 30.1663 136.356 30.5045 136.152 30.5659C135.75 30.6871 135.367 30.8227 134.98 30.9829C134.02 31.3804 133.132 31.9678 132.313 32.6018C131.498 33.2316 130.696 33.8646 129.945 34.5696C129.643 34.8521 129.345 35.1386 129.046 35.4231C128.778 35.6779 128.767 35.8631 128.485 35.617Z" fill="#C14100"/>
<path d="M147.713 30.1854C148.772 29.7786 150.052 29.9726 151.106 30.2826C152.361 30.6521 153.453 31.3597 154.416 32.23C156.29 33.9241 157.252 36.2394 157.254 38.7435C157.244 38.9482 157.222 38.942 157.059 39.052C156.986 39.1012 156.824 38.8218 156.78 38.767C156.408 38.3014 156.037 37.8368 155.675 37.3635C154.886 36.332 154.005 35.3102 153.04 34.4394C152.009 33.5087 151.036 32.5626 149.889 31.7685C149.396 31.4277 148.894 31.0936 148.371 30.802C148.146 30.6766 147.917 30.5543 147.681 30.4499C147.569 30.4003 147.674 30.2847 147.713 30.1854Z" fill="#C14100"/>
<path d="M148.779 62.3564C148.779 62.3564 140.439 59.8802 133.091 67.1163" stroke="#D66D51" stroke-width="0.75" stroke-miterlimit="10"/>
<path d="M122.084 42.8733C121.591 49.7756 121.652 56.4713 122.867 62.1251C127.27 60.4853 130.334 56.853 130.334 52.6328C130.334 48.1664 126.904 44.3576 122.084 42.8733Z" fill="#EF7954"/>
<path d="M164.169 46.8047C157.14 46.8047 151.441 51.4721 151.441 57.2298C151.441 62.9876 157.14 67.655 164.169 67.655C164.179 67.655 164.188 67.6544 164.198 67.6544C166.124 65.4876 167.565 63.1626 168.39 60.8764C169.325 58.2885 170.593 53.7807 171.286 48.5858C169.254 47.4612 166.805 46.8047 164.169 46.8047Z" fill="#EF7954"/>
<path d="M132.796 45.0443C132.796 46.2431 132.245 47.2153 131.565 47.2153C130.885 47.2153 130.334 46.2431 130.334 45.0443C130.334 43.8455 130.885 42.8733 131.565 42.8733C132.245 42.8733 132.796 43.8455 132.796 45.0443Z" fill="#041801"/>
<path d="M149.84 48.6694C150.52 48.6694 151.072 47.6974 151.072 46.4984C151.072 45.2994 150.52 44.3274 149.84 44.3274C149.161 44.3274 148.609 45.2994 148.609 46.4984C148.609 47.6974 149.161 48.6694 149.84 48.6694Z" fill="#041801"/>
<path d="M164.437 67.3787C164.437 67.3787 163.658 71.1093 166.046 71.1093C168.433 71.1093 169.457 67.6545 169.457 67.6545C169.457 67.6545 171.674 68.8917 172.953 66.9305C174.232 64.9693 179.69 41.4328 180.202 38.6186C180.713 35.8045 180.543 22.075 169.031 18.4079C157.518 14.7409 140.463 13.7175 140.463 13.7175C140.463 13.7175 143.939 27.8737 160.408 29.1529C160.408 29.1529 158.87 38.107 167.02 40.7507C167.02 40.7507 166.302 49.7903 166.302 50.984C166.302 52.1777 168.478 48.9844 171.057 50.1546C171.057 50.1546 170.078 61.2608 164.437 67.3787Z" fill="#C14100"/>
<path d="M171.056 50.155C171.056 50.155 173.976 43.1386 179.945 44.5032C185.915 45.8678 184.196 66.9453 167.02 63.7832L171.056 50.155Z" fill="#FFA26E"/>
<path d="M182.453 54.9487C180 45.5807 171.056 50.1549 171.056 50.1549L167.02 63.7826C176.111 65.4567 180.871 60.3391 182.453 54.9487Z" fill="#D66D51"/>
<path d="M162.211 8.95683C162.211 8.95683 164.719 6.67686 168.588 8.34744C172.456 10.018 171.616 13.4201 171.616 13.4201L162.211 8.95683Z" fill="#148C00"/>
<path d="M181.243 20.6282C178.276 15.4594 175.053 12.5706 162.21 8.9567C151.477 5.93635 141.027 5.79309 134.737 11.733C134 12.4299 133.633 13.4235 133.131 14.2739C140.442 15.6559 152.492 20.0245 156.826 33.8261L161.846 34.5885L180.552 37.0997C180.552 37.0997 184.21 25.7966 181.243 20.6282Z" fill="#18B400"/>
<path d="M163.385 31.6951L164.148 31.7723" stroke="#148C00" stroke-width="0.75" stroke-linecap="round" stroke-linejoin="round"/>
<path d="M166.219 31.9812L179.688 33.3407" stroke="#148C00" stroke-width="0.75" stroke-linecap="round" stroke-linejoin="round" stroke-dasharray="3.05 4.07"/>
<path d="M180.727 33.4453L181.49 33.5221" stroke="#148C00" stroke-width="0.75" stroke-linecap="round" stroke-linejoin="round"/>
<path d="M154.889 16.9763C154.889 16.9763 132.349 12.4434 124.212 12.9218C122.13 13.0441 120.346 13.4458 118.807 14.0327C119.299 13.917 126.402 12.337 130.648 16.2282C135.048 20.2601 136.178 29.4885 140.025 31.4962L162.891 34.9684C162.891 34.9684 166.318 24.4046 154.889 16.9763Z" fill="#148C00"/>
<path d="M88.8785 17.8108H10.332V89.1024H88.8785V17.8108Z" fill="#EC9631"/>
<path d="M10.334 17.8108L41.3587 40.6652L72.3829 17.8108" stroke="#B26A1C" stroke-miterlimit="10"/>
<path d="M72.3829 89.103L41.3587 66.2485L10.334 89.103" stroke="#B26A1C" stroke-miterlimit="10"/>
<path d="M41.3594 40.665V66.2482" stroke="#B26A1C" stroke-miterlimit="10"/>
<path opacity="0.5" d="M88.8784 17.8108H72.3809V89.1024H88.8784V17.8108Z" fill="#B26A1C"/>
<path d="M45.4385 46.4569C45.4385 47.4403 44.6413 48.2375 43.6579 48.2375H17.7396C16.7562 48.2375 15.959 47.4403 15.959 46.4569V27.7781C15.959 26.7947 16.7562 25.9976 17.7396 25.9976H43.6574C44.6408 25.9976 45.4379 26.7947 45.4379 27.7781L45.4385 46.4569Z" fill="#F8E4CF"/>
<path d="M65.6728 65.8135H57.9805V73.5058H65.6728V65.8135Z" fill="#148C00"/>
<path d="M65.6728 76.0098H57.9805V83.7021H65.6728V76.0098Z" fill="#FFD306" fill-opacity="0.75"/>
<path d="M42.2948 31.3276H19.0996V32.6626H42.2948V31.3276Z" fill="#ECD4BE"/>
<path d="M42.2948 33.9478H19.0996V35.2827H42.2948V33.9478Z" fill="#ECD4BE"/>
<path d="M42.2948 36.5684H19.0996V37.9033H42.2948V36.5684Z" fill="#ECD4BE"/>
<path d="M34.2791 39.188H19.0996V40.5229H34.2791V39.188Z" fill="#ECD4BE"/>
</svg>
