<svg width="120" height="71" viewBox="0 0 120 71" fill="none" xmlns="http://www.w3.org/2000/svg">
<g id="Group">
<path id="Vector" fill-rule="evenodd" clip-rule="evenodd" d="M57.4282 4.45369L58.0724 3.33773L59.9996 0L61.9268 3.33773L62.571 4.45369L59.9996 8.90778L57.4282 4.45369ZM75.1635 35.172L72.018 29.7244L70.0234 26.2689L61.9032 12.2041L64.4746 7.75046L82.2626 38.5605L85.5079 44.1814L79.4987 41.7431L78.7919 41.4564L75.1635 35.172Z" fill="#0095DB"/>
<path id="Vector_2" d="M73.8205 39.4393L59.9999 33.8323L40.5008 41.743L34.4917 44.1813L37.7369 38.5605L55.5249 7.75037L58.0963 12.2041L56.3239 15.2744L44.836 35.1719L59.1627 29.3593L59.9999 29.0198L60.837 29.3593L70.1922 33.155L73.8205 39.4393Z" fill="#808080"/>
<path id="Vector_3" d="M7.74049 52.9891V51.0939H0V52.9891H2.84263V60.436H4.89795V52.9891H7.74049ZM18.8065 60.436V58.6076H13.7351V56.6462H18.1391V54.8179H13.7351V52.9226H18.74V51.0938H11.7066V60.4359L18.8065 60.436ZM31.2473 58.9282L29.9392 57.607C29.5745 57.9449 29.2076 58.2119 28.8382 58.4077C28.4692 58.6034 28.0175 58.701 27.484 58.701C27.0835 58.701 26.7165 58.6234 26.3826 58.4678C26.049 58.3119 25.7643 58.1004 25.5284 57.8335C25.2926 57.5669 25.1083 57.2554 24.9748 56.8994C24.8413 56.5434 24.7747 56.1654 24.7747 55.7653V55.7385C24.7747 55.3381 24.8413 54.962 24.9748 54.6107C25.1083 54.2595 25.2949 53.9503 25.5351 53.6833C25.7753 53.4163 26.0624 53.2073 26.3959 53.056C26.7295 52.9048 27.0921 52.8293 27.484 52.8293C27.9553 52.8293 28.3802 52.9226 28.7582 53.1093C29.1363 53.2963 29.5076 53.5542 29.8726 53.8834L31.1804 52.3752C30.9669 52.1618 30.7358 51.9661 30.4865 51.7881C30.2373 51.6101 29.966 51.4589 29.6726 51.3344C29.3788 51.2096 29.052 51.112 28.6917 51.0407C28.3314 50.9694 27.9329 50.9339 27.4969 50.9339C26.7763 50.9339 26.1179 51.0603 25.5217 51.3144C24.9255 51.568 24.4144 51.9145 23.9871 52.3551C23.5599 52.7958 23.2263 53.3073 22.9861 53.8901C22.7459 54.4729 22.6258 55.0978 22.6258 55.7653V55.7921C22.6258 56.4592 22.7458 57.0861 22.9861 57.6736C23.2263 58.2611 23.5598 58.7703 23.9871 59.2019C24.4144 59.6331 24.9212 59.9733 25.5087 60.2226C26.0959 60.4718 26.7318 60.5963 27.417 60.5963C27.8706 60.5963 28.2798 60.5588 28.6448 60.4829C29.0098 60.4073 29.3453 60.2962 29.6524 60.1493C29.9596 60.0024 30.2419 59.8268 30.4999 59.622C30.7578 59.4172 31.0071 59.1858 31.2473 58.9282ZM43.1806 60.436V51.0939H41.1254V54.7911H37.3352V51.0939H35.2801V60.436H37.3352V56.686H41.1254V60.436H43.1806ZM56.1152 60.436V51.0939H54.0864V56.8463L49.7091 51.0939H47.8143V60.436H49.8426V54.497L54.3668 60.436H56.1152ZM70.2639 55.7653V55.7385C70.2639 55.071 70.1418 54.4461 69.8973 53.8637C69.6524 53.2809 69.3098 52.7733 68.8695 52.3421C68.4288 51.9101 67.9063 51.5679 67.3015 51.3143C66.6962 51.0603 66.0331 50.9339 65.3128 50.9339C64.5918 50.9339 63.927 51.0603 63.3175 51.3143C62.7079 51.5679 62.183 51.9145 61.7427 52.3551C61.3025 52.7957 60.9575 53.3072 60.7083 53.89C60.459 54.4728 60.3346 55.0978 60.3346 55.7653V55.7921C60.3346 56.4591 60.457 57.0841 60.7016 57.6669C60.9462 58.2497 61.2891 58.7569 61.7294 59.1885C62.1697 59.6201 62.6926 59.9627 63.2975 60.2158C63.9023 60.4695 64.5655 60.5963 65.2861 60.5963C66.0068 60.5963 66.6718 60.4695 67.2814 60.2158C67.891 59.9627 68.4155 59.6154 68.8561 59.1751C69.2964 58.7344 69.6413 58.2229 69.8906 57.6401C70.1394 57.0573 70.2639 56.4324 70.2639 55.7653ZM68.1154 55.7921C68.1154 56.1922 68.0465 56.5682 67.9086 56.9195C67.7704 57.2708 67.5795 57.5803 67.3345 57.8469C67.0899 58.1139 66.7938 58.3229 66.4473 58.4746C66.1 58.6258 65.722 58.701 65.3128 58.701C64.8946 58.701 64.5142 58.6234 64.1716 58.4678C63.829 58.3119 63.5309 58.1004 63.2773 57.8335C63.0241 57.5669 62.828 57.2554 62.6902 56.8994C62.5523 56.5434 62.4834 56.1654 62.4834 55.7653V55.7385C62.4834 55.3381 62.5523 54.962 62.6902 54.6107C62.828 54.2595 63.0193 53.9503 63.2639 53.6833C63.5088 53.4163 63.8022 53.2073 64.1448 53.056C64.4874 52.9048 64.8678 52.8293 65.286 52.8293C65.6951 52.8293 66.0735 52.9068 66.4205 53.0628C66.7674 53.2183 67.0675 53.4294 67.3215 53.6964C67.5747 53.9637 67.7704 54.2748 67.9086 54.6308C68.0465 54.9864 68.1154 55.3644 68.1154 55.7653V55.7921ZM81.1965 60.436V58.5813H76.5388V51.0939H74.4836V60.436H81.1965ZM94.6514 55.7653V55.7385C94.6514 55.071 94.5293 54.4461 94.2843 53.8637C94.0398 53.2809 93.6972 52.7733 93.2566 52.3421C92.8163 51.9101 92.2937 51.5679 91.6889 51.3143C91.0836 51.0603 90.4205 50.9339 89.7002 50.9339C88.9792 50.9339 88.3145 51.0603 87.705 51.3143C87.0954 51.5679 86.5705 51.9145 86.1302 52.3551C85.6896 52.7957 85.345 53.3072 85.0957 53.89C84.8465 54.4728 84.7221 55.0978 84.7221 55.7653V55.7921C84.7221 56.4591 84.8446 57.0841 85.0891 57.6669C85.3336 58.2497 85.6766 58.7569 86.1169 59.1885C86.5571 59.6201 87.0801 59.9627 87.6849 60.2158C88.2898 60.4695 88.9529 60.5963 89.6736 60.5963C90.3942 60.5963 91.0593 60.4695 91.6689 60.2158C92.2781 59.9627 92.803 59.6154 93.2436 59.1751C93.6838 58.7344 94.0284 58.2229 94.278 57.6401C94.5269 57.0573 94.6514 56.4324 94.6514 55.7653ZM92.5028 55.7921C92.5028 56.1922 92.4339 56.5682 92.2957 56.9195C92.1583 57.2708 91.9669 57.5803 91.7219 57.8469C91.4774 58.1139 91.1817 58.3229 90.8348 58.4746C90.4875 58.6258 90.1094 58.701 89.7003 58.701C89.2821 58.701 88.9017 58.6234 88.5591 58.4678C88.2165 58.3119 87.9184 58.1004 87.6648 57.8335C87.4112 57.5669 87.2155 57.2554 87.0777 56.8994C86.9399 56.5434 86.8709 56.1654 86.8709 55.7653V55.7385C86.8709 55.3381 86.9399 54.962 87.0777 54.6107C87.2155 54.2595 87.4068 53.9503 87.6514 53.6833C87.8959 53.4163 88.1897 53.2073 88.5323 53.056C88.8749 52.9048 89.2554 52.8293 89.6735 52.8293C90.0826 52.8293 90.4611 52.9068 90.808 53.0628C91.1545 53.2183 91.455 53.4294 91.7086 53.6964C91.9622 53.9637 92.1583 54.2748 92.2957 54.6308C92.434 54.9864 92.5029 55.3644 92.5029 55.7653L92.5028 55.7921ZM107.359 59.1152V55.0576H103.302V56.8328H105.371V58.1764C104.846 58.5525 104.201 58.7411 103.435 58.7411C103.017 58.7411 102.637 58.6679 102.294 58.521C101.952 58.3746 101.654 58.165 101.4 57.8984C101.146 57.6314 100.951 57.3176 100.813 56.9553C100.675 56.5946 100.606 56.1988 100.606 55.772V55.7452C100.606 55.3447 100.675 54.9662 100.813 54.615C100.951 54.2614 101.142 53.9547 101.387 53.692C101.632 53.4293 101.916 53.2183 102.241 53.0627C102.566 52.9068 102.915 52.8292 103.289 52.8292C103.556 52.8292 103.8 52.8512 104.023 52.8957C104.245 52.9402 104.452 53.0025 104.643 53.0828C104.834 53.1627 105.019 53.2607 105.197 53.3762C105.375 53.4919 105.553 53.625 105.731 53.7767L107.025 52.2149C106.785 52.0105 106.536 51.8278 106.278 51.6679C106.02 51.5076 105.744 51.3746 105.451 51.2679C105.157 51.1607 104.839 51.0785 104.496 51.0206C104.154 50.9631 103.773 50.9339 103.356 50.9339C102.643 50.9339 101.99 51.0603 101.393 51.3144C100.797 51.568 100.281 51.9145 99.845 52.3551C99.4095 52.7958 99.0689 53.3073 98.8243 53.8901C98.5797 54.4729 98.4573 55.0978 98.4573 55.7653V55.7921C98.4573 56.4859 98.5773 57.1266 98.8175 57.7138C99.0577 58.3009 99.3936 58.8077 99.8253 59.2354C100.257 59.6618 100.773 59.9958 101.373 60.236C101.974 60.4762 102.639 60.5963 103.369 60.5963C104.223 60.5963 104.981 60.4518 105.644 60.1627C106.307 59.8733 106.879 59.5244 107.359 59.1152ZM120 51.0939H117.665L115.395 54.8442L113.167 51.0939H110.765L114.354 56.753V60.436H116.41V56.7127L120 51.0939Z" fill="#808080"/>
<path id="Vector_4" d="M23.8345 69.5052V69.4906C23.8345 69.1485 23.7491 68.8807 23.5794 68.6877C23.4097 68.4947 23.175 68.3419 22.8792 68.2293C22.9709 68.1809 23.0576 68.1222 23.1371 68.0537C23.2178 67.9852 23.2875 67.9057 23.3486 67.8154C23.4096 67.7252 23.4573 67.6237 23.4939 67.5114C23.5305 67.3988 23.549 67.2692 23.549 67.1227V67.1082C23.549 66.7022 23.3986 66.3797 23.0993 66.1407C22.7989 65.9009 22.3858 65.7816 21.8593 65.7816H19.4805V70.9126H21.9176C22.2051 70.9126 22.4677 70.8834 22.7048 70.8247C22.9402 70.7657 23.1431 70.6779 23.312 70.5605C23.4793 70.4436 23.6085 70.2967 23.6991 70.121C23.7892 69.9451 23.8345 69.7399 23.8345 69.5052ZM22.4346 67.3135C22.4346 67.504 22.3614 67.6422 22.2145 67.7277C22.068 67.8131 21.8703 67.8556 21.6211 67.8556H20.5803V66.7708H21.6943C21.9337 66.7708 22.1172 66.816 22.2441 66.9066C22.3713 66.9968 22.4347 67.1275 22.4347 67.2989L22.4346 67.3135ZM22.7205 69.3658C22.7205 69.5568 22.6497 69.697 22.5079 69.7875C22.3662 69.8777 22.1709 69.923 21.9216 69.923H20.5803V68.794H21.885C22.1784 68.794 22.3906 68.844 22.5225 68.9444C22.6548 69.0445 22.7206 69.1799 22.7206 69.3512L22.7205 69.3658ZM35.4417 68.6767V65.7816H34.3128V68.7208C34.3128 69.1315 34.2151 69.4391 34.0198 69.6442C33.8241 69.8498 33.5532 69.9522 33.2063 69.9522C32.8594 69.9522 32.588 69.8459 32.3923 69.6332C32.197 69.4206 32.0993 69.1044 32.0993 68.6842V65.7816H30.9703V68.7133C30.9703 69.471 31.1685 70.0404 31.5642 70.4216C31.9599 70.8027 32.5026 70.9929 33.1913 70.9929C33.5335 70.9929 33.8438 70.9457 34.1222 70.85C34.401 70.7551 34.6381 70.611 34.8334 70.4176C35.0291 70.2247 35.1791 69.9841 35.2843 69.6958C35.3893 69.4072 35.4417 69.0677 35.4417 68.6767ZM46.5799 69.395V69.3808C46.5799 69.156 46.5445 68.9626 46.4736 68.8016C46.4027 68.6401 46.2964 68.4995 46.157 68.3799C46.018 68.2605 45.8455 68.1577 45.6427 68.0719C45.4399 67.9864 45.208 67.9092 44.9477 67.8411C44.7276 67.7824 44.5457 67.7312 44.4003 67.6872C44.2562 67.643 44.1428 67.5969 44.0582 67.5482C43.9751 67.4989 43.9176 67.4442 43.8861 67.3832C43.8542 67.3222 43.8384 67.2497 43.8384 67.1666V67.1524C43.8384 67.0252 43.8931 66.9189 44.0034 66.8331C44.1133 66.7476 44.2783 66.7051 44.498 66.7051C44.7181 66.7051 44.9379 66.75 45.158 66.8406C45.3777 66.9312 45.6026 67.0544 45.8321 67.2107L46.4189 66.3605C46.155 66.1503 45.8652 65.9892 45.5502 65.8766C45.2347 65.764 44.889 65.7081 44.5129 65.7081C44.2487 65.7081 44.0069 65.7447 43.7883 65.8179C43.5694 65.8915 43.38 65.9967 43.2225 66.1334C43.065 66.27 42.9429 66.4327 42.8547 66.6209C42.7681 66.8087 42.7244 67.0202 42.7244 67.2548V67.2694C42.7244 67.5238 42.7645 67.7361 42.8453 67.9074C42.926 68.0782 43.0406 68.2212 43.1871 68.3362C43.3336 68.4508 43.5136 68.5476 43.7234 68.6256C43.9349 68.7036 44.1695 68.7748 44.4295 68.8379C44.6448 68.8918 44.8205 68.9434 44.9548 68.9918C45.0895 69.041 45.1946 69.0898 45.2714 69.1387C45.3469 69.1875 45.3985 69.2403 45.4254 69.2962C45.4521 69.3525 45.4655 69.4171 45.4655 69.4907V69.5053C45.4655 69.6569 45.4009 69.7754 45.2714 69.8608C45.1418 69.9459 44.9599 69.9892 44.7252 69.9892C44.4322 69.9892 44.1621 69.9329 43.9156 69.8203C43.6687 69.7081 43.4276 69.5569 43.1933 69.3659L42.5263 70.1648C42.8342 70.4436 43.176 70.65 43.5525 70.7843C43.9285 70.9186 44.3125 70.9859 44.7035 70.9859C44.9819 70.9859 45.2359 70.9505 45.4643 70.8796C45.6927 70.8091 45.8907 70.7063 46.0558 70.572C46.2207 70.4373 46.3491 70.2712 46.4417 70.0735C46.5335 69.8754 46.5799 69.6494 46.5799 69.395ZM55.0207 70.9126V65.7816H53.8913V70.9126H55.0207ZM67.1406 70.9126V65.7816H66.0262V68.9406L63.6218 65.7816H62.581V70.9126H63.6954V67.6505L66.1802 70.9126H67.1406ZM78.5501 70.9126V69.9084H75.7645V68.8306H78.1835V67.8261H75.7645V66.7853H78.5131V65.7816H74.6501V70.9126H78.5501V70.9126ZM89.5485 69.395V69.3808C89.5485 69.156 89.513 68.9626 89.4426 68.8016C89.3717 68.6401 89.2649 68.4995 89.1259 68.3799C88.9865 68.2605 88.8144 68.1577 88.6116 68.0719C88.4088 67.9864 88.1765 67.9092 87.9166 67.8411C87.6965 67.7824 87.5145 67.7312 87.3693 67.6872C87.2251 67.643 87.1113 67.5969 87.027 67.5482C86.9439 67.4989 86.8865 67.4442 86.8546 67.3832C86.8231 67.3222 86.807 67.2497 86.807 67.1666V67.1524C86.807 67.0252 86.8621 66.9189 86.972 66.8331C87.0822 66.7476 87.2468 66.7051 87.4669 66.7051C87.6867 66.7051 87.9068 66.75 88.1265 66.8406C88.3463 66.9312 88.5715 67.0544 88.8007 67.2107L89.3874 66.3605C89.1236 66.1503 88.8342 65.9892 88.5188 65.8766C88.2037 65.764 87.8576 65.7081 87.4815 65.7081C87.2177 65.7081 86.9755 65.7447 86.757 65.8179C86.5384 65.8915 86.349 65.9967 86.1915 66.1334C86.034 66.27 85.9115 66.4327 85.8237 66.6209C85.7367 66.8087 85.693 67.0202 85.693 67.2548V67.2694C85.693 67.5238 85.7331 67.7361 85.8139 67.9074C85.8946 68.0782 86.0091 68.2212 86.156 68.3362C86.3025 68.4508 86.4821 68.5476 86.6924 68.6256C86.9035 68.7036 87.1382 68.7748 87.3984 68.8379C87.6134 68.8918 87.7895 68.9434 87.9238 68.9918C88.058 69.041 88.1632 69.0898 88.2404 69.1387C88.3159 69.1875 88.3676 69.2403 88.394 69.2962C88.4211 69.3525 88.4345 69.4171 88.4345 69.4907V69.5053C88.4345 69.6569 88.37 69.7754 88.2404 69.8608C88.1109 69.9459 87.9289 69.9892 87.6942 69.9892C87.4009 69.9892 87.1307 69.9329 86.8842 69.8203C86.6373 69.7081 86.3967 69.5569 86.162 69.3659L85.4953 70.1648C85.8028 70.4436 86.145 70.65 86.5211 70.7843C86.8976 70.9186 87.2811 70.9859 87.6721 70.9859C87.9505 70.9859 88.205 70.9505 88.4333 70.8796C88.6617 70.8091 88.8598 70.7063 89.0247 70.572C89.1894 70.4373 89.3177 70.2712 89.4107 70.0735C89.5021 69.8754 89.5485 69.6494 89.5485 69.395ZM100.518 69.395V69.3808C100.518 69.156 100.483 68.9626 100.412 68.8016C100.341 68.6401 100.235 68.4995 100.095 68.3799C99.9562 68.2605 99.7841 68.1577 99.5809 68.0719C99.3781 67.9864 99.1462 67.9092 98.8858 67.8411C98.6657 67.7824 98.4838 67.7312 98.3385 67.6872C98.1943 67.643 98.0806 67.5969 97.9963 67.5482C97.9133 67.4989 97.8558 67.4442 97.8238 67.3832C97.7923 67.3222 97.7766 67.2497 97.7766 67.1666V67.1524C97.7766 67.0252 97.8313 66.9189 97.9415 66.8331C98.0514 66.7476 98.2164 66.7051 98.4361 66.7051C98.6558 66.7051 98.876 66.75 99.0961 66.8406C99.3158 66.9312 99.5407 67.0544 99.7703 67.2107L100.357 66.3605C100.093 66.1503 99.8033 65.9892 99.488 65.8766C99.1729 65.764 98.8271 65.7081 98.4507 65.7081C98.1868 65.7081 97.9451 65.7447 97.7265 65.8179C97.5076 65.8915 97.3186 65.9967 97.1607 66.1334C97.0032 66.27 96.8811 66.4327 96.7929 66.6209C96.7063 66.8087 96.6621 67.0202 96.6621 67.2548V67.2694C96.6621 67.5238 96.7027 67.7361 96.7831 67.9074C96.8638 68.0782 96.9783 68.2212 97.1252 68.3362C97.2721 68.4508 97.4517 68.5476 97.6615 68.6256C97.873 68.7036 98.1077 68.7748 98.3676 68.8379C98.583 68.8918 98.7587 68.9434 98.893 68.9918C99.0276 69.041 99.1327 69.0898 99.2096 69.1387C99.2851 69.1875 99.3363 69.2403 99.3635 69.2962C99.3903 69.3525 99.4041 69.4171 99.4041 69.4907V69.5053C99.4041 69.6569 99.3391 69.7754 99.2096 69.8608C99.08 69.9459 98.8981 69.9892 98.6634 69.9892C98.3703 69.9892 98.1003 69.9329 97.8533 69.8203C97.6068 69.7081 97.3658 69.5569 97.1315 69.3659L96.4644 70.1648C96.7724 70.4436 97.1146 70.65 97.4907 70.7843C97.8672 70.9186 98.2507 70.9859 98.6413 70.9859C98.9201 70.9859 99.1741 70.9505 99.4025 70.8796C99.6309 70.8091 99.829 70.7063 99.994 70.572C100.159 70.4373 100.287 70.2712 100.38 70.0735C100.472 69.8754 100.518 69.6494 100.518 69.395Z" fill="#0095DB"/>
</g>
</svg>
