<svg width="180" height="180" viewBox="0 0 180 180" fill="none" xmlns="http://www.w3.org/2000/svg">
<g clip-path="url(#clip0_91_414)">
<path d="M180 0H0V180H180V0Z" fill="white"/>
<path d="M158.4 18H154.8H151.2H147.6H144H140.4V21.6V25.2V28.8V32.4V36V39.6H144H147.6H151.2H154.8H158.4H162V36V32.4V28.8V25.2V21.6V18H158.4ZM158.4 25.2V28.8V32.4V36H154.8H151.2H147.6H144V32.4V28.8V25.2V21.6H147.6H151.2H154.8H158.4V25.2ZM151.2 25.2H154.8V28.8V32.4H151.2H147.6V28.8V25.2H151.2ZM28.8 32.4H25.2V28.8V25.2H28.8H32.4V28.8V32.4H28.8ZM25.2 39.6H28.8H32.4H36H39.6V36V32.4V28.8V25.2V21.6V18H36H32.4H28.8H25.2H21.6H18V21.6V25.2V28.8V32.4V36V39.6H21.6H25.2ZM21.6 32.4V28.8V25.2V21.6H25.2H28.8H32.4H36V25.2V28.8V32.4V36H32.4H28.8H25.2H21.6V32.4ZM32.4 140.4H28.8H25.2H21.6H18V144V147.6V151.2V154.8V158.4V162H21.6H25.2H28.8H32.4H36H39.6V158.4V154.8V151.2V147.6V144V140.4H36H32.4ZM36 147.6V151.2V154.8V158.4H32.4H28.8H25.2H21.6V154.8V151.2V147.6V144H25.2H28.8H32.4H36V147.6ZM28.8 147.6H32.4V151.2V154.8H28.8H25.2V151.2V147.6H28.8ZM108 21.6H104.4V18H108V21.6ZM122.4 21.6H118.8V18H122.4V21.6ZM72 25.2V21.6H75.6V18H79.2V21.6V25.2V28.8H75.6V25.2H72ZM86.4 21.6H82.8V18H86.4H90H93.6V21.6H90V25.2H86.4V21.6ZM93.6 25.2V21.6H97.2H100.8V25.2V28.8H97.2H93.6V25.2ZM126 25.2V28.8H122.4H118.8V25.2H122.4H126ZM43.2 28.8H46.8V32.4V36V39.6V43.2H43.2V39.6V36V32.4V28.8ZM72 28.8H75.6V32.4H72V28.8ZM86.4 32.4H82.8V28.8H86.4V32.4ZM64.8 36V39.6H61.2V36H64.8ZM68.4 36H64.8V32.4V28.8V25.2V21.6V18H68.4H72V21.6H68.4V25.2V28.8V32.4H72V36V39.6H68.4V36ZM57.6 39.6H61.2V43.2H57.6H54H50.4V39.6V36V32.4V28.8H46.8V25.2V21.6H43.2V18H46.8H50.4V21.6V25.2H54V28.8H57.6V25.2H54V21.6V18H57.6H61.2V21.6V25.2V28.8V32.4H57.6H54V36V39.6H57.6ZM68.4 39.6V43.2H64.8V39.6H68.4ZM75.6 43.2V46.8H79.2V50.4H82.8V54H86.4V50.4H90V54H93.6V50.4H97.2H100.8V46.8H97.2H93.6V43.2H90V39.6H93.6H97.2V36V32.4H93.6V36H90H86.4V39.6H82.8V36H79.2V39.6H75.6H72V43.2H75.6ZM82.8 43.2H86.4V46.8H82.8V43.2ZM97.2 43.2V39.6H100.8V36H104.4V39.6V43.2H108H111.6V39.6H108V36H111.6V32.4H108H104.4V28.8V25.2H108V28.8H111.6V25.2V21.6V18H115.2V21.6V25.2V28.8V32.4H118.8H122.4H126V28.8H129.6V32.4V36H133.2V32.4V28.8H129.6V25.2H126V21.6V18H129.6H133.2H136.8V21.6H133.2V25.2H136.8V28.8V32.4V36V39.6H133.2V43.2H136.8H140.4V46.8H136.8V50.4H140.4V54H136.8V57.6H140.4V54H144V57.6V61.2H140.4H136.8H133.2V57.6V54V50.4H129.6V46.8H126H122.4V43.2H126V39.6H122.4V43.2H118.8V39.6H115.2V43.2H118.8V46.8H122.4V50.4V54H118.8V50.4H115.2H111.6V54H115.2H118.8V57.6H122.4V54H126V57.6V61.2H122.4V64.8H118.8V68.4V72V75.6H115.2V72V68.4H111.6H108V64.8H111.6H115.2V61.2H111.6V57.6H108V61.2V64.8H104.4V61.2V57.6V54H108V50.4H104.4V46.8H100.8V43.2H97.2ZM25.2 50.4H21.6V46.8H18V43.2H21.6H25.2V46.8V50.4ZM61.2 46.8V50.4H57.6V46.8H61.2ZM68.4 50.4H64.8V46.8H68.4V43.2H72V46.8H75.6V50.4V54H72V50.4H68.4ZM140.4 50.4V46.8H144V50.4H140.4ZM126 50.4H129.6V54H126V50.4ZM39.6 57.6V61.2H36V57.6V54H39.6V57.6ZM61.2 61.2H57.6V57.6V54H61.2V50.4H64.8V54H68.4H72V57.6H68.4H64.8H61.2V61.2ZM86.4 57.6V54H90V57.6H93.6V54H97.2V57.6H100.8V61.2V64.8V68.4H97.2V64.8H93.6H90V61.2H86.4V57.6ZM158.4 57.6H162V61.2H158.4H154.8V57.6H151.2H147.6V54H151.2V50.4H147.6V46.8H151.2V43.2H154.8H158.4V46.8V50.4H154.8V54H158.4V57.6ZM21.6 64.8V68.4H18V64.8V61.2V57.6V54V50.4H21.6V54H25.2V50.4H28.8V46.8V43.2H32.4V46.8H36H39.6H43.2H46.8H50.4V50.4H46.8V54H50.4V57.6H46.8H43.2V54V50.4H39.6H36H32.4V54V57.6V61.2V64.8H36H39.6V61.2H43.2H46.8V64.8H43.2V68.4V72H39.6V75.6H36V72V68.4H32.4H28.8V64.8H25.2V61.2V57.6H21.6V61.2V64.8ZM50.4 61.2V57.6H54V61.2H57.6V64.8H61.2H64.8V61.2H68.4H72V57.6H75.6H79.2H82.8V61.2V64.8H79.2V61.2H75.6V64.8H72H68.4V68.4H64.8V72V75.6H61.2V72V68.4H57.6H54V64.8H50.4V61.2ZM133.2 61.2V64.8H129.6V61.2H133.2ZM46.8 64.8H50.4V68.4H46.8V64.8ZM154.8 64.8V68.4H151.2V72H147.6V68.4H144H140.4H136.8H133.2V64.8H136.8H140.4H144V61.2H147.6H151.2V64.8H154.8ZM158.4 64.8H162V68.4H158.4V64.8ZM25.2 72V75.6H21.6V72V68.4H25.2V72ZM104.4 68.4H108V72V75.6H111.6V79.2V82.8V86.4H115.2V90H111.6V93.6H115.2V97.2H111.6H108V93.6H104.4V90H108V86.4V82.8V79.2H104.4H100.8V75.6V72H104.4V68.4ZM154.8 68.4H158.4V72H154.8V68.4ZM32.4 75.6H28.8V72H32.4V75.6ZM75.6 75.6H72V72V68.4H75.6H79.2H82.8H86.4H90H93.6H97.2V72H93.6H90H86.4H82.8V75.6H79.2V72H75.6V75.6ZM144 72H147.6V75.6H151.2H154.8V79.2V82.8V86.4H151.2V82.8H147.6H144V79.2V75.6V72ZM46.8 79.2V82.8H43.2V79.2V75.6H46.8H50.4V79.2H46.8ZM54 75.6H50.4V72H54H57.6V75.6H61.2V79.2H57.6H54V75.6ZM72 75.6V79.2H68.4V75.6H72ZM118.8 79.2V75.6H122.4H126V72H122.4V68.4H126H129.6V72V75.6V79.2H133.2V82.8H129.6V86.4V90H126V86.4H122.4V82.8H126V79.2H122.4H118.8ZM54 79.2V82.8H50.4V79.2H54ZM68.4 79.2V82.8H64.8V79.2H68.4ZM90 82.8H86.4V79.2H90V82.8ZM97.2 82.8H93.6V79.2H97.2V82.8ZM140.4 82.8H144V86.4H140.4H136.8V82.8V79.2H133.2V75.6V72H136.8H140.4V75.6V79.2V82.8ZM158.4 79.2H162V82.8H158.4V79.2ZM46.8 82.8H50.4V86.4H46.8V82.8ZM61.2 82.8H64.8V86.4H61.2H57.6H54V82.8H57.6H61.2ZM72 82.8V86.4H68.4V82.8H72ZM86.4 86.4H82.8V82.8H86.4V86.4ZM118.8 86.4H115.2V82.8H118.8V86.4ZM21.6 86.4V90H18V86.4H21.6ZM104.4 90H100.8V86.4H104.4V90ZM118.8 86.4H122.4V90V93.6V97.2V100.8V104.4H118.8V108H115.2V104.4H111.6V108H108V104.4H104.4V100.8V97.2H108V100.8H111.6H115.2V97.2H118.8V93.6H115.2V90H118.8V86.4ZM144 90V86.4H147.6V90H144ZM25.2 93.6H21.6V90H25.2V86.4V82.8H21.6V79.2H25.2V75.6H28.8V79.2V82.8H32.4H36V86.4H32.4H28.8V90V93.6H25.2ZM57.6 93.6H54V90H57.6V93.6ZM140.4 90H144V93.6V97.2H140.4V93.6H136.8H133.2V90H136.8H140.4ZM154.8 90V86.4H158.4H162V90V93.6H158.4H154.8V90ZM28.8 93.6H32.4V97.2H28.8V93.6ZM82.8 97.2H79.2V93.6V90H75.6V93.6H72V90V86.4H75.6V82.8H72V79.2H75.6H79.2V82.8V86.4H82.8V90V93.6V97.2ZM90 93.6H93.6V97.2H90V93.6ZM104.4 93.6V97.2H100.8H97.2V93.6H93.6V90H90H86.4V86.4H90V82.8H93.6V86.4H97.2V90H100.8V93.6H104.4ZM129.6 93.6H133.2V97.2H129.6V93.6ZM21.6 100.8V104.4H18V100.8V97.2V93.6H21.6V97.2V100.8ZM25.2 97.2H28.8V100.8H25.2V97.2ZM90 97.2V100.8H86.4H82.8V97.2H86.4H90ZM126 97.2H129.6V100.8V104.4V108H126H122.4V104.4H126V100.8V97.2ZM144 100.8V97.2H147.6V93.6H151.2V97.2H154.8V100.8H151.2H147.6V104.4H144V108H140.4H136.8V104.4V100.8V97.2H140.4V100.8H144ZM32.4 108V111.6H28.8V108H25.2V111.6H28.8V115.2V118.8V122.4H25.2H21.6V118.8H18V115.2H21.6V111.6V108V104.4H25.2H28.8H32.4V108ZM104.4 108H100.8V104.4H104.4V108ZM43.2 111.6V115.2H39.6V111.6H36V108V104.4H32.4V100.8V97.2H36V93.6H32.4V90H36H39.6V86.4H43.2H46.8V90H43.2V93.6V97.2H39.6V100.8V104.4V108H43.2V111.6ZM108 108V111.6H104.4V108H108ZM118.8 108H122.4V111.6H118.8V108ZM129.6 111.6V108H133.2V111.6H129.6ZM154.8 108V111.6H151.2V115.2H147.6H144H140.4V111.6H144H147.6V108H151.2H154.8ZM158.4 108H154.8V104.4H158.4V100.8H162V104.4V108V111.6H158.4V108ZM32.4 111.6H36V115.2H32.4V111.6ZM61.2 111.6V108H64.8V111.6H68.4V115.2H64.8H61.2H57.6V111.6H61.2ZM122.4 111.6V115.2H118.8V111.6H115.2H111.6H108V115.2H111.6V118.8V122.4H108H104.4V118.8H100.8V115.2V111.6V108H97.2V104.4V100.8H93.6H90V104.4H93.6V108H90V111.6H86.4V115.2H90V118.8H86.4V115.2H82.8V118.8H79.2V115.2H82.8V111.6H79.2V108H82.8H86.4H90V104.4H86.4H82.8V100.8H79.2V97.2H75.6V100.8H72V97.2H68.4V93.6H64.8V90H61.2V93.6V97.2H57.6V100.8H54H50.4V104.4H46.8V108H50.4V111.6V115.2H54V111.6H57.6V108H61.2V104.4V100.8H64.8H68.4V104.4H72H75.6V108V111.6H72V115.2H75.6V118.8H72V122.4H75.6H79.2V126H82.8V122.4H86.4V126H90V122.4H93.6V118.8H97.2V122.4H93.6V126V129.6H90H86.4H82.8H79.2V133.2V136.8H82.8V133.2H86.4V136.8V140.4H82.8V144H79.2H75.6V140.4H72V144V147.6H68.4H64.8V151.2V154.8H68.4V151.2H72H75.6V147.6H79.2V151.2H82.8H86.4H90V147.6H93.6H97.2V151.2V154.8H100.8V151.2H104.4V147.6H100.8V144H104.4V140.4H100.8H97.2H93.6V136.8H90V133.2H93.6V136.8H97.2V133.2V129.6V126H100.8H104.4V129.6H100.8V133.2H104.4H108V129.6H111.6H115.2V126H118.8V129.6H115.2V133.2V136.8H111.6V140.4H115.2H118.8V144H122.4V140.4V136.8H126V140.4V144H129.6V147.6H133.2H136.8V144H140.4V140.4H136.8H133.2H129.6V136.8H133.2H136.8H140.4V140.4H144V136.8V133.2H140.4H136.8H133.2V129.6H129.6V133.2H126V129.6H122.4V126V122.4H126V118.8H129.6V122.4H126V126V129.6H129.6V126H133.2H136.8V122.4V118.8H133.2V115.2H129.6V111.6H126H122.4ZM97.2 115.2H93.6V111.6H97.2V115.2ZM158.4 111.6V115.2H154.8V111.6H158.4ZM46.8 118.8H43.2V115.2H46.8H50.4V118.8H46.8ZM54 115.2H57.6V118.8V122.4V126H54V122.4H50.4V118.8H54V115.2ZM104.4 115.2H108V118.8H104.4V115.2ZM68.4 118.8V122.4H64.8H61.2V118.8H64.8H68.4ZM18 122.4H21.6V126H25.2H28.8V129.6H32.4V133.2H28.8H25.2H21.6V136.8H18V133.2V129.6V126V122.4ZM36 122.4V126H32.4V122.4H36ZM46.8 122.4V126H43.2V129.6H39.6V133.2H36V129.6V126H39.6V122.4V118.8H43.2V122.4H46.8ZM68.4 122.4H72V126H75.6V129.6H72H68.4V126V122.4ZM147.6 126H144V122.4V118.8H147.6V122.4V126ZM136.8 129.6V126H140.4H144V129.6H140.4H136.8ZM57.6 129.6V126H61.2H64.8V129.6H61.2V133.2H57.6H54V136.8H50.4H46.8V133.2H50.4V129.6H46.8V126H50.4H54V129.6H57.6ZM39.6 136.8V133.2H43.2V136.8H39.6ZM68.4 136.8H64.8V133.2H68.4H72H75.6V136.8H72H68.4ZM108 136.8V133.2H111.6V136.8H108ZM154.8 136.8H151.2V133.2V129.6V126V122.4V118.8H154.8H158.4V115.2H162V118.8V122.4V126V129.6H158.4V126H154.8V129.6H158.4V133.2H154.8V136.8ZM158.4 136.8V133.2H162V136.8H158.4ZM64.8 140.4H61.2V136.8H64.8V140.4ZM108 140.4H104.4V136.8H108V140.4ZM151.2 140.4H147.6V136.8H151.2V140.4ZM154.8 136.8H158.4V140.4H162V144V147.6H158.4H154.8H151.2V144V140.4H154.8V136.8ZM54 140.4V136.8H57.6V140.4H61.2V144V147.6V151.2H57.6V147.6H54V151.2H57.6V154.8H54H50.4V158.4H46.8H43.2V154.8V151.2V147.6V144H46.8V147.6H50.4V144H46.8V140.4H50.4H54ZM64.8 144V140.4H68.4V144H64.8ZM144 144V140.4H147.6V144H144ZM108 147.6H104.4V144H108H111.6V147.6H108ZM115.2 144H118.8V147.6H115.2V144ZM126 147.6H129.6V151.2H126H122.4H118.8V147.6H122.4V144H126V147.6ZM140.4 144H144V147.6H140.4V144ZM129.6 154.8V151.2H133.2H136.8V154.8H140.4V158.4H144H147.6V154.8H144V151.2H147.6H151.2H154.8H158.4V154.8H154.8V158.4H158.4V162H154.8H151.2H147.6H144H140.4H136.8V158.4H133.2V154.8H129.6ZM79.2 158.4H82.8V162H79.2H75.6V158.4H72V162H68.4H64.8H61.2V158.4V154.8H64.8V158.4H68.4V154.8H72H75.6H79.2V158.4ZM90 154.8V151.2H93.6V154.8V158.4H90H86.4H82.8V154.8H86.4H90ZM104.4 154.8H108V158.4V162H104.4H100.8V158.4V154.8H104.4ZM158.4 158.4V154.8H162V158.4H158.4ZM54 158.4H57.6V162H54V158.4ZM93.6 162V158.4H97.2V162H93.6ZM129.6 158.4H133.2V162H129.6H126H122.4H118.8H115.2V158.4H111.6V154.8H108V151.2H111.6H115.2H118.8V154.8V158.4H122.4V154.8H126V158.4H129.6Z" fill="black"/>
</g>
<defs>
<clipPath id="clip0_91_414">
<rect width="180" height="180" rx="15" fill="white"/>
</clipPath>
</defs>
</svg>
