<svg width="76" height="90" viewBox="0 0 76 90" fill="none" xmlns="http://www.w3.org/2000/svg">
<path opacity="0.2" d="M56.3838 56.384C66.7638 46.004 66.7638 29.1747 56.3838 18.7947C46.0038 8.41477 29.1746 8.41477 18.7946 18.7947C8.41463 29.1747 8.41463 46.004 18.7946 56.384C29.1746 66.7639 46.0038 66.7639 56.3838 56.384Z" stroke="#252A30" stroke-width="2" stroke-miterlimit="10" stroke-linecap="round" stroke-dasharray="1 6"/>
<path d="M14.9739 38.9288L14.2081 38.7623C14.1498 38.5569 14.0689 38.361 13.9667 38.1784L14.3902 37.5194C14.4268 37.4625 14.4187 37.3876 14.3709 37.3398L13.7558 36.7248C13.708 36.677 13.6333 36.669 13.5762 36.7054L12.9174 37.129C12.7347 37.0266 12.5389 36.9458 12.3333 36.8874L12.1669 36.1215C12.1525 36.0553 12.0939 36.0083 12.0263 36.0083H11.1567C11.089 36.0083 11.0305 36.0555 11.0162 36.1215L10.8497 36.8874C10.6443 36.9457 10.4486 37.0266 10.2658 37.129L9.60685 36.7054C9.54974 36.669 9.47502 36.6768 9.4272 36.7248L8.81217 37.3398C8.76436 37.3876 8.75623 37.4623 8.79281 37.5194L9.21658 38.1784C9.11417 38.3612 9.03344 38.5569 8.97498 38.7623L8.20915 38.9288C8.14294 38.9431 8.0957 39.0016 8.0957 39.0693V39.9389C8.0957 40.0067 8.14294 40.0651 8.20915 40.0795L8.97498 40.2459C9.03325 40.4513 9.11417 40.6471 9.21638 40.8298L8.79262 41.4888C8.75603 41.5457 8.76416 41.6206 8.81198 41.6684L9.42701 42.2835C9.45469 42.3113 9.49167 42.3257 9.52884 42.3257C9.55575 42.3257 9.58265 42.3181 9.60666 42.3028L10.2656 41.8791C10.4484 41.9815 10.6441 42.0622 10.8495 42.1205L11.016 42.8863C11.0303 42.9523 11.0888 42.9995 11.1565 42.9995H12.0261C12.0939 42.9995 12.1523 42.9523 12.1667 42.8863L12.3332 42.1205C12.5386 42.0622 12.7345 41.9813 12.917 41.8791L13.576 42.3028C13.5998 42.3181 13.6269 42.3257 13.6538 42.3257C13.691 42.3257 13.728 42.3113 13.7556 42.2835L14.3707 41.6684C14.4185 41.6206 14.4266 41.5459 14.39 41.4888L13.9665 40.8298C14.0689 40.6471 14.1496 40.4513 14.2079 40.2459L14.9737 40.0795C15.0399 40.0651 15.0869 40.0065 15.0869 39.9389V39.0693C15.0873 39.0018 15.0401 38.9431 14.9739 38.9288ZM12.2755 39.5043C12.2755 39.8814 11.9688 40.1881 11.5917 40.1881C11.2146 40.1881 10.908 39.8814 10.908 39.5043C10.908 39.1274 11.2146 38.8206 11.5917 38.8206C11.9688 38.8206 12.2755 39.1272 12.2755 39.5043Z" fill="#148C00"/>
<path d="M67.6017 43.2951L67.144 43.1956C67.1092 43.0729 67.061 42.9559 66.9998 42.8468L67.253 42.453C67.2749 42.4189 67.2701 42.3742 67.2414 42.3457L66.874 41.9783C66.8455 41.9497 66.8008 41.945 66.7667 41.9667L66.373 42.2199C66.2638 42.1587 66.1469 42.1105 66.0241 42.0757L65.9246 41.6181C65.9161 41.5786 65.8811 41.5503 65.8406 41.5503H65.321C65.2806 41.5503 65.2455 41.5786 65.237 41.6181L65.1375 42.0757C65.0148 42.1105 64.8978 42.1587 64.7886 42.2199L64.3949 41.9667C64.3608 41.9448 64.3161 41.9497 64.2876 41.9783L63.9202 42.3457C63.8916 42.3744 63.8867 42.4189 63.9086 42.453L64.1618 42.8468C64.1006 42.9559 64.0524 43.0729 64.0176 43.1956L63.5599 43.2951C63.5204 43.3036 63.4922 43.3387 63.4922 43.3791V43.8987C63.4922 43.9392 63.5204 43.9742 63.5599 43.9827L64.0176 44.0822C64.0524 44.205 64.1006 44.3219 64.1618 44.4311L63.9086 44.8248C63.8867 44.8589 63.8916 44.9036 63.9202 44.9321L64.2876 45.2995C64.3043 45.3162 64.3262 45.3247 64.3484 45.3247C64.3645 45.3247 64.3806 45.3202 64.3949 45.3109L64.7886 45.0577C64.8978 45.1189 65.0148 45.1671 65.1375 45.2019L65.237 45.6596C65.2455 45.6991 65.2806 45.7273 65.321 45.7273H65.8406C65.8811 45.7273 65.9161 45.6991 65.9246 45.6596L66.0241 45.2019C66.1469 45.1671 66.2638 45.1189 66.373 45.0577L66.7667 45.3109C66.7811 45.32 66.7971 45.3247 66.8132 45.3247C66.8355 45.3247 66.8575 45.3162 66.874 45.2995L67.2414 44.9321C67.2701 44.9034 67.2749 44.8589 67.253 44.8248L66.9998 44.4311C67.061 44.3219 67.1092 44.205 67.144 44.0822L67.6017 43.9827C67.6412 43.9742 67.6694 43.9392 67.6694 43.8987V43.3791C67.6694 43.3387 67.6412 43.3036 67.6017 43.2951ZM65.9893 43.6389C65.9893 43.8643 65.8059 44.0474 65.5808 44.0474C65.3555 44.0474 65.1723 43.8641 65.1723 43.6389C65.1723 43.4136 65.3557 43.2304 65.5808 43.2304C65.8059 43.2304 65.9893 43.4136 65.9893 43.6389Z" fill="url(#paint0_linear_212_2717)"/>
<path d="M16.1044 34.0179C16.119 33.9319 16.1283 33.8442 16.1283 33.7542C16.1283 33.6642 16.119 33.5765 16.1044 33.4906L16.4283 33.1963C16.505 33.1266 16.5228 33.0128 16.4711 32.9232L16.2299 32.5052C16.178 32.4156 16.0704 32.3739 15.972 32.4055L15.556 32.5387C15.4209 32.4266 15.266 32.3379 15.0986 32.2756L15.0056 31.8478C14.9838 31.7465 14.8939 31.6743 14.7904 31.6743H14.3077C14.2042 31.6743 14.1145 31.7465 14.0927 31.8478L13.9997 32.2756C13.8323 32.3381 13.6774 32.4266 13.5423 32.5387L13.1263 32.4055C13.0277 32.3739 12.9203 32.4154 12.8686 32.5052L12.6272 32.9232C12.5753 33.0128 12.5931 33.1266 12.6698 33.1963L12.9937 33.4906C12.9792 33.5765 12.9699 33.6642 12.9699 33.7542C12.9699 33.8442 12.9792 33.9319 12.9937 34.0179L12.6698 34.3122C12.5931 34.3818 12.5753 34.4957 12.6272 34.5853L12.8686 35.0033C12.9087 35.0728 12.9822 35.1134 13.0593 35.1134C13.0818 35.1134 13.1042 35.1101 13.1265 35.103L13.5425 34.9698C13.6776 35.0819 13.8325 35.1705 13.9999 35.2329L14.0929 35.6607C14.1147 35.7619 14.2046 35.8341 14.3079 35.8341H14.7906C14.8941 35.8341 14.9838 35.7619 15.0058 35.6607L15.0987 35.2329C15.2662 35.1703 15.4211 35.0819 15.5562 34.9698L15.9722 35.103C15.9943 35.1101 16.0169 35.1134 16.0392 35.1134C16.1162 35.1134 16.1898 35.0729 16.2299 35.0033L16.4711 34.5853C16.5228 34.4957 16.5052 34.3818 16.4283 34.3122L16.1044 34.0179ZM14.549 34.4527C14.1637 34.4527 13.8505 34.1393 13.8505 33.7542C13.8505 33.369 14.1639 33.0558 14.549 33.0558C14.9342 33.0558 15.2474 33.3692 15.2474 33.7542C15.2474 34.1395 14.9342 34.4527 14.549 34.4527Z" fill="white"/>
<path d="M40.0017 10.6453C40.0162 10.5594 40.0255 10.4717 40.0255 10.3817C40.0255 10.2917 40.0162 10.204 40.0017 10.118L40.3256 9.82375C40.4022 9.75406 40.42 9.64023 40.3684 9.5506L40.1272 9.13264C40.0753 9.04301 39.9676 9.00139 39.8693 9.03294L39.4533 9.16613C39.3181 9.05404 39.1633 8.96538 38.9958 8.90304L38.9029 8.47521C38.881 8.37397 38.7912 8.30176 38.6878 8.30176H38.2052C38.1016 8.30176 38.012 8.37397 37.9901 8.47521L37.8972 8.90304C37.7298 8.96557 37.5749 9.05404 37.4398 9.16613L37.0237 9.03294C36.9252 9.00139 36.8178 9.04281 36.7661 9.13264L36.5247 9.5506C36.4728 9.64023 36.4906 9.75406 36.5673 9.82375L36.8911 10.118C36.8766 10.204 36.8673 10.2917 36.8673 10.3817C36.8673 10.4717 36.8766 10.5594 36.8911 10.6453L36.5673 10.9396C36.4906 11.0093 36.4728 11.1231 36.5247 11.2127L36.7661 11.6307C36.8061 11.7002 36.8797 11.7409 36.9568 11.7409C36.979 11.7409 37.0017 11.7376 37.0239 11.7304L37.44 11.5972C37.5751 11.7093 37.7299 11.798 37.8974 11.8603L37.9903 12.2881C38.0122 12.3894 38.102 12.4616 38.2054 12.4616H38.688C38.7916 12.4616 38.8812 12.3894 38.9031 12.2881L38.996 11.8603C39.1635 11.7978 39.3183 11.7093 39.4535 11.5972L39.8695 11.7304C39.8916 11.7376 39.9142 11.7409 39.9367 11.7409C40.0137 11.7409 40.0873 11.7004 40.1273 11.6307L40.3686 11.2127C40.4202 11.1231 40.4026 11.0093 40.3258 10.9396L40.0017 10.6453ZM38.4462 11.0801C38.061 11.0801 37.7478 10.7669 37.7478 10.3817C37.7478 9.99662 38.061 9.6832 38.4462 9.6832C38.8313 9.6832 39.1447 9.99662 39.1447 10.3817C39.1447 10.7669 38.8313 11.0801 38.4462 11.0801Z" fill="url(#paint1_linear_212_2717)"/>
<path d="M61.8828 29.2772L61.6071 29.2174C61.5746 29.1044 61.53 28.9963 61.4739 28.8955L61.6263 28.6585C61.6629 28.6016 61.6549 28.5267 61.6069 28.4789L61.2906 28.1626C61.2428 28.1147 61.168 28.1068 61.1109 28.1432L60.874 28.2955C60.7731 28.2394 60.6651 28.1949 60.552 28.1624L60.492 27.8867C60.4777 27.8205 60.419 27.7734 60.3515 27.7734H59.9041C59.8365 27.7734 59.7779 27.8207 59.7636 27.8867L59.7037 28.1624C59.5907 28.1949 59.4827 28.2392 59.3818 28.2955L59.1448 28.1432C59.0879 28.1068 59.013 28.1145 58.9652 28.1626L58.6489 28.4789C58.6011 28.5267 58.5929 28.6014 58.6295 28.6585L58.7819 28.8955C58.7257 28.9963 58.6812 29.1044 58.6487 29.2174L58.3732 29.2772C58.307 29.2916 58.2598 29.3502 58.2598 29.4178V29.8652C58.2598 29.9329 58.307 29.9914 58.3732 30.0057L58.6487 30.0655C58.6812 30.1786 58.7257 30.2866 58.7819 30.3875L58.6295 30.6244C58.5929 30.6813 58.6011 30.7562 58.6489 30.8041L58.9652 31.1204C58.9929 31.1483 59.0299 31.1626 59.067 31.1626C59.0939 31.1626 59.1208 31.155 59.1448 31.1397L59.3818 30.9874C59.4827 31.0435 59.5907 31.0881 59.7037 31.1206L59.7636 31.3962C59.7779 31.4625 59.8365 31.5095 59.9041 31.5095H60.3515C60.4192 31.5095 60.4777 31.4623 60.492 31.3962L60.552 31.1206C60.6651 31.0881 60.7731 31.0435 60.874 30.9874L61.1109 31.1397C61.1347 31.155 61.1618 31.1626 61.1888 31.1626C61.2259 31.1626 61.2629 31.1483 61.2906 31.1204L61.6069 30.8041C61.6549 30.7562 61.6629 30.6815 61.6263 30.6244L61.4739 30.3875C61.53 30.2866 61.5746 30.1786 61.6071 30.0655L61.8828 30.0055C61.9488 29.9912 61.996 29.9325 61.996 29.865V29.4176C61.9962 29.3502 61.949 29.2916 61.8828 29.2772ZM61.0923 29.6416C61.0923 30.1734 60.6597 30.606 60.1281 30.606C59.5963 30.606 59.1636 30.1734 59.1636 29.6416C59.1636 29.11 59.5963 28.6773 60.1281 28.6773C60.6597 28.6771 61.0923 29.1098 61.0923 29.6416Z" fill="#148C00"/>
<path d="M42.5028 8.03732L42.3464 8.00325C42.328 7.93897 42.3026 7.8778 42.2709 7.8205L42.3574 7.68596C42.3781 7.65363 42.3737 7.61123 42.3464 7.58393L42.1667 7.40428C42.1396 7.37718 42.097 7.37273 42.0647 7.39325L41.9301 7.47978C41.8728 7.44784 41.8117 7.42268 41.7474 7.40428L41.7133 7.24787C41.7052 7.21031 41.6719 7.18359 41.6336 7.18359H41.3796C41.3412 7.18359 41.308 7.2105 41.2998 7.24787L41.2657 7.40428C41.2015 7.42268 41.1403 7.44803 41.083 7.47978L40.9485 7.39325C40.9161 7.37254 40.8735 7.37699 40.8464 7.40428L40.667 7.58393C40.6399 7.61104 40.6352 7.65363 40.6559 7.68596L40.7425 7.8205C40.7105 7.8778 40.6854 7.93897 40.667 8.00325L40.5106 8.03732C40.473 8.04545 40.4463 8.07875 40.4463 8.11708V8.37106C40.4463 8.40939 40.4732 8.44269 40.5106 8.45082L40.667 8.48489C40.6854 8.54916 40.7107 8.61034 40.7425 8.66764L40.6559 8.80218C40.6352 8.83451 40.6397 8.87691 40.667 8.90421L40.8464 9.08386C40.8621 9.09973 40.8832 9.10786 40.9043 9.10786C40.9196 9.10786 40.9349 9.1036 40.9485 9.09489L41.083 9.00836C41.1403 9.0403 41.2015 9.06546 41.2657 9.08386L41.2998 9.24027C41.308 9.27783 41.3412 9.30455 41.3796 9.30455H41.6336C41.6719 9.30455 41.7052 9.27764 41.7133 9.24027L41.7474 9.08386C41.8117 9.06546 41.8728 9.0403 41.9301 9.00836L42.0647 9.09489C42.0782 9.1036 42.0935 9.10786 42.1088 9.10786C42.1299 9.10786 42.1508 9.09973 42.1667 9.08386L42.3464 8.90421C42.3737 8.8771 42.3781 8.83451 42.3574 8.80218L42.2709 8.66764C42.3028 8.61034 42.328 8.54916 42.3464 8.48489L42.5028 8.45082C42.5403 8.44269 42.5671 8.40939 42.5671 8.37106V8.11708C42.5671 8.07875 42.5403 8.04545 42.5028 8.03732ZM42.054 8.24407C42.054 8.54587 41.8086 8.79154 41.5068 8.79154C41.205 8.79154 40.9593 8.54607 40.9593 8.24407C40.9593 7.94227 41.2048 7.6968 41.5068 7.6968C41.8086 7.6968 42.054 7.94246 42.054 8.24407Z" fill="#FFCB02"/>
<path d="M64.5897 50.4392L63.4154 49.2649C63.241 49.0907 63.009 48.9947 62.7626 48.9947C62.7349 48.9947 62.7084 49.0003 62.6811 49.0026L62.4925 48.814C62.5295 48.7637 62.5508 48.7031 62.5508 48.6398C62.5508 48.5616 62.5197 48.4867 62.4645 48.4313L62.1087 48.0755C62.7132 46.9593 62.5452 45.5354 61.6017 44.5921C60.4515 43.442 58.5869 43.442 57.4368 44.5921C56.2867 45.7422 56.2867 47.6068 57.4368 48.7569C58.3803 49.7005 59.804 49.8685 60.9202 49.2639L61.2758 49.6197C61.3312 49.6749 61.4059 49.7061 61.4843 49.7061C61.5476 49.7061 61.6082 49.6848 61.6586 49.6478L61.8471 49.8364C61.8448 49.8637 61.8392 49.8902 61.8392 49.9179C61.8392 50.1645 61.9352 50.3964 62.1096 50.5707L63.2837 51.745C63.4638 51.9248 63.7002 52.0148 63.9365 52.0148C64.1729 52.0148 64.4095 51.9248 64.5895 51.745C64.9496 51.3849 64.9496 50.7993 64.5897 50.4392ZM57.9475 48.2462C57.0794 47.3782 57.0794 45.9706 57.9475 45.1026C58.8155 44.2345 60.2231 44.2345 61.0912 45.1026C61.9592 45.9706 61.9592 47.3782 61.0912 48.2462C60.2231 49.1145 58.8155 49.1145 57.9475 48.2462ZM64.1729 51.328C64.043 51.4577 63.8312 51.4581 63.7009 51.328L62.5268 50.1539C62.4639 50.0908 62.429 50.0069 62.429 49.9179C62.429 49.8288 62.4639 49.745 62.5268 49.6819C62.5897 49.619 62.6736 49.5841 62.7628 49.5841C62.8518 49.5841 62.9357 49.6188 62.9988 49.6819L64.1729 50.856C64.3028 50.9861 64.3028 51.1979 64.1729 51.328Z" fill="#FFD306"/>
<path d="M58.3594 45.5151C59 44.8745 60.0384 44.8745 60.6788 45.5151" stroke="white" stroke-miterlimit="10" stroke-linecap="round" stroke-linejoin="round"/>
<path d="M18.3221 21.1685H14.8444C13.7001 21.1685 12.7725 22.0961 12.7725 23.2404C12.7725 24.3847 13.7001 25.3124 14.8444 25.3124H18.3221C18.3553 25.3124 18.3879 25.3089 18.4208 25.3074L19.041 26.1139V25.1817C19.8303 24.8892 20.394 24.1317 20.394 23.2406C20.394 22.0961 19.4664 21.1685 18.3221 21.1685Z" fill="#148C00"/>
<path d="M20.3484 24.752L20.2289 33.5451H18.843L18.7236 24.752H20.3484ZM19.536 37.0814C19.2413 37.0814 18.9884 36.9759 18.7773 36.7648C18.5663 36.5538 18.4607 36.3009 18.4607 36.0062C18.4607 35.7115 18.5663 35.4586 18.7773 35.2475C18.9884 35.0365 19.2413 34.9309 19.536 34.9309C19.8307 34.9309 20.0835 35.0365 20.2946 35.2475C20.5057 35.4586 20.6112 35.7115 20.6112 36.0062C20.6112 36.2013 20.5614 36.3805 20.4619 36.5438C20.3663 36.7071 20.2369 36.8385 20.0736 36.9381C19.9143 37.0336 19.7351 37.0814 19.536 37.0814ZM20.3245 53.5451V53.4734C20.3324 52.7128 20.4121 52.1074 20.5634 51.6574C20.7147 51.2074 20.9298 50.843 21.2086 50.5643C21.4873 50.2855 21.8218 50.0287 22.2121 49.7937C22.4471 49.6503 22.6581 49.4811 22.8453 49.2859C23.0325 49.0868 23.1798 48.8578 23.2874 48.599C23.3989 48.3401 23.4546 48.0534 23.4546 47.7388C23.4546 47.3485 23.363 47.01 23.1798 46.7233C22.9966 46.4366 22.7517 46.2155 22.4451 46.0602C22.1384 45.9049 21.7979 45.8273 21.4236 45.8273C21.0971 45.8273 20.7824 45.895 20.4798 46.0304C20.1771 46.1658 19.9242 46.3788 19.7211 46.6695C19.518 46.9602 19.4006 47.3406 19.3687 47.8105H17.8634C17.8952 47.1335 18.0705 46.554 18.389 46.0722C18.7116 45.5903 19.1357 45.2219 19.6614 44.9671C20.1911 44.7122 20.7785 44.5848 21.4236 44.5848C22.1245 44.5848 22.7338 44.7241 23.2515 45.0029C23.7732 45.2817 24.1754 45.664 24.4582 46.1498C24.7449 46.6357 24.8883 47.1892 24.8883 47.8105C24.8883 48.2485 24.8206 48.6448 24.6852 48.9992C24.5537 49.3536 24.3626 49.6702 24.1117 49.949C23.8648 50.2278 23.5661 50.4747 23.2157 50.6897C22.8652 50.9088 22.5845 51.1397 22.3734 51.3827C22.1623 51.6216 22.009 51.9063 21.9134 52.2369C21.8179 52.5674 21.7661 52.9796 21.7581 53.4734V53.5451H20.3245ZM21.0891 57.0814C20.7944 57.0814 20.5415 56.9759 20.3304 56.7648C20.1194 56.5538 20.0138 56.3009 20.0138 56.0062C20.0138 55.7115 20.1194 55.4586 20.3304 55.2475C20.5415 55.0365 20.7944 54.9309 21.0891 54.9309C21.3838 54.9309 21.6367 55.0365 21.8477 55.2475C22.0588 55.4586 22.1643 55.7115 22.1643 56.0062C22.1643 56.2013 22.1145 56.3805 22.015 56.5438C21.9194 56.7071 21.79 56.8385 21.6267 56.9381C21.4674 57.0336 21.2882 57.0814 21.0891 57.0814Z" fill="#660193"/>
<path d="M14.9773 27.3837H11.4997C10.3554 27.3837 9.42773 26.456 9.42773 25.3117C9.42773 24.1674 10.3554 23.2397 11.4997 23.2397H14.9773C16.1216 23.2397 17.0493 24.1674 17.0493 25.3117C17.0493 26.456 16.1216 27.3837 14.9773 27.3837Z" fill="#FFCB02"/>
<path d="M15.0951 25.3122C15.0951 25.5128 14.9327 25.6752 14.7321 25.6752C14.5316 25.6752 14.3691 25.5128 14.3691 25.3122C14.3691 25.1116 14.5318 24.9492 14.7321 24.9492C14.9327 24.9492 15.0951 25.1118 15.0951 25.3122Z" fill="white"/>
<path d="M13.6019 25.3122C13.6019 25.5128 13.4393 25.6752 13.239 25.6752C13.0384 25.6752 12.876 25.5128 12.876 25.3122C12.876 25.1116 13.0384 24.9492 13.239 24.9492C13.4395 24.9492 13.6019 25.1118 13.6019 25.3122Z" fill="white"/>
<path d="M12.1078 25.3122C12.1078 25.5128 11.9452 25.6752 11.7448 25.6752C11.5443 25.6752 11.3818 25.5128 11.3818 25.3122C11.3818 25.1116 11.5444 24.9492 11.7448 24.9492C11.9454 24.9492 12.1078 25.1118 12.1078 25.3122Z" fill="white"/>
<path d="M65.0461 19.061H57.7593C57.3885 19.061 57.0879 19.3617 57.0879 19.7324V23.6382C57.0879 24.009 57.3885 24.3096 57.7593 24.3096H58.1724V25.4336L59.2963 24.3096H65.0461C65.417 24.3096 65.7175 24.009 65.7175 23.6382V19.7324C65.7177 19.3617 65.417 19.061 65.0461 19.061Z" fill="#FFCB02"/>
<path d="M16.6687 15.6152H12.848C12.6537 15.6152 12.4961 15.7728 12.4961 15.9674V18.0151C12.4961 18.2095 12.6537 18.3671 12.848 18.3671H13.0647V18.9564L13.6539 18.3671H16.6685C16.8629 18.3671 17.0204 18.2095 17.0204 18.0151V15.9674C17.0206 15.773 16.8631 15.6152 16.6687 15.6152Z" fill="url(#paint2_linear_212_2717)"/>
<path d="M66.9091 36.3721C67.1846 37.4634 66.5233 38.5715 65.432 38.8472C64.3406 39.1228 63.2327 38.4613 62.957 37.3701C62.6815 36.2788 63.3428 35.1707 64.4341 34.8951C65.5253 34.6194 66.6334 35.2807 66.9091 36.3721Z" fill="white"/>
<path d="M64.4341 34.895C63.3428 35.1705 62.6815 36.2786 62.957 37.37L66.9091 36.3721C66.6334 35.2808 65.5253 34.6195 64.4341 34.895Z" fill="white"/>
<path d="M52.9062 21.4373L50.0692 16.5798L49.7798 17.7556C46.3709 15.5795 42.3824 14.3955 38.3048 14.3955C35.5935 14.3955 32.9512 14.8979 30.4512 15.8885L31.2759 17.9691C33.512 17.0829 35.8769 16.6336 38.3048 16.6336C41.8839 16.6336 45.3865 17.652 48.3982 19.5279L47.4472 20.0804L52.9062 21.4373Z" fill="#FFD306"/>
<path d="M27.6646 13.2434L27.3349 13.079C26.8287 12.8266 26.2373 12.271 26.2373 11.5361C26.2373 11.128 26.568 10.7974 26.976 10.7974C27.2895 10.7974 27.5572 10.9925 27.6646 11.2678C27.7721 10.9923 28.0398 10.7974 28.3532 10.7974C28.7613 10.7974 29.092 11.1282 29.092 11.5361C29.092 12.271 28.5005 12.8266 27.9943 13.079L27.6646 13.2434Z" fill="white"/>
<path d="M8.09544 45.4474L7.84552 45.3229C7.46183 45.1314 7.01367 44.7106 7.01367 44.1536C7.01367 43.8444 7.26437 43.5938 7.57353 43.5938C7.81106 43.5938 8.01394 43.7417 8.09544 43.9503C8.17694 43.7417 8.37982 43.5938 8.61736 43.5938C8.92652 43.5938 9.17721 43.8444 9.17721 44.1536C9.17721 44.7106 8.72906 45.1316 8.34517 45.3229L8.09544 45.4474Z" fill="#FFCB02"/>
<path d="M64.6986 56.2744L64.4543 56.1526C64.0789 55.9654 63.6406 55.5537 63.6406 55.0091C63.6406 54.7067 63.8857 54.4614 64.1883 54.4614C64.4206 54.4614 64.619 54.606 64.6988 54.8101C64.7783 54.606 64.9768 54.4614 65.2091 54.4614C65.5115 54.4614 65.7567 54.7067 65.7567 55.0091C65.7567 55.5537 65.3185 55.9654 64.9431 56.1526L64.6986 56.2744Z" fill="white"/>
<path d="M48.0537 10.5597C47.4143 9.5743 46.0973 9.29398 45.1119 9.93321C44.1265 10.5726 43.8462 11.8896 44.4855 12.875C45.1249 13.8603 46.4419 14.1407 47.4272 13.5014C48.4128 12.862 48.6931 11.5448 48.0537 10.5597Z" fill="white"/>
<path d="M24.58 15.1593C23.9406 14.1739 22.6236 13.8936 21.6383 14.5328C20.6529 15.1722 20.3726 16.4892 21.0118 17.4746C21.6512 18.4599 22.9682 18.7403 23.9536 18.101C24.939 17.4618 25.2195 16.1446 24.58 15.1593Z" fill="#FFCB02"/>
<path d="M8.51632 29.9358C8.30222 29.606 7.86142 29.5121 7.53154 29.7262C7.20167 29.9403 7.10778 30.3811 7.32189 30.711C7.53599 31.0408 7.97679 31.1347 8.30667 30.9206C8.63654 30.7065 8.73043 30.2655 8.51632 29.9358Z" fill="url(#paint3_linear_212_2717)"/>
<path d="M33.7507 12.2083C33.5366 11.8784 33.0958 11.7845 32.7659 11.9986C32.436 12.2128 32.3422 12.6536 32.5563 12.9834C32.7704 13.3133 33.2112 13.4072 33.541 13.1931C33.8709 12.979 33.9648 12.5382 33.7507 12.2083Z" fill="#FFCB02"/>
<path d="M59.3896 38.9736V39.2656" stroke="#DD9AF0" stroke-miterlimit="10" stroke-linecap="round" stroke-linejoin="round"/>
<path d="M59.3896 41.1704V41.4623" stroke="#DD9AF0" stroke-miterlimit="10" stroke-linecap="round" stroke-linejoin="round"/>
<path d="M58.7686 39.1401L58.9145 39.393" stroke="#DD9AF0" stroke-miterlimit="10" stroke-linecap="round" stroke-linejoin="round"/>
<path d="M59.8662 41.043L60.0122 41.2958" stroke="#DD9AF0" stroke-miterlimit="10" stroke-linecap="round" stroke-linejoin="round"/>
<path d="M58.3125 39.5957L58.5653 39.7417" stroke="#DD9AF0" stroke-miterlimit="10" stroke-linecap="round" stroke-linejoin="round"/>
<path d="M60.2148 40.6943L60.4677 40.8403" stroke="#DD9AF0" stroke-miterlimit="10" stroke-linecap="round" stroke-linejoin="round"/>
<path d="M58.1455 40.2178H58.4374" stroke="#DD9AF0" stroke-miterlimit="10" stroke-linecap="round" stroke-linejoin="round"/>
<path d="M60.3428 40.2178H60.6347" stroke="#DD9AF0" stroke-miterlimit="10" stroke-linecap="round" stroke-linejoin="round"/>
<path d="M58.3125 40.8403L58.5653 40.6943" stroke="#DD9AF0" stroke-miterlimit="10" stroke-linecap="round" stroke-linejoin="round"/>
<path d="M60.2148 39.7417L60.4677 39.5957" stroke="#DD9AF0" stroke-miterlimit="10" stroke-linecap="round" stroke-linejoin="round"/>
<path d="M58.7686 41.2958L58.9145 41.043" stroke="#DD9AF0" stroke-miterlimit="10" stroke-linecap="round" stroke-linejoin="round"/>
<path d="M59.8662 39.393L60.0122 39.1401" stroke="#DD9AF0" stroke-miterlimit="10" stroke-linecap="round" stroke-linejoin="round"/>
<path d="M15.418 56.7998V57.0917" stroke="#DD9AF0" stroke-miterlimit="10" stroke-linecap="round" stroke-linejoin="round"/>
<path d="M15.418 58.9966V59.2885" stroke="#DD9AF0" stroke-miterlimit="10" stroke-linecap="round" stroke-linejoin="round"/>
<path d="M14.7959 56.9663L14.9419 57.2191" stroke="#DD9AF0" stroke-miterlimit="10" stroke-linecap="round" stroke-linejoin="round"/>
<path d="M15.8945 58.8691L16.0405 59.122" stroke="#DD9AF0" stroke-miterlimit="10" stroke-linecap="round" stroke-linejoin="round"/>
<path d="M14.3408 57.4219L14.5936 57.5678" stroke="#DD9AF0" stroke-miterlimit="10" stroke-linecap="round" stroke-linejoin="round"/>
<path d="M16.2432 58.5205L16.496 58.6665" stroke="#DD9AF0" stroke-miterlimit="10" stroke-linecap="round" stroke-linejoin="round"/>
<path d="M14.1738 58.0439H14.4658" stroke="#DD9AF0" stroke-miterlimit="10" stroke-linecap="round" stroke-linejoin="round"/>
<path d="M16.3711 58.0439H16.663" stroke="#DD9AF0" stroke-miterlimit="10" stroke-linecap="round" stroke-linejoin="round"/>
<path d="M14.3408 58.6665L14.5936 58.5205" stroke="#DD9AF0" stroke-miterlimit="10" stroke-linecap="round" stroke-linejoin="round"/>
<path d="M16.2432 57.5678L16.496 57.4219" stroke="#DD9AF0" stroke-miterlimit="10" stroke-linecap="round" stroke-linejoin="round"/>
<path d="M14.7959 59.122L14.9419 58.8691" stroke="#DD9AF0" stroke-miterlimit="10" stroke-linecap="round" stroke-linejoin="round"/>
<path d="M15.8945 57.2191L16.0405 56.9663" stroke="#DD9AF0" stroke-miterlimit="10" stroke-linecap="round" stroke-linejoin="round"/>
<path d="M17.166 28.8384V29.0151" stroke="#FFD002" stroke-miterlimit="10" stroke-linecap="round" stroke-linejoin="round"/>
<path d="M17.166 29.7202V29.8968" stroke="#FFD002" stroke-miterlimit="10" stroke-linecap="round" stroke-linejoin="round"/>
<path d="M16.708 29.103L16.8609 29.1913" stroke="#FFD002" stroke-miterlimit="10" stroke-linecap="round" stroke-linejoin="round"/>
<path d="M17.4717 29.5439L17.6248 29.6322" stroke="#FFD002" stroke-miterlimit="10" stroke-linecap="round" stroke-linejoin="round"/>
<path d="M16.708 29.6322L16.8609 29.5439" stroke="#FFD002" stroke-miterlimit="10" stroke-linecap="round" stroke-linejoin="round"/>
<path d="M17.4717 29.1913L17.6248 29.103" stroke="#FFD002" stroke-miterlimit="10" stroke-linecap="round" stroke-linejoin="round"/>
<path d="M54.1436 19.0054V19.1821" stroke="#FFD002" stroke-miterlimit="10" stroke-linecap="round" stroke-linejoin="round"/>
<path d="M54.1436 19.8872V20.0638" stroke="#FFD002" stroke-miterlimit="10" stroke-linecap="round" stroke-linejoin="round"/>
<path d="M53.6855 19.27L53.8385 19.3583" stroke="#FFD002" stroke-miterlimit="10" stroke-linecap="round" stroke-linejoin="round"/>
<path d="M54.4492 19.7109L54.6024 19.7992" stroke="#FFD002" stroke-miterlimit="10" stroke-linecap="round" stroke-linejoin="round"/>
<path d="M53.6855 19.7992L53.8385 19.7109" stroke="#FFD002" stroke-miterlimit="10" stroke-linecap="round" stroke-linejoin="round"/>
<path d="M54.4492 19.3583L54.6024 19.27" stroke="#FFD002" stroke-miterlimit="10" stroke-linecap="round" stroke-linejoin="round"/>
<path d="M66.8584 32.5264V32.7031" stroke="white" stroke-miterlimit="10" stroke-linecap="round" stroke-linejoin="round"/>
<path d="M66.8584 33.4082V33.585" stroke="white" stroke-miterlimit="10" stroke-linecap="round" stroke-linejoin="round"/>
<path d="M66.4004 32.7905L66.5533 32.8788" stroke="white" stroke-miterlimit="10" stroke-linecap="round" stroke-linejoin="round"/>
<path d="M67.1631 33.2319L67.316 33.3202" stroke="white" stroke-miterlimit="10" stroke-linecap="round" stroke-linejoin="round"/>
<path d="M66.4004 33.3202L66.5533 33.2319" stroke="white" stroke-miterlimit="10" stroke-linecap="round" stroke-linejoin="round"/>
<path d="M67.1631 32.8788L67.316 32.7905" stroke="white" stroke-miterlimit="10" stroke-linecap="round" stroke-linejoin="round"/>
<path d="M58.4131 15.9531V16.1957" stroke="#F28090" stroke-miterlimit="10" stroke-linecap="round" stroke-linejoin="round"/>
<path d="M58.4131 17.1646V17.4073" stroke="#F28090" stroke-miterlimit="10" stroke-linecap="round" stroke-linejoin="round"/>
<path d="M57.7832 16.3169L57.9934 16.4381" stroke="#F28090" stroke-miterlimit="10" stroke-linecap="round" stroke-linejoin="round"/>
<path d="M58.833 16.9224L59.0432 17.0437" stroke="#F28090" stroke-miterlimit="10" stroke-linecap="round" stroke-linejoin="round"/>
<path d="M57.7832 17.0437L57.9934 16.9224" stroke="#F28090" stroke-miterlimit="10" stroke-linecap="round" stroke-linejoin="round"/>
<path d="M58.833 16.4381L59.0432 16.3169" stroke="#F28090" stroke-miterlimit="10" stroke-linecap="round" stroke-linejoin="round"/>
<path d="M31.0362 8.6055C30.9828 8.6055 30.9395 8.56213 30.9395 8.5087V8.46398C30.9395 8.41055 30.9828 8.36719 31.0362 8.36719C31.0897 8.36719 31.133 8.41055 31.133 8.46398V8.5087C31.133 8.56232 31.0897 8.6055 31.0362 8.6055Z" fill="url(#paint4_linear_212_2717)"/>
<path d="M31.0362 9.74983C30.9828 9.74983 30.9395 9.70647 30.9395 9.65304V9.60851C30.9395 9.55508 30.9828 9.51172 31.0362 9.51172C31.0897 9.51172 31.133 9.55508 31.133 9.60851V9.65304C31.133 9.70647 31.0897 9.74983 31.0362 9.74983Z" fill="url(#paint5_linear_212_2717)"/>
<path d="M30.6479 8.7665C30.6231 8.7665 30.5984 8.75702 30.5794 8.73824L30.5478 8.70668C30.5101 8.66893 30.5101 8.60757 30.5478 8.56982C30.5856 8.53207 30.647 8.53207 30.6847 8.56982L30.7163 8.60137C30.754 8.63912 30.754 8.70049 30.7163 8.73824C30.6975 8.75702 30.6727 8.7665 30.6479 8.7665Z" fill="url(#paint6_linear_212_2717)"/>
<path d="M31.4565 9.57558C31.4317 9.57558 31.407 9.5661 31.388 9.54732L31.3564 9.51577C31.3187 9.47802 31.3187 9.41665 31.3564 9.3789C31.3942 9.34115 31.4556 9.34115 31.4933 9.3789L31.5249 9.41045C31.5626 9.4482 31.5626 9.50957 31.5249 9.54732C31.5059 9.5661 31.4813 9.57558 31.4565 9.57558Z" fill="url(#paint7_linear_212_2717)"/>
<path d="M30.487 9.1555H30.4425C30.3891 9.1555 30.3457 9.11214 30.3457 9.05871C30.3457 9.00528 30.3891 8.96191 30.4425 8.96191H30.487C30.5405 8.96191 30.5838 9.00528 30.5838 9.05871C30.5838 9.11233 30.5405 9.1555 30.487 9.1555Z" fill="url(#paint8_linear_212_2717)"/>
<path d="M31.6306 9.1555H31.5861C31.5326 9.1555 31.4893 9.11214 31.4893 9.05871C31.4893 9.00528 31.5326 8.96191 31.5861 8.96191H31.6306C31.684 8.96191 31.7274 9.00528 31.7274 9.05871C31.7274 9.11233 31.684 9.1555 31.6306 9.1555Z" fill="url(#paint9_linear_212_2717)"/>
<path d="M30.6164 9.57558C30.5916 9.57558 30.5668 9.5661 30.5478 9.54732C30.5101 9.50957 30.5101 9.4482 30.5478 9.41045L30.5794 9.3789C30.6171 9.34115 30.6785 9.34115 30.7163 9.3789C30.754 9.41665 30.754 9.47802 30.7163 9.51577L30.6847 9.54732C30.6659 9.5661 30.6412 9.57558 30.6164 9.57558Z" fill="url(#paint10_linear_212_2717)"/>
<path d="M31.425 8.7665C31.4002 8.7665 31.3754 8.75702 31.3564 8.73824C31.3187 8.70049 31.3187 8.63912 31.3564 8.60137L31.388 8.56982C31.4257 8.53207 31.4871 8.53207 31.5249 8.56982C31.5626 8.60757 31.5626 8.66893 31.5249 8.70668L31.4933 8.73824C31.4745 8.75702 31.4497 8.7665 31.425 8.7665Z" fill="url(#paint11_linear_212_2717)"/>
<path d="M11.4142 52.9562C11.3607 52.9562 11.3174 52.9128 11.3174 52.8594V52.8151C11.3174 52.7616 11.3607 52.7183 11.4142 52.7183C11.4676 52.7183 11.511 52.7616 11.511 52.8151V52.8594C11.511 52.9128 11.4678 52.9562 11.4142 52.9562Z" fill="url(#paint12_linear_212_2717)"/>
<path d="M11.4142 54.1002C11.3607 54.1002 11.3174 54.0569 11.3174 54.0034V53.9591C11.3174 53.9057 11.3607 53.8623 11.4142 53.8623C11.4676 53.8623 11.511 53.9057 11.511 53.9591V54.0034C11.511 54.0571 11.4678 54.1002 11.4142 54.1002Z" fill="url(#paint13_linear_212_2717)"/>
<path d="M11.0259 53.1171C11.0011 53.1171 10.9763 53.1076 10.9573 53.0888L10.9258 53.0573C10.888 53.0195 10.888 52.9582 10.9258 52.9204C10.9635 52.8827 11.0249 52.8827 11.0626 52.9204L11.0942 52.952C11.1319 52.9897 11.1319 53.0511 11.0942 53.0888C11.0754 53.1076 11.0506 53.1171 11.0259 53.1171Z" fill="url(#paint14_linear_212_2717)"/>
<path d="M11.8354 53.9262C11.8106 53.9262 11.7859 53.9167 11.7669 53.8979L11.7353 53.8664C11.6976 53.8286 11.6976 53.7672 11.7353 53.7295C11.7731 53.6917 11.8345 53.6917 11.8722 53.7295L11.9038 53.761C11.9415 53.7988 11.9415 53.8602 11.9038 53.8979C11.885 53.9167 11.8602 53.9262 11.8354 53.9262Z" fill="url(#paint15_linear_212_2717)"/>
<path d="M10.865 53.5056H10.8204C10.767 53.5056 10.7236 53.4622 10.7236 53.4088C10.7236 53.3554 10.767 53.312 10.8204 53.312H10.865C10.9184 53.312 10.9617 53.3554 10.9617 53.4088C10.9617 53.4622 10.9184 53.5056 10.865 53.5056Z" fill="url(#paint16_linear_212_2717)"/>
<path d="M12.0095 53.5056H11.965C11.9115 53.5056 11.8682 53.4622 11.8682 53.4088C11.8682 53.3554 11.9115 53.312 11.965 53.312H12.0095C12.0629 53.312 12.1063 53.3554 12.1063 53.4088C12.1063 53.4622 12.0631 53.5056 12.0095 53.5056Z" fill="url(#paint17_linear_212_2717)"/>
<path d="M10.9943 53.9262C10.9695 53.9262 10.9447 53.9167 10.9258 53.8979C10.888 53.8602 10.888 53.7988 10.9258 53.761L10.9573 53.7295C10.9951 53.6917 11.0564 53.6917 11.0942 53.7295C11.1319 53.7672 11.1319 53.8286 11.0942 53.8664L11.0626 53.8979C11.0439 53.9167 11.0191 53.9262 10.9943 53.9262Z" fill="url(#paint18_linear_212_2717)"/>
<path d="M11.8039 53.1171C11.7791 53.1171 11.7543 53.1076 11.7353 53.0888C11.6976 53.0511 11.6976 52.9897 11.7353 52.952L11.7669 52.9204C11.8046 52.8827 11.866 52.8827 11.9038 52.9204C11.9415 52.9582 11.9415 53.0195 11.9038 53.0573L11.8722 53.0888C11.8534 53.1076 11.8287 53.1171 11.8039 53.1171Z" fill="url(#paint19_linear_212_2717)"/>
<path d="M54.3016 12.5957H51.5112C50.593 12.5957 49.8486 13.34 49.8486 14.2582C49.8486 15.1764 50.593 15.9208 51.5112 15.9208H54.3016C54.3283 15.9208 54.3544 15.9181 54.3807 15.9167L54.8784 16.5639V15.8158C55.5119 15.581 55.9641 14.9734 55.9641 14.2582C55.9641 13.34 55.2197 12.5957 54.3016 12.5957Z" fill="url(#paint20_linear_212_2717)"/>
<path d="M53.9956 15.4684V22.9243H53.0927V16.4149H53.049L51.2287 17.6236V16.7062L53.0927 15.4684H53.9956ZM51.3743 34.9243V34.269L53.8354 31.575C54.1242 31.2595 54.3621 30.9852 54.5489 30.7522C54.7358 30.5168 54.8742 30.2959 54.964 30.0896C55.0562 29.8809 55.1023 29.6625 55.1023 29.4343C55.1023 29.1722 55.0392 28.9453 54.913 28.7535C54.7892 28.5618 54.6193 28.4137 54.4033 28.3094C54.1873 28.205 53.9446 28.1528 53.6752 28.1528C53.3888 28.1528 53.1388 28.2123 52.9252 28.3312C52.7141 28.4477 52.5503 28.6115 52.4338 28.8227C52.3197 29.0338 52.2626 29.2814 52.2626 29.5654H51.4035C51.4035 29.1285 51.5042 28.745 51.7056 28.4149C51.9071 28.0849 52.1813 27.8276 52.5284 27.6431C52.8779 27.4587 53.2699 27.3665 53.7043 27.3665C54.1412 27.3665 54.5283 27.4587 54.8657 27.6431C55.203 27.8276 55.4676 28.0764 55.6593 28.3895C55.8511 28.7025 55.9469 29.0508 55.9469 29.4343C55.9469 29.7086 55.8972 29.9768 55.7977 30.2389C55.7006 30.4986 55.5307 30.7886 55.288 31.109C55.0477 31.4269 54.714 31.8153 54.2868 32.274L52.6121 34.0651V34.1234H56.078V34.9243H51.3743ZM53.8936 47.0263C53.4131 47.0263 52.9847 46.9437 52.6085 46.7787C52.2347 46.6137 51.9374 46.3843 51.7166 46.0906C51.4981 45.7945 51.3792 45.4511 51.3598 45.0603H52.2772C52.2966 45.3006 52.3791 45.5081 52.5248 45.6829C52.6704 45.8552 52.8609 45.9887 53.0963 46.0833C53.3318 46.178 53.5927 46.2253 53.8791 46.2253C54.1994 46.2253 54.4834 46.1695 54.731 46.0579C54.9785 45.9462 55.1727 45.7909 55.3135 45.5919C55.4542 45.3928 55.5246 45.1623 55.5246 44.9001C55.5246 44.6259 55.4567 44.3844 55.3207 44.1757C55.1848 43.9645 54.9858 43.7995 54.7237 43.6806C54.4616 43.5616 54.1412 43.5022 53.7626 43.5022H53.1655V42.7012H53.7626C54.0587 42.7012 54.3184 42.6478 54.5417 42.541C54.7674 42.4343 54.9433 42.2838 55.0695 42.0896C55.1982 41.8954 55.2625 41.6673 55.2625 41.4052C55.2625 41.1528 55.2067 40.9331 55.095 40.7462C54.9834 40.5594 54.8256 40.4137 54.6217 40.3094C54.4203 40.205 54.1825 40.1528 53.9082 40.1528C53.6509 40.1528 53.4082 40.2001 53.1801 40.2948C52.9544 40.387 52.7699 40.5217 52.6267 40.6989C52.4835 40.8737 52.4058 41.0848 52.3937 41.3324H51.52C51.5345 40.9416 51.6522 40.5994 51.8731 40.3057C52.094 40.0096 52.3828 39.7791 52.7396 39.614C53.0988 39.449 53.4932 39.3665 53.9228 39.3665C54.3839 39.3665 54.7795 39.4599 55.1096 39.6468C55.4397 39.8312 55.6933 40.0752 55.8705 40.3785C56.0476 40.6819 56.1362 41.0096 56.1362 41.3615C56.1362 41.7814 56.0258 42.1394 55.8049 42.4355C55.5865 42.7316 55.2892 42.9367 54.913 43.0507V43.109C55.3838 43.1866 55.7515 43.3869 56.0161 43.7097C56.2806 44.03 56.4129 44.4269 56.4129 44.9001C56.4129 45.3055 56.3025 45.6695 56.0816 45.9923C55.8632 46.3127 55.5647 46.5651 55.186 46.7496C54.8074 46.934 54.3766 47.0263 53.8936 47.0263ZM51.1996 57.3953V56.6526L54.4761 51.4684H55.0149V52.6188H54.6509L52.1753 56.5361V56.5943H56.5877V57.3953H51.1996ZM54.7091 58.9243V57.1696V56.8237V51.4684H55.5683V58.9243H54.7091Z" fill="#660193"/>
<path opacity="0.1" d="M37.5903 69.7466L17.3369 79.8734L37.5903 90.0002L57.8439 79.8734L37.5903 69.7466Z" fill="#252A30"/>
<path d="M37.6035 53.0603L41.4867 47.4116L58.2048 55.7773L54.3216 61.4259L37.6035 53.0603Z" fill="#25AC10"/>
<path d="M37.577 53.0603L33.6937 47.4116L16.9756 55.7773L20.859 61.4259L37.577 53.0603Z" fill="#189C03"/>
<path d="M37.5904 53.0605L20.8594 61.4261L37.5904 69.7916L54.3217 61.4261L37.5904 53.0605Z" fill="url(#paint21_linear_212_2717)"/>
<path d="M21.8184 61.426L37.5902 53.54L53.3622 61.426L37.5902 69.3119L21.8184 61.426Z" fill="#148C00"/>
<path d="M20.8594 61.4258V79.873L37.5904 88.2385V69.7913L20.8594 61.4258Z" fill="#148C00"/>
<path d="M54.3211 61.4258V79.873L37.5898 88.2385V69.7913L54.3211 61.4258Z" fill="#148C00"/>
<path d="M43.1781 83.7759L38.833 85.9483V86.4102L43.1781 84.2378V83.7759Z" fill="#1FBA06"/>
<path d="M43.1781 82.75L38.833 84.9224V85.3843L43.1781 83.2119V82.75Z" fill="#1FBA06"/>
<path d="M41.103 82.7612L38.833 83.8962V84.3581L41.103 83.2231V82.7612Z" fill="#1FBA06"/>
<path d="M20.859 61.4258L16.9756 69.3116L33.7068 77.6773L37.59 69.7913L20.859 61.4258Z" fill="#25AC10"/>
<path d="M54.3211 61.4258L58.2043 69.3116L41.4732 77.6773L37.5898 69.7913L54.3211 61.4258Z" fill="#25AC10"/>
<path d="M37.5898 53.54V69.3119L53.3619 61.426L37.5898 53.54Z" fill="#25AC10"/>
<path d="M27.2243 78.3647L21.8184 75.6616V79.2951L27.2243 81.9981V78.3647Z" fill="#189C03"/>
<path d="M25.023 75.3338L21.8184 73.7314V74.6489L25.023 76.2512V75.3338Z" fill="#189C03"/>
<path d="M43.7228 63.7736C43.6951 63.7736 43.6672 63.7678 43.6405 63.755C43.5437 63.7095 43.5023 63.5941 43.5478 63.4975L43.5904 63.4087C43.6364 63.3127 43.7514 63.2714 43.8488 63.3181C43.945 63.3643 43.9857 63.4801 43.9394 63.5765L43.898 63.6623C43.8651 63.7325 43.7956 63.7736 43.7228 63.7736Z" fill="white"/>
<path d="M44.3478 62.6245C44.3134 62.6245 44.2785 62.6154 44.247 62.5961C44.1556 62.5403 44.1269 62.4213 44.1829 62.3301C44.2185 62.2716 44.2547 62.2139 44.2911 62.1562C44.3484 62.066 44.4677 62.0393 44.5583 62.096C44.6487 62.1531 44.6758 62.2726 44.6185 62.3632C44.5828 62.4193 44.5478 62.4757 44.513 62.5322C44.4766 62.5918 44.4131 62.6245 44.3478 62.6245ZM45.1514 61.4624C45.11 61.4624 45.0682 61.4493 45.0329 61.4218C44.9485 61.3561 44.933 61.2346 44.9987 61.1502C45.0405 61.0963 45.0829 61.0425 45.1255 60.9891C45.1923 60.9058 45.3144 60.8925 45.3977 60.9593C45.4811 61.0263 45.4945 61.1482 45.4275 61.2315C45.3858 61.2832 45.345 61.3352 45.3043 61.3877C45.2662 61.4369 45.2091 61.4624 45.1514 61.4624ZM46.0756 60.3938C46.0274 60.3938 45.979 60.3758 45.9415 60.3398C45.8646 60.2657 45.8621 60.1431 45.9362 60.0661C45.9837 60.0167 46.0315 59.9677 46.0797 59.9191C46.1556 59.8438 46.2779 59.843 46.3536 59.9185C46.4293 59.9942 46.4297 60.1166 46.3542 60.1925C46.3075 60.2391 46.2613 60.2866 46.2152 60.3344C46.177 60.3739 46.1265 60.3938 46.0756 60.3938ZM47.1076 59.429C47.0525 59.429 46.9977 59.4055 46.9593 59.3602C46.8904 59.2784 46.9009 59.1562 46.9826 59.0875C47.0348 59.0435 47.0873 59.0002 47.14 58.9568C47.223 58.8887 47.345 58.9012 47.4123 58.9839C47.4801 59.0668 47.4679 59.1887 47.3852 59.2563C47.3335 59.2985 47.2826 59.3409 47.2319 59.3835C47.1957 59.4139 47.1516 59.429 47.1076 59.429ZM48.2355 58.5774C48.1733 58.5774 48.1122 58.5476 48.0748 58.4922C48.015 58.4035 48.0384 58.2831 48.1271 58.2233C48.1836 58.1854 48.2403 58.1474 48.2972 58.1102C48.3865 58.0514 48.5065 58.0762 48.5653 58.1658C48.624 58.2552 48.5992 58.3753 48.5098 58.4339C48.4544 58.4703 48.3989 58.5071 48.3439 58.5443C48.3104 58.5667 48.2728 58.5774 48.2355 58.5774ZM49.4462 57.8499C49.3769 57.8499 49.3097 57.8125 49.2748 57.7471C49.2247 57.6526 49.2609 57.5353 49.3552 57.4851C49.4158 57.4532 49.4762 57.4218 49.5372 57.3907C49.6322 57.3423 49.7491 57.3798 49.7977 57.4751C49.8463 57.5703 49.8088 57.6869 49.7133 57.7356C49.6543 57.7657 49.5954 57.7962 49.5368 57.8276C49.5079 57.8427 49.4768 57.8499 49.4462 57.8499ZM50.7281 57.2569C50.6514 57.2569 50.5787 57.2108 50.5483 57.1349C50.5086 57.0356 50.557 56.923 50.6565 56.8835C50.72 56.8581 50.7837 56.8333 50.8476 56.8091C50.9469 56.771 51.0593 56.8213 51.0971 56.9214C51.135 57.0213 51.0849 57.1332 50.9848 57.171C50.9232 57.1944 50.8613 57.2184 50.7997 57.243C50.7763 57.2525 50.7521 57.2569 50.7281 57.2569Z" fill="white"/>
<path d="M52.0685 56.8081C51.9836 56.8081 51.9055 56.7518 51.8819 56.6658C51.8537 56.5628 51.9144 56.4562 52.0174 56.4281L52.1127 56.4023C52.2161 56.3754 52.3219 56.4364 52.3494 56.54C52.3769 56.6432 52.3152 56.7493 52.2118 56.7767L52.1198 56.8015C52.1028 56.8058 52.0856 56.8081 52.0685 56.8081Z" fill="white"/>
<path d="M53.3695 54.7325C53.3554 54.7075 53.3438 54.6822 53.3339 54.6564C53.3331 54.6541 53.3324 54.652 53.3314 54.6497C53.3229 54.6262 53.3163 54.6028 53.3114 54.5794C53.3105 54.5745 53.3097 54.5697 53.3087 54.5649C53.3064 54.5523 53.3056 54.5399 53.3045 54.5273C53.3008 54.4899 53.3 54.453 53.3052 54.4181C53.3196 54.3219 53.3678 54.2398 53.4464 54.1943L53.0716 54.4119C52.993 54.4576 52.9448 54.5397 52.9305 54.6359C52.9252 54.671 52.926 54.7079 52.9299 54.7451C52.9303 54.7497 52.9291 54.754 52.9299 54.7586C52.9308 54.7666 52.9328 54.7747 52.9341 54.7827C52.9351 54.7875 52.9357 54.7923 52.9369 54.7972C52.9376 54.801 52.938 54.8047 52.939 54.8084C52.9421 54.8216 52.9458 54.8347 52.95 54.8479C52.9521 54.8545 52.9547 54.8609 52.957 54.8674C52.9578 54.8698 52.9585 54.8719 52.9593 54.874C52.9603 54.8767 52.9612 54.8796 52.9622 54.8823C52.9665 54.893 52.9711 54.9036 52.9761 54.9141C52.981 54.9242 52.986 54.9342 52.9916 54.9443C52.9928 54.9462 52.9938 54.9482 52.9949 54.9501L53.8686 56.4866L54.2434 56.269L53.3695 54.7325Z" fill="#189C03"/>
<path d="M55.4098 58.9942C55.4143 58.996 55.4187 58.9968 55.4232 58.9985C55.4484 59.0076 55.4737 59.0136 55.4991 59.0169C55.5033 59.0175 55.5078 59.0196 55.512 59.02C55.5202 59.0208 55.5281 59.0204 55.5362 59.0204C55.5403 59.0204 55.5442 59.0208 55.5482 59.0206C55.5508 59.0206 55.5535 59.021 55.556 59.0208C55.5674 59.0202 55.5788 59.0188 55.5901 59.0169C55.5963 59.0157 55.6023 59.0142 55.6085 59.0126C55.6102 59.0122 55.6117 59.0119 55.6135 59.0115C55.6152 59.0109 55.6172 59.0107 55.6191 59.0101C55.6278 59.0076 55.6365 59.0045 55.645 59.0012C55.6532 58.9979 55.6613 58.9942 55.669 58.99C55.671 58.989 55.6729 58.9879 55.6749 58.9869C55.676 58.9861 55.6774 58.9855 55.6785 58.9848L56.0533 58.7672C56.0522 58.7679 56.051 58.7685 56.0496 58.7693C56.0301 58.7803 56.0094 58.7883 55.9881 58.7939C55.9863 58.7943 55.9848 58.7947 55.983 58.795C55.9635 58.7999 55.9432 58.8024 55.9228 58.803C55.9188 58.8032 55.9149 58.8028 55.9108 58.8028C55.8985 58.8026 55.8861 58.8008 55.8737 58.7991C55.8483 58.7958 55.8229 58.7898 55.7978 58.7807C55.7933 58.7792 55.7887 58.7784 55.7842 58.7766C55.7552 58.765 55.7271 58.749 55.6998 58.7302C55.6826 58.7184 55.6656 58.7062 55.6495 58.6917C55.6487 58.6909 55.6479 58.6901 55.6472 58.6893C55.628 58.6719 55.6098 58.6526 55.5928 58.6315C55.5918 58.6301 55.5908 58.6287 55.5897 58.6276C55.5724 58.6059 55.5566 58.5829 55.5422 58.5579L54.6701 57.0206L53.4676 57.6937C53.448 57.7048 53.4273 57.7127 53.4062 57.7183C53.4045 57.7187 53.4027 57.7191 53.401 57.7195C53.3814 57.7243 53.3613 57.7268 53.341 57.7274C53.3369 57.7276 53.3328 57.7272 53.3288 57.7272C53.3164 57.727 53.304 57.7253 53.2916 57.7235C53.2664 57.7202 53.2411 57.7142 53.2159 57.7051C53.2114 57.7036 53.2068 57.7028 53.2023 57.7009C53.1735 57.6893 53.1452 57.6732 53.1179 57.6544C53.1007 57.6426 53.0837 57.6302 53.0676 57.6159C53.0668 57.6151 53.0661 57.6143 53.0653 57.6136C53.0461 57.5961 53.0279 57.5768 53.0109 57.5559C53.0099 57.5545 53.009 57.5532 53.0078 57.552C52.9906 57.5303 52.9745 57.5073 52.9604 57.4823C52.9462 57.4573 52.9346 57.432 52.9247 57.4064C52.924 57.4041 52.9232 57.4018 52.9222 57.3995C52.9137 57.3762 52.9071 57.3526 52.9023 57.3294C52.9013 57.3245 52.9005 57.3197 52.8996 57.3149C52.8972 57.3023 52.8965 57.2897 52.8953 57.2773C52.8916 57.2399 52.8909 57.203 52.8961 57.1681C52.9104 57.0719 52.9586 56.9898 53.0372 56.9443L52.6624 57.1619C52.5838 57.2076 52.5356 57.2897 52.5213 57.3859C52.5161 57.421 52.5169 57.4577 52.5205 57.4951C52.5209 57.4997 52.5198 57.504 52.5205 57.5086C52.5215 57.5166 52.5234 57.5247 52.5248 57.5327C52.5258 57.5375 52.5263 57.5423 52.5275 57.5472C52.5283 57.551 52.5287 57.5547 52.5296 57.5586C52.5327 57.5718 52.5364 57.5849 52.5407 57.5981C52.5428 57.6047 52.5453 57.6111 52.5476 57.6176C52.5484 57.62 52.5492 57.6221 52.5501 57.6244C52.5511 57.6271 52.5521 57.63 52.5531 57.6327C52.5573 57.6434 52.562 57.654 52.567 57.6645C52.5718 57.6746 52.5769 57.6846 52.5825 57.6947C52.5834 57.6966 52.5846 57.6986 52.5858 57.7005C52.59 57.708 52.5945 57.7154 52.5991 57.7226C52.6051 57.732 52.6115 57.7413 52.6181 57.7504C52.6229 57.7572 52.6282 57.7636 52.6332 57.7702C52.6344 57.7715 52.6353 57.7729 52.6363 57.7742C52.6375 57.7756 52.6384 57.7772 52.6396 57.7785C52.6475 57.7882 52.6558 57.7975 52.6644 57.8064C52.6729 57.8155 52.6818 57.8238 52.6909 57.8321C52.6917 57.8327 52.6922 57.8335 52.693 57.8343C52.6934 57.8347 52.6938 57.835 52.6944 57.8356C52.7077 57.8474 52.7213 57.8585 52.7352 57.8685C52.7379 57.8705 52.7408 57.8712 52.7435 57.873C52.7708 57.8918 52.7989 57.9078 52.8279 57.9194C52.8324 57.9212 52.8369 57.922 52.8413 57.9235C52.8665 57.9326 52.8918 57.9386 52.9172 57.9419C52.9216 57.9425 52.9259 57.9446 52.9302 57.945C52.9383 57.9458 52.9462 57.9454 52.9544 57.9454C52.9584 57.9454 52.9625 57.9458 52.9666 57.9456C52.9691 57.9456 52.9716 57.9458 52.9743 57.9458C52.9857 57.9452 52.9971 57.9438 53.0084 57.9419C53.0146 57.9407 53.0206 57.9392 53.0268 57.9376C53.0285 57.9373 53.0302 57.9369 53.032 57.9365C53.0337 57.9359 53.0357 57.9357 53.0376 57.9351C53.0465 57.9326 53.055 57.9295 53.0635 57.9262C53.0717 57.9229 53.0796 57.9192 53.0875 57.915C53.0895 57.914 53.0914 57.9129 53.0934 57.9119L54.2959 57.2386L55.168 58.7759C55.1723 58.7832 55.1766 58.7904 55.181 58.7976C55.1872 58.8072 55.1936 58.8167 55.2002 58.8258C55.2052 58.8326 55.2102 58.8392 55.2155 58.8456C55.2164 58.8469 55.2174 58.8481 55.2184 58.8494C55.2195 58.8508 55.2205 58.8523 55.2217 58.8537C55.2296 58.8634 55.2379 58.8727 55.2464 58.8816C55.255 58.8905 55.2639 58.899 55.2728 58.9071C55.2735 58.9079 55.2743 58.9087 55.2751 58.9094C55.2755 58.9098 55.2759 58.9102 55.2765 58.9106C55.2896 58.9224 55.3034 58.9335 55.3173 58.9435C55.32 58.9455 55.3229 58.9462 55.3254 58.948C55.3527 58.9668 55.3808 58.9826 55.4098 58.9942Z" fill="#148C00"/>
<path d="M56.1957 58.5428C56.1812 58.6406 56.1315 58.724 56.05 58.7695C55.8883 58.8599 55.6612 58.7653 55.5426 58.5581L54.6704 57.0208L53.4679 57.6939C53.3062 57.7844 53.0791 57.6897 52.9605 57.4825C52.9018 57.3794 52.8815 57.2671 52.8962 57.1682C52.9107 57.0706 52.9601 56.9874 53.0408 56.9422L54.2434 56.2689L53.3697 54.7324C53.3111 54.6291 53.2907 54.517 53.3055 54.4181C53.32 54.3205 53.3693 54.2372 53.4501 54.1921C53.6129 54.1023 53.8401 54.197 53.9575 54.4035L54.8309 55.9414L56.0321 55.2677C56.1949 55.1779 56.4222 55.2725 56.5395 55.4791C56.5988 55.5827 56.6195 55.695 56.605 55.7927C56.5905 55.8905 56.5407 55.9737 56.4592 56.0194L55.2582 56.6917L56.1303 58.229C56.1895 58.3328 56.2102 58.4449 56.1957 58.5428Z" fill="url(#paint22_linear_212_2717)"/>
<path d="M22.2423 53.6295C22.2105 53.6295 22.1782 53.6217 22.1486 53.6051L22.0655 53.5598C21.9714 53.5089 21.9364 53.3916 21.9871 53.2975C22.0378 53.2038 22.1553 53.168 22.2494 53.2193L22.3363 53.2669C22.4298 53.3188 22.4635 53.4367 22.4116 53.53C22.3762 53.5935 22.3104 53.6295 22.2423 53.6295Z" fill="white"/>
<path d="M28.0422 59.5337C27.9727 59.5337 27.9055 59.4963 27.8709 59.4307C27.8401 59.3724 27.8089 59.3148 27.7774 59.2571C27.7259 59.1636 27.7603 59.0457 27.854 58.9944C27.9477 58.9427 28.0654 58.9771 28.1169 59.0712C28.1494 59.1305 28.1816 59.1899 28.2131 59.2497C28.2631 59.3442 28.2271 59.4615 28.1324 59.5114C28.1036 59.5264 28.0726 59.5337 28.0422 59.5337ZM27.3282 58.3313C27.2655 58.3313 27.2038 58.3009 27.1666 58.2446C27.1302 58.1898 27.0938 58.1354 27.0566 58.081C26.9964 57.9927 27.0193 57.8723 27.1075 57.8119C27.196 57.7519 27.3164 57.7744 27.3766 57.8628C27.4146 57.9186 27.4523 57.9745 27.4895 58.0309C27.5485 58.1201 27.524 58.2402 27.4349 58.2992C27.4018 58.3209 27.3648 58.3313 27.3282 58.3313ZM26.5014 57.2039C26.4449 57.2039 26.3889 57.1793 26.3508 57.1321C26.3096 57.0809 26.268 57.0302 26.2257 56.9797C26.1572 56.8974 26.1686 56.7755 26.2507 56.7071C26.333 56.6388 26.455 56.6498 26.5233 56.7321C26.5665 56.7842 26.6094 56.8361 26.6518 56.8887C26.719 56.972 26.706 57.0939 26.623 57.1609C26.5872 57.1899 26.5442 57.2039 26.5014 57.2039ZM25.5708 56.1604C25.5207 56.1604 25.4708 56.1411 25.4328 56.1025C25.3867 56.0557 25.3403 56.009 25.2936 55.9626C25.2177 55.8873 25.2172 55.7647 25.2925 55.6889C25.3676 55.6128 25.4903 55.6122 25.5662 55.6877C25.614 55.7351 25.6616 55.7829 25.7089 55.8309C25.7838 55.9072 25.7828 56.0296 25.7065 56.1047C25.669 56.1418 25.62 56.1604 25.5708 56.1604ZM24.5454 55.2101C24.5015 55.2101 24.4571 55.1952 24.4209 55.1648C24.3706 55.1224 24.3201 55.0804 24.2692 55.0388C24.1865 54.971 24.1743 54.8493 24.2419 54.7664C24.3098 54.6837 24.4314 54.6715 24.5142 54.7393C24.5665 54.7819 24.6184 54.8249 24.6701 54.8684C24.752 54.9371 24.7624 55.0593 24.6937 55.1412C24.6554 55.1865 24.6006 55.2101 24.5454 55.2101ZM23.433 54.3632C23.3955 54.3632 23.3574 54.3521 23.3241 54.3293C23.2697 54.2923 23.2153 54.2551 23.1605 54.2187C23.0716 54.1595 23.0474 54.0393 23.1067 53.9504C23.1659 53.861 23.2861 53.8368 23.3752 53.8966C23.4313 53.9338 23.4871 53.9717 23.5426 54.0099C23.6309 54.0703 23.6535 54.1907 23.5931 54.2789C23.5554 54.3335 23.4948 54.3632 23.433 54.3632Z" fill="white"/>
<path d="M28.5955 60.7069C28.5196 60.7069 28.4478 60.6622 28.4168 60.5879L28.3796 60.4996C28.338 60.4013 28.3839 60.2876 28.4824 60.2458C28.5811 60.2042 28.6946 60.2501 28.7362 60.3486L28.7741 60.4388C28.8154 60.5376 28.7687 60.6508 28.67 60.692C28.6456 60.7023 28.6204 60.7069 28.5955 60.7069Z" fill="white"/>
<path d="M22.88 50.5538C22.9068 50.5304 22.9308 50.5054 22.9526 50.4794C22.9546 50.4771 22.9563 50.4748 22.9582 50.4725C22.9778 50.4487 22.995 50.4239 23.0103 50.3985C23.0134 50.3933 23.0163 50.3879 23.0194 50.3827C23.0272 50.3687 23.0332 50.3546 23.0397 50.3405C23.0593 50.2984 23.0754 50.2555 23.0837 50.2125C23.1063 50.0942 23.0835 49.9784 23.0101 49.8931L23.3596 50.3008C23.4329 50.3863 23.4556 50.5019 23.4331 50.6202C23.425 50.6634 23.4089 50.7061 23.3892 50.7483C23.3868 50.7536 23.3863 50.759 23.3837 50.7642C23.3793 50.7731 23.3737 50.7818 23.3688 50.7905C23.3657 50.7958 23.363 50.8012 23.3599 50.8064C23.3574 50.8105 23.3555 50.8147 23.353 50.8188C23.3439 50.8329 23.3344 50.8469 23.3241 50.8604C23.3189 50.8672 23.3133 50.8738 23.3079 50.8804C23.3059 50.8827 23.3042 50.8848 23.3023 50.8871C23.2999 50.8899 23.2978 50.8929 23.2953 50.8957C23.286 50.9063 23.2763 50.917 23.266 50.9272C23.2562 50.9371 23.2461 50.9468 23.2357 50.9561C23.2335 50.958 23.2316 50.9597 23.2295 50.9617L21.5799 52.402L21.2305 51.9945L22.88 50.5538Z" fill="#189C03"/>
<path d="M18.7529 54.7051C18.7469 54.7053 18.7415 54.7045 18.7355 54.7045C18.7022 54.7049 18.6702 54.7014 18.6393 54.695C18.634 54.6938 18.628 54.6946 18.6228 54.6933C18.6129 54.6907 18.6038 54.6871 18.5944 54.684C18.5897 54.6824 18.5849 54.6811 18.5802 54.6793C18.5771 54.6782 18.574 54.6776 18.5711 54.6764C18.558 54.671 18.5452 54.665 18.5328 54.658C18.526 54.6542 18.5196 54.6497 18.5131 54.6456C18.5113 54.6445 18.5094 54.6435 18.5076 54.6422C18.5057 54.6408 18.5036 54.6396 18.5016 54.6383C18.4923 54.6317 18.4834 54.6247 18.4749 54.6172C18.4668 54.61 18.4588 54.6025 18.4513 54.5943C18.4494 54.5924 18.4476 54.5903 18.4457 54.5881C18.4445 54.5868 18.4434 54.5854 18.4422 54.5843L18.0928 54.1766C18.0939 54.1779 18.0951 54.1793 18.0963 54.1805C18.1146 54.2014 18.1356 54.2192 18.1582 54.2345C18.1599 54.2356 18.1619 54.2368 18.1636 54.2378C18.1845 54.2513 18.2072 54.2625 18.2308 54.2716C18.2354 54.2734 18.2403 54.2747 18.2449 54.2763C18.2595 54.2811 18.2747 54.284 18.2898 54.2873C18.3208 54.2939 18.353 54.2972 18.3861 54.2968C18.3919 54.2968 18.3975 54.2978 18.4035 54.2974C18.442 54.2956 18.4817 54.2885 18.5212 54.2776C18.5462 54.2709 18.5711 54.2635 18.5959 54.253C18.5971 54.2525 18.5984 54.2519 18.5996 54.2513C18.6292 54.2387 18.6584 54.2236 18.6869 54.206C18.6886 54.205 18.6904 54.2037 18.6921 54.2027C18.721 54.1845 18.7492 54.164 18.7761 54.1406L20.4243 52.6987L21.5559 53.9774C21.5743 53.9983 21.5952 54.0159 21.6176 54.0312C21.6194 54.0324 21.6213 54.0335 21.623 54.0347C21.644 54.0482 21.6664 54.0595 21.69 54.0684C21.6947 54.0701 21.6995 54.0715 21.7044 54.073C21.7189 54.0779 21.7342 54.0808 21.7493 54.0839C21.7802 54.0902 21.8122 54.0937 21.8453 54.0933C21.8513 54.0933 21.8569 54.0943 21.8629 54.0939C21.9014 54.0922 21.9411 54.085 21.9806 54.0742C22.0056 54.0674 22.0305 54.06 22.0553 54.0496C22.0565 54.049 22.0577 54.0484 22.059 54.0478C22.0886 54.0353 22.1177 54.0202 22.1463 54.0025C22.1481 54.0014 22.1498 54.0002 22.1515 53.9993C22.1804 53.9811 22.2086 53.9605 22.2356 53.9371C22.2623 53.9137 22.2863 53.8887 22.3082 53.8628C22.3101 53.8604 22.312 53.8581 22.314 53.8558C22.3333 53.832 22.3507 53.8072 22.366 53.7819C22.3691 53.7766 22.372 53.7712 22.3751 53.766C22.3831 53.7522 22.3889 53.7379 22.3955 53.7238C22.415 53.6816 22.4311 53.6388 22.4394 53.5956C22.4619 53.4773 22.4392 53.3616 22.3658 53.2762L22.7153 53.6839C22.7886 53.7695 22.8113 53.885 22.7888 54.0033C22.7807 54.0465 22.7646 54.0893 22.7449 54.1315C22.7426 54.1367 22.742 54.1421 22.7395 54.1473C22.735 54.1563 22.7294 54.165 22.7246 54.1737C22.7215 54.1789 22.7188 54.1843 22.7157 54.1896C22.7131 54.1936 22.7112 54.1979 22.7087 54.2019C22.6998 54.2161 22.6901 54.23 22.6798 54.2436C22.6746 54.2503 22.6692 54.2569 22.6636 54.2635C22.6616 54.2658 22.6599 54.2681 22.658 54.2705C22.6556 54.2732 22.6535 54.2763 22.651 54.279C22.6417 54.2896 22.632 54.3001 22.6218 54.3105C22.6121 54.3204 22.6018 54.3301 22.5914 54.3394C22.5894 54.3413 22.5873 54.3431 22.5852 54.3448C22.577 54.3518 22.5689 54.3587 22.5606 54.3653C22.5496 54.374 22.5383 54.3824 22.5271 54.3901C22.5186 54.3961 22.5099 54.4015 22.5014 54.4069C22.4996 54.4081 22.4979 54.4093 22.4961 54.4102C22.4942 54.4114 22.4925 54.4128 22.4905 54.4137C22.4772 54.4219 22.4638 54.4294 22.4501 54.4364C22.4363 54.4433 22.4224 54.4497 22.4086 54.4555C22.4075 54.4559 22.4063 54.4567 22.4051 54.4571C22.4044 54.4573 22.4038 54.4577 22.403 54.4581C22.3827 54.4666 22.3622 54.4737 22.3418 54.4797C22.338 54.4809 22.3341 54.4805 22.3304 54.4817C22.2907 54.4925 22.2512 54.4997 22.2127 54.5014C22.2067 54.5016 22.2013 54.5006 22.1953 54.5008C22.1622 54.5012 22.1301 54.4977 22.0991 54.4914C22.0937 54.4902 22.0879 54.491 22.0826 54.4898C22.0728 54.4873 22.0637 54.4836 22.0542 54.4805C22.0495 54.479 22.0447 54.4776 22.0398 54.4759C22.0369 54.4747 22.0338 54.4741 22.0309 54.473C22.0178 54.4675 22.005 54.4615 21.9926 54.4546C21.9858 54.4507 21.9794 54.4464 21.9729 54.4422C21.9711 54.441 21.9692 54.4399 21.9672 54.4387C21.9653 54.4373 21.9632 54.4364 21.9612 54.435C21.952 54.4284 21.943 54.4215 21.9345 54.4139C21.9264 54.4068 21.9185 54.399 21.9109 54.3911C21.909 54.3891 21.9072 54.387 21.9053 54.3851L20.7738 53.1064L19.1256 54.5483C19.1176 54.5552 19.1095 54.5618 19.1014 54.5682C19.0901 54.5771 19.0789 54.5854 19.0673 54.5936C19.0588 54.5996 19.0501 54.605 19.0414 54.6104C19.0398 54.6114 19.0381 54.6125 19.0363 54.6137C19.0344 54.6149 19.0326 54.6162 19.0307 54.6174C19.0174 54.6255 19.0038 54.6331 18.9902 54.64C18.9765 54.647 18.9628 54.6532 18.9488 54.6592C18.9477 54.6598 18.9463 54.6604 18.9451 54.6609C18.9446 54.6611 18.9438 54.6615 18.9432 54.6619C18.9229 54.6704 18.9026 54.6776 18.882 54.6836C18.8782 54.6847 18.8745 54.6846 18.8706 54.6855C18.8311 54.6962 18.7916 54.7033 18.7529 54.7051Z" fill="#189C03"/>
<path d="M18.018 53.8557C17.9952 53.9761 18.0192 54.0938 18.0961 54.1806C18.248 54.3523 18.5525 54.3345 18.7759 54.1407L20.4241 52.6988L21.5557 53.9775C21.7076 54.1492 22.0121 54.1314 22.2354 53.9376C22.3463 53.8408 22.4158 53.7179 22.439 53.5961C22.4619 53.4761 22.438 53.3586 22.3622 53.2728L21.2306 51.9942L22.8802 50.5539C22.9909 50.4571 23.0606 50.3342 23.0838 50.2124C23.1067 50.0924 23.0829 49.9749 23.007 49.8889C22.8533 49.7172 22.5488 49.7352 22.3271 49.9288L20.6772 51.3706L19.5474 50.0918C19.3937 49.9201 19.0892 49.9381 18.8675 50.1317C18.7558 50.2285 18.6857 50.3514 18.6629 50.4718C18.64 50.5922 18.664 50.7099 18.7409 50.7966L19.8711 52.0737L18.2229 53.5156C18.111 53.6126 18.0411 53.7353 18.018 53.8557Z" fill="url(#paint23_radial_212_2717)"/>
<path d="M33.1551 61.708C33.1547 62.0795 33.5659 62.452 34.3935 62.7418C36.0914 63.3361 38.899 63.3568 40.6644 62.7882C41.5692 62.4969 42.0247 62.107 42.0251 61.7163L42.0243 62.5557C42.0239 62.9464 41.5684 63.3361 40.6636 63.6276C38.8981 64.1962 36.0904 64.1753 34.3927 63.5812C33.5651 63.2916 33.1539 62.9191 33.1543 62.5474C33.1545 62.2955 33.1549 61.9597 33.1551 61.708Z" fill="#25AC10"/>
<path d="M43.7101 60.3399C43.7111 60.3495 43.7146 60.3584 43.7152 60.3681C43.7125 60.3131 43.7069 60.2568 43.6987 60.1985C43.6976 60.191 43.6962 60.1836 43.695 60.1763C43.6859 60.1174 43.6718 60.0535 43.6513 59.9831C43.6478 59.9705 43.6447 59.9575 43.641 59.9451C43.6244 59.8927 43.6023 59.834 43.577 59.7717C43.5741 59.7649 43.5719 59.7572 43.569 59.7504C43.5669 59.7455 43.5661 59.7419 43.5638 59.7368C43.5603 59.7287 43.5011 59.5928 43.3841 59.4244C43.3822 59.4217 43.3805 59.419 43.3785 59.4163C43.3247 59.3396 43.2603 59.2571 43.1817 59.176C43.1786 59.1729 43.1753 59.1704 43.1722 59.1671C43.1596 59.1539 43.1455 59.1386 43.1356 59.1284C42.9526 58.9394 42.6789 58.7519 42.5395 58.6719C42.1506 58.4487 41.97 58.3807 41.5745 58.2321C41.2498 58.1268 40.7593 57.9674 40.1162 57.861C39.718 57.7951 39.1163 57.6954 38.1062 57.6579C37.1911 57.6238 36.4188 57.6904 36.0477 57.7224C35.3607 57.7816 34.7135 57.9223 34.501 57.9686C34.3813 57.9945 33.7555 58.1372 33.1811 58.3864C32.6179 58.6309 32.3591 58.8403 32.2042 58.9654C32.0414 59.097 31.8103 59.3268 31.6328 59.6733C31.5538 59.8278 31.4581 60.0851 31.4521 60.4347C31.4543 60.4905 31.4576 60.5658 31.4692 60.6554C31.4732 60.687 31.4789 60.717 31.4845 60.7472C31.4909 60.7814 31.4992 60.8174 31.5087 60.8546C31.5162 60.8846 31.5228 60.9152 31.5317 60.9437C31.5387 60.9659 31.5489 60.9901 31.5573 61.0132C31.627 61.2066 31.7199 61.3655 31.8101 61.4878C31.8159 61.4956 31.8221 61.5035 31.8281 61.5115C31.8842 61.5852 31.9359 61.6456 31.9781 61.6907C31.9801 61.6928 31.9814 61.6948 31.9832 61.6969C31.9863 61.7002 31.9897 61.7031 31.9928 61.7064C32.0048 61.7192 32.0188 61.7339 32.0283 61.7438C32.0424 61.7583 32.0585 61.7707 32.073 61.7848C32.1074 61.8179 32.1419 61.85 32.1773 61.8804C32.2097 61.9087 32.2422 61.9362 32.2759 61.9627C32.3024 61.9836 32.3289 62.0028 32.3556 62.0223C32.4125 62.064 32.4695 62.1036 32.5279 62.1412C32.5622 62.1633 32.5961 62.1849 32.6292 62.2047C32.6586 62.2223 32.6876 62.239 32.7171 62.2556C32.7676 62.2841 32.8156 62.3102 32.8609 62.3334C32.8837 62.3452 32.906 62.3565 32.9285 62.3675C32.9927 62.3993 33.0508 62.4267 33.0946 62.4471C33.2649 62.5262 33.4492 62.5967 33.6296 62.6581C33.7562 62.7028 33.9427 62.7622 34.1899 62.8271C34.2067 62.8315 34.2234 62.836 34.2396 62.8402C34.251 62.8431 34.2615 62.8461 34.2733 62.849C34.4942 62.9061 34.6485 62.9382 34.6634 62.9411C34.7052 62.9496 34.7447 62.9568 34.7857 62.9647C34.7923 62.9661 34.7993 62.9672 34.8059 62.9686C34.8835 62.9837 34.9604 62.9984 35.0347 63.0118C35.098 63.0232 35.1646 63.0344 35.2318 63.0455C35.2608 63.0503 35.2896 63.0549 35.3181 63.0596C35.3619 63.0666 35.4023 63.0739 35.4476 63.0807C35.5351 63.0938 35.6329 63.1064 35.7297 63.1182C36.1064 63.1662 36.4204 63.1906 36.6531 63.2019H36.6535C36.777 63.2075 36.9417 63.2168 37.0652 63.2208C37.1893 63.2249 37.355 63.2247 37.4793 63.2292C37.4836 63.2294 37.7978 63.2354 38.2558 63.2164C38.3329 63.2135 38.4111 63.2094 38.4904 63.2052C38.4968 63.2048 38.5028 63.2044 38.5092 63.204C38.7105 63.1928 38.9161 63.1782 39.1252 63.156C39.1262 63.156 39.1275 63.1558 39.1285 63.1556C39.1297 63.1554 39.1306 63.1554 39.1318 63.1554C39.1587 63.1527 39.1819 63.1498 39.2079 63.1471C39.2208 63.1457 39.2323 63.1444 39.2462 63.143C39.7251 63.0915 40.0585 63.0356 40.3406 62.979C40.3504 62.9771 40.3603 62.9752 40.3702 62.9732C40.4327 62.9607 40.4931 62.9479 40.5521 62.9353C40.5705 62.9314 40.5883 62.9276 40.6069 62.9235C40.6333 62.9177 40.66 62.9121 40.6861 62.9065C40.787 62.8846 40.9217 62.8499 41.0644 62.81C41.0735 62.8075 41.0828 62.805 41.0919 62.8025C41.1621 62.7826 41.2338 62.7615 41.3046 62.74C41.3186 62.7357 41.3325 62.7314 41.3464 62.7272C41.5218 62.673 41.6875 62.617 41.7987 62.5706C41.9572 62.5046 42.1698 62.4176 42.321 62.3363C42.3591 62.3158 42.4332 62.2754 42.5157 62.2275C42.5267 62.2212 42.5384 62.2155 42.5494 62.209C42.5629 62.201 42.5788 62.19 42.593 62.1815C42.6361 62.1551 42.6795 62.1282 42.7221 62.0996C42.7273 62.0959 42.7331 62.0914 42.7385 62.0878C42.7788 62.0601 42.8191 62.0322 42.8533 62.0045C42.8587 62.0001 42.8653 61.9945 42.8707 61.99C42.9108 61.959 42.9503 61.9252 42.9908 61.8903C43.0003 61.8822 43.0094 61.8739 43.0188 61.8655C43.0599 61.8291 43.1002 61.7924 43.1404 61.7519C43.1757 61.7172 43.2099 61.6777 43.245 61.6381C43.2657 61.6142 43.2868 61.592 43.3067 61.567C43.3416 61.5236 43.3741 61.4745 43.4072 61.4251C43.4296 61.3916 43.4529 61.3593 43.4736 61.3241C43.479 61.3148 43.4852 61.3078 43.4904 61.2983C43.5295 61.228 43.5597 61.1626 43.5863 61.0993C43.5903 61.0892 43.5948 61.0798 43.5986 61.0695C43.6401 60.9653 43.6672 60.8703 43.6842 60.784C43.6848 60.7816 43.685 60.7793 43.6856 60.777C43.7102 60.6496 43.7156 60.54 43.7194 60.4471C43.7183 60.4092 43.7125 60.3757 43.7101 60.3399Z" fill="#FFD306"/>
<path d="M33.1551 59.0039C33.1547 59.3754 33.5659 59.7479 34.3935 60.0375C36.0914 60.6318 38.899 60.6525 40.6644 60.0839C41.5692 59.7926 42.0247 59.4027 42.0251 59.012L42.0243 59.8514C42.0239 60.2421 41.5684 60.6318 40.6636 60.9233C38.8981 61.4919 36.0904 61.471 34.3927 60.8769C33.5651 60.5873 33.1539 60.2148 33.1543 59.8431C33.1545 59.5915 33.1549 59.2556 33.1551 59.0039Z" fill="#148C00"/>
<path d="M43.7101 57.6238C43.7111 57.6335 43.7146 57.6424 43.7152 57.6521C43.7125 57.5971 43.7069 57.5408 43.6987 57.4825C43.6976 57.475 43.6962 57.4676 43.695 57.4603C43.6859 57.4014 43.6718 57.3375 43.6513 57.2671C43.6478 57.2545 43.6447 57.2415 43.641 57.2291C43.6244 57.1767 43.6023 57.118 43.577 57.0557C43.5741 57.0489 43.5719 57.0411 43.569 57.0344C43.5669 57.0293 43.5661 57.0258 43.5638 57.0208C43.5603 57.0127 43.5011 56.8768 43.3841 56.7086C43.3822 56.7059 43.3805 56.7031 43.3785 56.7004C43.3247 56.6238 43.2603 56.5413 43.1817 56.4602C43.1786 56.4571 43.1753 56.4546 43.1722 56.4513C43.1596 56.4381 43.1455 56.4228 43.1356 56.4126C42.9526 56.2236 42.6789 56.036 42.5395 55.9561C42.1506 55.7329 41.97 55.6649 41.5745 55.5163C41.2498 55.4109 40.7593 55.2516 40.1162 55.1451C39.718 55.0793 39.1163 54.9796 38.1062 54.9421C37.1911 54.908 36.4188 54.9746 36.0477 55.0065C35.3607 55.0658 34.7135 55.2065 34.501 55.2528C34.3813 55.2787 33.7555 55.4214 33.1811 55.6705C32.6179 55.915 32.3591 56.1245 32.2042 56.2496C32.0414 56.3812 31.8103 56.611 31.6328 56.9575C31.5538 57.112 31.4581 57.3693 31.4521 57.7189C31.4543 57.7747 31.4576 57.85 31.4692 57.9396C31.4732 57.9711 31.4789 58.0011 31.4845 58.0313C31.4909 58.0656 31.4992 58.1016 31.5087 58.1388C31.5162 58.1688 31.5228 58.1994 31.5317 58.2278C31.5387 58.2501 31.5489 58.2743 31.5573 58.2973C31.627 58.4907 31.7199 58.6497 31.8101 58.772C31.8159 58.7798 31.8221 58.7877 31.8281 58.7954C31.8842 58.8692 31.9359 58.9296 31.9781 58.9747C31.9801 58.9768 31.9814 58.9788 31.9832 58.9809C31.9863 58.9842 31.9897 58.9871 31.9928 58.9904C32.0048 59.0032 32.0188 59.0179 32.0283 59.0277C32.0424 59.0423 32.0585 59.0547 32.073 59.0688C32.1074 59.1019 32.1419 59.134 32.1773 59.1644C32.2097 59.1927 32.2422 59.2202 32.2759 59.2467C32.3024 59.2676 32.3289 59.2868 32.3556 59.3063C32.4125 59.3479 32.4695 59.3876 32.5279 59.4252C32.5622 59.4473 32.5961 59.4689 32.6292 59.4887C32.6586 59.5063 32.6876 59.5231 32.7171 59.5396C32.7676 59.5681 32.8156 59.5942 32.8609 59.6174C32.8837 59.6292 32.906 59.6405 32.9285 59.6515C32.9927 59.6832 33.0508 59.7107 33.0946 59.731C33.2649 59.8102 33.4492 59.8807 33.6296 59.9421C33.7562 59.9868 33.9427 60.0462 34.1899 60.1111C34.2067 60.1155 34.2234 60.12 34.2396 60.1242C34.251 60.1271 34.2615 60.13 34.2733 60.1329C34.4942 60.19 34.6485 60.2222 34.6634 60.2251C34.7052 60.2336 34.7447 60.2408 34.7857 60.2487C34.7923 60.2501 34.7993 60.2512 34.8059 60.2526C34.8835 60.2677 34.9604 60.2824 35.0347 60.2957C35.098 60.3072 35.1646 60.3184 35.2318 60.3294C35.2608 60.3343 35.2896 60.3389 35.3181 60.3436C35.3619 60.3505 35.4023 60.3579 35.4476 60.3647C35.5351 60.3778 35.6329 60.3904 35.7297 60.4022C36.1064 60.4502 36.4204 60.4746 36.6531 60.4859H36.6535C36.777 60.4915 36.9417 60.5008 37.0652 60.5048C37.1893 60.5089 37.355 60.5087 37.4793 60.5131C37.4836 60.5133 37.7978 60.5193 38.2558 60.5004C38.3329 60.4975 38.4111 60.4934 38.4904 60.4891C38.4968 60.4888 38.5028 60.4884 38.5092 60.488C38.7105 60.4768 38.9161 60.4622 39.1252 60.44C39.1262 60.44 39.1275 60.4398 39.1285 60.4396C39.1297 60.4394 39.1306 60.4394 39.1318 60.4394C39.1587 60.4367 39.1819 60.4338 39.2079 60.4311C39.2208 60.4297 39.2323 60.4284 39.2462 60.427C39.7251 60.3755 40.0585 60.3196 40.3406 60.263C40.3504 60.2611 40.3603 60.2592 40.3702 60.2572C40.4327 60.2446 40.4931 60.2319 40.5521 60.2193C40.5705 60.2154 40.5883 60.2115 40.6069 60.2075C40.6333 60.2017 40.66 60.1961 40.6861 60.1904C40.787 60.1686 40.9217 60.1339 41.0644 60.094C41.0735 60.0915 41.0828 60.089 41.0919 60.0865C41.1621 60.0665 41.2338 60.0454 41.3046 60.0239C41.3186 60.0197 41.3325 60.0154 41.3464 60.0112C41.5218 59.957 41.6875 59.901 41.7987 59.8546C41.9572 59.7885 42.1698 59.7016 42.321 59.6203C42.3591 59.5998 42.4332 59.5593 42.5157 59.5115C42.5267 59.5051 42.5384 59.4995 42.5494 59.4929C42.5629 59.485 42.5788 59.474 42.593 59.4654C42.6361 59.4391 42.6795 59.4122 42.7221 59.3836C42.7273 59.3799 42.7331 59.3754 42.7385 59.3718C42.7788 59.3441 42.8191 59.3162 42.8533 59.2883C42.8587 59.2839 42.8653 59.2782 42.8707 59.2738C42.9108 59.2428 42.9503 59.2089 42.9908 59.1741C43.0003 59.166 43.0094 59.1576 43.0188 59.1493C43.0599 59.1129 43.1002 59.0761 43.1404 59.0357C43.1757 59.001 43.2099 58.9615 43.245 58.9219C43.2657 58.898 43.2868 58.8758 43.3067 58.8508C43.3416 58.8074 43.3741 58.7583 43.4072 58.7089C43.4296 58.6754 43.4529 58.6431 43.4736 58.6078C43.479 58.5986 43.4852 58.5916 43.4904 58.5821C43.5295 58.5118 43.5597 58.4464 43.5863 58.3831C43.5903 58.3732 43.5948 58.3635 43.5986 58.3533C43.6401 58.2491 43.6672 58.1541 43.6842 58.0677C43.6848 58.0654 43.685 58.0631 43.6856 58.0608C43.7102 57.9334 43.7156 57.8238 43.7194 57.7309C43.7183 57.6931 43.7125 57.6597 43.7101 57.6238Z" fill="#FFD306"/>
<path d="M33.1551 56.2881C33.1547 56.6596 33.5659 57.032 34.3935 57.3217C36.0914 57.916 38.899 57.9367 40.6644 57.3681C41.5692 57.0768 42.0247 56.6869 42.0251 56.2962L42.0243 57.1356C42.0239 57.5263 41.5684 57.916 40.6636 58.2075C38.8981 58.7761 36.0904 58.7552 34.3927 58.161C33.5651 57.8714 33.1539 57.499 33.1543 57.1273C33.1545 56.8756 33.1549 56.5399 33.1551 56.2881Z" fill="#148C00"/>
<path d="M31.457 51.5696C31.4599 51.4959 31.4652 51.4215 31.475 51.3423C31.4772 51.3276 31.4783 51.3125 31.4807 51.2982C31.4901 51.2372 31.5041 51.1718 31.5259 51.0978C31.549 51.0181 31.5761 50.9428 31.6067 50.8735C31.6082 50.8698 31.6088 50.8671 31.6104 50.8632C31.6127 50.8576 31.6411 50.7927 31.6944 50.7004C31.6955 50.6987 31.6965 50.6967 31.6975 50.695C31.7222 50.6522 31.753 50.604 31.7886 50.5521C31.7917 50.5479 31.7947 50.5436 31.7977 50.5393C31.8463 50.4702 31.904 50.3971 31.9724 50.3241C31.9728 50.3237 31.9729 50.3235 31.9731 50.3231C31.9799 50.3159 31.9855 50.3088 31.9923 50.3018C31.9952 50.2987 31.9985 50.2964 32.0014 50.2933C32.0142 50.2799 32.0285 50.2644 32.0386 50.2542C32.1458 50.1436 32.2821 50.0362 32.4062 49.9477C32.4101 49.945 32.4136 49.9425 32.4174 49.9398C32.4978 49.8831 32.5727 49.8337 32.6275 49.802C32.6296 49.8006 32.6331 49.7985 32.6352 49.7971C32.6884 49.7665 32.7372 49.7394 32.7839 49.7141C32.8183 49.6953 32.8524 49.6769 32.8863 49.6595C32.943 49.6302 32.9963 49.6043 33.0485 49.5801C33.0524 49.5784 33.0561 49.5766 33.0599 49.5749C33.1209 49.5468 33.1819 49.5203 33.2448 49.4947C33.264 49.4868 33.2816 49.48 33.3004 49.4725C33.3193 49.4649 33.3389 49.4572 33.3586 49.4494C33.4456 49.4154 33.5284 49.3842 33.6004 49.3577C33.7102 49.3221 33.8459 49.2797 33.9932 49.2357C34.0501 49.2191 34.1063 49.2016 34.1634 49.1862C34.4182 49.1153 34.7151 49.0435 35.0593 48.9864C35.0733 48.984 35.0893 48.9815 35.1038 48.979C35.1575 48.9697 35.2103 48.9618 35.2636 48.9533C35.3511 48.9393 35.4473 48.925 35.5526 48.9103C35.6265 48.9002 35.6995 48.8907 35.7725 48.882C35.8732 48.8698 35.9787 48.8578 36.0952 48.8466C36.1655 48.8398 36.2334 48.8344 36.3022 48.8288C36.3581 48.8241 36.4158 48.8199 36.4752 48.8156C36.5538 48.81 36.632 48.8044 36.7083 48.8001C36.8227 48.7936 36.9429 48.7879 37.0699 48.7833C37.2095 48.7781 37.345 48.7759 37.478 48.775C37.4801 48.775 37.4825 48.7748 37.4844 48.7748C37.5491 48.7742 37.6199 48.7744 37.6933 48.7748C37.7159 48.775 37.7384 48.7752 37.7607 48.7754C38.1172 48.7788 38.5631 48.7959 39.0548 48.8414C39.0796 48.8435 39.1076 48.8458 39.1287 48.8476C39.4218 48.8729 39.7058 48.9132 39.9544 48.9546C40.177 48.9904 40.4027 49.033 40.6287 49.0837C40.6443 49.0872 40.6635 49.0913 40.6761 49.094C40.7547 49.111 41.0532 49.1794 41.4111 49.2946C41.4127 49.2951 41.4142 49.2955 41.4158 49.2959C41.4175 49.2965 41.4191 49.2971 41.4208 49.2977C41.5445 49.3375 41.6742 49.3828 41.8055 49.4339C41.8074 49.4347 41.809 49.4355 41.8107 49.4361C41.8727 49.4603 41.9346 49.4851 41.9962 49.5118C42.0378 49.5298 42.0746 49.5474 42.1129 49.565C42.1266 49.5714 42.141 49.5776 42.1543 49.584C42.2519 49.6299 42.3382 49.674 42.4161 49.7164C42.417 49.7168 42.4178 49.7174 42.4186 49.7177C42.7004 49.8722 42.8638 50.0027 42.9728 50.0908C43.0648 50.1651 43.1776 50.2716 43.2876 50.4052C43.2911 50.4094 43.2949 50.4135 43.2984 50.418C43.329 50.4557 43.3584 50.4966 43.3881 50.5389C43.3995 50.5554 43.4109 50.5711 43.4216 50.5872C43.4367 50.6104 43.4512 50.6338 43.4657 50.6582C43.5048 50.7227 43.5377 50.7819 43.5559 50.8235C43.6386 51.013 43.6763 51.1462 43.6974 51.2796C43.6984 51.2848 43.699 51.2901 43.6997 51.2953C43.7119 51.3772 43.7195 51.46 43.7236 51.5574L43.7247 52.815C43.7249 53.0103 43.7251 53.2074 43.7253 53.4052L43.7259 53.9895C43.7263 54.4322 43.7268 54.8624 43.7272 55.247C43.7185 55.4646 43.6986 55.9743 43.1972 56.51C42.4947 57.2607 41.2156 57.6129 40.5158 57.7561C39.6452 57.9342 38.9533 57.996 38.5261 58.0167C38.1411 58.0353 37.1183 58.0844 36.0542 57.971C35.505 57.9123 33.8337 57.7342 32.628 57.0224C32.1946 56.7665 31.4667 56.1971 31.4605 55.2588L31.457 51.5696Z" fill="#FFD306"/>
<path d="M37.5897 56.1173C47.8225 56.1173 56.1178 47.822 56.1178 37.5892C56.1178 27.3564 47.8225 19.061 37.5897 19.061C27.3568 19.061 19.0615 27.3564 19.0615 37.5892C19.0615 47.822 27.3568 56.1173 37.5897 56.1173Z" fill="url(#paint24_linear_212_2717)"/>
<path d="M37.5895 54.245C46.7884 54.245 54.2455 46.7879 54.2455 37.589C54.2455 28.3902 46.7884 20.9331 37.5895 20.9331C28.3907 20.9331 20.9336 28.3902 20.9336 37.589C20.9336 46.7879 28.3907 54.245 37.5895 54.245Z" fill="url(#paint25_radial_212_2717)"/>
<path d="M43.1675 39.5977C42.2594 39.1844 41.3443 39.1662 40.5208 39.5444C40.2728 39.6585 40.0391 39.8064 39.8246 39.9821C39.2334 39.4976 38.4773 39.1836 37.5924 39.1836C36.7075 39.1836 35.9513 39.4976 35.3603 39.9819C35.1458 39.8064 34.9121 39.6583 34.664 39.5444C33.8408 39.1658 32.9255 39.1842 32.0172 39.5975C30.7514 40.1736 29.9818 41.2182 29.9063 42.463C29.8219 43.8496 30.6399 45.2429 32.0408 46.0989C32.6133 46.4484 33.1776 46.7022 33.6753 46.9258C35.0827 47.5582 36.0125 47.9758 36.0125 49.8911V54.1689C36.2134 54.1878 36.4156 54.2033 36.6184 54.2149V49.8911C36.6184 47.5838 35.3696 47.0226 33.9237 46.3731C33.4188 46.146 32.8965 45.9116 32.3568 45.5817C31.1476 44.8428 30.4405 43.6619 30.5109 42.4998C30.5725 41.4859 31.2129 40.6291 32.2679 40.149C33.0107 39.811 33.7518 39.7918 34.4108 40.095C34.589 40.1769 34.7596 40.2826 34.9195 40.4077C34.4468 40.9435 34.1308 41.5976 34.0027 42.2483C33.7957 43.3012 34.1107 44.1369 34.825 44.4291C35.3686 44.6511 35.8665 44.5952 36.2274 44.2709C36.7431 43.8074 36.8651 42.8871 36.5534 41.809C36.402 41.2858 36.1389 40.8062 35.7965 40.4084C36.2793 40.0309 36.8867 39.7895 37.5922 39.7895C38.2976 39.7895 38.9051 40.0311 39.3881 40.4084C39.0454 40.8062 38.7824 41.2858 38.6312 41.8088C38.3195 42.8869 38.4413 43.8073 38.957 44.2709C39.3178 44.5952 39.8159 44.6511 40.3591 44.4291C41.0735 44.1369 41.3884 43.3014 41.1817 42.2485C41.0539 41.5978 40.7378 40.9437 40.2651 40.4077C40.4246 40.2826 40.5955 40.1769 40.7738 40.0948C41.4324 39.7922 42.1733 39.8106 42.9164 40.149C43.9715 40.6291 44.6119 41.4859 44.6734 42.4996C44.7443 43.6619 44.0369 44.8428 42.8276 45.5817C42.2879 45.9116 41.7656 46.146 41.2607 46.3731C39.8148 47.0226 38.5659 47.5838 38.5659 49.8911V54.2146C38.769 54.2027 38.9709 54.1874 39.1719 54.1685V49.8911C39.1719 47.976 40.1017 47.5582 41.5091 46.9258C42.007 46.7022 42.5713 46.4484 43.1435 46.0989C44.5445 45.2427 45.3624 43.8496 45.2782 42.463C45.2029 41.2182 44.4334 40.1738 43.1675 39.5977ZM35.9715 41.9773C36.21 42.8014 36.1515 43.5248 35.8228 43.8202C35.594 44.0262 35.2786 43.96 35.055 43.868C34.5408 43.6578 34.4874 42.9272 34.5978 42.3652C34.7044 41.8226 34.9652 41.2771 35.3547 40.8287C35.6333 41.1588 35.8493 41.5541 35.9715 41.9773ZM40.5874 42.3654C40.6977 42.9272 40.6443 43.6578 40.1299 43.868C39.9065 43.96 39.591 44.0256 39.362 43.8202C39.0334 43.5248 38.975 42.8016 39.2135 41.9773C39.3358 41.5539 39.5517 41.1586 39.8301 40.8289C40.2199 41.2772 40.4807 41.8228 40.5874 42.3654Z" fill="url(#paint26_linear_212_2717)"/>
<path d="M20.6038 47.8893C20.6015 47.8893 20.5992 47.8893 20.5971 47.8891C20.5196 47.8868 20.4435 47.8837 20.3682 47.8802C20.2447 47.8742 20.1495 47.7695 20.1553 47.646C20.1613 47.5225 20.2685 47.4313 20.3895 47.433C20.4621 47.4365 20.5361 47.4394 20.6108 47.4417C20.7343 47.4454 20.8315 47.5486 20.8278 47.6723C20.8239 47.7935 20.7244 47.8893 20.6038 47.8893ZM21.9549 47.8723C21.8364 47.8723 21.7375 47.7793 21.7317 47.6595C21.7255 47.5362 21.8205 47.4311 21.944 47.4249C22.0174 47.4212 22.0916 47.417 22.1663 47.4125C22.2879 47.4034 22.3959 47.4986 22.4036 47.622C22.4112 47.7453 22.3175 47.8516 22.1942 47.8593C22.1177 47.8641 22.0416 47.8682 21.9665 47.8721C21.9624 47.8721 21.9586 47.8723 21.9549 47.8723ZM23.5255 47.7387C23.4134 47.7387 23.3166 47.6545 23.3034 47.5405C23.2893 47.4175 23.3774 47.3066 23.5003 47.2925L23.7222 47.266C23.8449 47.2518 23.9566 47.3382 23.9715 47.4609C23.9864 47.5836 23.8993 47.6951 23.7765 47.7102L23.5514 47.7371C23.5429 47.7383 23.5342 47.7387 23.5255 47.7387ZM19.0375 47.7282C19.0234 47.7282 19.0089 47.7269 18.9945 47.7242C18.9167 47.7089 18.8406 47.6926 18.7663 47.6754C18.6459 47.6473 18.5712 47.5269 18.5992 47.4067C18.6271 47.2863 18.7481 47.2112 18.8679 47.2396C18.937 47.2557 19.0079 47.2708 19.0801 47.2849C19.2015 47.3085 19.2807 47.4261 19.2568 47.5474C19.2361 47.6541 19.1424 47.7282 19.0375 47.7282ZM25.0868 47.519C24.9791 47.519 24.8841 47.4411 24.8661 47.3316C24.8459 47.2096 24.9286 47.0944 25.0506 47.0743L25.2714 47.0373C25.393 47.0164 25.509 47.0985 25.5297 47.2205C25.5504 47.3422 25.4685 47.458 25.3465 47.4787L25.1231 47.5161C25.111 47.5178 25.0988 47.519 25.0868 47.519ZM26.6374 47.233C26.5331 47.233 26.4397 47.1599 26.4183 47.0538C26.3937 46.9326 26.4719 46.8145 26.5931 46.7899L26.8126 46.7448C26.9334 46.7196 27.0521 46.7973 27.0774 46.9183C27.1026 47.0393 27.025 47.1577 26.904 47.1831L26.6821 47.2286C26.6672 47.2317 26.6521 47.233 26.6374 47.233ZM17.5701 47.18C17.5271 47.18 17.4836 47.1676 17.4454 47.1419C17.375 47.0944 17.3088 47.0449 17.247 46.9932C17.152 46.914 17.1394 46.7729 17.2186 46.678C17.2977 46.583 17.4387 46.5704 17.5337 46.6496C17.5842 46.6916 17.6379 46.7318 17.6952 46.7704C17.7978 46.8393 17.8251 46.9785 17.756 47.0809C17.7128 47.1453 17.6421 47.18 17.5701 47.18ZM28.1774 46.8945C28.0759 46.8945 27.984 46.825 27.9598 46.722C27.9313 46.6016 28.0059 46.4811 28.1263 46.4529L28.3441 46.4008C28.4631 46.3722 28.5851 46.4455 28.6143 46.5657C28.6434 46.6858 28.5694 46.8068 28.4494 46.8358L28.2291 46.8883C28.2117 46.8925 28.1944 46.8945 28.1774 46.8945ZM29.7067 46.511C29.6076 46.511 29.517 46.4446 29.4905 46.3443C29.4589 46.2248 29.5302 46.1023 29.6496 46.0707L29.8663 46.0129C29.9855 45.9811 30.1086 46.0516 30.1406 46.1708C30.1727 46.2903 30.102 46.413 29.9826 46.4451L29.764 46.5034C29.7449 46.5084 29.7257 46.511 29.7067 46.511ZM31.2258 46.0884C31.1288 46.0884 31.0394 46.0247 31.0109 45.9269C30.9765 45.8082 31.0448 45.6841 31.1635 45.6495L31.3788 45.5866C31.497 45.5519 31.6217 45.6193 31.6568 45.738C31.6918 45.8564 31.624 45.9809 31.5054 46.016L31.2884 46.0795C31.2674 46.0855 31.2465 46.0884 31.2258 46.0884ZM16.8076 45.8744C16.6872 45.8744 16.5878 45.779 16.584 45.6578L16.583 45.5997C16.583 45.5359 16.5861 45.4712 16.5919 45.4054C16.6031 45.2823 16.7121 45.1934 16.8351 45.2027C16.9582 45.2139 17.049 45.3227 17.0377 45.4458C17.0329 45.4979 17.0306 45.5492 17.0306 45.5997L17.0312 45.6433C17.0352 45.7668 16.9382 45.8702 16.8147 45.8742C16.8124 45.8744 16.8099 45.8744 16.8076 45.8744ZM32.7348 45.6307C32.6398 45.6307 32.5515 45.5695 32.5215 45.4739C32.4843 45.356 32.5498 45.2304 32.6677 45.1932L32.8816 45.1254C32.9991 45.0877 33.1255 45.1529 33.1629 45.2706C33.2004 45.3885 33.1354 45.5144 33.0177 45.5517L32.8022 45.6199C32.7798 45.6274 32.7571 45.6307 32.7348 45.6307ZM34.2336 45.1413C34.1401 45.1413 34.053 45.0823 34.0214 44.9888C33.9819 44.8717 34.0449 44.7447 34.1622 44.7052L34.3747 44.6332C34.4917 44.5931 34.6188 44.6556 34.6587 44.7727C34.6986 44.8899 34.6363 45.0168 34.5191 45.0567L34.305 45.1293C34.2814 45.1375 34.2574 45.1413 34.2336 45.1413ZM35.7225 44.6221C35.6307 44.6221 35.5448 44.5652 35.5119 44.4738C35.4701 44.3575 35.5304 44.2293 35.6468 44.1875L35.858 44.1112C35.9747 44.0692 36.1025 44.1291 36.1447 44.2452C36.1869 44.3614 36.1269 44.4897 36.0107 44.5319L35.7982 44.6086C35.7732 44.6177 35.7475 44.6221 35.7225 44.6221ZM17.2563 44.3873C17.2191 44.3873 17.1814 44.378 17.1467 44.3585C17.0391 44.2977 17.001 44.1614 17.0616 44.0536C17.0991 43.987 17.139 43.9198 17.1808 43.8518C17.2459 43.7467 17.3839 43.7142 17.4888 43.7794C17.5939 43.8445 17.6264 43.9823 17.5612 44.0874C17.5225 44.1498 17.4859 44.2117 17.4514 44.2733C17.4104 44.3465 17.3345 44.3873 17.2563 44.3873ZM37.2013 44.0747C37.1111 44.0747 37.0261 44.0197 36.992 43.9304C36.9481 43.8149 37.006 43.6855 37.1216 43.6416L37.3312 43.5615C37.4458 43.5171 37.5759 43.5746 37.6204 43.69C37.665 43.8054 37.6073 43.9347 37.4919 43.9792L37.2809 44.0599C37.2547 44.0698 37.2278 44.0747 37.2013 44.0747ZM38.6697 43.5005C38.5812 43.5005 38.4972 43.4474 38.4621 43.3601C38.4161 43.2453 38.4714 43.115 38.5862 43.0688L38.7949 42.9846C38.9097 42.9387 39.04 42.9938 39.0863 43.1086C39.1323 43.2233 39.0768 43.3537 38.9624 43.3998L38.7531 43.484C38.7258 43.4952 38.6977 43.5005 38.6697 43.5005ZM18.1803 43.1135C18.1282 43.1135 18.076 43.0955 18.0336 43.0587C17.9403 42.9776 17.9302 42.8363 18.0113 42.743C18.0609 42.6859 18.1114 42.6287 18.1633 42.5712C18.2459 42.4795 18.3876 42.4721 18.4794 42.5548C18.5712 42.6375 18.5785 42.779 18.4959 42.8709C18.4459 42.9265 18.3971 42.9817 18.3493 43.0364C18.305 43.0874 18.2428 43.1135 18.1803 43.1135ZM40.1276 42.9003C40.0403 42.9003 39.9574 42.8489 39.9212 42.7633C39.8734 42.6493 39.9266 42.5182 40.0409 42.4702L40.2476 42.3827C40.3611 42.3345 40.4927 42.3873 40.5411 42.5014C40.5893 42.6152 40.5361 42.7466 40.4224 42.7948L40.2143 42.8827C40.186 42.8947 40.1566 42.9003 40.1276 42.9003ZM41.5754 42.2747C41.4895 42.2747 41.4076 42.2249 41.3706 42.1413C41.3205 42.0282 41.3716 41.896 41.4844 41.8461L41.6898 41.7549C41.8035 41.7046 41.9349 41.7555 41.9853 41.8681C42.0358 41.981 41.9849 42.1134 41.872 42.1637L41.6656 42.2555C41.6364 42.2685 41.6054 42.2747 41.5754 42.2747ZM19.2801 41.9847C19.2203 41.9847 19.1604 41.9607 19.1163 41.9134C19.0321 41.823 19.0369 41.6813 19.1275 41.5971C19.1827 41.5458 19.2383 41.4943 19.295 41.4426C19.3866 41.3592 19.5279 41.366 19.6111 41.4573C19.6944 41.5489 19.6878 41.6904 19.5964 41.7735C19.541 41.824 19.4864 41.8743 19.4326 41.9245C19.3896 41.9647 19.3347 41.9847 19.2801 41.9847ZM43.0113 41.6227C42.9269 41.6227 42.846 41.5748 42.808 41.4932C42.7559 41.3811 42.8047 41.2479 42.9166 41.196L43.1203 41.1009C43.2324 41.0487 43.3653 41.0971 43.418 41.2088C43.4703 41.3209 43.4219 41.4541 43.31 41.5063L43.1054 41.6018C43.075 41.6161 43.0428 41.6227 43.0113 41.6227ZM20.4714 40.9515C20.4064 40.9515 20.3419 40.9232 20.2976 40.8688C20.2196 40.7728 20.2343 40.6319 20.3301 40.5541L20.5068 40.4116C20.6033 40.3345 20.7442 40.35 20.8214 40.4466C20.8987 40.543 20.883 40.684 20.7864 40.7612L20.6125 40.9014C20.5709 40.9352 20.521 40.9515 20.4714 40.9515ZM44.4349 40.9445C44.3521 40.9445 44.2725 40.8985 44.2336 40.8189C44.1794 40.7078 44.2253 40.5738 44.3364 40.5196L44.5385 40.4207C44.65 40.3663 44.784 40.4124 44.838 40.5231C44.8924 40.6342 44.8467 40.7682 44.7358 40.8226L44.5331 40.9219C44.5013 40.9372 44.4678 40.9445 44.4349 40.9445ZM45.8452 40.2389C45.7639 40.2389 45.6855 40.1946 45.6458 40.1173C45.5895 40.0074 45.6327 39.8724 45.7428 39.8161L45.9422 39.7133C46.0525 39.6564 46.1871 39.6994 46.2438 39.8091C46.3007 39.9189 46.2577 40.054 46.1482 40.1107L45.947 40.2143C45.9145 40.231 45.8797 40.2389 45.8452 40.2389ZM47.2408 39.5042C47.1612 39.5042 47.084 39.4616 47.0437 39.3867C46.9849 39.2779 47.0255 39.1422 47.1343 39.0834L47.3314 38.9765C47.4408 38.9171 47.5757 38.9575 47.6349 39.0659C47.6942 39.1746 47.6541 39.3104 47.5455 39.3695L47.3467 39.4773C47.3132 39.4955 47.2766 39.5042 47.2408 39.5042ZM48.6201 38.7392C48.5423 38.7392 48.4666 38.6987 48.4254 38.6263C48.3642 38.5189 48.4015 38.3822 48.509 38.321L48.7035 38.2095C48.8106 38.148 48.9475 38.1847 49.009 38.2918C49.0708 38.3988 49.034 38.5357 48.9267 38.5975L48.7304 38.7097C48.6956 38.7297 48.6577 38.7392 48.6201 38.7392Z" fill="#FF7A63"/>
<path d="M48.2139 38.1983L48.4185 39.4046L53.3616 35.1357L48.2139 38.1983Z" fill="#FEF2E5"/>
<path d="M48.6638 38.631L48.418 39.4046L53.361 35.1357L48.6638 38.631Z" fill="#25AC10"/>
<path d="M48.6641 38.631L49.9936 39.9075L53.3613 35.1357L48.6641 38.631Z" fill="white"/>
<path d="M48.2131 38.1983L53.3608 35.1357L46.9697 37.0045L48.2131 38.1983Z" fill="white"/>
<g opacity="0.3">
<path d="M53.5891 25.312C53.9748 25.312 54.2876 24.9993 54.2876 24.6135C54.2876 24.2278 53.9748 23.915 53.5891 23.915C53.2033 23.915 52.8906 24.2278 52.8906 24.6135C52.8906 24.9993 53.2033 25.312 53.5891 25.312Z" fill="white"/>
<path d="M28.3896 19.9448C28.3896 20.4905 27.9473 20.9331 27.4014 20.9331C26.8556 20.9331 26.4131 20.4907 26.4131 19.9448C26.4131 19.3991 26.8554 18.9565 27.4014 18.9565C27.9473 18.9565 28.3896 19.3991 28.3896 19.9448Z" fill="white"/>
<path d="M21.0463 26.1131C21.1673 26.1131 21.2654 26.015 21.2654 25.8939C21.2654 25.7729 21.1673 25.6748 21.0463 25.6748C20.9253 25.6748 20.8271 25.7729 20.8271 25.8939C20.8271 26.015 20.9253 26.1131 21.0463 26.1131Z" fill="white"/>
<path d="M57.8262 34.5324C58.234 34.5324 58.5646 34.2018 58.5646 33.794C58.5646 33.3862 58.234 33.0557 57.8262 33.0557C57.4185 33.0557 57.0879 33.3862 57.0879 33.794C57.0879 34.2018 57.4185 34.5324 57.8262 34.5324Z" fill="white"/>
<path d="M20.2969 19.7321C20.5111 19.7321 20.6847 19.5585 20.6847 19.3443C20.6847 19.1301 20.5111 18.9565 20.2969 18.9565C20.0828 18.9565 19.9092 19.1301 19.9092 19.3443C19.9092 19.5585 20.0828 19.7321 20.2969 19.7321Z" fill="white"/>
<path d="M18.8868 15.1677C19.0492 15.1677 19.1809 15.0361 19.1809 14.8736C19.1809 14.7112 19.0492 14.5796 18.8868 14.5796C18.7244 14.5796 18.5928 14.7112 18.5928 14.8736C18.5928 15.0361 18.7244 15.1677 18.8868 15.1677Z" fill="white"/>
<path d="M13.9237 29.632C14.1873 29.632 14.4011 29.4183 14.4011 29.1546C14.4011 28.891 14.1873 28.6772 13.9237 28.6772C13.66 28.6772 13.4463 28.891 13.4463 29.1546C13.4463 29.4183 13.66 29.632 13.9237 29.632Z" fill="white"/>
<path d="M14.9492 30.3431C14.9492 30.5897 15.1492 30.7897 15.3958 30.7897C15.6425 30.7897 15.8424 30.5897 15.8424 30.3431C15.8424 30.0965 15.6425 29.8965 15.3958 29.8965C15.1492 29.8965 14.9492 30.0965 14.9492 30.3431Z" fill="white"/>
<path d="M8.09544 34.7103C8.09544 35.009 7.85326 35.2512 7.55456 35.2512C7.25585 35.2512 7.01367 35.009 7.01367 34.7103C7.01367 34.4116 7.25585 34.1694 7.55456 34.1694C7.85326 34.1692 8.09544 34.4116 8.09544 34.7103Z" fill="white"/>
<path d="M17.6252 39.2057C17.6252 39.3692 17.4926 39.5017 17.3292 39.5017C17.1656 39.5017 17.0332 39.3691 17.0332 39.2057C17.0332 39.0421 17.1658 38.9097 17.3292 38.9097C17.4926 38.9095 17.6252 39.0421 17.6252 39.2057Z" fill="white"/>
<path d="M14.0769 44.8903C14.0769 45.1834 13.8393 45.4209 13.5462 45.4209C13.2532 45.4209 13.0156 45.1834 13.0156 44.8903C13.0156 44.5972 13.2532 44.3599 13.5462 44.3599C13.8393 44.3599 14.0769 44.5974 14.0769 44.8903Z" fill="white"/>
<path d="M19.149 45.3323C19.149 45.4971 19.0156 45.6304 18.8509 45.6304C18.6861 45.6304 18.5527 45.4971 18.5527 45.3323C18.5527 45.1676 18.6861 45.0342 18.8509 45.0342C19.0156 45.0342 19.149 45.1678 19.149 45.3323Z" fill="white"/>
<path d="M54.013 50.1632C54.013 50.4635 53.7696 50.7068 53.4694 50.7068C53.1691 50.7068 52.9258 50.4635 52.9258 50.1632C52.9258 49.863 53.1691 49.6196 53.4694 49.6196C53.7696 49.6196 54.013 49.863 54.013 50.1632Z" fill="white"/>
<path d="M47.3401 55.7257C47.3401 56.0213 47.1004 56.261 46.8048 56.261C46.5092 56.261 46.2695 56.0213 46.2695 55.7257C46.2695 55.4301 46.5092 55.1904 46.8048 55.1904C47.1004 55.1904 47.3401 55.4301 47.3401 55.7257Z" fill="white"/>
<path d="M49.9673 53.2757C49.9673 53.4166 49.8531 53.5308 49.7122 53.5308C49.5712 53.5308 49.457 53.4166 49.457 53.2757C49.457 53.1347 49.5712 53.0205 49.7122 53.0205C49.8531 53.0205 49.9673 53.1347 49.9673 53.2757Z" fill="white"/>
<path d="M28.9213 54.6154C28.9213 54.7906 28.7792 54.9325 28.6042 54.9325C28.429 54.9325 28.2871 54.7904 28.2871 54.6154C28.2871 54.4402 28.4292 54.2983 28.6042 54.2983C28.7794 54.2981 28.9213 54.4402 28.9213 54.6154Z" fill="white"/>
<path d="M30.2792 58.122C30.2792 58.3421 30.1009 58.5204 29.8808 58.5204C29.6609 58.5204 29.4824 58.3421 29.4824 58.122C29.4824 57.9019 29.6607 57.7236 29.8808 57.7236C30.1009 57.7238 30.2792 57.9021 30.2792 58.122Z" fill="white"/>
<path d="M58.2602 36.1491C58.2602 36.3232 58.1191 36.4643 57.945 36.4643C57.771 36.4643 57.6299 36.3232 57.6299 36.1491C57.6299 35.9751 57.771 35.834 57.945 35.834C58.1191 35.834 58.2602 35.9751 58.2602 36.1491Z" fill="white"/>
<path d="M60.4331 25.8908C60.4331 26.1433 60.2284 26.3481 59.9758 26.3481C59.7234 26.3481 59.5186 26.1435 59.5186 25.8908C59.5186 25.6384 59.7232 25.4336 59.9758 25.4336C60.2282 25.4338 60.4331 25.6384 60.4331 25.8908Z" fill="white"/>
<path d="M48.663 15.0331C48.663 15.3096 48.439 15.5336 48.1625 15.5336C47.8861 15.5336 47.6621 15.3096 47.6621 15.0331C47.6621 14.7567 47.8861 14.5327 48.1625 14.5327C48.4388 14.5327 48.663 14.7567 48.663 15.0331Z" fill="white"/>
<path d="M41.6773 12.1287C41.6773 12.264 41.5677 12.3736 41.4324 12.3736C41.2971 12.3736 41.1875 12.264 41.1875 12.1287C41.1875 11.9934 41.2971 11.8838 41.4324 11.8838C41.5677 11.8838 41.6773 11.9934 41.6773 12.1287Z" fill="white"/>
<path d="M35.4481 7.97355C35.4481 8.26916 35.2084 8.50863 34.913 8.50863C34.6174 8.50863 34.3779 8.26897 34.3779 7.97355C34.3779 7.67814 34.6176 7.43848 34.913 7.43848C35.2084 7.43828 35.4481 7.67795 35.4481 7.97355Z" fill="white"/>
<path d="M23.4412 10.8942C23.7065 10.8942 23.9215 10.6791 23.9215 10.4139C23.9215 10.1486 23.7065 9.93359 23.4412 9.93359C23.176 9.93359 22.9609 10.1486 22.9609 10.4139C22.9609 10.6791 23.176 10.8942 23.4412 10.8942Z" fill="white"/>
<path d="M31.5195 13.4702C31.5195 13.7676 31.2785 14.0088 30.9809 14.0088C30.6836 14.0088 30.4424 13.7676 30.4424 13.4702C30.4424 13.1729 30.6834 12.9316 30.9809 12.9316C31.2785 12.9316 31.5195 13.1729 31.5195 13.4702Z" fill="white"/>
<path d="M50.8786 11.4598C51.2727 11.4598 51.5922 11.1404 51.5922 10.7463C51.5922 10.3522 51.2727 10.0327 50.8786 10.0327C50.4845 10.0327 50.165 10.3522 50.165 10.7463C50.165 11.1404 50.4845 11.4598 50.8786 11.4598Z" fill="white"/>
<path d="M48.8684 9.11974C48.8684 9.30074 48.7216 9.44748 48.5406 9.44748C48.3596 9.44748 48.2129 9.30074 48.2129 9.11974C48.2129 8.93873 48.3596 8.79199 48.5406 8.79199C48.7216 8.79199 48.8684 8.93873 48.8684 9.11974Z" fill="white"/>
<path d="M62.7176 16.9745C62.7176 17.3377 62.4231 17.6321 62.06 17.6321C61.6968 17.6321 61.4023 17.3377 61.4023 16.9745C61.4023 16.6113 61.6968 16.3169 62.06 16.3169C62.4231 16.3169 62.7176 16.6113 62.7176 16.9745Z" fill="white"/>
<path d="M67.877 39.8614C67.877 40.0584 67.7171 40.2183 67.5201 40.2183C67.323 40.2183 67.1631 40.0584 67.1631 39.8614C67.1631 39.6643 67.323 39.5044 67.5201 39.5044C67.7173 39.5044 67.877 39.6641 67.877 39.8614Z" fill="white"/>
<path d="M61.9963 42.275C61.9963 42.439 61.8633 42.572 61.6993 42.572C61.5353 42.572 61.4023 42.439 61.4023 42.275C61.4023 42.111 61.5353 41.978 61.6993 41.978C61.8633 41.978 61.9963 42.111 61.9963 42.275Z" fill="white"/>
<path d="M58.7667 51.2364C58.7667 51.4083 58.6273 51.5475 58.4556 51.5475C58.2839 51.5475 58.1445 51.4081 58.1445 51.2364C58.1445 51.0647 58.2839 50.9253 58.4556 50.9253C58.6273 50.9253 58.7667 51.0647 58.7667 51.2364Z" fill="white"/>
<path d="M62.184 53.3891C62.3747 53.3891 62.5292 53.2345 62.5292 53.0439C62.5292 52.8533 62.3747 52.6987 62.184 52.6987C61.9934 52.6987 61.8389 52.8533 61.8389 53.0439C61.8389 53.2345 61.9934 53.3891 62.184 53.3891Z" fill="white"/>
</g>
<defs>
<linearGradient id="paint0_linear_212_2717" x1="64.0849" y1="41.3951" x2="67.812" y2="46.9857" gradientUnits="userSpaceOnUse">
<stop stop-color="#FFF1BA"/>
<stop offset="0.0885" stop-color="#FFE8B9"/>
<stop offset="0.2322" stop-color="#FFD0B8"/>
<stop offset="0.4134" stop-color="#FFA9B5"/>
<stop offset="0.6247" stop-color="#FF72B2"/>
<stop offset="0.8586" stop-color="#FF2DAD"/>
<stop offset="1" stop-color="#FF00AA"/>
</linearGradient>
<linearGradient id="paint1_linear_212_2717" x1="35.8543" y1="6.96255" x2="41.0064" y2="13.759" gradientUnits="userSpaceOnUse">
<stop stop-color="#FFF1BA"/>
<stop offset="0.0885" stop-color="#FFE8B9"/>
<stop offset="0.2322" stop-color="#FFD0B8"/>
<stop offset="0.4134" stop-color="#FFA9B5"/>
<stop offset="0.6247" stop-color="#FF72B2"/>
<stop offset="0.8586" stop-color="#FF2DAD"/>
<stop offset="1" stop-color="#FF00AA"/>
</linearGradient>
<linearGradient id="paint2_linear_212_2717" x1="11.5157" y1="13.0427" x2="17.1063" y2="19.9487" gradientUnits="userSpaceOnUse">
<stop stop-color="#FFF1BA"/>
<stop offset="0.0885" stop-color="#FFE8B9"/>
<stop offset="0.2322" stop-color="#FFD0B8"/>
<stop offset="0.4134" stop-color="#FFA9B5"/>
<stop offset="0.6247" stop-color="#FF72B2"/>
<stop offset="0.8586" stop-color="#FF2DAD"/>
<stop offset="1" stop-color="#FF00AA"/>
</linearGradient>
<linearGradient id="paint3_linear_212_2717" x1="6.9929" y1="28.728" x2="8.96605" y2="32.1262" gradientUnits="userSpaceOnUse">
<stop stop-color="#FFF1BA"/>
<stop offset="0.0885" stop-color="#FFE8B9"/>
<stop offset="0.2322" stop-color="#FFD0B8"/>
<stop offset="0.4134" stop-color="#FFA9B5"/>
<stop offset="0.6247" stop-color="#FF72B2"/>
<stop offset="0.8586" stop-color="#FF2DAD"/>
<stop offset="1" stop-color="#FF00AA"/>
</linearGradient>
<linearGradient id="paint4_linear_212_2717" x1="56.7874" y1="33.6018" x2="61.7173" y2="38.41" gradientUnits="userSpaceOnUse">
<stop stop-color="#FFF1BA"/>
<stop offset="0.0885" stop-color="#FFE8B9"/>
<stop offset="0.2322" stop-color="#FFD0B8"/>
<stop offset="0.4134" stop-color="#FFA9B5"/>
<stop offset="0.6247" stop-color="#FF72B2"/>
<stop offset="0.8586" stop-color="#FF2DAD"/>
<stop offset="1" stop-color="#FF00AA"/>
</linearGradient>
<linearGradient id="paint5_linear_212_2717" x1="56.214" y1="34.1867" x2="61.1436" y2="38.9946" gradientUnits="userSpaceOnUse">
<stop stop-color="#FFF1BA"/>
<stop offset="0.0885" stop-color="#FFE8B9"/>
<stop offset="0.2322" stop-color="#FFD0B8"/>
<stop offset="0.4134" stop-color="#FFA9B5"/>
<stop offset="0.6247" stop-color="#FF72B2"/>
<stop offset="0.8586" stop-color="#FF2DAD"/>
<stop offset="1" stop-color="#FF00AA"/>
</linearGradient>
<linearGradient id="paint6_linear_212_2717" x1="56.5071" y1="33.8899" x2="61.437" y2="38.6981" gradientUnits="userSpaceOnUse">
<stop stop-color="#FFF1BA"/>
<stop offset="0.0885" stop-color="#FFE8B9"/>
<stop offset="0.2322" stop-color="#FFD0B8"/>
<stop offset="0.4134" stop-color="#FFA9B5"/>
<stop offset="0.6247" stop-color="#FF72B2"/>
<stop offset="0.8586" stop-color="#FF2DAD"/>
<stop offset="1" stop-color="#FF00AA"/>
</linearGradient>
<linearGradient id="paint7_linear_212_2717" x1="56.4963" y1="33.9001" x2="61.4262" y2="38.7082" gradientUnits="userSpaceOnUse">
<stop stop-color="#FFF1BA"/>
<stop offset="0.0885" stop-color="#FFE8B9"/>
<stop offset="0.2322" stop-color="#FFD0B8"/>
<stop offset="0.4134" stop-color="#FFA9B5"/>
<stop offset="0.6247" stop-color="#FF72B2"/>
<stop offset="0.8586" stop-color="#FF2DAD"/>
<stop offset="1" stop-color="#FF00AA"/>
</linearGradient>
<linearGradient id="paint8_linear_212_2717" x1="56.2225" y1="34.1806" x2="61.1523" y2="38.9886" gradientUnits="userSpaceOnUse">
<stop stop-color="#FFF1BA"/>
<stop offset="0.0885" stop-color="#FFE8B9"/>
<stop offset="0.2322" stop-color="#FFD0B8"/>
<stop offset="0.4134" stop-color="#FFA9B5"/>
<stop offset="0.6247" stop-color="#FF72B2"/>
<stop offset="0.8586" stop-color="#FF2DAD"/>
<stop offset="1" stop-color="#FF00AA"/>
</linearGradient>
<linearGradient id="paint9_linear_212_2717" x1="56.7797" y1="33.6087" x2="61.7095" y2="38.4168" gradientUnits="userSpaceOnUse">
<stop stop-color="#FFF1BA"/>
<stop offset="0.0885" stop-color="#FFE8B9"/>
<stop offset="0.2322" stop-color="#FFD0B8"/>
<stop offset="0.4134" stop-color="#FFA9B5"/>
<stop offset="0.6247" stop-color="#FF72B2"/>
<stop offset="0.8586" stop-color="#FF2DAD"/>
<stop offset="1" stop-color="#FF00AA"/>
</linearGradient>
<linearGradient id="paint10_linear_212_2717" x1="56.1029" y1="34.3047" x2="61.0328" y2="39.1129" gradientUnits="userSpaceOnUse">
<stop stop-color="#FFF1BA"/>
<stop offset="0.0885" stop-color="#FFE8B9"/>
<stop offset="0.2322" stop-color="#FFD0B8"/>
<stop offset="0.4134" stop-color="#FFA9B5"/>
<stop offset="0.6247" stop-color="#FF72B2"/>
<stop offset="0.8586" stop-color="#FF2DAD"/>
<stop offset="1" stop-color="#FF00AA"/>
</linearGradient>
<linearGradient id="paint11_linear_212_2717" x1="56.9008" y1="33.4854" x2="61.8307" y2="38.2936" gradientUnits="userSpaceOnUse">
<stop stop-color="#FFF1BA"/>
<stop offset="0.0885" stop-color="#FFE8B9"/>
<stop offset="0.2322" stop-color="#FFD0B8"/>
<stop offset="0.4134" stop-color="#FFA9B5"/>
<stop offset="0.6247" stop-color="#FF72B2"/>
<stop offset="0.8586" stop-color="#FF2DAD"/>
<stop offset="1" stop-color="#FF00AA"/>
</linearGradient>
<linearGradient id="paint12_linear_212_2717" x1="25.0525" y1="66.1384" x2="29.9822" y2="70.9464" gradientUnits="userSpaceOnUse">
<stop stop-color="#FFF1BA"/>
<stop offset="0.0885" stop-color="#FFE8B9"/>
<stop offset="0.2322" stop-color="#FFD0B8"/>
<stop offset="0.4134" stop-color="#FFA9B5"/>
<stop offset="0.6247" stop-color="#FF72B2"/>
<stop offset="0.8586" stop-color="#FF2DAD"/>
<stop offset="1" stop-color="#FF00AA"/>
</linearGradient>
<linearGradient id="paint13_linear_212_2717" x1="24.4807" y1="66.725" x2="29.4104" y2="71.5331" gradientUnits="userSpaceOnUse">
<stop stop-color="#FFF1BA"/>
<stop offset="0.0885" stop-color="#FFE8B9"/>
<stop offset="0.2322" stop-color="#FFD0B8"/>
<stop offset="0.4134" stop-color="#FFA9B5"/>
<stop offset="0.6247" stop-color="#FF72B2"/>
<stop offset="0.8586" stop-color="#FF2DAD"/>
<stop offset="1" stop-color="#FF00AA"/>
</linearGradient>
<linearGradient id="paint14_linear_212_2717" x1="24.7727" y1="66.4271" x2="29.7026" y2="71.2354" gradientUnits="userSpaceOnUse">
<stop stop-color="#FFF1BA"/>
<stop offset="0.0885" stop-color="#FFE8B9"/>
<stop offset="0.2322" stop-color="#FFD0B8"/>
<stop offset="0.4134" stop-color="#FFA9B5"/>
<stop offset="0.6247" stop-color="#FF72B2"/>
<stop offset="0.8586" stop-color="#FF2DAD"/>
<stop offset="1" stop-color="#FF00AA"/>
</linearGradient>
<linearGradient id="paint15_linear_212_2717" x1="24.7632" y1="66.4376" x2="29.6932" y2="71.2458" gradientUnits="userSpaceOnUse">
<stop stop-color="#FFF1BA"/>
<stop offset="0.0885" stop-color="#FFE8B9"/>
<stop offset="0.2322" stop-color="#FFD0B8"/>
<stop offset="0.4134" stop-color="#FFA9B5"/>
<stop offset="0.6247" stop-color="#FF72B2"/>
<stop offset="0.8586" stop-color="#FF2DAD"/>
<stop offset="1" stop-color="#FF00AA"/>
</linearGradient>
<linearGradient id="paint16_linear_212_2717" x1="24.4884" y1="66.7175" x2="29.4182" y2="71.5256" gradientUnits="userSpaceOnUse">
<stop stop-color="#FFF1BA"/>
<stop offset="0.0885" stop-color="#FFE8B9"/>
<stop offset="0.2322" stop-color="#FFD0B8"/>
<stop offset="0.4134" stop-color="#FFA9B5"/>
<stop offset="0.6247" stop-color="#FF72B2"/>
<stop offset="0.8586" stop-color="#FF2DAD"/>
<stop offset="1" stop-color="#FF00AA"/>
</linearGradient>
<linearGradient id="paint17_linear_212_2717" x1="25.0466" y1="66.1456" x2="29.9763" y2="70.9537" gradientUnits="userSpaceOnUse">
<stop stop-color="#FFF1BA"/>
<stop offset="0.0885" stop-color="#FFE8B9"/>
<stop offset="0.2322" stop-color="#FFD0B8"/>
<stop offset="0.4134" stop-color="#FFA9B5"/>
<stop offset="0.6247" stop-color="#FF72B2"/>
<stop offset="0.8586" stop-color="#FF2DAD"/>
<stop offset="1" stop-color="#FF00AA"/>
</linearGradient>
<linearGradient id="paint18_linear_212_2717" x1="24.3681" y1="66.8419" x2="29.2981" y2="71.6501" gradientUnits="userSpaceOnUse">
<stop stop-color="#FFF1BA"/>
<stop offset="0.0885" stop-color="#FFE8B9"/>
<stop offset="0.2322" stop-color="#FFD0B8"/>
<stop offset="0.4134" stop-color="#FFA9B5"/>
<stop offset="0.6247" stop-color="#FF72B2"/>
<stop offset="0.8586" stop-color="#FF2DAD"/>
<stop offset="1" stop-color="#FF00AA"/>
</linearGradient>
<linearGradient id="paint19_linear_212_2717" x1="25.1675" y1="66.0226" x2="30.0974" y2="70.8308" gradientUnits="userSpaceOnUse">
<stop stop-color="#FFF1BA"/>
<stop offset="0.0885" stop-color="#FFE8B9"/>
<stop offset="0.2322" stop-color="#FFD0B8"/>
<stop offset="0.4134" stop-color="#FFA9B5"/>
<stop offset="0.6247" stop-color="#FF72B2"/>
<stop offset="0.8586" stop-color="#FF2DAD"/>
<stop offset="1" stop-color="#FF00AA"/>
</linearGradient>
<linearGradient id="paint20_linear_212_2717" x1="50.8009" y1="11.4508" x2="56.0626" y2="18.4665" gradientUnits="userSpaceOnUse">
<stop stop-color="#FFF1BA"/>
<stop offset="0.0885" stop-color="#FFE8B9"/>
<stop offset="0.2322" stop-color="#FFD0B8"/>
<stop offset="0.4134" stop-color="#FFA9B5"/>
<stop offset="0.6247" stop-color="#FF72B2"/>
<stop offset="0.8586" stop-color="#FF2DAD"/>
<stop offset="1" stop-color="#FF00AA"/>
</linearGradient>
<linearGradient id="paint21_linear_212_2717" x1="37.5905" y1="53.6301" x2="37.5905" y2="72.8368" gradientUnits="userSpaceOnUse">
<stop offset="0.9998" stop-color="#AAE745"/>
<stop offset="0.9999" stop-color="#FFA2E8"/>
<stop offset="1" stop-color="#A98FFC"/>
</linearGradient>
<linearGradient id="paint22_linear_212_2717" x1="49.6654" y1="54.6455" x2="58.5498" y2="54.6455" gradientUnits="userSpaceOnUse">
<stop offset="0.9998" stop-color="#FFFF01"/>
<stop offset="0.9999" stop-color="#AAE745"/>
<stop offset="1" stop-color="#FF50D7"/>
</linearGradient>
<radialGradient id="paint23_radial_212_2717" cx="0" cy="0" r="1" gradientUnits="userSpaceOnUse" gradientTransform="translate(22.7395 49.3699) scale(6.893)">
<stop offset="0.5134" stop-color="#AAE745"/>
<stop offset="0.9999" stop-color="#FFFF01"/>
<stop offset="1" stop-color="#FF50D7"/>
</radialGradient>
<linearGradient id="paint24_linear_212_2717" x1="37.5897" y1="18.2514" x2="37.5897" y2="52.4487" gradientUnits="userSpaceOnUse">
<stop offset="0.00048077" stop-color="#FFFD99" stop-opacity="0.3"/>
<stop offset="1" stop-color="#FFFD99" stop-opacity="0.1"/>
</linearGradient>
<radialGradient id="paint25_radial_212_2717" cx="0" cy="0" r="1" gradientUnits="userSpaceOnUse" gradientTransform="translate(37.5141 26.8472) scale(28.0992)">
<stop stop-color="#FFFFA2"/>
<stop offset="0.134" stop-color="#FFFE9F"/>
<stop offset="0.2515" stop-color="#FFFB94"/>
<stop offset="0.3627" stop-color="#FFF682"/>
<stop offset="0.4701" stop-color="#FFEF69"/>
<stop offset="0.5748" stop-color="#FFE648"/>
<stop offset="0.6759" stop-color="#FFDC20"/>
<stop offset="0.745" stop-color="#FFD301"/>
<stop offset="0.7743" stop-color="#FFCE06"/>
<stop offset="0.81" stop-color="#FFC115"/>
<stop offset="0.8488" stop-color="#FFAB2E"/>
<stop offset="0.89" stop-color="#FF8B50"/>
<stop offset="0.9331" stop-color="#AAE745"/>
<stop offset="0.9769" stop-color="#AAE745"/>
<stop offset="0.977" stop-color="#FF33B1"/>
<stop offset="1" stop-color="#138700"/>
</radialGradient>
<linearGradient id="paint26_linear_212_2717" x1="37.5926" y1="38.5106" x2="37.5926" y2="53.3997" gradientUnits="userSpaceOnUse">
<stop stop-color="white"/>
<stop offset="1" stop-color="white" stop-opacity="0"/>
</linearGradient>
</defs>
</svg>
