<svg width="390" height="103" viewBox="0 0 390 103" fill="none" xmlns="http://www.w3.org/2000/svg">
<g clip-path="url(#clip0_643_2960)">
<rect width="390" height="103" fill="white"/>
<path d="M388.536 -2.9719C380.278 -3.10958 372.079 -1.74002 364.426 1.05553C356.772 3.85107 349.82 8.01567 343.981 13.3023C338.143 18.5889 333.537 24.8898 330.437 31.8313C327.337 38.7727 325.805 46.2133 325.934 53.7117C326.063 61.2101 327.848 68.6135 331.185 75.4828C334.522 82.3521 339.343 88.5474 345.36 93.701C351.378 98.8547 358.47 102.862 366.216 105.485C373.963 108.108 382.205 109.293 390.455 108.97L388.92 78.8668C385.109 79.0159 381.301 78.4684 377.723 77.2567C374.144 76.045 370.868 74.1939 368.088 71.8131C365.308 69.4323 363.081 66.5704 361.54 63.3971C359.998 60.2237 359.173 56.8037 359.114 53.3397C359.055 49.8758 359.762 46.4385 361.194 43.2318C362.626 40.0252 364.754 37.1144 367.451 34.6722C370.148 32.23 373.36 30.3062 376.895 29.0147C380.431 27.7233 384.219 27.0906 388.033 27.1542L388.536 -2.9719Z" fill="#25AC10" fill-opacity="0.1"/>
<path d="M16.3475 45.352C9.62942 44.7446 20.9937 44.7959 16.3475 45.352C20.2138 43.1534 23.4395 40.2379 25.7959 36.812C28.1524 33.3861 29.582 29.5335 29.9836 25.5271C30.3852 21.5207 29.7489 17.4585 28.1198 13.6281C26.4907 9.79777 23.9087 6.29298 20.5565 3.36196C17.2043 0.430936 13.164 -1.85462 8.72175 -3.33286C4.27948 -4.81109 -0.4561 -5.44584 -5.14963 -5.19215C-9.84316 -4.93846 -14.3798 -3.80254 -18.4383 -1.86484L-12.8397 12.7191C-10.9648 11.824 -5.65763 9.7036 -3.48942 9.5864C-1.3212 9.46921 0.866445 9.76244 2.91859 10.4453C4.97073 11.1282 6.83718 12.184 8.38574 13.538C9.93431 14.8921 11.1271 16.5111 11.8797 18.2806C12.6323 20.0501 12.9262 21.9266 12.7407 23.7774C12.5552 25.6282 11.8947 27.4079 10.8061 28.9906C9.71757 30.5732 8.22746 31.92 6.44137 32.9357C4.65527 33.9513 -13.2243 42.2275 -15.3706 42.4844L16.3475 45.352Z" fill="#FFD306" fill-opacity="0.15"/>
<path d="M0.773708 168.384C8.27227 168.333 15.6841 166.775 22.5694 163.805C29.4547 160.834 35.6733 156.511 40.8564 151.092C46.0394 145.673 50.0813 139.268 52.7422 132.258C55.4032 125.247 56.629 117.773 56.3469 110.28C56.0649 102.786 54.2807 95.4257 51.1003 88.6348C47.9199 81.8439 43.408 75.7609 37.8323 70.7467C32.2566 65.7325 25.7306 61.8892 18.6414 59.4447C11.5523 57.0003 4.04441 56.0045 -3.43683 56.5165L-1.3797 86.5765C2.07633 86.34 5.54466 86.8 8.81954 87.9292C12.0944 89.0585 15.1092 90.8339 17.6849 93.1503C20.2607 95.4666 22.345 98.2767 23.8142 101.414C25.2834 104.551 26.1076 107.951 26.2379 111.413C26.3682 114.874 25.8019 118.327 24.5727 121.566C23.3435 124.804 21.4763 127.763 19.0819 130.267C16.6876 132.77 13.8148 134.767 10.6341 136.139C7.45336 137.512 4.02942 138.231 0.565399 138.255L0.773708 168.384Z" fill="#25AC10" fill-opacity="0.1"/>
<path d="M285 9L287.47 16.6008H295.462L288.996 21.2984L291.466 28.8992L285 24.2016L278.534 28.8992L281.004 21.2984L274.538 16.6008H282.53L285 9Z" fill="#FFD306" fill-opacity="0.15"/>
<path d="M207 17L209.47 24.6008H217.462L210.996 29.2984L213.466 36.8992L207 32.2016L200.534 36.8992L203.004 29.2984L196.538 24.6008H204.53L207 17Z" fill="#138700" fill-opacity="0.05"/>
<path d="M146 21L148.47 28.6008H156.462L149.996 33.2984L152.466 40.8992L146 36.2016L139.534 40.8992L142.004 33.2984L135.538 28.6008H143.53L146 21Z" fill="#FFD306" fill-opacity="0.15"/>
<path d="M268 61L270.47 68.6008H278.462L271.996 73.2984L274.466 80.8992L268 76.2016L261.534 80.8992L264.004 73.2984L257.538 68.6008H265.53L268 61Z" fill="#FFD306" fill-opacity="0.15"/>
<path d="M111 77L113.47 84.6008H121.462L114.996 89.2984L117.466 96.8992L111 92.2016L104.534 96.8992L107.004 89.2984L100.538 84.6008H108.53L111 77Z" fill="#138700" fill-opacity="0.05"/>
<path d="M191 66L193.47 73.6008H201.462L194.996 78.2984L197.466 85.8992L191 81.2016L184.534 85.8992L187.004 78.2984L180.538 73.6008H188.53L191 66Z" fill="#138700" fill-opacity="0.05"/>
</g>
<defs>
<clipPath id="clip0_643_2960">
<rect width="390" height="103" fill="white"/>
</clipPath>
</defs>
</svg>
