<svg width="192" height="180" viewBox="0 0 192 180" fill="none" xmlns="http://www.w3.org/2000/svg">
<path d="M96 180C149.019 180 192 155.082 192 124.345C192 93.6073 149.019 68.6897 96 68.6897C42.9807 68.6897 0 93.6073 0 124.345C0 155.082 42.9807 180 96 180Z" fill="#DFDFDF"/>
<path d="M76.134 166.521C94.4172 166.521 109.239 157.929 109.239 147.329C109.239 136.73 94.4172 128.137 76.134 128.137C57.8508 128.137 43.0293 136.73 43.0293 147.329C43.0293 157.929 57.8508 166.521 76.134 166.521Z" fill="#E0E0E0"/>
<path d="M170.275 123.319L166.393 121.068C166.393 121.068 165.442 112.72 166.075 106.255C166.963 97.1708 172.806 86.2397 179.777 88.8068C186.747 91.374 176.581 100.626 174.318 108.331C172.055 116.037 170.275 123.319 170.275 123.319Z" fill="#25AC10"/>
<path opacity="0.15" d="M170.275 123.319L166.393 121.068C166.393 121.068 165.442 112.72 166.075 106.255C166.963 97.1708 172.806 86.2397 179.777 88.8068C186.747 91.374 176.581 100.626 174.318 108.331C172.055 116.037 170.275 123.319 170.275 123.319Z" fill="black"/>
<path d="M168.233 122.371C168.236 122.371 168.239 122.371 168.242 122.371C168.371 122.367 168.473 122.258 168.469 122.128C167.787 101.942 177.794 91.7877 177.895 91.6878C177.987 91.5962 177.989 91.4468 177.897 91.3544C177.805 91.2615 177.657 91.2603 177.565 91.3519C177.462 91.4538 167.31 101.754 167.998 122.144C168.003 122.271 168.107 122.371 168.233 122.371Z" fill="white"/>
<path d="M172.715 124.722L169.953 123.121C169.953 123.121 169.483 117.392 172.28 110.433C174.714 104.375 180.756 99.3491 183.795 100.405C186.834 101.461 186.758 103.625 185.277 105.895C183.795 108.164 174.782 113.574 172.715 124.722Z" fill="#25AC10"/>
<path d="M171.258 124.113H171.259C171.389 124.113 171.494 124.007 171.493 123.877C171.438 111.114 183.373 102.487 183.493 102.402C183.599 102.327 183.625 102.18 183.549 102.073C183.475 101.967 183.329 101.94 183.222 102.017C183.099 102.104 170.967 110.873 171.023 123.879C171.023 124.009 171.128 124.113 171.258 124.113Z" fill="white"/>
<path d="M26.5886 118.303L30.1728 115.874C30.1728 115.874 31.7506 106.445 30.2849 98.1617C28.2238 86.5162 20.2257 82.6409 17.3716 83.8578C14.5176 85.0747 13.9076 88.5481 19.2326 95.1968C22.3743 99.1192 26.4785 107.461 26.5886 118.303Z" fill="#25AC10"/>
<g opacity="0.15">
<path d="M26.5886 118.303L30.1728 115.874C30.1728 115.874 31.7506 106.445 30.2849 98.1617C28.2238 86.5162 20.2257 82.6409 17.3716 83.8578C14.5176 85.0747 13.9076 88.5481 19.2326 95.1968C22.3743 99.1192 26.4785 107.461 26.5886 118.303Z" fill="black"/>
</g>
<path d="M27.82 113.639C27.8078 113.639 27.796 113.638 27.7841 113.637C27.6419 113.619 27.5397 113.49 27.5568 113.347C28.8514 102.382 24.2414 90.4855 19.2277 85.7522C19.1234 85.654 19.1181 85.4883 19.2167 85.3835C19.3153 85.2796 19.4795 85.2735 19.5839 85.3725C24.6889 90.1921 29.3868 102.282 28.0726 113.408C28.0568 113.539 27.9471 113.636 27.82 113.639Z" fill="white"/>
<path d="M17.1998 124.663C16.6309 125.006 14.9679 123.767 14.5079 123.47C13.7202 122.961 13.076 122.231 12.6412 121.4C12.1355 120.433 11.9925 119.389 12.1241 118.306C12.1926 117.744 12.338 117.195 12.4831 116.648C12.6257 116.111 12.7683 115.574 12.911 115.037C13.0515 114.507 13.1937 113.959 13.1139 113.417C12.9533 112.324 11.9701 111.576 11.0768 110.931C10.0891 110.217 9.05693 109.271 9.03697 107.952C9.02148 106.934 9.5284 105.979 10.1409 105.168C10.7537 104.357 11.4852 103.638 12.0365 102.783C12.4334 102.168 12.7386 101.449 12.6579 100.721C12.6078 100.268 12.4126 99.8449 12.1889 99.4492C11.7085 98.5994 11.0817 97.8248 10.7439 96.9082C10.4061 95.9921 10.4298 94.8435 11.1343 94.1696C11.7125 93.6164 12.5858 93.524 13.3832 93.5612C14.1212 93.596 14.8477 93.9159 15.4993 94.2633C17.6068 95.3869 18.8448 97.8436 21.0746 98.6967C21.9348 99.0257 22.8712 99.0834 23.7652 99.3023C24.6592 99.5212 25.5753 99.9599 26.0031 100.778C26.8466 102.392 25.378 104.428 25.9823 106.147C26.517 107.667 28.0092 108.224 28.8673 109.587C29.2426 110.183 29.34 110.879 29.2948 111.583C29.2182 112.774 29.0617 113.65 28.5189 114.984C28.0703 116.087 26.7378 118.204 26.7378 118.204C26.7378 118.204 17.2866 124.61 17.1998 124.663Z" fill="#25AC10"/>
<path d="M22.7081 121.27C22.7045 121.27 22.7012 121.27 22.7012 121.27C22.5541 121.267 22.4408 121.147 22.4437 121.004C22.6735 110.645 17.597 99.3112 14.0009 96.0599C13.8946 95.9637 13.8856 95.7988 13.9818 95.6916C14.0779 95.5848 14.2418 95.5767 14.3485 95.6724C18.0167 98.9892 23.1959 110.51 22.9632 121.015C22.9595 121.156 22.8467 121.267 22.7081 121.27Z" fill="white"/>
<path d="M20.808 108.65C20.7827 108.651 20.7566 108.648 20.7314 108.64C17.3997 107.676 13.2686 107.575 13.2275 107.574C13.084 107.571 12.9703 107.451 12.9732 107.307C12.9765 107.164 13.0828 107.048 13.2389 107.052C13.2808 107.053 17.4776 107.156 20.8752 108.139C21.0129 108.179 21.0928 108.323 21.0529 108.461C21.0199 108.574 20.9188 108.648 20.808 108.65Z" fill="white"/>
<path d="M116.847 111.183L115.301 110.286C114.814 110.003 114.419 109.316 114.419 108.751L114.418 44.2994C114.418 43.7343 114.813 43.0473 115.301 42.765L158.227 17.879C158.715 17.5967 159.505 17.5967 159.992 17.879L161.538 18.7751C162.026 19.0574 162.42 19.7444 162.42 20.3095V84.761C162.42 85.3261 162.026 86.0131 161.538 86.2954L118.611 111.183C118.124 111.466 117.334 111.466 116.847 111.183Z" fill="#455A64"/>
<path d="M162.413 20.1655C162.352 19.7073 161.982 19.5395 161.537 19.7973L118.613 44.6874C118.368 44.8306 118.152 45.0679 117.989 45.3461L114.676 43.4271C114.835 43.1489 115.055 42.9075 115.3 42.7643L158.229 17.8783C158.713 17.5959 159.504 17.5959 159.993 17.8783L161.537 18.7743C161.986 19.0321 162.356 19.6336 162.413 20.1655Z" fill="#455A64"/>
<path d="M118.462 111.255C117.973 111.463 117.288 111.439 116.848 111.185L115.3 110.285C114.815 110.003 114.419 109.315 114.419 108.751V44.2985C114.419 44.0162 114.517 43.7052 114.676 43.427L117.989 45.346C117.826 45.6243 117.728 45.9393 117.728 46.2217V110.674C117.728 111.181 118.046 111.414 118.462 111.255Z" fill="#263238"/>
<path d="M117.729 46.221V110.673C117.729 111.238 118.123 111.466 118.611 111.184L161.538 86.2959C162.026 86.0136 162.421 85.3266 162.421 84.7615V20.3092C162.421 19.7441 162.026 19.5154 161.538 19.7977L118.611 44.6866C118.124 44.9689 117.729 45.6559 117.729 46.221Z" fill="#37474F"/>
<path d="M107.704 70.7885C107.15 70.4571 104.578 68.9881 104.444 68.9104C104.036 68.6608 103.89 68.0552 104.269 67.646L114.419 56.7129L117.728 58.6196L107.582 69.5569C107.215 69.9497 107.333 70.5184 107.704 70.7885Z" fill="#455A64"/>
<path d="M117.73 58.6213L107.581 69.5557C107.073 70.1036 107.502 70.9927 108.245 70.9314L117.73 70.147V58.6213Z" fill="#37474F"/>
<path d="M140.074 38.9468C145.078 36.0461 149.133 38.3976 149.133 44.1985C149.133 49.9994 145.078 57.0531 140.074 59.9538C135.071 62.8544 131.016 60.5029 131.016 54.702C131.016 48.9007 135.072 41.847 140.074 38.9468Z" fill="#FFD306"/>
<path d="M140.011 43.512C141.634 42.5709 142.95 43.3336 142.95 45.2154C142.95 47.0976 141.634 49.3862 140.011 50.3268C138.388 51.2675 137.072 50.5052 137.072 48.623C137.072 46.7412 138.388 44.4527 140.011 43.512Z" fill="white"/>
<path d="M145.803 53.547C145.803 50.4548 143.641 49.2015 140.975 50.7478L139.308 51.7143C136.642 53.2601 134.479 57.02 134.479 60.1118V60.9551C134.961 61.1155 135.484 61.1949 136.036 61.1961C137.252 61.1985 138.622 60.7963 140.075 59.9538C142.249 58.6936 144.242 56.6485 145.803 54.2643V53.547Z" fill="white"/>
<path d="M134.336 88.6726L145.814 82.0187C146.301 81.7363 146.696 81.9651 146.696 82.5301V86.2417C146.696 86.8068 146.301 87.4938 145.814 87.7761L134.336 94.4301C133.849 94.7125 133.454 94.4837 133.454 93.9187V90.2071C133.454 89.642 133.849 88.955 134.336 88.6726Z" fill="#25AC10"/>
<path d="M128.719 80.3814L151.43 67.2149C152.015 66.8762 152.489 67.1507 152.489 67.8287V69.2101C152.489 69.8881 152.015 70.7126 151.43 71.0514L128.719 84.2178C128.135 84.5566 127.661 84.282 127.661 83.604V82.2227C127.66 81.5447 128.135 80.7202 128.719 80.3814Z" fill="#FAFAFA"/>
<path d="M131.375 70.8523C131.684 70.6731 131.925 70.6461 132.096 70.7726C132.267 70.8986 132.352 71.1785 132.352 71.613C132.352 72.048 132.267 72.4289 132.096 72.7571C131.925 73.0856 131.684 73.3393 131.375 73.5185L130.762 73.8737V75.1949C130.762 75.2387 130.752 75.2817 130.731 75.325C130.711 75.3688 130.687 75.3987 130.658 75.4146L130.348 75.5947C130.32 75.6115 130.295 75.6098 130.275 75.5898C130.254 75.5697 130.244 75.5386 130.244 75.4948V71.6674C130.244 71.6241 130.254 71.5803 130.275 71.5369C130.295 71.4939 130.32 71.4632 130.348 71.4473L131.375 70.8523ZM130.762 73.1331L131.356 72.7886C131.501 72.7043 131.618 72.5926 131.705 72.453C131.791 72.3139 131.835 72.1343 131.835 71.9129C131.835 71.6916 131.791 71.5635 131.705 71.5291C131.617 71.4948 131.501 71.5197 131.356 71.6044L130.762 71.9485V73.1331Z" fill="#FAFAFA"/>
<path d="M134.061 69.2946C134.102 69.2709 134.133 69.2696 134.154 69.2913C134.174 69.3134 134.192 69.3531 134.207 69.4116L135.147 72.6118C135.149 72.622 135.15 72.6351 135.15 72.651C135.15 72.6944 135.14 72.7378 135.12 72.7812C135.099 72.8245 135.075 72.8548 135.047 72.8708L134.771 73.0308C134.72 73.0602 134.684 73.0643 134.663 73.0426C134.643 73.0209 134.629 72.9968 134.621 72.969L134.456 72.4072L133.245 73.1097L133.081 73.8626C133.073 73.8986 133.059 73.9395 133.039 73.985C133.018 74.0304 132.982 74.0676 132.931 74.0975L132.655 74.2575C132.627 74.2734 132.603 74.2718 132.582 74.2517C132.562 74.2321 132.552 74.2006 132.552 74.1576C132.552 74.1417 132.553 74.1273 132.556 74.1138L133.495 69.8253C133.51 69.7488 133.528 69.6886 133.548 69.6432C133.569 69.5982 133.599 69.5634 133.641 69.5397L134.061 69.2946ZM134.272 71.7738L133.851 70.3298L133.429 72.2623L134.272 71.7738Z" fill="#FAFAFA"/>
<path d="M136.576 67.7777C136.747 67.6787 136.898 67.6267 137.028 67.6227C137.158 67.6177 137.267 67.6439 137.354 67.7C137.441 67.7565 137.506 67.8358 137.551 67.9381C137.595 68.0404 137.621 68.1476 137.626 68.2589C137.628 68.3047 137.619 68.3489 137.597 68.3911C137.575 68.4328 137.551 68.4623 137.522 68.4786L137.254 68.6341C137.211 68.6599 137.179 68.6652 137.157 68.6525C137.135 68.6399 137.115 68.6165 137.097 68.5838C137.059 68.5069 137.001 68.4549 136.923 68.4267C136.845 68.3993 136.729 68.4291 136.576 68.5183C136.509 68.5568 136.446 68.6047 136.386 68.6607C136.326 68.7176 136.273 68.7794 136.229 68.8469C136.184 68.914 136.149 68.9852 136.124 69.0589C136.098 69.1333 136.085 69.2078 136.085 69.2827C136.085 69.3739 136.097 69.441 136.121 69.484C136.146 69.5269 136.186 69.5527 136.244 69.5609C136.302 69.5695 136.378 69.5634 136.472 69.5441C136.567 69.5249 136.685 69.4987 136.825 69.4643C136.978 69.4267 137.11 69.4107 137.222 69.4157C137.333 69.4206 137.423 69.4504 137.493 69.5065C137.564 69.563 137.616 69.644 137.651 69.7504C137.685 69.8572 137.703 69.991 137.703 70.1526C137.703 70.3306 137.677 70.5102 137.626 70.6919C137.575 70.8731 137.502 71.0458 137.408 71.2095C137.313 71.3727 137.197 71.5262 137.058 71.6694C136.921 71.8126 136.766 71.9337 136.595 72.0331C136.451 72.1162 136.315 72.169 136.185 72.1907C136.054 72.2132 135.939 72.2034 135.838 72.1612C135.737 72.1187 135.656 72.0446 135.594 71.9378C135.533 71.831 135.498 71.6931 135.491 71.5237C135.488 71.4779 135.498 71.4337 135.519 71.3916C135.541 71.3498 135.566 71.3204 135.594 71.304L135.862 71.1485C135.906 71.1227 135.939 71.1158 135.962 71.126C135.985 71.1362 136.004 71.1608 136.02 71.1988C136.038 71.2406 136.059 71.279 136.085 71.3155C136.11 71.3519 136.144 71.3772 136.188 71.3916C136.231 71.4059 136.286 71.4067 136.351 71.3952C136.416 71.383 136.497 71.349 136.594 71.2921C136.671 71.2483 136.745 71.1964 136.817 71.1366C136.888 71.0777 136.951 71.0114 137.005 70.939C137.058 70.8666 137.101 70.7905 137.135 70.7095C137.168 70.6289 137.184 70.5433 137.184 70.4521C137.184 70.3658 137.166 70.3052 137.131 70.2704C137.095 70.2356 137.04 70.2201 136.968 70.223C136.895 70.2254 136.805 70.2401 136.698 70.2667C136.591 70.2929 136.467 70.3199 136.326 70.3457C136.198 70.3723 136.086 70.3809 135.991 70.3715C135.895 70.3621 135.815 70.3277 135.753 70.2692C135.691 70.2107 135.644 70.126 135.613 70.0155C135.583 69.9046 135.568 69.761 135.568 69.5826C135.568 69.405 135.593 69.2262 135.644 69.047C135.695 68.8674 135.766 68.6976 135.855 68.5396C135.945 68.3809 136.051 68.2352 136.175 68.1026C136.299 67.9688 136.433 67.8608 136.576 67.7777Z" fill="#FAFAFA"/>
<path d="M139.25 66.2273C139.422 66.1283 139.572 66.0763 139.702 66.0718C139.832 66.0673 139.941 66.0931 140.028 66.1491C140.115 66.2056 140.18 66.285 140.225 66.3873C140.27 66.49 140.295 66.5972 140.3 66.7081C140.303 66.7543 140.293 66.7985 140.272 66.8402C140.25 66.8824 140.225 66.9118 140.197 66.9278L139.928 67.0837C139.885 67.1091 139.852 67.1148 139.831 67.1021C139.809 67.089 139.789 67.0657 139.772 67.0329C139.733 66.9568 139.676 66.9041 139.597 66.8758C139.519 66.8484 139.404 66.8783 139.25 66.9675C139.184 67.0063 139.121 67.0538 139.061 67.1103C139 67.1672 138.948 67.2285 138.903 67.296C138.859 67.3636 138.823 67.4343 138.798 67.5084C138.772 67.5825 138.76 67.6569 138.76 67.7322C138.76 67.8235 138.771 67.8902 138.796 67.9331C138.82 67.9769 138.861 68.0023 138.918 68.0105C138.976 68.0186 139.052 68.0129 139.147 67.9937C139.241 67.9745 139.359 67.9483 139.499 67.9139C139.653 67.8763 139.784 67.8603 139.896 67.8648C140.007 67.8697 140.098 67.8996 140.168 67.9556C140.238 68.0125 140.291 68.0931 140.325 68.1995C140.36 68.3067 140.377 68.4401 140.377 68.6021C140.377 68.7797 140.351 68.9593 140.3 69.1414C140.249 69.3227 140.176 69.4954 140.082 69.6586C139.988 69.8223 139.871 69.9753 139.733 70.1189C139.595 70.2622 139.44 70.3833 139.27 70.4823C139.126 70.5653 138.989 70.6181 138.859 70.6402C138.729 70.6627 138.614 70.6525 138.513 70.6104C138.412 70.5682 138.33 70.4942 138.269 70.3869C138.208 70.2802 138.173 70.1423 138.165 69.9729C138.163 69.927 138.173 69.8828 138.194 69.8411C138.216 69.7986 138.24 69.7695 138.269 69.7531L138.537 69.5977C138.58 69.5723 138.614 69.5649 138.636 69.5756C138.66 69.5858 138.679 69.6099 138.694 69.6484C138.712 69.6897 138.734 69.7282 138.76 69.765C138.785 69.801 138.819 69.8264 138.863 69.8411C138.906 69.8554 138.961 69.8563 139.026 69.8448C139.091 69.8325 139.171 69.7986 139.269 69.7421C139.346 69.6979 139.42 69.6463 139.491 69.5862C139.563 69.5277 139.625 69.4614 139.679 69.389C139.733 69.3161 139.776 69.2404 139.81 69.1594C139.843 69.0792 139.859 68.9937 139.859 68.9025C139.859 68.8157 139.841 68.7552 139.806 68.7204C139.77 68.686 139.715 68.6701 139.643 68.6729C139.57 68.6758 139.48 68.6901 139.372 68.7167C139.265 68.7433 139.141 68.7699 139.001 68.7961C138.873 68.8223 138.761 68.8313 138.665 68.8219C138.57 68.812 138.49 68.7781 138.428 68.7196C138.365 68.6611 138.319 68.5764 138.288 68.4655C138.257 68.355 138.242 68.211 138.242 68.033C138.242 67.8554 138.268 67.6766 138.319 67.4969C138.37 67.3173 138.44 67.1479 138.53 66.9896C138.619 66.8308 138.726 66.6856 138.85 66.5526C138.974 66.4184 139.107 66.3103 139.25 66.2273Z" fill="#FAFAFA"/>
<path d="M142.22 66.739L141.891 68.7014C141.878 68.7676 141.862 68.8258 141.843 68.874C141.823 68.9227 141.795 68.9583 141.757 68.9804L141.446 69.1605C141.407 69.1826 141.377 69.1817 141.356 69.156C141.334 69.131 141.319 69.0913 141.312 69.0369L140.821 65.583C140.819 65.5646 140.817 65.5495 140.817 65.538C140.817 65.4947 140.828 65.4509 140.848 65.4075C140.868 65.3641 140.892 65.3339 140.921 65.3179L141.204 65.1534C141.23 65.1391 141.254 65.1366 141.277 65.1469C141.3 65.1571 141.316 65.1894 141.323 65.2447L141.645 67.57L141.929 65.8236C141.934 65.793 141.946 65.75 141.965 65.6956C141.984 65.6411 142.017 65.6006 142.063 65.5736L142.377 65.3915C142.423 65.365 142.455 65.3678 142.475 65.4001C142.494 65.4325 142.506 65.4607 142.511 65.4853L142.795 66.903L143.116 64.2045C143.124 64.1407 143.14 64.0908 143.162 64.0531C143.185 64.0163 143.21 63.9901 143.235 63.9758L143.519 63.8113C143.547 63.7954 143.571 63.797 143.592 63.817C143.612 63.8367 143.622 63.8682 143.622 63.9116C143.622 63.923 143.621 63.9398 143.618 63.9607L143.128 67.9837C143.12 68.0475 143.105 68.1044 143.084 68.1543C143.062 68.2042 143.032 68.2406 142.994 68.2631L142.683 68.4428C142.645 68.4653 142.616 68.4632 142.597 68.4366C142.578 68.41 142.562 68.3712 142.549 68.3192L142.22 66.739Z" fill="#FAFAFA"/>
<path d="M144.129 65.0048C144.137 64.7793 144.164 64.5547 144.211 64.3317C144.258 64.1087 144.328 63.8983 144.42 63.7011C144.512 63.5039 144.627 63.3222 144.765 63.1577C144.903 62.9924 145.066 62.8558 145.256 62.7457C145.442 62.6373 145.604 62.5849 145.742 62.5878C145.88 62.591 145.995 62.6389 146.087 62.7318C146.179 62.8247 146.249 62.954 146.298 63.1189C146.346 63.2846 146.375 63.4773 146.383 63.6978C146.385 63.7719 146.387 63.8537 146.388 63.9434C146.39 64.0334 146.39 64.1267 146.39 64.2236C146.39 64.3206 146.39 64.4147 146.388 64.506C146.387 64.598 146.385 64.6819 146.383 64.758C146.374 64.9843 146.347 65.2081 146.3 65.4311C146.253 65.6541 146.183 65.8644 146.091 66.0617C145.999 66.2589 145.883 66.4397 145.745 66.6034C145.605 66.7671 145.442 66.9029 145.256 67.0109C145.066 67.1206 144.903 67.1738 144.765 67.1713C144.627 67.1681 144.512 67.1214 144.42 67.0302C144.328 66.9397 144.258 66.8104 144.211 66.6419C144.164 66.4741 144.137 66.2814 144.129 66.0649C144.126 65.9913 144.124 65.9098 144.123 65.819C144.122 65.729 144.121 65.6357 144.121 65.5391C144.121 65.4426 144.122 65.3481 144.123 65.2564C144.124 65.1651 144.126 65.0813 144.129 65.0048ZM145.865 64.0276C145.855 63.749 145.795 63.5636 145.687 63.4703C145.578 63.3775 145.434 63.3824 145.256 63.4863C145.077 63.5902 144.933 63.7515 144.824 63.9708C144.715 64.1897 144.656 64.4438 144.646 64.7343C144.64 64.8873 144.637 65.0559 144.637 65.2396C144.637 65.4233 144.64 65.5882 144.646 65.7355C144.655 66.0142 144.715 66.1987 144.824 66.2896C144.933 66.3808 145.076 66.3743 145.256 66.2707C145.434 66.1672 145.578 66.0068 145.687 65.79C145.795 65.5727 145.855 65.3194 145.865 65.0289C145.87 64.8759 145.873 64.7077 145.873 64.524C145.873 64.3403 145.87 64.1754 145.865 64.0276Z" fill="#FAFAFA"/>
<path d="M148.172 61.1144C148.491 60.9294 148.733 60.9033 148.9 61.0362C149.066 61.1692 149.149 61.4389 149.149 61.846C149.149 62.1345 149.106 62.4045 149.021 62.6578C148.935 62.9107 148.809 63.1349 148.643 63.3301L149.172 64.4868C149.18 64.506 149.183 64.5257 149.183 64.5457C149.183 64.5809 149.175 64.6161 149.158 64.6521C149.142 64.6873 149.121 64.7114 149.099 64.7249L148.773 64.9136C148.722 64.943 148.684 64.9463 148.66 64.923C148.635 64.8988 148.618 64.8751 148.608 64.8493L148.106 63.7593L147.597 64.0551V65.4357C147.597 65.4791 147.586 65.5224 147.566 65.5654C147.545 65.6092 147.522 65.639 147.493 65.6558L147.183 65.8354C147.154 65.8514 147.13 65.8498 147.11 65.8297C147.089 65.8101 147.079 65.779 147.079 65.7356V61.9082C147.079 61.8644 147.089 61.821 147.11 61.7781C147.13 61.7343 147.154 61.7044 147.183 61.6876L148.172 61.1144ZM147.597 63.3141L148.152 62.9921C148.298 62.9078 148.414 62.8006 148.501 62.6713C148.588 62.5424 148.631 62.3669 148.631 62.1455C148.631 61.9246 148.588 61.8014 148.501 61.7768C148.414 61.7523 148.298 61.7822 148.152 61.8669L147.597 62.1889V63.3141Z" fill="#FAFAFA"/>
<path d="M150.889 59.5388C151.078 59.4291 151.242 59.3727 151.381 59.3686C151.52 59.3653 151.637 59.4075 151.73 59.4958C151.824 59.5838 151.895 59.7139 151.945 59.8866C151.994 60.0593 152.024 60.2671 152.035 60.5098C152.045 60.7958 152.045 61.0883 152.035 61.3866C152.025 61.6415 151.994 61.8842 151.945 62.1141C151.895 62.3449 151.824 62.5573 151.732 62.7533C151.639 62.9489 151.525 63.1244 151.388 63.2807C151.252 63.4374 151.092 63.5684 150.908 63.6751L149.942 64.2349C149.914 64.2513 149.89 64.2496 149.869 64.2296C149.849 64.2099 149.838 64.1788 149.838 64.1351V60.3076C149.838 60.2647 149.849 60.2205 149.869 60.1775C149.89 60.1341 149.913 60.1039 149.942 60.0875L150.889 59.5388ZM151.517 60.8097C151.512 60.6865 151.496 60.5781 151.47 60.4852C151.443 60.3923 151.403 60.3203 151.351 60.27C151.298 60.2193 151.232 60.1947 151.154 60.1947C151.074 60.1955 150.979 60.2274 150.87 60.2913L150.357 60.5887V63.2549L150.889 62.9464C150.994 62.8858 151.084 62.8106 151.161 62.7201C151.238 62.6305 151.302 62.5315 151.353 62.4223C151.404 62.3134 151.443 62.1964 151.47 62.0704C151.496 61.9439 151.513 61.8163 151.518 61.6874C151.527 61.3883 151.527 61.0965 151.517 60.8097Z" fill="#FAFAFA"/>
<path d="M94.9311 0.153801C95.6434 0.312152 96.3145 0.565431 96.9449 0.91282C97.5753 1.26062 98.1095 1.68657 98.5467 2.19067C98.9839 2.69437 99.2989 3.26721 99.4908 3.9088C99.6832 4.54956 99.697 5.24352 99.5328 5.98863C99.3988 6.59707 99.1873 7.10527 98.8992 7.51158C98.6103 7.9183 98.279 8.26773 97.9049 8.55907C97.5308 8.85081 97.136 9.10654 96.7228 9.32545C96.3084 9.54477 95.9164 9.75304 95.548 9.94944C95.1784 10.1467 94.8439 10.3643 94.546 10.6008C94.2473 10.8378 94.0387 11.1189 93.9193 11.4433C93.8516 11.6041 93.7518 11.733 93.6194 11.8308C93.4861 11.9294 93.3366 11.9593 93.1699 11.9229L91.4426 11.5387C91.2759 11.5019 91.1414 11.4086 91.04 11.2576C90.9381 11.1074 90.9132 10.9507 90.965 10.7866C91.1264 10.1999 91.3655 9.70639 91.6846 9.30663C92.0033 8.90687 92.357 8.56275 92.7465 8.27387C93.1361 7.9854 93.5407 7.73663 93.9604 7.52672C94.3797 7.3164 94.7705 7.11223 95.1328 6.91337C95.4942 6.71492 95.8031 6.50378 96.0582 6.2816C96.3141 6.05942 96.4771 5.78814 96.5476 5.46857C96.6751 4.89082 96.5378 4.36134 96.1348 3.88056C95.7322 3.40019 95.1291 3.07081 94.3264 2.892C93.0387 2.60558 91.9491 3.04176 91.0579 4.20013C90.9454 4.35071 90.8379 4.45832 90.7368 4.52338C90.6345 4.58885 90.485 4.59948 90.2877 4.55529L88.4471 4.14612C88.311 4.11584 88.203 4.04382 88.1252 3.93089C88.047 3.81796 88.0246 3.68498 88.058 3.53277C88.19 3.0037 88.4736 2.49633 88.9064 2.00982C89.3391 1.52372 89.8668 1.11454 90.4882 0.781475C91.1101 0.449225 91.8052 0.216404 92.5733 0.0842406C93.3427 -0.0475136 94.1279 -0.0250082 94.9311 0.153801ZM92.982 13.3178C93.1483 13.3546 93.2791 13.4475 93.3728 13.5964C93.4674 13.7449 93.4963 13.9029 93.4592 14.0702L93.0163 16.0781C92.9792 16.2458 92.8871 16.3768 92.7388 16.4713C92.5909 16.5666 92.434 16.5953 92.2673 16.558L90.313 16.1235C90.1459 16.0858 90.0155 15.9938 89.921 15.8444C89.8265 15.6959 89.7975 15.5384 89.8346 15.3706L90.2776 13.3624C90.3146 13.1954 90.4067 13.0641 90.5551 12.9691C90.7034 12.875 90.8603 12.8456 91.0273 12.8828L92.982 13.3178Z" fill="#25AC10"/>
<path d="M97.107 19.3483C97.6038 19.2669 98.0988 19.2559 98.5919 19.3172C99.0846 19.3778 99.5352 19.5132 99.9444 19.724C100.353 19.9355 100.701 20.2215 100.988 20.5832C101.275 20.9453 101.46 21.3864 101.545 21.9057C101.614 22.3304 101.608 22.7109 101.527 23.0452C101.446 23.3799 101.322 23.6893 101.157 23.9728C100.991 24.256 100.804 24.5211 100.594 24.7679C100.384 25.015 100.186 25.2486 100 25.47C99.8136 25.6914 99.6546 25.9168 99.5238 26.1451C99.3926 26.3735 99.3303 26.6071 99.3368 26.8456C99.3343 26.9664 99.303 27.0748 99.2435 27.1718C99.1832 27.2687 99.0947 27.3268 98.979 27.3461L97.7737 27.5437C97.6571 27.5629 97.5471 27.5372 97.4432 27.4668C97.3397 27.3968 97.2835 27.3027 97.2753 27.184C97.2293 26.7663 97.257 26.389 97.3597 26.0502C97.4615 25.7122 97.6009 25.4 97.7769 25.1152C97.953 24.8305 98.149 24.5665 98.3645 24.3239C98.5801 24.0817 98.7785 23.8501 98.9599 23.6291C99.1408 23.4094 99.285 23.1946 99.3922 22.9867C99.4994 22.778 99.5352 22.5628 99.499 22.3394C99.4334 21.9368 99.2101 21.6324 98.8291 21.4274C98.4481 21.2228 97.9778 21.1663 97.4175 21.2584C96.519 21.4057 95.9318 21.9658 95.6556 22.9376C95.6217 23.0628 95.5806 23.1594 95.5317 23.2273C95.4832 23.2957 95.3899 23.3407 95.2525 23.3632L93.9686 23.5743C93.8732 23.5898 93.786 23.5714 93.7065 23.5191C93.6275 23.4663 93.5794 23.3873 93.5619 23.2809C93.5118 22.9082 93.5639 22.5096 93.718 22.0865C93.8712 21.6635 94.1051 21.2653 94.4188 20.8926C94.7326 20.5194 95.1193 20.1921 95.5777 19.9097C96.0374 19.6274 96.5467 19.4404 97.107 19.3483ZM99.2129 28.2884C99.3291 28.2696 99.4366 28.2958 99.5352 28.3661C99.6334 28.4377 99.6921 28.5314 99.7113 28.6477L99.9395 30.0495C99.9586 30.1661 99.9325 30.2741 99.862 30.3727C99.7911 30.4718 99.6978 30.5303 99.5813 30.5495L98.2174 30.7733C98.1013 30.7925 97.9937 30.7668 97.8955 30.696C97.7969 30.6248 97.7382 30.5311 97.7191 30.4145L97.4909 29.0126C97.4721 28.8964 97.4978 28.7884 97.5683 28.6894C97.6392 28.5908 97.7325 28.5314 97.8486 28.5122L99.2129 28.2884Z" fill="#25AC10"/>
<g opacity="0.2">
<path d="M97.107 19.3483C97.6038 19.2669 98.0988 19.2559 98.5919 19.3172C99.0846 19.3778 99.5352 19.5132 99.9444 19.724C100.353 19.9355 100.701 20.2215 100.988 20.5832C101.275 20.9453 101.46 21.3864 101.545 21.9057C101.614 22.3304 101.608 22.7109 101.527 23.0452C101.446 23.3799 101.322 23.6893 101.157 23.9728C100.991 24.256 100.804 24.5211 100.594 24.7679C100.384 25.015 100.186 25.2486 100 25.47C99.8136 25.6914 99.6546 25.9168 99.5238 26.1451C99.3926 26.3735 99.3303 26.6071 99.3368 26.8456C99.3343 26.9664 99.303 27.0748 99.2435 27.1718C99.1832 27.2687 99.0947 27.3268 98.979 27.3461L97.7737 27.5437C97.6571 27.5629 97.5471 27.5372 97.4432 27.4668C97.3397 27.3968 97.2835 27.3027 97.2753 27.184C97.2293 26.7663 97.257 26.389 97.3597 26.0502C97.4615 25.7122 97.6009 25.4 97.7769 25.1152C97.953 24.8305 98.149 24.5665 98.3645 24.3239C98.5801 24.0817 98.7785 23.8501 98.9599 23.6291C99.1408 23.4094 99.285 23.1946 99.3922 22.9867C99.4994 22.778 99.5352 22.5628 99.499 22.3394C99.4334 21.9368 99.2101 21.6324 98.8291 21.4274C98.4481 21.2228 97.9778 21.1663 97.4175 21.2584C96.519 21.4057 95.9318 21.9658 95.6556 22.9376C95.6217 23.0628 95.5806 23.1594 95.5317 23.2273C95.4832 23.2957 95.3899 23.3407 95.2525 23.3632L93.9686 23.5743C93.8732 23.5898 93.786 23.5714 93.7065 23.5191C93.6275 23.4663 93.5794 23.3873 93.5619 23.2809C93.5118 22.9082 93.5639 22.5096 93.718 22.0865C93.8712 21.6635 94.1051 21.2653 94.4188 20.8926C94.7326 20.5194 95.1193 20.1921 95.5777 19.9097C96.0374 19.6274 96.5467 19.4404 97.107 19.3483ZM99.2129 28.2884C99.3291 28.2696 99.4366 28.2958 99.5352 28.3661C99.6334 28.4377 99.6921 28.5314 99.7113 28.6477L99.9395 30.0495C99.9586 30.1661 99.9325 30.2741 99.862 30.3727C99.7911 30.4718 99.6978 30.5303 99.5813 30.5495L98.2174 30.7733C98.1013 30.7925 97.9937 30.7668 97.8955 30.696C97.7969 30.6248 97.7382 30.5311 97.7191 30.4145L97.4909 29.0126C97.4721 28.8964 97.4978 28.7884 97.5683 28.6894C97.6392 28.5908 97.7325 28.5314 97.8486 28.5122L99.2129 28.2884Z" fill="black"/>
</g>
<path d="M108.629 21.5511C108.742 21.6326 108.811 21.7443 108.836 21.8862C108.859 22.0286 108.831 22.1567 108.75 22.2709L107.78 23.642C107.698 23.7566 107.587 23.8257 107.446 23.8495C107.304 23.874 107.176 23.845 107.063 23.7639L105.729 22.8114C105.615 22.73 105.546 22.6187 105.522 22.4767C105.498 22.3339 105.527 22.2062 105.608 22.0921L106.578 20.7205C106.659 20.6063 106.77 20.5372 106.912 20.5131C107.053 20.4889 107.181 20.5176 107.295 20.599L108.629 21.5511ZM114.274 12.258C114.76 12.6045 115.186 13.01 115.55 13.4736C115.915 13.9376 116.183 14.429 116.351 14.9483C116.521 15.4683 116.576 15.9999 116.518 16.5445C116.459 17.0895 116.25 17.6161 115.889 18.1251C115.595 18.5408 115.275 18.8555 114.929 19.0695C114.583 19.2839 114.223 19.441 113.848 19.5409C113.473 19.6411 113.095 19.7074 112.715 19.7405C112.332 19.7729 111.972 19.8044 111.631 19.8346C111.29 19.8649 110.97 19.9218 110.67 20.0049C110.37 20.0875 110.123 20.2328 109.931 20.439C109.829 20.5384 109.713 20.6035 109.582 20.635C109.451 20.6665 109.328 20.6415 109.215 20.5601L108.035 19.718C107.921 19.637 107.85 19.5237 107.821 19.3776C107.792 19.2319 107.822 19.1055 107.914 18.9983C108.222 18.6079 108.558 18.3129 108.925 18.1137C109.292 17.9148 109.668 17.7683 110.053 17.6754C110.438 17.5825 110.822 17.5244 111.205 17.5007C111.587 17.4766 111.947 17.4475 112.283 17.4136C112.618 17.3796 112.917 17.3199 113.181 17.2339C113.444 17.148 113.653 16.9962 113.807 16.7781C114.087 16.3833 114.151 15.9409 114 15.4499C113.849 14.9593 113.499 14.5182 112.952 14.1271C112.072 13.4994 111.112 13.4793 110.074 14.0669C109.941 14.1443 109.826 14.1917 109.729 14.2081C109.631 14.2244 109.516 14.1848 109.381 14.089L108.124 13.1917C108.031 13.1254 107.973 13.037 107.95 12.927C107.927 12.8161 107.952 12.7097 108.025 12.6058C108.293 12.2494 108.667 11.9572 109.148 11.7293C109.628 11.5014 110.155 11.3619 110.729 11.3103C111.303 11.2588 111.9 11.3054 112.521 11.4519C113.14 11.5976 113.725 11.8664 114.274 12.258Z" fill="#25AC10"/>
<g opacity="0.6">
<path d="M108.629 21.5511C108.742 21.6326 108.811 21.7443 108.836 21.8862C108.859 22.0286 108.831 22.1567 108.75 22.2709L107.78 23.642C107.698 23.7566 107.587 23.8257 107.446 23.8495C107.304 23.874 107.176 23.845 107.063 23.7639L105.729 22.8114C105.615 22.73 105.546 22.6187 105.522 22.4767C105.498 22.3339 105.527 22.2062 105.608 22.0921L106.578 20.7205C106.659 20.6063 106.77 20.5372 106.912 20.5131C107.053 20.4889 107.181 20.5176 107.295 20.599L108.629 21.5511ZM114.274 12.258C114.76 12.6045 115.186 13.01 115.55 13.4736C115.915 13.9376 116.183 14.429 116.351 14.9483C116.521 15.4683 116.576 15.9999 116.518 16.5445C116.459 17.0895 116.25 17.6161 115.889 18.1251C115.595 18.5408 115.275 18.8555 114.929 19.0695C114.583 19.2839 114.223 19.441 113.848 19.5409C113.473 19.6411 113.095 19.7074 112.715 19.7405C112.332 19.7729 111.972 19.8044 111.631 19.8346C111.29 19.8649 110.97 19.9218 110.67 20.0049C110.37 20.0875 110.123 20.2328 109.931 20.439C109.829 20.5384 109.713 20.6035 109.582 20.635C109.451 20.6665 109.328 20.6415 109.215 20.5601L108.035 19.718C107.921 19.637 107.85 19.5237 107.821 19.3776C107.792 19.2319 107.822 19.1055 107.914 18.9983C108.222 18.6079 108.558 18.3129 108.925 18.1137C109.292 17.9148 109.668 17.7683 110.053 17.6754C110.438 17.5825 110.822 17.5244 111.205 17.5007C111.587 17.4766 111.947 17.4475 112.283 17.4136C112.618 17.3796 112.917 17.3199 113.181 17.2339C113.444 17.148 113.653 16.9962 113.807 16.7781C114.087 16.3833 114.151 15.9409 114 15.4499C113.849 14.9593 113.499 14.5182 112.952 14.1271C112.072 13.4994 111.112 13.4793 110.074 14.0669C109.941 14.1443 109.826 14.1917 109.729 14.2081C109.631 14.2244 109.516 14.1848 109.381 14.089L108.124 13.1917C108.031 13.1254 107.973 13.037 107.95 12.927C107.927 12.8161 107.952 12.7097 108.025 12.6058C108.293 12.2494 108.667 11.9572 109.148 11.7293C109.628 11.5014 110.155 11.3619 110.729 11.3103C111.303 11.2588 111.9 11.3054 112.521 11.4519C113.14 11.5976 113.725 11.8664 114.274 12.258Z" fill="#FFD306"/>
</g>
<path d="M78.2849 57.7725H63.8081V22.5487C63.8081 16.1791 68.9506 11.0149 75.2944 11.0149H76.6322C82.9759 11.0149 88.1184 16.1787 88.1184 22.5487V47.8991C88.118 53.3522 83.7155 57.7725 78.2849 57.7725Z" fill="#263238"/>
<path d="M62.4014 142.565C62.2824 143.45 62.0293 144.482 61.982 146.986C61.9315 149.669 61.4405 150.622 61.3753 152.824C61.3011 155.341 61.7339 156.283 62.751 157.697C63.7681 159.111 66.4371 160.395 67.565 158.004C68.7068 155.584 68.5479 154.047 68.1873 151.578C67.8144 149.026 67.7672 147.616 67.5508 145.67C67.3605 143.954 67.1323 142.651 67.1323 142.651L62.4014 142.565Z" fill="#263238"/>
<path d="M69.9874 124.737L61.1841 124.577C61.3149 130.478 62.2488 137.028 62.4012 142.565C62.4298 143.607 62.3752 150.663 62.7668 152.808C63.3548 156.03 67.1636 155.595 67.3657 153.666C67.5678 151.738 67.1204 143.5 67.1326 142.651C67.0992 139.1 68.7564 133.106 69.6256 126.732C69.668 126.419 69.9471 125.043 69.9874 124.737Z" fill="#FFCFCE"/>
<path d="M81.296 137.973C81.296 137.973 80.9484 137.786 80.8766 138.158C80.7915 138.601 80.6643 139.514 80.481 140.242C80.2263 141.253 80.0144 142.918 80.1672 143.742C80.32 144.566 82.2328 145.626 83.4744 146.009C85.3064 146.574 86.5635 147.496 87.5672 148.445C88.797 149.607 91.451 150.705 93.2582 150.692C95.3967 150.677 96.8877 149.977 97.5922 148.827C98.3281 147.626 96.95 147.538 94.5059 145.946C93.9509 145.584 93.3193 145.175 92.6086 144.709C88.7367 142.169 87.319 140.809 86.2237 138.268L81.296 137.973Z" fill="#263238"/>
<path d="M86.2541 136.401C86.1889 134.573 87.4371 119.074 87.4371 119.074L79.0767 122.901C80.8672 133.631 81.2486 136.161 81.2804 137.917C81.2665 137.958 81.231 138.106 81.2331 138.366C81.2408 140.451 83.5835 141.575 85.4111 142.965C86.1331 143.514 88.2325 145.135 90.3539 146.205C91.6819 146.876 94.3782 146.936 94.7124 146.078C92.4883 144.373 89.2537 141.821 87.4848 139.873C86.64 138.943 86.3193 138.228 86.2541 136.401Z" fill="#FFCFCE"/>
<path d="M64.7918 67.1611C61.5824 74.239 61.5824 79.7122 62.113 88.7426C62.5995 97.0264 63.3754 104.319 63.3754 104.319C63.2511 105.789 61.2165 108.657 60.9532 115.153C60.7071 121.226 61.3697 128.946 61.3697 128.946C61.3697 128.946 65.9368 131.487 69.3141 128.924C69.3141 128.924 72.5728 113.298 73.5279 105.696C74.3612 99.062 75.8094 90.5856 75.8094 90.5856L78.877 105.66C78.877 105.66 77.7099 109.376 77.4369 112.208C77.0054 116.679 79.496 125.459 79.496 125.459C79.496 125.459 84.2151 126.873 87.0972 124.307C87.0972 124.307 88.175 110.032 88.5772 104.645C89.1159 97.4319 87.9831 77.9048 87.0968 67.5674L64.7918 67.1611Z" fill="#455A64"/>
<path d="M75.8086 90.5857L77.0767 79.2384C77.0767 79.2384 82.7575 78.4761 85.3308 76.0469C85.3308 76.0469 83.3972 79.6042 78.6374 80.2945L76.8041 90.8533L78.8766 105.66L75.8086 90.5857Z" fill="#263238"/>
<path d="M98.8108 64.373C99.1645 60.895 99.1511 58.5779 99.1205 58.1323C98.9966 56.3315 98.6759 56.0385 96.1687 52.8478C92.7841 48.54 89.8954 44.6684 86.8396 40.8164C84.6584 38.0664 82.3654 37.6433 80.1259 37.7677C78.5599 37.8548 81.6148 45.4119 83.1539 49.8837L91.9357 59.3684C92.2058 59.7428 92.3301 60.2039 92.2849 60.6638L91.7458 68.7385L94.3757 72.2709C94.3757 72.2709 98.3581 68.8232 98.8108 64.373Z" fill="#FFCFCE"/>
<path d="M71.6655 38.0125C69.967 38.1299 66.8783 38.4029 66.8783 38.4029C65.0959 39.4016 64.6457 40.2204 64.314 42.5973C64.173 43.6084 64.9937 46.3065 65.6986 50.1396L67.0364 57.2486L66.8913 60.7741C66.197 62.9251 64.6261 65.5991 63.2427 69.5402C70.0461 73.3529 75.7521 73.4941 80.9268 72.8271C84.8729 72.3185 86.9609 71.3594 87.6569 70.4126C87.5118 66.5189 87.2376 64.115 87.1703 60.047C87.1422 58.3383 87.2445 56.6144 87.3105 54.6479C89.958 52.4641 89.9881 48.8327 88.544 46.4853C85.1891 41.0314 81.9272 37.5976 79.7667 37.7735L71.6655 38.0125Z" fill="#25AC10"/>
<path opacity="0.6" d="M71.6655 38.0125C69.967 38.1299 66.8783 38.4029 66.8783 38.4029C65.0959 39.4016 64.6457 40.2204 64.314 42.5973C64.173 43.6084 64.9937 46.3065 65.6986 50.1396L67.0364 57.2486L66.8913 60.7741C66.197 62.9251 64.6261 65.5991 63.2427 69.5402C70.0461 73.3529 75.7521 73.4941 80.9268 72.8271C84.8729 72.3185 86.9609 71.3594 87.6569 70.4126C87.5118 66.5189 87.2376 64.115 87.1703 60.047C87.1422 58.3383 87.2445 56.6144 87.3105 54.6479C89.958 52.4641 89.9881 48.8327 88.544 46.4853C85.1891 41.0314 81.9272 37.5976 79.7667 37.7735L71.6655 38.0125Z" fill="white"/>
<path opacity="0.1" d="M82.0444 54.7072C82.0444 54.7072 78.9369 57.1287 75.3905 55.8659C71.8446 54.6032 71.3267 51.4902 71.3267 51.4902C71.3267 51.4902 70.9501 55.5611 75.4235 56.9494C79.7409 58.2887 82.0444 54.7072 82.0444 54.7072Z" fill="black"/>
<path d="M86.2577 26.8381C86.124 32.7454 84.2145 34.2057 83.2578 34.6251C82.301 35.0445 80.4538 34.7888 78.6617 34.4909V38.036C78.6617 38.036 80.7301 40.2136 80.5753 41.8372C80.4167 43.4649 77.3247 43.6454 75.0016 42.0553C73.3061 40.8957 72.095 39.57 71.5665 38.9411C71.3742 38.7124 71.2703 38.4251 71.2703 38.1256V29.7834C71.2703 29.7834 70.2882 30.828 68.5503 29.6324C66.8164 28.4409 66.6661 26.217 67.7272 24.9584C68.4835 24.0647 70.4056 24.0017 71.329 25.3905C71.8469 26.4101 71.9182 27.4339 72.4989 27.01C74.0489 25.8897 73.2177 23.3429 75.0893 22.0843C75.0933 22.0843 75.0933 22.0802 75.0974 22.0802C75.6573 21.7783 76.2926 21.4927 77.0028 21.2451C80.3414 20.0871 83.2329 19.1137 83.9305 16.8228C85.2463 17.6076 86.4207 19.8691 86.2577 26.8381Z" fill="#FFCFCE"/>
<path d="M79.6775 32.1162C80.1039 32.1162 80.4496 31.769 80.4496 31.3408C80.4496 30.9126 80.1039 30.5654 79.6775 30.5654C79.251 30.5654 78.9053 30.9126 78.9053 31.3408C78.9053 31.769 79.251 32.1162 79.6775 32.1162Z" fill="#B16668"/>
<path d="M79.1608 25.9425C79.1844 26.411 78.8392 26.8075 78.3906 26.8292C77.9416 26.8505 77.5589 26.4884 77.5353 26.0199C77.5121 25.5518 77.8568 25.1549 78.3058 25.1332C78.7545 25.1123 79.1375 25.4744 79.1608 25.9425Z" fill="#263238"/>
<path d="M85.3364 26.0231C85.358 26.4487 85.0442 26.8096 84.6359 26.8288C84.1873 26.8501 83.8821 26.5616 83.8584 26.0935C83.8372 25.668 84.1506 25.3071 84.5589 25.2874C84.9672 25.2682 85.3152 25.5976 85.3364 26.0231Z" fill="#263238"/>
<path d="M81.1763 24.5273L81.3067 29.4972L83.9117 28.6866L81.1763 24.5273Z" fill="#FFA8A8"/>
<path d="M78.6597 34.4898C76.7677 34.2406 72.8754 33.1178 72.269 31.5728C72.269 31.5728 72.4712 32.5437 73.6337 33.5446C74.7963 34.545 78.6597 35.6727 78.6597 35.6727V34.4898Z" fill="#F28F8F"/>
<path d="M78.7495 22.1141L77.0234 23.1706C76.7406 22.6718 76.8979 22.031 77.3746 21.7393C77.8514 21.4475 78.4671 21.6153 78.7495 22.1141Z" fill="#263238"/>
<path d="M85.7808 23.2921L83.8579 22.6177C84.025 22.0731 84.5906 21.783 85.1215 21.9692C85.6525 22.155 85.9475 22.7475 85.7808 23.2921Z" fill="#263238"/>
<path d="M56.5566 30.294C58.0798 28.2505 59.1185 26.7063 60.5088 24.9547C61.2982 23.9599 61.803 23.25 62.5626 22.2295C63.0854 21.527 63.3918 20.9345 63.9713 20.7168C64.6233 20.4717 65.252 19.9873 65.6713 19.545C65.9708 19.2287 66.2161 18.8657 66.4753 18.5151C67.3457 17.337 68.3856 16.2855 69.5522 15.4029C70.7784 14.4753 72.1406 13.7678 73.3985 12.884C74.1491 12.3566 74.9539 11.4805 74.0403 10.663C73.7677 10.4187 73.4213 10.2731 73.0644 10.1949C70.8472 9.70839 68.9125 10.476 66.7438 11.0329C65.8013 11.2747 64.8739 11.5779 63.9823 11.9695C63.5495 12.1594 63.118 12.366 62.7594 12.6741C62.2003 13.1545 61.8658 13.8382 61.5027 14.4802C60.5276 16.2053 58.5077 17.7274 57.086 19.0703C55.4181 20.6456 53.9275 22.09 52.025 23.8282C50.3127 25.3925 48.6375 26.8348 47.0671 28.5431C45.768 29.9564 46.2407 31.062 46.4257 31.4437C47.4843 33.6304 48.6697 34.4144 50.0857 35.7687C52.5384 38.1149 60.9864 44.8639 63.7891 47.0914C64.3889 47.5681 64.86 48.1864 65.1628 48.8918L65.6978 50.1398C68.8925 50.7302 71.0241 45.9138 68.3783 40.1146C67.9492 39.1739 67.2683 38.3731 66.4358 37.7635C63.1013 35.3207 56.5566 30.294 56.5566 30.294Z" fill="#FFCFCE"/>
<path d="M56.5569 30.2939C56.5569 30.2939 55.1123 32.233 52.6523 32.9925C52.6523 32.9925 54.6902 33.5146 57.4794 31.001L56.5569 30.2939Z" fill="#FFCFCE"/>
<path d="M97.981 60.1032L97.9916 60.1044L97.4692 59.6523L97.4688 59.6588C97.351 59.5639 97.168 59.534 96.9317 59.5987L91.2737 61.1441C90.7493 61.2873 90.18 61.8213 90.0024 62.3369L85.9308 74.1329C85.8366 74.4063 85.8741 74.617 86.0057 74.7357L86.0013 74.7373L86.54 75.2033L86.5396 75.1964C86.6569 75.2946 86.8419 75.3261 87.0819 75.2606L92.7399 73.7156C93.2643 73.5724 93.8336 73.038 94.0112 72.5224C94.8111 70.2036 97.2838 63.0443 98.0833 60.7259C98.1835 60.435 98.1338 60.2165 97.981 60.1032Z" fill="#455A64"/>
<path d="M86.4542 74.5858L90.5258 62.7897C90.7035 62.2742 91.2727 61.7402 91.7972 61.597L97.4551 60.0519C97.9796 59.9087 98.2603 60.2107 98.0827 60.7263C97.2832 63.0446 94.8105 70.204 94.0111 72.5228C93.8334 73.0383 93.2637 73.5727 92.7397 73.7159L87.0817 75.261C86.5573 75.4033 86.2765 75.1014 86.4542 74.5858Z" fill="#25AC10"/>
<path d="M91.1822 61.9243C90.8875 62.158 90.6341 62.4796 90.5257 62.791L86.4529 74.5834C86.3649 74.8481 86.3909 75.0555 86.5095 75.175L86.003 74.7388L86.0083 74.7335C85.8738 74.614 85.8376 74.4066 85.9309 74.1316L90.0037 62.3339C90.1019 62.0434 90.3346 61.7476 90.6084 61.5139L91.1822 61.9243Z" fill="#37474F"/>
<path d="M96.4263 65.4785C96.0274 66.6802 94.6057 67.4818 92.2687 68.0379C89.9318 68.5939 88.6372 71.0858 89.0145 71.844C89.3923 72.6022 93.1684 73.3064 94.679 73.09C96.1896 72.8731 97.7091 70.6807 98.1663 70.0023C98.6235 69.3239 99.1565 64.5853 98.6712 63.9355C98.1854 63.2853 97.1655 63.3852 97.1655 63.3852L96.4263 65.4785Z" fill="#FFCFCE"/>
</svg>
