<svg width="198" height="180" viewBox="0 0 198 180" fill="none" xmlns="http://www.w3.org/2000/svg">
<path d="M28.9966 164.683C67.6586 185.105 130.342 185.106 169.003 164.684C207.666 144.262 207.666 111.152 169.003 90.7301C130.341 70.3084 67.6582 70.3085 28.9961 90.7297C-9.66545 111.151 -9.66545 144.262 28.9966 164.683Z" fill="#DFDFDF"/>
<path d="M144.632 146.143C154.777 146.143 163.002 141.341 163.002 135.419C163.002 129.496 154.777 124.695 144.632 124.695C134.486 124.695 126.262 129.496 126.262 135.419C126.262 141.341 134.486 146.143 144.632 146.143Z" fill="#E0E0E0"/>
<path d="M32.7431 129.821C32.4709 126.669 29.6524 120.341 26.0644 116.534C22.4765 112.728 17.1329 110.185 13.6284 111.754C10.3648 113.214 11.1145 117.645 15.4523 120.242C19.7901 122.838 26.2468 126.011 28.4835 130.965L32.7921 136.904L32.7431 129.821Z" fill="#25AC10"/>
<path opacity="0.1" d="M32.7431 129.821C32.4709 126.669 29.6524 120.341 26.0644 116.534C22.4765 112.728 17.1329 110.185 13.6284 111.754C10.3648 113.214 11.1145 117.645 15.4523 120.242C19.7901 122.838 26.2468 126.011 28.4835 130.965L32.7921 136.904L32.7431 129.821Z" fill="black"/>
<path d="M33.3467 134.112C33.2465 134.113 33.1544 134.047 33.1257 133.945C30.1091 123.372 20.7462 115.388 15.4274 113.911C15.3056 113.877 15.2342 113.749 15.2674 113.627C15.3007 113.504 15.4238 113.429 15.5486 113.465C20.9686 114.97 30.5026 123.083 33.565 133.817C33.6 133.94 33.53 134.068 33.4091 134.103C33.3876 134.109 33.3669 134.112 33.3467 134.112Z" fill="white"/>
<path d="M32.354 141.139C31.7004 139.412 29.3074 136.677 25.6376 134.568C21.5779 132.235 16.6261 131.435 15.3291 129.454C13.7712 127.075 15.6499 124.531 19.6256 124.677C23.6013 124.823 30.9857 129.638 32.797 137.709L32.354 141.139Z" fill="#25AC10"/>
<path d="M32.9559 139.213C32.8687 139.213 32.7856 139.163 32.7465 139.078C28.6873 130.15 21.4534 127.529 18.1955 127.391C18.0693 127.386 17.9714 127.278 17.9768 127.15C17.9817 127.022 18.0837 126.923 18.2149 126.929C21.8172 127.082 29.0188 129.771 33.1621 138.884C33.2146 139 33.1643 139.138 33.0498 139.191C33.0192 139.206 32.9873 139.212 32.9559 139.213Z" fill="white"/>
<path d="M154.744 125.735C154.675 123.199 155.373 118.946 157.844 114.701C160.488 110.159 163.979 107.115 166.912 108.04C169.645 108.902 169.044 112.651 164.936 116.734C162.054 119.599 159.136 123.235 157.803 127.388L155.492 132.739L154.744 125.735Z" fill="#25AC10"/>
<path d="M154.744 125.735C154.675 123.199 155.373 118.946 157.844 114.701C160.488 110.159 163.979 107.115 166.912 108.04C169.645 108.902 169.044 112.651 164.936 116.734C162.054 119.599 159.136 123.235 157.803 127.388L155.492 132.739L154.744 125.735Z" fill="#25AC10"/>
<g opacity="0.1">
<path d="M154.744 125.735C154.675 123.199 155.373 118.946 157.844 114.701C160.488 110.159 163.979 107.115 166.912 108.04C169.645 108.902 169.044 112.651 164.936 116.734C162.054 119.599 159.136 123.235 157.803 127.388L155.492 132.739L154.744 125.735Z" fill="black"/>
</g>
<path d="M155.199 127.623C155.272 127.616 155.335 127.563 155.353 127.488C157.113 120.245 161.573 112.624 165.728 109.761C165.809 109.705 165.83 109.593 165.775 109.511C165.719 109.429 165.609 109.408 165.528 109.464C161.309 112.372 156.786 120.083 155.008 127.401C154.985 127.498 155.043 127.595 155.138 127.619C155.159 127.624 155.179 127.626 155.199 127.623Z" fill="white"/>
<path d="M154.718 133.946C154.718 133.946 156.473 135.721 159.598 136.417C162.723 137.112 164.206 135.67 164.206 135.67C164.206 135.67 163.14 132.603 161.398 131.656C161.398 131.656 164.398 132.465 166.74 134.257C166.74 134.257 168.665 134.403 169.607 131.476C169.607 131.476 168.571 129.618 164.798 128.421C164.798 128.421 167.163 127.968 170.47 129.036C170.716 129.153 172.016 125.373 172.446 123.619C172.875 121.866 172.169 121.842 170.823 121.39C169.477 120.939 164.834 120.426 163.934 121.134C163.033 121.843 162.444 124.418 162.444 124.418C162.444 124.418 161.712 122.897 161.986 121.595C161.986 121.595 160.641 121.042 159.072 121.491C157.504 121.939 157.557 122.702 157.491 123.833C157.419 125.041 157.49 125.851 157.753 127.226C157.753 127.226 156.746 126.234 156.911 122.811C156.911 122.811 154.728 124.482 153.804 125.976C152.878 127.468 152.851 131.521 154.718 133.946Z" fill="#25AC10"/>
<path d="M154.707 134.125C154.773 134.129 154.838 134.096 154.873 134.033C157.734 128.838 167.567 123.194 170.997 122.731C171.094 122.718 171.163 122.628 171.15 122.529C171.137 122.431 171.047 122.362 170.95 122.375C167.463 122.845 157.469 128.58 154.562 133.858C154.514 133.945 154.545 134.055 154.631 134.103C154.656 134.116 154.681 134.124 154.707 134.125Z" fill="white"/>
<path d="M35.1701 144.62L33.9477 143.907C32.9549 143.327 32.1499 141.917 32.1499 140.758V32.429C32.1499 31.2698 32.9549 29.8599 33.9477 29.2803L83.3603 0.434688C84.3531 -0.144896 85.9631 -0.144896 86.9564 0.434688L88.1801 1.14872C89.1733 1.7283 89.9783 3.1382 89.9783 4.29737V112.626C89.9783 113.785 89.1733 115.195 88.1805 115.775L38.7666 144.62C37.7729 145.2 36.1629 145.2 35.1701 144.62Z" fill="#37474F"/>
<path d="M39.378 34.5499L32.6764 30.6377C32.3512 31.2077 32.1499 31.8496 32.1499 32.4291V140.758C32.1499 141.917 32.9549 143.327 33.9477 143.907L35.1701 144.62C36.1633 145.2 37.7729 145.2 38.7662 144.62L39.378 144.263V34.5499Z" fill="#263238"/>
<path d="M36.9692 35.2425V143.571C36.9692 144.73 37.7743 145.2 38.7675 144.621L88.1814 115.775C89.1742 115.196 89.9792 113.786 89.9792 112.626V4.29789C89.9792 3.13873 89.1742 2.66861 88.181 3.2482L38.7671 32.0938C37.7743 32.6734 36.9692 34.0833 36.9692 35.2425Z" fill="#455A64"/>
<path d="M40.9197 42.0898L85.8512 15.8627C86.7025 15.3658 87.3925 15.7687 87.3925 16.7625V103.185C87.3925 104.179 86.7025 105.388 85.8512 105.884L40.9202 132.112C40.0689 132.608 39.3789 132.206 39.3789 131.212L39.3784 44.7892C39.3789 43.7949 40.0684 42.5867 40.9197 42.0898Z" fill="#FAFAFA"/>
<g opacity="0.4">
<path d="M63.6338 48.9019C68.6711 45.9608 72.755 48.345 72.755 54.2258C72.755 60.107 68.6711 67.2587 63.6338 70.1993C58.5966 73.1395 54.5127 70.7562 54.5127 64.8745C54.5127 58.9932 58.5966 51.842 63.6338 48.9019Z" fill="#FFD306"/>
<path d="M81.6091 80.3545C81.6091 70.6924 74.8994 66.4027 66.6251 71.2343L61.4509 74.2539C53.1765 79.085 46.4668 90.8338 46.4668 100.496V103.096L81.6091 82.5952V80.3545Z" fill="#FFD306"/>
</g>
<path d="M63.4729 20.4837C64.1382 20.0954 64.6777 20.4101 64.6777 21.1873C64.6777 21.964 64.1382 22.9088 63.4729 23.2972C62.8076 23.6855 62.2681 23.3707 62.2681 22.594C62.2681 21.8169 62.8076 20.8721 63.4729 20.4837Z" fill="#263238"/>
<path d="M59.9936 26.5687C62.4414 25.2005 66.8084 22.5724 69.2217 21.1371C69.6314 20.8936 69.9633 21.0612 69.9633 21.5123C69.9633 21.9633 69.6296 22.5234 69.2181 22.7637L59.9743 28.1616C59.5628 28.4019 59.229 28.2311 59.229 27.7801C59.229 27.3299 59.5776 26.8012 59.9936 26.5687Z" fill="#263238"/>
<path d="M57.658 27.9337C58.0315 27.7157 58.334 27.8924 58.334 28.3284C58.334 28.7645 58.0315 29.295 57.658 29.513C57.2845 29.7311 56.9819 29.5544 56.9819 29.1179C56.9819 28.6818 57.2849 28.1518 57.658 27.9337Z" fill="#263238"/>
<path d="M63.4731 121.758C64.8038 120.981 65.8828 121.611 65.8828 123.165C65.8828 124.719 64.8042 126.608 63.4731 127.384C62.1425 128.161 61.0635 127.532 61.0635 125.978C61.0635 124.424 62.1425 122.535 63.4731 121.758Z" fill="#263238"/>
<path d="M104.448 91.4127L99.0291 88.2499C99.0291 88.2499 99.0237 88.2499 99.0178 88.2499L98.9617 88.2159L98.9558 88.2272C96.2614 86.6888 92.5674 86.9159 88.4749 89.3055C84.6465 91.5362 81.1547 95.2599 78.5217 99.5682C75.4791 104.529 73.5649 110.273 73.5649 115.421C73.5649 120.223 75.2266 123.595 77.9157 125.173V125.179L77.9328 125.184L83.4345 128.362C86.1515 130.113 89.9874 129.958 94.2425 127.474C102.479 122.665 109.157 110.972 109.157 101.356C109.157 96.3496 107.345 92.898 104.448 91.4127Z" fill="#25AC10"/>
<path opacity="0.1" d="M83.3277 128.3L77.932 125.182L77.9149 125.176V125.171C75.2254 123.595 73.5659 120.221 73.5659 115.42C73.5659 110.271 75.4787 104.531 78.5227 99.5703L84.2787 102.927C81.2347 107.887 79.3273 113.622 79.3273 118.765C79.3273 123.356 80.8461 126.639 83.3277 128.3Z" fill="black"/>
<path opacity="0.4" d="M104.338 91.3503C101.682 90.0476 98.1372 90.3774 94.2438 92.6476C90.4123 94.8891 86.9182 98.6151 84.2794 102.927L78.5234 99.5712C81.1564 95.2589 84.6505 91.5383 88.4766 89.3081C92.5668 86.9189 96.2635 86.6914 98.9584 88.2271L98.9638 88.2157L99.02 88.2498C99.0258 88.2498 99.0312 88.2498 99.0312 88.2498L104.338 91.3503Z" fill="white"/>
<path d="M102.01 97.4773L99.9446 96.2722L91.853 115.552L93.2331 116.357L102.01 97.4773Z" fill="white"/>
<path d="M90.2664 111.248L88.2013 110.042L85.9839 114.789L88.049 115.994L90.2664 111.248Z" fill="white"/>
<path d="M93.7639 122.011L88.0488 115.995L90.2662 111.248L93.232 116.358L102.009 97.4775L105.262 100.687L93.7639 122.011Z" fill="#F5F5F5"/>
<path d="M85.9839 114.79L88.049 115.995L93.7641 122.011L91.7003 120.818L85.9839 114.79Z" fill="#E0E0E0"/>
<path d="M146.559 44.0734C151.433 44.0734 155.384 40.078 155.384 35.1502V34.6238C155.384 30.4472 152.036 27.061 147.904 27.061H145.213C141.082 27.061 137.733 30.4468 137.733 34.6238V35.1502C137.734 40.0785 141.685 44.0734 146.559 44.0734Z" fill="#263238"/>
<path d="M137.477 132.311C136.453 133.445 135.322 134.354 134.109 135.272C133.928 135.41 133.74 135.555 133.642 135.762C133.483 136.096 133.236 136.922 134.742 137.453C136.213 137.972 138.048 137.851 139.388 137.003C140.625 136.22 140.68 134.592 141.847 133.663C142.711 132.975 143.791 132.798 144.49 131.9C144.976 131.274 144.85 130.441 144.596 129.41C144.319 128.284 144.192 127.433 143.823 127.519L143.883 128.037C143.424 128.779 141.041 128.997 139.98 128.486C139.98 128.486 138.145 131.571 137.477 132.311Z" fill="#263238"/>
<path d="M136.433 133.364C136.433 133.363 136.433 133.358 136.433 133.356C136.791 133.024 137.141 132.682 137.478 132.31C137.908 131.833 138.824 130.383 139.422 129.412C139.785 128.822 140.049 128.116 139.966 127.338C139.883 126.56 139.67 124.564 139.67 124.564L143.445 124.294L143.884 128.036C143.975 128.885 143.282 129.638 142.053 130.708C140.825 131.778 139.265 134.274 138.153 134.902C137.04 135.531 136.245 135.507 135.771 135.186C135.283 134.856 135.235 134.602 136.433 133.364Z" fill="#FFCFCE"/>
<path d="M151.833 132.652V132.078C151.609 132.751 150.571 135.648 148.997 137.1C147.745 138.254 146.038 139.587 145.604 140.874C145.152 142.212 147.98 142.662 149.148 142.453C150.507 142.209 152.265 141.43 153.221 140.241C153.894 139.406 154.322 138.416 154.802 137.758C155.283 137.101 156.39 136.367 156.65 135.607C156.793 135.189 156.623 134.274 156.422 133.501C156.239 132.792 156.039 132.012 155.8 132.079C155.799 132.165 155.8 132.516 155.8 132.516C155.512 132.839 154.715 133.159 153.816 133.194C153.236 133.216 151.828 133.1 151.833 132.652Z" fill="#263238"/>
<path d="M147.865 138.116C148.253 137.765 148.644 137.423 148.998 137.096C150.098 136.082 150.936 134.361 151.418 133.188C151.692 132.518 151.834 131.802 151.834 131.077V128.79H155.802V132.512V132.612L155.782 132.622C155.591 133.455 153.77 135.673 152.736 137.119C152.042 138.088 150.724 139.321 149.15 139.534C147.658 139.735 146.895 139.26 147.865 138.116Z" fill="#FFCFCE"/>
<path d="M155.012 70.3076C158.087 77.0999 154.901 101.028 154.901 101.028C154.993 102.131 156.24 104.3 156.704 109.151C157.252 114.883 155.843 129.277 155.843 129.277C155.843 129.277 154.006 130.491 151.833 129.438C151.833 129.438 148.052 107.76 147.341 102.061C146.721 97.0865 145.529 85.3954 145.529 85.3954L142.438 102.167C142.438 102.167 143.443 104.897 143.646 107.02C143.967 110.372 143.726 125.879 143.726 125.879C143.726 125.879 142.369 126.922 139.771 126.535C139.771 126.535 135.27 105.308 134.922 101.273C134.714 98.863 137.431 69.3137 137.431 69.3137L155.012 70.3076Z" fill="#25AC10"/>
<path opacity="0.6" d="M155.012 70.3076C158.087 77.1 154.901 101.028 154.901 101.028C154.993 102.131 156.24 104.3 156.704 109.151C157.252 114.883 155.843 129.277 155.843 129.277C155.843 129.277 154.006 130.491 151.833 129.438C151.833 129.438 148.052 107.76 147.341 102.061C146.721 97.0865 145.529 85.3954 145.529 85.3954L142.438 102.167C142.438 102.167 143.443 104.897 143.646 107.02C143.967 110.372 143.726 125.879 143.726 125.879C143.726 125.879 142.369 126.922 139.771 126.535C139.771 126.535 135.27 105.308 134.922 101.273C134.714 98.863 137.431 69.3137 137.431 69.3137L155.012 70.3076Z" fill="#D9D9D9"/>
<path opacity="0.3" d="M145.529 85.3952L144.531 79.8405C144.531 79.8405 140.306 78.9557 138.39 77.1343C138.39 77.1343 140.4 79.6625 143.386 80.4905L144.508 85.3479L142.741 100.52L145.529 85.3952Z" fill="black"/>
<path d="M160.025 67.3548C159.993 66.9092 159.168 62.153 158.599 59.4927L153.069 61.2064L154.052 66.1007L158.712 69.8816C160.171 69.5886 160.056 67.8003 160.025 67.3548Z" fill="#FFCFCE"/>
<path d="M133.279 57.3276L130.665 62.1728L134.731 65.6971L138.455 59.7259L133.279 57.3276Z" fill="#FFCFCE"/>
<path d="M143.087 46.5278C140.495 46.5546 137.64 47.508 136.658 49.5634C135.676 51.6187 132.956 57.2883 132.956 57.2883C132.956 57.2883 135.376 60.6132 139.01 60.3742L143.087 46.5278Z" fill="#25AC10"/>
<path opacity="0.6" d="M143.087 46.5278C140.495 46.5546 137.64 47.508 136.658 49.5634C135.676 51.6187 132.956 57.2883 132.956 57.2883C132.956 57.2883 135.376 60.6132 139.01 60.3742L143.087 46.5278Z" fill="black"/>
<path d="M148.455 46.6214L150.612 46.7095C152.96 47.2809 153.806 48.9093 154.793 51.0155C155.544 52.6189 155.553 54.478 154.979 56.1546L152.231 64.1924C152.231 64.1924 153.518 67.337 155.012 70.308C148.116 74.1998 139.505 72.154 137.431 69.3142C137.343 68.7119 137.463 65.9966 137.295 62.907C137.117 59.6125 136.67 55.8929 137.182 53.8562C138.133 50.0762 139.914 46.5278 143.46 46.5278L148.455 46.6214Z" fill="#F5F5F5"/>
<path d="M150.611 46.709C152.965 47.0456 156.42 47.5252 157.612 53.1812C158.819 58.9134 159.051 60.2779 159.051 60.2779C159.051 60.2779 156.993 62.3537 153.089 62.335C153.089 62.335 149.646 51.079 150.611 46.709Z" fill="#25AC10"/>
<path opacity="0.6" d="M150.611 46.709C152.965 47.0456 156.42 47.5252 157.612 53.1812C158.819 58.9134 159.051 60.2779 159.051 60.2779C159.051 60.2779 156.993 62.3537 153.089 62.335C153.089 62.335 149.646 51.079 150.611 46.709Z" fill="black"/>
<path d="M152.984 61.986C152.551 60.4835 152.092 58.7679 151.66 56.9229C151.66 56.9229 151.677 60.9409 152.355 63.8261L152.984 61.986Z" fill="#EBEBEB"/>
<path d="M140.634 30.6699C139.702 31.2268 138.55 33.5978 138.664 38.5674C138.76 42.7794 140.11 43.8196 140.788 44.1198C141.466 44.4196 142.774 44.2374 144.045 44.0231V46.5508C144.045 46.5508 142.288 48.6139 142.399 49.7735C142.509 50.9326 144.936 51.2065 146.58 50.0742C148.224 48.9418 149.278 47.2185 149.278 47.2185V41.1083C149.278 41.1083 150.136 42.267 151.54 41.3245C152.944 40.382 152.997 38.0492 152.181 37.2116C151.365 36.374 149.606 36.6393 149.278 37.7966C149.278 37.7966 147.251 37.8716 144.551 36.3717C141.851 34.8714 140.814 32.3033 140.634 30.6699Z" fill="#FFCFCE"/>
<path d="M143.314 37.5091C143.298 37.8125 143.521 38.0696 143.809 38.0837C144.098 38.0977 144.344 37.8629 144.359 37.559C144.375 37.2556 144.152 36.9981 143.864 36.9845C143.575 36.9708 143.329 37.2057 143.314 37.5091Z" fill="#263238"/>
<path d="M143.173 41.0796L141.958 41.472C142.059 41.8241 142.412 42.0216 142.748 41.9135C143.084 41.805 143.274 41.4316 143.173 41.0796Z" fill="#FFA2A0"/>
<path d="M139.019 35.8829L140.078 35.1403C139.885 34.8341 139.49 34.7524 139.198 34.9577C138.906 35.1625 138.826 35.5768 139.019 35.8829Z" fill="#263238"/>
<path d="M139.263 37.126C139.248 37.4294 139.47 37.6865 139.759 37.7006C140.048 37.7147 140.294 37.4799 140.309 37.176C140.324 36.8726 140.102 36.6155 139.813 36.6014C139.525 36.5878 139.279 36.8226 139.263 37.126Z" fill="#263238"/>
<path d="M141.734 36.8228L141.651 40.0109L139.991 39.4913L141.734 36.8228Z" fill="#FFA2A0"/>
<path d="M144.044 44.0227C145.384 43.8451 148.14 43.0444 148.57 41.9429C148.57 41.9429 148.427 42.6351 147.604 43.3487C146.78 44.0623 144.045 44.8658 144.045 44.8658V44.0227H144.044Z" fill="#FFA2A0"/>
<path d="M122.119 57.0291L137.327 61.0789L141.816 80.1629L127.357 75.9169L122.119 57.0291Z" fill="#25AC10"/>
<path opacity="0.15" d="M128.75 69.6567C128.609 70.0465 127.777 71.1284 126.006 71.043L125.788 70.2536L128.75 69.6567Z" fill="black"/>
<path opacity="0.15" d="M132.149 70.2539C132.216 70.7622 133.25 71.7047 134.998 72.2938C136.988 72.9642 140.04 72.6095 140.04 72.6095L139.767 71.6602L132.149 70.2539Z" fill="black"/>
<path opacity="0.15" d="M126.571 59.7926C126.571 59.7926 126.515 59.53 126.446 59.2062C126.376 58.8823 127.269 58.8683 128.439 59.1753L130.68 59.7631C131.85 60.0701 132.855 60.5811 132.924 60.9054L133.05 61.4918L126.571 59.7926Z" fill="black"/>
<path d="M125.517 57.5802C125.473 57.3776 125.835 57.3249 126.325 57.4617L127.212 57.7097C127.212 57.7097 126.948 56.4415 128.917 56.8848C130.886 57.3281 131.316 58.7684 131.316 58.7684C131.316 58.7684 131.74 58.8902 132.263 59.0405C132.787 59.1909 133.261 59.4761 133.323 59.6773L133.435 60.0421L125.6 57.9568C125.6 57.9568 125.561 57.7828 125.517 57.5802Z" fill="#37474F"/>
<path d="M126.597 58.214C127.315 58.3889 127.613 58.4856 127.72 58.9848C127.843 59.5553 127.893 59.9736 127.893 59.9736L131.361 60.9002C131.361 60.9002 131.193 60.178 131.14 59.8969C131.086 59.6153 131.204 59.4458 131.756 59.5935L131.803 59.37L126.37 57.9714L126.597 58.214Z" fill="#37474F"/>
<path d="M126.477 59.848C126.477 59.848 126.421 59.5855 126.351 59.2616C126.282 58.9378 127.174 58.9237 128.345 59.2307L130.586 59.8185C131.756 60.1251 132.761 60.6365 132.83 60.9609L132.956 61.5472L126.477 59.848Z" fill="#37474F"/>
<path d="M158.711 69.8815L154.052 66.1006C154.052 66.1006 143.756 67.9551 142.546 68.0514C141.336 68.1477 139.992 67.2838 139.531 66.0828C139.07 64.8819 138.257 65.0313 138.257 65.0313C138.257 65.0313 138.616 66.5534 138.73 67.0394C138.844 67.5254 135.944 67.9247 134.337 67.3742C132.728 66.8237 130.4 67.6231 131.842 69.8374C133.285 72.0517 136.089 72.307 138.037 72.3088C138.576 72.3093 139.533 72.2679 140.474 72.1444C141.104 72.0617 141.731 71.9972 142.365 71.9518C146.351 71.6634 156.899 70.4565 158.711 69.8815Z" fill="#FFCFCE"/>
<path d="M123.666 62.6083C123.666 62.6083 124.21 64.5728 124.34 65.042C124.471 65.5107 126.239 66.3624 127.356 66.6731C128.474 66.9838 129.697 67.3517 129.168 68.9319C128.68 70.3891 126.841 70.722 125.904 70.6807C124.967 70.6393 123.685 69.7345 123.18 68.2756C122.536 66.4146 122.883 64.4265 122.627 63.3396C122.372 62.2526 123.105 61.9601 123.666 62.6083Z" fill="#FFCFCE"/>
<path d="M154.277 53.8562C151.515 53.8562 149.276 51.5924 149.276 48.7998V41.7026C152.038 41.7026 154.277 43.9665 154.277 46.759V53.8562Z" fill="#263238"/>
</svg>
