<svg width="26" height="26" viewBox="0 0 26 26" fill="none" xmlns="http://www.w3.org/2000/svg">
<g opacity="0.4">
<path d="M22.75 9.79239H21.125V13.8725C21.125 16.1256 19.3058 17.9527 17.0625 17.9527H9.75V19.5848C9.75 21.3874 11.2052 22.8489 13 22.8489H17.875L21.4175 25.8111C21.762 26.0992 22.2747 26.0526 22.5615 25.7066C22.6834 25.5598 22.75 25.3745 22.75 25.1827V22.8489C24.5448 22.8489 26 21.3874 26 19.5848V13.0565C26 11.2539 24.5448 9.79239 22.75 9.79239Z" fill="#FFD306"/>
</g>
<path d="M16.25 0H3.25C1.45519 0 0 1.46151 0 3.26413V13.0565C0 14.8591 1.45519 16.3206 3.25 16.3206V19.446C3.25 19.8965 3.614 20.2621 4.0625 20.2621C4.25588 20.2621 4.44356 20.1927 4.59063 20.0662L8.9375 16.3206H16.25C18.0448 16.3206 19.5 14.8591 19.5 13.0565V3.26413C19.5 1.46151 18.0448 0 16.25 0ZM6.02063 9.31092C5.94912 9.39008 5.86706 9.45863 5.77688 9.51493C5.68913 9.5745 5.59731 9.62673 5.50063 9.66998C5.39988 9.70751 5.29669 9.73771 5.19187 9.75974C5.08787 9.78259 4.98144 9.7932 4.875 9.79238C3.97719 9.79238 3.25 9.06203 3.25 8.16032C3.23294 7.25942 3.94631 6.51438 4.84331 6.49725C4.96031 6.4948 5.07731 6.50541 5.19187 6.52825C5.29669 6.55029 5.39988 6.58048 5.50063 6.61802C5.59894 6.65882 5.69156 6.71023 5.77688 6.77306C5.86544 6.82937 5.94669 6.89465 6.02063 6.96891C6.33588 7.2839 6.50894 7.71395 6.5 8.16032C6.49837 8.59282 6.32612 9.00654 6.02063 9.31092ZM10.8956 9.31092C10.5926 9.61775 10.1806 9.79075 9.75 9.79238C9.64437 9.80462 9.53875 9.80462 9.43312 9.79238C9.32831 9.77035 9.22512 9.74016 9.12437 9.70262C9.02769 9.65937 8.93587 9.60714 8.84813 9.54757C8.75712 9.48882 8.67262 9.42109 8.59625 9.34356C8.28588 9.02939 8.11606 8.60261 8.125 8.16032C8.11281 8.05423 8.11281 7.94815 8.125 7.84207C8.14694 7.7368 8.177 7.63316 8.21437 7.53197C8.255 7.43323 8.30619 7.34021 8.36875 7.25452C8.42644 7.16476 8.49225 7.07989 8.56375 7.00155C8.64175 6.92974 8.72625 6.86364 8.81563 6.80571C8.90094 6.74287 8.99356 6.69146 9.09188 6.65066C9.20237 6.60007 9.31612 6.55926 9.43312 6.52825C10.3131 6.35199 11.1686 6.92648 11.3441 7.81024C11.3669 7.9253 11.3774 8.04281 11.375 8.16032C11.375 8.59118 11.206 9.00491 10.9038 9.31092H10.8956ZM15.7706 9.31092C15.6991 9.39008 15.6171 9.45863 15.5269 9.51493C15.4391 9.5745 15.3473 9.62673 15.2506 9.66998C15.1499 9.70751 15.0467 9.73771 14.9419 9.75974C14.8379 9.78259 14.7314 9.7932 14.625 9.79238C13.7272 9.79238 13 9.06203 13 8.16032C12.9829 7.25942 13.6963 6.51438 14.5933 6.49725C14.7103 6.4948 14.8273 6.50541 14.9419 6.52825C15.0467 6.55029 15.1499 6.58048 15.2506 6.61802C15.3489 6.65882 15.4416 6.71023 15.5269 6.77306C15.6154 6.82937 15.6967 6.89465 15.7706 6.96891C16.0859 7.2839 16.2589 7.71395 16.25 8.16032C16.2484 8.59282 16.0761 9.00654 15.7706 9.31092Z" fill="#25AC10"/>
</svg>
