<svg width="30" height="30" viewBox="0 0 30 30" fill="none" xmlns="http://www.w3.org/2000/svg">
<path d="M26.09 10.8103L23.1356 13.6886C23.1356 13.6886 13.9746 21.1126 13.9429 21.1316L6.52526 25.0306C6.43218 25.0752 6.3305 25.099 6.22728 25.1003C6.09299 25.1008 5.96201 25.0587 5.85323 24.9799C5.75487 24.9094 5.67873 24.8123 5.63379 24.7C5.58886 24.5876 5.57701 24.4648 5.59964 24.3459L6.96271 16.4148L1.19345 10.7977C1.10786 10.715 1.04727 10.6098 1.01863 10.4943C0.98999 10.3788 0.994444 10.2575 1.03149 10.1444C1.06853 10.0313 1.13666 9.93093 1.22809 9.85473C1.31952 9.77853 1.43055 9.7296 1.54848 9.71355L9.51766 8.5597L13.0743 1.35764C13.1262 1.25045 13.2073 1.16005 13.3082 1.0968C13.4091 1.03355 13.5258 1 13.6449 1C13.764 1 13.8807 1.03355 13.9816 1.0968C14.0825 1.16005 14.1636 1.25045 14.2155 1.35764L17.7721 8.57238L25.735 9.72623C25.8529 9.74228 25.9639 9.79121 26.0554 9.86741C26.1468 9.94361 26.2149 10.044 26.252 10.1571C26.289 10.2702 26.2935 10.3915 26.2648 10.507C26.2362 10.6225 26.1756 10.7276 26.09 10.8103Z" fill="#FFD306"/>
<path d="M28.366 13.0547H13.7844C13.4342 13.0547 13.1504 13.3385 13.1504 13.6886V28.2703C13.1504 28.6204 13.4342 28.9043 13.7844 28.9043H28.366C28.7162 28.9043 29 28.6204 29 28.2703V13.6886C29 13.3385 28.7162 13.0547 28.366 13.0547Z" fill="#25AC10"/>
<path d="M25.6717 16.8585H19.0148C18.8467 16.8585 18.6854 16.7917 18.5665 16.6728C18.4477 16.5539 18.3809 16.3927 18.3809 16.2245C18.3809 16.0564 18.4477 15.8951 18.5665 15.7763C18.6854 15.6574 18.8467 15.5906 19.0148 15.5906H25.6717C25.8398 15.5906 26.0011 15.6574 26.12 15.7763C26.2389 15.8951 26.3057 16.0564 26.3057 16.2245C26.3057 16.3927 26.2389 16.5539 26.12 16.6728C26.0011 16.7917 25.8398 16.8585 25.6717 16.8585Z" fill="white"/>
<path d="M25.6717 20.0285H19.0148C18.8467 20.0285 18.6854 19.9617 18.5665 19.8428C18.4477 19.7239 18.3809 19.5626 18.3809 19.3945C18.3809 19.2264 18.4477 19.0651 18.5665 18.9462C18.6854 18.8273 18.8467 18.7605 19.0148 18.7605H25.6717C25.8398 18.7605 26.0011 18.8273 26.12 18.9462C26.2389 19.0651 26.3057 19.2264 26.3057 19.3945C26.3057 19.5626 26.2389 19.7239 26.12 19.8428C26.0011 19.9617 25.8398 20.0285 25.6717 20.0285Z" fill="white"/>
<path d="M25.6717 23.1984H19.0148C18.8467 23.1984 18.6854 23.1316 18.5665 23.0127C18.4477 22.8938 18.3809 22.7326 18.3809 22.5644C18.3809 22.3963 18.4477 22.235 18.5665 22.1161C18.6854 21.9972 18.8467 21.9305 19.0148 21.9305H25.6717C25.8398 21.9305 26.0011 21.9972 26.12 22.1161C26.2389 22.235 26.3057 22.3963 26.3057 22.5644C26.3057 22.7326 26.2389 22.8938 26.12 23.0127C26.0011 23.1316 25.8398 23.1984 25.6717 23.1984Z" fill="white"/>
<path d="M25.6717 26.3683H19.0148C18.8467 26.3683 18.6854 26.3015 18.5665 26.1826C18.4477 26.0637 18.3809 25.9025 18.3809 25.7343C18.3809 25.5662 18.4477 25.4049 18.5665 25.286C18.6854 25.1671 18.8467 25.1003 19.0148 25.1003H25.6717C25.8398 25.1003 26.0011 25.1671 26.12 25.286C26.2389 25.4049 26.3057 25.5662 26.3057 25.7343C26.3057 25.9025 26.2389 26.0637 26.12 26.1826C26.0011 26.3015 25.8398 26.3683 25.6717 26.3683Z" fill="white"/>
<path d="M16.4797 16.8585C16.8298 16.8585 17.1137 16.5747 17.1137 16.2246C17.1137 15.8744 16.8298 15.5906 16.4797 15.5906C16.1295 15.5906 15.8457 15.8744 15.8457 16.2246C15.8457 16.5747 16.1295 16.8585 16.4797 16.8585Z" fill="white"/>
<path d="M16.4797 20.0285C16.8298 20.0285 17.1137 19.7446 17.1137 19.3945C17.1137 19.0444 16.8298 18.7605 16.4797 18.7605C16.1295 18.7605 15.8457 19.0444 15.8457 19.3945C15.8457 19.7446 16.1295 20.0285 16.4797 20.0285Z" fill="white"/>
<path d="M16.4797 23.1984C16.8298 23.1984 17.1137 22.9146 17.1137 22.5644C17.1137 22.2143 16.8298 21.9305 16.4797 21.9305C16.1295 21.9305 15.8457 22.2143 15.8457 22.5644C15.8457 22.9146 16.1295 23.1984 16.4797 23.1984Z" fill="white"/>
<path d="M16.4797 26.3683C16.8298 26.3683 17.1137 26.0845 17.1137 25.7343C17.1137 25.3842 16.8298 25.1003 16.4797 25.1003C16.1295 25.1003 15.8457 25.3842 15.8457 25.7343C15.8457 26.0845 16.1295 26.3683 16.4797 26.3683Z" fill="white"/>
</svg>
