<svg width="30" height="30" viewBox="0 0 30 30" fill="none" xmlns="http://www.w3.org/2000/svg">
<path fill-rule="evenodd" clip-rule="evenodd" d="M16.1411 24.9767H5.07416V5.02326H16.1411V10.1634C16.1411 10.9978 16.8297 11.675 17.6782 11.675C18.5267 11.675 19.2153 10.9978 19.2153 10.1634V4.72093C19.2153 3.99958 18.9264 3.30726 18.4038 2.79693C17.8873 2.28661 17.1802 2 16.4486 2C13.774 2 7.44126 2 4.76674 2C4.03509 2 3.32808 2.28661 2.81162 2.79693C2.28901 3.30726 2 3.99958 2 4.72093V25.2791C2 26.0004 2.28901 26.6927 2.81162 27.2031C3.32808 27.7134 4.03509 28 4.76674 28H16.4486C17.1802 28 17.8873 27.7134 18.4038 27.2031C18.9264 26.6927 19.2153 26.0004 19.2153 25.2791C19.2153 23.8823 19.2153 22.6247 19.2153 19.8408C19.2153 19.007 18.5267 18.3292 17.6782 18.3292C16.8297 18.3292 16.1411 19.007 16.1411 19.8408V24.9767Z" fill="#25AC10"/>
<path fill-rule="evenodd" clip-rule="evenodd" d="M20.7521 13.4908H9.07028C8.22182 13.4908 7.5332 14.168 7.5332 15.0024C7.5332 15.8368 8.22182 16.514 9.07028 16.514H20.7521L20.5862 16.6737C19.9898 17.2632 19.9898 18.2216 20.5862 18.8111C21.1887 19.4013 22.1601 19.4013 22.7626 18.8111L25.5478 16.069C26.1503 15.4783 26.1503 14.5217 25.5478 13.931L22.7626 11.1889C22.1601 10.5987 21.1887 10.5987 20.5862 11.1889C19.9898 11.7784 19.9898 12.7368 20.5862 13.3263L20.7521 13.4908Z" fill="#FFD306"/>
</svg>
