<svg width="25" height="25" viewBox="0 0 25 25" fill="none" xmlns="http://www.w3.org/2000/svg">
<path d="M12.5131 24.9995H12.4944C10.8584 24.9995 9.52734 23.6685 9.52734 22.0324V21.339C9.52734 20.9346 9.85526 20.6066 10.2597 20.6066H14.7478C15.1523 20.6066 15.4802 20.9346 15.4802 21.339V22.0324C15.4802 23.6685 14.1491 24.9995 12.5131 24.9995Z" fill="#FFA81C"/>
<path d="M14.7499 20.6067H12.5059V24.9996H12.5152C14.1513 24.9996 15.4823 23.6685 15.4823 22.0325V21.3391C15.4823 20.9346 15.1544 20.6067 14.7499 20.6067Z" fill="#FF9300"/>
<path d="M13.9691 4.57769H11.041C10.6365 4.57769 10.3086 4.24977 10.3086 3.84529V2.19676C10.3086 0.985621 11.2939 0.000350952 12.505 0.000350952C13.7161 0.000350952 14.7014 0.98567 14.7014 2.19676V3.84529C14.7015 4.24977 14.3735 4.57769 13.9691 4.57769Z" fill="#FFA81C"/>
<path d="M13.9699 4.57769C14.3744 4.57769 14.7023 4.24977 14.7023 3.84529V2.19676C14.7023 0.985621 13.717 0.000350952 12.5059 0.000350952V4.57769H13.9699Z" fill="#FF9300"/>
<path d="M20.2652 22.0715H4.74342C4.1095 22.0715 3.59375 21.5557 3.59375 20.9218V19.8747C3.59375 18.7277 4.01605 17.6263 4.78287 16.7733C5.30756 16.1896 5.59652 15.436 5.59652 14.6512V9.90636C5.59652 6.0974 8.69529 2.99863 12.5043 2.99863C16.3132 2.99863 19.412 6.0974 19.412 9.90636V14.6512C19.412 15.436 19.7009 16.1896 20.2256 16.7732C20.9925 17.6262 21.4148 18.7277 21.4148 19.8746V20.9218C21.4149 21.5557 20.8991 22.0715 20.2652 22.0715Z" fill="#FFCF2C"/>
<path d="M20.2667 22.0714C20.9007 22.0714 21.4164 21.5557 21.4164 20.9218V19.8746C21.4164 18.7277 20.9941 17.6262 20.2272 16.7732C19.7025 16.1896 19.4136 15.436 19.4136 14.6512V9.90636C19.4136 6.0974 16.3148 2.99863 12.5059 2.99863V22.0714H20.2667Z" fill="#FFC12E"/>
<path d="M3.59375 19.8747V20.9218C3.59375 21.5557 4.1095 22.0715 4.74342 22.0715H20.2652C20.8991 22.0715 21.4149 21.5557 21.4149 20.9218V19.8747C21.4149 19.3724 21.3338 18.8788 21.1783 18.411H3.83027C3.6748 18.8788 3.59375 19.3724 3.59375 19.8747Z" fill="#FFF566"/>
<path d="M12.5059 18.411V22.0715H20.2667C20.9007 22.0715 21.4164 21.5558 21.4164 20.9218V19.8747C21.4164 19.3724 21.3354 18.8788 21.1799 18.411H12.5059V18.411Z" fill="#FFE645"/>
<path d="M0.73327 8.08896C0.682051 8.08896 0.6301 8.08359 0.578002 8.07231C0.182605 7.98696 -0.0687055 7.59723 0.0166433 7.20183C0.603148 4.48517 2.09992 1.9896 4.2312 0.174763C4.5392 -0.0874846 5.00144 -0.0503276 5.26364 0.257573C5.52589 0.56557 5.48883 1.02776 5.18083 1.29001C3.293 2.89753 1.96746 5.10683 1.44843 7.51095C1.37436 7.85425 1.07076 8.08896 0.73327 8.08896Z" fill="#25AC10"/>
<path d="M24.2676 8.08899C23.9301 8.08899 23.6266 7.85433 23.5525 7.51103C23.0334 5.10691 21.7079 2.89761 19.8201 1.29014C19.5121 1.02789 19.475 0.56565 19.7373 0.257701C19.9995 -0.0502965 20.4617 -0.0874047 20.7697 0.174891C22.901 1.98963 24.3977 4.48525 24.9842 7.20191C25.0696 7.59731 24.8183 7.98704 24.4229 8.07239C24.3708 8.08357 24.3188 8.08899 24.2676 8.08899Z" fill="#25AC10"/>
<path d="M3.54972 8.94575C3.50485 8.94575 3.45934 8.9416 3.41364 8.93301C3.0161 8.8583 2.75443 8.47545 2.82914 8.07796C3.23113 5.93886 4.35844 3.96295 6.0033 2.51422C6.30681 2.2468 6.76964 2.27624 7.03696 2.57975C7.30434 2.8833 7.27494 3.34608 6.97144 3.6134C5.57055 4.8473 4.61067 6.52888 4.26869 8.34845C4.20258 8.70035 3.89512 8.94575 3.54972 8.94575Z" fill="#25AC10"/>
<path d="M21.4512 8.9458C21.1057 8.9458 20.7983 8.7004 20.7322 8.34855C20.3902 6.52903 19.4305 4.8474 18.0296 3.61355C17.726 3.34618 17.6967 2.8834 17.964 2.57984C18.2314 2.27634 18.6942 2.24699 18.9977 2.51432C20.6425 3.96305 21.7698 5.93891 22.1718 8.07796C22.2465 8.4755 21.9848 8.8583 21.5872 8.93301C21.5416 8.94165 21.4961 8.9458 21.4512 8.9458Z" fill="#25AC10"/>
</svg>
