<svg width="30" height="30" viewBox="0 0 30 30" fill="none" xmlns="http://www.w3.org/2000/svg">
<path d="M2 7.19997V24.5333C2 26.4444 3.55475 28 5.46667 28H17.6C19.5119 28 21.0667 26.4444 21.0667 24.5333V7.19997H2Z" fill="#FFCA28"/>
<path d="M15.8659 9.8H14.1326V6.33333C14.1326 4.89961 12.9663 3.73333 11.5326 3.73333C10.0988 3.73333 8.93255 4.89961 8.93255 6.33333V9.8H7.19922V6.33333C7.19922 3.94408 9.14329 2 11.5326 2C13.9218 2 15.8659 3.94408 15.8659 6.33333V9.8Z" fill="#66BB6A"/>
<path opacity="0.1" d="M15.8665 7.2V6.33333C15.8665 3.94154 13.925 2 11.5332 2V3.73333C12.9635 3.73333 14.1332 4.90299 14.1332 6.33333V7.2H11.5332V28H17.5999C19.5152 28 21.0665 26.4486 21.0665 24.5333V7.2H15.8665Z" fill="black"/>
<path d="M20.2004 12.4C15.8992 12.4 12.4004 15.8988 12.4004 20.2C12.4004 24.5011 15.8992 28 20.2004 28C24.5016 28 28.0004 24.5011 28.0004 20.2C28.0004 15.8988 24.5016 12.4 20.2004 12.4Z" fill="#66BB6A"/>
<path d="M19.3339 23.1589L16.375 20.2L17.6005 18.9745L19.3339 20.7078L22.8005 17.2412L24.026 18.4667L19.3339 23.1589Z" fill="#E0E0E0"/>
</svg>
