<svg width="27" height="28" viewBox="0 0 27 28" fill="none" xmlns="http://www.w3.org/2000/svg">
<path d="M24.1574 10.2603L10.6315 23.3142C10.0201 23.904 9.02911 23.904 8.41796 23.3142L0.458365 15.6325C-0.152788 15.0425 -0.152788 14.0861 0.458365 13.4962L13.9843 0.442361C14.5957 -0.147454 15.5867 -0.147454 16.1978 0.442361L24.1574 8.12405C24.7688 8.71386 24.7688 9.67047 24.1574 10.2603Z" fill="#25AC10"/>
<path d="M24.1567 8.1241L23.1635 7.16536C23.7078 7.69066 23.6534 8.59471 23.0422 9.18453L9.51605 22.2384C8.90489 22.8284 7.96813 22.8808 7.42383 22.3555L8.41726 23.3142C9.02841 23.904 10.0194 23.904 10.6308 23.3142L24.1567 10.2603C24.7681 9.67052 24.7681 8.71392 24.1567 8.1241Z" fill="#25AC10"/>
<path d="M3.05987 15.0952C2.95097 15.0952 2.84228 15.0551 2.75928 14.9749C2.59326 14.8147 2.59326 14.5552 2.75928 14.395L9.38456 8.00099C9.55057 7.84077 9.81974 7.84077 9.98553 8.00099C10.1515 8.16121 10.1515 8.42098 9.98553 8.58098L3.36025 14.9752C3.27724 15.0551 3.16856 15.0952 3.05987 15.0952Z" fill="#FAFDFB"/>
<path d="M5.16534 17.1272C5.05644 17.1272 4.94775 17.087 4.86474 17.0069C4.69873 16.8467 4.69873 16.5872 4.86474 16.4269L11.49 10.033C11.656 9.87276 11.9252 9.87276 12.091 10.033C12.257 10.1932 12.257 10.453 12.091 10.613L5.46572 17.0069C5.38271 17.087 5.27402 17.1272 5.16534 17.1272Z" fill="#FAFDFB"/>
<path d="M13.7631 3.41773L12.4377 4.69669C11.9166 5.19956 11.9166 6.01475 12.4377 6.51761C12.9587 7.02048 13.8036 7.02048 14.3247 6.51761L15.6499 5.23865C16.171 4.73578 16.171 3.92059 15.6499 3.41773C15.1289 2.91486 14.284 2.91486 13.7631 3.41773Z" fill="#FFCD34"/>
<path d="M25.4342 14.1154H6.30541C5.44103 14.1154 4.74023 14.7917 4.74023 15.6259V26.4895C4.74023 27.3237 5.44103 28.0001 6.30541 28.0001H25.4342C26.2988 28.0001 26.9994 27.3237 26.9994 26.4895V15.6259C26.9996 14.7917 26.2988 14.1154 25.4342 14.1154Z" fill="#FFCD34"/>
<path d="M25.4341 14.1154H24.0332C24.8976 14.1154 25.5984 14.7917 25.5984 15.6259V26.4895C25.5984 27.3237 24.8976 28.0001 24.0332 28.0001H25.4341C26.2987 28.0001 26.9993 27.3237 26.9993 26.4895V15.6259C26.9995 14.7917 26.2987 14.1154 25.4341 14.1154Z" fill="#E69012"/>
<path d="M4.74023 17.5282H26.9996V20.138H4.74023V17.5282Z" fill="#6A6B74"/>
<path d="M25.5996 17.5282H27.0005V20.138H25.5996V17.5282Z" fill="#FAFDFB"/>
<path d="M21.5293 24.3083V25.9187C21.5293 26.0433 21.6338 26.1441 21.7628 26.1441H24.4157C24.5448 26.1441 24.6493 26.0433 24.6493 25.9187V24.3083C24.6493 24.1837 24.5448 24.0828 24.4157 24.0828H21.7628C21.6338 24.0828 21.5293 24.1837 21.5293 24.3083Z" fill="#E9E9EA"/>
<path d="M13.5312 24.3083V25.9187C13.5312 26.0433 13.6359 26.1441 13.7648 26.1441H19.376C19.5051 26.1441 19.6096 26.0433 19.6096 25.9187V24.3083C19.6096 24.1837 19.5051 24.0828 19.376 24.0828H13.7648C13.6359 24.0828 13.5312 24.1837 13.5312 24.3083Z" fill="#E9E9EA"/>
<path d="M11.2439 26.5537H8.44843C8.21358 26.5537 8.02344 26.3699 8.02344 26.1433C8.02344 25.9166 8.21358 25.733 8.44843 25.733H11.2439C11.4787 25.733 11.6689 25.9166 11.6689 26.1433C11.6689 26.3699 11.4787 26.5537 11.2439 26.5537Z" fill="#FAFDFB"/>
</svg>
