<svg width="22" height="24" viewBox="0 0 22 24" fill="none" xmlns="http://www.w3.org/2000/svg">
<path fill-rule="evenodd" clip-rule="evenodd" d="M15.4 5.45455C15.4 8.467 12.9375 10.9091 9.9 10.9091C6.86244 10.9091 4.4 8.467 4.4 5.45455C4.4 2.44209 6.86244 0 9.9 0C12.9375 0 15.4 2.44209 15.4 5.45455ZM7.7 13.0909C3.44741 13.0909 0 16.5098 0 20.7273C0 22.5348 1.47747 24 3.3 24H11.4502C11.9256 24 12.1957 23.4241 11.9495 23.0207C11.3468 22.0332 11 20.875 11 19.6364C11 17.4173 12.1134 15.4562 13.8164 14.2725C14.2162 13.9947 14.1821 13.3573 13.7046 13.2569C13.187 13.1482 12.6502 13.0909 12.1 13.0909H7.7ZM17.6 15.2727C18.2075 15.2727 18.7 15.7611 18.7 16.3636V18.5455H20.9C21.5075 18.5455 22 19.0339 22 19.6364C22 20.2389 21.5075 20.7273 20.9 20.7273H18.7V22.9091C18.7 23.5115 18.2075 24 17.6 24C16.9925 24 16.5 23.5115 16.5 22.9091V20.7273H14.3C13.6925 20.7273 13.2 20.2389 13.2 19.6364C13.2 19.0339 13.6925 18.5455 14.3 18.5455H16.5V16.3636C16.5 15.7611 16.9925 15.2727 17.6 15.2727Z" fill="#138700"/>
</svg>
