<svg width="30" height="30" viewBox="0 0 30 30" fill="none" xmlns="http://www.w3.org/2000/svg">
<path d="M15.5001 14.5C14.4494 14.5 13.4223 14.1921 12.5486 13.6152C11.6749 13.0383 10.994 12.2184 10.5919 11.2591C10.1898 10.2998 10.0846 9.24418 10.2896 8.22578C10.4946 7.20738 11.0006 6.27192 11.7435 5.53769C12.4865 4.80347 13.4331 4.30345 14.4637 4.10088C15.4942 3.89831 16.5624 4.00227 17.5332 4.39963C18.5039 4.79699 19.3337 5.4699 19.9174 6.33326C20.5012 7.19662 20.8128 8.21165 20.8128 9.25C20.8114 10.642 20.2512 11.9765 19.2552 12.9608C18.2592 13.945 16.9087 14.4986 15.5001 14.5Z" fill="#128700"/>
<path d="M25.1132 25.0001H5.88679C5.65196 25.0001 5.42675 24.9079 5.26069 24.7438C5.09464 24.5797 5.00136 24.3572 5.00136 24.1251V23.2501C4.98308 22.3364 5.14961 21.4283 5.49117 20.5791C5.83273 19.7299 6.34244 18.9566 6.99042 18.3046C7.6384 17.6526 8.41159 17.135 9.26466 16.7822C10.1177 16.4294 11.0335 16.2485 11.9582 16.2501H19.0418C19.9665 16.2485 20.8823 16.4294 21.7353 16.7822C22.5884 17.135 23.3616 17.6526 24.0096 18.3046C24.6576 18.9566 25.1673 19.7299 25.5088 20.5791C25.8504 21.4283 26.0169 22.3364 25.9986 23.2501V24.1251C25.9986 24.3572 25.9054 24.5797 25.7393 24.7438C25.5733 24.9079 25.348 25.0001 25.1132 25.0001Z" fill="#128700"/>
</svg>
