<svg width="22" height="22" viewBox="0 0 22 22" fill="none" xmlns="http://www.w3.org/2000/svg">
<path d="M21.5102 9.09214L18.9922 8.4605C18.8375 7.98355 18.6441 7.51953 18.4121 7.08121C18.7859 6.44957 19.5851 5.12187 19.5851 5.12187C19.727 4.86406 19.6883 4.5418 19.482 4.3355L17.6644 2.50508C17.4582 2.29887 17.123 2.26016 16.8781 2.41484L14.9187 3.58789C14.4676 3.35586 14.0035 3.16246 13.5394 3.00781L12.9078 0.489887C12.8434 0.206207 12.5855 0 12.2891 0H9.71094C9.4145 0 9.15664 0.206207 9.09223 0.489844C9.09223 0.489844 8.65391 2.24722 8.46059 3.00777C7.95786 3.17535 7.46797 3.38155 7.00395 3.63941L4.96719 2.4148C4.70937 2.26011 4.38711 2.29883 4.18086 2.50504L2.36328 4.3355C2.14418 4.5418 2.10547 4.86406 2.26011 5.12187L3.52344 7.22305C3.31714 7.62266 3.14957 8.03516 3.00781 8.4605L0.489887 9.09214C0.206207 9.15664 0 9.41441 0 9.71094V12.2891C0 12.5855 0.206207 12.8434 0.489844 12.9078L3.00781 13.5394C3.1625 14.0164 3.36879 14.4933 3.60082 14.9445L2.47934 16.8137C2.32465 17.0714 2.36328 17.3937 2.58242 17.6129L4.40004 19.4304C4.60625 19.6367 4.92852 19.6753 5.18637 19.5207C5.18637 19.5207 6.44961 18.773 7.06845 18.3992C7.51953 18.6441 7.98355 18.8375 8.46059 18.9922L9.09223 21.5101C9.15668 21.7937 9.4145 22 9.71094 22H12.2891C12.5855 22 12.8434 21.7937 12.9078 21.5101L13.5394 18.9922C14.0293 18.8374 14.5062 18.6312 14.9703 18.3863C15.602 18.7601 16.8781 19.5207 16.8781 19.5207C17.123 19.6753 17.4582 19.6367 17.6644 19.4304L19.482 17.6129C19.6882 17.3937 19.727 17.0714 19.5851 16.8137L18.425 14.8929C18.657 14.4547 18.8375 14.0035 18.9922 13.5394L21.5101 12.9078C21.7938 12.8433 22 12.5855 22 12.2891V9.71094C22 9.41441 21.7938 9.15664 21.5102 9.09214ZM11 15.5117C8.51211 15.5117 6.48828 13.4879 6.48828 11C6.48828 8.51211 8.51211 6.48828 11 6.48828C13.4879 6.48828 15.5117 8.51211 15.5117 11C15.5117 13.4879 13.4879 15.5117 11 15.5117Z" fill="#4D4D4D"/>
<path d="M22 9.71094V12.2891C22 12.5855 21.7938 12.8434 21.5102 12.9078L18.9922 13.5394C18.8375 14.0035 18.657 14.4547 18.425 14.8929L19.5851 16.8137C19.727 17.0715 19.6883 17.3937 19.482 17.6129L17.6644 19.4305C17.4582 19.6368 17.123 19.6754 16.8781 19.5207C16.8781 19.5207 15.6019 18.7601 14.9703 18.3863C14.5062 18.6313 14.0293 18.8375 13.5394 18.9922L12.9078 21.5102C12.8433 21.7937 12.5855 22 12.2891 22H11V15.5117C13.4879 15.5117 15.5117 13.4879 15.5117 11C15.5117 8.51211 13.4879 6.48828 11 6.48828V0H12.2891C12.5855 0 12.8434 0.206207 12.9078 0.489844L13.5394 3.00781C14.0035 3.1625 14.4676 3.3559 14.9187 3.58789L16.8781 2.4148C17.123 2.26011 17.4582 2.29883 17.6645 2.50504L19.4821 4.33546C19.6883 4.54175 19.727 4.86402 19.5852 5.12183C19.5852 5.12183 18.7859 6.44952 18.4122 7.08116C18.6442 7.51949 18.8376 7.98351 18.9922 8.46046L21.5102 9.0921C21.7938 9.15664 22 9.41441 22 9.71094Z" fill="#4D4D4D"/>
</svg>
