<svg width="25" height="26" viewBox="0 0 25 26" fill="none" xmlns="http://www.w3.org/2000/svg">
<path d="M12.4976 7.5509e-08C10.6559 0.00050641 8.83697 0.407956 7.17102 1.19321C5.50507 1.97847 4.03321 3.12213 2.86069 4.54241C1.68817 5.9627 0.843955 7.62452 0.38842 9.40904C-0.067115 11.1936 -0.122718 13.0567 0.225587 14.8652C0.573892 16.6737 1.3175 18.3829 2.40324 19.8706C3.48897 21.3583 4.89001 22.5877 6.50617 23.4709C8.12233 24.3541 9.91367 24.8693 11.7521 24.9796C13.5905 25.0899 15.4306 24.7927 17.1408 24.1091H23.2128C23.4496 24.1091 23.6767 24.0151 23.8442 23.8476C24.0116 23.6801 24.1057 23.453 24.1057 23.2162V17.1443C24.8645 15.2474 25.1469 13.1934 24.9281 11.162C24.7092 9.13072 23.9959 7.184 22.8504 5.49223C21.705 3.80047 20.1623 2.41524 18.3575 1.45777C16.5527 0.500301 14.5407 -0.000224456 12.4976 7.5509e-08Z" fill="#25AC10"/>
<path d="M16.0124 9.18647C15.8727 8.41097 15.4805 7.70342 14.8969 7.17402C14.3132 6.64463 13.5709 6.3231 12.7855 6.25951C12 6.19593 11.2157 6.39386 10.5544 6.82248C9.89323 7.2511 9.39231 7.88635 9.12971 8.62928C9.05589 8.851 9.07193 9.09283 9.17438 9.30285C9.27684 9.51288 9.45755 9.67437 9.67772 9.75267C9.8979 9.83097 10.14 9.81984 10.3521 9.72167C10.5641 9.62349 10.7292 9.44609 10.812 9.22755C10.911 8.94695 11.0786 8.69556 11.2996 8.49621C11.5205 8.29685 11.7877 8.15586 12.077 8.08604C12.3662 8.01622 12.6683 8.01978 12.9559 8.09641C13.2434 8.17303 13.5072 8.32029 13.7234 8.5248C13.9395 8.7293 14.1011 8.98458 14.1936 9.26743C14.286 9.55029 14.3062 9.85175 14.2525 10.1444C14.1988 10.4371 14.0728 10.7117 13.886 10.9433C13.6991 11.1749 13.4574 11.3562 13.1827 11.4706C12.7075 11.6753 12.3038 12.0165 12.0229 12.451C11.742 12.8855 11.5965 13.3936 11.6049 13.911V14.2869C11.6049 14.5237 11.699 14.7508 11.8664 14.9183C12.0339 15.0857 12.261 15.1798 12.4978 15.1798C12.7347 15.1798 12.9618 15.0857 13.1292 14.9183C13.2967 14.7508 13.3908 14.5237 13.3908 14.2869V13.9119C13.3847 13.7484 13.4263 13.5866 13.5104 13.4463C13.5946 13.306 13.7178 13.1932 13.8649 13.1216C14.6205 12.8123 15.2465 12.2522 15.6376 11.5355C16.0288 10.8188 16.1611 9.98928 16.0124 9.18647Z" fill="#F6F6EC"/>
<path d="M12.4984 16.0728C12.2616 16.0728 12.0345 16.1669 11.867 16.3343C11.6995 16.5018 11.6055 16.7289 11.6055 16.9657V17.8586C11.6055 18.0955 11.6995 18.3226 11.867 18.49C12.0345 18.6575 12.2616 18.7516 12.4984 18.7516C12.7352 18.7516 12.9623 18.6575 13.1298 18.49C13.2973 18.3226 13.3913 18.0955 13.3913 17.8586V16.9657C13.3913 16.7289 13.2973 16.5018 13.1298 16.3343C12.9623 16.1669 12.7352 16.0728 12.4984 16.0728Z" fill="#F6F6EC"/>
</svg>
