<svg width="28" height="18" viewBox="0 0 28 18" fill="none" xmlns="http://www.w3.org/2000/svg">
<path d="M25.9105 18H2.09494C0.940808 18 0 17.0823 0 15.9445V2.05546C0 0.91771 0.940808 0 2.09494 0H25.905C27.0646 0 28 0.923077 28 2.05546V15.9445C28.0054 17.0823 27.0646 18 25.9105 18Z" fill="#FFE15A"/>
<path d="M2.09494 0C0.940808 0 0 0.91771 0 2.05546V15.9445C0 17.0823 0.940808 18 2.09494 18H9.3315V0H2.09494Z" fill="#464655"/>
<path d="M25.91 0H18.668V18H25.9045C27.0641 18 27.9995 17.0769 27.9995 15.9445V2.05546C28.0049 0.91771 27.0641 0 25.91 0Z" fill="#FF4B55"/>
</svg>
