<svg width="28" height="18" viewBox="0 0 28 18" fill="none" xmlns="http://www.w3.org/2000/svg">
<path d="M25.903 18H2.09699C0.93882 18 0 17.0788 0 15.9424V2.05758C0 0.921228 0.93882 0 2.09699 0H25.903C27.0611 0 28 0.921174 28 2.05758V15.9425C28 17.0788 27.0612 18 25.903 18Z" fill="#FF4B55"/>
<path d="M19.3106 7.10541H15.9313V3.78962C15.9313 3.52803 15.7151 3.31592 15.4485 3.31592H12.5519C12.2853 3.31592 12.0691 3.52803 12.0691 3.78962V7.10541H8.68981C8.42321 7.10541 8.20703 7.31753 8.20703 7.57912V10.4213C8.20703 10.6828 8.42321 10.895 8.68981 10.895H12.0691V14.2107C12.0691 14.4723 12.2853 14.6845 12.5519 14.6845H15.4485C15.7151 14.6845 15.9313 14.4723 15.9313 14.2107V10.8949H19.3106C19.5772 10.8949 19.7933 10.6827 19.7933 10.4211V7.57901C19.7933 7.31747 19.5772 7.10541 19.3106 7.10541Z" fill="#F5F5F5"/>
</svg>
