<svg width="28" height="18" viewBox="0 0 28 18" fill="none" xmlns="http://www.w3.org/2000/svg">
<path d="M0 15.9426C0 17.079 0.93882 18.0002 2.09699 18.0002H25.903C27.0611 18.0002 28 17.079 28 15.9426V14.2107H0V15.9426Z" fill="#C8414B"/>
<path d="M25.903 0H2.09699C0.93882 0 0 0.921176 0 2.05758V3.7895H28V2.05758C28 0.921176 27.0612 0 25.903 0Z" fill="#C8414B"/>
<path d="M28 3.78979H0V14.211H28V3.78979Z" fill="#FFD250"/>
<path d="M11.826 9.00004L12.2354 7.19273C12.2731 7.02628 12.144 6.86841 11.9702 6.86841H11.6819C11.5082 6.86841 11.3791 7.02633 11.4167 7.19273L11.826 9.00004Z" fill="#C8414B"/>
<path d="M12.3093 8.05249H11.3438V12.0786H12.3093V8.05249Z" fill="#F5F5F5"/>
<path d="M12.5499 7.5791H11.1016V8.05281H12.5499V7.5791Z" fill="#FAB446"/>
<path d="M12.5506 9.00024H10.1367V9.47395H12.5506V9.00024Z" fill="#C8414B"/>
<path d="M12.5538 10.8951L11.1055 10.4215V9.94775L12.5538 10.4215V10.8951Z" fill="#C8414B"/>
<path d="M4.58777 9.00004L4.9971 7.19273C5.03484 7.02628 4.90572 6.86841 4.73192 6.86841H4.44361C4.26987 6.86841 4.14081 7.02633 4.17843 7.19273L4.58777 9.00004Z" fill="#C8414B"/>
<path d="M6.2777 7.5791C6.0111 7.5791 5.79492 7.79122 5.79492 8.05281V11.1317C5.79492 11.7072 6.34234 12.7897 8.20872 12.7897C10.0751 12.7897 10.6225 11.7073 10.6225 11.1317V8.05281C10.6225 7.79122 10.4063 7.5791 10.1397 7.5791H6.2777Z" fill="#F5F5F5"/>
<path d="M8.20481 9.94753H5.79102V8.05281C5.79102 7.79122 6.0072 7.5791 6.2738 7.5791H8.20481V9.94753Z" fill="#C8414B"/>
<path d="M8.20703 9.94751H10.6208V11.1317C10.6208 11.7858 10.0805 12.3159 9.41393 12.3159C8.74734 12.3159 8.20703 11.7858 8.20703 11.1317V9.94751Z" fill="#C8414B"/>
<path d="M5.79492 9.94751H8.20872V11.1317C8.20872 11.7858 7.66841 12.3159 7.00182 12.3159C6.33523 12.3159 5.79492 11.7858 5.79492 11.1317V9.94751Z" fill="#FAB446"/>
<path d="M7.72106 12.074V9.94775H7.23828V12.2923C7.41788 12.2566 7.58013 12.1785 7.72106 12.074Z" fill="#C8414B"/>
<path d="M6.75622 12.2921V9.94751H6.27344V12.0738C6.41442 12.1783 6.57668 12.2563 6.75622 12.2921Z" fill="#C8414B"/>
<path d="M7.72368 9H6.27539V9.47371H7.72368V9Z" fill="#FFB441"/>
<path d="M7.72563 8.05249H6.27734V8.5262H7.72563V8.05249Z" fill="#FAB446"/>
<path d="M7.48504 8.33423H6.51953V9.19235H7.48504V8.33423Z" fill="#FAB446"/>
<path d="M5.06707 8.05249H4.10156V12.0786H5.06707V8.05249Z" fill="#F5F5F5"/>
<path d="M5.30766 11.8423H3.85938V12.316H5.30766V11.8423Z" fill="#FAB446"/>
<path d="M5.30766 7.5791H3.85938V8.05281H5.30766V7.5791Z" fill="#FAB446"/>
<path d="M5.55211 12.3159H3.62109V12.7896H5.55211V12.3159Z" fill="#5064AA"/>
<path d="M12.792 11.8423H11.3438V12.316H12.792V11.8423Z" fill="#FAB446"/>
<path d="M12.7923 12.3159H10.8613V12.7896H12.7923V12.3159Z" fill="#5064AA"/>
<path d="M9.65634 7.10498H6.75977V7.57869H9.65634V7.10498Z" fill="#FAB446"/>
<path d="M8.44763 5.68408H7.96484V7.10515H8.44763V5.68408Z" fill="#FFB441"/>
<path d="M7.72216 6.39514C7.32284 6.39514 6.99805 6.0764 6.99805 5.68463C6.99805 5.29281 7.32289 4.97412 7.72216 4.97412C8.12149 4.97412 8.44628 5.29286 8.44628 5.68463C8.44634 6.0764 8.12149 6.39514 7.72216 6.39514ZM7.72216 5.44777C7.589 5.44777 7.48077 5.55391 7.48077 5.68463C7.48077 5.81529 7.58895 5.92148 7.72216 5.92148C7.85538 5.92148 7.96355 5.81534 7.96355 5.68463C7.96355 5.55397 7.85538 5.44777 7.72216 5.44777Z" fill="#F5F5F5"/>
<path d="M8.68896 6.39514C8.28963 6.39514 7.96484 6.0764 7.96484 5.68463C7.96484 5.29281 8.28969 4.97412 8.68896 4.97412C9.08829 4.97412 9.41308 5.29286 9.41308 5.68463C9.41308 6.0764 9.08823 6.39514 8.68896 6.39514ZM8.68896 5.44777C8.5558 5.44777 8.44757 5.55391 8.44757 5.68463C8.44757 5.81529 8.55574 5.92148 8.68896 5.92148C8.82212 5.92148 8.93035 5.81534 8.93035 5.68463C8.9303 5.55397 8.82212 5.44777 8.68896 5.44777Z" fill="#F5F5F5"/>
<path d="M9.6538 6.86852C9.25448 6.86852 8.92969 6.54979 8.92969 6.15802C8.92969 5.76619 9.25453 5.44751 9.6538 5.44751C10.0531 5.44751 10.3779 5.76625 10.3779 6.15802C10.3779 6.54979 10.0531 6.86852 9.6538 6.86852ZM9.6538 5.92116C9.52064 5.92116 9.41241 6.0273 9.41241 6.15802C9.41241 6.28868 9.52059 6.39487 9.6538 6.39487C9.78697 6.39487 9.8952 6.28873 9.8952 6.15802C9.8952 6.0273 9.78697 5.92116 9.6538 5.92116Z" fill="#F5F5F5"/>
<path d="M6.75732 6.86901C6.35799 6.86901 6.0332 6.55027 6.0332 6.15851C6.0332 5.76668 6.35805 5.448 6.75732 5.448C7.15665 5.448 7.48144 5.76674 7.48144 6.15851C7.48149 6.55027 7.15665 6.86901 6.75732 6.86901ZM6.75732 5.92165C6.62416 5.92165 6.51593 6.02779 6.51593 6.15851C6.51593 6.28917 6.6241 6.39536 6.75732 6.39536C6.89054 6.39536 6.99871 6.28917 6.99871 6.15845C6.99871 6.02779 6.89054 5.92165 6.75732 5.92165Z" fill="#F5F5F5"/>
<path d="M9.65697 10.8946V11.1314C9.65697 11.262 9.54869 11.3683 9.41558 11.3683C9.28247 11.3683 9.17419 11.262 9.17419 11.1314V10.8946H9.65697ZM10.1397 10.4209H8.69141V11.1314C8.69141 11.5232 9.01625 11.8419 9.41552 11.8419C9.81485 11.8419 10.1396 11.5232 10.1396 11.1314L10.1397 10.4209Z" fill="#FAB446"/>
<path d="M9.41442 9.47361C9.14782 9.47361 8.93164 9.2615 8.93164 8.99991V8.5262C8.93164 8.26461 9.14782 8.05249 9.41442 8.05249C9.68102 8.05249 9.8972 8.26461 9.8972 8.5262V8.99991C9.8972 9.2615 9.68102 9.47361 9.41442 9.47361Z" fill="#FFA0D2"/>
<path d="M8.20849 10.6578C8.60841 10.6578 8.93261 10.3397 8.93261 9.94732C8.93261 9.55492 8.60841 9.23682 8.20849 9.23682C7.80857 9.23682 7.48438 9.55492 7.48438 9.94732C7.48438 10.3397 7.80857 10.6578 8.20849 10.6578Z" fill="#5064AA"/>
<path d="M8.44763 4.73682H7.96484V6.15789H8.44763V4.73682Z" fill="#FAB446"/>
<path d="M6.75817 7.10515L6.27539 6.63144L6.55818 6.35397C6.9953 5.92507 7.58822 5.68408 8.20646 5.68408C8.8247 5.68408 9.41757 5.92507 9.85474 6.35397L10.1375 6.63144L9.65475 7.10515H6.75817Z" fill="#C8414B"/>
<path d="M8.20623 6.86873C8.33955 6.86873 8.44762 6.76268 8.44762 6.63187C8.44762 6.50106 8.33955 6.39502 8.20623 6.39502C8.07292 6.39502 7.96484 6.50106 7.96484 6.63187C7.96484 6.76268 8.07292 6.86873 8.20623 6.86873Z" fill="#FFD250"/>
<path d="M7.23944 6.86873C7.37275 6.86873 7.48083 6.76268 7.48083 6.63187C7.48083 6.50106 7.37275 6.39502 7.23944 6.39502C7.10612 6.39502 6.99805 6.50106 6.99805 6.63187C6.99805 6.76268 7.10612 6.86873 7.23944 6.86873Z" fill="#FFD250"/>
<path d="M9.17108 6.86873C9.30439 6.86873 9.41247 6.76268 9.41247 6.63187C9.41247 6.50106 9.30439 6.39502 9.17108 6.39502C9.03776 6.39502 8.92969 6.50106 8.92969 6.63187C8.92969 6.76268 9.03776 6.86873 9.17108 6.86873Z" fill="#FFD250"/>
<path d="M6.27328 9H3.85938V9.47371H6.27328V9Z" fill="#C8414B"/>
<path d="M3.85938 10.8949L5.30761 10.4212V9.94751L3.85938 10.4212V10.8949Z" fill="#C8414B"/>
</svg>
