<svg width="28" height="18" viewBox="0 0 28 18" fill="none" xmlns="http://www.w3.org/2000/svg">
<path d="M25.903 0H2.09699C0.93882 0 0 0.921169 0 2.05756V15.9424C0 17.0787 0.93882 17.9999 2.09699 17.9999H25.903C27.0611 17.9999 28 17.0788 28 15.9424V2.05756C28 0.921169 27.0612 0 25.903 0Z" fill="#41479B"/>
<path d="M27.971 1.71747C27.8057 0.743073 26.943 0 25.903 0H25.3574L16.4138 5.74943V5.36298e-05H11.5862V5.74948L2.64261 5.36298e-05H2.09699C1.057 5.36298e-05 0.194305 0.743073 0.0290391 1.71753L7.67315 6.63164H0V11.3685H7.67315L0.0290391 16.2825C0.194305 17.2569 1.057 17.9999 2.09699 17.9999H2.64261L11.5862 12.2505V17.9999H16.4138V12.2505L25.3574 17.9999H25.903C26.943 17.9999 27.8057 17.2569 27.971 16.2825L20.3269 11.3684H28V6.63153H20.3269L27.971 1.71747Z" fill="#F5F5F5"/>
<path d="M15.4483 0H12.5517V7.57889H0V10.421H12.5517V17.9999H15.4483V10.421H28V7.57889H15.4483V0Z" fill="#FF4B55"/>
<path d="M1.35534 17.8673L11.5591 11.3684H9.78569L0.503906 17.2802C0.731023 17.5402 1.02289 17.744 1.35534 17.8673Z" fill="#FF4B55"/>
<path d="M18.9433 11.3684H17.1699L27.0528 17.6629C27.3294 17.4847 27.5602 17.244 27.7248 16.9613L18.9433 11.3684Z" fill="#FF4B55"/>
<path d="M0.220703 1.13754L8.84656 6.63155H10.62L0.845563 0.406006C0.583117 0.597677 0.368359 0.848265 0.220703 1.13754Z" fill="#FF4B55"/>
<path d="M18.1875 6.63136L27.4863 0.708716C27.2566 0.449488 26.9625 0.246871 26.6277 0.125977L16.4141 6.63136H18.1875Z" fill="#FF4B55"/>
</svg>
