<svg width="28" height="18" viewBox="0 0 28 18" fill="none" xmlns="http://www.w3.org/2000/svg">
<path d="M25.903 17.9999H2.09699C0.93882 17.9999 0 17.0788 0 15.9423V2.05756C0 0.921222 0.93882 0 2.09699 0H25.903C27.0611 0 28 0.921169 28 2.05756V15.9424C28 17.0788 27.0612 17.9999 25.903 17.9999Z" fill="#FF4B55"/>
<path d="M2.09699 0C0.93882 0 0 0.921169 0 2.05756V15.9424C0 17.0788 0.93882 18 2.09699 18H10.1379V0H2.09699Z" fill="#73AF00"/>
<path d="M10.1419 13.2592C12.5394 13.2592 14.483 11.3521 14.483 8.99971C14.483 6.64726 12.5394 4.74023 10.1419 4.74023C7.74436 4.74023 5.80078 6.64726 5.80078 8.99971C5.80078 11.3521 7.74436 13.2592 10.1419 13.2592Z" fill="#FFE15A"/>
<path d="M11.5907 7.57895V9.47365C11.5907 10.2572 10.941 10.8947 10.1424 10.8947C9.34377 10.8947 8.69408 10.2572 8.69408 9.47365V7.57895H11.5907ZM12.0734 6.63159H8.2113C7.9447 6.63159 7.72852 6.84371 7.72852 7.1053V9.47371C7.72852 10.7817 8.80925 11.8421 10.1423 11.8421C11.4754 11.8421 12.5561 10.7817 12.5561 9.47371V7.1053C12.5562 6.84371 12.34 6.63159 12.0734 6.63159Z" fill="#FF4B55"/>
<path d="M11.5899 7.57861V9.47332C11.5899 10.2569 10.9402 10.8944 10.1416 10.8944C9.34305 10.8944 8.69336 10.2569 8.69336 9.47332V7.57861H11.5899Z" fill="#F5F5F5"/>
<path d="M8.20819 7.34211C8.3415 7.34211 8.44958 7.23607 8.44958 7.10526C8.44958 6.97445 8.3415 6.86841 8.20819 6.86841C8.07487 6.86841 7.9668 6.97445 7.9668 7.10526C7.9668 7.23607 8.07487 7.34211 8.20819 7.34211Z" fill="#FFE15A"/>
<path d="M12.0715 7.34236C12.2048 7.34236 12.3129 7.23631 12.3129 7.1055C12.3129 6.97469 12.2048 6.86865 12.0715 6.86865C11.9382 6.86865 11.8301 6.97469 11.8301 7.1055C11.8301 7.23631 11.9382 7.34236 12.0715 7.34236Z" fill="#FFE15A"/>
<path d="M8.20819 9.23713C8.3415 9.23713 8.44958 9.13109 8.44958 9.00028C8.44958 8.86947 8.3415 8.76343 8.20819 8.76343C8.07487 8.76343 7.9668 8.86947 7.9668 9.00028C7.9668 9.13109 8.07487 9.23713 8.20819 9.23713Z" fill="#FFE15A"/>
<path d="M12.0715 9.23713C12.2048 9.23713 12.3129 9.13109 12.3129 9.00028C12.3129 8.86947 12.2048 8.76343 12.0715 8.76343C11.9382 8.76343 11.8301 8.86947 11.8301 9.00028C11.8301 9.13109 11.9382 9.23713 12.0715 9.23713Z" fill="#FFE15A"/>
<path d="M10.1398 7.34236C10.2731 7.34236 10.3812 7.23631 10.3812 7.1055C10.3812 6.97469 10.2731 6.86865 10.1398 6.86865C10.0065 6.86865 9.89844 6.97469 9.89844 7.1055C9.89844 7.23631 10.0065 7.34236 10.1398 7.34236Z" fill="#FFE15A"/>
<path d="M11.5871 10.9832C11.7204 10.9832 11.8285 10.8772 11.8285 10.7464C11.8285 10.6156 11.7204 10.5095 11.5871 10.5095C11.4538 10.5095 11.3457 10.6156 11.3457 10.7464C11.3457 10.8772 11.4538 10.9832 11.5871 10.9832Z" fill="#FFE15A"/>
<path d="M8.71795 10.9832C8.85127 10.9832 8.95934 10.8772 8.95934 10.7464C8.95934 10.6156 8.85127 10.5095 8.71795 10.5095C8.58464 10.5095 8.47656 10.6156 8.47656 10.7464C8.47656 10.8772 8.58464 10.9832 8.71795 10.9832Z" fill="#FFE15A"/>
<path d="M10.4537 8.88037V9.28829C10.4537 9.45699 10.3138 9.59425 10.1419 9.59425C9.96997 9.59425 9.83008 9.45699 9.83008 9.28829V8.88037H10.4537Z" fill="#41479B"/>
<path d="M10.4537 7.91357V8.32149C10.4537 8.4902 10.3138 8.62746 10.1419 8.62746C9.96997 8.62746 9.83008 8.4902 9.83008 8.32149V7.91357H10.4537Z" fill="#41479B"/>
<path d="M10.4537 9.85791V10.2658C10.4537 10.4345 10.3138 10.5718 10.1419 10.5718C9.96997 10.5718 9.83008 10.4345 9.83008 10.2658V9.85791H10.4537Z" fill="#41479B"/>
<path d="M11.2955 8.88037V9.28829C11.2955 9.45699 11.1556 9.59425 10.9837 9.59425C10.8118 9.59425 10.6719 9.45699 10.6719 9.28829V8.88037H11.2955Z" fill="#41479B"/>
<path d="M9.61389 8.88037V9.28829C9.61389 9.45699 9.474 9.59425 9.30206 9.59425C9.13012 9.59425 8.99023 9.45699 8.99023 9.28829V8.88037H9.61389Z" fill="#41479B"/>
</svg>
