<svg width="24" height="30" viewBox="0 0 24 30" fill="none" xmlns="http://www.w3.org/2000/svg">
<path d="M24 11.9466C24 21.3904 12 30 12 30C12 30 0 21.1235 0 11.9466C0 5.33927 5.36313 0 12 0C18.6369 0 24 5.33927 24 11.9466Z" fill="#FFD306"/>
<path d="M17.2618 16.5183V10.2447L11.9992 6.00665L6.70312 10.2447V16.5183C6.70312 16.9521 7.07184 17.3192 7.50759 17.3192H16.4573C16.9266 17.3192 17.2618 16.9855 17.2618 16.5183Z" fill="#25AC10"/>
<path d="M10.3242 11.3793H13.6762V17.3192H10.3242V11.3793Z" fill="#FFD306"/>
<path d="M19.4423 11.2124C19.4423 11.2124 12.7384 5.83978 12.3697 5.57282C12.1015 5.33923 11.8334 5.40597 11.6322 5.57282C10.9283 6.14012 4.69369 11.1457 4.59313 11.2458C4.32497 11.446 4.29145 11.8131 4.49257 12.08C4.69369 12.347 5.0624 12.3804 5.33056 12.1802L12.0345 6.80752L18.7384 12.1802C19.0065 12.3804 19.3753 12.347 19.5764 12.08C19.7104 11.7797 19.6769 11.4126 19.4423 11.2124Z" fill="#25AC10"/>
</svg>
