<svg width="20" height="27" viewBox="0 0 20 27" fill="none" xmlns="http://www.w3.org/2000/svg">
<path fill-rule="evenodd" clip-rule="evenodd" d="M3.24154 2.60986L16.7585 10.2021V27H0V2.60986H3.24154Z" fill="#FFD306"/>
<path fill-rule="evenodd" clip-rule="evenodd" d="M20.0006 5.07733V24.3902H3.24219V0H14.5718L20.0006 5.07733Z" fill="#25AC10"/>
<path fill-rule="evenodd" clip-rule="evenodd" d="M14.5391 0V5.07733H19.9993L14.5391 0Z" fill="#25AC10"/>
<path d="M6.19948 15.0581C6.02639 15.0581 5.88477 14.9157 5.88477 14.7417C5.88477 14.5519 6.02639 14.4095 6.19948 14.4095H17.0256C17.2144 14.4095 17.356 14.5519 17.356 14.7417C17.356 14.9157 17.2144 15.0581 17.0256 15.0581H6.19948Z" fill="#E2E2E2"/>
<path d="M6.19948 18.174C6.02639 18.174 5.88477 18.0317 5.88477 17.8577C5.88477 17.6679 6.02639 17.5255 6.19948 17.5255H17.0256C17.2144 17.5255 17.356 17.6679 17.356 17.8577C17.356 18.0317 17.2144 18.174 17.0256 18.174H6.19948Z" fill="#E2E2E2"/>
<path d="M6.19948 21.2901C6.02639 21.2901 5.88477 21.1477 5.88477 20.9737C5.88477 20.7839 6.02639 20.6416 6.19948 20.6416H17.0256C17.2144 20.6416 17.356 20.7839 17.356 20.9737C17.356 21.1477 17.2144 21.2901 17.0256 21.2901H6.19948Z" fill="#E2E2E2"/>
<path d="M14.3192 9.1108C14.3192 9.28479 14.1776 9.42715 13.9888 9.42715C13.8157 9.42715 13.674 9.28479 13.674 9.1108V7.16529C13.674 6.59587 13.438 6.08971 13.0603 5.7101C12.6984 5.33049 12.1792 5.10905 11.6127 5.10905C11.0462 5.10905 10.5426 5.33049 10.165 5.7101C9.78734 6.08971 9.56704 6.59587 9.56704 7.16529V9.1108C9.56704 9.28479 9.42542 9.42715 9.23659 9.42715C9.0635 9.42715 8.92188 9.28479 8.92188 9.1108V7.16529C8.92188 6.42188 9.22085 5.74174 9.70866 5.2514C10.1965 4.76107 10.8731 4.46054 11.6127 4.46054C12.3522 4.46054 13.0289 4.76107 13.5167 5.2514C14.0045 5.74174 14.3192 6.42188 14.3192 7.16529V9.1108Z" fill="#CCCCCC"/>
<path d="M14.7606 8.01932H8.48213C8.35177 8.01932 8.24609 8.09013 8.24609 8.17749V12.3058C8.24609 12.3931 8.35177 12.464 8.48213 12.464H14.7606C14.891 12.464 14.9967 12.3931 14.9967 12.3058V8.17749C14.9967 8.09013 14.891 8.01932 14.7606 8.01932Z" fill="#FFD306"/>
<path fill-rule="evenodd" clip-rule="evenodd" d="M11.6132 9.17401C12.0695 9.17401 12.4472 9.53781 12.4472 9.99651C12.4472 10.3287 12.2426 10.6292 11.9436 10.7557V11.2777C11.9436 11.4675 11.802 11.6099 11.6132 11.6099C11.4401 11.6099 11.2827 11.4675 11.2827 11.2777V10.7557C10.9995 10.6292 10.7949 10.3287 10.7949 9.99651C10.7949 9.53781 11.1568 9.17401 11.6132 9.17401Z" fill="white"/>
</svg>
