<svg width="25" height="16" viewBox="0 0 25 16" fill="none" xmlns="http://www.w3.org/2000/svg">
<g id="Group">
<path id="Vector" d="M22.7923 0H2.8515C1.7502 0 0.857422 0.89543 0.857422 2V14C0.857422 15.1046 1.7502 16 2.8515 16H22.7923C23.8936 16 24.7863 15.1046 24.7863 14V2C24.7863 0.89543 23.8936 0 22.7923 0Z" fill="#016FD0"/>
<path id="Vector_2" fill-rule="evenodd" clip-rule="evenodd" d="M14.5811 13.3938V7.69238L24.6985 7.70149V9.27638L23.5291 10.5298L24.6985 11.7947V13.403H22.8315L21.8392 12.3048L20.854 13.4071L14.5811 13.3938Z" fill="#FFFFFE"/>
<path id="Vector_3" fill-rule="evenodd" clip-rule="evenodd" d="M15.2568 12.7687V8.31982H19.0179V9.34471H16.4746V10.0404H18.9573V11.0482H16.4746V11.7315H19.0179V12.7687H15.2568Z" fill="#016FD0"/>
<path id="Vector_4" fill-rule="evenodd" clip-rule="evenodd" d="M18.9991 12.7689L21.0803 10.5419L18.999 8.32007H20.6099L21.8816 9.7301L23.1569 8.32007H24.6985V8.35507L22.6617 10.5419L24.6985 12.7057V12.7689H23.1414L21.8471 11.3447L20.5662 12.7689H18.9991Z" fill="#016FD0"/>
<path id="Vector_5" fill-rule="evenodd" clip-rule="evenodd" d="M15.0527 2.63184H17.4915L18.3481 4.58269V2.63184H21.359L21.8782 4.09341L22.3992 2.63184H24.6983V8.33323H12.5479L15.0527 2.63184Z" fill="#FFFFFE"/>
<g id="Group_2">
<path id="Vector_6" fill-rule="evenodd" clip-rule="evenodd" d="M15.5141 3.25146L13.5459 7.69664H14.8958L15.2671 6.80647H17.2791L17.6501 7.69664H19.0336L17.0736 3.25146H15.5141ZM15.6832 5.8089L16.2734 4.39383L16.8632 5.8089H15.6832Z" fill="#016FD0"/>
<path id="Vector_7" fill-rule="evenodd" clip-rule="evenodd" d="M19.0156 7.69582V3.25073L20.9131 3.25727L21.8895 5.99L22.8722 3.25073H24.6984V7.69582L23.5232 7.70625V4.6529L22.414 7.69582H21.3414L20.2091 4.64247V7.69582H19.0156Z" fill="#016FD0"/>
</g>
</g>
</svg>
