<svg width="67" height="45" viewBox="0 0 67 45" fill="none" xmlns="http://www.w3.org/2000/svg">
<rect x="0.875" width="65.625" height="45" rx="6" fill="#1F72CD"/>
<path fill-rule="evenodd" clip-rule="evenodd" d="M12.64 15.9375L6.5 29.5251H13.8505L14.7617 27.3587H16.8446L17.7558 29.5251H25.8466V27.8717L26.5676 29.5251H30.7528L31.4737 27.8367V29.5251H48.3003L50.3464 27.415L52.2622 29.5251L60.9047 29.5426L54.7453 22.7693L60.9047 15.9375H52.3962L50.4045 18.0087L48.549 15.9375H30.2439L28.672 19.4446L27.0632 15.9375H19.7281V17.5347L18.9122 15.9375H12.64ZM37.7671 17.867H47.4298L50.3852 21.0593L53.4358 17.867H56.3911L51.9008 22.7673L56.3911 27.6112H53.3017L50.3464 24.3818L47.2802 27.6112H37.7671V17.867ZM40.1533 21.6656V19.8857V19.884H46.1825L48.8133 22.7305L46.0659 25.5925H40.1533V23.6494H45.4247V21.6656H40.1533ZM14.0623 17.867H17.6452L21.7179 27.0808V17.867H25.6429L28.7886 24.4733L31.6877 17.867H35.593V27.617H33.2167L33.1973 19.9769L29.7328 27.617H27.6071L24.1232 19.9769V27.617H19.2346L18.3078 25.4312H13.3006L12.3758 27.6151H9.75648L14.0623 17.867ZM14.1556 23.4105L15.8053 19.5166L17.453 23.4105H14.1556Z" fill="white"/>
</svg>
