<svg width="33" height="28" viewBox="0 0 33 28" fill="none" xmlns="http://www.w3.org/2000/svg">
<path d="M29.632 18.0741L32.5723 8.02963C32.801 7.28889 32.605 6.51852 32.0823 5.8963C31.5595 5.27407 30.7754 4.91852 29.926 4.94815H5.35793L4.08379 0.562963C3.98578 0.237037 3.65908 0 3.2997 0H0.816758C0.359374 0.0296296 0 0.355556 0 0.77037C0 1.18519 0.359374 1.51111 0.816758 1.51111H2.67897L8.62496 21.837C8.98434 23.0519 10.1931 23.9111 11.598 23.9111H12.1534C11.9247 24.2963 11.794 24.7407 11.794 25.2148C11.794 26.7556 13.1661 28 14.865 28C16.5639 28 17.936 26.7556 17.936 25.2148C17.936 24.7407 17.8053 24.2963 17.5766 23.9111H22.7059C22.4772 24.2963 22.3465 24.7407 22.3465 25.2148C22.3465 26.7556 23.7187 28 25.4175 28C27.1164 28 28.4885 26.7556 28.4885 25.2148C28.4885 24.7407 28.3578 24.2963 28.1291 23.9111H29.2726C29.73 23.9111 30.0894 23.5852 30.0894 23.1704C30.0894 22.7556 29.73 22.4296 29.2726 22.4296H25.4828C25.4502 22.4296 25.4502 22.4296 25.4175 22.4296C25.3848 22.4296 25.3848 22.4296 25.3522 22.4296H14.9303C14.8977 22.4296 14.8977 22.4296 14.865 22.4296C14.8323 22.4296 14.8323 22.4296 14.7997 22.4296H11.598C10.9446 22.4296 10.3892 22.0444 10.2258 21.4518L9.86644 20.1778H26.6263C28.0311 20.2074 29.2726 19.3185 29.632 18.0741ZM16.3025 25.2148C16.3025 25.9259 15.6491 26.5185 14.865 26.5185C14.0809 26.5185 13.4275 25.9259 13.4275 25.2148C13.4275 24.5037 14.0809 23.9111 14.865 23.9111C15.6491 23.9111 16.3025 24.5037 16.3025 25.2148ZM26.855 25.2148C26.855 25.9259 26.2016 26.5185 25.4175 26.5185C24.6334 26.5185 23.98 25.9259 23.98 25.2148C23.98 24.5037 24.6334 23.9111 25.4175 23.9111C26.2016 23.9111 26.855 24.5037 26.855 25.2148ZM12.0227 16.7704C11.598 16.8593 11.1406 16.6222 11.0426 16.2074L9.37638 9.27407C9.27837 8.88889 9.53973 8.47407 9.96445 8.38518C10.3892 8.2963 10.8465 8.53333 10.9446 8.91852V8.94815L12.6434 15.8815C12.7414 16.2963 12.4801 16.6815 12.0227 16.7704ZM16.4332 16.7704H16.3678C15.9431 16.7704 15.5837 16.4741 15.5511 16.0889L14.9957 9.15555C14.963 8.74074 15.2897 8.38518 15.7471 8.35555C16.2045 8.32592 16.5965 8.62222 16.6292 9.03704L17.1846 15.9704C17.2173 16.3852 16.8906 16.7407 16.4332 16.7704ZM21.6931 16.0889C21.6604 16.4741 21.301 16.7704 20.8763 16.7704H20.811C20.3536 16.7407 20.0269 16.3852 20.0596 15.9704L20.615 9.03704C20.6476 8.62222 21.0397 8.32592 21.4971 8.35555C21.9545 8.38518 22.2812 8.74074 22.2485 9.15555L21.6931 16.0889ZM25.4175 16.8C25.3522 16.8 25.2868 16.8 25.2215 16.7704C24.7968 16.6815 24.5027 16.2963 24.6007 15.8815L26.2996 8.94815C26.3323 8.53333 26.7243 8.23704 27.1817 8.26667C27.6391 8.2963 27.9658 8.65185 27.9331 9.06667C27.9331 9.12593 27.9004 9.18519 27.9004 9.27407L26.2016 16.2074C26.1363 16.563 25.8096 16.8 25.4175 16.8Z" fill="#25AC10"/>
</svg>
