<svg width="30" height="30" viewBox="0 0 30 30" fill="none" xmlns="http://www.w3.org/2000/svg">
<g id="call-center-agent 1">
<g id="Group">
<path id="Vector" d="M17.8574 19.8779L12.5808 19.9654L11.4609 25.0049L15.3552 27.1429L19.1282 22.3533L17.8574 19.8779Z" fill="#FFD18D"/>
<path id="Vector_2" d="M11.1877 23.2515C12.2086 22.8913 12.9293 21.9862 13.0694 20.9334C13.0902 20.7771 13.1561 20.6304 13.2731 20.5246C13.4203 20.3915 13.6204 20.3398 13.816 20.3736C14.2006 20.44 14.5954 20.4762 14.9991 20.4762C16.0156 20.4762 16.9808 20.2606 17.8562 19.8779V18.0952H12.1419V20.5571C12.1419 21.3647 11.6327 22.0845 10.8711 22.3533L11.1877 23.2515Z" fill="#FBBD80"/>
<path id="Vector_3" d="M24.0461 24.089L19.3917 22.4463L16.503 23.434C16.359 23.6207 16.2426 23.8289 16.1588 24.0523L15.4458 25.9538C15.2913 26.3657 14.7086 26.3657 14.5541 25.9538L13.8411 24.0523C13.7576 23.8296 13.6417 23.6221 13.4983 23.4359L10.872 22.6109L5.95381 24.3467C4.81152 24.7498 4.33398 25.8296 4.33398 27.0409V28.5713L4.99996 29.9186C5.14891 29.9712 5.30916 29.9998 5.47615 29.9998H20.7142L21.6666 29.3635L22.619 29.9999H24.5238C25.3127 29.9999 25.9523 29.3603 25.9523 28.5713V26.7832C25.9523 25.5719 25.1884 24.4921 24.0461 24.089Z" fill="#77CC7D"/>
<path id="Vector_4" d="M6.27021 24.9872L11.1884 23.2515L10.8712 22.3533L5.95311 24.0891C4.81076 24.4922 4.04688 25.572 4.04688 26.7834V28.5714C4.04688 29.1925 4.44566 29.722 4.99926 29.9187V26.7834C4.99926 25.9772 5.5099 25.2553 6.27021 24.9872Z" fill="#52BD7E"/>
<path id="Vector_5" d="M12.9319 22.9074L11.0386 21.6452C10.8497 21.5193 10.5982 21.5442 10.4377 21.7046L9.28516 22.8572L10.4473 25.1815C10.5838 25.4546 10.9385 25.5305 11.1747 25.3371L13.4978 23.436C13.3402 23.2312 13.1496 23.0525 12.9319 22.9074Z" fill="#9AE59C"/>
<path id="Vector_6" d="M17.0688 22.9074L18.9622 21.6452C19.151 21.5193 19.4026 21.5442 19.5631 21.7046L20.7156 22.8572L19.5535 25.1815C19.4169 25.4546 19.0623 25.5305 18.826 25.3371L16.502 23.4342C16.6596 23.2293 16.8512 23.0525 17.0688 22.9074Z" fill="#9AE59C"/>
<path id="Vector_7" d="M21.4524 16.3892L18.3066 16.9111V20.2961C18.3066 21.1037 18.8159 21.8234 19.5775 22.0923L20.5284 22.4279C20.9092 22.5623 21.1638 22.9222 21.1638 23.326L21.6653 30H22.6177C22.6177 26.1905 24.0462 25.2381 24.0462 22.381C24.0462 19.2924 22.1648 18.3946 21.4524 16.3892Z" fill="#D48C64"/>
<path id="Vector_8" d="M20.394 21.7907L19.4433 21.4552C19.0625 21.3209 18.8079 20.961 18.8079 20.5572V19.8737C18.8079 19.5772 18.9397 19.2901 19.1799 19.1162C20.1482 18.4151 20.9337 17.4779 21.4521 16.3892C21.2858 15.9209 21.1827 15.3929 21.1827 14.7619H21.1888L21.665 14.2858V12.8572H17.8555V20.5572C17.8555 21.3648 18.3648 22.0846 19.1263 22.3534L20.0772 22.6889C20.458 22.8233 20.7126 23.1832 20.7126 23.587V30.0001H21.665V23.5867C21.665 22.7792 21.1556 22.0594 20.394 21.7907Z" fill="#C6805D"/>
<path id="Vector_9" d="M14.9985 19.4658C11.5796 19.4658 9.33398 16.7523 9.33398 13.3334V5.71436H21.189V13.3334C21.189 16.4256 18.9219 18.9882 15.9592 19.4498C15.6461 19.4985 15.3253 19.4658 14.9985 19.4658Z" fill="#FFE09C"/>
<path id="Vector_10" d="M18.2392 5.71436H7.97266L8.80844 13.3334C8.80844 16.7523 11.58 19.5239 14.9989 19.5239C15.3237 19.5239 15.6483 19.498 15.9596 19.4498C12.994 18.9907 10.7133 16.4276 10.7133 13.3335V12.6246C10.7133 12.0032 11.1188 11.464 11.7077 11.2655C14.5689 10.3008 16.9222 8.30139 18.2392 5.71436Z" fill="#FFD18D"/>
<path id="Vector_11" d="M18.3325 2.38086L16.4277 6.19039C17.2453 7.20418 18.9464 8.58055 20.2807 9.59264C20.855 10.0282 21.1896 10.7078 21.1896 11.4285H22.142V6.19039C22.142 4.08647 20.4364 2.38086 18.3325 2.38086Z" fill="#D48C64"/>
<path id="Vector_12" d="M12.1422 12.8573C11.879 12.8573 11.666 12.6441 11.666 12.3811V11.9049C11.666 11.6419 11.879 11.4287 12.1422 11.4287C12.4054 11.4287 12.6184 11.6419 12.6184 11.9049V12.3811C12.6184 12.6441 12.4054 12.8573 12.1422 12.8573Z" fill="#4E3D4D"/>
<path id="Vector_13" d="M12.618 10.9524H11.6656C11.4024 10.9524 11.1895 10.7392 11.1895 10.4762C11.1895 10.2132 11.4024 10 11.6656 10H12.618C12.8812 10 13.0942 10.2132 13.0942 10.4762C13.0942 10.7392 12.8812 10.9524 12.618 10.9524Z" fill="#C6805D"/>
<path id="Vector_14" d="M8.33166 10.9525C13.3976 10.7261 17.6265 7.07974 18.3317 2.3811H16.814L16.1344 2.72933L15.8417 2.3811H11.665C9.56107 2.3811 7.85547 4.08671 7.85547 6.19063V10.9525H8.33166Z" fill="#C6805D"/>
<path id="Vector_15" d="M17.857 12.8573C17.5938 12.8573 17.3809 12.6441 17.3809 12.3811V11.9049C17.3809 11.6419 17.5938 11.4287 17.857 11.4287C18.1203 11.4287 18.3332 11.6419 18.3332 11.9049V12.3811C18.3332 12.6441 18.1203 12.8573 17.857 12.8573Z" fill="#4E3D4D"/>
<path id="Vector_16" d="M18.3329 10.9524H17.3805C17.1173 10.9524 16.9043 10.7392 16.9043 10.4762C16.9043 10.2132 17.1173 10 17.3805 10H18.3329C18.5961 10 18.8091 10.2132 18.8091 10.4762C18.8091 10.7392 18.5961 10.9524 18.3329 10.9524Z" fill="#D48C64"/>
<path id="Vector_17" d="M13.0741 14.762C12.8275 14.762 12.6725 15.0177 12.7734 15.2427C13.1494 16.0811 14.0042 16.6667 14.9988 16.6667C15.9933 16.6667 16.8482 16.0811 17.2241 15.2427C17.325 15.0176 17.1701 14.762 16.9234 14.762H13.0741Z" fill="white"/>
<path id="Vector_18" d="M24.5223 11.4286H23.5699V6.19049C23.5699 3.30217 21.2201 0.952383 18.3318 0.952383H11.6651C8.77678 0.952383 6.42699 3.30217 6.42699 6.19049V11.4286H5.47461V6.19049C5.47461 2.77693 8.25178 0 11.6651 0H18.3318C21.7451 0 24.5223 2.77693 24.5223 6.19049V11.4286Z" fill="#B8B2B8"/>
<path id="Vector_19" d="M24.0473 10.9524H22.1426V14.7619H24.0473C24.5733 14.7619 24.9997 14.3355 24.9997 13.8095L24.0473 10.9524Z" fill="#52BD7E"/>
<path id="Vector_20" d="M24.9993 13.8095V11.9048C24.9993 11.3788 24.5729 10.9524 24.0469 10.9524V12.8572C24.0469 13.3831 24.4733 13.8095 24.9993 13.8095Z" fill="#77CC7D"/>
<path id="Vector_21" d="M11.1893 19.0475H9.7607C7.66018 19.0475 5.95117 17.3385 5.95117 15.238V14.2856H6.90355V15.238C6.90355 16.8136 8.18518 18.0952 9.7607 18.0952H11.1893V19.0475Z" fill="#B8B2B8"/>
<path id="Vector_22" d="M12.1415 17.6191H11.6653C11.1393 17.6191 10.7129 18.0455 10.7129 18.5715C10.7129 19.0975 11.1393 19.5239 11.6653 19.5239H12.1415C12.6675 19.5239 13.0938 19.0975 13.0938 18.5715C13.0938 18.0456 12.6675 17.6191 12.1415 17.6191Z" fill="#615260"/>
<path id="Vector_23" d="M5.95238 10.9524L5 13.8095C5 14.3355 5.42639 14.7619 5.95238 14.7619H7.85715V10.9524H5.95238Z" fill="#52BD7E"/>
<path id="Vector_24" d="M5 13.8095V11.9048C5 11.3788 5.42639 10.9524 5.95238 10.9524V12.8572C5.95238 13.3831 5.526 13.8095 5 13.8095Z" fill="#77CC7D"/>
<path id="Vector_25" d="M8.33324 14.762H7.85705C7.59408 14.762 7.38086 14.5488 7.38086 14.2858V10.9525C7.38086 10.6895 7.59408 10.4763 7.85705 10.4763H8.33324C8.59621 10.4763 8.80943 10.6895 8.80943 10.9525V14.2858C8.80943 14.5488 8.59627 14.762 8.33324 14.762Z" fill="#615260"/>
<path id="Vector_26" d="M8.80906 14.2858C8.28307 14.2858 7.85668 13.8595 7.85668 13.3335V10.4763H7.38049C7.11752 10.4763 6.9043 10.6895 6.9043 10.9525V14.762C6.9043 15.025 7.11752 15.2382 7.38049 15.2382H8.33287C8.59584 15.2382 8.80906 15.025 8.80906 14.762V14.2858Z" fill="#4E3D4D"/>
<path id="Vector_27" d="M22.6184 14.762H22.1422C21.8792 14.762 21.666 14.5488 21.666 14.2858V10.9525C21.666 10.6895 21.8792 10.4763 22.1422 10.4763H22.6184C22.8814 10.4763 23.0946 10.6895 23.0946 10.9525V14.2858C23.0946 14.5488 22.8814 14.762 22.6184 14.762Z" fill="#615260"/>
<path id="Vector_28" d="M23.0942 14.2858C22.5682 14.2858 22.1418 13.8595 22.1418 13.3335V10.4763H21.6656C21.4027 10.4763 21.1895 10.6895 21.1895 10.9525V14.762C21.1895 15.025 21.4027 15.2382 21.6656 15.2382H22.618C22.881 15.2382 23.0942 15.025 23.0942 14.762V14.2858Z" fill="#4E3D4D"/>
<path id="Vector_29" d="M15.8428 2.38086C15.1027 5.48205 12.6852 7.8892 9.67343 8.45387C9.41485 8.50221 9.2447 8.75123 9.29351 9.00957C9.33628 9.23861 9.53626 9.39811 9.76085 9.39811C9.78968 9.39811 9.81944 9.39553 9.84921 9.38996C13.3013 8.74268 16.0524 5.94951 16.8151 2.38086H15.8428Z" fill="#D48C64"/>
</g>
</g>
</svg>
