<svg width="48" height="48" viewBox="0 0 48 48" fill="none" xmlns="http://www.w3.org/2000/svg">
<g id="Frame 37086">
<g id="Group 37121">
<path id="Vector" d="M11.7227 21.4706V35.1621C11.7227 36.1738 12.6071 37 13.693 37H21.2501V21.4706C20.685 21.4664 12.0245 21.4736 11.7227 21.4706Z" fill="#138700"/>
<path id="Vector_2" d="M11 17.7805V20.542H21.2498V16.8291H12.0318C11.4619 16.8291 11 17.2561 11 17.7805Z" fill="#138700"/>
<path id="Vector_3" d="M34.9679 16.8291H25.75V20.542H35.9998V17.7805C35.9998 17.2561 35.5379 16.8291 34.9679 16.8291Z" fill="#138700"/>
<path id="Vector_4" d="M25.75 21.4707V37.0001H33.3071C34.393 37.0001 35.2775 36.1739 35.2775 35.1621V21.4707C35.0131 21.4838 26.2803 21.4612 25.75 21.4707Z" fill="#138700"/>
<path id="Vector_5" d="M20.5419 15.9009C22.1784 15.901 24.8218 15.9023 26.4579 15.9009C28.0598 15.265 29.7844 14.3414 30.0989 13.2229C30.4631 12.2678 29.1641 10.744 27.8386 11.037C26.0697 11.3247 24.3107 13.9748 23.4999 15.3718C22.6892 13.9748 20.9301 11.3247 19.1612 11.0369C17.843 10.7434 16.5323 12.2671 16.901 13.2229C17.2154 14.3414 18.9401 15.265 20.5419 15.9009ZM28.0057 11.9512C28.3111 11.9007 28.5647 11.9899 28.8165 12.2204C30.3065 13.5473 26.4146 14.9724 24.4876 15.6039C25.3524 14.1697 26.8117 12.1462 28.0057 11.9512ZM18.1834 12.2204C19.5729 11.012 21.6353 14.2076 22.5123 15.6038C20.5884 14.9737 16.6926 13.5473 18.1834 12.2204Z" fill="#138700"/>
<path id="Vector_6" d="M22.2324 16.834H24.7678V36.9999H22.2324V16.834Z" fill="#138700"/>
</g>
</g>
</svg>
