<svg width="30" height="30" viewBox="0 0 30 30" fill="none" xmlns="http://www.w3.org/2000/svg">
<g id="product 1" clip-path="url(#clip0_476_2869)">
<g id="Flat">
<g id="Color">
<path id="Vector" d="M21.9141 0.351562H3.16406C1.61076 0.351562 0.351562 1.61076 0.351562 3.16406V21.4453C0.351562 22.9986 1.61076 24.2578 3.16406 24.2578H21.9141C23.4674 24.2578 24.7266 22.9986 24.7266 21.4453V3.16406C24.7266 1.61076 23.4674 0.351562 21.9141 0.351562Z" fill="#FFC107"/>
<path id="Vector_2" d="M8.78906 0.351562V6.59789C8.78911 6.72877 8.82569 6.85704 8.89469 6.96826C8.96368 7.07947 9.06234 7.16923 9.17957 7.22742C9.29681 7.28561 9.42795 7.30992 9.55825 7.29763C9.68855 7.28533 9.81283 7.23691 9.91711 7.15781L12.1141 5.49094C12.2364 5.39821 12.3856 5.34801 12.5391 5.34801C12.6925 5.34801 12.8417 5.39821 12.964 5.49094L15.161 7.15781C15.2653 7.23691 15.3896 7.28533 15.5199 7.29763C15.6502 7.30992 15.7813 7.28561 15.8986 7.22742C16.0158 7.16923 16.1144 7.07947 16.1834 6.96826C16.2524 6.85704 16.289 6.72877 16.2891 6.59789V0.351562H8.78906Z" fill="#138700"/>
<path id="Vector_3" d="M8.32031 18.1641H4.10156C3.71324 18.1641 3.39844 18.4789 3.39844 18.8672V20.2734C3.39844 20.6618 3.71324 20.9766 4.10156 20.9766H8.32031C8.70864 20.9766 9.02344 20.6618 9.02344 20.2734V18.8672C9.02344 18.4789 8.70864 18.1641 8.32031 18.1641Z" fill="white"/>
<path id="Vector_4" d="M29.1152 27.1261L25.6368 23.6484L23.6699 25.5743L27.0838 29.1202C27.2132 29.2595 27.3692 29.3715 27.5426 29.4495C27.716 29.5276 27.9033 29.5701 28.0934 29.5745C28.2835 29.579 28.4726 29.5453 28.6495 29.4754C28.8263 29.4056 28.9874 29.301 29.1232 29.1678C29.2589 29.0347 29.3666 28.8757 29.4399 28.7002C29.5132 28.5247 29.5505 28.3364 29.5498 28.1462C29.5491 27.9561 29.5102 27.768 29.4356 27.5931C29.3609 27.4182 29.252 27.26 29.1152 27.128V27.1261Z" fill="#757575"/>
<path id="Vector_5" d="M20.1563 27.3047C18.7424 27.3047 17.3603 26.8854 16.1848 26.1C15.0092 25.3145 14.093 24.198 13.552 22.8918C13.0109 21.5856 12.8693 20.1483 13.1452 18.7617C13.421 17.375 14.1018 16.1013 15.1015 15.1015C16.1013 14.1018 17.375 13.421 18.7617 13.1452C20.1483 12.8693 21.5856 13.0109 22.8918 13.552C24.198 14.093 25.3145 15.0092 26.1 16.1848C26.8854 17.3603 27.3047 18.7424 27.3047 20.1563C27.3025 22.0515 26.5487 23.8684 25.2086 25.2086C23.8684 26.5487 22.0515 27.3025 20.1563 27.3047Z" fill="#9E9E9E"/>
<path id="Vector_6" d="M20.1563 25.1953C19.1596 25.1953 18.1854 24.8998 17.3567 24.3461C16.528 23.7924 15.8822 23.0054 15.5008 22.0846C15.1194 21.1638 15.0196 20.1507 15.214 19.1732C15.4084 18.1957 15.8884 17.2978 16.5931 16.5931C17.2978 15.8884 18.1957 15.4084 19.1732 15.214C20.1507 15.0196 21.1638 15.1194 22.0846 15.5008C23.0054 15.8822 23.7924 16.528 24.3461 17.3567C24.8998 18.1854 25.1953 19.1596 25.1953 20.1563C25.1938 21.4922 24.6624 22.773 23.7177 23.7177C22.773 24.6624 21.4922 25.1938 20.1563 25.1953Z" fill="#EEEEEE"/>
<path id="Vector_7" d="M21.0748 16.5202C20.4443 16.3618 19.7835 16.3697 19.1571 16.5433C18.5306 16.7168 17.9599 17.05 17.5008 17.5102C17.4361 17.5773 17.4007 17.6674 17.4024 17.7606C17.4041 17.8538 17.4428 17.9426 17.5099 18.0073C17.5771 18.072 17.6672 18.1074 17.7604 18.1057C17.8536 18.1039 17.9423 18.0653 18.007 17.9981C18.3802 17.6301 18.8413 17.3635 19.3464 17.2238C19.8516 17.084 20.3841 17.0757 20.8934 17.1996C20.9835 17.2237 21.0795 17.2109 21.1602 17.1642C21.241 17.1175 21.2999 17.0406 21.3239 16.9505C21.348 16.8603 21.3352 16.7643 21.2885 16.6836C21.2418 16.6029 21.1649 16.5442 21.0748 16.5202Z" fill="white"/>
</g>
</g>
</g>
<defs>
<clipPath id="clip0_476_2869">
<rect width="30" height="30" fill="white"/>
</clipPath>
</defs>
</svg>
