<svg width="162" height="149" viewBox="0 0 162 149" fill="none" xmlns="http://www.w3.org/2000/svg">
<path d="M39.7618 34.954L42.2287 34.2236L40.9222 38.8571L37.2949 35.6883L39.7618 34.954Z" fill="#45B349"/>
<path d="M32.2639 52.4293L33.4243 50.1328L35.8993 54.2673L31.1035 54.7257L32.2639 52.4293Z" fill="#45B349"/>
<path d="M91.9122 142.267L94.375 141.537L93.0685 146.17L89.4453 142.997L91.9122 142.267Z" fill="#45B349"/>
<path d="M14.062 19.9661L14.0783 21.6824L11.3477 19.9905L14.0499 18.2539L14.062 19.9661Z" fill="#F9AE3F"/>
<path d="M147.923 97.5062L147.772 99.831L144.234 97.2708L148.069 95.1772L147.923 97.5062Z" fill="#339891"/>
<path d="M134.161 56.1255L135.918 57.6592L131.73 58.9048L132.404 54.5918L134.161 56.1255Z" fill="#FBF7CC"/>
<path d="M131.405 93.1728L133.162 94.7065L128.975 95.9562L129.648 91.6392L131.405 93.1728Z" fill="#FBF7CC"/>
<path d="M73.5065 126.728L75.2634 128.261L71.0762 129.507L71.7497 125.194L73.5065 126.728Z" fill="#FBF7CC"/>
<path d="M97.0689 24.3603L96.8457 22.4736L100.059 24.0073L97.292 26.251L97.0689 24.3603Z" fill="#EB297B"/>
<path d="M0.223156 80.6157L0 78.729L3.21343 80.2627L0.44631 82.5064L0.223156 80.6157Z" fill="#B2FF59"/>
<path d="M119.567 46.3312L118.613 44.688L122.172 44.8178L120.524 47.9744L119.567 46.3312Z" fill="#EB297B"/>
<path d="M8.13527 100.505L7.17773 98.8574L10.736 98.9873L9.08875 102.148L8.13527 100.505Z" fill="#EB297B"/>
<path d="M18.5493 65.9401L17.5918 64.2969L21.1501 64.4267L19.5069 67.5833L18.5493 65.9401Z" fill="#EB297B"/>
<path d="M152.926 84.4865L151.969 82.8433L155.527 82.9731L153.88 86.1297L152.926 84.4865Z" fill="#EB297B"/>
<path d="M118.815 143.042L117.857 141.399L121.416 141.529L119.768 144.685L118.815 143.042Z" fill="#EB297B"/>
<path d="M55.3871 127.88L54.4336 126.236L57.9919 126.366L56.3446 129.523L55.3871 127.88Z" fill="#EB297B"/>
<path d="M108.615 121.201L107.109 120.037L110.457 118.815L110.12 122.362L108.615 121.201Z" fill="#00ACED"/>
<path d="M106.363 35.2261L104.857 34.0616L108.205 32.8403L107.868 36.3865L106.363 35.2261Z" fill="#00ACED"/>
<path d="M37.5112 138.133L38.3875 136.445L40.185 139.52L36.6348 139.821L37.5112 138.133Z" fill="#00ACED"/>
<path d="M44.8139 116.966L43.3086 115.801L46.6519 114.584L46.3192 118.126L44.8139 116.966Z" fill="#00ACED"/>
<path d="M28.9287 17.0448L29.7929 15.8804L30.7748 18.4122L28.0645 18.2134L28.9287 17.0448Z" fill="#F8EC31"/>
<path d="M132.282 45.3981L131.832 44.0186L134.469 44.684L132.733 46.7816L132.282 45.3981Z" fill="#00A451"/>
<path d="M42.3956 21.2849L43.6777 19.9663L44.481 23.3177L41.1094 22.6036L42.3956 21.2849Z" fill="#EDCBE1"/>
<path d="M34.0733 109.394L35.3554 108.08L36.1588 111.427L32.7871 110.713L34.0733 109.394Z" fill="#EDCBE1"/>
<path d="M12.3135 50.1409L13.5957 48.8223L14.3949 52.1736L11.0273 51.4595L12.3135 50.1409Z" fill="#EDCBE1"/>
<path d="M30.702 40.9957L31.9882 39.6812L32.7875 43.0285L29.4199 42.3144L30.702 40.9957Z" fill="#EDCBE1"/>
<path d="M108.915 20.8953L110.197 19.5767L110.997 22.928L107.629 22.2139L108.915 20.8953Z" fill="#EDCBE1"/>
<path d="M22.9208 76.7898L24.2029 75.4712L25.0063 78.8226L21.6387 78.1044L22.9208 76.7898Z" fill="#EDCBE1"/>
<path d="M75.0458 9.40931L76.332 8.09473L77.1313 11.442L73.7637 10.7279L75.0458 9.40931Z" fill="#EDCBE1"/>
<path d="M88.2834 27.8944L88.2266 26.4419L90.5798 27.8011L88.3402 29.3429L88.2834 27.8944Z" fill="#00ACED"/>
<path d="M3.36344 60.7914L3.30664 59.3389L5.65991 60.7021L3.42025 62.2439L3.36344 60.7914Z" fill="#00ACED"/>
<path d="M143.143 49.1506L143.086 47.7021L145.439 49.0614L143.2 50.6032L143.143 49.1506Z" fill="#00ACED"/>
<path d="M65.5959 19.8L65.5391 18.3516L67.8923 19.7108L65.6527 21.2526L65.5959 19.8Z" fill="#00ACED"/>
<path d="M103.544 131.036L103.312 129.21L106.433 130.671L103.771 132.858L103.544 131.036Z" fill="#DD525F"/>
<path d="M74.0377 25.744L71.8711 25.0786L75.0926 22.3115L76.2084 26.4094L74.0377 25.744Z" fill="#F8EC31"/>
<path d="M79.8209 137.703L77.6543 137.037L80.8758 134.27L81.9916 138.368L79.8209 137.703Z" fill="#F8EC31"/>
<path d="M11.028 72.3954L8.86133 71.73L12.0829 68.9629L13.1986 73.0649L11.028 72.3954Z" fill="#F8EC31"/>
<path d="M22.1726 110.538L20.002 109.873L23.2275 107.106L24.3393 111.208L22.1726 110.538Z" fill="#F8EC31"/>
<path d="M23.3211 46.8544L21.1504 46.189L24.376 43.4219L25.4877 47.5198L23.3211 46.8544Z" fill="#F8EC31"/>
<path d="M122.272 11.4417L122.143 10.4233L123.883 11.2308L122.406 12.4561L122.272 11.4417Z" fill="#B9D77D"/>
<path d="M157.932 97.0236L157.027 96.5407L158.695 95.5913L158.837 97.5064L157.932 97.0236Z" fill="#F8EC31"/>
<path d="M49.0251 38.2935L48.1406 37.7782L49.8407 36.8896L49.9137 38.8088L49.0251 38.2935Z" fill="#FBF7CC"/>
<path d="M81.8689 19.3619L80.9844 18.8466L82.6844 17.958L82.7534 19.8771L81.8689 19.3619Z" fill="#FBF7CC"/>
<path d="M12.0349 85.8902L11.1504 85.3749L12.8504 84.4863L12.9194 86.4055L12.0349 85.8902Z" fill="#FBF7CC"/>
<path d="M31.9021 63.9073L31.0176 63.392L32.7176 62.5034L32.7866 64.4225L31.9021 63.9073Z" fill="#FBF7CC"/>
<path d="M94.3262 16.7446L93.3809 16.3388L94.9632 15.2515L95.2675 17.1462L94.3262 16.7446Z" fill="#F8EC31"/>
<path d="M135.519 106.879L135.982 105.966L136.967 107.613L135.061 107.796L135.519 106.879Z" fill="#45B349"/>
<path d="M49.8938 27.8946L49.7031 26.8843L51.4884 27.5943L50.0805 28.9008L49.8938 27.8946Z" fill="#DD525F"/>
<path d="M89.4444 5.55855L88.5762 5.01486L90.3046 4.18311L90.3127 6.10223L89.4444 5.55855Z" fill="#EB1C25"/>
<path d="M130.919 67.3158L129.893 67.3239L130.903 65.6929L131.942 67.3077L130.919 67.3158Z" fill="#64FFDA"/>
<path d="M119.85 27.4561L120.669 27.4602L121.128 28.1377L121.383 27.3587L122.17 27.1275L121.509 26.6446L121.533 25.8291L120.872 26.3038L120.101 26.0279L120.349 26.811L119.85 27.4561Z" fill="#DD525F"/>
<path d="M144.279 34.6984L145.095 34.7025L145.557 35.376L145.813 34.6011L146.6 34.3698L145.939 33.887L145.963 33.0674L145.298 33.5462L144.527 33.2703L144.778 34.0493L144.279 34.6984Z" fill="#DD525F"/>
<path d="M61.0469 28.3688L61.8665 28.3729L62.329 29.0464L62.5846 28.2715L63.3677 28.0402L62.7104 27.5574L62.7347 26.7378L62.0693 27.2166L61.2984 26.9407L61.55 27.7197L61.0469 28.3688Z" fill="#DD525F"/>
<path d="M19.9902 56.7666L20.8098 56.7707L21.2724 57.4483L21.528 56.6693L22.3151 56.4421L21.6537 55.9552L21.6781 55.1396L21.0127 55.6184L20.2418 55.3425L20.4933 56.1215L19.9902 56.7666Z" fill="#DD525F"/>
<path d="M143.115 118.475L143.935 118.479L144.397 119.152L144.653 118.377L145.44 118.146L144.779 117.663L144.803 116.844L144.138 117.323L143.367 117.047L143.618 117.826L143.115 118.475Z" fill="#DD525F"/>
<path d="M77.224 148.503L77.857 147.984L78.64 148.211L78.3438 147.448L78.8023 146.771L77.9868 146.816L77.4837 146.17L77.2768 146.962L76.5059 147.242L77.1956 147.684L77.224 148.503Z" fill="#DD525F"/>
<path d="M122.613 112.015L123.595 110.887L125.084 111.054L124.313 109.772L124.934 108.412L123.477 108.749L122.374 107.735L122.24 109.228L120.938 109.966L122.317 110.551L122.613 112.015Z" fill="#DD525F"/>
<path d="M90.4511 131.036L91.433 129.904L92.922 130.075L92.1511 128.793L92.7719 127.429L91.3112 127.766L90.2076 126.756L90.0778 128.245L88.7754 128.983L90.1508 129.568L90.4511 131.036Z" fill="#DD525F"/>
<path d="M28.5468 124.869L29.5287 123.741L31.0177 123.908L30.2468 122.626L30.8676 121.266L29.4069 121.603L28.3033 120.589L28.1735 122.082L26.8711 122.82L28.2506 123.405L28.5468 124.869Z" fill="#F8EC31"/>
<path d="M10.6348 43.7624L11.6167 42.6345L13.1017 42.8009L12.3308 41.5187L12.9516 40.1595L11.495 40.4963L10.3914 39.4819L10.2575 40.975L8.95508 41.7135L10.3346 42.2977L10.6348 43.7624Z" fill="#F8EC31"/>
<path d="M27.1562 32.171L28.138 31.043L29.623 31.2135L28.8521 29.9273L29.4729 28.5681L28.0163 28.9048L26.9127 27.8945L26.7788 29.3836L25.4805 30.122L26.8559 30.7063L27.1562 32.171Z" fill="#DD525F"/>
<path d="M155.708 72.1801L156.211 71.531L157.027 71.5797L156.568 70.9021L156.865 70.1393L156.078 70.3665L155.445 69.8472L155.42 70.6667L154.73 71.109L155.501 71.3849L155.708 72.1801Z" fill="#F8EC31"/>
<path d="M23.1517 93.3882L23.6548 92.739L24.4703 92.7877L24.0118 92.1101L24.308 91.3473L23.5209 91.5745L22.8879 91.0552L22.8636 91.8748L22.1738 92.317L22.9447 92.597L23.1517 93.3882Z" fill="#F8EC31"/>
<path d="M20.7128 45.191C19.5848 45.9213 14.4888 48.871 10.6992 45.1463C10.6992 45.1463 12.1112 48.8791 20.4166 48.8588L21.9381 47.3819L22.3519 46.2986L21.792 45.4466L21.1997 45.1585C21.0455 45.0814 20.8629 45.0936 20.7168 45.1869L20.7128 45.191Z" fill="#81B840"/>
<path d="M22.8866 52.8184C24.7692 55.192 27.9907 56.1698 31.0216 56.1008C34.0524 56.0319 36.9818 55.0703 39.8869 54.2061C42.792 53.3418 45.8025 52.5547 48.8212 52.855C53.3735 53.3053 57.3132 56.1495 60.7742 59.1439C64.2351 62.1382 67.5783 65.449 71.8102 67.2018L70.7471 69.981C66.5194 68.2283 63.1761 64.9175 59.7111 61.9231C56.2502 58.9288 52.3105 56.0887 47.7582 55.6342C44.7395 55.334 41.7289 56.1171 38.8239 56.9853C35.9188 57.8536 32.9894 58.8111 29.9586 58.8801C26.9277 58.9491 23.7062 57.9713 21.8236 55.5977C21.8236 55.5977 20.7686 53.9626 21.8804 51.5972L22.8866 52.8184Z" fill="#81B840"/>
<path d="M22.1768 45.7021L23.7956 46.8665C24.0959 47.0856 24.1811 47.4954 23.9863 47.816C20.3631 53.8371 21.8238 55.598 21.8238 55.598C21.8238 55.598 18.9431 51.8977 21.0204 46.8057C21.0529 46.7286 21.0894 46.6556 21.13 46.5825C21.2963 46.2863 21.7629 45.4627 21.0285 45.1138H21.1056C21.2355 45.1381 21.3775 45.1827 21.4992 45.2395C21.7629 45.3653 21.8684 45.4789 22.1808 45.7021H22.1768Z" fill="#B2FF59"/>
<path d="M10.8241 45.3977C10.8241 45.3977 8.42624 41.1132 11.5788 34.6133L14.6583 36.0861C14.6583 36.0861 11.6965 37.4656 10.8241 45.3977Z" fill="#B2FF59"/>
<path d="M107.969 5.91568C108.578 6.16724 111.3 7.141 112.797 5.00684C112.797 5.00684 112.444 6.93408 108.436 7.66035L107.572 7.0842L107.275 6.59732L107.47 6.13884L107.73 5.94814C107.799 5.89945 107.888 5.88728 107.965 5.91974L107.969 5.91568Z" fill="#81B840"/>
<path d="M107.592 9.79037C106.894 11.105 105.425 11.8596 103.953 12.095C102.484 12.3303 100.983 12.1234 99.5057 11.9651C98.0248 11.8028 96.5033 11.6933 95.0711 12.1031C92.9125 12.7238 91.2612 14.4442 89.8574 16.1969C88.4495 17.9497 87.1308 19.8445 85.2441 21.0617L86.0029 22.3114C87.8895 21.0901 89.2122 19.1953 90.6161 17.4466C92.024 15.6938 93.6713 13.9735 95.8298 13.3527C97.258 12.9429 98.7835 13.0525 100.264 13.2148C101.745 13.3771 103.243 13.5799 104.711 13.3446C106.18 13.1093 107.649 12.3546 108.351 11.04C108.351 11.04 108.716 10.1555 107.969 9.11279L107.592 9.79037Z" fill="#81B840"/>
<path d="M107.308 6.29316L106.63 6.99914C106.504 7.12898 106.5 7.3359 106.622 7.47385C108.902 10.0584 108.355 11.0403 108.355 11.0403C108.355 11.0403 109.418 8.99942 107.965 6.72324C107.945 6.69078 107.92 6.65832 107.892 6.62587C107.786 6.50009 107.486 6.13898 107.811 5.90771L107.774 5.91583C107.713 5.93611 107.649 5.97263 107.596 6.00915C107.478 6.09435 107.438 6.15521 107.308 6.29316Z" fill="#B2FF59"/>
<path d="M112.762 5.14067C112.762 5.14067 113.541 2.86044 111.443 0L110.088 0.981879C110.088 0.981879 111.642 1.38761 112.762 5.14067Z" fill="#B2FF59"/>
<path d="M123.184 41.4256C123.184 41.4256 118.669 35.8995 113.313 37.6685C107.957 39.4375 105.742 36.5405 105.742 36.5405C105.742 36.5405 103.238 38.3379 103.234 38.3379C103.238 38.3379 103.806 38.7558 103.843 38.7802C104.431 39.1454 105.08 39.4091 105.746 39.5876C108.156 40.2327 110.525 39.6769 112.781 38.7721C114.335 38.1472 115.703 38.9506 117.115 39.6282C117.845 39.9812 118.551 40.395 119.212 40.8657C119.366 40.9752 120.494 41.9368 121.05 42.4399C121.237 42.6103 121.517 42.6225 121.724 42.4764C122.259 42.091 123.188 41.4256 123.188 41.4256H123.184Z" fill="#C2A330"/>
<path d="M136.082 32.1706C136.082 32.1706 132.451 25.6626 126.223 27.2287C126.223 27.2287 130.702 22.9361 138.2 29.6388C138.52 29.9269 138.492 30.4422 138.139 30.6937L136.078 32.1706H136.082Z" fill="#C2A330"/>
<path d="M136.009 18.3516C136.009 18.3516 129.526 24.0359 136.086 32.1709L138.598 30.3694C138.955 30.1138 138.979 29.5904 138.647 29.3064C136.821 27.7443 132.183 23.0419 136.013 18.3516H136.009Z" fill="#FFD740"/>
<path d="M128.726 36.914C127.643 35.7536 123.651 31.9397 118.555 32.7309C118.555 32.7309 123.131 28.3449 130.779 35.3641C130.97 35.5426 130.954 35.851 130.743 36.0011L129.384 36.9749C129.181 37.1209 128.897 37.0966 128.726 36.9099V36.914Z" fill="#C2A330"/>
<path d="M118.56 32.7305C118.56 32.7305 115.026 36.3983 121.023 42.4113C121.209 42.5979 121.505 42.6263 121.724 42.4722L122.998 41.5593C123.335 41.3158 123.351 40.8208 123.031 40.5571C121.165 39.0234 116.194 34.398 120.418 31.708C120.418 31.708 119.428 31.988 118.56 32.7264V32.7305Z" fill="#FFD740"/>
<path d="M126.223 27.2327C126.223 27.2327 122.681 30.9087 128.71 36.9379C128.885 37.1124 129.161 37.1368 129.36 36.9948L130.893 35.8952C131.116 35.737 131.124 35.4124 130.909 35.242C129.262 33.9274 123.675 29.018 128.077 26.2144C128.077 26.2144 127.087 26.4943 126.219 27.2327H126.223Z" fill="#FFD740"/>
<path d="M56.0977 7.63208C56.0977 7.63208 57.3757 12.6754 61.4615 13.1541C65.5432 13.6329 66.1153 16.2296 66.1153 16.2296C66.1153 16.2296 68.3225 15.8158 68.3265 15.8158C68.3265 15.8158 68.079 15.3613 68.0587 15.337C67.7828 14.915 67.4339 14.5418 67.0525 14.2172C65.6608 13.0487 63.9243 12.6835 62.1553 12.5902C60.9381 12.5253 60.2808 11.5718 59.5586 10.6873C59.1853 10.2288 58.8485 9.73785 58.5524 9.22257C58.4834 9.1049 58.0371 8.11897 57.822 7.61585C57.749 7.44544 57.5705 7.34807 57.3879 7.38458C56.9172 7.47385 56.0977 7.62802 56.0977 7.62802V7.63208Z" fill="#C2A330"/>
<path d="M44.7288 9.76611C44.7288 9.76611 45.1223 15.1827 49.7193 16.0672C49.7193 16.0672 45.4388 17.5238 42.55 10.7845C42.4242 10.4964 42.6068 10.1637 42.9151 10.1069L44.7288 9.76611Z" fill="#C2A330"/>
<path d="M40.5215 18.9154C40.5215 18.9154 46.5548 17.1586 44.729 9.76611L42.5177 10.18C42.2053 10.2408 42.0268 10.5776 42.1566 10.8657C42.8788 12.4602 44.4936 16.9963 40.5215 18.9114V18.9154Z" fill="#FFD740"/>
<path d="M51.0467 8.9018C51.4037 10.0013 52.8684 13.7503 56.4754 14.7971C56.4754 14.7971 52.1016 16.2821 49.2128 9.29536C49.1397 9.1209 49.2452 8.92209 49.4319 8.88557L50.6328 8.65836C50.8114 8.6259 50.9899 8.72733 51.0467 8.9018Z" fill="#C2A330"/>
<path d="M56.4752 14.7971C56.4752 14.7971 59.9362 13.4663 57.8304 7.64396C57.7655 7.46138 57.5788 7.35183 57.3881 7.38834L56.2683 7.59933C55.9721 7.65613 55.8098 7.97666 55.9397 8.2485C56.6984 9.83493 58.5567 14.4197 54.9375 14.8945C54.9375 14.8945 55.6759 15.0162 56.4793 14.793L56.4752 14.7971Z" fill="#FFD740"/>
<path d="M49.7156 16.0672C49.7156 16.0672 53.1887 14.7324 51.0627 8.89384C51.0018 8.72343 50.8273 8.622 50.6488 8.65446L49.2977 8.91007C49.103 8.94659 48.9975 9.15757 49.0867 9.3361C49.7684 10.7115 51.9472 15.6737 48.1738 16.1687C48.1738 16.1687 48.9123 16.2904 49.7156 16.0672Z" fill="#FFD740"/>
<path d="M30.4129 88.4425C32.2225 87.8014 34.4175 88.0814 36.296 88.1828C38.4302 88.2964 40.2114 87.8136 42.0453 86.7222C42.0453 86.7222 40.2155 90.2561 37.5295 90.812C34.8476 91.3678 32.4537 90.6091 30.5589 91.4977L28.1895 91.0067L28.9279 89.116C28.9279 89.116 30.4048 88.4384 30.4088 88.4384L30.4129 88.4425Z" fill="#4FC9AC"/>
<path d="M20.9804 96.0702C22.6318 95.9323 24.7416 96.0216 26.3848 96.2122C27.5655 96.3502 28.2553 96.2001 29.3386 95.7051C29.2655 95.7375 30.0851 98.1882 30.1744 98.4925C30.1744 98.4925 28.6285 99.3364 26.1211 99.1133C23.6136 98.8901 21.7878 98.314 19.9377 99.308L19.0938 97.1657L20.2014 96.3624L20.9804 96.0743V96.0702Z" fill="#4FC9AC"/>
<path d="M12.6432 104.838C12.6432 104.838 17.439 105.146 20.4658 106.676L20.624 109.553C20.624 109.553 19.4149 110.157 16.8872 109.269C14.3594 108.38 11.9453 107.353 11.9453 107.353L11.9981 104.976L12.6472 104.838H12.6432Z" fill="#4FC9AC"/>
<path d="M6.83959 110.908C6.83959 110.908 8.62483 110.604 12.0655 112.117L10.7022 114.474C10.5764 114.693 10.2883 114.758 10.0855 114.612C9.26183 114.024 7.13984 112.786 4.48633 113.395L5.6305 111.383L6.84365 110.908H6.83959Z" fill="#4FC9AC"/>
<path d="M10.4268 138.133C10.8568 133.248 9.89118 128.249 7.67181 123.879C6.66964 121.903 5.41186 120.053 4.57199 118C3.89035 116.336 3.49679 114.474 3.78486 112.721C3.90253 112.007 4.45838 111.439 5.16436 111.281L6.84005 110.908C6.68993 110.989 6.63313 111.257 6.63313 111.423C6.63313 113.488 6.51952 115.464 7.3107 117.387C8.15058 119.436 9.40836 121.29 10.4105 123.266C12.6299 127.636 13.5996 132.635 13.1655 137.52L10.4268 138.133Z" fill="#64FFDA"/>
<path d="M9.35938 114.142C9.35938 114.142 10.2236 114.775 10.3291 114.43C10.4346 114.089 9.25389 110.713 9.4527 108.388C9.59876 106.684 10.7713 104.879 12.6296 104.834C12.1711 104.952 12.0778 105.556 12.0981 106.027C12.1752 107.991 12.5282 109.946 13.1449 111.813C13.4451 112.717 13.4857 113.314 12.8974 114.101C12.6337 114.45 11.9764 115.188 11.4205 115.298C11.2258 115.338 10.5401 115.038 9.35938 114.142Z" fill="#64FFDA"/>
<path d="M18.1676 109.613C18.1676 109.613 20.8495 110.222 20.4438 108.753C20.0421 107.284 16.4392 100.862 17.4697 98.4151C17.4697 98.4151 18.9628 96.2526 20.9793 96.0659C20.9793 96.0659 19.685 96.6421 20.955 99.4173C22.225 102.193 24.3956 105.763 23.2555 107.236C22.5211 108.189 21.7502 109.179 21.1173 109.532C20.7805 109.719 20.4113 109.828 20.0299 109.861C19.5512 109.897 18.8492 109.881 18.1676 109.613Z" fill="#64FFDA"/>
<path d="M27.9793 99.0888C27.9793 99.0888 29.9877 98.9305 29.7118 98.0014C29.4318 97.0682 28.9165 96.2121 28.5595 95.3113C27.9347 93.7371 26.7864 90.8767 28.312 89.5174C28.8638 89.0265 29.6469 88.6735 30.361 88.5112C30.1054 89.1482 30.0688 89.7487 30.2433 90.4182C30.7221 92.2805 31.639 93.9927 32.134 95.851C32.2558 96.3135 32.3491 96.8045 32.2111 97.2589C31.8176 98.5491 30.1419 98.9508 28.9734 99.0482C28.6447 99.0766 28.3079 99.0644 27.9834 99.0888H27.9793Z" fill="#64FFDA"/>
<path d="M38.4102 90.5155C38.4102 90.5155 48.801 85.1354 42.4269 76.3594L39.4448 78.3799C39.4448 78.3799 46.5005 84.2104 38.4102 90.5155Z" fill="#64FFDA"/>
<path d="M153.79 53.4515C153.924 51.4837 153.112 49.5078 152.544 47.7672C151.903 45.7872 151.899 43.9086 152.439 41.7339C152.439 41.7339 149.643 44.8662 149.806 47.6333C149.968 50.4004 151.274 52.3682 150.93 54.5146L151.98 56.5676L153.538 55.1191L153.79 53.4475V53.4515Z" fill="#A83636"/>
<path d="M149.141 65.4125C148.853 63.7936 148.236 61.8218 147.648 60.3408C147.226 59.2737 147.189 58.5596 147.372 57.3384C147.36 57.4236 144.897 57.6102 144.593 57.6467C144.593 57.6467 144.207 59.4482 145.043 61.7406C145.883 64.033 146.873 65.5383 146.423 67.6846L148.609 67.64L149.072 66.2727L149.141 65.4166V65.4125Z" fill="#A83636"/>
<path d="M143.16 76.7894C143.16 76.7894 141.667 72.3587 139.492 70.0947L136.802 71.0807C136.802 71.0807 136.55 72.4642 138.007 74.5132C139.463 76.5622 141.017 78.4448 141.017 78.4448L143.196 77.4588L143.16 76.7894Z" fill="#A83636"/>
<path d="M139.03 84.6893C139.03 84.6893 138.86 82.8756 136.596 80.21L134.766 82.4375C134.596 82.6444 134.608 82.9406 134.799 83.0785C135.549 83.6263 137.225 85.1559 137.334 87.9108L138.901 86.0323L139.035 84.6933L139.03 84.6893Z" fill="#A83636"/>
<path d="M113.03 92.0368C117.424 89.6998 122.277 88.6408 126.866 89.0222C128.939 89.1926 130.964 89.6552 133.065 89.643C134.769 89.6349 136.587 89.2738 138.129 88.3041C138.758 87.9105 139.139 87.1599 139.107 86.4255L139.03 84.689C138.993 84.8634 138.762 85.0257 138.608 85.0907C136.705 85.9021 134.911 86.7907 132.94 86.8028C130.838 86.815 128.813 86.3565 126.74 86.1821C122.151 85.8007 117.298 86.8597 112.904 89.1967L113.03 92.0368Z" fill="#FF5252"/>
<path d="M135.415 83.5733C135.415 83.5733 134.612 83.0053 134.904 82.7659C135.192 82.5306 138.604 82.3196 140.693 81.2119C142.227 80.4004 143.594 78.5746 143.168 76.7935C143.177 77.2763 142.641 77.6009 142.203 77.7713C140.373 78.4773 138.482 78.9114 136.608 79.0615C135.699 79.1345 135.135 79.3293 134.559 80.2016C134.303 80.5871 133.788 81.504 133.828 82.0761C133.841 82.2749 134.291 82.8105 135.415 83.5733Z" fill="#FF5252"/>
<path d="M137.362 73.4299C137.362 73.4299 136.124 71.1294 137.581 70.9306C139.037 70.7318 145.866 71.6122 147.858 69.6688C147.858 69.6688 149.473 67.4007 149.136 65.4126C149.136 65.4126 148.933 66.8692 146.053 66.7596C143.172 66.6501 139.338 66.0009 138.267 67.6644C137.573 68.7396 136.855 69.8595 136.688 70.602C136.603 70.9955 136.591 71.3891 136.66 71.7624C136.745 72.229 136.94 72.8903 137.358 73.4299H137.362Z" fill="#FF5252"/>
<path d="M144.592 59.9638C144.592 59.9638 144.231 57.996 145.16 57.8905C146.093 57.785 147.01 57.9391 147.931 57.9229C149.542 57.8945 152.467 57.8539 153.331 55.8699C153.644 55.1517 153.773 54.2713 153.741 53.5288C153.218 54.0238 152.674 54.2956 152.013 54.393C150.175 54.673 148.365 54.4823 146.531 54.742C146.077 54.8069 145.598 54.9124 145.212 55.2248C144.121 56.1093 144.174 57.858 144.381 59.0022C144.437 59.3268 144.535 59.6392 144.592 59.9597V59.9638Z" fill="#FF5252"/>
<path d="M149.863 46.6839C149.863 46.6839 152.2 34.6985 161.897 37.283L160.79 40.9063C160.79 40.9063 153.633 36.5162 149.863 46.6839Z" fill="#FF5252"/>
<path d="M44.9313 134.964C44.1807 134.177 43.8318 133.053 43.4545 132.116C43.0284 131.053 42.3712 130.253 41.373 129.523C41.373 129.523 43.6614 129.864 44.5662 131.093C45.471 132.323 45.613 133.617 46.5137 134.404L46.7937 135.641L45.6252 135.577L44.9313 134.956V134.964Z" fill="#A83636"/>
<path d="M51.1151 138.388C50.6688 137.601 50.2346 136.55 49.9628 135.715C49.768 135.114 49.5287 134.798 49.0215 134.347C49.058 134.38 50.1657 133.589 50.3077 133.499C50.3077 133.499 51.107 134.124 51.5573 135.39C52.0077 136.656 52.1172 137.642 53.0667 138.392L52.1254 139.143L51.4478 138.725L51.1151 138.388Z" fill="#A83636"/>
<path d="M57.6549 141.103C57.6549 141.103 56.7258 138.701 56.8516 136.976L58.3365 136.449C58.3365 136.449 58.933 136.948 59.0344 138.327C59.1358 139.707 59.144 141.054 59.144 141.054L57.874 141.403L57.6549 141.107V141.103Z" fill="#A83636"/>
<path d="M62.1868 142.993C62.1868 142.993 61.6228 142.166 61.639 140.238L63.197 140.539C63.3431 140.567 63.4405 140.697 63.408 140.818C63.2822 141.318 63.1118 142.551 64.0369 143.756L62.7102 143.513L62.1827 142.993H62.1868Z" fill="#A83636"/>
<path d="M75.7837 136.948C73.0977 137.504 70.6714 138.766 68.8619 140.543C68.0423 141.346 67.3485 142.255 66.4558 142.989C65.7296 143.586 64.8329 144.073 63.8429 144.207C63.4372 144.259 63.0111 144.077 62.7677 143.756L62.1875 142.993C62.2646 143.054 62.4188 143.042 62.508 143.014C63.5995 142.689 64.6747 142.434 65.5105 141.744C66.4031 141.009 67.101 140.101 67.9165 139.297C69.7261 137.52 72.1524 136.258 74.8383 135.702L75.7837 136.948Z" fill="#FF5252"/>
<path d="M63.3227 141.249C63.3227 141.249 63.4607 140.725 63.2538 140.725C63.0468 140.725 61.5294 141.837 60.2513 142.105C59.3141 142.304 58.0928 142.012 57.6465 141.103C57.8128 141.31 58.1537 141.261 58.4012 141.176C59.4236 140.831 60.3771 140.348 61.2251 139.752C61.6349 139.464 61.9432 139.346 62.495 139.512C62.7385 139.585 63.2781 139.792 63.4647 140.048C63.5297 140.137 63.5256 140.518 63.3227 141.241V141.249Z" fill="#FF5252"/>
<path d="M58.9256 137.638C58.9256 137.638 58.6416 136.226 57.9519 136.656C57.2621 137.086 54.6816 139.861 53.1561 139.743C53.1561 139.743 51.6711 139.35 51.1152 138.392C51.1152 138.392 51.7157 138.936 52.8964 137.877C54.0771 136.818 55.4728 135.191 56.5115 135.516C57.185 135.727 57.8829 135.946 58.2156 136.205C58.3901 136.339 58.5321 136.506 58.6376 136.688C58.7674 136.915 58.9175 137.264 58.9297 137.642L58.9256 137.638Z" fill="#FF5252"/>
<path d="M51.1233 134.481C51.1233 134.481 50.5837 133.52 50.1536 133.804C49.7235 134.088 49.3868 134.473 48.9891 134.794C48.2953 135.349 47.0457 136.364 45.9786 135.828C45.5931 135.633 45.228 135.305 44.9805 134.98C45.3781 135.005 45.7027 134.927 46.0192 134.737C46.8955 134.209 47.5934 133.491 48.4657 132.956C48.6808 132.822 48.9202 132.7 49.1961 132.696C49.971 132.688 50.5634 133.446 50.8799 134.002C50.9691 134.161 51.0381 134.327 51.1274 134.481H51.1233Z" fill="#FF5252"/>
<path d="M44.2135 130.712C44.2135 130.712 39.0038 126.46 35.8066 130.967L37.5513 132.112C37.5513 132.112 39.0363 127.73 44.2135 130.712Z" fill="#FF5252"/>
<path d="M128.236 115.063L129.608 116.353C129.608 116.353 131.105 114.564 134.882 115.704L131.137 114.612L128.861 114.864L128.24 115.063H128.236Z" fill="#4C3272"/>
<path d="M123.692 132.387C123.692 132.387 131.981 125.437 124.033 118C124.033 118 128.249 125.064 121.781 128.281L123.692 132.391V132.387Z" fill="#1C5752"/>
<path d="M128.237 115.062C128.237 115.062 135.426 111.841 136.534 119.55C137.642 127.259 124.175 133.422 124.175 133.422L121.777 128.273C121.777 128.273 131.823 125.652 132.558 119.643C133.292 113.634 128.233 115.058 128.233 115.058L128.237 115.062Z" fill="#339891"/>
<path d="M115.78 122.439C115.78 122.439 118.28 116.19 112.689 112.531C107.098 108.867 108.424 105.235 108.424 105.235L105.978 103.475C105.978 103.475 104.817 109.699 112.108 113.151C112.108 113.151 115.651 115.156 114.19 121.116L115.78 122.443V122.439Z" fill="#1C5752"/>
<path d="M124.033 118C124.033 118 118.92 113.951 114.189 121.112L116.133 122.731C116.133 122.731 119.18 114.494 125.083 119.083C125.083 119.083 124.296 118.215 124.033 117.996V118Z" fill="#339891"/>
<path d="M117.095 111.032C136.994 91.1319 136.994 58.8681 117.095 38.9684C97.195 19.0688 64.9312 19.0688 45.0316 38.9684C25.1319 58.8681 25.1319 91.1319 45.0316 111.032C64.9312 130.931 97.195 130.931 117.095 111.032Z" fill="white"/>
</svg>
