<svg width="24" height="22" viewBox="0 0 24 22" fill="none" xmlns="http://www.w3.org/2000/svg">
<g id="Group">
<g id="Group_2">
<path id="Vector" fill-rule="evenodd" clip-rule="evenodd" d="M14.6431 2.9146L16.0592 1.33608C16.1778 1.20409 16.0973 0.996348 15.9364 0.911404L14.5245 0.156064C14.3649 0.0711197 14.1292 0.110315 14.0656 0.271045L13.2962 2.19455C13.2312 2.35528 13.2595 2.53429 13.419 2.61923L14.1843 3.02954C14.3452 3.11453 14.5259 3.04656 14.6431 2.9146Z" fill="#80D261"/>
</g>
<g id="Group_3">
<path id="Vector_2" fill-rule="evenodd" clip-rule="evenodd" d="M22.5526 3.3275L22.1897 2.38404C22.1459 2.26906 22.129 2.17105 22.1798 2.06783L22.6528 1.11521C22.753 0.929655 22.7305 0.886553 22.5045 0.89046L21.3482 0.911381C21.2169 0.912683 21.1999 0.883949 21.1138 0.806861L20.3204 0.0946229C20.1594 -0.0491356 20.0916 -0.0321207 20.0295 0.166502L19.7274 1.15046C19.6935 1.25763 19.6949 1.29027 19.5805 1.34908L18.5668 1.86656C18.3705 1.96717 18.3733 2.01553 18.5611 2.13051L19.4859 2.73553C19.5847 2.80086 19.6229 2.89496 19.6469 3.01519L19.8431 3.99915C19.877 4.20563 19.9292 4.21869 20.1086 4.09325L20.9571 3.48823C21.0447 3.42551 21.2014 3.38631 21.3115 3.40068L22.3718 3.53137C22.5963 3.55746 22.633 3.52217 22.5526 3.3275Z" fill="#FECE85"/>
</g>
<g id="Group_4">
<path id="Vector_3" fill-rule="evenodd" clip-rule="evenodd" d="M9.82055 9.35672C12.0556 6.68577 11.4767 4.05141 11.0602 2.4807C10.5943 0.724482 7.95686 1.1413 8.49618 2.99949C9.01718 4.79495 9.20496 6.16048 8.67693 8.68637L9.82055 9.35672Z" fill="#FE76A8"/>
</g>
<g id="Group_5">
<path id="Vector_4" fill-rule="evenodd" clip-rule="evenodd" d="M12.5475 11.6226L18.5127 7.03597C18.7062 6.85697 18.7062 6.56425 18.5127 6.38524L16.9596 4.94913C16.7662 4.77013 16.4499 4.77013 16.2565 4.94913L11.3008 10.4688L12.5475 11.6226Z" fill="#FECE85"/>
</g>
<g id="Group_6">
<path id="Vector_5" fill-rule="evenodd" clip-rule="evenodd" d="M20.4935 14.6046C22.4716 15.1965 23.0547 12.7804 21.1825 12.2603C19.5221 11.799 16.7407 11.1378 13.7715 13.013L14.5212 14.1289C17.1742 13.7983 18.6185 14.0427 20.4935 14.6046Z" fill="#FE76A8"/>
</g>
<g id="Group_7">
<path id="Vector_6" fill-rule="evenodd" clip-rule="evenodd" d="M9.82029 9.35674C12.0553 6.68579 11.4764 4.05143 11.0599 2.48072C10.7973 1.48761 9.83725 1.18837 9.15248 1.45362C9.49414 1.62481 9.78358 1.94232 9.91066 2.42191C10.3046 3.90897 10.8453 6.35126 9 8.87585L9.82029 9.35674Z" fill="#FE5694"/>
</g>
<g id="Group_8">
<path id="Vector_7" fill-rule="evenodd" clip-rule="evenodd" d="M12.548 11.6226L18.5133 7.03596C18.7067 6.85695 18.7067 6.56423 18.5133 6.38522L18.2365 6.12909L11.8887 11.0111L12.548 11.6226Z" fill="#FDB440"/>
</g>
<g id="Group_9">
<path id="Vector_8" fill-rule="evenodd" clip-rule="evenodd" d="M20.4884 14.6045C22.4129 15.1808 23.0171 12.9097 21.3257 12.3073C21.3059 12.958 20.7299 13.5592 19.6484 13.3736C17.8242 13.06 16.4165 12.9803 14.0996 13.5095L14.5161 14.1289C17.1691 13.7983 18.6134 14.0427 20.4884 14.6045Z" fill="#FE5694"/>
</g>
<g id="Group_10">
<path id="Vector_9" fill-rule="evenodd" clip-rule="evenodd" d="M3.21434 9.03137L2.94468 6.35257C2.92208 6.13042 2.63972 6.00628 2.40535 6.06509L0.341134 6.57736C0.106767 6.63487 -0.0725713 6.87269 0.0290973 7.07652L1.24331 9.52011C1.34498 9.72394 1.54827 9.8664 1.78263 9.80889L2.90225 9.53057C3.13667 9.47306 3.23693 9.25482 3.21434 9.03137Z" fill="#80D261"/>
</g>
<g id="Group_11">
<path id="Vector_10" fill-rule="evenodd" clip-rule="evenodd" d="M5.23666 3.0099L6.24051 2.35261C6.4438 2.22717 6.44666 2.17491 6.23343 2.06644L5.13359 1.50456C5.00933 1.44053 5.01073 1.40525 4.97403 1.28896L4.64507 0.221365C4.5787 0.00446884 4.5053 -0.0138482 4.33022 0.142975L3.46897 0.915199C3.37438 1.00014 3.35741 1.03148 3.21482 1.02888L1.95824 1.00665C1.71398 1.00145 1.68858 1.04845 1.79868 1.25103L2.3126 2.28464C2.36768 2.39571 2.3493 2.50288 2.30131 2.62832L1.90738 3.65147C1.81982 3.86186 1.86079 3.90105 2.10364 3.87232L3.25434 3.72991C3.37433 3.71554 3.54378 3.75734 3.63978 3.82531L4.55892 4.4826C4.75377 4.6185 4.81026 4.60413 4.84836 4.38068L5.06014 3.31308C5.087 3.18239 5.12792 3.08047 5.23666 3.0099Z" fill="#FECE85"/>
</g>
<g id="Group_12">
<path id="Vector_11" fill-rule="evenodd" clip-rule="evenodd" d="M23.5074 8.96862L23.9959 6.31725C24.0369 6.09641 23.7982 5.90955 23.5554 5.90955H21.4178C21.1763 5.90955 20.9363 6.09641 20.9772 6.31725L21.4672 8.96862C21.5081 9.18947 21.6648 9.37633 21.9077 9.37633H23.0669C23.3083 9.37633 23.4664 9.18947 23.5074 8.96862Z" fill="#80D261"/>
</g>
<g id="Group_13">
<path id="Vector_12" fill-rule="evenodd" clip-rule="evenodd" d="M23.081 18.5849L23.8689 17.708C24.0312 17.5381 24.0185 17.4872 23.7813 17.4323L22.56 17.1527C22.4216 17.1213 22.4132 17.0873 22.3454 16.9828L21.7284 16.0288C21.6042 15.8354 21.528 15.8354 21.4023 16.0288L20.7853 16.9828C20.7175 17.0873 20.709 17.1213 20.5707 17.1527L19.3494 17.4323C19.1122 17.4872 19.1009 17.5382 19.2633 17.708L20.0498 18.5849C20.1345 18.679 20.1458 18.7874 20.1345 18.9194L20.0413 20.004C20.0145 20.2287 20.0653 20.2561 20.2926 20.1712L21.3656 19.757C21.4786 19.7139 21.6537 19.7139 21.7652 19.757L22.8396 20.1712C23.0655 20.2561 23.1164 20.2287 23.091 20.004L22.9964 18.9194C22.985 18.7874 22.9963 18.6789 23.081 18.5849Z" fill="#FECE85"/>
</g>
<g id="Group_14">
<path id="Vector_13" fill-rule="evenodd" clip-rule="evenodd" d="M17.7109 20.0628L15.5267 18.6306C15.3445 18.5104 15.1102 18.4842 14.9521 18.6306L14.1981 19.3284C14.04 19.4748 14.0682 19.6917 14.1981 19.8602L15.7456 21.8818C15.874 22.0503 16.1607 22.0281 16.3188 21.8818L17.7109 20.5933C17.8691 20.4469 17.8931 20.1817 17.7109 20.0628Z" fill="#80D261"/>
</g>
<g id="Group_15">
<path id="Vector_14" fill-rule="evenodd" clip-rule="evenodd" d="M14.5208 12.587C14.1424 12.0904 13.7062 11.586 13.236 11.0947C13.0312 10.8804 12.8195 10.6687 12.6035 10.4609C12.6006 10.457 12.5964 10.4531 12.5922 10.4505C12.3564 10.2388 12.1164 10.0336 11.8721 9.83368C11.361 9.41682 10.8386 9.03003 10.3218 8.6903C10.3204 8.6903 10.3204 8.6903 10.3204 8.6903C10.0296 8.49823 9.74155 8.32309 9.45919 8.16631C9.24601 8.04738 9.03704 7.94026 8.8323 7.84355C7.37805 7.16143 6.15817 7.07519 5.70495 8.08527C5.69506 8.1062 5.61598 8.30482 5.55528 8.42766L5.09498 9.6246L4.32129 11.637L3.20167 14.5497L2.32204 16.8417L1.34074 19.3924C1.0993 20.0223 1.17275 20.4914 1.48474 20.7305C1.74311 21.0193 2.25 21.0873 2.93051 20.8638L5.68653 19.9556L8.16299 19.1415L11.3101 18.1053L13.4844 17.3892L14.7777 16.9632C14.9104 16.907 15.1251 16.8339 15.1477 16.8247C16.2108 16.417 16.1501 15.3324 15.4625 14.0309C15.3411 13.7996 15.1985 13.5618 15.0404 13.3188C14.8837 13.0784 14.71 12.834 14.5222 12.5883C14.5208 12.5883 14.5208 12.587 14.5208 12.587Z" fill="#80D261"/>
</g>
<g id="Group_16">
<path id="Vector_15" fill-rule="evenodd" clip-rule="evenodd" d="M13.2377 11.0947C13.033 10.8804 12.8212 10.6687 12.6052 10.4609C12.6024 10.457 12.5981 10.4531 12.5939 10.4504C12.3581 10.2388 12.1181 10.0336 11.8738 9.83366C11.8597 9.8232 11.847 9.81144 11.8329 9.80098C11.35 9.40894 10.8558 9.04307 10.3673 8.71901C10.3532 8.70985 10.3376 8.69939 10.3235 8.69028C10.3221 8.69028 10.3221 8.69028 10.3221 8.69028C10.0313 8.49821 9.74323 8.32307 9.46086 8.16498C9.2519 8.05 9.04294 7.94153 8.83398 7.84352C8.23536 7.56256 7.6748 7.38356 7.19336 7.33911C7.72284 7.62789 8.25087 7.97027 8.74928 8.33092C8.89046 8.43284 9.03024 8.5361 9.1658 8.64062C9.34654 8.77782 9.52016 8.91633 9.6882 9.05354C9.76446 9.11495 9.83927 9.17767 9.91554 9.24039V9.2417C10.0821 9.38151 10.2474 9.52396 10.4083 9.66898L10.421 9.67944C11.1086 10.3393 11.7863 11.0829 12.3383 11.8068C12.6786 12.2485 13.0316 12.7803 13.2787 13.2494C13.9663 14.5522 14.027 15.6355 12.9638 16.0445C12.9596 16.0458 12.9469 16.0497 12.9299 16.0562C13.1996 16.5332 13.393 16.984 13.4862 17.3891L14.7795 16.9631C14.9122 16.9069 15.1268 16.8338 15.1494 16.8246C16.2126 16.4169 16.1519 15.3323 15.4643 14.0308C15.4601 14.0217 15.4558 14.0139 15.4502 14.0047C15.333 13.7838 15.1932 13.5499 15.0421 13.3187C15.0294 13.2991 15.0153 13.2795 15.0026 13.2586C15.0026 13.2586 15.0012 13.2573 15.0012 13.256C14.8473 13.0233 14.6836 12.796 14.524 12.5882C14.5226 12.5882 14.5226 12.5869 14.5226 12.5869C14.1739 12.1282 13.7757 11.6644 13.3479 11.2096C13.3111 11.1705 13.2744 11.1326 13.2377 11.0947Z" fill="#4FC122"/>
</g>
<g id="Group_17">
<path id="Vector_16" fill-rule="evenodd" clip-rule="evenodd" d="M13.4816 17.3892C13.1794 16.0695 11.8071 14.257 10.1707 12.6889C8.47637 11.1744 6.51809 9.90429 5.09205 9.62463L4.31836 11.637C5.57776 12.1701 7.04616 13.1959 8.35778 14.3668C9.62285 15.5807 10.7312 16.9397 11.3072 18.1053L13.4816 17.3892Z" fill="#FECE85"/>
</g>
<g id="Group_18">
<path id="Vector_17" fill-rule="evenodd" clip-rule="evenodd" d="M8.16158 19.1415L11.3087 18.1053C11.1125 17.7068 10.8527 17.286 10.5463 16.8561L7.22266 17.9498C7.56718 18.3484 7.88484 18.7482 8.16158 19.1415Z" fill="#4FC122"/>
</g>
<g id="Group_19">
<path id="Vector_18" fill-rule="evenodd" clip-rule="evenodd" d="M13.4836 17.3892C13.3905 16.9841 13.197 16.5333 12.9273 16.0563C12.8553 16.0812 12.6972 16.1374 12.5913 16.1831L10.5469 16.856C10.8532 17.286 11.1131 17.7067 11.3093 18.1053L13.4836 17.3892Z" fill="#FDB440"/>
</g>
<g id="Group_20">
<path id="Vector_19" fill-rule="evenodd" clip-rule="evenodd" d="M8.16722 19.1415C7.57281 18.2987 6.79486 17.4193 5.94631 16.6052C5.06668 15.8199 4.11651 15.0998 3.2058 14.5497L2.32617 16.8417C2.93754 17.2742 3.55027 17.7642 4.13197 18.2843C4.69389 18.8227 5.22338 19.3898 5.6907 19.9556L8.16722 19.1415Z" fill="#FECE85"/>
</g>
<g id="Group_21">
<path id="Vector_20" fill-rule="evenodd" clip-rule="evenodd" d="M5.68542 19.9556C5.3649 19.5675 5.01475 19.1781 4.64487 18.7979L1.20267 19.9308C1.16597 20.2914 1.26764 20.5658 1.48363 20.7305C1.742 21.0192 2.24889 21.0872 2.9294 20.8638L5.68542 19.9556Z" fill="#4FC122"/>
</g>
<g id="Group_22">
<path id="Vector_21" fill-rule="evenodd" clip-rule="evenodd" d="M8.16354 19.1415C7.8868 18.7482 7.56914 18.3483 7.22462 17.9498L4.64648 18.7978C5.01641 19.1781 5.36656 19.5675 5.68703 19.9556L8.16354 19.1415Z" fill="#FDB440"/>
</g>
<g id="Group_23">
<path id="Vector_22" fill-rule="evenodd" clip-rule="evenodd" d="M5.23745 3.0099L6.2413 2.35261C6.44459 2.22717 6.44744 2.17491 6.23422 2.06644L5.13438 1.50456C5.01012 1.44053 5.01152 1.40525 4.97482 1.28896L4.64586 0.221365C4.57949 0.00446884 4.50609 -0.0138482 4.33101 0.142975L3.9512 0.484011C4.10508 0.946582 4.18983 1.4562 4.18983 1.99065C4.18983 2.6976 4.04157 3.36009 3.7832 3.92723L4.55976 4.4826C4.75461 4.6185 4.81109 4.60413 4.8492 4.38068L5.06097 3.31308C5.08779 3.18239 5.12871 3.08047 5.23745 3.0099Z" fill="#FDB440"/>
</g>
<g id="Group_24">
<path id="Vector_23" fill-rule="evenodd" clip-rule="evenodd" d="M3.21162 9.03137L2.94196 6.35257C2.91937 6.13042 2.637 6.00628 2.40264 6.06509L1.92823 6.18268C1.98045 6.46624 2.0073 6.76288 2.0073 7.06732C2.0073 8.0317 1.73197 8.91244 1.27734 9.58409C1.38604 9.75268 1.57101 9.8598 1.77997 9.80885L2.89959 9.53053C3.13396 9.47306 3.23422 9.25482 3.21162 9.03137Z" fill="#4FC122"/>
</g>
<g id="Group_25">
<path id="Vector_24" fill-rule="evenodd" clip-rule="evenodd" d="M16.059 1.33604C16.1776 1.20404 16.0971 0.996305 15.9361 0.91136L14.5242 0.156064C14.4395 0.111617 14.3365 0.1012 14.2461 0.124682C14.4198 0.610778 14.5158 1.15178 14.5158 1.72282C14.5158 2.19585 14.4494 2.64931 14.328 3.06743C14.4452 3.06874 14.5595 3.00862 14.6428 2.91456L16.059 1.33604Z" fill="#4FC122"/>
</g>
<g id="Group_26">
<path id="Vector_25" fill-rule="evenodd" clip-rule="evenodd" d="M22.1904 2.38405C22.1466 2.26907 22.1297 2.17106 22.1805 2.06784L22.6535 1.11522C22.7538 0.929663 22.7312 0.886562 22.5052 0.890468L21.3489 0.91139C21.2176 0.912692 21.2006 0.883958 21.1145 0.80687L20.6797 0.41748C20.7447 0.731084 20.7785 1.0604 20.7785 1.40013C20.7785 2.47429 20.4354 3.44518 19.8848 4.13775C19.9229 4.20047 19.9864 4.17955 20.1092 4.0933L20.9578 3.48828C21.0454 3.42556 21.2021 3.38636 21.3122 3.40073L22.3725 3.53142C22.597 3.55755 22.6337 3.52226 22.5532 3.32759L22.1904 2.38405Z" fill="#FDB440"/>
</g>
<g id="Group_27">
<path id="Vector_26" fill-rule="evenodd" clip-rule="evenodd" d="M23.5049 8.96862L23.9934 6.31725C24.0343 6.09641 23.7957 5.90955 23.5529 5.90955H22.6224C22.6393 6.07418 22.6478 6.24277 22.6478 6.41396C22.6478 7.55995 22.2581 8.58705 21.6426 9.28613C21.7132 9.34234 21.8007 9.37629 21.9052 9.37629H23.0644C23.3057 9.37633 23.4639 9.18947 23.5049 8.96862Z" fill="#4FC122"/>
</g>
<g id="Group_28">
<path id="Vector_27" fill-rule="evenodd" clip-rule="evenodd" d="M16.3229 21.8817L17.715 20.5933C17.8732 20.4469 17.8972 20.1817 17.715 20.0627L15.6184 18.688C15.7412 19.1075 15.8076 19.5609 15.8076 20.0353C15.8076 20.5985 15.713 21.1329 15.5449 21.6138L15.7497 21.8817C15.8781 22.0503 16.1647 22.0281 16.3229 21.8817Z" fill="#4FC122"/>
</g>
<g id="Group_29">
<path id="Vector_28" fill-rule="evenodd" clip-rule="evenodd" d="M23.0806 18.5849L23.8685 17.708C24.0309 17.5381 24.0182 17.4872 23.7809 17.4323L22.5596 17.1527C22.4213 17.1213 22.4128 17.0873 22.3451 16.9828L21.7281 16.0288C21.6038 15.8354 21.5276 15.8354 21.4019 16.0288L21.2042 16.3346C21.3991 16.8443 21.5078 17.4179 21.5078 18.0255C21.5078 18.6815 21.3807 19.2996 21.1562 19.838L21.3652 19.7569C21.4782 19.7138 21.6532 19.7138 21.7648 19.7569L22.8392 20.1712C23.0651 20.2561 23.1159 20.2287 23.0905 20.0039L22.9959 18.9193C22.9846 18.7874 22.9959 18.6789 23.0806 18.5849Z" fill="#FDB440"/>
</g>
</g>
</svg>
