<svg width="28" height="24" viewBox="0 0 28 24" fill="none" xmlns="http://www.w3.org/2000/svg">
<path d="M27.3823 9.31902V23.1968C27.3823 23.8497 26.6427 24.2273 26.1143 23.8498L21.7037 20.7035C21.3336 20.4399 20.8982 20.3003 20.4437 20.3003H10.7427C9.03505 20.3003 7.64615 18.9109 7.64615 17.2032V7.02414C7.64615 6.58132 8.00554 6.22192 8.44837 6.22192H24.2857C25.9934 6.22192 27.3823 7.61136 27.3823 9.31902Z" fill="#FFA81C"/>
<path d="M27.3824 9.31902V23.1968C27.3824 23.8497 26.6428 24.2273 26.1144 23.8498L21.7038 20.7035C21.3337 20.4399 20.8983 20.3003 20.4438 20.3003H13.6912V6.22192H24.2858C25.9935 6.22192 27.3824 7.61136 27.3824 9.31902Z" fill="#FFD306"/>
<path d="M19.7361 0.802217V10.9813C19.7361 12.6889 18.3467 14.0778 16.6396 14.0778H6.93864C6.48459 14.0778 6.04872 14.2174 5.67863 14.4816L1.26804 17.6279C0.738949 18.0058 0 17.6272 0 16.9749V3.09656C0 1.38891 1.38891 0 3.09656 0H18.9339C19.3768 0 19.7361 0.359393 19.7361 0.802217Z" fill="#25AC10"/>
<path d="M19.7362 0.802217V10.9813C19.7362 12.6889 18.3468 14.0778 16.6396 14.0778H13.6912V0H18.934C19.3768 0 19.7362 0.359393 19.7362 0.802217Z" fill="#148C00"/>
<path d="M15.8395 5.17209C15.8395 5.61545 15.4801 5.97431 15.0373 5.97431H5.7685C5.32567 5.97431 4.96628 5.61545 4.96628 5.17209C4.96628 4.72927 5.32567 4.36987 5.7685 4.36987H15.0373C15.4801 4.36987 15.8395 4.72927 15.8395 5.17209Z" fill="#F0F7FF"/>
<path d="M15.8395 8.91599C15.8395 9.35935 15.4801 9.7182 15.0373 9.7182H5.7685C5.32567 9.7182 4.96628 9.35935 4.96628 8.91599C4.96628 8.47316 5.32567 8.11377 5.7685 8.11377H15.0373C15.4801 8.11377 15.8395 8.47316 15.8395 8.91599Z" fill="#F0F7FF"/>
<path d="M15.8397 8.91599C15.8397 9.35935 15.4804 9.7182 15.0375 9.7182H13.6914V8.11377H15.0375C15.4804 8.11377 15.8397 8.47316 15.8397 8.91599Z" fill="#DFE7F4"/>
<path d="M15.0373 5.97431H13.6912V4.36987H15.0373C15.4802 4.36987 15.8396 4.72927 15.8396 5.17209C15.8396 5.61545 15.4802 5.97431 15.0373 5.97431Z" fill="#DFE7F4"/>
</svg>
