<svg width="15" height="17" viewBox="0 0 15 17" fill="none" xmlns="http://www.w3.org/2000/svg">
<path id="Vector" d="M12.9886 0H5.35326C4.24417 0 3.34181 0.844061 3.34181 1.8815V2.11242H2.01145C0.90236 2.11242 0 2.95648 0 3.99392V15.1185C0 16.1559 0.90236 17 2.01145 17H9.64682C10.7559 17 11.6582 16.1559 11.6582 15.1185V14.8876H12.9885C14.0976 14.8876 15 14.0435 15 13.0061V1.8815C15.0001 0.844061 14.0977 0 12.9886 0ZM10.3608 15.1185C10.3608 15.4867 10.0405 15.7863 9.64691 15.7863H2.01145C1.61779 15.7863 1.29749 15.4867 1.29749 15.1185V3.99384C1.29749 3.62561 1.61779 3.326 2.01145 3.326H9.64682C10.0405 3.326 10.3607 3.62561 10.3607 3.99384V15.1185H10.3608ZM13.7026 13.0061C13.7026 13.3743 13.3823 13.6739 12.9886 13.6739H11.6583V3.99384C11.6583 2.9564 10.7559 2.11234 9.64691 2.11234H4.6393V1.88142C4.6393 1.51319 4.9596 1.21358 5.35326 1.21358H12.9886C13.3823 1.21358 13.7026 1.51319 13.7026 1.88142V13.0061Z" fill="white"/>
</svg>
