<svg width="26" height="18" viewBox="0 0 26 18" fill="none" xmlns="http://www.w3.org/2000/svg">
<g id="Group 37040">
<path id="Vector" d="M24.375 0H8.9375C8.72138 0 8.515 0.0867271 8.36225 0.238909L7.3125 1.29764L6.26275 0.238909C6.11 0.0867271 5.90363 0 5.6875 0H1.625C0.729625 0 0 0.734727 0 1.63636V16.3636C0 17.2669 0.729625 18 1.625 18H5.6875C5.90363 18 6.11 17.9133 6.26275 17.7611L7.3125 16.7024L8.36225 17.7595C8.515 17.9133 8.72138 18 8.9375 18H24.375C25.272 18 26 17.2669 26 16.3636V1.63636C26 0.734727 25.272 0 24.375 0Z" fill="#4CAF50"/>
<g id="Group">
<path id="Vector_2" d="M13.8145 8.18155C12.4706 8.18155 11.377 7.08028 11.377 5.72701C11.377 4.37373 12.4706 3.27246 13.8145 3.27246C15.1583 3.27246 16.252 4.37373 16.252 5.72701C16.252 7.08028 15.1583 8.18155 13.8145 8.18155ZM13.8145 4.90882C13.366 4.90882 13.002 5.27537 13.002 5.72701C13.002 6.17864 13.366 6.54519 13.8145 6.54519C14.263 6.54519 14.627 6.17864 14.627 5.72701C14.627 5.27537 14.263 4.90882 13.8145 4.90882Z" fill="#FAFAFA"/>
<path id="Vector_3" d="M18.6895 14.7277C17.3456 14.7277 16.252 13.6264 16.252 12.2731C16.252 10.9199 17.3456 9.8186 18.6895 9.8186C20.0333 9.8186 21.127 10.9199 21.127 12.2731C21.127 13.6264 20.0333 14.7277 18.6895 14.7277ZM18.6895 11.455C18.2426 11.455 17.877 11.8231 17.877 12.2731C17.877 12.7231 18.2426 13.0913 18.6895 13.0913C19.1363 13.0913 19.502 12.7231 19.502 12.2731C19.502 11.8231 19.1363 11.455 18.6895 11.455Z" fill="#FAFAFA"/>
<path id="Vector_4" d="M12.1894 14.7271C12.0058 14.7271 11.8221 14.6649 11.6694 14.5373C11.3249 14.2476 11.2778 13.7322 11.5654 13.3853L19.6904 3.56709C19.9796 3.21854 20.4915 3.176 20.8344 3.46236C21.1789 3.752 21.2244 4.26745 20.9368 4.616L12.8118 14.4342C12.6525 14.6256 12.4218 14.7271 12.1894 14.7271Z" fill="#FAFAFA"/>
<path id="Vector_5" d="M8.12695 3.27246H6.50195V4.90882H8.12695V3.27246Z" fill="#FAFAFA"/>
<path id="Vector_6" d="M8.12695 13.0918H6.50195V14.7282H8.12695V13.0918Z" fill="#FAFAFA"/>
<path id="Vector_7" d="M8.12695 9.8186H6.50195V11.455H8.12695V9.8186Z" fill="#FAFAFA"/>
<path id="Vector_8" d="M8.12695 6.5459H6.50195V8.18226H8.12695V6.5459Z" fill="#FAFAFA"/>
</g>
</g>
</svg>
