<svg width="30" height="28" viewBox="0 0 30 28" fill="none" xmlns="http://www.w3.org/2000/svg">
<path d="M0.460114 12.384C0.0126894 12.651 -0.132066 13.2384 0.131125 13.6923L5.44758 22.7437C5.71077 23.1976 6.28979 23.3444 6.73722 23.0774L20.7653 14.6001L14.4882 3.90671L0.460114 12.384Z" fill="#FFD306"/>
<path d="M20.7259 0.142012L14.4883 3.90674L20.7654 14.6002L27.003 10.8354C27.4504 10.5684 27.5952 9.98103 27.332 9.52713L22.0155 0.475764C21.7392 0.00851104 21.1602 -0.13834 20.7259 0.142012Z" fill="#25AC10"/>
<path d="M19.2383 8.20547C19.0409 8.20547 18.8567 8.13872 18.6988 8.01857C18.5409 7.89842 18.383 7.72487 18.2514 7.51126C18.1198 7.29766 18.054 7.08406 18.0277 6.87046C18.0013 6.65686 18.0408 6.46996 18.1198 6.29641C18.2119 6.12286 18.3435 5.976 18.5409 5.85585C18.7383 5.7357 18.9488 5.66895 19.1462 5.6823C19.3436 5.6823 19.5278 5.74905 19.6989 5.8692C19.87 5.98935 20.0147 6.16291 20.1463 6.37651C20.2779 6.59011 20.3437 6.81706 20.3701 7.01731C20.3964 7.23091 20.3569 7.41781 20.2648 7.59137C20.1727 7.76492 20.0279 7.91177 19.8305 8.03192C19.6331 8.15207 19.4357 8.21882 19.2383 8.20547ZM19.1857 7.45786C19.291 7.52461 19.3962 7.52461 19.5015 7.47121C19.6068 7.40446 19.6594 7.31101 19.6594 7.19086C19.6594 7.07071 19.6068 6.92386 19.5147 6.76366C19.4226 6.60346 19.3173 6.48331 19.212 6.42991C19.1067 6.36316 19.0015 6.36316 18.883 6.42991C18.7909 6.48331 18.7383 6.57676 18.7383 6.71026C18.7383 6.84376 18.7909 6.97726 18.883 7.13746C18.9751 7.28431 19.0804 7.39111 19.1857 7.45786ZM20.9622 4.641L21.6597 4.22714L21.3175 9.62058L20.6201 10.0344L20.9622 4.641ZM21.9229 7.23091C21.8966 7.01731 21.936 6.83041 22.0282 6.64351C22.1203 6.46996 22.2519 6.32311 22.4493 6.20296C22.6467 6.0828 22.8572 6.01605 23.0414 6.0294C23.2388 6.0294 23.4231 6.09615 23.5941 6.21631C23.7652 6.33646 23.91 6.51001 24.0416 6.72361C24.1732 6.93721 24.239 7.15081 24.2653 7.36441C24.2916 7.57802 24.2521 7.76492 24.16 7.93847C24.0679 8.11202 23.9231 8.25887 23.7257 8.37902C23.5283 8.49917 23.331 8.55257 23.1336 8.55257C22.9362 8.55257 22.7519 8.48582 22.5809 8.36567C22.4098 8.24552 22.265 8.07197 22.1334 7.85837C22.015 7.65812 21.936 7.44451 21.9229 7.23091ZM23.0809 7.81832C23.1862 7.88507 23.2915 7.88507 23.3836 7.83167C23.4889 7.76492 23.5415 7.67147 23.5415 7.55131C23.5415 7.43116 23.4889 7.28431 23.3967 7.12411C23.3046 6.96391 23.1994 6.84376 23.0941 6.79036C22.9888 6.72361 22.8835 6.73696 22.7783 6.79036C22.6861 6.84376 22.6335 6.93721 22.6335 7.07071C22.6335 7.20421 22.6861 7.33771 22.7783 7.49792C22.8704 7.65812 22.9756 7.76492 23.0809 7.81832Z" fill="#FFD306"/>
<path d="M9.09354 10.9689L3.3165 14.4666C2.98751 14.6669 2.55325 14.5601 2.36901 14.2263C2.17162 13.8926 2.27689 13.452 2.60588 13.2651L8.38293 9.76742C8.71192 9.56717 9.14618 9.67397 9.33041 10.0077C9.52781 10.3281 9.42253 10.7687 9.09354 10.9689Z" fill="#25AC10"/>
<path d="M6.47332 15.0273L4.38095 16.2956C4.05196 16.4959 3.6177 16.3891 3.43346 16.0553C3.23607 15.7215 3.34135 15.281 3.67034 15.0941L5.76271 13.8258C6.09169 13.6256 6.52596 13.7324 6.71019 14.0661C6.92075 14.3999 6.80231 14.8404 6.47332 15.0273Z" fill="#25AC10"/>
<path d="M10.3568 17.2702L6.17204 19.7934C5.94833 19.9269 5.65882 19.8468 5.52723 19.6332C5.39563 19.4062 5.47459 19.1125 5.68514 18.979L9.86988 16.4558C10.0936 16.3223 10.3831 16.4024 10.5147 16.616C10.6463 16.843 10.5805 17.1367 10.3568 17.2702Z" fill="#F4D5BE"/>
<path d="M14.3046 16.7362L6.97478 21.1684C6.75107 21.3019 6.46156 21.2218 6.32996 21.0082C6.19837 20.7813 6.27732 20.4876 6.48788 20.3541L13.8177 15.9218C14.0415 15.7883 14.331 15.8684 14.4626 16.082C14.5942 16.309 14.5284 16.6027 14.3046 16.7362Z" fill="#F4D5BE"/>
<path opacity="0.05" d="M20.7258 0.142012L14.4882 3.90674L0.460114 12.384C0.0126894 12.651 -0.132066 13.2385 0.131125 13.6924L5.44758 22.7437C5.71077 23.1976 6.28979 23.3445 6.73722 23.0775L20.7653 14.6002L27.0029 10.8354C27.4504 10.5684 27.5951 9.98103 27.3319 9.52713L22.0155 0.475764C21.7391 0.00851105 21.1601 -0.13834 20.7258 0.142012Z" fill="black"/>
<path d="M1.3941 14.2264C0.828244 14.2932 0.407138 14.8272 0.486095 15.4012L1.84153 27.0692C1.90733 27.6432 2.43371 28.0704 2.99957 27.9903L21.0545 25.8276L19.449 12.0637L1.3941 14.2264Z" fill="#FFD306"/>
<path d="M27.4765 11.1025L19.4492 12.0637L21.0547 25.8276L29.082 24.8664C29.6479 24.7996 30.069 24.2656 29.99 23.6916L28.6346 12.037C28.5688 11.4496 28.0556 11.0357 27.4765 11.1025Z" fill="#25AC10"/>
<path d="M22.3703 18.6319C22.1729 18.5384 22.015 18.3916 21.8966 18.1913C21.7781 17.9911 21.6992 17.7508 21.6729 17.4704C21.6465 17.1901 21.6597 16.9364 21.7255 16.7095C21.7913 16.4825 21.9229 16.309 22.0808 16.1621C22.2519 16.0286 22.4624 15.9352 22.7125 15.9085C22.9757 15.8818 23.1994 15.9085 23.3968 16.0019C23.5942 16.0954 23.7521 16.2422 23.8705 16.4425C23.9889 16.6427 24.0679 16.883 24.1074 17.1634C24.1337 17.4437 24.1205 17.6974 24.0416 17.9243C23.9758 18.1513 23.8442 18.3248 23.6731 18.4717C23.502 18.6052 23.2915 18.6986 23.0283 18.7253C22.7914 18.7654 22.5677 18.7253 22.3703 18.6319ZM22.6467 17.8442C22.7256 17.9644 22.8309 18.0178 22.9493 18.0044C23.0809 17.9911 23.1731 17.911 23.2257 17.7775C23.2783 17.644 23.3046 17.4838 23.2783 17.2702C23.252 17.0566 23.1994 16.8964 23.1204 16.7896C23.0415 16.6694 22.923 16.6294 22.7914 16.6427C22.673 16.6561 22.5809 16.7362 22.5282 16.8563C22.4756 16.9765 22.4624 17.15 22.4756 17.3503C22.5151 17.5639 22.5677 17.7241 22.6467 17.8442ZM25.7128 15.7883L26.6077 15.6815L23.8442 21.0082L22.9493 21.115L25.7128 15.7883ZM25.5286 18.8722C25.5944 18.6452 25.726 18.4717 25.8839 18.3248C26.055 18.1913 26.2655 18.0979 26.5156 18.0712C26.7788 18.0445 27.0025 18.0712 27.1999 18.1646C27.3973 18.2581 27.5552 18.4049 27.6736 18.6052C27.7921 18.8054 27.871 19.0457 27.8973 19.3261C27.9237 19.6064 27.9105 19.8601 27.8447 20.087C27.7789 20.314 27.6605 20.4876 27.4894 20.6211C27.3183 20.7546 27.1078 20.848 26.8446 20.8747C26.5814 20.9014 26.3577 20.8747 26.1603 20.7813C25.9629 20.6878 25.805 20.541 25.6865 20.3407C25.5681 20.1404 25.4891 19.9001 25.4628 19.6198C25.4365 19.3528 25.4497 19.0991 25.5286 18.8722ZM26.4498 20.0069C26.5287 20.1137 26.634 20.1671 26.7525 20.1538C26.884 20.1404 26.9762 20.0603 27.0288 19.9402C27.0814 19.82 27.0946 19.6465 27.0814 19.4329C27.0551 19.2193 27.0025 19.0591 26.9235 18.9523C26.8446 18.8455 26.7393 18.7921 26.5945 18.8054C26.4629 18.8188 26.384 18.8855 26.3313 19.019C26.2787 19.1525 26.2655 19.3261 26.2787 19.5263C26.305 19.7399 26.3577 19.9001 26.4498 20.0069Z" fill="#FFD306"/>
<path d="M10.8043 16.7629L3.36913 17.6573C2.94802 17.7107 2.55323 17.4037 2.51376 16.9631C2.46112 16.5359 2.76379 16.1354 3.19805 16.0953L10.6332 15.2009C11.0543 15.1475 11.4491 15.4545 11.4886 15.8951C11.5412 16.3223 11.2385 16.7228 10.8043 16.7629Z" fill="#25AC10"/>
<path d="M6.32906 19.6999L3.64452 20.0203C3.22341 20.0737 2.82862 19.7666 2.78915 19.3261C2.73651 18.8989 3.03918 18.4984 3.47344 18.4583L6.15799 18.1379C6.5791 18.0845 6.97388 18.3916 7.01336 18.8321C7.066 19.2593 6.76333 19.6465 6.32906 19.6999Z" fill="#25AC10"/>
<path d="M9.27659 23.7583L3.89434 24.4125C3.60483 24.4525 3.3548 24.2389 3.31532 23.9586C3.27584 23.6649 3.48639 23.4112 3.76274 23.3712L9.145 22.7304C9.43451 22.6903 9.68454 22.9039 9.72402 23.1843C9.7635 23.4646 9.5661 23.7316 9.27659 23.7583Z" fill="#25AC10"/>
<path d="M13.527 25.0266L4.0916 26.1613C3.80209 26.2014 3.55206 25.9878 3.51258 25.7074C3.4731 25.4137 3.68366 25.1601 3.96001 25.12L13.3954 23.9853C13.6849 23.9452 13.9349 24.1588 13.9744 24.4392C14.0271 24.7329 13.8165 24.9999 13.527 25.0266Z" fill="#25AC10"/>
</svg>
