<svg width="40" height="40" viewBox="0 0 40 40" fill="none" xmlns="http://www.w3.org/2000/svg">
<g id="coupon (2) 1" clip-path="url(#clip0_479_3113)">
<path id="Vector" d="M40 20C40 25.5976 37.7004 30.6571 33.9951 34.2881C30.3877 37.8213 25.449 40 20 40C13.907 40 8.44977 37.2751 4.78125 32.9771C1.8 29.4849 0 24.9519 0 20C0 15.5984 1.42203 11.5282 3.83188 8.22531C4.31187 7.56656 4.83187 6.93875 5.38781 6.34453C9.03758 2.44 14.2334 0 20 0C22.44 0 24.778 0.436719 26.9396 1.23758C29.1159 2.04164 31.1135 3.21469 32.858 4.68086C37.2245 8.34937 40 13.8506 40 20Z" fill="#FFE261"/>
<path id="Vector_2" d="M33.9948 34.2881C30.3875 37.8213 25.4487 40 19.9997 40C13.9067 40 8.44949 37.2751 4.78098 32.9771C5.2202 27.7837 5.25691 22.5632 4.89199 17.3648C4.6773 14.3077 4.32387 11.2579 3.8316 8.22523C3.68301 7.30687 3.52137 6.39016 3.34668 5.47586L5.38746 6.34445L6.04457 6.62367L8.13113 4.56328L10.8291 5.71102L12.9148 3.65062L15.6128 4.79836L17.6985 2.73875L20.3964 3.8857L22.483 1.82531H22.4838L25.1818 2.97305L26.9393 1.2375L27.2683 0.912578L29.9671 2.06031L32.0536 0C32.3507 1.55672 32.6186 3.11672 32.8577 4.68078C33.3271 7.74039 33.6863 10.8122 33.9369 13.8914C34.4879 20.6784 34.5075 27.4988 33.9948 34.2881Z" fill="#F2F2F7"/>
<path id="Vector_3" d="M33.9369 13.8914L4.89199 17.3648C4.6773 14.3077 4.32387 11.2579 3.8316 8.22523C3.68301 7.30687 3.52137 6.39016 3.34668 5.47586L5.38746 6.34445L6.04457 6.62367L8.13113 4.56328L10.8291 5.71102L12.9148 3.65062L15.6128 4.79836L17.6985 2.73875L20.3964 3.8857L22.483 1.82531H22.4838L25.1818 2.97305L26.9393 1.2375L27.2683 0.912578L29.9671 2.06031L32.0537 0C32.3508 1.55672 32.6186 3.11672 32.8578 4.68078C33.3271 7.74039 33.6864 10.8123 33.9369 13.8914Z" fill="#25AC10"/>
<path id="Vector_4" d="M12.2256 26.9565V23.9478C12.2256 21.8502 13.6029 21.0874 15.4038 21.0874C17.1836 21.0874 18.5821 21.8503 18.5821 23.9478V26.9565C18.5821 29.0541 17.1836 29.8169 15.4038 29.8169C13.6029 29.8168 12.2256 29.0541 12.2256 26.9565ZM16.4633 23.9477C16.4633 23.2485 16.0607 22.9308 15.4038 22.9308C14.747 22.9308 14.3657 23.2486 14.3657 23.9477V26.9564C14.3657 27.6557 14.747 27.9734 15.4038 27.9734C16.0607 27.9734 16.4633 27.6556 16.4633 26.9564V23.9477ZM25.1503 21.3417C25.1503 21.4688 25.1291 21.6171 25.0656 21.7442L17.6074 37.0207C17.459 37.3385 17.0564 37.5504 16.654 37.5504C15.9336 37.5504 15.4675 36.9571 15.4675 36.4274C15.4675 36.3002 15.5098 36.152 15.5734 36.0249L23.0103 20.7484C23.1797 20.3882 23.5188 20.2188 23.9001 20.2188C24.4935 20.2187 25.1503 20.6637 25.1503 21.3417ZM21.951 33.7791V30.7704C21.951 28.6727 23.3282 27.91 25.1292 27.91C26.909 27.91 28.3074 28.6728 28.3074 30.7704V33.7791C28.3074 35.8767 26.909 36.6395 25.1292 36.6395C23.3281 36.6394 21.951 35.8766 21.951 33.7791ZM26.1885 30.7703C26.1885 30.0711 25.7859 29.7533 25.129 29.7533C24.4722 29.7533 24.0908 30.0712 24.0908 30.7703V33.779C24.0908 34.4782 24.4723 34.7959 25.129 34.7959C25.7857 34.7959 26.1885 34.4781 26.1885 33.779V30.7703Z" fill="#374266"/>
</g>
<defs>
<clipPath id="clip0_479_3113">
<rect width="40" height="40" fill="white"/>
</clipPath>
</defs>
</svg>
