<svg width="56" height="56" viewBox="0 0 56 56" fill="none" xmlns="http://www.w3.org/2000/svg">
<rect x="1.5" y="1.5" width="53" height="53" rx="26.5" fill="white"/>
<path d="M40.25 18H23.625C23.3923 18 23.17 18.0915 23.0055 18.2522L21.875 19.3697L20.7445 18.2522C20.58 18.0915 20.3577 18 20.125 18H15.75C14.7858 18 14 18.7755 14 19.7273V35.2727C14 36.2262 14.7858 37 15.75 37H20.125C20.3577 37 20.58 36.9085 20.7445 36.7478L21.875 35.6303L23.0055 36.7461C23.17 36.9085 23.3923 37 23.625 37H40.25C41.216 37 42 36.2262 42 35.2727V19.7273C42 18.7755 41.216 18 40.25 18Z" fill="#4CAF50"/>
<path d="M27.7773 26.3481C26.3301 26.3481 25.1523 25.1856 25.1523 23.7572C25.1523 22.3287 26.3301 21.1663 27.7773 21.1663C29.2246 21.1663 30.4023 22.3287 30.4023 23.7572C30.4023 25.1856 29.2246 26.3481 27.7773 26.3481ZM27.7773 22.8935C27.2943 22.8935 26.9023 23.2804 26.9023 23.7572C26.9023 24.2339 27.2943 24.6208 27.7773 24.6208C28.2603 24.6208 28.6523 24.2339 28.6523 23.7572C28.6523 23.2804 28.2603 22.8935 27.7773 22.8935Z" fill="#FAFAFA"/>
<path d="M33.0273 33.2573C31.5801 33.2573 30.4023 32.0948 30.4023 30.6663C30.4023 29.2379 31.5801 28.0754 33.0273 28.0754C34.4746 28.0754 35.6523 29.2379 35.6523 30.6663C35.6523 32.0948 34.4746 33.2573 33.0273 33.2573ZM33.0273 29.8027C32.5461 29.8027 32.1523 30.1913 32.1523 30.6663C32.1523 31.1413 32.5461 31.53 33.0273 31.53C33.5086 31.53 33.9023 31.1413 33.9023 30.6663C33.9023 30.1913 33.5086 29.8027 33.0273 29.8027Z" fill="#FAFAFA"/>
<path d="M26.0273 33.2574C25.8295 33.2574 25.6318 33.1918 25.4673 33.0571C25.0963 32.7514 25.0455 32.2073 25.3553 31.8411L34.1053 21.4774C34.4168 21.1095 34.968 21.0646 35.3373 21.3669C35.7083 21.6726 35.7573 22.2167 35.4475 22.5846L26.6975 32.9483C26.526 33.1504 26.2775 33.2574 26.0273 33.2574Z" fill="#FAFAFA"/>
<path d="M21.6523 21.1663H19.9023V22.8935H21.6523V21.1663Z" fill="#FAFAFA"/>
<path d="M21.6523 31.5298H19.9023V33.2571H21.6523V31.5298Z" fill="#FAFAFA"/>
<path d="M21.6523 28.0754H19.9023V29.8027H21.6523V28.0754Z" fill="#FAFAFA"/>
<path d="M21.6523 24.6211H19.9023V26.3484H21.6523V24.6211Z" fill="#FAFAFA"/>
<rect x="1.5" y="1.5" width="53" height="53" rx="26.5" stroke="#4CAF50" stroke-width="3"/>
</svg>
