<svg width="20" height="20" viewBox="0 0 20 20" fill="none" xmlns="http://www.w3.org/2000/svg">
<g id="credit-card">
<g id="Group">
<g id="Group_2">
<path id="Vector" d="M18.5323 3.23535H1.46778C0.658439 3.23535 0 3.89379 0 4.70313V15.2973C0 16.1066 0.658439 16.765 1.46778 16.765H18.5322C19.3416 16.765 20 16.1066 20 15.2973V4.70313C20 3.89379 19.3416 3.23535 18.5323 3.23535ZM6.1522 12.0447H8.13482C8.37271 12.0447 8.56549 12.2375 8.56549 12.4754C8.56549 12.7132 8.37267 12.906 8.13482 12.906H6.1522C5.91431 12.906 5.72153 12.7132 5.72153 12.4754C5.72153 12.2375 5.91435 12.0447 6.1522 12.0447ZM1.8625 7.72489C1.8625 7.487 2.05532 7.29423 2.29317 7.29423H4.87317C5.11106 7.29423 5.30384 7.48704 5.30384 7.72489V9.59025C5.30384 9.82814 5.11103 10.0209 4.87317 10.0209H2.29317C2.05528 10.0209 1.8625 9.8281 1.8625 9.59025V7.72489ZM2.29317 12.0447H4.27579C4.51368 12.0447 4.70645 12.2375 4.70645 12.4754C4.70645 12.7132 4.51364 12.906 4.27579 12.906H2.29317C2.05528 12.906 1.8625 12.7132 1.8625 12.4754C1.8625 12.2375 2.05536 12.0447 2.29317 12.0447ZM9.37111 14.8212H2.29317C2.05528 14.8212 1.8625 14.6283 1.8625 14.3905C1.8625 14.1526 2.05532 13.9598 2.29317 13.9598H9.37111C9.609 13.9598 9.80178 14.1526 9.80178 14.3905C9.80178 14.6283 9.609 14.8212 9.37111 14.8212ZM11.9939 12.906H10.0112C9.77334 12.906 9.58057 12.7132 9.58057 12.4754C9.58057 12.2375 9.77338 12.0447 10.0112 12.0447H11.9939C12.2317 12.0447 12.4245 12.2375 12.4245 12.4754C12.4245 12.7132 12.2317 12.906 11.9939 12.906ZM15.8529 12.906H13.8703C13.6324 12.906 13.4396 12.7132 13.4396 12.4754C13.4396 12.2375 13.6324 12.0447 13.8703 12.0447H15.8529C16.0908 12.0447 16.2835 12.2375 16.2835 12.4754C16.2835 12.7132 16.0907 12.906 15.8529 12.906ZM17.7069 6.61477H13.0307C12.7928 6.61477 12.6001 6.42196 12.6001 6.18411C12.6001 5.94626 12.7929 5.75344 13.0307 5.75344H17.7069C17.9448 5.75344 18.1375 5.94626 18.1375 6.18411C18.1375 6.42196 17.9447 6.61477 17.7069 6.61477Z" fill="#B9B9B9"/>
</g>
</g>
</g>
</svg>
