<svg width="40" height="40" viewBox="0 0 40 40" fill="none" xmlns="http://www.w3.org/2000/svg">
<g id="delivery-time" clip-path="url(#clip0_479_3627)">
<g id="Group">
<g id="Group_2">
<g id="Group_3">
<path id="Vector" d="M39.6192 20.5691C39.6192 21.9062 39.4842 23.2116 39.227 24.4727C37.4198 33.3332 29.5826 38.7151 20.1883 38.7151C9.45691 38.7151 2.59961 31.5221 2.59961 20.7908C2.59961 11.4801 7.30593 3.47724 16.0484 1.58014C17.3824 1.29067 18.7675 1.13818 20.1882 1.13818C30.9196 1.13818 39.6192 9.83766 39.6192 20.5691Z" fill="#9BD069"/>
</g>
</g>
<g id="Group_4">
<path id="Vector_2" d="M20.1904 39.9999C24.0701 39.9997 27.9715 38.8499 31.3529 36.471H31.3563C35.555 33.5169 38.2598 29.1835 39.2245 24.4721C40.1295 20.0521 36.7266 15.92 32.2149 15.92C28.1518 15.92 24.579 13.273 23.3498 9.40017C22.7049 7.36868 21.4535 5.52189 19.6724 4.15286C19.2839 3.85423 18.7359 3.87993 18.373 4.20912C17.9061 4.6325 17.929 5.37927 18.429 5.763C21.4944 8.11553 22.3507 12.274 20.8428 15.92H19.7552C21.4738 12.4829 20.4084 8.08051 17.4226 6.10089C16.3741 5.40576 16.1282 4.26569 17.1309 3.50599C17.497 3.22868 17.497 2.67843 17.1309 2.40103L16.0492 1.58154C9.97893 2.89886 4.96599 7.05156 2.46896 12.5847V12.5854C1.37905 15.0002 0.757812 17.7232 0.757812 20.5691C0.757812 31.2749 9.43135 40 20.1887 40C20.1893 39.9999 20.1899 39.9999 20.1904 39.9999ZM10.5319 28.6394C9.58987 27.5664 8.76427 26.3888 8.0747 25.1262C7.38145 23.8569 8.58294 22.3988 9.96263 22.8324C10.5897 23.0294 11.2415 23.1702 11.912 23.2485C12.7223 23.3433 13.3375 24.0215 13.3375 24.8373V27.5907C13.3375 29.0695 11.5076 29.7507 10.5319 28.6394ZM13.3375 21.2847C10.1162 21.3493 7.29368 19.651 5.74983 17.1013C5.72248 16.6796 5.70712 16.2547 5.70712 15.8262C5.70712 15.0381 5.75445 14.2611 5.84566 13.4975C6.28291 17.0591 9.31592 20.0903 13.3375 19.9956V21.2847Z" fill="#69B76B"/>
</g>
<g id="Group_5">
<g id="Group_6">
<g id="Group_7">
<g id="Group_8">
<g id="Group_9">
<path id="Vector_3" d="M36.9364 32.6698V19.1566C36.9364 18.0227 36.0172 17.1035 34.8834 17.1035H18.3789V32.6698H36.9364Z" fill="#ECD833"/>
</g>
</g>
<g id="Group_10">
<g id="Group_11">
<path id="Vector_4" d="M35.6341 30.7718V26.059C35.6341 25.3883 35.0904 24.8446 34.4198 24.8446H33.3951C32.7244 24.8446 23.801 30.7853 23.8012 30.792C23.8171 31.4445 23.2109 31.9862 22.5582 31.9862H20.632C19.6681 31.9862 18.8866 31.2048 18.8866 30.2408V17.1035H12.9944C12.0305 17.1035 11.249 17.8849 11.249 18.8489V34.6318C11.249 35.5957 12.0304 36.3772 12.9944 36.3772H35.1907C36.1546 36.3772 36.9361 35.5958 36.9361 34.6318V31.9862C36.936 31.9862 35.6361 32.0825 35.6341 30.7718Z" fill="#ECC32E"/>
</g>
</g>
<g id="Group_12">
<g id="Group_13">
<g id="Group_14">
<path id="Vector_5" d="M34.8411 30.6576V25.8482C34.8411 25.294 34.3919 24.8447 33.8377 24.8447H26.9414V30.6576H34.8411V30.6576Z" fill="white"/>
</g>
</g>
</g>
<g id="Group_15">
<g id="Group_16">
<path id="Vector_6" d="M27.8459 30.5343C27.4004 30.5343 27.0393 30.1731 27.0393 29.7276C27.0393 29.2617 27.4169 28.8841 27.8827 28.8841H31.3967C31.5926 28.8841 31.7675 28.741 31.7862 28.5459C31.8075 28.3223 31.6322 28.1341 31.4129 28.1341H27.4316C27.2149 28.1341 27.0393 27.9584 27.0393 27.7418C27.0393 27.5251 27.2149 27.3495 27.4316 27.3495H29.2836C29.4795 27.3495 29.6544 27.2063 29.6729 27.0114C29.6943 26.7877 29.519 26.5994 29.2997 26.5994H27.4316C27.2149 26.5994 27.0393 26.4238 27.0393 26.2072V24.8447H24.5654C24.12 24.8447 23.7588 25.2059 23.7588 25.6514V31.1575C23.7588 31.6031 24.12 31.9642 24.5655 31.9642H34.0341C34.4796 31.9642 34.8407 31.6031 34.8407 31.1576V30.5343H27.8459Z" fill="#D0FBFD"/>
</g>
</g>
</g>
<g id="Group_17">
<g id="Group_18">
<path id="Vector_7" d="M36.4819 15.8262H16.6035V19.7115H37.5318V16.876C37.5318 16.2962 37.0617 15.8262 36.4819 15.8262Z" fill="#F6E738"/>
</g>
</g>
<g id="Group_19">
<g id="Group_20">
<path id="Vector_8" d="M17.2872 17.0841C17.2872 16.4701 17.7849 15.8262 18.3988 15.8262H11.6966C11.0826 15.8262 10.585 16.3238 10.585 16.9378V19.7115H17.2872V17.0841Z" fill="#ECD833"/>
</g>
</g>
</g>
<g id="Group_21">
<g id="Group_22">
<path id="Vector_9" d="M11.0727 19.9042C15.1423 19.9042 18.4413 16.6052 18.4413 12.5356C18.4413 8.46603 15.1423 5.16699 11.0727 5.16699C7.00314 5.16699 3.7041 8.46603 3.7041 12.5356C3.7041 16.6052 7.00314 19.9042 11.0727 19.9042Z" fill="white"/>
</g>
</g>
<g id="Group_23">
<g id="Group_24">
<path id="Vector_10" d="M11.0724 15.5199C12.2445 15.5199 13.1947 14.5697 13.1947 13.3976C13.1947 12.2255 12.2445 11.2754 11.0724 11.2754C9.90035 11.2754 8.9502 12.2255 8.9502 13.3976C8.9502 14.5697 9.90035 15.5199 11.0724 15.5199Z" fill="#D0FBFD"/>
</g>
</g>
<g id="Group_25">
<g id="Group_26">
<path id="Vector_11" d="M11.0724 14.6575C12.2445 14.6575 13.1947 13.7074 13.1947 12.5353C13.1947 11.3632 12.2445 10.4131 11.0724 10.4131C9.90035 10.4131 8.9502 11.3632 8.9502 12.5353C8.9502 13.7074 9.90035 14.6575 11.0724 14.6575Z" fill="#05CDFF"/>
</g>
</g>
<g id="Group_27">
<g id="Group_28">
<path id="Vector_12" d="M9.01753 20.9471C5.23187 20.0221 2.4138 16.6019 2.4138 12.5354C2.4138 7.76101 6.29812 3.87669 11.0726 3.87669C11.2817 3.87669 11.4889 3.88461 11.6943 3.89918V1.86127C11.4885 1.84943 11.2814 1.84277 11.0726 1.84277C5.17663 1.84277 0.379883 6.63944 0.379883 12.5354C0.379883 17.7286 4.10145 22.0681 9.01745 23.0291L9.01753 20.9471Z" fill="#9D66D5"/>
</g>
</g>
<g id="Group_29">
<g id="Group_30">
<path id="Vector_13" d="M16.8896 3.56738L15.3177 4.99291C18.0539 6.53841 19.871 9.52762 19.7235 12.9201C19.5282 17.41 15.8738 21.0318 11.3823 21.1891C10.4821 21.2206 9.61062 21.1139 8.78784 20.8884C8.14246 20.7117 7.50391 21.1872 7.50391 21.8563V21.8764C7.50391 22.3299 7.80693 22.7277 8.24418 22.8479C9.21945 23.116 10.2498 23.2494 11.3143 23.2257C17.0162 23.0991 21.6497 18.4554 21.7636 12.7533C21.8403 8.91116 19.879 5.51275 16.8896 3.56738Z" fill="#5E3881"/>
</g>
</g>
<g id="Group_31">
<g id="Group_32">
<path id="Vector_14" d="M12.184 0.141892L15.0422 2.3073C15.4082 2.58462 15.4082 3.13486 15.0422 3.41226L12.184 5.57766C11.7274 5.92354 11.0723 5.59788 11.0723 5.02522V0.694331C11.0723 0.121675 11.7275 -0.203912 12.184 0.141892Z" fill="#9D66D5"/>
</g>
</g>
<g id="Group_33">
<g id="Group_34">
<g id="Group_35">
<path id="Vector_15" d="M16.7421 15.5007L16.0558 15.1045L15.6149 15.8682C15.5888 15.9134 15.6043 15.9711 15.6494 15.9972C15.7198 16.0379 15.7093 16.1419 15.6325 16.1687C14.8717 16.4347 14.0543 16.5801 13.2028 16.5801C9.72875 16.5801 6.96937 14.2318 6.1096 11.2122C6.02003 10.8978 6.36004 10.6342 6.64323 10.7976C6.87675 10.9324 7.1753 10.8524 7.31008 10.619C7.44486 10.3854 7.36485 10.087 7.13142 9.95211L6.18757 9.40719L5.86856 9.95979C5.86809 9.95963 5.86856 9.95979 5.86809 9.95963C5.80642 9.07902 4.61668 8.87591 4.27887 9.67785C3.87837 10.6286 3.67166 11.6809 3.70825 12.7855C3.83809 16.709 7.07672 19.867 11.0021 19.9038C13.8579 19.9306 16.343 18.3324 17.5893 15.9778C17.7674 15.6413 17.381 15.2916 17.0565 15.4908C17.0522 15.4935 17.0479 15.4962 17.0436 15.4988C16.9515 15.5549 16.8355 15.5547 16.7421 15.5007Z" fill="#D0FBFD"/>
</g>
</g>
<g id="Group_36">
<g id="Group_37">
<path id="Vector_16" d="M11.0732 6.58691H12.0495V8.16493H11.0732V6.58691Z" fill="#D0FBFD"/>
</g>
</g>
<g id="Group_38">
<g id="Group_39">
<path id="Vector_17" d="M7.89453 7.69971L8.74 7.21156L9.52901 8.57813L8.68354 9.06627L7.89453 7.69971Z" fill="#D0FBFD"/>
</g>
</g>
<g id="Group_40">
<g id="Group_41">
<path id="Vector_18" d="M16.4697 12.585H18.0477V13.5613H16.4697V12.585Z" fill="#D0FBFD"/>
</g>
</g>
<g id="Group_42">
<g id="Group_43">
<path id="Vector_19" d="M15.5674 10.1958L16.9339 9.40679L17.4221 10.2523L16.0555 11.0413L15.5674 10.1958Z" fill="#D0FBFD"/>
</g>
</g>
<g id="Group_44">
<g id="Group_45">
<path id="Vector_20" d="M13.5918 8.5791L14.3808 7.21254L15.2263 7.70068L14.4373 9.06725L13.5918 8.5791Z" fill="#D0FBFD"/>
</g>
</g>
</g>
<g id="Group_46">
<g id="Group_47">
<g id="Group_48">
<g id="Group_49">
<g id="Group_50">
<path id="Vector_21" d="M10.584 6.09863H11.5603V7.67665H10.584V6.09863Z" fill="#3342AA"/>
</g>
</g>
</g>
<g id="Group_51">
<g id="Group_52">
<g id="Group_53">
<path id="Vector_22" d="M10.584 17.4932H11.5603V19.0712H10.584V17.4932Z" fill="#3342AA"/>
</g>
</g>
</g>
</g>
<g id="Group_54">
<g id="Group_55">
<g id="Group_56">
<g id="Group_57">
<path id="Vector_23" d="M7.40625 7.21191L8.25172 6.72377L9.04073 8.09033L8.19526 8.57848L7.40625 7.21191Z" fill="#3342AA"/>
</g>
</g>
</g>
<g id="Group_58">
<g id="Group_59">
<g id="Group_60">
<path id="Vector_24" d="M13.1035 17.0796L13.949 16.5914L14.738 17.958L13.8925 18.4462L13.1035 17.0796Z" fill="#3342AA"/>
</g>
</g>
</g>
</g>
<g id="Group_61">
<g id="Group_62">
<g id="Group_63">
<g id="Group_64">
<path id="Vector_25" d="M5.21094 9.76465L5.69908 8.91918L7.06565 9.70819L6.5775 10.5537L5.21094 9.76465Z" fill="#3342AA"/>
</g>
</g>
</g>
<g id="Group_65">
<g id="Group_66">
<g id="Group_67">
<path id="Vector_26" d="M15.0791 15.4619L15.5672 14.6164L16.9338 15.4055L16.4457 16.2509L15.0791 15.4619Z" fill="#3342AA"/>
</g>
</g>
</g>
</g>
<g id="Group_68">
<g id="Group_69">
<g id="Group_70">
<g id="Group_71">
<path id="Vector_27" d="M4.58594 12.0967H6.16396V13.073H4.58594V12.0967Z" fill="#3342AA"/>
</g>
</g>
</g>
<g id="Group_72">
<g id="Group_73">
<g id="Group_74">
<path id="Vector_28" d="M15.9805 12.0967H17.5585V13.073H15.9805V12.0967Z" fill="#3342AA"/>
</g>
</g>
</g>
</g>
<g id="Group_75">
<g id="Group_76">
<g id="Group_77">
<g id="Group_78">
<path id="Vector_29" d="M5.21094 15.4048L6.5775 14.6158L7.06565 15.4612L5.69908 16.2503L5.21094 15.4048Z" fill="#3342AA"/>
</g>
</g>
</g>
<g id="Group_79">
<g id="Group_80">
<g id="Group_81">
<path id="Vector_30" d="M15.0791 9.70752L16.4457 8.91851L16.9338 9.76398L15.5672 10.553L15.0791 9.70752Z" fill="#3342AA"/>
</g>
</g>
</g>
</g>
<g id="Group_82">
<g id="Group_83">
<g id="Group_84">
<g id="Group_85">
<path id="Vector_31" d="M7.40625 17.959L8.19526 16.5924L9.04073 17.0806L8.25172 18.4471L7.40625 17.959Z" fill="#3342AA"/>
</g>
</g>
</g>
<g id="Group_86">
<g id="Group_87">
<g id="Group_88">
<path id="Vector_32" d="M13.1035 8.09082L13.8925 6.72426L14.738 7.2124L13.949 8.57897L13.1035 8.09082Z" fill="#3342AA"/>
</g>
</g>
</g>
</g>
</g>
<g id="Group_89">
<g id="Group_90">
<path id="Vector_33" d="M7.89489 14.605C7.6638 14.605 7.44275 14.4731 7.34002 14.2493C7.19936 13.9431 7.33359 13.5808 7.63982 13.4402L10.5672 12.0957L12.0386 7.19995C12.1356 6.87726 12.4761 6.69405 12.7985 6.79114C13.1212 6.88815 13.3043 7.22839 13.2072 7.55108L11.6566 12.7108C11.6062 12.8786 11.4861 13.0166 11.3268 13.0897L8.14901 14.549C8.06665 14.587 7.98007 14.605 7.89489 14.605Z" fill="#F5415F"/>
</g>
</g>
<g id="Group_91">
<g id="Group_92">
<path id="Vector_34" d="M11.6291 11.2956C11.571 11.2956 11.5118 11.2873 11.4533 11.2696C11.1306 11.1725 10.9475 10.8323 11.0445 10.5096L11.6778 8.40258C11.7747 8.0799 12.1153 7.89669 12.4377 7.99378C12.7604 8.09079 12.9434 8.43103 12.8464 8.75372L12.2132 10.8607C12.1339 11.125 11.8915 11.2956 11.6291 11.2956Z" fill="#FF6473"/>
</g>
</g>
</g>
</g>
</g>
<defs>
<clipPath id="clip0_479_3627">
<rect width="40" height="40" fill="white"/>
</clipPath>
</defs>
</svg>
