<svg width="40" height="40" viewBox="0 0 40 40" fill="none" xmlns="http://www.w3.org/2000/svg">
<g id="delivery-truck (1)" clip-path="url(#clip0_479_3955)">
<g id="Group">
<g id="Group_2">
<path id="Vector" d="M19.5096 0.490723C15.9367 0.490723 12.5882 1.45117 9.70801 3.12795L15.6221 21.3736L38.5723 15.8313C36.6631 7.05961 28.8534 0.490723 19.5096 0.490723Z" fill="#ECD833"/>
</g>
<g id="Group_3">
<path id="Vector_2" d="M38.9632 21.4651C38.9632 21.4649 38.9632 21.4646 38.9633 21.4643C39.1034 19.5775 38.9719 17.677 38.5701 15.8318C38.2719 14.5588 36.4569 14.5501 36.1269 15.8267C36.1157 15.8701 36.1043 15.9135 36.0929 15.9569C36.0629 16.0696 35.96 16.1478 35.8434 16.1478C35.7393 16.1478 35.6455 16.0851 35.6056 15.9892L34.9262 14.3564C34.5233 13.3881 34.6771 12.2936 35.2801 11.4356C35.4171 11.2406 35.5232 11.0223 35.5911 10.7878C35.6801 10.4811 35.4419 10.1761 35.1226 10.1761H31.8531C31.2376 10.1761 30.6875 9.80741 30.4367 9.24528C30.4353 9.24223 30.4339 9.23918 30.4326 9.23613H30.4302C29.1479 6.3702 26.619 4.19803 23.5165 3.42846V3.42807C23.4514 3.41181 23.1699 3.34819 23.1617 3.34647V3.34733C22.8049 3.27214 22.4413 3.215 22.0716 3.1774C21.5077 3.11996 21.0167 3.56078 21.0167 4.12761V9.74105C21.0167 9.98132 20.8219 10.176 20.5817 10.176C20.3415 10.176 20.1468 10.3708 20.1468 10.611L5.81836 33.897C9.36906 37.3949 14.2182 39.509 19.5088 39.509C29.7898 39.509 38.214 31.5551 38.9632 21.4651Z" fill="#ECC32E"/>
</g>
<g id="Group_4">
<path id="Vector_3" d="M18.2655 3.12891H9.70799C5.89702 5.34766 2.90595 8.82028 1.30068 12.9817L0.335311 16.3797C0.115131 17.5527 0 18.7628 0 19.9999C0 22.5207 0.478267 24.9298 1.34875 27.1415H20.1469V5.01024C20.1469 3.97125 19.3046 3.12891 18.2655 3.12891Z" fill="#6074FF"/>
</g>
<g id="Group_5">
<g id="Group_6">
<path id="Vector_4" d="M30.5929 11.5067C29.3253 8.34231 26.5641 5.95324 23.1621 5.23682V11.4587C23.2114 11.4704 23.2604 11.4866 23.3092 11.5067H30.5929Z" fill="#3342AA"/>
</g>
<g id="Group_7">
<path id="Vector_5" d="M23.5164 9.98536V5.31828C22.7172 5.12007 21.8802 5.01416 21.0166 5.01416V15.4241H31.344C31.344 13.8915 31.0186 12.4365 30.4325 11.1263H24.6574C24.0272 11.1263 23.5164 10.6155 23.5164 9.98536Z" fill="#2B3890"/>
</g>
<g id="Group_8">
<path id="Vector_6" d="M34.0951 29.0319C34.107 29.1019 34.1145 29.1755 34.1145 29.2466V30.5539H40.0005V29.5325L39.4877 26.8107C39.4877 26.7439 39.9976 25.1371 39.9921 25.0718C39.892 23.9066 38.9186 22.9915 37.7295 22.9828V22.982L34.0679 14.1824C34.8027 13.9788 35.3833 13.4044 35.5934 12.6728C35.6809 12.368 35.4405 12.0664 35.1233 12.0664H22.2832V28.1364H33.0409C33.6222 28.1364 34.0044 28.5125 34.0951 29.0319Z" fill="#3342AA"/>
</g>
<g id="Group_9">
<g id="Group_10">
<path id="Vector_7" d="M36.5821 23.1162C36.2072 23.1162 35.9951 22.8645 35.9447 22.5791C35.9171 22.4685 35.913 22.3491 35.9338 22.2307C35.9804 21.9657 35.9957 21.7009 35.9966 21.4363L33.1982 15.4263C33.0648 15.1031 32.7498 14.8923 32.4001 14.8923H23.3108C22.8339 14.8923 22.4474 15.2789 22.4474 15.7558V12.0664H20.1475V33.8974H22.4484C22.4692 30.7796 25.0023 28.2586 28.125 28.2586C31.2477 28.2586 33.7806 30.7797 33.8016 33.8974H35.6784V30.5248C35.6784 29.0697 34.4988 27.8902 33.0438 27.8902H26.5385C24.975 27.8902 23.6172 27.0128 22.9287 25.7238C22.7297 25.351 22.9973 24.9001 23.4199 24.9001H26.2339C26.5243 24.9001 26.7837 24.6877 26.8113 24.3985C26.843 24.0668 26.5829 23.7877 26.2578 23.7877H23.3598C23.3084 23.7877 23.2579 23.7834 23.2088 23.7752C22.7122 23.6925 22.7931 22.9513 23.2966 22.9529H23.3109C29.7 22.9383 32.6978 22.9561 34.1428 22.9585C34.9727 22.9598 35.6438 23.6329 35.6438 24.4627H37.1283C37.4604 24.4627 37.7296 24.1936 37.7296 23.8615V23.1162H36.5821Z" fill="#2B3890"/>
</g>
</g>
<g id="Group_11">
<path id="Vector_8" d="M32.5449 30.3746C33.3232 31.3394 33.7924 32.5636 33.8013 33.8976H37.7293V33.8967C38.9851 33.8874 40.0004 32.8673 40.0004 31.6095V30.3599C39.8896 30.3714 40.983 30.3742 32.5449 30.3746Z" fill="#2B3890"/>
</g>
<g id="Group_12">
<g id="Group_13">
<path id="Vector_9" d="M5.81939 33.8975H22.4479C22.4568 32.5634 22.9259 31.3391 23.7044 30.3743C18.5778 30.3741 11.8387 30.3738 2.98535 30.3735C3.79252 31.6565 4.74476 32.8388 5.81939 33.8975Z" fill="#2B3890"/>
</g>
</g>
<g id="Group_14">
<path id="Vector_10" d="M35.7432 20.9649L33.1978 14.7982C33.0644 14.475 32.7493 14.2642 32.3997 14.2642H24.9683L23.2529 20.9649H35.7432Z" fill="#A0EBFF"/>
</g>
<g id="Group_15">
<g id="Group_16">
<path id="Vector_11" d="M28.0587 29.3555C27.6949 29.3555 27.341 29.3982 27.002 29.479L27.3832 38.3896C27.6036 38.4225 27.8291 38.4395 28.0587 38.4395C30.5672 38.4395 32.6007 36.406 32.6007 33.8975C32.6007 31.389 30.5672 29.3555 28.0587 29.3555Z" fill="#2B3890"/>
</g>
<g id="Group_17">
<path id="Vector_12" d="M30.1138 34.3465C30.0146 33.3725 29.2194 32.5901 28.244 32.5051C28.2284 32.5038 28.2127 32.5026 28.1972 32.5016C27.1986 32.4364 26.7427 31.206 27.4839 30.5337C27.4992 30.5199 27.5145 30.5062 27.5299 30.4925C27.993 30.0836 27.6023 29.3334 27.0019 29.4789C25.1165 29.9358 23.6372 31.5913 23.5238 33.6395C23.3886 36.0844 25.1656 38.0579 27.3829 38.3922C27.8972 38.4697 28.1775 37.8138 27.7655 37.4964C27.756 37.4891 27.7466 37.4817 27.7372 37.4744C27.3798 37.1945 27.5781 36.6232 28.0319 36.6289C29.2578 36.6446 30.2405 35.5929 30.1138 34.3465Z" fill="#242E7A"/>
</g>
</g>
<g id="Group_18">
<g id="Group_19">
<path id="Vector_13" d="M27.8843 31.6932C26.8915 31.7748 26.0844 32.5801 26.0007 33.5727C25.9776 33.8472 26.0082 34.1116 26.083 34.3567L26.9609 34.2937C27.8439 34.2304 28.5464 33.5285 28.6105 32.6457L28.6735 31.7788C28.4271 31.7022 28.1609 31.6705 27.8843 31.6932Z" fill="white"/>
</g>
<g id="Group_20">
<path id="Vector_14" d="M30.1122 33.9874C30.0075 34.9348 29.2417 35.7006 28.2944 35.8052C27.2973 35.9153 26.4228 35.3152 26.1128 34.4468C25.9916 34.1073 26.2564 33.7522 26.6169 33.7522H27.2037C27.6762 33.7522 28.0591 33.3691 28.0591 32.8965V32.3305C28.0591 31.948 28.4433 31.6858 28.8003 31.8231C29.6435 32.1472 30.2204 33.0082 30.1122 33.9874Z" fill="#05CDFF"/>
</g>
</g>
<g id="Group_21">
<path id="Vector_15" d="M37.8389 28.335V28.9044C37.8389 29.2513 38.1201 29.5326 38.467 29.5326H39.9999V28.8672L37.8389 28.335Z" fill="#2B3890"/>
</g>
<g id="Group_22">
<path id="Vector_16" d="M40 28.8668H38.2816C38.0371 28.8668 37.8389 28.6686 37.8389 28.4241V25.5135C37.8389 25.269 38.0371 25.0708 38.2816 25.0708H40V28.8668Z" fill="#F6E738"/>
</g>
<g id="Group_23">
<g id="Group_24">
<path id="Vector_17" d="M35.8124 21.1321L35.6698 20.7865H31.7948C31.3526 20.7865 31.1312 20.2518 31.4438 19.9392L31.8149 19.5682C32.0196 19.3635 32.0527 19.0309 31.8682 18.8077C31.6566 18.5515 31.2766 18.5381 31.0473 18.7673L29.1735 20.6412C29.0823 20.7324 28.9589 20.7843 28.8298 20.7857L28.8197 20.7858C28.3746 20.7904 28.1484 20.2525 28.4632 19.9379L31.9398 16.4612C32.1446 16.2564 32.1777 15.9238 31.9932 15.7006C31.7816 15.4445 31.4016 15.431 31.1723 15.6603L26.966 19.8666C26.7775 20.0551 26.4752 20.0593 26.2776 19.8803C26.275 19.878 26.2725 19.8757 26.27 19.8734C26.0445 19.668 25.699 19.6725 25.4834 19.8882L24.6806 20.691C24.5722 20.7992 24.4303 20.8534 24.2884 20.8534C24.1527 20.8534 24.0169 20.8038 23.9106 20.7048C23.6795 20.4895 23.6916 20.1115 23.915 19.8881L24.956 18.8471C25.0625 18.7406 25.1223 18.5962 25.1223 18.4455V14.2642H23.3107C22.8338 14.2642 22.4473 14.6507 22.4473 15.1276V21.4615C22.4473 21.9383 22.8338 22.3249 23.3107 22.3249H35.0145C35.6292 22.3249 36.047 21.7004 35.8124 21.1321Z" fill="#05CDFF"/>
</g>
</g>
<g id="Group_25">
<path id="Vector_18" d="M37.3056 23.6424H35.6436V18.0381H37.3056C37.5396 18.0381 37.7293 18.2278 37.7293 18.4618V23.2187C37.7293 23.4527 37.5396 23.6424 37.3056 23.6424Z" fill="#3342AA"/>
</g>
</g>
<g id="Group_26">
<g id="Group_27">
<path id="Vector_19" d="M2.99093 30.3827H20.1865V26.7969H1.21777C1.68697 28.0591 2.28334 29.2593 2.99093 30.3827Z" fill="#0539BF"/>
</g>
<g id="Group_28">
<path id="Vector_20" d="M0.269531 16.7604H12.4392C13.4826 16.7604 14.3284 15.9145 14.3284 14.8712C14.3284 13.8278 13.4826 12.9819 12.4392 12.9819H1.30188C0.836668 14.1881 0.488148 15.4522 0.269531 16.7604Z" fill="#1029AD"/>
</g>
</g>
</g>
</g>
<defs>
<clipPath id="clip0_479_3955">
<rect width="40" height="40" fill="white"/>
</clipPath>
</defs>
</svg>
