<svg width="75" height="50" viewBox="0 0 75 50" fill="none" xmlns="http://www.w3.org/2000/svg">
<g filter="url(#filter0_d_3_4126)">
<path fill-rule="evenodd" clip-rule="evenodd" d="M12.9081 39.9969C10.1989 39.9969 8 37.8011 8 35.0888V23.8013C8 26.5106 10.1989 21.9206 12.9081 21.9206V40V39.9969Z" fill="#C66B00"/>
<mask id="mask0_3_4126" style="mask-type:luminance" maskUnits="userSpaceOnUse" x="8" y="10" width="55" height="22">
<path d="M8 31.447H47.6808C55.6415 31.447 62.0932 24.9953 62.0932 17.0345V10H22.4125C14.4517 10 8 16.4517 8 24.4125V31.447Z" fill="white"/>
</mask>
<g mask="url(#mask0_3_4126)">
<path d="M8 31.447H47.6808C55.6415 31.447 62.0932 24.9953 62.0932 17.0345V10H22.4125C14.4517 10 8 16.4517 8 24.4125V31.447Z" fill="#FFA81C"/>
</g>
</g>
<defs>
<filter id="filter0_d_3_4126" x="0" y="0" width="74.0933" height="50" filterUnits="userSpaceOnUse" color-interpolation-filters="sRGB">
<feFlood flood-opacity="0" result="BackgroundImageFix"/>
<feColorMatrix in="SourceAlpha" type="matrix" values="0 0 0 0 0 0 0 0 0 0 0 0 0 0 0 0 0 0 127 0" result="hardAlpha"/>
<feOffset dx="2"/>
<feGaussianBlur stdDeviation="5"/>
<feColorMatrix type="matrix" values="0 0 0 0 0.458824 0 0 0 0 0.290196 0 0 0 0 0.290196 0 0 0 0.45 0"/>
<feBlend mode="normal" in2="BackgroundImageFix" result="effect1_dropShadow_3_4126"/>
<feBlend mode="normal" in="SourceGraphic" in2="effect1_dropShadow_3_4126" result="shape"/>
</filter>
</defs>
</svg>
