<svg width="25" height="16" viewBox="0 0 25 16" fill="none" xmlns="http://www.w3.org/2000/svg">
<g id="319">
<g id="New Icons">
<g id="Card Brands">
<g id="Color">
<g id="Discover">
<path id="shape" d="M22.719 15.7499L22.7211 15.7499C23.6734 15.7581 24.4546 14.9773 24.4665 14.0042L24.4665 2.0063C24.4627 1.53569 24.276 1.08617 23.9478 0.756802C23.6205 0.428269 23.1793 0.246149 22.719 0.250071L2.78159 0.250062C2.3234 0.246149 1.8822 0.428269 1.55487 0.756802C1.22671 1.08617 1.03996 1.53569 1.03614 2.00426L1.03613 13.9937C1.03996 14.4643 1.22671 14.9138 1.55487 15.2432C1.8822 15.5717 2.3234 15.7538 2.78371 15.7499H22.719ZM22.7179 16.2499C22.7176 16.2499 22.7172 16.2499 22.7168 16.2499L22.719 16.2499H22.7179Z" fill="white" stroke="black" stroke-opacity="0.2" stroke-width="0.5"/>
<path id="shape_2" d="M13.3623 15.9999H22.7193C23.2446 16.0043 23.75 15.7993 24.1245 15.4299C24.499 15.0605 24.7118 14.557 24.7162 14.0303V11.6716C21.1828 13.7059 17.3508 15.1668 13.3623 15.9999Z" fill="#F27712"/>
<path id="shape_3" d="M23.8909 9.29643H23.0411L22.0839 8.03023H21.9931V9.29643H21.3V6.15161H22.3232C23.1236 6.15161 23.5856 6.48264 23.5856 7.0785C23.5856 7.56678 23.2968 7.88126 22.777 7.98057L23.8909 9.29643ZM22.8678 7.10333C22.8678 6.79712 22.6367 6.63988 22.2077 6.63988H21.9931V7.59161H22.1912C22.6367 7.59161 22.8678 7.42609 22.8678 7.10333ZM18.8741 6.15161H20.8379V6.68126H19.5672V7.38471H20.7884V7.92264H19.5672V8.77505H20.8379V9.30471H18.8741V6.15161ZM16.6463 9.37919L15.1445 6.14333H15.9036L16.8525 8.26195L17.8097 6.14333H18.5523L17.0341 9.37919H16.6628H16.6463ZM10.367 9.37092C9.31081 9.37092 8.48568 8.65092 8.48568 7.71574C8.48568 6.8054 9.32732 6.06885 10.3835 6.06885C10.6805 6.06885 10.9281 6.12678 11.2334 6.25919V6.98747C11.0022 6.75965 10.6911 6.63187 10.367 6.63161C9.70688 6.63161 9.20355 7.11161 9.20355 7.71574C9.20355 8.35299 9.69863 8.80816 10.4 8.80816C10.7135 8.80816 10.9528 8.70885 11.2334 8.46057V9.18885C10.9198 9.32126 10.6558 9.37092 10.367 9.37092ZM8.27114 8.33643C8.27114 8.94885 7.76781 9.37092 7.04169 9.37092C6.51361 9.37092 6.13404 9.18885 5.81224 8.77505L6.26607 8.38609C6.42284 8.66747 6.68688 8.80816 7.01694 8.80816C7.33049 8.80816 7.55328 8.61781 7.55328 8.36954C7.55328 8.22885 7.48727 8.12126 7.34699 8.0385C7.19319 7.96365 7.03303 7.90271 6.86841 7.85643C6.21656 7.64954 5.99377 7.42609 5.99377 6.98747C5.99377 6.47436 6.47235 6.0854 7.09945 6.0854C7.49552 6.0854 7.85032 6.20954 8.14737 6.44126L7.78431 6.85505C7.64042 6.69683 7.43674 6.60671 7.22322 6.60678C6.92617 6.60678 6.71164 6.75574 6.71164 6.95436C6.71164 7.11988 6.83541 7.21092 7.24798 7.35161C8.04011 7.59988 8.27114 7.83161 8.27114 8.34471V8.33643ZM4.86334 6.15161H5.55645V9.30471H4.86334V6.15161ZM2.63547 9.30471H1.6123V6.15161H2.63547C3.75766 6.15161 4.53328 6.79712 4.53328 7.72402C4.53328 8.19574 4.30224 8.64264 3.89793 8.94057C3.55137 9.18885 3.16356 9.30471 2.62722 9.30471H2.63547ZM3.4441 6.93781C3.21307 6.75574 2.94902 6.68954 2.4952 6.68954H2.30542V8.77505H2.4952C2.94077 8.77505 3.22132 8.6923 3.4441 8.52678C3.68339 8.32816 3.82367 8.03023 3.82367 7.72402C3.82367 7.41781 3.68339 7.12816 3.4441 6.93781Z" fill="black"/>
<path id="shape_4" d="M13.1639 6.06885C12.2563 6.06885 11.5137 6.79712 11.5137 7.69919C11.5137 8.65919 12.2233 9.37919 13.1639 9.37919C14.0881 9.37919 14.8142 8.65092 14.8142 7.72402C14.8142 6.79712 14.0963 6.06885 13.1639 6.06885Z" fill="#F27712"/>
</g>
</g>
</g>
</g>
</g>
</svg>
