<svg width="18" height="18" viewBox="0 0 18 18" fill="none" xmlns="http://www.w3.org/2000/svg">
<g id="Group">
<path id="Vector" fill-rule="evenodd" clip-rule="evenodd" d="M9 0C4.03594 0 0 4.03594 0 9C0 13.9641 4.03594 18 9 18C13.9641 18 18 13.9641 18 9C18 4.03594 13.9641 0 9 0Z" fill="#189C03"/>
<path id="Vector_2" fill-rule="evenodd" clip-rule="evenodd" d="M13.3516 5.96598C13.5695 6.18395 13.5695 6.54254 13.3516 6.76051L8.07813 12.0339C7.96914 12.1429 7.825 12.1992 7.68086 12.1992C7.53672 12.1992 7.39258 12.1429 7.28359 12.0339L4.64687 9.39723C4.42891 9.17926 4.42891 8.82067 4.64687 8.6027C4.86484 8.38473 5.22344 8.38473 5.44141 8.6027L7.68086 10.8422L12.557 5.96598C12.775 5.74449 13.1336 5.74449 13.3516 5.96598Z" fill="white"/>
</g>
</svg>
