<svg width="9" height="7" viewBox="0 0 9 7" fill="none" xmlns="http://www.w3.org/2000/svg">
<path d="M8.55009 0H0.449914C0.360924 2.687e-05 0.273938 0.0373634 0.199952 0.10729C0.125966 0.177216 0.0683021 0.276593 0.0342499 0.392857C0.000197609 0.50912 -0.00871405 0.637051 0.00864172 0.760475C0.0259975 0.8839 0.0688415 0.997277 0.131757 1.08627L4.18184 6.81355C4.22361 6.87266 4.27321 6.91955 4.3278 6.95154C4.38239 6.98353 4.44091 7 4.5 7C4.55909 7 4.61761 6.98353 4.6722 6.95154C4.72679 6.91955 4.77639 6.87266 4.81816 6.81355L8.86824 1.08627C8.93116 0.997277 8.974 0.8839 8.99136 0.760475C9.00871 0.637051 8.9998 0.50912 8.96575 0.392857C8.9317 0.276593 8.87403 0.177216 8.80005 0.10729C8.72606 0.0373634 8.63908 2.687e-05 8.55009 0Z" fill="#777777"/>
</svg>
