<svg width="17" height="18" viewBox="0 0 17 18" fill="none" xmlns="http://www.w3.org/2000/svg">
<path d="M13.4587 8.69368C13.067 8.69368 12.7504 9.01754 12.7504 9.41644V15.199C12.7504 15.5972 12.433 15.9218 12.0421 15.9218H2.12507C1.73401 15.9218 1.41676 15.5972 1.41676 15.199V5.07957C1.41676 4.68133 1.73401 4.3568 2.12507 4.3568H7.79196C8.18367 4.3568 8.50027 4.03294 8.50027 3.63403C8.50027 3.235 8.18367 2.91113 7.79196 2.91113H2.12507C0.953453 2.91113 0 3.88404 0 5.07957V15.199C0 16.3945 0.953453 17.3674 2.12507 17.3674H12.0421C13.2137 17.3674 14.1672 16.3945 14.1672 15.199V9.41644C14.1672 9.01674 13.8504 8.69368 13.4587 8.69368Z" fill="#148C00"/>
<path d="M6.64181 8.03529C6.59226 8.08585 6.55893 8.15017 6.54479 8.21952L6.044 10.7755C6.02066 10.8939 6.05749 11.0161 6.14102 11.1021C6.20834 11.1708 6.299 11.2076 6.39187 11.2076C6.41444 11.2076 6.43791 11.2055 6.46126 11.2005L8.96532 10.6895C9.03472 10.6749 9.09775 10.641 9.14665 10.5903L14.7512 4.87144L12.2471 2.31641L6.64181 8.03529Z" fill="#148C00"/>
<path d="M16.4824 0.549084C15.7919 -0.155684 14.6684 -0.155684 13.9783 0.549084L12.998 1.54939L15.5021 4.10456L16.4824 3.10412C16.8168 2.76371 17.001 2.30975 17.001 1.82693C17.001 1.34412 16.8168 0.890153 16.4824 0.549084Z" fill="#148C00"/>
</svg>
