<svg width="25" height="25" viewBox="0 0 25 25" fill="none" xmlns="http://www.w3.org/2000/svg">
<g id="email (2) 1">
<g id="Group">
<g id="Group_2">
<path id="Vector" d="M16.1987 13.5376L14.1049 15.6385C13.2559 16.4905 11.7619 16.5089 10.8945 15.6385L8.80059 13.5376L1.28027 21.0823C1.56021 21.2118 1.86885 21.289 2.19697 21.289H22.8024C23.1306 21.289 23.4391 21.2119 23.7189 21.0824L16.1987 13.5376Z" fill="#148C00"/>
</g>
</g>
<g id="Group_3">
<g id="Group_4">
<path id="Vector_2" d="M22.8023 3.71094H2.19687C1.86875 3.71094 1.56011 3.78818 1.28027 3.91763L9.31626 11.9803C9.3168 11.9808 9.31743 11.9809 9.31797 11.9814C9.31851 11.982 9.3186 11.9827 9.3186 11.9827L11.9315 14.6043C12.2091 14.8818 12.7902 14.8818 13.0678 14.6043L15.6802 11.9832C15.6802 11.9832 15.6808 11.982 15.6813 11.9814C15.6813 11.9814 15.6825 11.9808 15.6831 11.9803L23.7188 3.91758C23.439 3.78809 23.1305 3.71094 22.8023 3.71094Z" fill="#148C00"/>
</g>
</g>
<g id="Group_5">
<g id="Group_6">
<path id="Vector_3" d="M0.233691 4.94189C0.0888672 5.23477 0 5.55986 0 5.90811V19.0917C0 19.4399 0.0887695 19.765 0.233643 20.0579L7.76699 12.5001L0.233691 4.94189Z" fill="#148C00"/>
</g>
</g>
<g id="Group_7">
<g id="Group_8">
<path id="Vector_4" d="M24.7666 4.94189L17.2334 12.5002L24.7666 20.0581C24.9115 19.7652 25.0003 19.4401 25.0003 19.0918V5.9082C25.0003 5.55986 24.9115 5.23477 24.7666 4.94189Z" fill="#148C00"/>
</g>
</g>
</g>
</svg>
