<svg width="18" height="18" viewBox="0 0 18 18" fill="none" xmlns="http://www.w3.org/2000/svg">
<path d="M9 0C7.21997 0 5.47991 0.527841 3.99987 1.51677C2.51983 2.50571 1.36628 3.91131 0.685088 5.55585C0.00389957 7.20038 -0.17433 9.00998 0.172936 10.7558C0.520203 12.5016 1.37737 14.1053 2.63604 15.364C3.89471 16.6226 5.49836 17.4798 7.24419 17.8271C8.99002 18.1743 10.7996 17.9961 12.4442 17.3149C14.0887 16.6337 15.4943 15.4802 16.4832 14.0001C17.4722 12.5201 18 10.78 18 9C17.9973 6.61387 17.0483 4.32623 15.361 2.63898C13.6738 0.951724 11.3861 0.00265914 9 0ZM9 16.7442C7.46835 16.7442 5.97109 16.29 4.69756 15.4391C3.42404 14.5881 2.43145 13.3786 1.84531 11.9636C1.25917 10.5485 1.10581 8.99141 1.40462 7.48918C1.70343 5.98696 2.44099 4.60708 3.52404 3.52403C4.60708 2.44099 5.98696 1.70343 7.48919 1.40462C8.99141 1.1058 10.5485 1.25917 11.9636 1.8453C13.3786 2.43144 14.5881 3.42404 15.4391 4.69756C16.29 5.97108 16.7442 7.46834 16.7442 9C16.742 11.0532 15.9254 13.0217 14.4735 14.4735C13.0217 15.9254 11.0532 16.742 9 16.7442ZM10.0465 5.86046C10.4485 5.85958 10.8468 5.93781 11.2186 6.0907C11.2951 6.12388 11.3774 6.1415 11.4608 6.14253C11.5442 6.14355 11.6269 6.12796 11.7042 6.09668C11.7814 6.06539 11.8517 6.01902 11.9109 5.96028C11.9701 5.90154 12.0169 5.83161 12.0488 5.75456C12.0806 5.67751 12.0968 5.59489 12.0964 5.51152C12.096 5.42815 12.079 5.34569 12.0464 5.26897C12.0137 5.19224 11.9662 5.12278 11.9064 5.06464C11.8467 5.0065 11.7759 4.96084 11.6983 4.93032C11.1745 4.71404 10.6132 4.60337 10.0465 4.60465C9.15863 4.6068 8.29224 4.87795 7.56155 5.38237C6.83086 5.88678 6.27017 6.60078 5.9534 7.43023H4.86503C4.69849 7.43023 4.53878 7.49639 4.42103 7.61414C4.30327 7.7319 4.23712 7.89161 4.23712 8.05814C4.23712 8.22467 4.30327 8.38438 4.42103 8.50213C4.53878 8.61989 4.69849 8.68604 4.86503 8.68604H5.68214C5.67544 8.79153 5.65117 8.89283 5.65117 9C5.65117 9.10716 5.67544 9.20846 5.68298 9.31395H4.86586C4.69933 9.31395 4.53962 9.38011 4.42187 9.49786C4.30411 9.61562 4.23796 9.77533 4.23796 9.94186C4.23796 10.1084 4.30411 10.2681 4.42187 10.3859C4.53962 10.5036 4.69933 10.5698 4.86586 10.5698H5.95424C6.1614 11.1152 6.47528 11.6138 6.8775 12.0364C7.27972 12.459 7.7622 12.7972 8.2967 13.0311C8.8312 13.2649 9.40698 13.3899 9.99035 13.3985C10.5737 13.4071 11.1529 13.2993 11.6941 13.0814C11.8487 13.0193 11.9722 12.8984 12.0376 12.7453C12.103 12.5921 12.1049 12.4192 12.0428 12.2647C11.9808 12.1102 11.8599 11.9866 11.7067 11.9212C11.5535 11.8558 11.3807 11.8539 11.2261 11.916C10.5265 12.1992 9.74803 12.2195 9.03456 11.9733C8.3211 11.727 7.72088 11.2309 7.34484 10.5765H9.576C9.74253 10.5765 9.90224 10.5103 10.02 10.3926C10.1378 10.2748 10.2039 10.1151 10.2039 9.94855C10.2039 9.78202 10.1378 9.62231 10.02 9.50456C9.90224 9.3868 9.74253 9.32065 9.576 9.32065H6.93879C6.92245 9.21441 6.91183 9.10737 6.90698 9C6.91206 8.89486 6.92268 8.79006 6.93879 8.68604H9.57516C9.7417 8.68604 9.90141 8.61989 10.0192 8.50213C10.1369 8.38438 10.2031 8.22467 10.2031 8.05814C10.2031 7.89161 10.1369 7.7319 10.0192 7.61414C9.90141 7.49639 9.7417 7.43023 9.57516 7.43023H7.344C7.61732 6.95463 8.01087 6.55924 8.48521 6.28372C8.95954 6.0082 9.49797 5.86224 10.0465 5.86046Z" fill="#189C03"/>
</svg>
