<svg width="36" height="36" viewBox="0 0 36 36" fill="none" xmlns="http://www.w3.org/2000/svg">
<path d="M35.5063 18C35.5063 8.05879 27.6112 0 17.8718 0C8.13246 0 0.237305 8.05879 0.237305 18C0.237305 26.9847 6.68701 34.433 15.1205 35.7863V23.2097H10.6446V18.0102H15.1205V14.0418C15.1205 9.5342 17.7522 7.04127 21.7795 7.04127C23.7134 7.04127 25.7271 7.3974 25.7271 7.3974V11.8236H23.5041C21.311 11.8236 20.6331 13.2075 20.6331 14.632V18.0102H25.5277L24.7502 23.2097H20.6431V35.7863C29.0766 34.433 35.5263 26.9847 35.5263 18H35.5063Z" fill="#337FFF"/>
<path d="M24.7394 23.1997L25.517 18.0002H20.6224V14.622C20.6224 13.1974 21.3102 11.8136 23.4933 11.8136H25.7163V7.38738C25.7163 7.38738 23.7027 7.03125 21.7687 7.03125C17.7414 7.03125 15.1097 9.52418 15.1097 14.0318V18.0002H10.6338V23.1997H15.1097V35.7763C16.0069 35.9188 16.924 36.0002 17.861 36.0002C18.7981 36.0002 19.7152 35.9289 20.6124 35.7763V23.1997H24.7195H24.7394Z" fill="white"/>
</svg>
