<svg width="27" height="27" viewBox="0 0 27 27" fill="none" xmlns="http://www.w3.org/2000/svg">
<path d="M27 13.5C27 20.9559 20.9559 27 13.5 27C6.04406 27 0 20.9559 0 13.5C0 6.04406 6.04406 0 13.5 0C20.9559 0 27 6.04406 27 13.5Z" fill="#FFD306"/>
<path d="M27 13.4999C27 13.2855 26.9945 13.0721 26.9846 12.8601L20.9972 6.8727L13.5606 7.54939L12.8794 6.86816L13.5 22.623L17.3261 26.4491C22.9183 24.7993 27 19.6266 27 13.4999Z" fill="#FFD306"/>
<path d="M9.39134 6.62476C6.68996 6.62476 4.49997 8.60558 4.49997 11.049C4.49997 12.1136 4.91581 13.0902 5.60853 13.8536L13.5001 22.3748L14.6739 15.5113L13.5001 8.64786C12.6288 7.43041 11.1142 6.62476 9.39134 6.62476Z" fill="#148C00"/>
<path d="M17.6088 6.62476C15.886 6.62476 14.3716 7.43041 13.5001 8.64786V22.3748L21.3916 13.8536C22.0844 13.0902 22.5 12.1136 22.5 11.049C22.5002 8.60558 20.3102 6.62476 17.6088 6.62476Z" fill="#148C00"/>
</svg>
