<svg width="19" height="21" viewBox="0 0 19 21" fill="none" xmlns="http://www.w3.org/2000/svg">
<path d="M0.59375 4.25382H9.63378C9.90624 5.54044 11.0137 6.50636 12.3345 6.50636C13.6553 6.50636 14.7628 5.54048 15.0353 4.25382H18.4062C18.7341 4.25382 19 3.978 19 3.63782C19 3.29764 18.7341 3.02182 18.4062 3.02182H15.035C14.762 1.73585 13.653 0.769318 12.3345 0.769318C11.0154 0.769318 9.90687 1.7357 9.634 3.02182H0.59375C0.265852 3.02182 0 3.29764 0 3.63782C0 3.978 0.265852 4.25382 0.59375 4.25382ZM10.7572 3.63944C10.7572 3.63724 10.7572 3.63501 10.7572 3.63281C10.7598 2.73319 11.4674 2.00135 12.3345 2.00135C13.2005 2.00135 13.9081 2.73219 13.9118 3.63139L13.9119 3.64044C13.9106 4.5416 13.2035 5.27441 12.3345 5.27441C11.4659 5.27441 10.7591 4.54233 10.7571 3.64171L10.7572 3.63944ZM18.4062 17.0158H15.035C14.762 15.7298 13.653 14.7632 12.3345 14.7632C11.0154 14.7632 9.90687 15.7297 9.634 17.0158H0.59375C0.265852 17.0158 0 17.2915 0 17.6318C0 17.972 0.265852 18.2477 0.59375 18.2477H9.63378C9.90624 19.5344 11.0137 20.5003 12.3345 20.5003C13.6553 20.5003 14.7628 19.5344 15.0353 18.2477H18.4062C18.7341 18.2477 19 17.972 19 17.6318C19 17.2915 18.7341 17.0158 18.4062 17.0158ZM12.3345 19.2683C11.4659 19.2683 10.7591 18.5362 10.7571 17.6356L10.7572 17.6334C10.7572 17.6311 10.7572 17.6289 10.7572 17.6267C10.7598 16.7271 11.4674 15.9952 12.3345 15.9952C13.2005 15.9952 13.9081 16.7261 13.9118 17.6252L13.9119 17.6343C13.9107 18.5356 13.2036 19.2683 12.3345 19.2683ZM18.4062 10.0188H9.36622C9.09376 8.73218 7.98627 7.7663 6.66547 7.7663C5.34468 7.7663 4.23719 8.73218 3.96473 10.0188H0.59375C0.265852 10.0188 0 10.2946 0 10.6348C0 10.975 0.265852 11.2508 0.59375 11.2508H3.96503C4.23804 12.5367 5.34702 13.5033 6.66547 13.5033C7.98464 13.5033 9.09313 12.5369 9.366 11.2508H18.4062C18.7341 11.2508 19 10.975 19 10.6348C19 10.2946 18.7341 10.0188 18.4062 10.0188ZM8.24285 10.6332C8.24285 10.6354 8.24281 10.6376 8.24281 10.6398C8.24021 11.5394 7.53265 12.2713 6.66547 12.2713C5.79953 12.2713 5.09193 11.5404 5.08818 10.6413L5.08807 10.6323C5.08937 9.73098 5.79648 8.99829 6.66547 8.99829C7.53406 8.99829 8.24092 9.73033 8.24288 10.631L8.24285 10.6332Z" fill="#6D6D6D"/>
</svg>
