<svg width="20" height="19" viewBox="0 0 20 19" fill="none" xmlns="http://www.w3.org/2000/svg">
<g id="Favori icon">
<path id="Vector" d="M18.3932 1.8618C16.218 -0.620263 12.6795 -0.620263 10.5049 1.8618L9.99982 2.43797L9.49503 1.8618C7.32046 -0.620599 3.78163 -0.620599 1.60706 1.8618C-0.52336 4.29346 -0.537194 8.14791 1.57498 10.8279C3.50142 13.2713 9.18303 18.5502 9.42409 18.7736C9.58774 18.9255 9.78465 18.9994 9.98039 18.9994C9.98687 18.9994 9.99334 18.9994 9.99952 18.999C10.202 19.0098 10.406 18.9305 10.575 18.7736C10.816 18.5502 16.4982 13.2713 18.4252 10.8275C20.5371 8.14791 20.5233 4.29346 18.3932 1.8618ZM17.1125 9.47932C15.6105 11.3839 11.4818 15.3119 9.99952 16.7058C8.51723 15.3122 4.38944 11.3845 2.88772 9.47965C1.41427 7.61038 1.40043 4.94825 2.85564 3.28727C3.59885 2.43931 4.57487 2.01499 5.5509 2.01499C6.52692 2.01499 7.50295 2.43897 8.24615 3.28727L9.35639 4.5545C9.48855 4.70535 9.65515 4.79539 9.82998 4.82697C10.1137 4.89651 10.4216 4.80614 10.6424 4.55484L11.7532 3.28727C13.2399 1.59101 15.6582 1.59135 17.144 3.28727C18.5992 4.94825 18.5854 7.61038 17.1125 9.47932Z" fill="white"/>
</g>
</svg>
