<svg width="24" height="30" viewBox="0 0 24 30" fill="none" xmlns="http://www.w3.org/2000/svg">
<path d="M24 11.9466C24 21.3904 12 30 12 30C12 30 0 21.1235 0 11.9466C0 5.33927 5.36313 0 12 0C18.6369 0 24 5.33927 24 11.9466Z" fill="#FFD306"/>
<path d="M17.2628 16.5183V10.2447L12.0002 6.00665L6.7041 10.2447V16.5183C6.7041 16.9521 7.07282 17.3192 7.50857 17.3192H16.4583C16.9276 17.3192 17.2628 16.9855 17.2628 16.5183Z" fill="#25AC10"/>
<path d="M10.3242 11.3793H13.6762V17.3192H10.3242V11.3793Z" fill="#FFD306"/>
<path d="M19.4413 11.2124C19.4413 11.2124 12.7374 5.83978 12.3687 5.57282C12.1005 5.33923 11.8324 5.40597 11.6313 5.57282C10.9273 6.14012 4.69271 11.1457 4.59215 11.2458C4.324 11.446 4.29048 11.8131 4.49159 12.08C4.69271 12.347 5.06143 12.3804 5.32958 12.1802L12.0335 6.80752L18.7374 12.1802C19.0056 12.3804 19.3743 12.347 19.5754 12.08C19.7095 11.7797 19.676 11.4126 19.4413 11.2124Z" fill="#25AC10"/>
</svg>
