<svg width="36" height="36" viewBox="0 0 36 36" fill="none" xmlns="http://www.w3.org/2000/svg">
<path d="M17.6345 36C27.3738 36 35.269 27.9411 35.269 18C35.269 8.05887 27.3738 0 17.6345 0C7.89524 0 0 8.05887 0 18C0 27.9411 7.89524 36 17.6345 36Z" fill="url(#paint0_linear_472_2833)"/>
<path d="M23.1068 11.1929C22.4389 11.1929 21.8906 11.7423 21.8906 12.4343C21.8906 13.1262 22.4289 13.6756 23.1068 13.6756C23.7847 13.6756 24.323 13.1262 24.323 12.4343C24.323 11.7423 23.7847 11.1929 23.1068 11.1929Z" fill="white"/>
<path d="M17.7239 12.7798C14.9127 12.7798 12.6299 15.1099 12.6299 17.9793C12.6299 20.8488 14.9127 23.1789 17.7239 23.1789C20.535 23.1789 22.8178 20.8488 22.8178 17.9793C22.8178 15.1099 20.535 12.7798 17.7239 12.7798ZM17.7239 21.3066C15.9295 21.3066 14.4641 19.8109 14.4641 17.9793C14.4641 16.1478 15.9295 14.652 17.7239 14.652C19.5182 14.652 20.9836 16.1478 20.9836 17.9793C20.9836 19.8109 19.5182 21.3066 17.7239 21.3066Z" fill="white"/>
<path d="M21.7614 28.5312H13.5073C10.0781 28.5312 7.29688 25.6821 7.29688 22.192V13.7669C7.29688 10.2666 10.0781 7.42773 13.5073 7.42773H21.7614C25.1906 7.42773 27.9718 10.2666 27.9718 13.7669V22.192C27.9718 25.6923 25.1806 28.5312 21.7614 28.5312ZM13.5073 9.41191C11.1547 9.41191 9.24076 11.3656 9.24076 13.7669V22.192C9.24076 24.5934 11.1547 26.547 13.5073 26.547H21.7614C24.114 26.547 26.0279 24.5934 26.0279 22.192V13.7669C26.0279 11.3656 24.114 9.41191 21.7614 9.41191H13.5073Z" fill="white"/>
<defs>
<linearGradient id="paint0_linear_472_2833" x1="1.11649" y1="3.76484" x2="36.9756" y2="33.433" gradientUnits="userSpaceOnUse">
<stop stop-color="#FBE18A"/>
<stop offset="0.21" stop-color="#FCBB45"/>
<stop offset="0.38" stop-color="#F75274"/>
<stop offset="0.52" stop-color="#D53692"/>
<stop offset="0.74" stop-color="#8F39CE"/>
<stop offset="1" stop-color="#5B4FE9"/>
</linearGradient>
</defs>
</svg>
