<svg width="28" height="28" viewBox="0 0 28 28" fill="none" xmlns="http://www.w3.org/2000/svg">
<g id="file 1">
<g id="Layer 2">
<path id="Vector" d="M24.7923 3.49992V24.4999C24.7893 25.0405 24.5732 25.558 24.1909 25.9402C23.8087 26.3224 23.2912 26.5385 22.7507 26.5416H5.25065C4.71011 26.5385 4.19258 26.3224 3.81036 25.9402C3.42813 25.558 3.21205 25.0405 3.20898 24.4999V8.60992C3.21161 8.10611 3.39833 7.62064 3.73398 7.24492L8.33065 2.13492C8.52417 1.92184 8.7601 1.75157 9.0233 1.63504C9.28649 1.51851 9.57114 1.4583 9.85898 1.45825H22.7507C23.2912 1.46131 23.8087 1.6774 24.1909 2.05963C24.5732 2.44185 24.7893 2.95938 24.7923 3.49992Z" fill="#0DB561"/>
<path id="Vector_2" d="M10.7923 1.45825V6.99992C10.7893 7.54046 10.5732 8.05799 10.1909 8.44021C9.80872 8.82244 9.29119 9.03852 8.75065 9.04159H3.20898V8.60992C3.21161 8.10611 3.39833 7.62064 3.73398 7.24492L8.33065 2.13492C8.52417 1.92184 8.7601 1.75157 9.0233 1.63504C9.28649 1.51851 9.57114 1.4583 9.85898 1.45825H10.7923Z" fill="#145638"/>
<g id="Group">
<path id="Vector_3" d="M19.25 20.7083H8.75C8.51794 20.7083 8.29538 20.8004 8.13128 20.9645C7.96719 21.1286 7.875 21.3512 7.875 21.5833C7.875 21.8153 7.96719 22.0379 8.13128 22.202C8.29538 22.3661 8.51794 22.4583 8.75 22.4583H19.25C19.4821 22.4583 19.7046 22.3661 19.8687 22.202C20.0328 22.0379 20.125 21.8153 20.125 21.5833C20.125 21.3512 20.0328 21.1286 19.8687 20.9645C19.7046 20.8004 19.4821 20.7083 19.25 20.7083Z" fill="white"/>
<path id="Vector_4" d="M19.25 16.0415H8.75C8.51794 16.0415 8.29538 16.1337 8.13128 16.2978C7.96719 16.4619 7.875 16.6844 7.875 16.9165C7.875 17.1486 7.96719 17.3711 8.13128 17.5352C8.29538 17.6993 8.51794 17.7915 8.75 17.7915H19.25C19.4821 17.7915 19.7046 17.6993 19.8687 17.5352C20.0328 17.3711 20.125 17.1486 20.125 16.9165C20.125 16.6844 20.0328 16.4619 19.8687 16.2978C19.7046 16.1337 19.4821 16.0415 19.25 16.0415Z" fill="white"/>
<path id="Vector_5" d="M19.2493 11.375H11.666C11.434 11.375 11.2114 11.4672 11.0473 11.6313C10.8832 11.7954 10.791 12.0179 10.791 12.25C10.791 12.4821 10.8832 12.7046 11.0473 12.8687C11.2114 13.0328 11.434 13.125 11.666 13.125H19.2493C19.4814 13.125 19.704 13.0328 19.8681 12.8687C20.0322 12.7046 20.1243 12.4821 20.1243 12.25C20.1243 12.0179 20.0322 11.7954 19.8681 11.6313C19.704 11.4672 19.4814 11.375 19.2493 11.375Z" fill="white"/>
<path id="Vector_6" d="M19.25 6.70825H14C13.7679 6.70825 13.5454 6.80044 13.3813 6.96453C13.2172 7.12863 13.125 7.35119 13.125 7.58325C13.125 7.81532 13.2172 8.03788 13.3813 8.20197C13.5454 8.36606 13.7679 8.45825 14 8.45825H19.25C19.4821 8.45825 19.7046 8.36606 19.8687 8.20197C20.0328 8.03788 20.125 7.81532 20.125 7.58325C20.125 7.35119 20.0328 7.12863 19.8687 6.96453C19.7046 6.80044 19.4821 6.70825 19.25 6.70825Z" fill="white"/>
<path id="Vector_7" d="M8.75 13.125C9.23325 13.125 9.625 12.7332 9.625 12.25C9.625 11.7668 9.23325 11.375 8.75 11.375C8.26675 11.375 7.875 11.7668 7.875 12.25C7.875 12.7332 8.26675 13.125 8.75 13.125Z" fill="white"/>
</g>
</g>
</g>
</svg>
