<svg width="38" height="25" viewBox="0 0 38 25" fill="none" xmlns="http://www.w3.org/2000/svg">
<g id="Payment Method/Klarna">
<rect width="37.5" height="25" rx="5" fill="#FEB4C7"/>
<g id="Vector">
<path d="M5.54897 15.7212H4.0625V9.0625H5.54897V15.7212Z" fill="white"/>
<path d="M9.26008 9.0625H7.80585C7.80585 10.2879 7.25784 11.4126 6.30239 12.1484L5.72625 12.592L7.95862 15.7215H9.79405L7.73998 12.8419C8.71364 11.8451 9.26008 10.5041 9.26008 9.0625Z" fill="white"/>
<path d="M11.631 15.7194H10.2272V9.06378H11.631V15.7194Z" fill="white"/>
<path fill-rule="evenodd" clip-rule="evenodd" d="M15.8723 11.1154V11.41C15.4936 11.1443 15.0364 10.9882 14.5433 10.9882C13.2382 10.9882 12.1803 12.0758 12.1803 13.4175C12.1803 14.7592 13.2382 15.8469 14.5433 15.8469C15.0364 15.8469 15.4936 15.6908 15.8723 15.4252V15.7194H17.2132V11.1154H15.8723ZM15.8683 13.4175C15.8683 14.0718 15.3243 14.6021 14.6533 14.6021C13.9824 14.6021 13.4384 14.0718 13.4384 13.4175C13.4384 12.7633 13.9824 12.2331 14.6533 12.2331C15.3243 12.2331 15.8683 12.7633 15.8683 13.4175Z" fill="white"/>
<path fill-rule="evenodd" clip-rule="evenodd" d="M30.0175 11.41V11.1154H31.3583V15.7194H30.0175V15.4252C29.6388 15.6908 29.1816 15.8469 28.6884 15.8469C27.3833 15.8469 26.3254 14.7592 26.3254 13.4175C26.3254 12.0758 27.3833 10.9882 28.6884 10.9882C29.1816 10.9882 29.6388 11.1443 30.0175 11.41ZM28.7985 14.6021C29.4695 14.6021 30.0134 14.0718 30.0134 13.4175C30.0134 12.7633 29.4695 12.2331 28.7985 12.2331C28.1275 12.2331 27.5836 12.7633 27.5836 13.4175C27.5836 14.0718 28.1275 14.6021 28.7985 14.6021Z" fill="white"/>
<path d="M23.9428 10.9916C23.4072 10.9916 22.9003 11.1626 22.5614 11.6342V11.1157H21.2264V15.7194H22.5778V13.3C22.5778 12.5999 23.0345 12.2571 23.5843 12.2571C24.1736 12.2571 24.5123 12.619 24.5123 13.2905V15.7194H25.8515V12.7917C25.8515 11.7202 25.0229 10.9916 23.9428 10.9916Z" fill="white"/>
<path d="M19.2873 11.1155V11.7152C19.5561 11.3555 20.0569 11.1158 20.6014 11.1158V12.4555C20.5988 12.4554 20.5964 12.4553 20.5939 12.4552C20.5911 12.455 20.5883 12.4549 20.5854 12.4549C20.0549 12.4549 19.2904 12.8447 19.2904 13.5699V15.7194H17.9146V11.1155H19.2873Z" fill="white"/>
<path d="M31.9402 14.9515C31.9402 14.4737 32.3169 14.0864 32.7816 14.0864C33.2462 14.0864 33.623 14.4737 33.623 14.9515C33.623 15.4291 33.2462 15.8165 32.7816 15.8165C32.3169 15.8165 31.9402 15.4291 31.9402 14.9515Z" fill="white"/>
</g>
</g>
</svg>
