<svg width="28" height="20" viewBox="0 0 28 20" fill="none" xmlns="http://www.w3.org/2000/svg">
<g id="Vector">
<path id="Vector_2" d="M26.2497 8.76536H4.26723L10.8835 2.14911C11.0029 2.0338 11.0981 1.89587 11.1636 1.74337C11.2291 1.59086 11.2636 1.42684 11.265 1.26086C11.2665 1.09489 11.2349 0.930288 11.172 0.776668C11.1092 0.623047 11.0163 0.483482 10.899 0.366116C10.7816 0.24875 10.642 0.155934 10.4884 0.0930829C10.3348 0.0302318 10.1702 -0.00139507 10.0042 4.71963e-05C9.83826 0.00148947 9.67423 0.0359723 9.52173 0.101484C9.36922 0.166995 9.23129 0.262223 9.11598 0.381611L0.365983 9.13161C0.131644 9.36602 0 9.6839 0 10.0154C0 10.3468 0.131644 10.6647 0.365983 10.8991L9.11598 19.6491C9.35174 19.8768 9.66749 20.0028 9.99523 20C10.323 19.9971 10.6365 19.8656 10.8683 19.6339C11.1 19.4021 11.2315 19.0886 11.2343 18.7609C11.2372 18.4331 11.1112 18.1174 10.8835 17.8816L4.26723 11.2654H26.2497C26.5813 11.2654 26.8992 11.1337 27.1336 10.8992C27.368 10.6648 27.4997 10.3469 27.4997 10.0154C27.4997 9.68384 27.368 9.3659 27.1336 9.13148C26.8992 8.89706 26.5813 8.76536 26.2497 8.76536Z" fill="black"/>
</g>
</svg>
