<svg width="19" height="19" viewBox="0 0 19 19" fill="none" xmlns="http://www.w3.org/2000/svg">
<g id="padlock 1" clip-path="url(#clip0_1111_4150)">
<path id="Vector" d="M14.8438 7.125H14.25V4.75C14.25 2.13038 12.1196 0 9.5 0C6.88037 0 4.75 2.13038 4.75 4.75V7.125H4.15625C3.17458 7.125 2.375 7.92379 2.375 8.90625V17.2188C2.375 18.2012 3.17458 19 4.15625 19H14.8438C15.8254 19 16.625 18.2012 16.625 17.2188V8.90625C16.625 7.92379 15.8254 7.125 14.8438 7.125ZM6.33333 4.75C6.33333 3.00358 7.75358 1.58333 9.5 1.58333C11.2464 1.58333 12.6667 3.00358 12.6667 4.75V7.125H6.33333V4.75ZM10.2917 13.2383V15.0417C10.2917 15.4787 9.93779 15.8333 9.5 15.8333C9.06221 15.8333 8.70833 15.4787 8.70833 15.0417V13.2383C8.23729 12.9635 7.91667 12.4585 7.91667 11.875C7.91667 11.0018 8.62679 10.2917 9.5 10.2917C10.3732 10.2917 11.0833 11.0018 11.0833 11.875C11.0833 12.4585 10.7627 12.9635 10.2917 13.2383Z" fill="#B9B9B9"/>
</g>
<defs>
<clipPath id="clip0_1111_4150">
<rect width="19" height="19" fill="white"/>
</clipPath>
</defs>
</svg>
