<svg width="30" height="30" viewBox="0 0 30 30" fill="none" xmlns="http://www.w3.org/2000/svg">
<path fill-rule="evenodd" clip-rule="evenodd" d="M5.3 19.1V21.4C5.3 23.9415 7.35965 26 9.9 26H21.4C23.9415 26 26 23.9415 26 21.4C26 17.5716 26 11.4295 26 7.6C26 5.05965 23.9415 3 21.4 3C18.1122 3 13.189 3 9.9 3C7.35965 3 5.3 5.05965 5.3 7.6V9.9C5.3 10.5348 5.8152 11.05 6.45 11.05C7.0848 11.05 7.6 10.5348 7.6 9.9C7.6 9.9 7.6 8.82245 7.6 7.6C7.6 6.3304 8.6304 5.3 9.9 5.3H21.4C22.6707 5.3 23.7 6.3304 23.7 7.6V21.4C23.7 22.6707 22.6707 23.7 21.4 23.7C18.1122 23.7 13.189 23.7 9.9 23.7C8.6304 23.7 7.6 22.6707 7.6 21.4C7.6 20.1787 7.6 19.1 7.6 19.1C7.6 18.4663 7.0848 17.95 6.45 17.95C5.8152 17.95 5.3 18.4663 5.3 19.1ZM14.0239 13.35L12.5369 11.8642C12.0884 11.4145 12.0884 10.6866 12.5369 10.2369C12.9866 9.78845 13.7146 9.78845 14.1631 10.2369L17.6131 13.6869C18.0627 14.1366 18.0627 14.8645 17.6131 15.3142L14.1631 18.7642C13.7146 19.2127 12.9866 19.2127 12.5369 18.7642C12.0884 18.3145 12.0884 17.5866 12.5369 17.1369L14.0239 15.65H4.15C3.5152 15.65 3 15.1348 3 14.5C3 13.8664 3.5152 13.35 4.15 13.35H14.0239Z" fill="#FF9900"/>
</svg>
