<svg width="22" height="16" viewBox="0 0 22 16" fill="none" xmlns="http://www.w3.org/2000/svg">
<g id="Group">
<g id="Group_2">
<path id="Vector" d="M20.0664 0H1.93359C0.865262 0 0 0.900533 0 2V14C0 15.106 0.871621 16 1.93359 16H20.0664C21.1258 16 22 15.1098 22 14V2C22 0.902489 21.1382 0 20.0664 0ZM19.7956 1.33333C19.4006 1.73978 12.602 8.7348 12.3673 8.97631C12.002 9.35409 11.5165 9.56209 11 9.56209C10.4835 9.56209 9.99797 9.35404 9.63153 8.97507C9.47366 8.81262 2.75013 1.89484 2.20438 1.33333H19.7956ZM1.28906 13.7286V2.27222L6.85945 8.00356L1.28906 13.7286ZM2.2052 14.6667L7.77339 8.94387L8.72124 9.91911C9.32993 10.5487 10.1392 10.8954 11 10.8954C11.8608 10.8954 12.6701 10.5487 13.2776 9.92036L14.2266 8.94387L19.7948 14.6667H2.2052ZM20.7109 13.7286L15.1406 8.00356L20.7109 2.27222V13.7286Z" fill="#8C969E"/>
</g>
</g>
</svg>
