<svg width="66" height="45" viewBox="0 0 66 45" fill="none" xmlns="http://www.w3.org/2000/svg">
<rect x="0.25" width="65.625" height="45" rx="6" fill="white"/>
<path fill-rule="evenodd" clip-rule="evenodd" d="M33.5312 32.1693C31.2971 34.0973 28.3989 35.2612 25.2321 35.2612C18.1658 35.2612 12.4375 29.4664 12.4375 22.3181C12.4375 15.1698 18.1658 9.375 25.2321 9.375C28.3989 9.375 31.2971 10.5389 33.5312 12.4669C35.7654 10.5389 38.6636 9.375 41.8304 9.375C48.8967 9.375 54.625 15.1698 54.625 22.3181C54.625 29.4664 48.8967 35.2612 41.8304 35.2612C38.6636 35.2612 35.7654 34.0973 33.5312 32.1693Z" fill="#ED0006"/>
<path fill-rule="evenodd" clip-rule="evenodd" d="M33.5312 32.1693C36.2823 29.7953 38.0266 26.2628 38.0266 22.3181C38.0266 18.3734 36.2823 14.8409 33.5312 12.4669C35.7654 10.5389 38.6636 9.375 41.8304 9.375C48.8967 9.375 54.625 15.1698 54.625 22.3181C54.625 29.4664 48.8967 35.2612 41.8304 35.2612C38.6636 35.2612 35.7654 34.0973 33.5312 32.1693Z" fill="#F9A000"/>
<path fill-rule="evenodd" clip-rule="evenodd" d="M33.5315 32.1692C36.2824 29.7952 38.0268 26.2627 38.0268 22.3181C38.0268 18.3735 36.2824 14.841 33.5315 12.467C30.7805 14.841 29.0361 18.3735 29.0361 22.3181C29.0361 26.2627 30.7805 29.7952 33.5315 32.1692Z" fill="#FF5E00"/>
</svg>
