<svg width="15" height="22" viewBox="0 0 15 22" fill="none" xmlns="http://www.w3.org/2000/svg">
<path d="M14.1666 8.57701C13.9407 8.57701 13.7456 8.65681 13.5806 8.8165C13.4157 8.97661 13.3333 9.16606 13.3333 9.38452V11.0002C13.3333 12.5571 12.7624 13.8886 11.6211 14.9949C10.4795 16.1011 9.10575 16.6542 7.5 16.6542C5.89401 16.6542 4.52021 16.1011 3.37889 14.9949C2.23733 13.8886 1.66667 12.5571 1.66667 11.0002V9.38475C1.66667 9.16629 1.58406 8.97711 1.41934 8.81673C1.25439 8.65708 1.05894 8.57724 0.833316 8.57724C0.607448 8.57724 0.411999 8.65708 0.247327 8.81673C0.0823361 8.97684 0 9.16629 0 9.38475V11.0002C0 12.8598 0.639858 14.4772 1.92057 15.8526C3.20076 17.2286 4.78291 18.0174 6.66664 18.2188V19.8851H3.33334C3.10747 19.8851 2.91203 19.9645 2.74731 20.1246C2.58236 20.2842 2.49999 20.4736 2.49999 20.6925C2.49999 20.911 2.58236 21.1002 2.74731 21.2606C2.91203 21.4203 3.10743 21.5001 3.33334 21.5001H11.6667C11.8923 21.5001 12.0877 21.4203 12.2527 21.2606C12.4174 21.1005 12.5 20.911 12.5 20.6925C12.5 20.4736 12.4174 20.2845 12.2527 20.1246C12.0877 19.9645 11.8923 19.8851 11.6667 19.8851H8.33335V18.2188C10.2169 18.0171 11.7987 17.2283 13.0794 15.8526C14.3596 14.4771 15 12.8598 15 11.0002V9.38475C15 9.16629 14.9173 8.97711 14.7526 8.81673C14.5875 8.65704 14.3923 8.57701 14.1666 8.57701Z" fill="#707070"/>
<path d="M5.53623 8.36279H3.3335V9.84406H5.53623C5.87274 9.84406 6.14539 10.1083 6.14539 10.4345C6.14539 10.7607 5.87274 11.0249 5.53623 11.0249H3.33473C3.34082 12.1248 3.74776 13.0676 4.55743 13.8524C5.37323 14.6436 6.35445 15.0385 7.50015 15.0385C8.64589 15.0385 9.62688 14.6436 10.4429 13.8524C11.2523 13.0676 11.6595 12.1248 11.6656 11.0249H9.54088C9.20433 11.0249 8.93168 10.7607 8.93168 10.4345C8.93168 10.1083 9.20433 9.84406 9.54088 9.84406H11.6668V8.36279H9.54088C9.20433 8.36279 8.93168 8.09849 8.93168 7.77236C8.93168 7.44623 9.20433 7.18192 9.54088 7.18192H11.6668V5.60757H9.54088C9.20433 5.60757 8.93168 5.34327 8.93168 5.01714C8.93168 4.69101 9.20433 4.4267 9.54088 4.4267H11.6617C11.635 3.36465 11.2309 2.4504 10.4432 1.68611C9.62712 0.895422 8.64613 0.500061 7.50039 0.500061C6.35445 0.500061 5.37347 0.895422 4.55767 1.68611C3.76966 2.45036 3.36591 3.36461 3.33911 4.4267H5.53671C5.87322 4.4267 6.14587 4.69097 6.14587 5.01714C6.14587 5.34331 5.87322 5.60757 5.53671 5.60757H3.33397V7.18192H5.53671C5.87322 7.18192 6.14587 7.44619 6.14587 7.77236C6.14587 8.09853 5.87274 8.36279 5.53623 8.36279Z" fill="#707070"/>
</svg>
