<svg width="30" height="30" viewBox="0 0 30 30" fill="none" xmlns="http://www.w3.org/2000/svg">
<path fill-rule="evenodd" clip-rule="evenodd" d="M13.5975 29C11.5195 29 9.7533 27.2598 9.7533 25.0977C9.7533 24.8867 9.96109 24.7285 10.1689 24.7285C10.3247 24.7285 10.4806 24.834 10.5325 24.9922H16.7143C16.7663 24.834 16.9221 24.7285 17.078 24.7285C17.2858 24.7285 17.4936 24.8867 17.4936 25.0977C17.4416 27.2598 15.7273 29 13.5975 29Z" fill="#FF9C00"/>
<path fill-rule="evenodd" clip-rule="evenodd" d="M11.8311 6.79883C11.7272 6.79883 11.6233 6.74609 11.5714 6.69336C11.5194 6.64062 11.4155 6.53516 11.4155 6.42969V2.94922C11.4155 2.42188 11.8311 2 12.3506 2H14.896C15.3636 2 15.7792 2.42188 15.7792 2.94922V6.42969C15.7792 6.53516 15.7792 6.64062 15.6233 6.74609C15.5714 6.79883 15.4155 6.85156 15.3116 6.79883C14.7922 6.64062 14.2207 6.58789 13.5973 6.58789C12.974 6.58789 12.4025 6.64062 11.8831 6.79883H11.8311Z" fill="#FFD306"/>
<path fill-rule="evenodd" clip-rule="evenodd" d="M22.8442 25.5195H4.4026C4.24675 25.5195 4.14286 25.4141 4.03896 25.3086C3.98701 25.2031 3.98701 25.0977 4.03896 24.9395L5.54545 21.7754V14.0234C5.54545 9.48828 9.18182 5.79688 13.6494 5.79688C16.4545 5.79688 19.1558 7.32617 20.6104 9.80469C20.6623 9.91016 20.6623 9.96289 20.6623 10.0684L20.5584 10.543C20.5584 10.6484 20.4545 10.8066 20.2987 10.8594C20.1429 10.9121 19.987 10.9648 19.8312 11.0703C19.7273 11.123 19.5714 11.123 19.4156 11.0176L18.2727 10.1211L17.4935 10.9648L18.3247 12.125C18.4286 12.2305 18.4286 12.3887 18.3766 12.5469C18.3247 12.7051 18.2208 12.8633 18.2208 13.0215C18.1688 13.1797 18.0649 13.2852 17.9091 13.2852L16.4545 13.5488V14.6562L17.9091 14.8672C18.0649 14.8672 18.1688 14.9727 18.2208 15.1309C18.2208 15.2891 18.3247 15.4473 18.3766 15.6055C18.4805 15.7637 18.4286 15.9219 18.3247 16.0273L17.4935 17.1875L18.2727 17.9785L19.4156 17.1348C19.5195 17.0293 19.6753 17.0293 19.8312 17.082C19.987 17.1875 20.1948 17.2402 20.3506 17.293C20.4545 17.3457 20.5584 17.4512 20.6104 17.6094L20.7662 19.0332H21.3377C21.5455 19.0332 21.7532 19.1914 21.7532 19.4023V21.8281L23.2078 24.9922C23.3117 25.0977 23.2597 25.2559 23.2078 25.3613C23.1039 25.4141 23 25.5195 22.8442 25.5195Z" fill="#FFD306"/>
<path fill-rule="evenodd" clip-rule="evenodd" d="M8.09093 14.4453C7.88314 14.4453 7.72729 14.2344 7.72729 14.0234C7.72729 10.7539 10.3766 8.06445 13.5974 8.06445C14.3766 8.06445 15.1559 8.22266 15.9351 8.53906C16.1429 8.64453 16.1948 8.85547 16.1429 9.06641C16.039 9.22461 15.8312 9.33008 15.6234 9.22461C15 8.96094 14.3247 8.85547 13.5974 8.85547C10.7922 8.85547 8.50652 11.1758 8.50652 14.0234C8.50652 14.2344 8.29872 14.4453 8.09093 14.4453Z" fill="white"/>
<path fill-rule="evenodd" clip-rule="evenodd" d="M22.2727 19.7715H20.4545C20.2987 19.7715 20.1948 19.666 20.1948 19.5078L19.935 17.873C19.8831 17.873 19.7792 17.8203 19.7272 17.8203L18.3766 18.7695C18.2727 18.875 18.1169 18.875 18.013 18.7695L16.7143 17.4512C16.6104 17.3457 16.6104 17.1875 16.7143 17.082L17.6493 15.7109C17.6493 15.6582 17.5974 15.5527 17.5974 15.5L15.987 15.2891C15.7792 15.2363 15.6753 15.0781 15.6753 14.9727V13.127C15.6753 12.9688 15.7792 12.8105 15.987 12.8105L17.5454 12.5996C17.5974 12.4941 17.5974 12.3887 17.6493 12.3359L16.6623 11.0176C16.6104 10.9121 16.6104 10.7012 16.7143 10.5957L17.961 9.33008C18.0649 9.22461 18.2727 9.22461 18.3766 9.27734L19.6753 10.2793C19.7792 10.2266 19.8311 10.2266 19.935 10.1738L20.1428 8.53906C20.1948 8.38086 20.2987 8.27539 20.4545 8.27539H22.2727C22.4285 8.27539 22.5324 8.38086 22.5844 8.53906L22.7922 10.1738C22.8961 10.2266 22.948 10.2266 23.0519 10.2793L24.3506 9.27734C24.4545 9.22461 24.6104 9.22461 24.7143 9.33008L26.013 10.5957C26.1169 10.7012 26.1169 10.9121 26.013 11.0176L25.0779 12.3359C25.0779 12.3887 25.1298 12.4941 25.1818 12.5996L26.7402 12.8105C26.8961 12.8105 27 12.9688 27 13.127V14.9199C27 15.0781 26.8961 15.2363 26.7402 15.2363L25.1818 15.4473C25.1298 15.5527 25.0779 15.6055 25.0779 15.7109L26.0649 17.0293C26.1169 17.1348 26.1169 17.3457 26.013 17.4512L24.7662 18.7168C24.6623 18.8223 24.4545 18.8223 24.3506 18.7695L23.0519 17.7676C23 17.8203 22.8961 17.8203 22.7922 17.873L22.5844 19.5078C22.5324 19.666 22.4285 19.7715 22.2727 19.7715ZM21.3376 16.3965C20.0909 16.3965 19 15.3418 19 14.0234C19 12.7051 20.0909 11.6504 21.3376 11.6504C22.6363 11.6504 23.6753 12.7578 23.6753 14.0234C23.6753 15.3418 22.6363 16.3965 21.3376 16.3965Z" fill="#148C00"/>
</svg>
