<svg width="27" height="27" viewBox="0 0 27 27" fill="none" xmlns="http://www.w3.org/2000/svg">
<g id="Group">
<path id="Vector" d="M27 13.5C27 20.9558 20.9558 27 13.5 27C6.04415 27 0 20.9558 0 13.5C0 6.04415 6.04415 0 13.5 0C20.9558 0 27 6.04415 27 13.5Z" fill="#FFD306"/>
<path id="Vector_2" d="M6.49023 16.9655L16.2451 26.7204C21.4978 25.6351 25.6344 21.4985 26.7197 16.2459L16.9648 6.49097L6.49023 16.9655Z" fill="#FFD306"/>
<g id="Group_2">
<path id="Vector_3" d="M13.4996 6.64466C12.4986 6.64466 11.3422 5.82939 10.4717 6.19035C9.5693 6.56456 9.33215 7.97251 8.65209 8.65258C7.97208 9.33259 6.56407 9.56978 6.18987 10.4722C5.8289 11.3427 6.64417 12.4991 6.64417 13.5001C6.64417 14.5011 5.82895 15.6576 6.18987 16.5281C6.56407 17.4305 7.97202 17.6676 8.65209 18.3477C9.3321 19.0277 9.5693 20.4357 10.4717 20.8099C11.3422 21.1709 12.4986 20.3556 13.4996 20.3556L16.9087 12.6428L13.4996 6.64466Z" fill="#00D08B"/>
<path id="Vector_4" d="M13.5 6.64466V20.3556C14.501 20.3556 15.6575 21.1709 16.528 20.8099C17.4303 20.4357 17.6675 19.0277 18.3476 18.3477C19.0276 17.6677 20.4356 17.4305 20.8098 16.5281C21.1707 15.6576 20.3555 14.5011 20.3555 13.5001C20.3555 12.4991 21.1707 11.3427 20.8098 10.4722C20.4356 9.56978 19.0276 9.33264 18.3476 8.65258C17.6675 7.97257 17.4303 6.56456 16.528 6.19035C15.6575 5.82939 14.501 6.64466 13.5 6.64466Z" fill="#00B479"/>
<g id="Group_3">
<g id="Group_4">
<g id="Group_5">
<g id="Group_6">
<g id="Group_7">
<g id="Group_8">
<g id="Group_9">
<path id="Vector_5" d="M16.9088 13.5002L13.4997 18.8183C10.5627 18.8183 8.18164 16.4373 8.18164 13.5002C8.18164 10.5631 10.5627 8.18213 13.4997 8.18213L16.9088 13.5002Z" fill="#00EC9D"/>
</g>
</g>
</g>
</g>
<g id="Group_10">
<g id="Group_11">
<g id="Group_12">
<g id="Group_13">
<path id="Vector_6" d="M18.8181 13.5002C18.8181 16.4373 16.4371 18.8183 13.5 18.8183V8.18213C16.4371 8.18213 18.8181 10.5631 18.8181 13.5002Z" fill="#00D08B"/>
</g>
</g>
</g>
</g>
</g>
</g>
<path id="Vector_7" d="M13.4996 13.6292L12.7735 14.5456L11.0297 12.6428L9.89844 13.6795L12.8583 16.9096L13.4996 16.1001L14.1639 14.3166L13.4996 13.6292Z" fill="white"/>
<path id="Vector_8" d="M13.5 16.1002L17.1983 11.4324L15.9955 10.4795L13.5 13.6293V16.1002Z" fill="#E9E9EC"/>
</g>
</g>
</g>
</svg>
