<svg width="40" height="40" viewBox="0 0 40 40" fill="none" xmlns="http://www.w3.org/2000/svg">
<g clip-path="url(#clip0_479_3773)">
<path d="M19.9995 0C9.38071 0 0.772461 8.60825 0.772461 19.2271L11.6244 26.3785L39.1958 20.3222C39.2162 19.9597 39.2265 19.5946 39.2265 19.2271C39.2266 8.60825 30.6183 0 19.9995 0Z" fill="#9BD069"/>
<path d="M26.5803 20.3222C24.3616 20.3222 22.6059 18.4166 22.8203 16.2082C22.8221 16.1891 22.8239 16.1702 22.8256 16.1514C22.8838 15.497 23.2208 14.9043 23.7398 14.5016C24.0819 14.2361 24.302 13.8211 24.302 13.3545C24.2411 12.9891 24.5681 11.8776 23.5602 11.3119C22.7914 10.8804 22.6593 9.91671 23.0714 9.29781C23.1113 9.23786 23.1356 9.17673 23.143 9.11458H23.1477C23.1477 9.08484 23.1468 9.05525 23.1454 9.02582H23.1477V5.90434C23.1477 4.02324 21.6228 2.49834 19.7417 2.49834L17.9237 2.45365C17.7765 2.45005 17.6436 2.37726 17.5462 2.26682C17.4002 2.10143 17.0584 1.98535 16.6602 1.98535C16.2619 1.98535 15.9202 2.10143 15.7742 2.26682C15.6768 2.37726 15.5439 2.45005 15.3967 2.45365L13.5787 2.49834C11.6976 2.49834 10.1727 4.02324 10.1727 5.90434V9.0259H10.175C10.1736 9.05533 10.1727 9.08491 10.1727 9.11466H10.1773C10.1922 9.23887 10.2736 9.35926 10.4129 9.47408V10.5524V10.5525V13.6804V15.5729C10.4129 17.0619 10.933 18.427 11.7998 19.4989C12.4185 20.2639 12.3723 21.3697 11.7065 22.0939C11.6928 22.1088 11.6791 22.1237 11.6654 22.1386C10.6953 23.1927 8.96905 22.9115 8.37333 21.6087C7.84249 20.4478 7.43164 19.2386 7.14344 18.0015C6.30116 14.3855 0.869179 14.6879 0.778149 18.7946V18.7953C0.673343 23.5363 2.32331 27.9074 5.10681 31.3178C8.53715 35.5207 13.688 37.1568 19.3987 37.3359C19.371 37.3352 19.4263 37.3368 19.3987 37.3359C29.8459 37.6181 38.6157 30.6241 39.1949 20.3222H26.5803Z" fill="#69B76B"/>
<path d="M30.8506 39.1166H29.0842C28.6661 39.1166 28.3271 38.7777 28.3271 38.3596C28.3271 37.9415 28.6661 37.6025 29.0842 37.6025H30.8506C31.2688 37.6025 31.6077 37.9415 31.6077 38.3596C31.6077 38.7777 31.2688 39.1166 30.8506 39.1166Z" fill="#FFBE82"/>
<path d="M25.8614 34.6294C25.7426 33.8992 26.601 29.416 22.8283 25.6173V25.6209C22.2518 25.0401 21.638 24.5458 20.919 24.0988C20.919 24.0983 20.919 24.0977 20.9191 24.0972C20.911 24.0922 20.7346 23.9852 20.7264 23.9804V23.982C19.1706 23.0616 17.3566 22.5317 15.4181 22.5317C15.2296 22.5317 15.0422 22.5367 14.8561 22.5468C13.3903 22.6251 12.0158 23.2838 11.0262 24.3679C11.0142 24.3811 11.0023 24.3941 10.9902 24.4073C10.0447 25.4425 9.52051 26.794 9.52051 28.196V35.2986C12.1839 37.0502 15.2693 38.1471 18.5567 38.3984C19.1892 38.4466 24.9582 35.3881 25.8614 34.6294Z" fill="#F5415F"/>
<path d="M15.4177 22.5317C13.5047 22.5317 11.7127 23.0475 10.1707 23.9454V23.9442C10.1622 23.9491 10.0242 24.0306 10.0147 24.0364V24.0383C7.4472 25.5942 5.60061 28.2272 5.10742 31.3169C7.07893 33.7324 9.61814 35.6667 12.5061 36.9085C10.0376 34.7191 9.28479 31.0015 11.0279 27.9902C11.7846 26.683 12.8931 25.4645 14.5123 24.5964V24.5944C14.5219 24.5886 14.6599 24.5072 14.6682 24.5022V24.5035C15.9406 23.7625 17.3836 23.2827 18.924 23.1373C17.8281 22.746 16.6482 22.5317 15.4177 22.5317Z" fill="#CD2846"/>
<path d="M15.418 20.6895C12.8108 20.6895 10.6973 22.803 10.6973 25.4102C10.6973 27.1455 11.6343 28.6612 13.0293 29.4815L15.4455 27.0652L17.8417 29.4614C19.2175 28.6365 20.1387 27.1311 20.1387 25.4102C20.1387 22.803 18.0252 20.6895 15.418 20.6895Z" fill="#CD2846"/>
<path d="M15.418 19.9326C12.8108 19.9326 10.6973 22.0462 10.6973 24.6533C10.6973 26.3887 11.6343 27.9044 13.0293 28.7246L15.4455 26.3084L17.8417 28.7045C19.2175 27.8796 20.1387 26.3743 20.1387 24.6533C20.1387 22.0462 18.0252 19.9326 15.418 19.9326Z" fill="white"/>
<path d="M15.5088 26.2145H15.3879C14.2174 26.2145 13.2686 25.2656 13.2686 24.0951V19.1523H17.6281V24.0951C17.6281 25.2656 16.6793 26.2145 15.5088 26.2145Z" fill="#FF965A"/>
<path d="M21.3618 11.5041C21.3618 9.51484 20.0857 7.6958 18.0964 7.6958H12.8006C12.0686 7.6958 11.4159 7.94275 10.8828 8.35328V18.9602C10.8828 20.5078 11.8458 21.8949 13.2988 22.4274C13.9691 22.673 14.6931 22.8071 15.4485 22.8071C18.8663 22.8071 21.637 20.0364 21.637 16.6186V14.6649L21.3618 11.5041Z" fill="#FFBE82"/>
<path d="M10.044 9.18604C9.5165 9.81252 9.19824 10.6209 9.19824 11.504V16.5572C9.19824 19.239 10.8853 21.519 13.2465 22.4082C13.6874 22.5743 14.0145 21.985 13.6456 21.6921C12.2041 20.5473 11.2798 18.7796 11.2798 16.7958V14.0491C11.2798 12.8726 12.2827 11.9526 13.456 12.0397C14.0827 12.0863 14.7512 12.1114 15.4457 12.1114C17.8905 12.1114 20.0174 11.8005 21.1226 11.3415V9.18604H10.044Z" fill="#FF965A"/>
<path d="M21.6769 15.7902H21.6367V12.1118H21.6769C22.4561 12.1118 23.0877 12.7435 23.0877 13.5226V14.3794C23.0877 15.1585 22.4561 15.7902 21.6769 15.7902Z" fill="#FF965A"/>
<path d="M9.15882 15.7902H9.19905V12.1118H9.15882C8.3797 12.1118 7.74805 12.7435 7.74805 13.5226V14.3794C7.74805 15.1585 8.37962 15.7902 9.15882 15.7902Z" fill="#FF965A"/>
<path d="M13.2898 15.2579C13.0052 15.2579 12.7744 15.0271 12.7744 14.7425V13.3328C12.7744 13.0481 13.0052 12.8174 13.2898 12.8174C13.5745 12.8174 13.8053 13.0482 13.8053 13.3328V14.7425C13.8053 15.0271 13.5745 15.2579 13.2898 15.2579Z" fill="#FF965A"/>
<path d="M17.4988 15.2579C17.2141 15.2579 16.9834 15.0271 16.9834 14.7425V13.3328C16.9834 13.0481 17.2142 12.8174 17.4988 12.8174C17.7835 12.8174 18.0142 13.0482 18.0142 13.3328V14.7425C18.0142 15.0271 17.7835 15.2579 17.4988 15.2579Z" fill="#FF965A"/>
<path d="M13.2898 14.8448C13.0052 14.8448 12.7744 14.614 12.7744 14.3294V12.9197C12.7744 12.635 13.0052 12.4043 13.2898 12.4043C13.5745 12.4043 13.8053 12.6351 13.8053 12.9197V14.3294C13.8053 14.614 13.5745 14.8448 13.2898 14.8448Z" fill="#373C41"/>
<path d="M17.4988 14.8448C17.2141 14.8448 16.9834 14.614 16.9834 14.3294V12.9197C16.9834 12.635 17.2142 12.4043 17.4988 12.4043C17.7835 12.4043 18.0142 12.6351 18.0142 12.9197V14.3294C18.0142 14.614 17.7835 14.8448 17.4988 14.8448Z" fill="#373C41"/>
<path d="M13.9687 12.1466H12.4656C12.1809 12.1466 11.9502 11.9158 11.9502 11.6311C11.9502 11.3465 12.1809 11.1157 12.4656 11.1157H13.9687C14.2534 11.1157 14.4842 11.3465 14.4842 11.6311C14.4842 11.9158 14.2534 12.1466 13.9687 12.1466Z" fill="#783C28"/>
<path d="M18.2646 12.1466H16.7615C16.4768 12.1466 16.2461 11.9158 16.2461 11.6311C16.2461 11.3465 16.4768 11.1157 16.7615 11.1157H18.2646C18.5493 11.1157 18.7801 11.3465 18.7801 11.6311C18.7801 11.9158 18.5493 12.1466 18.2646 12.1466Z" fill="#783C28"/>
<path d="M17.3464 17.6968H13.5507C13.3932 17.6968 13.2674 17.8342 13.2884 17.9904C13.3287 18.289 13.4293 18.5684 13.5777 18.816L16.408 19.6547C17.0471 19.341 17.5102 18.7235 17.6089 17.9904C17.6298 17.8342 17.5039 17.6968 17.3464 17.6968Z" fill="#CD2846"/>
<path d="M14.6131 15.5766C14.485 16.0882 14.7178 16.6456 15.1631 16.8136C15.2528 16.8474 15.3486 16.8657 15.4482 16.8657C15.5478 16.8657 15.6437 16.8474 15.7333 16.8136C16.1786 16.6456 16.4115 16.0882 16.2834 15.5766L15.8586 13.8803C15.7517 13.4533 15.1447 13.4533 15.0378 13.8803L14.6131 15.5766Z" fill="#FF965A"/>
<path d="M18.6221 8.54712C18.8127 8.20101 19.2459 8.06896 19.6031 8.23764C19.6084 8.24014 19.6138 8.24265 19.619 8.24523C20.0065 8.43065 20.3163 8.72824 20.5228 9.08704H20.9569C21.3325 9.08704 21.6369 8.78264 21.6369 8.40709V7.04532C21.6369 5.50611 20.3891 4.2583 18.8498 4.2583H11.9856C11.523 4.25893 11.1445 4.638 11.1445 5.10058V8.3037C11.1909 8.27865 11.2378 8.254 11.2874 8.23216C11.8923 7.96509 12.5209 8.55612 12.32 9.18606C12.319 9.18919 12.318 9.1924 12.317 9.19553C12.1772 9.63925 12.5097 10.0909 12.9749 10.0909H16.0123C18.2551 10.0909 18.4955 8.77724 18.6221 8.54712Z" fill="#783C28"/>
<path d="M11.2625 7.04532C11.2625 5.50611 12.5103 4.2583 14.0495 4.2583H11.9853C10.4461 4.2583 9.19824 5.50611 9.19824 7.04532V11.5368V11.5369V14.6648C9.65605 14.6648 10.0271 14.2938 10.0271 13.8359V10.1759C10.0271 9.36741 10.4821 8.62234 11.209 8.26871C11.2269 8.26002 11.2447 8.25157 11.2624 8.24335L11.2625 7.04532Z" fill="#5A2D19"/>
<path d="M20.6781 8.56125C20.6045 8.69337 20.5199 8.81845 20.4277 8.93719C20.6707 9.28839 20.8077 9.7127 20.8077 10.1557V13.8358C20.8077 14.2936 21.1788 14.6647 21.6366 14.6647V11.504V8.22491C21.2821 8.07635 20.867 8.22249 20.6781 8.56125Z" fill="#5A2D19"/>
<path d="M15.0388 10.0909C14.5747 10.0909 14.2409 9.6407 14.3801 9.19791C14.3825 9.19009 14.385 9.18226 14.3876 9.17443C14.5931 8.53918 13.9337 7.96114 13.3283 8.24253C13.3099 8.25106 13.2916 8.25975 13.2732 8.26875C12.8398 8.47954 12.5044 8.82988 12.3031 9.24934C12.204 9.67482 12.5284 10.0909 12.9746 10.0909H16.0118H15.0388Z" fill="#A55A3C"/>
<path d="M12.9697 13.8568H12.9591C12.8571 13.8568 12.7744 13.774 12.7744 13.672V13.0861C12.7744 12.984 12.8571 12.9014 12.9591 12.9014H12.9697C13.0718 12.9014 13.1544 12.9841 13.1544 13.0861V13.672C13.1544 13.774 13.0718 13.8568 12.9697 13.8568Z" fill="white"/>
<path d="M17.1699 13.8568H17.1593C17.0573 13.8568 16.9746 13.774 16.9746 13.672V13.0861C16.9746 12.984 17.0573 12.9014 17.1593 12.9014H17.1699C17.272 12.9014 17.3546 12.9841 17.3546 13.0861V13.672C17.3546 13.774 17.2719 13.8568 17.1699 13.8568Z" fill="white"/>
<path d="M13.5781 18.8156C13.959 19.4509 14.6541 19.8763 15.4488 19.8763C15.7931 19.8763 16.1185 19.7963 16.408 19.6541C16.2835 18.8735 15.6075 18.2769 14.7918 18.2769C14.3104 18.277 13.8776 18.4848 13.5781 18.8156Z" fill="#F5415F"/>
<path d="M16.4546 18.2772H14.38C14.1809 18.2772 14.0195 18.1158 14.0195 17.9167V17.6968H16.815V17.9167C16.815 18.1158 16.6536 18.2772 16.4546 18.2772Z" fill="white"/>
<path d="M38.9041 36.7932V22.8617C38.9041 22.0029 38.2079 21.3066 37.3491 21.3066H32.2723L28.4501 22.6833L24.7244 21.3066H21.1084V36.7932H38.9041Z" fill="#ECD833"/>
<path d="M31.6963 21.3028V23.8312C31.7354 24.3056 31.4481 24.8123 30.8353 24.8123H25.2197C25.2404 24.9035 25.2849 24.9882 25.3504 25.0569L25.7132 25.4367C25.9181 25.6512 26.2607 25.6512 26.4656 25.4367L26.5963 25.2998C26.8012 25.0854 27.1437 25.0854 27.3486 25.2998L27.4794 25.4367C27.6843 25.6512 28.0269 25.6512 28.2318 25.4367L28.3624 25.2999C28.5673 25.0855 28.9098 25.0854 29.1148 25.2998L29.2457 25.4368C29.4506 25.6513 29.7931 25.6513 29.998 25.4368L30.129 25.2997C30.3339 25.0852 30.6764 25.0852 30.8813 25.2997L31.0125 25.4369C31.2174 25.6513 31.5598 25.6513 31.7647 25.4369L32.1279 25.0569C32.2204 24.9601 32.2721 24.8313 32.2721 24.6974V21.3027L31.6963 21.3028Z" fill="#ECC32E"/>
<path d="M31.6724 25.0305C31.7482 24.9378 31.7904 24.8217 31.7904 24.7012V21.3066H26.3516V25.0306H31.6724V25.0305Z" fill="white"/>
<path d="M31.4347 24.6667L31.3037 24.8038C31.0987 25.0183 30.7562 25.0183 30.5513 24.8038L30.4204 24.6668C30.2155 24.4524 29.873 24.4524 29.6681 24.6668L29.5375 24.8036C29.3325 25.0181 28.99 25.0181 28.7851 24.8037L28.6543 24.6668C28.4494 24.4523 28.1069 24.4523 27.902 24.6668L27.7713 24.8036C27.5663 25.0181 27.2238 25.0181 27.0189 24.8036L26.9183 24.6983C26.6575 24.4253 26.512 24.0623 26.512 23.6848V21.3066H24.7246V24.7013C24.7246 24.8351 24.7762 24.9639 24.8687 25.0607L25.2315 25.4405C25.4364 25.6549 25.7789 25.6549 25.9838 25.4405L26.1146 25.3037C26.3195 25.0892 26.662 25.0891 26.8669 25.3037L26.9977 25.4406C27.2026 25.655 27.5451 25.655 27.75 25.4405L27.8807 25.3037C28.0856 25.0892 28.4281 25.0892 28.633 25.3037L28.7639 25.4406C28.9688 25.6551 29.3113 25.6551 29.5162 25.4406L29.6473 25.3035C29.8522 25.0891 30.1946 25.089 30.3995 25.3035L30.5307 25.4407C30.7356 25.6551 31.0781 25.6551 31.283 25.4407L31.6462 25.0608C31.7387 24.964 31.7904 24.8352 31.7904 24.7013V24.5068C31.6603 24.512 31.532 24.5649 31.4347 24.6667Z" fill="#D0FBFD"/>
<path d="M26.6219 33.1867H26.8704V35.5796C26.8704 35.6543 26.9309 35.7148 27.0056 35.7148H27.5845C27.6591 35.7148 27.7196 35.6543 27.7196 35.5796V33.1867H28.0388C28.1803 33.1867 28.2559 33.02 28.1625 32.9136L27.4541 32.1063C27.3885 32.0316 27.2722 32.0316 27.2066 32.1063L26.4982 32.9136C26.4049 33.02 26.4804 33.1867 26.6219 33.1867Z" fill="#ECC32E"/>
<path d="M28.6151 33.1867H28.8635V35.5796C28.8635 35.6543 28.924 35.7148 28.9987 35.7148H29.5776C29.6522 35.7148 29.7127 35.6543 29.7127 35.5796V33.1867H30.0319C30.1735 33.1867 30.249 33.02 30.1556 32.9136L29.4472 32.1063C29.3817 32.0316 29.2653 32.0316 29.1998 32.1063L28.4913 32.9136C28.3981 33.02 28.4736 33.1867 28.6151 33.1867Z" fill="#ECC32E"/>
<path d="M27.8402 32.9136L27.1318 32.1063C27.0663 32.0316 26.95 32.0316 26.8844 32.1063L26.1759 32.9136C26.0826 33.02 26.1582 33.1867 26.2996 33.1867H26.548V35.5796C26.548 35.6543 26.6085 35.7148 26.6832 35.7148H27.2621C27.3368 35.7148 27.3973 35.6543 27.3973 35.5796V33.1867H27.7165C27.858 33.1867 27.9335 33.02 27.8402 32.9136Z" fill="#9D66D5"/>
<path d="M29.8344 32.9136L29.1259 32.1063C29.0604 32.0316 28.9441 32.0316 28.8785 32.1063L28.1701 32.9136C28.0768 33.02 28.1523 33.1867 28.2937 33.1867H28.5422V35.5796C28.5422 35.6543 28.6027 35.7148 28.6774 35.7148H29.2563C29.3309 35.7148 29.3914 35.6543 29.3914 35.5796V33.1867H29.7106C29.8521 33.1867 29.9277 33.02 29.8344 32.9136Z" fill="#9D66D5"/>
<path d="M26.0622 26.4536V31.4634H26.7542C27.0724 31.4634 27.3304 31.2055 27.3304 30.8873V26.955C27.3304 26.6368 27.0724 26.3789 26.7543 26.3789H26.0586C26.0602 26.4033 26.0622 26.4278 26.0622 26.4536Z" fill="#ECC32E"/>
<path d="M37.6828 36.4467C37.5221 36.4467 37.3626 36.3848 37.2599 36.2613C37.2074 36.1983 37.1264 36.1599 37.0408 36.1599H36.5859V35.2721C36.5859 35.0795 36.6858 34.9042 36.8438 34.794C37.0822 34.6279 37.2381 34.3518 37.2381 34.0393V32.2861C37.2381 32.1557 37.1324 32.0501 37.0021 32.0501H36.8613L36.9797 32.6739C36.9866 32.7102 36.981 32.7479 36.9637 32.7805L36.6864 33.3041C36.6768 33.3222 36.6708 33.342 36.6685 33.3624L36.6353 33.6611C36.626 33.7451 36.5113 33.7625 36.4774 33.685L36.3572 33.4096C36.332 33.3517 36.329 33.2867 36.349 33.2268L36.5156 32.727C36.5252 32.6982 36.5265 32.6671 36.5194 32.6375L36.3784 32.0501H35.634C35.5037 32.0501 35.398 32.1557 35.398 32.2861V34.0393C35.398 34.4542 35.6727 34.8047 36.0502 34.9194V36.1598H35.5953C35.51 36.1598 35.4289 36.1981 35.3764 36.261C35.2732 36.3847 35.1134 36.4466 34.9523 36.4466H33.8195C33.4342 36.4466 33.1197 36.1321 33.1269 35.7468C33.1269 35.7403 33.1271 35.7338 33.1271 35.7274V34.7351C33.1271 34.3368 33.4501 34.0138 33.8484 34.0138H34.4519C34.6675 34.0138 34.825 33.8143 34.7802 33.6034C34.5915 32.7158 33.8031 32.0501 32.8593 32.0501C31.9155 32.0501 31.1272 32.7159 30.9385 33.6034C30.8936 33.8143 31.0512 34.0138 31.2667 34.0138H32.5915V35.7155C32.5915 35.8873 32.4683 36.0407 32.2979 36.0626C32.0917 36.089 31.9153 35.9284 31.9153 35.7274V35.4307C31.9153 35.2908 31.8131 35.1659 31.6738 35.1526C31.514 35.1373 31.3796 35.2626 31.3796 35.4192V35.7274C31.3796 35.758 31.3812 35.7884 31.3843 35.8183C31.4121 36.0852 31.2485 36.3427 30.9919 36.4213C30.7715 36.4889 30.5423 36.417 30.3989 36.2519C30.3492 36.1947 30.276 36.1598 30.1967 36.1598H26.4568C26.3088 36.1598 26.1889 36.2797 26.1889 36.4276C26.1889 36.4341 26.1904 36.4403 26.1908 36.4466H22.3199C21.7484 36.4466 21.2851 35.9833 21.2851 35.4118V32.6888C21.2851 32.0119 21.8339 31.4631 22.5108 31.4631H22.5353V26.4023C22.5353 26.3941 22.5363 26.3866 22.5365 26.3786H22.5108C21.8339 26.3786 21.2851 25.8298 21.2851 25.1529V21.3066H18.6451C18.0736 21.3066 17.6104 21.7699 17.6104 22.3414V37.366C17.6104 37.9375 18.0736 38.4008 18.6451 38.4008H37.8693C38.4407 38.4008 38.904 37.9375 38.904 37.366V36.4467H37.6828V36.4467Z" fill="#ECC32E"/>
<path d="M34.4588 33.6038C34.2701 32.7161 33.4817 32.0503 32.5379 32.0503C31.594 32.0503 30.8058 32.7161 30.617 33.6038C30.5722 33.8146 30.7297 34.0141 30.9453 34.0141H32.2701V35.7276C32.2701 35.914 32.1184 36.0657 31.9319 36.0657C31.7455 36.0657 31.5938 35.914 31.5938 35.7276V35.4194C31.5938 35.2715 31.4739 35.1516 31.3259 35.1516C31.178 35.1516 31.0581 35.2715 31.0581 35.4194V35.7276C31.0581 36.2094 31.4501 36.6014 31.9319 36.6014C32.4138 36.6014 32.8058 36.2094 32.8058 35.7276V34.0141H34.1305C34.3461 34.0142 34.5036 33.8147 34.4588 33.6038Z" fill="#ABABFF"/>
<path d="M29.8749 36.6959H26.135C25.9871 36.6959 25.8672 36.5759 25.8672 36.428C25.8672 36.2801 25.9871 36.1602 26.135 36.1602H29.8749C30.0229 36.1602 30.1428 36.2801 30.1428 36.428C30.1428 36.5759 30.0228 36.6959 29.8749 36.6959Z" fill="#9D66D5"/>
<path d="M36.7189 36.1601H36.2641V34.9196C36.6415 34.8048 36.9163 34.4543 36.9163 34.0395V32.2863C36.9163 32.156 36.8106 32.0503 36.6803 32.0503H36.5395L36.6579 32.6741C36.6648 32.7104 36.6591 32.7481 36.6418 32.7807L36.3646 33.3044C36.3551 33.3224 36.349 33.3422 36.3467 33.3626L36.3135 33.6613C36.3042 33.7453 36.1895 33.7627 36.1556 33.6852L36.0354 33.4098C36.0102 33.352 36.0072 33.2869 36.0272 33.2271L36.1937 32.7273C36.2034 32.6985 36.2047 32.6674 36.1976 32.6378L36.0566 32.0504H35.3122C35.1818 32.0504 35.0762 32.156 35.0762 32.2864V34.0396C35.0762 34.4545 35.3509 34.805 35.7283 34.9197V36.1602H35.2735C35.1336 36.1602 35.0087 36.2624 34.9954 36.4017C34.9801 36.5615 35.1054 36.6959 35.262 36.6959H36.7305C36.8871 36.6959 37.0123 36.5615 36.997 36.4017C36.9837 36.2624 36.8588 36.1601 36.7189 36.1601Z" fill="#8659B9"/>
<path d="M26.812 30.7159C26.8173 30.677 26.8211 30.6376 26.8211 30.5972V27.2442C26.8211 26.766 26.4335 26.3784 25.9553 26.3784H21.0576V30.7159H26.812Z" fill="#9BD069"/>
<path d="M21.8252 30.4417C21.5071 30.4417 21.2492 30.1838 21.2492 29.8657C21.2492 29.533 21.5189 29.2633 21.8515 29.2633H24.3612C24.501 29.2633 24.626 29.1611 24.6393 29.0217C24.6545 28.862 24.5293 28.7276 24.3727 28.7276H21.5293C21.3745 28.7276 21.2492 28.6022 21.2492 28.4475C21.2492 28.2927 21.3745 28.1673 21.5293 28.1673H22.8519C22.9918 28.1673 23.1167 28.0651 23.13 27.9258C23.1453 27.766 23.0201 27.6316 22.8634 27.6316H21.5293C21.3745 27.6316 21.2492 27.5062 21.2492 27.3515V26.3784H19.4823C19.1642 26.3784 18.9062 26.6363 18.9062 26.9545V30.8868C18.9062 31.205 19.1642 31.463 19.4823 31.463H26.2446C26.5628 31.463 26.8207 31.205 26.8207 30.8869V30.4417H21.8252Z" fill="#69B76B"/>
<path d="M21.933 10.0105H8.95801V6.79451C8.95801 4.96553 10.4406 3.48291 12.2696 3.48291H18.6214C20.4503 3.48291 21.933 4.96553 21.933 6.79451V10.0105Z" fill="#3342AA"/>
<path d="M18.4485 10.0906H12.4434V6.4018C12.4434 4.78948 13.7504 3.48242 15.3627 3.48242H15.5291C17.1415 3.48242 18.4485 4.78948 18.4485 6.4018V10.0906Z" fill="white"/>
<path d="M10.802 8.25488C9.78362 8.25488 8.95801 9.08049 8.95801 10.0989H8.96263C9.05906 10.9028 11.9235 11.5479 15.4455 11.5479C18.9675 11.5479 21.8319 10.9028 21.9283 10.0989H21.933C21.933 9.08049 21.1073 8.25488 20.089 8.25488H10.802Z" fill="#2B3890"/>
<path d="M15.4459 3.89145C15.977 3.89145 16.4075 3.68512 16.4075 3.43059C16.4075 3.17606 15.977 2.96973 15.4459 2.96973C14.9149 2.96973 14.4844 3.17606 14.4844 3.43059C14.4844 3.68512 14.9149 3.89145 15.4459 3.89145Z" fill="#2B3890"/>
<path d="M24.1631 39.8739C23.8147 39.8739 23.5322 39.5915 23.5322 39.243V37.4766C23.5322 37.1281 23.8147 36.8457 24.1631 36.8457C24.5115 36.8457 24.794 37.1281 24.794 37.4766V39.243C24.794 39.5915 24.5115 39.8739 24.1631 39.8739Z" fill="#FFBE82"/>
<path d="M25.425 40.0003C25.0069 40.0003 24.668 39.6613 24.668 39.2432V37.4768C24.668 37.0586 25.0069 36.7197 25.425 36.7197C25.8431 36.7197 26.1821 37.0586 26.1821 37.4768V39.2432C26.1821 39.6613 25.8431 40.0003 25.425 40.0003Z" fill="#FFBE82"/>
<path d="M26.8547 40.0003C26.4366 40.0003 26.0977 39.6613 26.0977 39.2432V37.4768C26.0977 37.0586 26.4366 36.7197 26.8547 36.7197C27.2728 36.7197 27.6117 37.0586 27.6117 37.4768V39.2432C27.6117 39.6613 27.2728 40.0003 26.8547 40.0003Z" fill="#FFBE82"/>
<path d="M28.2844 40.0003C27.8663 40.0003 27.5273 39.6613 27.5273 39.2432V37.4768C27.5273 37.0586 27.8663 36.7197 28.2844 36.7197C28.7025 36.7197 29.0414 37.0586 29.0414 37.4768V39.2432C29.0415 39.6613 28.7025 40.0003 28.2844 40.0003Z" fill="#FFBE82"/>
<path d="M28.2849 38.7922C27.9534 38.7922 27.6724 38.5788 27.5699 38.2822C27.4673 38.5788 27.1863 38.7922 26.8549 38.7922C26.5234 38.7922 26.2424 38.5788 26.1399 38.2822C26.0373 38.5788 25.7563 38.7922 25.4248 38.7922C25.1084 38.7922 24.8376 38.5979 24.7245 38.3221C24.62 38.5262 24.4081 38.666 24.1631 38.666C23.8146 38.666 23.5322 38.3836 23.5322 38.0352V39.2427C23.5322 39.5912 23.8147 39.8736 24.1631 39.8736C24.4081 39.8736 24.62 39.7337 24.7245 39.5297C24.8376 39.8054 25.1084 39.9998 25.4248 39.9998C25.7563 39.9998 26.0373 39.7864 26.1399 39.4898C26.2424 39.7864 26.5234 39.9998 26.8549 39.9998C27.1863 39.9998 27.4673 39.7864 27.5699 39.4898C27.6724 39.7864 27.9534 39.9998 28.2849 39.9998C28.703 39.9998 29.0419 39.6609 29.0419 39.2427V38.0352C29.042 38.4533 28.703 38.7922 28.2849 38.7922Z" fill="#FF965A"/>
</g>
<defs>
<clipPath id="clip0_479_3773">
<rect width="40" height="40" fill="white"/>
</clipPath>
</defs>
</svg>
