<svg width="26" height="26" viewBox="0 0 26 26" fill="none" xmlns="http://www.w3.org/2000/svg">
<g id="Group 37060">
<path id="Vector" d="M21.125 22.75H1.625C0.728 22.75 0 22.022 0 21.125V4.875H22.75V21.125C22.75 22.022 22.022 22.75 21.125 22.75Z" fill="#FFD306"/>
<path id="Vector_2" d="M22.75 4.875H0L5.23088 0.391625C5.525 0.138125 5.90037 0 6.28875 0H16.4613C16.8496 0 17.225 0.138125 17.5191 0.391625L22.75 4.875Z" fill="#FFD306"/>
<path id="Vector_3" d="M14.625 4.875H8.125L9.75 0H13L14.625 4.875Z" fill="#25AC10"/>
<g id="Group">
<path id="Vector_4" d="M14.625 11.375L13 9.75L11.375 11.375L9.75 9.75L8.125 11.375V4.875H14.625V11.375Z" fill="#148C00"/>
<path id="Vector_5" d="M20.3125 13C16.2809 13 13 16.2809 13 20.3125C13 21.1705 13.1755 21.9846 13.4501 22.75H21.9375C22.386 22.75 22.75 22.386 22.75 21.9375V13.4501C21.9846 13.1755 21.1705 13 20.3125 13Z" fill="#FAFAFA"/>
</g>
<path id="Vector_6" d="M20.3125 26C23.4536 26 26 23.4536 26 20.3125C26 17.1714 23.4536 14.625 20.3125 14.625C17.1714 14.625 14.625 17.1714 14.625 20.3125C14.625 23.4536 17.1714 26 20.3125 26Z" fill="#FFA81C"/>
<path id="Vector_7" d="M21.9375 22.75C21.7295 22.75 21.5215 22.6704 21.3622 22.5128L19.7372 20.8878C19.5861 20.735 19.5 20.5286 19.5 20.3125V17.875C19.5 17.4265 19.864 17.0625 20.3125 17.0625C20.761 17.0625 21.125 17.4265 21.125 17.875V19.9761L22.5128 21.3639C22.8296 21.6808 22.8296 22.1959 22.5128 22.5128C22.3535 22.6704 22.1455 22.75 21.9375 22.75Z" fill="#FAFAFA"/>
</g>
</svg>
