<svg width="27" height="29" viewBox="0 0 27 29" fill="none" xmlns="http://www.w3.org/2000/svg">
<g id="Group 37061">
<path id="Vector" d="M14.7555 19.3333L3.5625 15.7719V3.5614L14.7555 0L25.9485 3.5614V15.7719L14.7555 19.3333Z" fill="#FFD306"/>
<path id="Vector_2" d="M14.7539 19.3332V7.12268L25.9469 3.56128V15.7718L14.7539 19.3332Z" fill="#FFD306"/>
<path id="Vector_3" d="M14.7555 7.1228L3.5625 3.5614L14.7555 0L25.9485 3.5614L14.7555 7.1228Z" fill="#FFD306"/>
<path id="Vector_4" d="M7.46094 2.32066L18.6539 5.88207V9.95224L19.8409 9.57473L21.3672 9.08885L22.2998 8.79224V4.72156L11.1068 1.16016L7.46094 2.32066Z" fill="#25AC10"/>
<path id="Vector_5" d="M18.6543 5.88194V9.95212L19.8413 9.57461L21.3676 9.08873L22.3002 8.79212V4.72144L18.6543 5.88194Z" fill="#189C03"/>
<path id="Vector_6" d="M7.12291 20.3508H3.05273V27.4736H7.12291V20.3508Z" fill="#1EDD00"/>
<path id="Vector_7" d="M3.05263 20.8596H0V26.9649H3.05263V20.8596Z" fill="#25AC10"/>
<path id="Vector_8" d="M7.12305 26.5177L11.6221 28.3859C13.5738 29.1808 15.7546 29.2048 17.7233 28.453L25.5828 25.4564C26.2896 25.1808 26.6392 24.3843 26.3636 23.6775C26.3624 23.6742 26.361 23.6708 26.3597 23.6675C26.0951 22.9775 25.3212 22.6327 24.6313 22.8972C24.6186 22.9021 24.6058 22.9072 24.5932 22.9125L20.3394 24.7187C20.1045 24.8139 19.857 24.8748 19.6047 24.8993C20.2904 24.7463 20.7222 24.0665 20.5692 23.3809C20.44 22.8015 19.9272 22.3886 19.3336 22.3859H15.387C14.9088 22.3859 14.4371 22.2746 14.0093 22.0608C12.4297 21.2708 10.6877 20.8596 8.92155 20.8596H7.12305V26.5177Z" fill="#F2C09A"/>
<g id="Group">
<path id="Vector_9" d="M14.0094 22.0579C14.437 22.2716 14.9085 22.3829 15.3866 22.383H19.3316C20.0341 22.383 20.6035 22.9524 20.6035 23.6549C20.6026 23.8291 20.5655 24.0011 20.4947 24.1601C20.2917 23.6989 19.8356 23.401 19.3316 23.4005H15.3866C14.9085 23.4005 14.437 23.2892 14.0094 23.0754C12.4297 22.2854 10.6878 21.8742 8.92164 21.8742H7.12109V20.8567H8.92113C10.6875 20.8566 12.4296 21.2678 14.0094 22.0579Z" fill="#E9937C"/>
<path id="Vector_10" d="M26.3595 23.6642C26.4873 23.9904 26.4862 24.3529 26.3564 24.6782C26.0884 23.9898 25.3131 23.649 24.6248 23.917C24.6141 23.9211 24.6035 23.9254 24.593 23.9298L20.3397 25.7359C20.0116 25.8755 19.6588 25.9474 19.3023 25.9476H13.2266V24.927H19.3023C19.6588 24.927 20.0116 24.8552 20.3397 24.7159L24.593 22.9097C25.2742 22.6239 26.0581 22.9444 26.344 23.6256C26.3494 23.6383 26.3545 23.6513 26.3595 23.6642Z" fill="#E9937C"/>
</g>
<g id="Group_2">
<path id="Vector_11" d="M5.59666 14.7546C5.31569 14.7546 5.08789 14.5267 5.08789 14.2458V12.7195C5.08789 12.4385 5.31569 12.2107 5.59666 12.2107C5.87763 12.2107 6.10543 12.4385 6.10543 12.7195V14.2458C6.10543 14.5267 5.87769 14.7546 5.59666 14.7546Z" fill="#EB9850"/>
<path id="Vector_12" d="M7.63182 15.2633C7.35085 15.2633 7.12305 15.0355 7.12305 14.7546V13.2283C7.12305 12.9473 7.35085 12.7195 7.63182 12.7195C7.91279 12.7195 8.14059 12.9473 8.14059 13.2283V14.7546C8.14059 15.0355 7.91285 15.2633 7.63182 15.2633Z" fill="#EB9850"/>
</g>
</g>
</svg>
