<svg width="28" height="27" viewBox="0 0 28 27" fill="none" xmlns="http://www.w3.org/2000/svg">
<g id="Group 37056">
<g id="shopping_bag_check">
<g id="Group">
<g id="Group_2">
<path id="Vector" d="M0.5 5.3999V23.3999C0.5 25.3845 2.11455 26.9999 4.1 26.9999H16.7C18.6854 26.9999 20.3 25.3845 20.3 23.3999V5.3999H0.5Z" fill="#FFCA28"/>
<g id="Group_3">
<path id="Vector_2" d="M14.9004 8.1H13.1004V4.5C13.1004 3.01113 11.8893 1.8 10.4004 1.8C8.91152 1.8 7.70039 3.01113 7.70039 4.5V8.1H5.90039V4.5C5.90039 2.01885 7.91924 0 10.4004 0C12.8815 0 14.9004 2.01885 14.9004 4.5V8.1Z" fill="#66BB6A"/>
</g>
</g>
<path id="Vector_3" opacity="0.1" d="M14.9004 5.4V4.5C14.9004 2.01621 12.8842 0 10.4004 0V1.8C11.8857 1.8 13.1004 3.01465 13.1004 4.5V5.4H10.4004V27H16.7004C18.6894 27 20.3004 25.389 20.3004 23.4V5.4H14.9004Z" fill="black"/>
<path id="Vector_4" d="M19.4008 10.8C14.9342 10.8 11.3008 14.4334 11.3008 18.9C11.3008 23.3667 14.9342 27 19.4008 27C23.8674 27 27.5008 23.3667 27.5008 18.9C27.5008 14.4334 23.8674 10.8 19.4008 10.8Z" fill="#66BB6A"/>
<g id="Group_4">
<path id="Vector_5" d="M18.5004 21.9727L15.4277 18.9L16.7004 17.6274L18.5004 19.4274L22.1004 15.8274L23.373 17.1L18.5004 21.9727Z" fill="#E0E0E0"/>
</g>
<path id="Vector_6" opacity="0.1" d="M19.4004 27C23.867 27 27.5004 23.3667 27.5004 18.9C27.5004 14.4334 23.867 10.8 19.4004 10.8V27Z" fill="black"/>
</g>
</g>
</g>
</svg>
