<svg width="30" height="30" viewBox="0 0 30 30" fill="none" xmlns="http://www.w3.org/2000/svg">
<path d="M4.21424 10.4137C4.25456 10.5648 4.40984 10.6551 4.5615 10.6141C4.6253 10.5973 4.67766 10.56 4.71437 10.5112H25.0056C25.073 10.6009 25.1904 10.6448 25.3053 10.6141C25.4564 10.5738 25.5467 10.4185 25.5058 10.2669L23.5672 3.03207C23.566 3.02725 23.5648 3.02244 23.5636 3.01762H23.563C23.4679 2.66374 23.2404 2.37846 22.9479 2.20092C22.9401 2.1949 22.9317 2.18948 22.9226 2.18467L22.922 2.18527C22.6211 2.01194 22.2558 1.95055 21.8965 2.04263C21.8911 2.04384 21.8856 2.04504 21.8802 2.04624V2.04685L4.63312 6.66782C4.27563 6.76352 3.98855 6.99402 3.8116 7.28953C3.80739 7.29555 3.80318 7.30217 3.79957 7.30879L3.80017 7.30999C3.62443 7.61513 3.56364 7.98647 3.66114 8.35058L4.21424 10.4137Z" fill="#FFD24A"/>
<path d="M4.21426 10.4139C4.25459 10.565 4.40986 10.6552 4.56153 10.6143C4.62532 10.5975 4.67768 10.5602 4.7144 10.5114H9.03325L24.464 6.37853L23.7628 3.7605L3.86218 9.09887L4.21426 10.4139Z" fill="#5E6C83"/>
<path d="M3.66772 10.0569H26.332C26.7906 10.0569 27.2077 10.2447 27.5099 10.5468C27.812 10.8489 27.9998 11.266 27.9998 11.7246V25.3323C27.9998 25.791 27.812 26.208 27.5099 26.5102C27.2077 26.8123 26.7906 27.0001 26.332 27.0001H3.66772C3.20911 27.0001 2.79203 26.8123 2.4899 26.5102C2.18778 26.208 2 25.791 2 25.3323V11.7246C2 11.266 2.18778 10.8489 2.4899 10.5468C2.79203 10.2441 3.20851 10.0569 3.66772 10.0569Z" fill="#25AC10"/>
<path d="M2 12.7737H27.9998V16.0586H2V12.7737Z" fill="#E8EAEE"/>
<path d="M4.58424 17.7373H8.24347C8.39995 17.7373 8.52754 17.8643 8.52754 18.0214V19.724C8.52754 19.8805 8.40055 20.0081 8.24347 20.0081H4.58424C4.42776 20.0081 4.30017 19.8811 4.30017 19.724V18.0214C4.30017 17.8643 4.42776 17.7373 4.58424 17.7373Z" fill="#EEF1F6"/>
<path d="M10.3086 17.7373H13.9678C14.1243 17.7373 14.2519 17.8643 14.2519 18.0214V19.724C14.2519 19.8805 14.1249 20.0081 13.9678 20.0081H10.3086C10.1521 20.0081 10.0245 19.8811 10.0245 19.724V18.0214C10.0245 17.8643 10.1515 17.7373 10.3086 17.7373Z" fill="#EEF1F6"/>
<path d="M16.032 17.7373H19.6912C19.8477 17.7373 19.9753 17.8643 19.9753 18.0214V19.724C19.9753 19.8805 19.8483 20.0081 19.6912 20.0081H16.032C15.8755 20.0081 15.7479 19.8811 15.7479 19.724V18.0214C15.7479 17.8643 15.8755 17.7373 16.032 17.7373Z" fill="#EEF1F6"/>
<path d="M21.7561 17.7373H25.4153C25.5718 17.7373 25.6994 17.8643 25.6994 18.0214V19.724C25.6994 19.8805 25.5724 20.0081 25.4153 20.0081H21.7561C21.5996 20.0081 21.472 19.8811 21.472 19.724V18.0214C21.472 17.8643 21.599 17.7373 21.7561 17.7373Z" fill="#EEF1F6"/>
<path d="M22.0913 21.9526C22.4741 21.5698 23.0025 21.3333 23.5857 21.3333C24.1695 21.3333 24.6979 21.5698 25.0801 21.9526C25.4629 22.3353 25.6994 22.8637 25.6994 23.4469C25.6994 24.0307 25.4629 24.5591 25.0801 24.9413C24.6973 25.3241 24.1695 25.5606 23.5857 25.5606C23.0019 25.5606 22.4735 25.3241 22.0913 24.9413C21.7086 24.5585 21.472 24.0301 21.472 23.4469C21.472 22.8631 21.7086 22.3347 22.0913 21.9526Z" fill="#FFD475"/>
<path d="M4.58424 22.5352C4.42776 22.5352 4.30017 22.6621 4.30017 22.8192C4.30017 22.9757 4.42716 23.1033 4.58424 23.1033H8.24347C8.39995 23.1033 8.52754 22.9763 8.52754 22.8192C8.52754 22.6627 8.40055 22.5352 8.24347 22.5352H4.58424Z" fill="white"/>
<path d="M4.58424 23.7925C4.42776 23.7925 4.30017 23.9195 4.30017 24.0766C4.30017 24.233 4.42716 24.3606 4.58424 24.3606H8.24347C8.39995 24.3606 8.52754 24.2336 8.52754 24.0766C8.52754 23.9201 8.40055 23.7925 8.24347 23.7925H4.58424Z" fill="white"/>
<path d="M10.3086 22.5352C10.1521 22.5352 10.0245 22.6621 10.0245 22.8192C10.0245 22.9757 10.1515 23.1033 10.3086 23.1033H13.9684C14.1249 23.1033 14.2525 22.9763 14.2525 22.8192C14.2525 22.6627 14.1255 22.5352 13.9684 22.5352H10.3086Z" fill="white"/>
<path d="M10.3086 23.7925C10.1521 23.7925 10.0245 23.9195 10.0245 24.0766C10.0245 24.233 10.1515 24.3606 10.3086 24.3606H13.9684C14.1249 24.3606 14.2525 24.2336 14.2525 24.0766C14.2525 23.9201 14.1255 23.7925 13.9684 23.7925H10.3086Z" fill="white"/>
<path d="M16.032 22.5352C15.8755 22.5352 15.7479 22.6621 15.7479 22.8192C15.7479 22.9757 15.8749 23.1033 16.032 23.1033H19.6918C19.8483 23.1033 19.9759 22.9763 19.9759 22.8192C19.9759 22.6627 19.8489 22.5352 19.6918 22.5352H16.032Z" fill="white"/>
<path d="M16.032 23.7925C15.8755 23.7925 15.7479 23.9195 15.7479 24.0766C15.7479 24.233 15.8749 24.3606 16.032 24.3606H19.6918C19.8483 24.3606 19.9759 24.2336 19.9759 24.0766C19.9759 23.9201 19.8489 23.7925 19.6918 23.7925H16.032Z" fill="white"/>
</svg>
