<svg width="45" height="43" viewBox="0 0 45 43" fill="none" xmlns="http://www.w3.org/2000/svg">
<g id="Group 36730">
<path id="Vector" d="M34.1922 7.13431C33.2016 6.19116 31.7652 5.88445 30.4758 6.34073C30.1111 6.46259 29.8456 6.7787 29.7885 7.15885L29.5021 9.12654C29.0679 12.0985 26.5249 14.3057 23.5214 14.3177H19.4306C18.9612 14.3178 18.5522 14.6375 18.4386 15.0929L15.3705 27.3652C15.2338 27.9132 15.5672 28.4682 16.1153 28.6049C16.1961 28.6251 16.2791 28.6353 16.3624 28.6353H21.4759C21.9453 28.6352 22.3543 28.3156 22.4679 27.8602L24.319 20.4539H28.3075C31.3692 20.464 34.0402 18.3772 34.7709 15.4038L35.5256 12.3787C36.057 10.5179 35.5477 8.51532 34.1922 7.13431Z" fill="#03A9F4"/>
<g id="Group">
<path id="Vector_2" d="M1.02243 40.9074C0.457622 40.9073 -0.000191694 40.4493 6.0215e-08 39.8845C6.0215e-08 39.8012 0.0102589 39.7181 0.0303931 39.6373L1.05312 35.567V35.5241L2.07584 31.4558C2.18945 31.0004 2.59846 30.6808 3.06788 30.6807H5.6696C7.08168 30.6804 8.22655 31.8248 8.22693 33.2368C8.22693 33.446 8.20133 33.6543 8.15071 33.8572L7.89501 34.8799C7.61054 36.0184 6.58753 36.8171 5.41399 36.8169H2.84487L2.01649 40.1324C1.90268 40.5884 1.49252 40.9083 1.02243 40.9074ZM3.35618 34.7713H5.4138C5.64841 34.7706 5.85244 34.6104 5.90881 34.3827L6.16452 33.36C6.2346 33.0876 6.07046 32.8099 5.79808 32.7399C5.75608 32.7291 5.71294 32.7237 5.6695 32.7239H3.86749L3.35618 34.7713Z" fill="#283593"/>
<path id="Vector_3" d="M11.9579 40.9076H10.5016C8.93591 40.9079 7.6664 39.639 7.66602 38.0733C7.66592 37.8414 7.6944 37.6103 7.75058 37.3854L7.88557 36.8413C8.18826 35.6202 9.28653 34.7644 10.5445 34.7693H12.0008C13.5665 34.772 14.8335 36.0434 14.8308 37.6091C14.8304 37.8399 14.8019 38.0697 14.7458 38.2935L14.6108 38.8376C14.3078 40.0557 13.213 40.9099 11.9579 40.9076ZM9.73658 37.8824C9.6315 38.3056 9.88941 38.7338 10.3126 38.8389C10.3744 38.8542 10.4378 38.862 10.5016 38.8622H11.9579C12.2732 38.8631 12.5484 38.6487 12.6247 38.3426L12.7597 37.7985C12.8648 37.3753 12.6069 36.9472 12.1837 36.8421C12.1218 36.8267 12.0584 36.819 11.9947 36.8188H10.5384C10.2231 36.8179 9.94789 37.0323 9.87157 37.3383L9.73658 37.8824Z" fill="#283593"/>
<path id="Vector_4" d="M13.2959 40.9076C12.7311 40.9075 12.2733 40.4495 12.2734 39.8846C12.2734 39.8013 12.2837 39.7183 12.3038 39.6375L13.3266 35.5467C13.4633 34.9983 14.0186 34.6644 14.5671 34.8011C15.1155 34.9379 15.4494 35.4932 15.3126 36.0417L14.2899 40.1325C14.1761 40.5887 13.766 40.9085 13.2959 40.9076Z" fill="#283593"/>
</g>
<g id="Group_2">
<path id="Vector_5" d="M25.5674 40.9077C25.0025 40.9076 24.5448 40.4495 24.5449 39.8847C24.5449 39.8014 24.5552 39.7184 24.5753 39.6376L25.598 35.5673V35.5243L26.6208 31.4561C26.7344 31.0007 27.1434 30.681 27.6128 30.6809H30.2145C31.6266 30.6806 32.7715 31.825 32.7719 33.2371C32.7719 33.4462 32.7463 33.6545 32.6956 33.8574L32.4399 34.8801C32.1555 36.0187 31.1324 36.8173 29.9589 36.8171H27.3899L26.5615 40.1327C26.4476 40.5888 26.0374 40.9086 25.5674 40.9077ZM27.9011 34.7716H29.9608C30.1954 34.7709 30.3995 34.6107 30.4558 34.383L30.7115 33.3603C30.7815 33.0879 30.6175 32.8102 30.3451 32.7403C30.3031 32.7294 30.2599 32.7241 30.2165 32.7242H28.4125L27.9011 34.7716Z" fill="#03A9F4"/>
<path id="Vector_6" d="M36.5028 40.9078H35.0465C33.4808 40.9082 32.2113 39.6392 32.2109 38.0736C32.2108 37.8416 32.2393 37.6106 32.2955 37.3857L32.4305 36.8416C32.7332 35.6205 33.8315 34.7647 35.0895 34.7696H36.5457C38.1114 34.7692 39.3809 36.0381 39.3813 37.6038C39.3814 37.8357 39.3529 38.0668 39.2967 38.2917L39.1617 38.8358C38.8591 40.0569 37.7608 40.9127 36.5028 40.9078ZM34.2815 37.8827C34.1764 38.3059 34.4343 38.7341 34.8575 38.8392C34.9194 38.8545 34.9827 38.8623 35.0465 38.8625H36.5028C36.8181 38.8633 37.0933 38.6489 37.1696 38.3429L37.3046 37.7988C37.4097 37.3756 37.1518 36.9474 36.7286 36.8423C36.6667 36.827 36.6034 36.8192 36.5396 36.819H35.0833C34.768 36.8182 34.4928 37.0325 34.4165 37.3386L34.2815 37.8827Z" fill="#03A9F4"/>
<path id="Vector_7" d="M37.8408 40.9079C37.276 40.9077 36.8183 40.4497 36.8184 39.8849C36.8184 39.8016 36.8286 39.7185 36.8488 39.6377L37.8715 35.5469C38.0082 34.9985 38.5635 34.6647 39.112 34.8014C39.6604 34.9381 39.9943 35.4934 39.8576 36.0419L38.8348 40.1327C38.721 40.5889 38.3109 40.9088 37.8408 40.9079Z" fill="#03A9F4"/>
</g>
<g id="Group_3">
<path id="Vector_8" d="M19.4316 39.8848C19.0895 39.8846 18.7703 39.7134 18.5807 39.4287L16.5354 36.3606C16.2218 35.8907 16.3487 35.2556 16.8187 34.9421C17.2887 34.6286 17.9237 34.7554 18.2372 35.2254L20.2825 38.2935C20.5965 38.763 20.4705 39.3981 20.0011 39.7122C19.8326 39.8248 19.6343 39.8848 19.4316 39.8848Z" fill="#283593"/>
<path id="Vector_9" d="M17.3856 42.9532C16.8208 42.953 16.3631 42.4949 16.3633 41.9301C16.3634 41.691 16.4472 41.4596 16.6002 41.2759L21.7136 35.1398C22.0756 34.706 22.7208 34.6478 23.1545 35.0098C23.5883 35.3719 23.6465 36.017 23.2845 36.4508L18.171 42.5869C17.9765 42.8194 17.6888 42.9535 17.3856 42.9532Z" fill="#283593"/>
</g>
<path id="Vector_10" d="M41.9306 40.9073C41.3658 40.9071 40.9081 40.4491 40.9082 39.8843C40.9082 39.801 40.9185 39.7179 40.9386 39.6371L42.9839 31.4556C43.1207 30.9072 43.676 30.5734 44.2245 30.7101C44.7729 30.8468 45.1068 31.4021 44.97 31.9506L42.9247 40.1321C42.811 40.5883 42.4008 40.9081 41.9306 40.9073Z" fill="#03A9F4"/>
<path id="Vector_11" d="M30.8155 1.76922C29.8329 0.643722 28.4112 -0.00143576 26.9171 2.39929e-06H15.3402C14.8456 2.39929e-06 14.4219 0.353981 14.3339 0.840654L10.2431 23.3398C10.1425 23.8956 10.5116 24.4276 11.0674 24.5282C11.1275 24.539 11.1884 24.5445 11.2494 24.5445H17.3855C17.855 24.5444 18.264 24.2247 18.3776 23.7693L20.2307 16.363H23.5217C27.5445 16.3472 30.9501 13.3896 31.5293 9.40872L32.0407 5.91313C32.2515 4.41965 31.8046 2.90805 30.8155 1.76922Z" fill="#283593"/>
</g>
</svg>
