<svg width="38" height="25" viewBox="0 0 38 25" fill="none" xmlns="http://www.w3.org/2000/svg">
<g id="Payment Method/PayPal">
<rect width="37.5" height="25" rx="5" fill="#253B80"/>
<g id="Vector">
<path fill-rule="evenodd" clip-rule="evenodd" d="M9.70899 9.37565H7.87208C7.74638 9.37565 7.63947 9.467 7.61987 9.59104L6.87693 14.3009C6.86216 14.3938 6.93414 14.4776 7.02842 14.4776H7.90538C8.03108 14.4776 8.13799 14.3863 8.15759 14.262L8.35797 12.9917C8.3773 12.8673 8.48447 12.776 8.60991 12.776H9.19141C10.4015 12.776 11.0998 12.1905 11.2822 11.0304C11.3644 10.5228 11.2857 10.124 11.0479 9.84457C10.7869 9.53797 10.3238 9.37565 9.70899 9.37565ZM9.92092 11.0959C9.82048 11.7549 9.31685 11.7549 8.82989 11.7549H8.5527L8.74716 10.524C8.75871 10.4497 8.82317 10.3949 8.89838 10.3949H9.02542C9.35714 10.3949 9.67008 10.3949 9.83179 10.5839C9.92813 10.6968 9.95771 10.8643 9.92092 11.0959ZM15.2 11.0747H14.3203C14.2454 11.0747 14.1806 11.1295 14.169 11.204L14.1301 11.4499L14.0686 11.3608C13.8782 11.0844 13.4536 10.9921 13.0297 10.9921C12.0576 10.9921 11.2274 11.7282 11.0657 12.7609C10.9817 13.2759 11.1011 13.7684 11.3933 14.112C11.6615 14.4278 12.045 14.5594 12.5013 14.5594C13.2845 14.5594 13.719 14.0558 13.719 14.0558L13.6797 14.3003C13.6649 14.3937 13.7369 14.4775 13.8306 14.4775H14.623C14.749 14.4775 14.8553 14.3861 14.8752 14.2619L15.3506 11.2515C15.3657 11.1589 15.2939 11.0747 15.2 11.0747ZM13.9738 12.7866C13.8889 13.2891 13.49 13.6264 12.9814 13.6264C12.7259 13.6264 12.5217 13.5445 12.3907 13.3893C12.2607 13.2351 12.2112 13.0157 12.2526 12.7713C12.3319 12.2731 12.7375 11.9248 13.2384 11.9248C13.4881 11.9248 13.6912 12.0077 13.825 12.1643C13.959 12.3225 14.0122 12.5433 13.9738 12.7866ZM19.0009 11.0746H19.8849C20.0087 11.0746 20.0809 11.2134 20.0105 11.315L17.0705 15.5583C17.0229 15.627 16.9445 15.6679 16.8607 15.6679H15.9778C15.8535 15.6679 15.7809 15.5279 15.8529 15.4261L16.7684 14.1341L15.7947 11.2771C15.761 11.1778 15.8344 11.0746 15.94 11.0746H16.8086C16.9215 11.0746 17.0211 11.1487 17.0536 11.2567L17.5703 12.9822L18.7896 11.1866C18.8373 11.1165 18.9166 11.0746 19.0009 11.0746Z" fill="white"/>
<path fill-rule="evenodd" clip-rule="evenodd" d="M28.5855 14.3005L29.3393 9.5045C29.3509 9.43006 29.4154 9.37525 29.4903 9.375H30.339C30.4328 9.375 30.5047 9.45902 30.4899 9.55198L29.7465 14.2616C29.7271 14.3859 29.6202 14.4772 29.4943 14.4772H28.7364C28.6426 14.4772 28.5707 14.3934 28.5855 14.3005ZM22.8119 9.37525H20.9747C20.8493 9.37525 20.7424 9.4666 20.7228 9.59063L19.9798 14.3005C19.965 14.3934 20.037 14.4772 20.1308 14.4772H21.0735C21.1612 14.4772 21.2361 14.4133 21.2498 14.3263L21.4606 12.9913C21.48 12.8669 21.5871 12.7756 21.7125 12.7756H22.2938C23.504 12.7756 24.2022 12.1901 24.3848 11.03C24.4672 10.5224 24.388 10.1236 24.1504 9.84417C23.8895 9.53756 23.4267 9.37525 22.8119 9.37525ZM23.0239 11.0955C22.9237 11.7545 22.42 11.7545 21.9328 11.7545H21.6559L21.8506 10.5236C21.8622 10.4493 21.9261 10.3945 22.0015 10.3945H22.1286C22.4601 10.3945 22.7733 10.3945 22.9349 10.5835C23.0313 10.6964 23.0607 10.8639 23.0239 11.0955ZM28.3024 11.0743H27.4234C27.3478 11.0743 27.2837 11.1291 27.2724 11.2036L27.2335 11.4495L27.1717 11.3604C26.9813 11.084 26.5569 10.9917 26.1331 10.9917C25.1609 10.9917 24.331 11.7278 24.1693 12.7605C24.0855 13.2755 24.2045 13.768 24.4967 14.1116C24.7653 14.4274 25.1484 14.559 25.6047 14.559C26.3879 14.559 26.8222 14.0554 26.8222 14.0554L26.783 14.2999C26.7682 14.3933 26.8402 14.4771 26.9345 14.4771H27.7266C27.852 14.4771 27.9589 14.3857 27.9785 14.2614L28.4542 11.2511C28.4687 11.1585 28.3968 11.0743 28.3024 11.0743ZM27.0764 12.7862C26.992 13.2887 26.5926 13.626 26.0838 13.626C25.8289 13.626 25.6243 13.5441 25.4932 13.3889C25.3632 13.2347 25.3143 13.0153 25.3552 12.7709C25.4349 12.2727 25.84 11.9244 26.3409 11.9244C26.5907 11.9244 26.7937 12.0073 26.9276 12.1639C27.0621 12.3221 27.1153 12.5429 27.0764 12.7862Z" fill="#179BD7"/>
</g>
</g>
</svg>
