<svg width="24" height="24" viewBox="0 0 24 24" fill="none" xmlns="http://www.w3.org/2000/svg">
<g id="Discount Icon">
<path id="Vector" d="M23.7167 11.4251L22.6403 10.5992L23.4662 9.52277C23.7563 9.1448 23.6088 8.59459 23.1687 8.41225L21.9152 7.89304L22.4344 6.63953C22.6167 6.19937 22.3319 5.70604 21.8595 5.6439L20.5144 5.46682L20.6915 4.12161C20.7537 3.64929 20.3509 3.24646 19.8785 3.30865L19.3037 3.38432V20.6156L19.8785 20.6913C20.3509 20.7535 20.7537 20.3507 20.6915 19.8783L20.5144 18.5331L21.8595 18.3561C22.3319 18.2939 22.6167 17.8006 22.4344 17.3604L21.9152 16.1069L23.1687 15.5877C23.6088 15.4054 23.7563 14.8552 23.4662 14.4772L22.6403 13.4008L23.7167 12.5748C24.0947 12.2848 24.0947 11.7152 23.7167 11.4251Z" fill="#25AC10"/>
<path id="Vector_2" d="M18.3561 21.8594L18.5332 20.5142L19.3035 20.6156C19.5305 20.481 19.6787 20.1957 19.642 19.8783L19.4863 18.5332L20.669 18.3561C21.0844 18.2939 21.3348 17.8006 21.1745 17.3604L20.7179 16.1069L21.8201 15.5877C22.2071 15.4054 22.3367 14.8552 22.0817 14.4772L21.3555 13.4008L22.302 12.5748C22.6343 12.2848 22.6343 11.7152 22.302 11.4252L21.3555 10.5992L22.0817 9.52279C22.3367 9.14482 22.2071 8.59461 21.8201 8.41227L20.7179 7.89306L21.1745 6.63955C21.3348 6.19939 21.0844 5.70607 20.669 5.64392L19.4863 5.46684L19.642 4.12163C19.6787 3.80423 19.5305 3.51898 19.3035 3.38435L18.5331 3.4858L18.5179 3.37L18.356 2.14065C18.2938 1.66828 17.8005 1.38351 17.3603 1.56581L16.1068 2.08502L15.5876 0.831512C15.4053 0.391352 14.8551 0.243923 14.4771 0.533951L13.4007 1.3599L12.5748 0.283473C12.2848 -0.0944908 11.7152 -0.0944908 11.4252 0.283473L10.5992 1.3599L9.52279 0.533951C9.14482 0.243923 8.59461 0.391352 8.41227 0.831512L7.89306 2.08502L6.63955 1.56581C6.19939 1.38351 5.70607 1.66832 5.64392 2.14065L5.46684 3.4858L4.12168 3.30872C3.64931 3.24653 3.24653 3.64931 3.30873 4.12168L3.4858 5.46684L2.14065 5.64392C1.66832 5.70611 1.38346 6.19939 1.56581 6.63955L2.08502 7.89306L0.831512 8.41227C0.391352 8.59461 0.243923 9.14477 0.533951 9.52279L1.3599 10.5992L0.283473 11.4252C-0.0944908 11.7152 -0.0944908 12.2848 0.283473 12.5748L1.3599 13.4008L0.533951 14.4772C0.243923 14.8552 0.391352 15.4054 0.831512 15.5877L2.08502 16.1069L1.56581 17.3604C1.38346 17.8006 1.66828 18.2939 2.14065 18.3561L3.4858 18.5332L3.30873 19.8783C3.24653 20.3507 3.64931 20.7535 4.12168 20.6913L5.46684 20.5142L5.64392 21.8594C5.70612 22.3317 6.19939 22.6165 6.63955 22.4342L7.89306 21.915L8.41227 23.1685C8.59456 23.6086 9.14478 23.7561 9.52279 23.466L10.5992 22.6401L11.4252 23.7165C11.7152 24.0945 12.2848 24.0945 12.5748 23.7165L13.4008 22.6401L14.4772 23.466C14.8552 23.7561 15.4054 23.6086 15.5877 23.1685L16.1069 21.915L17.3604 22.4342C17.8006 22.6165 18.2939 22.3317 18.3561 21.8594Z" fill="#25AC10"/>
<g id="Group">
<path id="Vector_3" d="M15.5859 12.688C13.9857 12.688 12.6885 13.9852 12.6885 15.5854C12.6885 17.1855 13.9857 18.4828 15.5859 18.4828C17.186 18.4828 18.4832 17.1855 18.4832 15.5854C18.4832 13.9852 17.186 12.688 15.5859 12.688ZM15.5859 17.0341C14.7858 17.0341 14.1372 16.3855 14.1372 15.5854C14.1372 14.7853 14.7858 14.1367 15.5859 14.1367C16.386 14.1367 17.0345 14.7853 17.0345 15.5854C17.0345 16.3855 16.386 17.0341 15.5859 17.0341Z" fill="#FFFBDB"/>
<path id="Vector_4" d="M8.41496 5.51733C6.81478 5.51733 5.51758 6.81454 5.51758 8.41472C5.51758 10.0149 6.81478 11.3121 8.41496 11.3121C10.0151 11.3121 11.3123 10.0149 11.3123 8.41472C11.3123 6.81454 10.0151 5.51733 8.41496 5.51733ZM8.41496 9.86341C7.6149 9.86341 6.96627 9.21483 6.96627 8.41472C6.96627 7.61465 7.6149 6.96602 8.41496 6.96602C9.21507 6.96602 9.86365 7.61465 9.86365 8.41472C9.86365 9.21483 9.21502 9.86341 8.41496 9.86341Z" fill="#FFFBDB"/>
<path id="Vector_5" d="M6.72486 17.2756C6.44198 16.9927 6.44198 16.5341 6.72486 16.2512L16.2516 6.72447C16.5345 6.44159 16.9931 6.44159 17.276 6.72447C17.5588 7.00736 17.5588 7.46596 17.276 7.74884L7.74923 17.2756C7.46634 17.5585 7.00774 17.5585 6.72486 17.2756Z" fill="#FFFBDB"/>
</g>
</g>
</svg>
