<svg width="19" height="19" viewBox="0 0 19 19" fill="none" xmlns="http://www.w3.org/2000/svg">
<path d="M9.50003 9.5C8.54936 9.5 7.62004 9.22141 6.82959 8.69948C6.03913 8.17754 5.42305 7.43569 5.05925 6.56774C4.69544 5.6998 4.60025 4.74473 4.78572 3.82332C4.97119 2.90191 5.42898 2.05554 6.1012 1.39124C6.77343 0.726945 7.62989 0.274552 8.56229 0.091272C9.4947 -0.0920077 10.4612 0.00205811 11.3395 0.361574C12.2178 0.72109 12.9685 1.32991 13.4966 2.11104C14.0248 2.89218 14.3067 3.81054 14.3067 4.75C14.3054 6.00939 13.7986 7.21684 12.8974 8.10737C11.9963 8.99789 10.7744 9.49874 9.50003 9.5Z" fill="white"/>
<path d="M18.1977 19H0.802338C0.58987 19 0.386104 18.9166 0.235867 18.7681C0.0856294 18.6197 0.00122708 18.4183 0.00122708 18.2083V17.4167C-0.0153052 16.59 0.135361 15.7684 0.444391 15.0001C0.75342 14.2317 1.21459 13.5321 1.80086 12.9422C2.38712 12.3523 3.08668 11.884 3.8585 11.5648C4.63032 11.2456 5.45887 11.0819 6.29556 11.0833H12.7044C13.5411 11.0819 14.3697 11.2456 15.1415 11.5648C15.9133 11.884 16.6129 12.3523 17.1991 12.9422C17.7854 13.5321 18.2466 14.2317 18.5556 15.0001C18.8646 15.7684 19.0153 16.59 18.9988 17.4167V18.2083C18.9988 18.4183 18.9144 18.6197 18.7641 18.7681C18.6139 18.9166 18.4101 19 18.1977 19Z" fill="white"/>
</svg>
