<svg width="17" height="17" viewBox="0 0 17 17" fill="none" xmlns="http://www.w3.org/2000/svg">
<g id="Group 36778">
<g id="Group">
<g id="Group_2">
<path id="Vector" d="M16.3941 2.34509C16.0289 2.31179 15.7058 2.5809 15.6725 2.94613L15.5845 3.91131C14.0918 1.56698 11.5005 0 8.49795 0C5.26793 0 2.4214 1.8435 1.00835 4.61037C0.841539 4.93698 0.971097 5.33698 1.29772 5.50379C1.6244 5.6706 2.02433 5.54108 2.19114 5.21443C3.38701 2.87282 5.78849 1.32812 8.49795 1.32812C10.9675 1.32812 13.1961 2.6141 14.4729 4.62876L13.5261 3.95252C13.2276 3.73939 12.8129 3.80851 12.5997 4.10694C12.3866 4.4054 12.4557 4.82011 12.7542 5.03327L15.6254 7.08392C16.0462 7.38391 16.6266 7.10929 16.6727 6.60384L16.9951 3.06673C17.0284 2.70146 16.7593 2.3784 16.3941 2.34509Z" fill="#148C00"/>
</g>
</g>
<g id="Group_3">
<g id="Group_4">
<path id="Vector_2" d="M15.7002 11.4961C15.3735 11.3294 14.9735 11.4589 14.8067 11.7855C13.6109 14.1271 11.2094 15.6718 8.49993 15.6718C6.03039 15.6718 3.80174 14.3858 2.52495 12.3712L3.4718 13.0474C3.77026 13.2606 4.18497 13.1914 4.39813 12.893C4.61126 12.5945 4.54213 12.1798 4.2437 11.9667L1.37248 9.91602C0.956807 9.61905 0.371704 9.88543 0.32522 10.3961L0.00278599 13.9332C-0.0305166 14.2984 0.238594 14.6215 0.603793 14.6548C0.969491 14.688 1.29212 14.4187 1.32539 14.0538L1.41338 13.0886C2.90612 15.433 5.49742 16.9999 8.49993 16.9999C11.7299 16.9999 14.5765 15.1564 15.9895 12.3896C16.1563 12.063 16.0268 11.663 15.7002 11.4961Z" fill="#148C00"/>
</g>
</g>
</g>
</svg>
