<svg width="23" height="24" viewBox="0 0 23 24" fill="none" xmlns="http://www.w3.org/2000/svg">
<rect width="23" height="24" fill="#1E1E1E"/>
<g id="Kategoriler" clip-path="url(#clip0_80_2)">
<rect width="1920" height="3228" transform="translate(-466 -1561)" fill="#FAFDFB"/>
<g id="Indirim filtre">
<g id="Frame 37154" filter="url(#filter0_d_80_2)">
<g clip-path="url(#clip1_80_2)">
<rect x="-256" y="-18" width="298" height="59" rx="8" fill="white"/>
<g id="Group 37337">
<g id="Discount Icon">
<path id="Vector" d="M23.7167 11.4256L22.6403 10.5996L23.4662 9.52321C23.7563 9.14524 23.6088 8.59503 23.1687 8.41269L21.9152 7.89348L22.4344 6.63998C22.6167 6.19982 22.3319 5.70649 21.8595 5.64434L20.5144 5.46726L20.6915 4.12205C20.7537 3.64973 20.3509 3.2469 19.8785 3.3091L19.3037 3.38477V20.616L19.8785 20.6917C20.3509 20.7539 20.7537 20.3511 20.6915 19.8787L20.5144 18.5336L21.8595 18.3565C22.3319 18.2943 22.6167 17.801 22.4344 17.3609L21.9152 16.1074L23.1687 15.5882C23.6088 15.4059 23.7563 14.8556 23.4662 14.4776L22.6403 13.4012L23.7167 12.5753C24.0947 12.2852 24.0947 11.7156 23.7167 11.4256Z" fill="#148C00"/>
<path id="Vector_2" d="M18.3561 21.8594L18.5332 20.5142L19.3035 20.6156C19.5305 20.481 19.6787 20.1957 19.642 19.8783L19.4863 18.5332L20.669 18.3561C21.0844 18.2939 21.3348 17.8006 21.1745 17.3604L20.7179 16.1069L21.8201 15.5877C22.2071 15.4054 22.3367 14.8552 22.0817 14.4772L21.3555 13.4008L22.302 12.5748C22.6343 12.2848 22.6343 11.7152 22.302 11.4252L21.3555 10.5992L22.0817 9.52279C22.3367 9.14482 22.2071 8.59461 21.8201 8.41227L20.7179 7.89306L21.1745 6.63955C21.3348 6.19939 21.0844 5.70607 20.669 5.64392L19.4863 5.46684L19.642 4.12163C19.6787 3.80423 19.5305 3.51898 19.3035 3.38435L18.5331 3.4858L18.5179 3.37L18.356 2.14065C18.2938 1.66828 17.8005 1.38351 17.3603 1.56581L16.1068 2.08502L15.5876 0.831512C15.4053 0.391352 14.8551 0.243923 14.4771 0.533951L13.4007 1.3599L12.5748 0.283473C12.2848 -0.0944908 11.7152 -0.0944908 11.4252 0.283473L10.5992 1.3599L9.52279 0.533951C9.14482 0.243923 8.59461 0.391352 8.41227 0.831512L7.89306 2.08502L6.63955 1.56581C6.19939 1.38351 5.70607 1.66832 5.64392 2.14065L5.46684 3.4858L4.12168 3.30872C3.64931 3.24653 3.24653 3.64931 3.30873 4.12168L3.4858 5.46684L2.14065 5.64392C1.66832 5.70611 1.38346 6.19939 1.56581 6.63955L2.08502 7.89306L0.831512 8.41227C0.391352 8.59461 0.243923 9.14477 0.533951 9.52279L1.3599 10.5992L0.283473 11.4252C-0.0944908 11.7152 -0.0944908 12.2848 0.283473 12.5748L1.3599 13.4008L0.533951 14.4772C0.243923 14.8552 0.391352 15.4054 0.831512 15.5877L2.08502 16.1069L1.56581 17.3604C1.38346 17.8006 1.66828 18.2939 2.14065 18.3561L3.4858 18.5332L3.30873 19.8783C3.24653 20.3507 3.64931 20.7535 4.12168 20.6913L5.46684 20.5142L5.64392 21.8594C5.70612 22.3317 6.19939 22.6165 6.63955 22.4342L7.89306 21.915L8.41227 23.1685C8.59456 23.6086 9.14478 23.7561 9.52279 23.466L10.5992 22.6401L11.4252 23.7165C11.7152 24.0945 12.2848 24.0945 12.5748 23.7165L13.4008 22.6401L14.4772 23.466C14.8552 23.7561 15.4054 23.6086 15.5877 23.1685L16.1069 21.915L17.3604 22.4342C17.8006 22.6165 18.2939 22.3317 18.3561 21.8594Z" fill="#148C00"/>
<g id="Group">
<path id="Vector_3" d="M15.5859 12.6885C13.9857 12.6885 12.6885 13.9857 12.6885 15.5859C12.6885 17.186 13.9857 18.4832 15.5859 18.4832C17.186 18.4832 18.4832 17.186 18.4832 15.5859C18.4832 13.9857 17.186 12.6885 15.5859 12.6885ZM15.5859 17.0345C14.7858 17.0345 14.1372 16.386 14.1372 15.5859C14.1372 14.7858 14.7858 14.1372 15.5859 14.1372C16.386 14.1372 17.0345 14.7858 17.0345 15.5859C17.0345 16.386 16.386 17.0345 15.5859 17.0345Z" fill="white"/>
<path id="Vector_4" d="M8.41496 5.51758C6.81478 5.51758 5.51758 6.81478 5.51758 8.41496C5.51758 10.0151 6.81478 11.3123 8.41496 11.3123C10.0151 11.3123 11.3123 10.0151 11.3123 8.41496C11.3123 6.81478 10.0151 5.51758 8.41496 5.51758ZM8.41496 9.86365C7.6149 9.86365 6.96627 9.21507 6.96627 8.41496C6.96627 7.6149 7.6149 6.96627 8.41496 6.96627C9.21507 6.96627 9.86365 7.6149 9.86365 8.41496C9.86365 9.21507 9.21502 9.86365 8.41496 9.86365Z" fill="white"/>
<path id="Vector_5" d="M6.72486 17.276C6.44198 16.9931 6.44198 16.5345 6.72486 16.2516L16.2516 6.72486C16.5345 6.44198 16.9931 6.44198 17.276 6.72486C17.5588 7.00774 17.5588 7.46634 17.276 7.74923L7.74923 17.276C7.46634 17.5588 7.00774 17.5588 6.72486 17.276Z" fill="white"/>
</g>
</g>
</g>
</g>
</g>
</g>
</g>
<defs>
<filter id="filter0_d_80_2" x="-271" y="-29" width="328" height="89" filterUnits="userSpaceOnUse" color-interpolation-filters="sRGB">
<feFlood flood-opacity="0" result="BackgroundImageFix"/>
<feColorMatrix in="SourceAlpha" type="matrix" values="0 0 0 0 0 0 0 0 0 0 0 0 0 0 0 0 0 0 127 0" result="hardAlpha"/>
<feOffset dy="4"/>
<feGaussianBlur stdDeviation="7.5"/>
<feComposite in2="hardAlpha" operator="out"/>
<feColorMatrix type="matrix" values="0 0 0 0 0.541176 0 0 0 0 0.568627 0 0 0 0 0.643137 0 0 0 0.25 0"/>
<feBlend mode="normal" in2="BackgroundImageFix" result="effect1_dropShadow_80_2"/>
<feBlend mode="normal" in="SourceGraphic" in2="effect1_dropShadow_80_2" result="shape"/>
</filter>
<clipPath id="clip0_80_2">
<rect width="1920" height="3228" fill="white" transform="translate(-466 -1561)"/>
</clipPath>
<clipPath id="clip1_80_2">
<rect x="-256" y="-18" width="298" height="59" rx="8" fill="white"/>
</clipPath>
</defs>
</svg>
