<svg width="22" height="22" viewBox="0 0 22 22" fill="none" xmlns="http://www.w3.org/2000/svg">
<path d="M0.676827 14.4906C0.494647 14.4934 0.321046 14.565 0.194155 14.6898C0.0672629 14.8146 -0.00254259 14.9824 7.08242e-05 15.1563V19.5313C7.08562e-05 20.6106 0.931836 21.5 2.06257 21.5H6.64589C6.73699 21.5012 6.82744 21.4852 6.91198 21.4527C6.99652 21.4203 7.07347 21.3722 7.13835 21.3111C7.20323 21.25 7.25474 21.1773 7.28991 21.0971C7.32507 21.0168 7.34318 20.9307 7.34318 20.8438C7.34318 20.7568 7.32507 20.6707 7.28991 20.5904C7.25474 20.5102 7.20323 20.4375 7.13835 20.3764C7.07347 20.3153 6.99652 20.2672 6.91198 20.2348C6.82744 20.2023 6.73699 20.1863 6.64589 20.1875H2.06257C1.6698 20.1875 1.37507 19.9062 1.37507 19.5313V15.1563C1.37639 15.0685 1.35922 14.9813 1.32459 14.8999C1.28995 14.8185 1.23856 14.7446 1.17344 14.6825C1.10833 14.6204 1.03082 14.5715 0.945516 14.5385C0.860211 14.5055 0.768843 14.4893 0.676827 14.4906Z" fill="#707070"/>
<path d="M21.3016 14.4906C21.1194 14.4934 20.9458 14.565 20.8189 14.6898C20.692 14.8146 20.6222 14.9824 20.6249 15.1563V19.5313C20.6249 19.9062 20.3301 20.1875 19.9374 20.1875H15.354C15.2629 20.1863 15.1725 20.2023 15.0879 20.2348C15.0034 20.2672 14.9265 20.3153 14.8616 20.3764C14.7967 20.4375 14.7452 20.5102 14.71 20.5904C14.6748 20.6707 14.6567 20.7568 14.6567 20.8438C14.6567 20.9307 14.6748 21.0168 14.71 21.0971C14.7452 21.1773 14.7967 21.25 14.8616 21.3111C14.9265 21.3722 15.0034 21.4203 15.0879 21.4527C15.1725 21.4852 15.2629 21.5012 15.354 21.5H19.9374C21.0681 21.5 21.9998 20.6106 21.9998 19.5313V15.1563C22.0012 15.0685 21.984 14.9813 21.9494 14.8999C21.9147 14.8185 21.8633 14.7446 21.7982 14.6825C21.7331 14.6204 21.6556 14.5715 21.5703 14.5385C21.485 14.5055 21.3936 14.4893 21.3016 14.4906Z" fill="#707070"/>
<path d="M15.354 0.500127C15.2629 0.498897 15.1725 0.514962 15.0879 0.54739C15.0034 0.579818 14.9265 0.62796 14.8616 0.68902C14.7967 0.75008 14.7452 0.82284 14.71 0.903071C14.6748 0.983302 14.6567 1.0694 14.6567 1.15637C14.6567 1.24334 14.6748 1.32944 14.71 1.40967C14.7452 1.4899 14.7967 1.56266 14.8616 1.62372C14.9265 1.68478 15.0034 1.73293 15.0879 1.76535C15.1725 1.79778 15.2629 1.81385 15.354 1.81262H19.9374C20.3301 1.81262 20.6248 2.09395 20.6248 2.46886V6.84384C20.6236 6.9308 20.6404 7.01713 20.6744 7.09783C20.7083 7.17853 20.7588 7.25198 20.8227 7.31391C20.8867 7.37584 20.9629 7.42501 21.047 7.45858C21.131 7.49214 21.2212 7.50943 21.3123 7.50943C21.4035 7.50943 21.4937 7.49214 21.5777 7.45858C21.6618 7.42501 21.738 7.37584 21.802 7.31391C21.8659 7.25198 21.9164 7.17853 21.9503 7.09783C21.9843 7.01713 22.0011 6.9308 21.9998 6.84384V2.46886C21.9998 1.38953 21.0681 0.500127 19.9374 0.500127H15.354Z" fill="#707070"/>
<path d="M2.06256 0.500127C0.931834 0.500127 6.84803e-05 1.38953 6.87553e-05 2.46886V6.84384C-0.00121965 6.9308 0.0156111 7.01713 0.049583 7.09783C0.0835549 7.17853 0.13399 7.25198 0.197958 7.31391C0.261926 7.37584 0.338151 7.42501 0.422203 7.45858C0.506254 7.49214 0.596456 7.50943 0.687567 7.50943C0.778678 7.50943 0.86888 7.49214 0.952932 7.45858C1.03698 7.42501 1.11321 7.37584 1.17718 7.31391C1.24114 7.25198 1.29158 7.17853 1.32555 7.09783C1.35952 7.01713 1.37635 6.9308 1.37507 6.84384V2.46886C1.37507 2.09395 1.6698 1.81262 2.06256 1.81262H6.64589C6.73699 1.81385 6.82744 1.79778 6.91198 1.76535C6.99652 1.73293 7.07346 1.68478 7.13834 1.62372C7.20322 1.56266 7.25474 1.4899 7.28991 1.40967C7.32507 1.32944 7.34318 1.24334 7.34318 1.15637C7.34318 1.0694 7.32507 0.983302 7.28991 0.903071C7.25474 0.82284 7.20322 0.75008 7.13834 0.68902C7.07346 0.62796 6.99652 0.579818 6.91198 0.54739C6.82744 0.514962 6.73699 0.498897 6.64589 0.500127H2.06256Z" fill="#707070"/>
<path d="M4.80272 12.3032C4.71244 12.3044 4.62329 12.3226 4.54038 12.3567C4.45746 12.3908 4.3824 12.4402 4.31947 12.502C4.25654 12.5638 4.20699 12.6369 4.17363 12.7169C4.14028 12.797 4.12378 12.8826 4.12507 12.9688V16.0313C4.12378 16.1182 4.14061 16.2046 4.17459 16.2853C4.20856 16.366 4.25899 16.4394 4.32296 16.5013C4.38693 16.5633 4.46315 16.6125 4.5472 16.646C4.63126 16.6796 4.72146 16.6969 4.81257 16.6969C4.90368 16.6969 4.99388 16.6796 5.07793 16.646C5.16199 16.6125 5.23821 16.5633 5.30218 16.5013C5.36615 16.4394 5.41658 16.366 5.45055 16.2853C5.48453 16.2046 5.50136 16.1182 5.50007 16.0313V12.9688C5.50138 12.881 5.48425 12.7939 5.44967 12.7126C5.41509 12.6313 5.36377 12.5574 5.29875 12.4953C5.23374 12.4333 5.15634 12.3843 5.07114 12.3513C4.98593 12.3183 4.89466 12.3019 4.80272 12.3032Z" fill="#707070"/>
<path d="M4.80272 5.30319C4.71244 5.30443 4.62329 5.32263 4.54038 5.35675C4.45746 5.39086 4.3824 5.44024 4.31947 5.50205C4.25654 5.56386 4.20699 5.6369 4.17363 5.71699C4.14028 5.79708 4.12378 5.88266 4.12507 5.96884V8.59382C4.12378 8.68078 4.14061 8.76712 4.17459 8.84782C4.20856 8.92851 4.25899 9.00196 4.32296 9.06389C4.38693 9.12582 4.46315 9.175 4.5472 9.20856C4.63126 9.24213 4.72146 9.25941 4.81257 9.25941C4.90368 9.25941 4.99388 9.24213 5.07793 9.20856C5.16199 9.175 5.23821 9.12582 5.30218 9.06389C5.36615 9.00196 5.41658 8.92851 5.45055 8.84782C5.48453 8.76712 5.50136 8.68078 5.50007 8.59382V5.96884C5.50138 5.88108 5.48425 5.79396 5.44967 5.71263C5.41509 5.6313 5.36377 5.55742 5.29875 5.49536C5.23374 5.43329 5.15634 5.38431 5.07114 5.3513C4.98593 5.3183 4.89466 5.30194 4.80272 5.30319Z" fill="#707070"/>
<path d="M17.1777 12.3032C17.0874 12.3044 16.9983 12.3226 16.9154 12.3567C16.8325 12.3908 16.7574 12.4402 16.6945 12.502C16.6315 12.5638 16.582 12.6369 16.5486 12.7169C16.5153 12.797 16.4988 12.8826 16.5001 12.9688V16.0313C16.4988 16.1182 16.5156 16.2046 16.5496 16.2853C16.5836 16.366 16.634 16.4394 16.698 16.5013C16.7619 16.5633 16.8382 16.6125 16.9222 16.646C17.0063 16.6796 17.0965 16.6969 17.1876 16.6969C17.2787 16.6969 17.3689 16.6796 17.4529 16.646C17.537 16.6125 17.6132 16.5633 17.6772 16.5013C17.7411 16.4394 17.7916 16.366 17.8256 16.2853C17.8595 16.2046 17.8764 16.1182 17.8751 16.0313V12.9688C17.8764 12.881 17.8592 12.7939 17.8247 12.7126C17.7901 12.6313 17.7388 12.5574 17.6738 12.4953C17.6087 12.4333 17.5313 12.3843 17.4461 12.3513C17.3609 12.3183 17.2697 12.3019 17.1777 12.3032Z" fill="#707070"/>
<path d="M17.1777 5.30319C17.0874 5.30443 16.9983 5.32263 16.9154 5.35675C16.8325 5.39086 16.7574 5.44024 16.6945 5.50205C16.6315 5.56386 16.582 5.6369 16.5486 5.71699C16.5153 5.79708 16.4988 5.88266 16.5001 5.96884V8.59382C16.4988 8.68078 16.5156 8.76712 16.5496 8.84782C16.5836 8.92851 16.634 9.00196 16.698 9.06389C16.7619 9.12582 16.8382 9.175 16.9222 9.20856C17.0063 9.24213 17.0965 9.25941 17.1876 9.25941C17.2787 9.25941 17.3689 9.24213 17.4529 9.20856C17.537 9.175 17.6132 9.12582 17.6772 9.06389C17.7411 9.00196 17.7916 8.92851 17.8256 8.84782C17.8595 8.76712 17.8764 8.68078 17.8751 8.59382V5.96884C17.8764 5.88108 17.8592 5.79396 17.8247 5.71263C17.7901 5.6313 17.7388 5.55742 17.6738 5.49536C17.6087 5.43329 17.5313 5.38431 17.4461 5.3513C17.3609 5.3183 17.2697 5.30194 17.1777 5.30319Z" fill="#707070"/>
<path d="M7.55272 12.3032C7.46244 12.3044 7.37329 12.3226 7.29038 12.3567C7.20746 12.3908 7.1324 12.4402 7.06947 12.502C7.00654 12.5638 6.95699 12.6369 6.92363 12.7169C6.89028 12.797 6.87378 12.8826 6.87507 12.9688V16.0313C6.87378 16.1182 6.89061 16.2046 6.92459 16.2853C6.95856 16.366 7.00899 16.4394 7.07296 16.5013C7.13693 16.5633 7.21315 16.6125 7.2972 16.646C7.38126 16.6796 7.47146 16.6969 7.56257 16.6969C7.65368 16.6969 7.74388 16.6796 7.82793 16.646C7.91199 16.6125 7.98821 16.5633 8.05218 16.5013C8.11615 16.4394 8.16658 16.366 8.20055 16.2853C8.23453 16.2046 8.25136 16.1182 8.25007 16.0313V12.9688C8.25138 12.881 8.23425 12.7939 8.19967 12.7126C8.16509 12.6313 8.11377 12.5574 8.04875 12.4953C7.98374 12.4333 7.90634 12.3843 7.82114 12.3513C7.73593 12.3183 7.64466 12.3019 7.55272 12.3032Z" fill="#707070"/>
<path d="M7.55272 5.30319C7.46244 5.30443 7.37329 5.32263 7.29038 5.35675C7.20746 5.39086 7.1324 5.44024 7.06947 5.50205C7.00654 5.56386 6.95699 5.6369 6.92363 5.71699C6.89028 5.79708 6.87378 5.88266 6.87507 5.96884V8.59382C6.87378 8.68078 6.89061 8.76712 6.92459 8.84782C6.95856 8.92851 7.00899 9.00196 7.07296 9.06389C7.13693 9.12582 7.21315 9.175 7.2972 9.20856C7.38126 9.24213 7.47146 9.25941 7.56257 9.25941C7.65368 9.25941 7.74388 9.24213 7.82793 9.20856C7.91199 9.175 7.98821 9.12582 8.05218 9.06389C8.11615 9.00196 8.16658 8.92851 8.20055 8.84782C8.23453 8.76712 8.25136 8.68078 8.25007 8.59382V5.96884C8.25138 5.88108 8.23425 5.79396 8.19967 5.71263C8.16509 5.6313 8.11377 5.55742 8.04875 5.49536C7.98374 5.43329 7.90634 5.38431 7.82114 5.3513C7.73593 5.3183 7.64466 5.30194 7.55272 5.30319Z" fill="#707070"/>
<path d="M10.761 12.3032C10.6707 12.3044 10.5815 12.3226 10.4986 12.3567C10.4157 12.3908 10.3406 12.4402 10.2777 12.502C10.2148 12.5638 10.1652 12.6369 10.1319 12.7169C10.0985 12.797 10.082 12.8826 10.0833 12.9688V16.0313C10.082 16.1182 10.0989 16.2046 10.1328 16.2853C10.1668 16.366 10.2172 16.4394 10.2812 16.5013C10.3452 16.5633 10.4214 16.6125 10.5055 16.646C10.5895 16.6796 10.6797 16.6969 10.7708 16.6969C10.8619 16.6969 10.9521 16.6796 11.0362 16.646C11.1202 16.6125 11.1965 16.5633 11.2604 16.5013C11.3244 16.4394 11.3748 16.366 11.4088 16.2853C11.4428 16.2046 11.4596 16.1182 11.4583 16.0313V12.9688C11.4596 12.881 11.4425 12.7939 11.4079 12.7126C11.3733 12.6313 11.322 12.5574 11.257 12.4953C11.192 12.4333 11.1146 12.3843 11.0294 12.3513C10.9442 12.3183 10.8529 12.3019 10.761 12.3032Z" fill="#707070"/>
<path d="M10.761 5.30319C10.6707 5.30443 10.5815 5.32263 10.4986 5.35675C10.4157 5.39086 10.3406 5.44024 10.2777 5.50205C10.2148 5.56386 10.1652 5.6369 10.1319 5.71699C10.0985 5.79708 10.082 5.88266 10.0833 5.96884V8.59382C10.082 8.68078 10.0989 8.76712 10.1328 8.84782C10.1668 8.92851 10.2172 9.00196 10.2812 9.06389C10.3452 9.12582 10.4214 9.175 10.5055 9.20856C10.5895 9.24213 10.6797 9.25941 10.7708 9.25941C10.8619 9.25941 10.9521 9.24213 11.0362 9.20856C11.1202 9.175 11.1965 9.12582 11.2604 9.06389C11.3244 9.00196 11.3748 8.92851 11.4088 8.84782C11.4428 8.76712 11.4596 8.68078 11.4583 8.59382V5.96884C11.4596 5.88108 11.4425 5.79396 11.4079 5.71263C11.3733 5.6313 11.322 5.55742 11.257 5.49536C11.192 5.43329 11.1146 5.38431 11.0294 5.3513C10.9442 5.3183 10.8529 5.30194 10.761 5.30319Z" fill="#707070"/>
<path d="M13.511 12.3032C13.4207 12.3044 13.3315 12.3226 13.2486 12.3567C13.1657 12.3908 13.0906 12.4402 13.0277 12.502C12.9648 12.5638 12.9152 12.6369 12.8819 12.7169C12.8485 12.797 12.832 12.8826 12.8333 12.9688V16.0313C12.832 16.1182 12.8489 16.2046 12.8828 16.2853C12.9168 16.366 12.9672 16.4394 13.0312 16.5013C13.0952 16.5633 13.1714 16.6125 13.2555 16.646C13.3395 16.6796 13.4297 16.6969 13.5208 16.6969C13.6119 16.6969 13.7021 16.6796 13.7862 16.646C13.8702 16.6125 13.9465 16.5633 14.0104 16.5013C14.0744 16.4394 14.1248 16.366 14.1588 16.2853C14.1928 16.2046 14.2096 16.1182 14.2083 16.0313V12.9688C14.2096 12.881 14.1925 12.7939 14.1579 12.7126C14.1233 12.6313 14.072 12.5574 14.007 12.4953C13.942 12.4333 13.8646 12.3843 13.7794 12.3513C13.6942 12.3183 13.6029 12.3019 13.511 12.3032Z" fill="#707070"/>
<path d="M13.511 5.30319C13.4207 5.30443 13.3315 5.32263 13.2486 5.35675C13.1657 5.39086 13.0906 5.44024 13.0277 5.50205C12.9648 5.56386 12.9152 5.6369 12.8819 5.71699C12.8485 5.79708 12.832 5.88266 12.8333 5.96884V8.59382C12.832 8.68078 12.8489 8.76712 12.8828 8.84782C12.9168 8.92851 12.9672 9.00196 13.0312 9.06389C13.0952 9.12582 13.1714 9.175 13.2555 9.20856C13.3395 9.24213 13.4297 9.25941 13.5208 9.25941C13.6119 9.25941 13.7021 9.24213 13.7862 9.20856C13.8702 9.175 13.9465 9.12582 14.0104 9.06389C14.0744 9.00196 14.1248 8.92851 14.1588 8.84782C14.1928 8.76712 14.2096 8.68078 14.2083 8.59382V5.96884C14.2096 5.88108 14.1925 5.79396 14.1579 5.71263C14.1233 5.6313 14.072 5.55742 14.007 5.49536C13.942 5.43329 13.8646 5.38431 13.7794 5.3513C13.6942 5.3183 13.6029 5.30194 13.511 5.30319Z" fill="#707070"/>
<path d="M0.69729 10.125C-0.23243 10.1124 -0.23243 11.45 0.69729 11.4375C7.57226 11.4374 14.4275 11.4376 21.3025 11.4375C22.2323 11.45 22.2323 10.1124 21.3025 10.125C14.4276 10.1251 7.57229 10.1249 0.69729 10.125Z" fill="#707070"/>
</svg>
