<svg width="23" height="23" viewBox="0 0 23 23" fill="#148C00" xmlns="http://www.w3.org/2000/svg">
<g clip-path="url(#clip0_3_797)">
<path d="M9.2274 2.30685C13.0496 2.30685 16.148 5.40518 16.148 9.2274C16.148 13.0496 13.0496 16.148 9.2274 16.148C5.40518 16.148 2.30685 13.0496 2.30685 9.2274C2.30685 5.40518 5.40518 2.30685 9.2274 2.30685ZM9.2274 0C4.13134 0 0 4.13134 0 9.2274C0 14.3235 4.13134 18.4548 9.2274 18.4548C14.3235 18.4548 18.4548 14.3235 18.4548 9.2274C18.4548 4.13134 14.3235 0 9.2274 0Z" fill="#148C00"/>
<path d="M16.9577 14.2656L22.5333 19.8389C23.2242 20.6359 23.1382 21.8424 22.3412 22.5333C21.6233 23.1557 20.5571 23.1557 19.8389 22.5333L14.2633 16.9623L16.9577 14.2656Z" fill="#148C00"/>
<path d="M5.76714 8.21697C5.62527 8.21651 5.48478 8.19068 5.35191 8.14085C4.75766 7.91132 4.46215 7.24348 4.69192 6.64924C4.69192 6.64901 4.69215 6.64855 4.69215 6.64832C5.60589 4.28056 8.26615 3.10199 10.6337 4.01597C10.6339 4.01597 10.6341 4.0162 10.6346 4.0162C11.2288 4.2455 11.5248 4.91333 11.2955 5.50758C11.0662 6.10182 10.3984 6.39779 9.80413 6.16849C8.6244 5.71404 7.29935 6.30021 6.84213 7.47878C6.67073 7.92331 6.2435 8.21651 5.76714 8.21697Z" fill="#148C00"/>
</g>
<defs>
<clipPath id="clip0_3_797">
<rect width="23" height="23" fill="#148C00"/>
</clipPath>
</defs>
</svg>
