<svg width="106" height="85" viewBox="0 0 106 85" fill="none" xmlns="http://www.w3.org/2000/svg">
<g filter="url(#filter0_d_96_2945)">
<rect x="20.5" y="20" width="65" height="45" rx="8" fill="white"/>
</g>
<path fill-rule="evenodd" clip-rule="evenodd" d="M32.0928 48.8252L32.5246 48.7811C32.5506 48.9284 32.6034 49.0364 32.6828 49.1055C32.7623 49.1746 32.8695 49.209 33.0045 49.209C33.1474 49.209 33.2551 49.1784 33.3276 49.1171C33.4001 49.0557 33.4362 48.984 33.4362 48.9018C33.4362 48.8492 33.421 48.8044 33.3907 48.7673C33.3603 48.7303 33.3073 48.6983 33.2315 48.6708C33.1795 48.6528 33.0615 48.6206 32.8771 48.5743C32.6397 48.515 32.4733 48.4419 32.3775 48.3551C32.243 48.2331 32.1757 48.0844 32.1757 47.9088C32.1757 47.796 32.2074 47.6902 32.2709 47.592C32.3342 47.4936 32.4258 47.4186 32.5452 47.3673C32.6646 47.3159 32.8088 47.29 32.9777 47.29C33.2535 47.29 33.4611 47.3514 33.6005 47.474C33.74 47.5966 33.8131 47.7603 33.8201 47.9649L33.3752 47.9826C33.3563 47.8682 33.3155 47.7861 33.253 47.7358C33.1906 47.6857 33.0969 47.6606 32.972 47.6606C32.843 47.6606 32.7422 47.6874 32.6692 47.7411C32.6222 47.7754 32.5988 47.8214 32.5988 47.879C32.5988 47.9316 32.6208 47.9765 32.6648 48.0141C32.7206 48.0615 32.8564 48.111 33.0722 48.1623C33.2879 48.2137 33.4474 48.2669 33.5508 48.3222C33.6541 48.3774 33.7351 48.4529 33.7936 48.5486C33.8519 48.6446 33.8812 48.7629 33.8812 48.9038C33.8812 49.0317 33.8462 49.1513 33.7761 49.2628C33.706 49.3743 33.6071 49.4572 33.4791 49.5114C33.3511 49.5656 33.1916 49.5928 33.0005 49.5928C32.7224 49.5928 32.5089 49.5275 32.3598 49.3967C32.2109 49.266 32.1218 49.0756 32.0928 48.8252Z" fill="#0B4A8E"/>
<path fill-rule="evenodd" clip-rule="evenodd" d="M34.3423 47.9428H34.7649V49.5529H34.3423V47.9428ZM34.3423 47.3298H34.7649V47.7225H34.3423V47.3298Z" fill="#0B4A8E"/>
<path fill-rule="evenodd" clip-rule="evenodd" d="M36.7396 49.5531H36.3165V48.7295C36.3165 48.5554 36.3074 48.4427 36.2896 48.3916C36.2716 48.3405 36.2425 48.3006 36.2022 48.2722C36.1619 48.2439 36.1133 48.2297 36.0566 48.2297C35.9839 48.2297 35.9187 48.25 35.8609 48.2905C35.8031 48.331 35.7636 48.3847 35.7423 48.4516C35.7208 48.5184 35.7102 48.6419 35.7102 48.8223V49.5531H35.2871V47.943H35.6796V48.1796C35.8185 47.9954 35.9935 47.9033 36.2043 47.9033C36.2973 47.9033 36.3823 47.9204 36.4592 47.9543C36.5361 47.9882 36.5943 48.0315 36.6338 48.0841C36.6733 48.1368 36.7008 48.1965 36.7163 48.2634C36.7318 48.3302 36.7396 48.4259 36.7396 48.5504V49.5531Z" fill="#0B4A8E"/>
<path fill-rule="evenodd" clip-rule="evenodd" d="M37.5955 48.7131C37.5955 48.8845 37.6278 49.01 37.6928 49.0895C37.7576 49.1692 37.8376 49.2089 37.9329 49.2089C38.0348 49.2089 38.1209 49.1681 38.1913 49.0865C38.2616 49.0049 38.2969 48.8839 38.2969 48.7237C38.2969 48.5566 38.2631 48.4323 38.1958 48.3512C38.1283 48.2701 38.0433 48.2295 37.9402 48.2295C37.8401 48.2295 37.7576 48.2694 37.6928 48.3489C37.6278 48.4287 37.5955 48.5499 37.5955 48.7131ZM37.2159 49.659L37.6957 49.7119C37.7038 49.7719 37.7223 49.8131 37.7513 49.8357C37.7915 49.8679 37.8548 49.884 37.941 49.884C38.0514 49.884 38.1342 49.8673 38.1895 49.834C38.2265 49.8117 38.2547 49.7758 38.2738 49.7263C38.2868 49.6907 38.2933 49.6256 38.2933 49.5305L38.2946 49.2955C38.1698 49.4673 38.0115 49.5531 37.8195 49.5531C37.6052 49.5531 37.4358 49.4616 37.3107 49.2782C37.2126 49.1334 37.1636 48.953 37.1636 48.7373C37.1636 48.4668 37.2278 48.2603 37.3563 48.1175C37.4849 47.9747 37.6448 47.9033 37.8359 47.9033C38.033 47.9033 38.1956 47.991 38.3238 48.166V47.943H38.7164V49.3903C38.7164 49.5808 38.7009 49.723 38.6698 49.8171C38.6388 49.9114 38.5953 49.9852 38.5391 50.0388C38.483 50.0925 38.4082 50.1345 38.3146 50.1649C38.2209 50.1952 38.1025 50.2105 37.9595 50.2105C37.6891 50.2105 37.4973 50.1633 37.3841 50.0692C37.2709 49.975 37.2144 49.8556 37.2144 49.7109C37.2144 49.6966 37.2149 49.6794 37.2159 49.659Z" fill="#0B4A8E"/>
<path fill-rule="evenodd" clip-rule="evenodd" d="M39.2231 47.3298H39.6457V49.5531H39.2231V47.3298Z" fill="#0B4A8E"/>
<path fill-rule="evenodd" clip-rule="evenodd" d="M41.1181 48.6133C41.1152 48.488 41.0836 48.3928 41.0232 48.3275C40.963 48.2622 40.8896 48.2295 40.8032 48.2295C40.7107 48.2295 40.6343 48.2641 40.5741 48.3328C40.5137 48.4016 40.4842 48.4952 40.4852 48.6133H41.1181ZM41.0971 49.0459L41.5158 49.1165C41.4617 49.2716 41.3761 49.3899 41.2593 49.4711C41.1424 49.5524 40.9962 49.5929 40.8207 49.5929C40.5428 49.5929 40.3372 49.501 40.2039 49.3173C40.0985 49.1703 40.0459 48.9846 40.0459 48.7602C40.0459 48.4925 40.115 48.2826 40.2535 48.1309C40.3918 47.9791 40.5667 47.9033 40.7781 47.9033C41.0158 47.9033 41.2033 47.9829 41.3406 48.142C41.478 48.3014 41.5436 48.5452 41.5376 48.8738H40.4778C40.4807 49.0006 40.515 49.0991 40.5806 49.1697C40.6462 49.24 40.728 49.2753 40.826 49.2753C40.8926 49.2753 40.9487 49.2572 40.9941 49.2209C41.0394 49.1848 41.0739 49.1264 41.0971 49.0459Z" fill="#0B4A8E"/>
<path fill-rule="evenodd" clip-rule="evenodd" d="M42.9219 49.5531V47.3298H44.549V47.7049H43.3669V48.199H44.4661V48.5739H43.3669V49.1782H44.5925V49.5531H42.9219Z" fill="#0B4A8E"/>
<path fill-rule="evenodd" clip-rule="evenodd" d="M46.1054 49.5532V49.3121C46.0472 49.3981 45.9708 49.4664 45.8761 49.5171C45.7813 49.5676 45.6813 49.593 45.5761 49.593C45.4688 49.593 45.3727 49.5692 45.2874 49.5216C45.2023 49.474 45.1406 49.4071 45.1025 49.3211C45.0644 49.235 45.0454 49.116 45.0454 48.9641V47.9431H45.4685V48.6837C45.4685 48.9104 45.4762 49.0493 45.4918 49.1002C45.5073 49.1516 45.5355 49.192 45.5765 49.2219C45.6176 49.2517 45.6695 49.2665 45.7326 49.2665C45.8046 49.2665 45.8692 49.2468 45.9262 49.2067C45.9833 49.1667 46.0222 49.1172 46.0433 49.0579C46.0642 48.9987 46.0748 48.8538 46.0748 48.6231V47.9431H46.4979V49.5532H46.1054Z" fill="#0B4A8E"/>
<path fill-rule="evenodd" clip-rule="evenodd" d="M47.4275 49.5531H47.0044V47.943H47.3969V48.172C47.464 48.0638 47.5243 47.9921 47.5779 47.9565C47.6315 47.9211 47.6922 47.9033 47.7604 47.9033C47.8564 47.9033 47.9491 47.9303 48.0381 47.9841L47.9094 48.3569C47.8383 48.3104 47.7718 48.2871 47.7107 48.2871C47.6514 48.2871 47.6012 48.3037 47.5601 48.3364C47.5189 48.3694 47.4865 48.4289 47.4629 48.5148C47.4393 48.6008 47.4275 48.7811 47.4275 49.0552V49.5531Z" fill="#0B4A8E"/>
<path fill-rule="evenodd" clip-rule="evenodd" d="M48.6404 48.7481C48.6404 48.9086 48.678 49.0313 48.7532 49.1166C48.8285 49.2018 48.9211 49.2445 49.0316 49.2445C49.1418 49.2445 49.2344 49.2018 49.309 49.1166C49.3837 49.0313 49.4211 48.9075 49.4211 48.7452C49.4211 48.5869 49.3837 48.465 49.309 48.3798C49.2344 48.2946 49.1418 48.252 49.0316 48.252C48.9211 48.252 48.8285 48.2946 48.7532 48.3798C48.678 48.465 48.6404 48.5879 48.6404 48.7481ZM48.2085 48.7252C48.2085 48.5832 48.243 48.4457 48.3121 48.3127C48.381 48.1799 48.4787 48.0784 48.6053 48.0083C48.7318 47.9383 48.8732 47.9033 49.0292 47.9033C49.2703 47.9033 49.4678 47.9827 49.6219 48.1415C49.7758 48.3003 49.8529 48.501 49.8529 48.7435C49.8529 48.988 49.775 49.1909 49.6195 49.3516C49.464 49.5124 49.2682 49.5929 49.0322 49.5929C48.8862 49.5929 48.7469 49.5593 48.6144 49.4925C48.4818 49.4255 48.381 49.3274 48.3121 49.1979C48.243 49.0685 48.2085 48.9111 48.2085 48.7252Z" fill="#0B4A8E"/>
<path fill-rule="evenodd" clip-rule="evenodd" d="M51.6759 47.7048V48.3401H51.9182C52.0927 48.3401 52.2093 48.3285 52.2682 48.3051C52.327 48.2816 52.3732 48.2449 52.4066 48.1949C52.4399 48.1451 52.4567 48.0871 52.4567 48.0209C52.4567 47.9394 52.4332 47.8723 52.3863 47.8193C52.3394 47.7664 52.2801 47.7333 52.2084 47.7201C52.1555 47.7099 52.0494 47.7048 51.8897 47.7048H51.6759ZM51.231 49.5531V47.3298H51.9431C52.2129 47.3298 52.3889 47.3411 52.4709 47.3633C52.5968 47.3966 52.7021 47.4693 52.7871 47.5811C52.8722 47.6928 52.9146 47.8372 52.9146 48.0142C52.9146 48.1507 52.8902 48.2653 52.8412 48.3586C52.7923 48.4515 52.7301 48.5246 52.6547 48.5777C52.5793 48.6309 52.5027 48.6659 52.4248 48.6832C52.3189 48.7045 52.1656 48.7151 51.965 48.7151H51.6758V49.5531H51.231Z" fill="#0B4A8E"/>
<path fill-rule="evenodd" clip-rule="evenodd" d="M54.2431 48.7812C54.1891 48.7996 54.1039 48.8213 53.9874 48.8468C53.8708 48.872 53.7946 48.897 53.7589 48.9213C53.7039 48.961 53.6768 49.0112 53.6768 49.072C53.6768 49.132 53.6985 49.1837 53.7423 49.2275C53.7862 49.2711 53.842 49.293 53.9099 49.293C53.9856 49.293 54.0577 49.2676 54.1265 49.2169C54.1773 49.1782 54.2107 49.1311 54.2266 49.0752C54.2375 49.0386 54.2431 48.969 54.2431 48.8664V48.7812ZM53.6766 48.4327L53.2971 48.3621C53.3401 48.2061 53.4141 48.0908 53.519 48.0158C53.6241 47.9409 53.7802 47.9033 53.9872 47.9033C54.1752 47.9033 54.3153 47.9259 54.4073 47.9708C54.4993 48.0161 54.5642 48.0733 54.6016 48.1426C54.6392 48.2119 54.658 48.3394 54.658 48.5247L54.6537 49.023C54.6537 49.1647 54.6604 49.2695 54.6738 49.3367C54.6873 49.404 54.7126 49.4762 54.7496 49.5531H54.3308C54.3197 49.5253 54.3063 49.4839 54.2902 49.4291C54.2832 49.4042 54.2782 49.3878 54.2754 49.3797C54.2034 49.4507 54.1265 49.5041 54.0446 49.5397C53.9626 49.5751 53.8754 49.5929 53.7824 49.5929C53.6186 49.5929 53.4893 49.5477 53.395 49.4577C53.3006 49.3675 53.2534 49.2534 53.2534 49.1156C53.2534 49.0246 53.2749 48.9433 53.3178 48.8718C53.3609 48.8004 53.4212 48.7456 53.4987 48.7077C53.5763 48.6698 53.6881 48.6364 53.8341 48.608C54.031 48.5706 54.1675 48.5357 54.2436 48.5033V48.4602C54.2436 48.3772 54.2235 48.3181 54.1833 48.2826C54.143 48.2473 54.0672 48.2297 53.9555 48.2297C53.8801 48.2297 53.8214 48.2448 53.7791 48.2747C53.7368 48.3048 53.7026 48.3574 53.6766 48.4327Z" fill="#0B4A8E"/>
<path fill-rule="evenodd" clip-rule="evenodd" d="M54.9614 47.9431H55.4106L55.7924 49.0863L56.1653 47.9431H56.6015L55.9379 49.7758C55.9008 49.8701 55.8655 49.942 55.832 49.9917C55.7985 50.0412 55.7598 50.0816 55.7163 50.1124C55.6726 50.1433 55.6193 50.1676 55.5556 50.1846C55.492 50.202 55.4201 50.2106 55.34 50.2106C55.2589 50.2106 55.179 50.202 55.101 50.1848L55.0616 49.8509C55.1279 49.8643 55.188 49.8708 55.2411 49.8708C55.3398 49.8708 55.4126 49.8413 55.4599 49.7826C55.5072 49.7236 55.5433 49.6486 55.5685 49.5577L54.9614 47.9431Z" fill="#0B4A8E"/>
<path fill-rule="evenodd" clip-rule="evenodd" d="M56.9316 47.943H57.3198V48.1629C57.4593 47.9899 57.6252 47.9033 57.8178 47.9033C57.92 47.9033 58.0088 47.9245 58.084 47.967C58.1593 48.0096 58.2209 48.074 58.269 48.16C58.339 48.074 58.4148 48.0096 58.4958 47.967C58.577 47.9245 58.6634 47.9033 58.7555 47.9033C58.8728 47.9033 58.9719 47.9273 59.053 47.9756C59.1341 48.0234 59.1948 48.0942 59.2349 48.1875C59.2638 48.2562 59.2783 48.3676 59.2783 48.5216V49.5531H58.8552V48.6309C58.8552 48.4708 58.8407 48.3676 58.8118 48.321C58.7727 48.26 58.7128 48.2297 58.632 48.2297C58.573 48.2297 58.5174 48.2479 58.4655 48.2845C58.4136 48.321 58.3762 48.3744 58.3533 48.4448C58.3302 48.5151 58.3187 48.6264 58.3187 48.7782V49.5531H57.8956V48.669C57.8956 48.5117 57.8882 48.4107 57.8731 48.3649C57.8582 48.3193 57.835 48.2854 57.8035 48.2631C57.7719 48.241 57.7293 48.2297 57.6753 48.2297C57.6104 48.2297 57.5519 48.2475 57.5 48.2829C57.4481 48.3183 57.411 48.3696 57.3883 48.4364C57.3659 48.5033 57.3547 48.6141 57.3547 48.7691V49.5531H56.9316V47.943Z" fill="#0B4A8E"/>
<path fill-rule="evenodd" clip-rule="evenodd" d="M60.735 48.6133C60.732 48.488 60.7005 48.3928 60.64 48.3275C60.5799 48.2622 60.5064 48.2295 60.4199 48.2295C60.3277 48.2295 60.2511 48.2641 60.191 48.3328C60.1307 48.4016 60.1011 48.4952 60.1021 48.6133H60.735ZM60.7139 49.0459L61.1327 49.1165C61.0784 49.2716 60.9929 49.3899 60.8761 49.4711C60.7591 49.5524 60.613 49.5929 60.4374 49.5929C60.1596 49.5929 59.954 49.501 59.8206 49.3173C59.7152 49.1703 59.6626 48.9846 59.6626 48.7602C59.6626 48.4925 59.732 48.2826 59.8702 48.1309C60.0086 47.9791 60.1834 47.9033 60.395 47.9033C60.6327 47.9033 60.82 47.9829 60.9574 48.142C61.0947 48.3014 61.1604 48.5452 61.1544 48.8738H60.0945C60.0975 49.0006 60.1319 49.0991 60.1975 49.1697C60.2629 49.24 60.3447 49.2753 60.4429 49.2753C60.5094 49.2753 60.5654 49.2572 60.6108 49.2209C60.6564 49.1848 60.6908 49.1264 60.7139 49.0459Z" fill="#0B4A8E"/>
<path fill-rule="evenodd" clip-rule="evenodd" d="M63.0369 49.5531H62.6139V48.7295C62.6139 48.5554 62.6048 48.4427 62.5871 48.3916C62.5691 48.3405 62.5399 48.3006 62.4996 48.2722C62.4592 48.2439 62.4107 48.2297 62.354 48.2297C62.2814 48.2297 62.2161 48.25 62.1584 48.2905C62.1006 48.331 62.0611 48.3847 62.0396 48.4516C62.0183 48.5184 62.0075 48.6419 62.0075 48.8223V49.5531H61.5845V47.943H61.977V48.1796C62.116 47.9954 62.2909 47.9033 62.5017 47.9033C62.5946 47.9033 62.6798 47.9204 62.7565 47.9543C62.8334 47.9882 62.8918 48.0315 62.9313 48.0841C62.9708 48.1368 62.9981 48.1965 63.0136 48.2634C63.0293 48.3302 63.0369 48.4259 63.0369 48.5504V49.5531Z" fill="#0B4A8E"/>
<path fill-rule="evenodd" clip-rule="evenodd" d="M64.2858 47.943V48.2827H63.9978V48.9341C63.9978 49.066 64.0005 49.1429 64.0059 49.1647C64.0112 49.1865 64.0235 49.2045 64.0426 49.2187C64.0619 49.2328 64.085 49.24 64.1125 49.24C64.1511 49.24 64.2063 49.2263 64.2792 49.1991L64.3162 49.5291C64.2186 49.5716 64.1082 49.5929 63.985 49.5929C63.9092 49.5929 63.8412 49.58 63.7805 49.5541C63.7199 49.5284 63.6754 49.4948 63.6469 49.4538C63.6186 49.4128 63.599 49.3573 63.5881 49.2875C63.5791 49.2378 63.5747 49.1374 63.5747 48.9865V48.2827H63.3828V47.943H63.5747V47.621L63.9978 47.3696V47.943H64.2858Z" fill="#0B4A8E"/>
<path fill-rule="evenodd" clip-rule="evenodd" d="M64.5234 49.0988L64.9465 49.0326C64.9645 49.1149 65.0009 49.1773 65.0558 49.2201C65.1108 49.2629 65.1876 49.284 65.2864 49.284C65.3954 49.284 65.4773 49.2637 65.5322 49.223C65.5692 49.1944 65.5877 49.1564 65.5877 49.1084C65.5877 49.076 65.5776 49.0489 65.5575 49.0277C65.5362 49.0072 65.4891 48.9884 65.4156 48.9711C65.0738 48.8947 64.857 48.8251 64.7658 48.7623C64.639 48.6752 64.5758 48.5539 64.5758 48.3991C64.5758 48.2591 64.6304 48.1415 64.7399 48.0463C64.8496 47.951 65.0195 47.9033 65.2497 47.9033C65.4688 47.9033 65.6316 47.939 65.7382 48.0103C65.8447 48.0817 65.9181 48.1872 65.9585 48.3268L65.5615 48.4018C65.5443 48.3392 65.5117 48.2911 65.4637 48.2578C65.4155 48.2243 65.347 48.2077 65.2581 48.2077C65.1458 48.2077 65.0653 48.2233 65.0169 48.2551C64.9843 48.2774 64.9683 48.3063 64.9683 48.3419C64.9683 48.3725 64.9822 48.3985 65.0104 48.42C65.0485 48.4483 65.1804 48.4886 65.4059 48.5405C65.6313 48.5925 65.7887 48.656 65.8782 48.7312C65.9664 48.8075 66.0108 48.9138 66.0108 49.05C66.0108 49.1983 65.9497 49.326 65.8278 49.4327C65.7057 49.5395 65.5254 49.5929 65.2864 49.5929C65.0696 49.5929 64.8979 49.5484 64.7715 49.4599C64.645 49.3711 64.5624 49.251 64.5234 49.0988Z" fill="#0B4A8E"/>
<path fill-rule="evenodd" clip-rule="evenodd" d="M68.585 48.6753L68.278 47.8503L67.9813 48.6753H68.585ZM69.4015 49.5531H68.9225L68.7324 49.0503H67.8463L67.6651 49.5531H67.1943L68.0459 47.3298H68.5138L69.4015 49.5531Z" fill="#0B4A8E"/>
<path fill-rule="evenodd" clip-rule="evenodd" d="M70.1277 49.5531H69.7046V47.943H70.0971V48.172C70.1642 48.0638 70.2244 47.9921 70.2781 47.9565C70.3316 47.9211 70.3923 47.9033 70.4606 47.9033C70.5566 47.9033 70.6491 47.9303 70.7383 47.9841L70.6096 48.3569C70.5383 48.3104 70.472 48.2871 70.4109 48.2871C70.3514 48.2871 70.3013 48.3037 70.2601 48.3364C70.2189 48.3694 70.1866 48.4289 70.1631 48.5148C70.1394 48.6008 70.1277 48.7811 70.1277 49.0552V49.5531Z" fill="#0B4A8E"/>
<path fill-rule="evenodd" clip-rule="evenodd" d="M71.9596 48.6133C71.9565 48.488 71.9249 48.3928 71.8646 48.3275C71.8043 48.2622 71.7309 48.2295 71.6446 48.2295C71.5521 48.2295 71.4758 48.2641 71.4156 48.3328C71.3552 48.4016 71.3255 48.4952 71.3266 48.6133H71.9596ZM71.9385 49.0459L72.3573 49.1165C72.3031 49.2716 72.2175 49.3899 72.1007 49.4711C71.9839 49.5524 71.8376 49.5929 71.6622 49.5929C71.3843 49.5929 71.1785 49.501 71.0452 49.3173C70.9398 49.1703 70.8872 48.9846 70.8872 48.7602C70.8872 48.4925 70.9564 48.2826 71.0949 48.1309C71.2331 47.9791 71.4081 47.9033 71.6196 47.9033C71.8572 47.9033 72.0446 47.9829 72.1821 48.142C72.3193 48.3014 72.385 48.5452 72.379 48.8738H71.3191C71.3221 49.0006 71.3565 49.0991 71.4219 49.1697C71.4877 49.24 71.5695 49.2753 71.6673 49.2753C71.734 49.2753 71.79 49.2572 71.8355 49.2209C71.8809 49.1848 71.9152 49.1264 71.9385 49.0459Z" fill="#0B4A8E"/>
<path fill-rule="evenodd" clip-rule="evenodd" d="M73.6898 48.7812C73.636 48.7996 73.5506 48.8213 73.4341 48.8468C73.3175 48.872 73.2414 48.897 73.2056 48.9213C73.1506 48.961 73.1234 49.0112 73.1234 49.072C73.1234 49.132 73.1452 49.1837 73.1891 49.2275C73.2329 49.2711 73.2887 49.293 73.3566 49.293C73.4323 49.293 73.5043 49.2676 73.5732 49.2169C73.624 49.1782 73.6574 49.1311 73.6733 49.0752C73.6842 49.0386 73.6898 48.969 73.6898 48.8664V48.7812ZM73.1233 48.4327L72.7437 48.3621C72.7867 48.2061 72.8607 48.0908 72.9657 48.0158C73.0708 47.9409 73.2268 47.9033 73.4338 47.9033C73.6218 47.9033 73.762 47.9259 73.854 47.9708C73.946 48.0161 74.0109 48.0733 74.0483 48.1426C74.0858 48.2119 74.1047 48.3394 74.1047 48.5247L74.1003 49.023C74.1003 49.1647 74.107 49.2695 74.1204 49.3367C74.134 49.404 74.1592 49.4762 74.1961 49.5531H73.7775C73.7663 49.5253 73.7531 49.4839 73.7369 49.4291C73.73 49.4042 73.7249 49.3878 73.7221 49.3797C73.65 49.4507 73.5733 49.5041 73.4913 49.5397C73.4094 49.5751 73.322 49.5929 73.2291 49.5929C73.0652 49.5929 72.9359 49.5477 72.8416 49.4577C72.7474 49.3675 72.7002 49.2534 72.7002 49.1156C72.7002 49.0246 72.7216 48.9433 72.7645 48.8718C72.8075 48.8004 72.8678 48.7456 72.9453 48.7077C73.0229 48.6698 73.1347 48.6364 73.2807 48.608C73.4777 48.5706 73.6142 48.5357 73.6902 48.5033V48.4602C73.6902 48.3772 73.6701 48.3181 73.6299 48.2826C73.5897 48.2473 73.5138 48.2297 73.4021 48.2297C73.3268 48.2297 73.268 48.2448 73.2257 48.2747C73.1836 48.3048 73.1492 48.3574 73.1233 48.4327Z" fill="#0B4A8E"/>
<path fill-rule="evenodd" clip-rule="evenodd" d="M41.4354 38.5935H38.5547C38.5547 38.1154 38.4992 37.7946 38.3886 37.6312C38.2172 37.3896 37.7441 37.2686 36.9697 37.2686C36.2176 37.2686 35.719 37.3382 35.4757 37.4775C35.2326 37.6173 35.1109 37.9212 35.1109 38.3891C35.1109 38.8128 35.2186 39.0917 35.4347 39.2254C35.5895 39.3202 35.794 39.376 36.049 39.3927L36.6299 39.4342C37.875 39.5177 38.6526 39.5766 38.9627 39.6101C39.9473 39.7104 40.6612 39.9752 41.104 40.4044C41.4526 40.7392 41.6604 41.1768 41.7267 41.7172C41.7655 42.0405 41.7848 42.4062 41.7848 42.8126C41.7848 43.7494 41.6964 44.4354 41.5194 44.8702C41.1987 45.6679 40.4782 46.1717 39.3571 46.3833C38.8874 46.4728 38.1688 46.5176 37.2023 46.5176C35.5891 46.5176 34.4647 46.4204 33.8299 46.2252C33.0508 45.9861 32.5371 45.5016 32.2885 44.7721C32.1501 44.366 32.0815 43.6897 32.0815 42.7429H34.9622C34.9622 42.8485 34.9625 42.9292 34.9625 42.9848C34.9625 43.4901 35.1061 43.815 35.3927 43.9597C35.5913 44.0595 35.8311 44.1119 36.1131 44.1181H37.1721C37.7125 44.1181 38.0574 44.0901 38.2062 44.034C38.471 43.9286 38.6448 43.7591 38.7278 43.5245C38.7719 43.3801 38.7938 43.1932 38.7938 42.9645C38.7938 42.4522 38.6089 42.1405 38.2397 42.0287C38.1017 41.9846 37.4593 41.923 36.3128 41.8449C35.3921 41.7785 34.7526 41.7145 34.3944 41.6525C33.4513 41.4741 32.8227 41.1072 32.5091 40.5502C32.2334 40.0769 32.0955 39.3608 32.0955 38.4028C32.0955 37.6733 32.17 37.0883 32.319 36.6483C32.468 36.2082 32.7083 35.874 33.0398 35.6455C33.5254 35.2947 34.1468 35.0888 34.9032 35.0272C35.5325 34.9717 36.2307 34.9434 36.9987 34.9434C38.2077 34.9434 39.0694 35.0137 39.583 35.153C40.8366 35.4936 41.4633 36.4477 41.4633 38.0156C41.4633 38.1442 41.454 38.3365 41.4354 38.5935Z" fill="#0B4A8E"/>
<path fill-rule="evenodd" clip-rule="evenodd" d="M57.1996 40.8143H59.13C59.7421 40.792 60.1144 40.7444 60.2483 40.6699C60.4313 40.5681 60.5542 40.3644 60.6153 40.0588C60.6544 39.8554 60.6739 39.553 60.6739 39.1513C60.6739 38.6592 60.6351 38.2944 60.5571 38.0561C60.4457 37.7224 60.179 37.5191 59.7565 37.4453C59.673 37.4342 59.473 37.4282 59.1561 37.4282H57.1996V40.8143ZM54.103 46.5176V34.8818H59.872C60.6633 34.8818 61.2672 34.9472 61.682 35.0778C62.6309 35.3784 63.2675 35.9941 63.5935 36.9245C63.7619 37.4127 63.8461 38.1479 63.8461 39.1296C63.8461 40.3098 63.7527 41.1581 63.568 41.6744C63.198 42.6956 62.4363 43.2838 61.2861 43.4363C61.1509 43.4592 60.5754 43.4796 59.5597 43.496L59.0456 43.5134H57.1995V46.5176H54.103Z" fill="#0B4A8E"/>
<path fill-rule="evenodd" clip-rule="evenodd" d="M69.8405 42.2399L68.3897 37.196L66.9818 42.2399H69.8405ZM70.4557 44.5066H66.3156L65.7593 46.5176H62.5557L66.0125 34.8818H70.6835L74.1827 46.5176H71.0464L70.4557 44.5066Z" fill="#0B4A8E"/>
<path fill-rule="evenodd" clip-rule="evenodd" d="M49.8296 36.519C51.1067 36.519 52.2465 37.114 52.9958 38.046L53.6633 36.5987C52.6194 35.6008 51.1986 34.9856 49.6315 34.9856C47.1916 34.9856 45.1045 36.4758 44.2479 38.5854H42.9463L42.1777 40.2517H43.8521C43.8396 40.4062 43.8315 40.561 43.8315 40.7188C43.8315 40.9098 43.8413 41.0985 43.86 41.285H43.0184L42.25 42.9518H44.2878C45.1688 45.008 47.2299 46.4515 49.6315 46.4515C50.8418 46.4515 51.9649 46.0848 52.8948 45.4583V43.4155C52.1459 44.2778 51.0506 44.8227 49.8296 44.8227C48.4022 44.8227 47.1467 44.0783 46.4155 42.9518H50.6827L51.4511 41.285H45.7877C45.7585 41.0844 45.7429 40.8794 45.7429 40.6706C45.7429 40.5295 45.7502 40.3897 45.7636 40.2517H51.9273L52.6957 38.5854H46.2966C47.0043 37.3502 48.3212 36.519 49.8296 36.519Z" fill="#F6BC25"/>
<defs>
<filter id="filter0_d_96_2945" x="0.5" y="0" width="105" height="85" filterUnits="userSpaceOnUse" color-interpolation-filters="sRGB">
<feFlood flood-opacity="0" result="BackgroundImageFix"/>
<feColorMatrix in="SourceAlpha" type="matrix" values="0 0 0 0 0 0 0 0 0 0 0 0 0 0 0 0 0 0 127 0" result="hardAlpha"/>
<feOffset/>
<feGaussianBlur stdDeviation="10"/>
<feComposite in2="hardAlpha" operator="out"/>
<feColorMatrix type="matrix" values="0 0 0 0 0 0 0 0 0 0 0 0 0 0 0 0 0 0 0.07 0"/>
<feBlend mode="normal" in2="BackgroundImageFix" result="effect1_dropShadow_96_2945"/>
<feBlend mode="normal" in="SourceGraphic" in2="effect1_dropShadow_96_2945" result="shape"/>
</filter>
</defs>
</svg>
