<svg width="38" height="25" viewBox="0 0 38 25" fill="none" xmlns="http://www.w3.org/2000/svg">
<g id="Payment Method/SEPA">
<rect width="37.5" height="25" rx="5" fill="#10298E"/>
<g id="Vector">
<path fill-rule="evenodd" clip-rule="evenodd" d="M19.2694 14.9532V7.8125H22.8438C23.334 7.8125 23.7082 7.85261 23.9652 7.93274C24.5531 8.11726 24.9476 8.49506 25.1496 9.06603C25.2539 9.36568 25.306 9.81685 25.306 10.4193C25.306 11.1436 25.2482 11.6641 25.1338 11.981C24.9045 12.6077 24.4325 12.9687 23.7199 13.0623C23.6361 13.0763 23.2796 13.0889 22.6502 13.0989L22.3317 13.1096H21.1879V14.9532H19.2694ZM21.188 11.4531H22.384C22.7632 11.4394 22.9939 11.4102 23.0769 11.3645C23.1903 11.302 23.2664 11.177 23.3043 10.9895C23.3285 10.8646 23.3406 10.6791 23.3406 10.4325C23.3406 10.1305 23.3166 9.90667 23.2682 9.76044C23.1992 9.55565 23.0339 9.4309 22.7722 9.38559C22.7204 9.37875 22.5965 9.37511 22.4002 9.37511H21.188V11.4531Z" fill="white"/>
<path d="M9.63572 10.0903H11.4205C11.432 9.93259 11.4378 9.8146 11.4378 9.73568C11.4378 8.77348 11.0495 8.18795 10.2728 7.97891C9.95458 7.89341 9.42072 7.85027 8.67161 7.85027C8.19578 7.85027 7.7632 7.86768 7.37325 7.90173C6.9046 7.9395 6.51958 8.06589 6.2187 8.28117C6.01331 8.42142 5.86447 8.62647 5.77211 8.89658C5.67983 9.16661 5.63365 9.5256 5.63365 9.9733C5.63365 10.5612 5.71909 11.0006 5.8899 11.2911C6.08422 11.633 6.47365 11.8581 7.05802 11.9676C7.27993 12.0056 7.6762 12.0449 8.24663 12.0857C8.957 12.1336 9.355 12.1714 9.44053 12.1985C9.66927 12.2671 9.78386 12.4584 9.78386 12.7727C9.78386 12.9131 9.77029 13.0278 9.74296 13.1164C9.6915 13.2604 9.58383 13.3644 9.41977 13.429C9.32758 13.4635 9.11388 13.4807 8.77902 13.4807H8.12288C7.94818 13.4769 7.79961 13.4447 7.67654 13.3835C7.49899 13.2947 7.41 13.0953 7.41 12.7852L7.40994 12.734C7.40989 12.7067 7.40983 12.6743 7.40983 12.6367H5.625C5.625 13.2178 5.66746 13.6328 5.75325 13.882C5.90728 14.3297 6.22554 14.6271 6.70828 14.7738C7.1016 14.8936 7.79822 14.9532 8.79779 14.9532C9.39659 14.9532 9.84181 14.9258 10.1328 14.8708C10.8274 14.741 11.2739 14.4318 11.4726 13.9422C11.5823 13.6754 11.637 13.2544 11.637 12.6795C11.637 12.4301 11.6251 12.2057 11.601 12.0073C11.56 11.6757 11.4312 11.4071 11.2152 11.2016C10.9408 10.9383 10.4986 10.7758 9.88851 10.7142C9.69634 10.6936 9.21455 10.6575 8.44312 10.6062L8.08318 10.5808C7.92518 10.5705 7.79848 10.5363 7.70257 10.4781C7.5687 10.3961 7.50193 10.2249 7.50193 9.9649C7.50193 9.67772 7.57735 9.49121 7.728 9.40545C7.87874 9.31994 8.18765 9.27723 8.65362 9.27723C9.13343 9.27723 9.4266 9.35148 9.5328 9.49979C9.6013 9.60002 9.63572 9.79693 9.63572 10.0903Z" fill="white"/>
<path d="M5.63177 16.3694L5.89935 16.3423C5.91543 16.4327 5.94812 16.4989 5.99733 16.5414C6.04663 16.5838 6.11304 16.6049 6.19667 16.6049C6.28523 16.6049 6.35191 16.5861 6.39688 16.5485C6.44177 16.5108 6.46416 16.4668 6.46416 16.4164C6.46416 16.3841 6.45474 16.3566 6.43597 16.3338C6.41712 16.3111 6.38425 16.2915 6.33729 16.2746C6.30512 16.2636 6.23196 16.2438 6.11771 16.2154C5.97061 16.179 5.86752 16.1341 5.80819 16.0809C5.72482 16.006 5.68314 15.9147 5.68314 15.8069C5.68314 15.7377 5.70277 15.6728 5.74212 15.6126C5.78138 15.5522 5.83812 15.5062 5.91206 15.4746C5.98609 15.4431 6.07542 15.4273 6.18007 15.4273C6.35096 15.4273 6.47956 15.4649 6.56595 15.5401C6.65235 15.6154 6.69767 15.7158 6.70199 15.8414L6.42637 15.8523C6.41461 15.7821 6.38936 15.7317 6.35061 15.7008C6.31195 15.6701 6.25392 15.6547 6.17652 15.6547C6.09661 15.6547 6.03417 15.6711 5.98894 15.704C5.9598 15.7251 5.94527 15.7533 5.94527 15.7887C5.94527 15.821 5.95893 15.8485 5.98617 15.8716C6.02077 15.9007 6.10492 15.9311 6.23862 15.9625C6.37223 15.9941 6.47108 16.0267 6.53517 16.0607C6.59916 16.0946 6.64932 16.1409 6.68556 16.1996C6.72171 16.2586 6.73987 16.3311 6.73987 16.4176C6.73987 16.4961 6.71816 16.5695 6.67475 16.6379C6.63134 16.7063 6.57002 16.7572 6.49071 16.7905C6.41141 16.8237 6.31256 16.8404 6.19417 16.8404C6.02189 16.8404 5.88957 16.8003 5.79721 16.7201C5.70493 16.6399 5.64976 16.523 5.63177 16.3694Z" fill="white"/>
<path d="M7.02561 15.8279H7.28774V16.816H7.02561V15.8279Z" fill="white"/>
<path d="M7.02561 15.4516H7.28774V15.6926H7.02561V15.4516Z" fill="white"/>
<path d="M8.24906 16.816H8.51119V16.2007C8.51119 16.1243 8.50634 16.0655 8.49674 16.0246C8.48715 15.9835 8.47011 15.9469 8.44563 15.9145C8.42116 15.8822 8.3851 15.8556 8.33744 15.8348C8.28979 15.8141 8.23712 15.8036 8.17953 15.8036C8.04894 15.8036 7.94049 15.8601 7.85444 15.9731V15.8279H7.61125V16.816H7.87338V16.3675C7.87338 16.2568 7.87995 16.181 7.89327 16.14C7.9065 16.099 7.93097 16.0661 7.96678 16.0412C8.00258 16.0163 8.04297 16.0039 8.08803 16.0039C8.12314 16.0039 8.15324 16.0126 8.17823 16.0299C8.20322 16.0474 8.22121 16.0719 8.23237 16.1032C8.24344 16.1346 8.24906 16.2037 8.24906 16.3106V16.816Z" fill="white"/>
<path fill-rule="evenodd" clip-rule="evenodd" d="M8.80622 16.881L9.10346 16.9135C9.10847 16.9503 9.11998 16.9756 9.13796 16.9894C9.16287 17.0092 9.20205 17.0191 9.25549 17.0191C9.3239 17.0191 9.37519 17.0089 9.40943 16.9884C9.43235 16.9747 9.44982 16.9527 9.46167 16.9223C9.46971 16.9005 9.47378 16.8605 9.47378 16.8022L9.47455 16.6579C9.39724 16.7633 9.29917 16.816 9.18017 16.816C9.04742 16.816 8.94243 16.7599 8.86494 16.6473C8.80414 16.5585 8.77379 16.4478 8.77379 16.3154C8.77379 16.1494 8.81357 16.0227 8.89322 15.935C8.97287 15.8474 9.07198 15.8036 9.19037 15.8036C9.31249 15.8036 9.41324 15.8574 9.49263 15.9648V15.8279H9.73591V16.7161C9.73591 16.833 9.72631 16.9203 9.70702 16.978C9.68782 17.0359 9.66084 17.0812 9.62607 17.1141C9.59131 17.147 9.54495 17.1728 9.48692 17.1915C9.42889 17.2101 9.35555 17.2195 9.26691 17.2195C9.09939 17.2195 8.98057 17.1905 8.91043 17.1327C8.84029 17.075 8.80526 17.0017 8.80526 16.9129C8.80526 16.9041 8.80561 16.8936 8.80622 16.881ZM9.04131 16.3007C9.04131 16.4058 9.06138 16.4828 9.10168 16.5316C9.14189 16.5806 9.19153 16.6049 9.2506 16.6049C9.31382 16.6049 9.36727 16.5799 9.41094 16.5298C9.45453 16.4797 9.47641 16.4055 9.47641 16.3072C9.47641 16.2046 9.45548 16.1284 9.41371 16.0785C9.37185 16.0288 9.3191 16.0039 9.25519 16.0039C9.19309 16.0039 9.14189 16.0284 9.10168 16.0772C9.06138 16.1261 9.04131 16.2005 9.04131 16.3007Z" fill="white"/>
<path d="M10.3119 15.4516H10.0498V16.816H10.3119V15.4516Z" fill="white"/>
<path fill-rule="evenodd" clip-rule="evenodd" d="M11.2111 16.5048L11.4706 16.5481C11.437 16.6433 11.384 16.7159 11.3116 16.7657C11.2392 16.8156 11.1486 16.8404 11.0399 16.8404C10.8677 16.8404 10.7403 16.784 10.6577 16.6713C10.5924 16.5811 10.5598 16.4672 10.5598 16.3294C10.5598 16.1652 10.6026 16.0363 10.6884 15.9432C10.7741 15.8501 10.8825 15.8036 11.0135 15.8036C11.1608 15.8036 11.2769 15.8524 11.362 15.9501C11.4471 16.0479 11.4878 16.1975 11.4841 16.3992H10.8274C10.8292 16.4769 10.8505 16.5374 10.8911 16.5807C10.9318 16.6239 10.9825 16.6455 11.0432 16.6455C11.0844 16.6455 11.1192 16.6344 11.1473 16.6122C11.1754 16.59 11.1968 16.5541 11.2111 16.5048ZM11.2246 16.2394C11.2228 16.1625 11.2032 16.1041 11.1657 16.064C11.1283 16.024 11.0829 16.0039 11.0292 16.0039C10.9719 16.0039 10.9245 16.0251 10.8871 16.0673C10.8497 16.1095 10.8314 16.1669 10.832 16.2394H11.2246Z" fill="white"/>
<path d="M12.3417 15.4516V16.816H13.3768V16.5859H12.6174V16.2151H13.2985V15.985H12.6174V15.6818H13.3498V15.4516H12.3417Z" fill="white"/>
<path d="M14.3138 16.816V16.668C14.2778 16.7208 14.2305 16.7627 14.1717 16.7938C14.113 16.8248 14.0511 16.8404 13.9859 16.8404C13.9194 16.8404 13.8599 16.8258 13.807 16.7966C13.7543 16.7674 13.7161 16.7263 13.6924 16.6736C13.6688 16.6207 13.6571 16.5477 13.6571 16.4545V15.8279H13.9192V16.2824C13.9192 16.4215 13.924 16.5067 13.9337 16.538C13.9432 16.5695 13.9607 16.5943 13.9861 16.6127C14.0116 16.631 14.0437 16.6401 14.0828 16.6401C14.1275 16.6401 14.1675 16.6279 14.2028 16.6033C14.2382 16.5788 14.2623 16.5484 14.2753 16.512C14.2883 16.4757 14.2949 16.3868 14.2949 16.2452V15.8279H14.557V16.816H14.3138Z" fill="white"/>
<path d="M14.8709 16.816H15.1331V16.5105C15.1331 16.3422 15.1404 16.2316 15.155 16.1789C15.1697 16.1261 15.1897 16.0896 15.2152 16.0694C15.2407 16.0493 15.2718 16.0391 15.3085 16.0391C15.3464 16.0391 15.3876 16.0534 15.4317 16.0819L15.5114 15.8531C15.4563 15.8201 15.3988 15.8036 15.3393 15.8036C15.2971 15.8036 15.2595 15.8145 15.2263 15.8362C15.1931 15.8581 15.1557 15.9021 15.1141 15.9684V15.8279H14.8709V16.816Z" fill="white"/>
<path fill-rule="evenodd" clip-rule="evenodd" d="M15.6172 16.3079C15.6172 16.2208 15.6385 16.1364 15.6813 16.0548C15.7241 15.9733 15.7846 15.911 15.863 15.868C15.9414 15.8251 16.029 15.8036 16.1257 15.8036C16.275 15.8036 16.3974 15.8523 16.4929 15.9497C16.5883 16.0472 16.636 16.1704 16.636 16.3192C16.636 16.4692 16.5878 16.5937 16.4914 16.6924C16.3951 16.7911 16.2737 16.8404 16.1275 16.8404C16.037 16.8404 15.9507 16.8198 15.8687 16.7789C15.7865 16.7377 15.7241 16.6775 15.6813 16.5981C15.6385 16.5186 15.6172 16.422 15.6172 16.3079ZM15.8847 16.322C15.8847 16.4205 15.908 16.4958 15.9546 16.5481C16.0012 16.6004 16.0586 16.6266 16.127 16.6266C16.1954 16.6266 16.2527 16.6004 16.299 16.5481C16.3452 16.4958 16.3684 16.4198 16.3684 16.3202C16.3684 16.2231 16.3452 16.1482 16.299 16.096C16.2527 16.0436 16.1954 16.0175 16.127 16.0175C16.0586 16.0175 16.0012 16.0436 15.9546 16.096C15.908 16.1482 15.8847 16.2237 15.8847 16.322Z" fill="white"/>
<path fill-rule="evenodd" clip-rule="evenodd" d="M17.4896 15.4516V16.816H17.7652V16.3017H17.9444C18.0687 16.3017 18.1636 16.2952 18.2293 16.2821C18.2775 16.2716 18.325 16.2501 18.3717 16.2174C18.4184 16.1848 18.457 16.14 18.4873 16.083C18.5176 16.0257 18.5327 15.9554 18.5327 15.8716C18.5327 15.7629 18.5065 15.6743 18.4538 15.6058C18.4011 15.5372 18.3358 15.4926 18.2578 15.4721C18.2071 15.4585 18.098 15.4516 17.9308 15.4516H17.4896ZM17.7652 16.0716V15.6818H17.8977C17.9966 15.6818 18.0624 15.6849 18.0951 15.6911C18.1396 15.6993 18.1763 15.7196 18.2054 15.752C18.2345 15.7845 18.249 15.8258 18.249 15.8758C18.249 15.9164 18.2386 15.952 18.2179 15.9826C18.1973 16.0132 18.1686 16.0358 18.1322 16.0501C18.0957 16.0645 18.0234 16.0716 17.9153 16.0716H17.7652Z" fill="white"/>
<path fill-rule="evenodd" clip-rule="evenodd" d="M19.005 16.1284L18.7699 16.0851C18.7965 15.9894 18.8424 15.9186 18.9074 15.8726C18.9725 15.8266 19.0692 15.8036 19.1975 15.8036C19.314 15.8036 19.4008 15.8174 19.4578 15.845C19.5148 15.8728 19.555 15.9079 19.5782 15.9504C19.6014 15.9929 19.6131 16.0712 19.6131 16.1849L19.6104 16.4907C19.6104 16.5777 19.6146 16.642 19.6229 16.6832C19.6313 16.7245 19.6469 16.7688 19.6698 16.816H19.4104C19.4035 16.799 19.3952 16.7736 19.3852 16.74C19.3809 16.7246 19.3778 16.7146 19.3761 16.7096C19.3314 16.7532 19.2838 16.786 19.233 16.8078C19.1822 16.8295 19.1282 16.8404 19.0706 16.8404C18.9691 16.8404 18.889 16.8127 18.8305 16.7575C18.7721 16.7021 18.7428 16.6321 18.7428 16.5476C18.7428 16.4917 18.7561 16.4418 18.7827 16.3979C18.8094 16.3541 18.8468 16.3205 18.8948 16.2972C18.9429 16.274 19.0121 16.2534 19.1026 16.236C19.2246 16.2131 19.3092 16.1917 19.3563 16.1718V16.1453C19.3563 16.0944 19.3439 16.0581 19.319 16.0363C19.294 16.0147 19.247 16.0039 19.1778 16.0039C19.1311 16.0039 19.0947 16.0131 19.0685 16.0315C19.0423 16.0499 19.0211 16.0823 19.005 16.1284ZM19.3563 16.3423C19.3228 16.3536 19.27 16.3669 19.1977 16.3825C19.1254 16.398 19.0781 16.4134 19.056 16.4283C19.0219 16.4526 19.005 16.4835 19.005 16.5208C19.005 16.5576 19.0185 16.5893 19.0457 16.6162C19.0729 16.6429 19.1075 16.6564 19.1496 16.6564C19.1966 16.6564 19.2413 16.6408 19.284 16.6097C19.3155 16.5859 19.3362 16.557 19.3461 16.5227C19.3528 16.5003 19.3563 16.4576 19.3563 16.3946V16.3423Z" fill="white"/>
<path d="M20.0796 15.8279H19.8013L20.1774 16.8188C20.1618 16.8746 20.1394 16.9206 20.1101 16.9568C20.0808 16.9928 20.0358 17.0109 19.9746 17.0109C19.9417 17.0109 19.9045 17.0069 19.8634 16.9987L19.8878 17.2036C19.9361 17.2142 19.9856 17.2194 20.0358 17.2194C20.0855 17.2194 20.13 17.2142 20.1695 17.2035C20.2089 17.193 20.2419 17.1781 20.269 17.1591C20.296 17.1403 20.3199 17.1155 20.3407 17.0851C20.3615 17.0546 20.3833 17.0105 20.4063 16.9526L20.8175 15.8279H20.5472L20.3161 16.5294L20.0796 15.8279Z" fill="white"/>
<path d="M21.0218 15.8279H21.2623V15.9629C21.3487 15.8567 21.4516 15.8036 21.5709 15.8036C21.6342 15.8036 21.6892 15.8166 21.7358 15.8426C21.7824 15.8688 21.8207 15.9083 21.8504 15.9611C21.8938 15.9083 21.9408 15.8688 21.991 15.8426C22.0413 15.8166 22.0948 15.8036 22.1519 15.8036C22.2246 15.8036 22.286 15.8183 22.3362 15.8479C22.3864 15.8773 22.4241 15.9207 22.4489 15.978C22.4668 16.0201 22.4758 16.0885 22.4758 16.183V16.816H22.2137V16.2501C22.2137 16.1518 22.2047 16.0885 22.1868 16.0599C22.1625 16.0225 22.1254 16.0039 22.0754 16.0039C22.0388 16.0039 22.0044 16.015 21.9722 16.0375C21.94 16.0599 21.9168 16.0927 21.9027 16.1359C21.8884 16.179 21.8812 16.2473 21.8812 16.3405V16.816H21.6191V16.2735C21.6191 16.1769 21.6145 16.1149 21.6052 16.0869C21.5959 16.0589 21.5816 16.0381 21.562 16.0244C21.5425 16.0108 21.5161 16.0039 21.4826 16.0039C21.4424 16.0039 21.4062 16.0148 21.374 16.0365C21.3418 16.0583 21.3188 16.0897 21.3048 16.1307C21.2909 16.1718 21.284 16.2398 21.284 16.3349V16.816H21.0218V15.8279Z" fill="white"/>
<path fill-rule="evenodd" clip-rule="evenodd" d="M23.6247 16.5481L23.3653 16.5048C23.3509 16.5541 23.3297 16.59 23.3014 16.6122C23.2733 16.6344 23.2386 16.6455 23.1973 16.6455C23.1365 16.6455 23.0859 16.6239 23.0453 16.5807C23.0047 16.5374 22.9834 16.4769 22.9815 16.3992H23.6382C23.6419 16.1975 23.6012 16.0479 23.5161 15.9501C23.431 15.8524 23.315 15.8036 23.1677 15.8036C23.0366 15.8036 22.9283 15.8501 22.8425 15.9432C22.7569 16.0363 22.7139 16.1652 22.7139 16.3294C22.7139 16.4672 22.7465 16.5811 22.8118 16.6713C22.8945 16.784 23.0219 16.8404 23.194 16.8404C23.3028 16.8404 23.3933 16.8156 23.4658 16.7657C23.5382 16.7159 23.5911 16.6433 23.6247 16.5481ZM23.3198 16.064C23.3573 16.1041 23.3769 16.1625 23.3788 16.2394H22.9861C22.9855 16.1669 23.0039 16.1095 23.0413 16.0673C23.0786 16.0251 23.1261 16.0039 23.1833 16.0039C23.2369 16.0039 23.2825 16.024 23.3198 16.064Z" fill="white"/>
<path d="M24.8048 16.816H24.5427V16.3106C24.5427 16.2037 24.537 16.1346 24.5261 16.1032C24.5149 16.0719 24.4968 16.0474 24.4718 16.0299C24.4468 16.0126 24.4167 16.0039 24.3816 16.0039C24.3367 16.0039 24.2962 16.0163 24.2605 16.0412C24.2247 16.0661 24.2002 16.099 24.1869 16.14C24.1736 16.181 24.167 16.2568 24.167 16.3675V16.816H23.9048V15.8279H24.148V15.9731C24.2342 15.8601 24.3425 15.8036 24.4731 15.8036C24.5307 15.8036 24.5835 15.8141 24.631 15.8348C24.6787 15.8556 24.7148 15.8822 24.7393 15.9145C24.7638 15.9469 24.7807 15.9835 24.7903 16.0246C24.8 16.0655 24.8048 16.1243 24.8048 16.2007V16.816Z" fill="white"/>
<path d="M25.5782 16.0363V15.8279H25.3998V15.476L25.1377 15.6303V15.8279H25.0188V16.0363H25.1377V16.4683C25.1377 16.5609 25.1404 16.6225 25.146 16.653C25.1527 16.6959 25.1649 16.7299 25.1824 16.755C25.2001 16.7802 25.2276 16.8009 25.2652 16.8166C25.3028 16.8325 25.3449 16.8404 25.3919 16.8404C25.4682 16.8404 25.5366 16.8274 25.5971 16.8013L25.5742 16.5987C25.529 16.6155 25.4948 16.6239 25.4709 16.6239C25.4539 16.6239 25.4395 16.6195 25.4276 16.6108C25.4157 16.602 25.4081 16.591 25.4048 16.5776C25.4015 16.5643 25.3998 16.5171 25.3998 16.4361V16.0363H25.5782Z" fill="white"/>
<path d="M25.7256 16.5372L25.9878 16.4966C25.9989 16.5471 26.0215 16.5854 26.0555 16.6117C26.0896 16.6379 26.1371 16.6509 26.1983 16.6509C26.2659 16.6509 26.3167 16.6384 26.3506 16.6135C26.3736 16.5959 26.3851 16.5726 26.3851 16.5431C26.3851 16.5232 26.3787 16.5066 26.3663 16.4936C26.3531 16.481 26.3239 16.4695 26.2784 16.4588C26.0666 16.412 25.9323 16.3693 25.8758 16.3307C25.7972 16.2773 25.7581 16.2029 25.7581 16.1078C25.7581 16.0219 25.7919 15.9497 25.8598 15.8913C25.9277 15.8329 26.033 15.8036 26.1756 15.8036C26.3114 15.8036 26.4122 15.8255 26.4783 15.8692C26.5443 15.9131 26.5898 15.9778 26.6148 16.0635L26.3688 16.1095C26.3582 16.0711 26.3379 16.0415 26.3082 16.0211C26.2783 16.0006 26.2359 15.9903 26.1808 15.9903C26.1113 15.9903 26.0614 16 26.0313 16.0195C26.0112 16.0331 26.0013 16.0509 26.0013 16.0727C26.0013 16.0915 26.0099 16.1075 26.0274 16.1206C26.051 16.1381 26.1327 16.1627 26.2724 16.1946C26.412 16.2265 26.5096 16.2655 26.565 16.3117C26.6197 16.3584 26.6472 16.4237 26.6472 16.5073C26.6472 16.5983 26.6093 16.6766 26.5338 16.7421C26.4581 16.8077 26.3464 16.8404 26.1983 16.8404C26.064 16.8404 25.9577 16.8132 25.8793 16.7588C25.801 16.7044 25.7498 16.6306 25.7256 16.5372Z" fill="white"/>
<path fill-rule="evenodd" clip-rule="evenodd" d="M28.4513 16.816H28.7481L28.1981 15.4516H27.9082L27.3806 16.816H27.6723L27.7845 16.5074H28.3335L28.4513 16.816ZM28.0522 15.7711L28.2426 16.2774H27.8681L28.0522 15.7711Z" fill="white"/>
<path d="M29.198 16.816H28.9359V15.8279H29.1791V15.9684C29.2207 15.9021 29.2579 15.8581 29.2912 15.8362C29.3244 15.8145 29.362 15.8036 29.4043 15.8036C29.4638 15.8036 29.5211 15.8201 29.5764 15.8531L29.4966 16.0819C29.4524 16.0534 29.4114 16.0391 29.3735 16.0391C29.3366 16.0391 29.3056 16.0493 29.2801 16.0694C29.2546 16.0896 29.2345 16.1261 29.22 16.1789C29.2053 16.2316 29.198 16.3422 29.198 16.5105V16.816Z" fill="white"/>
<path fill-rule="evenodd" clip-rule="evenodd" d="M30.5793 16.5481L30.3199 16.5048C30.3054 16.5541 30.2842 16.59 30.2561 16.6122C30.2279 16.6344 30.1932 16.6455 30.1518 16.6455C30.0912 16.6455 30.0405 16.6239 29.9998 16.5807C29.9592 16.5374 29.938 16.4769 29.9361 16.3992H30.5928C30.5965 16.1975 30.5558 16.0479 30.4708 15.9501C30.3856 15.8524 30.2695 15.8036 30.1223 15.8036C29.9912 15.8036 29.8828 15.8501 29.7972 15.9432C29.7114 16.0363 29.6685 16.1652 29.6685 16.3294C29.6685 16.4672 29.7011 16.5811 29.7664 16.6713C29.849 16.784 29.9765 16.8404 30.1486 16.8404C30.2574 16.8404 30.348 16.8156 30.4204 16.7657C30.4928 16.7159 30.5458 16.6433 30.5793 16.5481ZM30.2745 16.064C30.3119 16.1041 30.3315 16.1625 30.3334 16.2394H29.9408C29.9401 16.1669 29.9585 16.1095 29.9959 16.0673C30.0333 16.0251 30.0806 16.0039 30.138 16.0039C30.1916 16.0039 30.2371 16.024 30.2745 16.064Z" fill="white"/>
<path fill-rule="evenodd" clip-rule="evenodd" d="M31.0541 16.1284L30.8189 16.0851C30.8456 15.9894 30.8914 15.9186 30.9564 15.8726C31.0215 15.8266 31.1182 15.8036 31.2465 15.8036C31.363 15.8036 31.4498 15.8174 31.5068 15.845C31.5638 15.8728 31.604 15.9079 31.6272 15.9504C31.6504 15.9929 31.6621 16.0712 31.6621 16.1849L31.6594 16.4907C31.6594 16.5777 31.6636 16.642 31.6719 16.6832C31.6803 16.7245 31.6959 16.7688 31.7188 16.816H31.4594C31.4525 16.799 31.4443 16.7736 31.4342 16.74C31.43 16.7246 31.4268 16.7146 31.4251 16.7096C31.3804 16.7532 31.3329 16.786 31.2821 16.8078C31.2314 16.8295 31.1772 16.8404 31.1196 16.8404C31.0181 16.8404 30.938 16.8127 30.8795 16.7575C30.8212 16.7021 30.7919 16.6321 30.7919 16.5476C30.7919 16.4917 30.8052 16.4418 30.8318 16.3979C30.8584 16.3541 30.8958 16.3205 30.9438 16.2972C30.9919 16.274 31.0612 16.2534 31.1516 16.236C31.2736 16.2131 31.3582 16.1917 31.4054 16.1718V16.1453C31.4054 16.0944 31.3929 16.0581 31.368 16.0363C31.3431 16.0147 31.296 16.0039 31.2269 16.0039C31.1802 16.0039 31.1437 16.0131 31.1175 16.0315C31.0914 16.0499 31.0701 16.0823 31.0541 16.1284ZM31.4054 16.3423C31.372 16.3536 31.3191 16.3669 31.2468 16.3825C31.1745 16.398 31.1273 16.4134 31.105 16.4283C31.071 16.4526 31.0541 16.4835 31.0541 16.5208C31.0541 16.5576 31.0676 16.5893 31.0948 16.6162C31.122 16.6429 31.1566 16.6564 31.1987 16.6564C31.2457 16.6564 31.2904 16.6408 31.3331 16.6097C31.3646 16.5859 31.3853 16.557 31.3952 16.5227C31.4019 16.5003 31.4054 16.4576 31.4054 16.3946V16.3423Z" fill="white"/>
<path fill-rule="evenodd" clip-rule="evenodd" d="M26.8362 13.7191H29.4013L29.7673 14.9532H31.7106L29.5425 7.8125H26.6484L24.5066 14.9532H26.4915L26.8362 13.7191ZM28.1213 9.23261L29.0202 12.328H27.249L28.1213 9.23261Z" fill="white"/>
<path fill-rule="evenodd" clip-rule="evenodd" d="M16.6213 8.81714C17.4126 8.81714 18.1189 9.18228 18.5831 9.75421L18.9967 8.866C18.3499 8.25361 17.4696 7.87608 16.4986 7.87608C14.9869 7.87608 13.6937 8.79063 13.163 10.0852H12.3565L11.8804 11.1078H12.9178C12.91 11.2027 12.905 11.2976 12.905 11.3945C12.905 11.5117 12.9111 11.6275 12.9226 11.7419H12.4012L11.9252 12.7649H13.1877C13.7336 14.0267 15.0106 14.9126 16.4986 14.9126C17.2485 14.9126 17.9443 14.6875 18.5205 14.3031V13.0494C18.0565 13.5786 17.3779 13.913 16.6213 13.913C15.737 13.913 14.959 13.4562 14.5061 12.7649H17.1499L17.626 11.7419H14.1171C14.099 11.6188 14.0893 11.493 14.0893 11.3649C14.0893 11.2783 14.0938 11.1925 14.1021 11.1078H17.9211L18.3972 10.0852H14.4324C14.8708 9.32721 15.6868 8.81714 16.6213 8.81714Z" fill="#FFBE00"/>
</g>
</g>
</svg>
