<svg width="22" height="16" viewBox="0 0 22 16" fill="none" xmlns="http://www.w3.org/2000/svg">
<g id="Group 36791">
<path id="Vector" d="M21.2089 9.46011L18.9812 6.48476L18.2564 4.67286C18.1993 4.53162 18.1012 4.41072 17.9747 4.32574C17.8483 4.24076 17.6993 4.19558 17.5469 4.19604H15.6396V3.05167C15.6396 2.44467 15.3985 1.86252 14.9693 1.4333C14.5401 1.00408 13.9579 0.762947 13.3509 0.762947H12.3019C12.2523 0.763247 12.2035 0.776286 12.1604 0.800815C12.1172 0.825344 12.0811 0.860541 12.0555 0.903035C12.0298 0.945529 12.0155 0.993896 12.0139 1.04351C12.0123 1.09311 12.0235 1.1423 12.0463 1.18636C12.498 2.06496 12.6748 3.05918 12.5537 4.03964C12.405 5.29773 11.7804 6.45121 10.8082 7.26338C9.83597 8.07556 8.58975 8.48484 7.32529 8.40725C6.06083 8.32965 4.87401 7.77106 4.00837 6.8461C3.14273 5.92114 2.66392 4.69995 2.67018 3.43313C2.67055 2.65146 2.85756 1.88118 3.21566 1.18636C3.23867 1.14202 3.24983 1.09248 3.24805 1.04255C3.24628 0.992625 3.23163 0.944004 3.20554 0.901403C3.17944 0.858803 3.14278 0.82367 3.0991 0.799412C3.05543 0.775153 3.00623 0.762592 2.95627 0.762947H2.28873C1.68172 0.762947 1.09957 1.00408 0.670353 1.4333C0.241133 1.86252 0 2.44467 0 3.05167V11.4437C0 12.0507 0.241133 12.6328 0.670353 13.062C1.09957 13.4913 1.68172 13.7324 2.28873 13.7324H2.67018C2.76642 14.3635 3.08561 14.9393 3.56987 15.3553C4.05414 15.7713 4.67143 16 5.30985 16C5.94827 16 6.56556 15.7713 7.04982 15.3553C7.53408 14.9393 7.85327 14.3635 7.94951 13.7324H14.1443C14.2406 14.3635 14.5598 14.9393 15.044 15.3553C15.5283 15.7713 16.1456 16 16.784 16C17.4224 16 18.0397 15.7713 18.524 15.3553C19.0082 14.9393 19.3274 14.3635 19.4237 13.7324H20.5985C20.8009 13.7324 20.9949 13.652 21.138 13.5089C21.2811 13.3659 21.3615 13.1718 21.3615 12.9695V9.91785C21.3615 9.75278 21.3079 9.59217 21.2089 9.46011ZM5.34036 14.4953C5.10426 14.4946 4.87415 14.421 4.68157 14.2844C4.48898 14.1478 4.34336 13.955 4.26466 13.7324H6.41225C6.33377 13.9544 6.18873 14.1468 5.9969 14.2833C5.80508 14.4198 5.57581 14.4939 5.34036 14.4953ZM16.784 14.4953C16.5479 14.4946 16.3178 14.421 16.1252 14.2844C15.9326 14.1478 15.787 13.955 15.7083 13.7324H17.8559C17.7774 13.9544 17.6324 14.1468 17.4405 14.2833C17.2487 14.4198 17.0194 14.4939 16.784 14.4953ZM19.8356 12.2066H15.5023C15.5911 11.9619 15.6376 11.7039 15.6396 11.4437V5.72186H17.0319L17.6041 7.14849C17.6293 7.21111 17.6626 7.27012 17.7033 7.32396L19.8356 10.1734V12.2066Z" fill="#189C03"/>
<path id="Vector_2" d="M7.62938 6.86618C8.30838 6.86618 8.97213 6.66483 9.5367 6.2876C10.1013 5.91037 10.5413 5.37419 10.8011 4.74688C11.061 4.11956 11.129 3.42928 10.9965 2.76333C10.864 2.09737 10.5371 1.48566 10.0569 1.00553C9.57681 0.525404 8.9651 0.198434 8.29914 0.0659674C7.63319 -0.0664991 6.94291 0.00148749 6.31559 0.26133C5.68828 0.521172 5.1521 0.9612 4.77487 1.52577C4.39764 2.09034 4.19629 2.75409 4.19629 3.43309C4.19629 4.3436 4.55799 5.21682 5.20182 5.86065C5.84565 6.50448 6.71887 6.86618 7.62938 6.86618ZM5.94717 2.89524C6.01802 2.82431 6.10216 2.76804 6.19477 2.72964C6.28739 2.69125 6.38666 2.67149 6.48692 2.67149C6.58718 2.67149 6.68646 2.69125 6.77907 2.72964C6.87169 2.76804 6.95583 2.82431 7.02668 2.89524L7.25174 3.1203L8.23971 2.13233C8.38286 1.98918 8.57702 1.90876 8.77946 1.90876C8.98191 1.90876 9.17607 1.98918 9.31922 2.13233C9.46238 2.27548 9.5428 2.46964 9.5428 2.67209C9.5428 2.87454 9.46238 3.0687 9.31922 3.21185L7.7934 4.73767C7.72255 4.8086 7.63841 4.86487 7.54579 4.90326C7.45318 4.94166 7.3539 4.96142 7.25365 4.96142C7.15339 4.96142 7.05411 4.94166 6.9615 4.90326C6.86888 4.86487 6.78474 4.8086 6.71389 4.73767L5.95098 3.97476C5.8798 3.90415 5.82323 3.82021 5.78451 3.72773C5.74579 3.63525 5.72567 3.53605 5.72532 3.43579C5.72496 3.33553 5.74438 3.23619 5.78244 3.14344C5.82051 3.05068 5.87648 2.96634 5.94717 2.89524Z" fill="#189C03"/>
</g>
</svg>
