<svg width="27" height="27" viewBox="0 0 27 27" fill="none" xmlns="http://www.w3.org/2000/svg">
<path d="M23.2013 25.6594L26.5996 26.5996L25.6596 23.2013C26.5073 21.8965 27 20.3398 27 18.668C27 14.0663 23.2697 10.3359 18.668 10.3359C14.0663 10.3359 10.3359 14.0663 10.3359 18.668C10.3359 23.2697 14.0663 27 18.668 27C20.3398 27 21.8965 26.5073 23.2013 25.6594Z" fill="#FFD306"/>
<path d="M10.3096 0L6.09082 10.3096L10.3096 20.6191C15.9944 20.6191 20.6191 15.9944 20.6191 10.3096C20.6191 4.62476 15.9944 0 10.3096 0Z" fill="#148C00"/>
<path d="M0 10.3096C0 12.1623 0.493149 13.9662 1.4296 15.5498L0.0379028 20.581L5.0693 19.1895C6.65298 20.126 8.45686 20.6191 10.3096 20.6191V0C4.62476 0 0 4.62476 0 10.3096Z" fill="#25AC10"/>
<path d="M9.51855 14.291H11.1006V15.873H9.51855V14.291Z" fill="#FFD306"/>
<path d="M9.51855 10.7785V12.7089H10.3096L10.8369 11.3817L10.3096 10.0544L9.51855 10.7785Z" fill="#FFD306"/>
<path d="M7.14551 7.91016H8.72754C8.72754 7.03777 9.43719 6.32813 10.3096 6.32813L10.8369 5.53711L10.3096 4.74609C8.5648 4.74609 7.14551 6.16539 7.14551 7.91016Z" fill="#FFD306"/>
<path d="M10.3096 4.74609V6.32813C11.182 6.32813 11.8916 7.03777 11.8916 7.91016C11.8916 8.35943 11.7087 8.77409 11.3766 9.07793L10.3096 10.0546V12.709H11.1006V11.4753L12.4447 10.2451C13.0985 9.64668 13.4736 8.79572 13.4736 7.91016C13.4736 6.16539 12.0543 4.74609 10.3096 4.74609Z" fill="#FFD306"/>
</svg>
