<svg width="45" height="45" viewBox="0 0 45 45" fill="none" xmlns="http://www.w3.org/2000/svg">
<rect width="45" height="45" rx="8" fill="#148C00"/>
<path d="M36.6835 14.2703C36.6355 13.7944 36.4062 13.365 36.0341 13.0609L33.2512 10.7898C32.4841 10.1648 31.3484 10.2746 30.7169 11.0367L19.0179 25.1829L14.3166 21.1812C13.5627 20.5419 12.4246 20.6266 11.7775 21.3756L9.43409 24.0927C9.12075 24.4553 8.96829 24.9169 9.0055 25.394C9.04272 25.8711 9.26362 26.3053 9.62978 26.6154L18.5172 34.1847C18.8474 34.465 19.2568 34.6153 19.6865 34.6153C19.7394 34.6153 19.7934 34.6129 19.8474 34.6081C20.3336 34.5652 20.7718 34.335 21.0816 33.9617L36.2826 15.58C36.5887 15.2114 36.7304 14.745 36.6835 14.2703Z" fill="white"/>
</svg>
