<svg width="136" height="42" viewBox="0 0 136 42" fill="none" xmlns="http://www.w3.org/2000/svg">
<g id="Frame 36962">
<rect width="136" height="42" fill="white"/>
<g id="Group 36970">
<g id="Group">
<path id="Vector" d="M46.9748 8C42.944 8 39.4775 10.4622 38.0001 13.9616C36.5227 10.4622 33.0562 8 29.0254 8C28.6047 8 28.2637 8.34105 28.2637 8.76172C28.2637 14.1304 32.6315 18.4982 38.0001 18.4982C43.3688 18.4982 47.7366 14.1304 47.7366 8.76172C47.7366 8.34105 47.3956 8 46.9748 8Z" fill="#AAE745"/>
<path id="Vector_2" d="M44.1215 30.7364C44.5422 30.7364 44.8833 30.3953 44.8833 29.9747V25.4873C44.8833 24.3924 43.9926 23.5017 42.8977 23.5017C41.8028 23.5017 40.9121 24.3924 40.9121 25.4873V29.9747C40.9121 30.3953 41.2532 30.7364 41.6738 30.7364C42.0945 30.7364 42.4355 30.3953 42.4355 29.9747V28.8327H43.3598V29.9747C43.3598 30.3954 43.7009 30.7364 44.1215 30.7364ZM42.4356 27.3092V25.4873C42.4356 25.2325 42.6429 25.0252 42.8978 25.0252C43.1526 25.0252 43.3599 25.2325 43.3599 25.4873V27.3092H42.4356Z" fill="#AAE745"/>
<path id="Vector_3" d="M50.2381 23.5019C49.8174 23.5019 49.4764 23.8429 49.4764 24.2636V27.1065L47.6359 23.8856C47.4646 23.5858 47.1128 23.4386 46.7791 23.5274C46.4453 23.616 46.2129 23.9181 46.2129 24.2635V29.9747C46.2129 30.3954 46.5539 30.7365 46.9746 30.7365C47.3953 30.7365 47.7363 30.3954 47.7363 29.9747V27.1319L49.5768 30.3527C49.6519 30.4842 49.9483 30.8399 50.4336 30.711C50.7675 30.6224 50.9998 30.3202 50.9998 29.9748V24.2636C50.9998 23.8429 50.6588 23.5019 50.2381 23.5019Z" fill="#AAE745"/>
<g id="Group_2">
<path id="Vector_4" d="M33.9184 25.0253C34.339 25.0253 34.6801 24.6843 34.6801 24.2636C34.6801 23.8429 34.339 23.5019 33.9184 23.5019H31.4707C31.05 23.5019 30.709 23.8429 30.709 24.2636V29.9748C30.709 30.3955 31.05 30.7365 31.4707 30.7365H33.9184C34.339 30.7365 34.6801 30.3955 34.6801 29.9748C34.6801 29.5541 34.339 29.2131 33.9184 29.2131H32.2324V27.8809H33.1025C33.5231 27.8809 33.8642 27.5399 33.8642 27.1192C33.8642 26.6985 33.5231 26.3575 33.1025 26.3575H32.2324V25.0253H33.9184Z" fill="#25AC10"/>
<path id="Vector_5" d="M26.6613 30.184C26.7547 30.5109 27.0536 30.7364 27.3937 30.7364C27.7338 30.7364 28.0327 30.511 28.1261 30.184L29.7579 24.4727C29.8734 24.0682 29.6392 23.6466 29.2348 23.5311C28.8303 23.4157 28.4086 23.6497 28.2931 24.0542L27.3937 27.202L26.4943 24.0542C26.3788 23.6497 25.9571 23.4153 25.5527 23.5311C25.1482 23.6466 24.9139 24.0682 25.0295 24.4727L26.6613 30.184Z" fill="#25AC10"/>
<path id="Vector_6" d="M38.8146 26.4529C39.2352 26.4529 39.5763 26.1116 39.5763 25.6909C39.5763 24.4838 38.5943 23.5019 37.3868 23.5019C36.1795 23.5019 35.1973 24.4841 35.1973 25.6914V28.5469C35.1973 29.7542 36.1795 30.7365 37.3868 30.7365C38.5941 30.7365 39.5763 29.7542 39.5763 28.5469V27.935C39.5763 27.5144 39.2352 27.1733 38.8146 27.1733H38.1007C37.68 27.1733 37.339 27.5144 37.339 27.935C37.339 28.3341 37.6458 28.6615 38.0364 28.6941C37.9693 28.9908 37.7035 29.213 37.3868 29.213C37.0195 29.213 36.7207 28.9142 36.7207 28.5469V25.6914C36.7207 25.3242 37.0195 25.0253 37.3873 25.0253C37.7543 25.0253 38.0528 25.3239 38.0528 25.6909V25.6914C38.0528 26.1121 38.3939 26.4529 38.8146 26.4529Z" fill="#25AC10"/>
</g>
<path id="Vector_7" d="M50.2383 32.4766H25.7617C25.341 32.4766 25 32.8176 25 33.2383C25 33.659 25.341 34 25.7617 34H50.2383C50.659 34 51 33.659 51 33.2383C51 32.8176 50.659 32.4766 50.2383 32.4766Z" fill="#AAE745"/>
<path id="Vector_8" d="M25.7617 21.7617H50.2383C50.659 21.7617 51 21.4207 51 21C51 20.5793 50.659 20.2383 50.2383 20.2383H25.7617C25.341 20.2383 25 20.5793 25 21C25 21.4207 25.341 21.7617 25.7617 21.7617Z" fill="#AAE745"/>
<path id="Vector_9" d="M38 18.4982C43.3687 18.4982 47.7364 14.1304 47.7364 8.76172C47.7364 8.34105 47.3954 8 46.9747 8C42.9439 8 39.4774 10.4622 38 13.9616V18.4982Z" fill="#25AC10"/>
<g id="Group_3">
<path id="Vector_10" d="M39.5776 28.5468V27.9348C39.5776 27.5142 39.2366 27.1731 38.8159 27.1731H38.102C38.0673 27.1731 38.0335 27.1763 38 27.1807V28.6889C38.0126 28.6906 38.025 28.6928 38.0378 28.6939C38.0287 28.7338 38.0158 28.7722 38 28.809V30.6486C38.9104 30.3832 39.5776 29.5417 39.5776 28.5468Z" fill="#AAE745"/>
<path id="Vector_11" d="M38 23.5894V25.4284C38.0347 25.509 38.0541 25.5977 38.0541 25.6909V25.6914C38.0541 26.112 38.3952 26.4528 38.8159 26.4528C39.2365 26.4528 39.5776 26.1115 39.5776 25.6909C39.5776 24.6962 38.9104 23.8548 38 23.5894Z" fill="#AAE745"/>
</g>
<path id="Vector_12" d="M50.2383 20.2383H38V21.7617H50.2383C50.659 21.7617 51 21.4207 51 21C51 20.5793 50.659 20.2383 50.2383 20.2383Z" fill="#25AC10"/>
<path id="Vector_13" d="M50.2383 32.4766H38V34H50.2383C50.659 34 51 33.659 51 33.2383C51 32.8176 50.659 32.4766 50.2383 32.4766Z" fill="#25AC10"/>
</g>
<g id="Group_4">
<path id="Vector_14" d="M110.238 20.2383H107.456L109.203 18.4917C109.5 18.1941 109.5 17.7121 109.203 17.4145C108.905 17.117 108.423 17.117 108.126 17.4145L105.302 20.2383H99.8388L103.702 16.3754H107.696C108.117 16.3754 108.457 16.0347 108.457 15.6137C108.457 15.1927 108.117 14.852 107.696 14.852H105.226L107.157 12.9209C107.455 12.6234 107.455 12.1413 107.157 11.8438C106.859 11.5463 106.377 11.5463 106.08 11.8438L104.147 13.7762V11.3052C104.147 10.8842 103.807 10.5435 103.386 10.5435C102.965 10.5435 102.624 10.8842 102.624 11.3052V15.2994L98.7617 19.1612V13.6982L101.585 10.8745C101.883 10.577 101.883 10.0949 101.585 9.7974C101.288 9.49988 100.806 9.49988 100.508 9.7974L98.7617 11.544V8.76172C98.7617 8.34069 98.421 8 98 8C97.579 8 97.2383 8.34069 97.2383 8.76172V11.544L95.4917 9.79735C95.1941 9.49982 94.7121 9.49982 94.4145 9.79735C94.117 10.0949 94.117 10.5769 94.4145 10.8745L97.2383 13.6982V19.1612L93.3761 15.2994V11.3052C93.3761 10.8842 93.0354 10.5435 92.6144 10.5435C92.1934 10.5435 91.8527 10.8842 91.8527 11.3052V13.7761L89.9201 11.8437C89.6226 11.5462 89.1406 11.5462 88.843 11.8437C88.5455 12.1413 88.5455 12.6233 88.843 12.9209L90.7743 14.8519H88.3044C87.8834 14.8519 87.5427 15.1926 87.5427 15.6136C87.5427 16.0347 87.8834 16.3754 88.3044 16.3754H92.2979L96.1612 20.2383H90.6982L87.8745 17.4146C87.577 17.1171 87.0949 17.1171 86.7974 17.4146C86.4999 17.7121 86.4999 18.1942 86.7974 18.4917L88.544 20.2383H85.7617C85.3407 20.2383 85 20.579 85 21C85 21.421 85.3407 21.7617 85.7617 21.7617H88.544L86.7974 23.5083C86.4998 23.8059 86.4998 24.2879 86.7974 24.5855C87.0949 24.883 87.5769 24.883 87.8745 24.5855L90.6982 21.7617H96.1612L92.2979 25.6246H88.3044C87.8834 25.6246 87.5427 25.9653 87.5427 26.3863C87.5427 26.8073 87.8834 27.148 88.3044 27.148H90.7742L88.843 29.0791C88.5454 29.3766 88.5454 29.8587 88.843 30.1562C89.1405 30.4537 89.6225 30.4538 89.9201 30.1562L91.8527 28.2238V30.6947C91.8527 31.1158 92.1934 31.4565 92.6144 31.4565C93.0354 31.4565 93.3761 31.1158 93.3761 30.6947V26.7006L97.2383 22.8388V28.3018L94.4146 31.1255C94.1171 31.423 94.1171 31.9051 94.4146 32.2026C94.7121 32.5001 95.1942 32.5001 95.4917 32.2026L97.2383 30.456V33.2383C97.2383 33.6593 97.579 34 98 34C98.421 34 98.7617 33.6593 98.7617 33.2383V30.456L100.508 32.2026C100.806 32.5002 101.288 32.5002 101.585 32.2026C101.883 31.9051 101.883 31.4231 101.585 31.1255L98.7617 28.3018V22.8388L102.624 26.7006V30.6948C102.624 31.1158 102.965 31.4565 103.386 31.4565C103.807 31.4565 104.147 31.1158 104.147 30.6948V28.2239L106.08 30.1563C106.377 30.4538 106.859 30.4538 107.157 30.1563C107.455 29.8587 107.455 29.3767 107.157 29.0791L105.226 27.1481H107.696C108.117 27.1481 108.457 26.8074 108.457 26.3864C108.457 25.9653 108.117 25.6246 107.696 25.6246H103.702L99.8388 21.7617H105.302L108.125 24.5854C108.423 24.8829 108.905 24.883 109.203 24.5854C109.5 24.2879 109.5 23.8058 109.203 23.5083L107.456 21.7617H110.238C110.659 21.7617 111 21.421 111 21C111 20.579 110.659 20.2383 110.238 20.2383Z" fill="#66CCFF"/>
<path id="Vector_15" d="M98.7617 33.2383V30.456L100.508 32.2026C100.806 32.5002 101.288 32.5002 101.585 32.2026C101.883 31.9051 101.883 31.4231 101.585 31.1255L98.7617 28.3018V22.8388L102.624 26.7006V30.6948C102.624 31.1158 102.965 31.4565 103.386 31.4565C103.807 31.4565 104.147 31.1158 104.147 30.6948V28.2239L106.08 30.1563C106.377 30.4538 106.859 30.4538 107.157 30.1563C107.455 29.8587 107.455 29.3767 107.157 29.0791L105.226 27.1481H107.696C108.117 27.1481 108.457 26.8074 108.457 26.3864C108.457 25.9653 108.117 25.6246 107.696 25.6246H103.702L99.8388 21.7617H105.302L108.125 24.5854C108.423 24.8829 108.905 24.8829 109.203 24.5854C109.5 24.2879 109.5 23.8058 109.203 23.5083L107.456 21.7617H110.238C110.659 21.7617 111 21.421 111 21C111 20.579 110.659 20.2383 110.238 20.2383H107.456L109.203 18.4917C109.5 18.1941 109.5 17.7121 109.203 17.4145C108.905 17.117 108.423 17.117 108.126 17.4145L105.302 20.2383H99.8388L103.702 16.3754H107.696C108.117 16.3754 108.457 16.0347 108.457 15.6137C108.457 15.1927 108.117 14.852 107.696 14.852H105.226L107.157 12.9209C107.455 12.6234 107.455 12.1413 107.157 11.8438C106.859 11.5463 106.377 11.5463 106.08 11.8438L104.147 13.7762V11.3052C104.147 10.8842 103.807 10.5435 103.386 10.5435C102.965 10.5435 102.624 10.8842 102.624 11.3052V15.2994L98.7617 19.1612V13.6982L101.585 10.8745C101.883 10.577 101.883 10.0949 101.585 9.7974C101.288 9.49988 100.806 9.49988 100.508 9.7974L98.7617 11.544V8.76172C98.7617 8.34069 98.421 8 98 8V34C98.421 34 98.7617 33.6593 98.7617 33.2383Z" fill="#59ABFF"/>
<g id="Group_5">
<path id="Vector_16" d="M98 23.2852C96.7399 23.2852 95.7148 22.2601 95.7148 21C95.7148 19.7399 96.7399 18.7148 98 18.7148C99.2601 18.7148 100.285 19.7399 100.285 21C100.285 22.2601 99.2601 23.2852 98 23.2852Z" fill="#66CCFF"/>
</g>
<path id="Vector_17" d="M100.285 21C100.285 19.7399 99.2601 18.7148 98 18.7148V23.2852C99.2601 23.2852 100.285 22.2601 100.285 21Z" fill="#59ABFF"/>
</g>
</g>
</g>
</svg>
