<svg width="36" height="36" viewBox="0 0 36 36" fill="none" xmlns="http://www.w3.org/2000/svg">
<path d="M18.1277 36C27.8669 36 35.7622 27.9411 35.7622 18C35.7622 8.05888 27.8669 0 18.1277 0C8.3884 0 0.493164 8.05888 0.493164 18C0.493164 27.9411 8.3884 36 18.1277 36Z" fill="black"/>
<path fill-rule="evenodd" clip-rule="evenodd" d="M22.7634 14.8966C24.1889 15.9344 25.9434 16.5551 27.8374 16.5551V12.8411C27.4786 12.8411 27.1197 12.8004 26.7708 12.7292V15.6495C24.8767 15.6495 23.1322 15.039 21.6968 13.991V21.5715C21.6968 25.3669 18.6862 28.4296 14.9679 28.4296C13.5823 28.4296 12.2963 28.0023 11.2197 27.2696C12.4459 28.5416 14.1405 29.3352 16.0246 29.3352C19.7429 29.3352 22.7534 26.2623 22.7534 22.4771V14.8966H22.7634ZM24.0793 11.1521C23.3515 10.338 22.8731 9.28999 22.7634 8.11984V7.6416H21.7566C22.0058 9.11701 22.8731 10.3787 24.0793 11.1521ZM13.5823 24.3595C13.1736 23.8101 12.9543 23.1487 12.9543 22.4567C12.9543 20.727 14.3299 19.3126 16.0346 19.3126C16.3536 19.3126 16.6626 19.3635 16.9716 19.4551V15.6597C16.6227 15.6088 16.2639 15.5885 15.905 15.5986V18.5495C15.6059 18.4477 15.2869 18.407 14.9679 18.407C13.2733 18.407 11.8876 19.8112 11.8876 21.5512C11.8876 22.7722 12.5755 23.8406 13.5823 24.3595Z" fill="#EE1D52"/>
<path fill-rule="evenodd" clip-rule="evenodd" d="M21.6957 14.0012C23.1212 15.0391 24.8757 15.6598 26.7697 15.6598V12.7395C25.7131 12.5054 24.776 11.9458 24.0782 11.1623C22.872 10.3992 22.0047 9.13744 21.7555 7.65186H19.1039V22.4772C19.1039 24.207 17.7182 25.601 16.0235 25.601C15.0267 25.601 14.1395 25.1126 13.5713 24.3596C12.5644 23.8407 11.8766 22.7824 11.8766 21.5512C11.8766 19.8214 13.2523 18.4071 14.9569 18.4071C15.2859 18.4071 15.5949 18.458 15.894 18.5495V15.5987C12.2454 15.6801 9.30469 18.7225 9.30469 22.4568C9.30469 24.3291 10.0324 26.0182 11.2187 27.2595C12.2853 27.9921 13.5812 28.4195 14.9669 28.4195C18.6852 28.4195 21.6957 25.3466 21.6957 21.5614V13.9809V14.0012Z" fill="white"/>
<path fill-rule="evenodd" clip-rule="evenodd" d="M26.77 12.7291V11.9355C25.8229 11.9355 24.8859 11.6607 24.0784 11.152C24.7962 11.9456 25.7332 12.5053 26.77 12.7291ZM21.7557 7.65169C21.7358 7.50924 21.7159 7.36677 21.6959 7.22432V6.74609H18.0374V21.5714C18.0374 23.3012 16.6518 24.6952 14.9571 24.6952C14.4587 24.6952 13.9902 24.5731 13.5715 24.3594C14.1297 25.1124 15.0169 25.6008 16.0238 25.6008C17.7184 25.6008 19.0941 24.1966 19.1041 22.477V7.65169H21.7557ZM15.8942 15.6189V14.7744C15.5852 14.7337 15.2761 14.7133 14.9671 14.7133C11.2488 14.7133 8.23828 17.7862 8.23828 21.5714C8.23828 23.9524 9.42455 26.0383 11.2189 27.2695C10.0326 26.0282 9.30492 24.3391 9.30492 22.4668C9.30492 18.7223 12.2357 15.6799 15.8942 15.6087V15.6189Z" fill="#69C9D0"/>
</svg>
