<svg width="15" height="19" viewBox="0 0 15 19" fill="none" xmlns="http://www.w3.org/2000/svg">
<path d="M14.4391 5.20169C14.8336 5.20169 15.1072 4.81781 14.9593 4.46578C14.4339 3.2159 13.1598 2.33179 11.6749 2.33179H10.9885C10.7325 1.03054 9.54705 0 8.09641 0H6.90358C5.45389 0 4.26762 1.02986 4.01149 2.33179H3.32509C1.84024 2.33179 0.566076 3.2159 0.0407454 4.46578C-0.107203 4.81781 0.166365 5.20169 0.560931 5.20169H14.4391ZM6.90358 1.07621H8.09641C8.91276 1.07621 9.60572 1.60478 9.83899 2.33179H5.16101C5.39428 1.60478 6.08724 1.07621 6.90358 1.07621Z" fill="#148C00"/>
<path d="M2.09709 16.8676C2.15931 17.7086 2.89428 18.3673 3.77026 18.3673H11.23C12.1059 18.3673 12.8409 17.7086 12.9031 16.8676L13.6868 6.27783H1.31348L2.09709 16.8676ZM9.02915 9.15673C9.04459 8.85992 9.30757 8.631 9.6155 8.64618C9.92392 8.66103 10.1614 8.91369 10.146 9.21047L9.84781 14.9503C9.83286 15.2379 9.58579 15.4615 9.28982 15.4615C8.96787 15.4615 8.71503 15.2024 8.73091 14.8965L9.02915 9.15673ZM5.38476 8.64618C5.69277 8.63129 5.95571 8.85995 5.97111 9.15673L6.26932 14.8965C6.2852 15.2025 6.03217 15.4615 5.7104 15.4615C5.41443 15.4615 5.16736 15.2379 5.15242 14.9503L4.85421 9.21047C4.83881 8.91369 5.07634 8.66103 5.38476 8.64618Z" fill="#148C00"/>
</svg>
