<svg width="15" height="19" viewBox="0 0 15 19" fill="none" xmlns="http://www.w3.org/2000/svg">
<path d="M14.4391 5.38086C14.8336 5.38086 15.1072 4.98375 14.9593 4.6196C14.4339 3.32667 13.1598 2.41211 11.6749 2.41211H10.9885C10.7325 1.06604 9.54705 0 8.09641 0H6.90358C5.45389 0 4.26762 1.06534 4.01149 2.41211H3.32509C1.84024 2.41211 0.566076 3.32667 0.0407454 4.6196C-0.107203 4.98375 0.166365 5.38086 0.560931 5.38086H14.4391ZM6.90358 1.11328H8.09641C8.91276 1.11328 9.60572 1.66005 9.83899 2.41211H5.16101C5.39428 1.66005 6.08724 1.11328 6.90358 1.11328Z" fill="#6D6D6D"/>
<path d="M2.09709 17.4487C2.15931 18.3186 2.89428 19 3.77026 19H11.23C12.1059 19 12.8409 18.3186 12.9031 17.4487L13.6868 6.49416H1.31348L2.09709 17.4487ZM9.02915 9.47223C9.04459 9.16519 9.30757 8.92839 9.6155 8.94409C9.92392 8.95945 10.1614 9.22081 10.146 9.52782L9.84781 15.4653C9.83286 15.7629 9.58579 15.9942 9.28982 15.9942C8.96787 15.9942 8.71503 15.7261 8.73091 15.4097L9.02915 9.47223ZM5.38476 8.94409C5.69277 8.92869 5.95571 9.16522 5.97111 9.47223L6.26932 15.4097C6.2852 15.7263 6.03217 15.9942 5.7104 15.9942C5.41443 15.9942 5.16736 15.7629 5.15242 15.4653L4.85421 9.52782C4.83881 9.22081 5.07634 8.95945 5.38476 8.94409Z" fill="#6D6D6D"/>
</svg>
