<svg width="18" height="22" viewBox="0 0 18 22" fill="none" xmlns="http://www.w3.org/2000/svg">
<g id="delete">
<g id="Group">
<path id="Vector" d="M16.6442 6.23047C17.099 6.23047 17.4144 5.77066 17.2438 5.34901C16.6383 3.85193 15.1695 2.79297 13.4579 2.79297H12.6667C12.3716 1.23436 11.0051 0 9.3329 0H7.9579C6.2868 0 4.91937 1.23355 4.62413 2.79297H3.8329C2.12128 2.79297 0.652527 3.85193 0.0469681 5.34901C-0.123575 5.77066 0.191773 6.23047 0.646597 6.23047H16.6442ZM7.9579 1.28906H9.3329C10.2739 1.28906 11.0727 1.92216 11.3416 2.79297H5.9492C6.2181 1.92216 7.01689 1.28906 7.9579 1.28906Z" fill="white"/>
<path id="Vector_2" d="M2.41696 20.2037C2.48868 21.211 3.33589 22 4.34566 22H12.9446C13.9544 22 14.8016 21.211 14.8733 20.2037L15.7766 7.51953H1.51367L2.41696 20.2037ZM10.4077 10.9678C10.4255 10.6123 10.7286 10.3381 11.0836 10.3563C11.4391 10.3741 11.7129 10.6767 11.6951 11.0322L11.3514 17.9072C11.3341 18.2517 11.0493 18.5195 10.7082 18.5195C10.337 18.5195 10.0456 18.2092 10.0639 17.8428L10.4077 10.9678ZM6.20672 10.3563C6.56177 10.3385 6.86487 10.6123 6.88262 10.9678L7.22637 17.8428C7.24467 18.2093 6.953 18.5195 6.58209 18.5195C6.24092 18.5195 5.95613 18.2517 5.93889 17.9072L5.59514 11.0322C5.5774 10.6767 5.8512 10.3741 6.20672 10.3563Z" fill="white"/>
</g>
</g>
</svg>
