<svg width="25" height="25" viewBox="0 0 25 25" fill="none" xmlns="http://www.w3.org/2000/svg">
<g id="whatsapp (1) 1" clip-path="url(#clip0_351_3682)">
<path id="Vector" d="M12.5031 0H12.4969C5.60469 0 0 5.60625 0 12.5C0 15.2344 0.88125 17.7687 2.37969 19.8266L0.821875 24.4703L5.62656 22.9344C7.60313 24.2438 9.96094 25 12.5031 25C19.3953 25 25 19.3922 25 12.5C25 5.60781 19.3953 0 12.5031 0Z" fill="#148C00"/>
<path id="Vector_2" d="M19.7764 17.6517C19.4748 18.5032 18.2779 19.2095 17.3232 19.4157C16.6701 19.5548 15.817 19.6657 12.9451 18.4751C9.27168 16.9532 6.90605 13.2204 6.72168 12.9782C6.54512 12.736 5.2373 11.0017 5.2373 9.20791C5.2373 7.41416 6.14824 6.54072 6.51543 6.16572C6.81699 5.85791 7.31543 5.71729 7.79355 5.71729C7.94824 5.71729 8.0873 5.7251 8.2123 5.73135C8.57949 5.74697 8.76387 5.76885 9.00605 6.34854C9.30762 7.0751 10.042 8.86885 10.1295 9.05322C10.2186 9.2376 10.3076 9.4876 10.1826 9.72979C10.0654 9.97979 9.9623 10.0907 9.77793 10.3032C9.59355 10.5157 9.41855 10.6782 9.23418 10.9063C9.06543 11.1048 8.8748 11.3173 9.0873 11.6845C9.2998 12.0438 10.0342 13.2423 11.1154 14.2048C12.5107 15.447 13.642 15.8438 14.0467 16.0126C14.3482 16.1376 14.7076 16.1079 14.9279 15.8735C15.2076 15.572 15.5529 15.072 15.9045 14.5798C16.1545 14.2267 16.4701 14.1829 16.8014 14.3079C17.1389 14.4251 18.9248 15.3079 19.292 15.4907C19.6592 15.6751 19.9014 15.7626 19.9904 15.9173C20.0779 16.072 20.0779 16.7985 19.7764 17.6517Z" fill="#FAFAFA"/>
</g>
<defs>
<clipPath id="clip0_351_3682">
<rect width="25" height="25" fill="white"/>
</clipPath>
</defs>
</svg>
