<svg width="36" height="36" viewBox="0 0 36 36" fill="none" xmlns="http://www.w3.org/2000/svg">
<path d="M18.365 36C28.1042 36 35.9995 27.9411 35.9995 18C35.9995 8.05888 28.1042 0 18.365 0C8.62571 0 0.730469 8.05888 0.730469 18C0.730469 27.9411 8.62571 36 18.365 36Z" fill="#FF0000"/>
<path d="M27.8051 15.426C27.8051 13.0349 25.9111 11.1016 23.5685 11.1016H12.7425C10.3999 11.1016 8.50586 13.0349 8.50586 15.426V20.5747C8.50586 22.9659 10.3999 24.8992 12.7425 24.8992H23.5685C25.9111 24.8992 27.8051 22.9659 27.8051 20.5747V15.426ZM21.4352 18.387L16.5804 20.8393C16.391 20.941 15.7431 20.8087 15.7431 20.5849V15.5481C15.7431 15.3243 16.391 15.1818 16.5904 15.2938L21.2358 17.8783C21.4352 17.9902 21.6345 18.2751 21.4352 18.387Z" fill="white"/>
</svg>
